<svg width="106" height="72" viewBox="0 0 106 72" fill="none" xmlns="http://www.w3.org/2000/svg">
<path d="M42.2511 27.6296C42.2511 27.6296 44.4097 10.206 43.9224 3.84273C43.6724 0.578904 42.0824 -0.159491 39.652 0.0266591C37.2216 0.212809 23.3232 7.55022 23.3232 7.55022L25.3038 12.297L36.8623 8.68573C36.8623 8.68573 35.6846 15.4647 35.4128 16.7522C35.141 18.0398 34.5725 19.7741 34.1195 21.3284C33.8977 22.0947 33.5884 23.0875 33.5884 23.5684C33.5947 24.7039 42.2511 27.6296 42.2511 27.6296Z" fill="#FFEDE5"/>
<path d="M36.8622 8.6862C38.4742 8.37595 40.083 7.42969 40.5891 6.67578C40.3292 7.52351 39.7554 8.24191 38.9834 8.6862C38.2486 9.15675 37.4703 9.55671 36.6592 9.88066L36.8622 8.6862Z" fill="#F28F8F"/>
<path d="M64.1308 27.3191C63.8902 26.4318 62.322 25.498 57.6487 24.7192C52.9753 23.9405 48.7236 24.7192 48.6986 25.2684C48.6736 25.8175 49.8514 29.4878 55.2401 30.1579C60.6289 30.8281 64.6244 29.2675 64.1308 27.3191Z" fill="#3B2645"/>
<path d="M50.0723 34.8609C50.0723 34.8609 47.0265 15.2407 47.4639 11.2353C47.9168 7.09661 49.4975 5.17617 52.1497 4.90625C55.6142 6.90426 57.4604 11.679 59.6753 16.3855C61.8901 21.092 64.2893 31.1875 64.4174 36.0119C64.5454 40.8363 60.703 44.2739 56.3514 44.9006C51.9998 45.5273 50.0723 34.8609 50.0723 34.8609Z" fill="#FFEDE5"/>
<path d="M54.8586 19.5002C53.4531 18.378 52.5034 16.7891 52.1846 15.0264L56.5424 13.5186L59.482 15.9478L59.5695 16.1371C59.607 16.2177 59.6445 16.2984 59.6851 16.3791C59.7694 16.559 59.8538 16.7483 59.9381 16.9406C59.96 16.9965 59.985 17.0523 60.01 17.1112C60.0756 17.2602 60.1381 17.4215 60.2037 17.5766L60.2693 17.738C60.3567 17.952 60.4411 18.1723 60.5286 18.3988C60.6129 18.6253 60.6973 18.858 60.7816 19.0937C60.8003 19.1465 60.8191 19.1961 60.8347 19.2458L61.0596 19.8973C61.0596 19.9283 61.0815 19.9624 61.094 19.9935C61.2689 20.5209 61.4439 21.0669 61.6126 21.6254L61.6407 21.7154C61.725 21.9915 61.8062 22.2707 61.8875 22.553C61.8875 22.553 57.8389 21.976 54.8586 19.5002Z" fill="#F28F8F"/>
<path d="M51.2319 5.07272C52.8876 4.4243 54.9025 5.94142 55.9677 6.62397C58.1326 8.00148 71.3687 18.2459 74.4551 20.6473C75.1236 21.0506 75.8046 21.4384 76.4981 21.8045L72.8619 27.451C72.5633 26.6396 72.096 25.8996 71.4905 25.2793C68.1916 22.94 61.8064 21.6649 57.6953 20.0764C54.4964 18.8354 53.8279 18.1404 52.7501 16.3255C51.9254 14.889 48.9483 6.14619 51.2319 5.07272Z" fill="#FFEDE5"/>
<path d="M50.0081 34.9701L48.6992 25.2686C48.6992 25.2686 49.8738 27.9429 55.9217 28.6472C61.9696 29.3514 64.2844 28.3369 64.1314 27.3193C64.1314 27.3193 65.7121 33.394 65.0998 37.3404C64.4875 41.2868 58.4177 45.4906 58.4177 45.4906L50.0081 34.9701Z" fill="#3B2645"/>
<path opacity="0.15" d="M52.684 36.2972C52.128 36.2972 51.6063 36.3313 51.1221 36.3623L57.8447 44.7608H59.4067C61.1499 43.3864 64.6455 40.2963 65.1016 37.3489C65.5515 34.4543 64.8205 30.421 64.3987 28.4727C64.6393 30.7127 59.5941 36.1513 52.684 36.2972Z" fill="black"/>
<path d="M82.9618 13.5958C80.7751 13.1925 79.7598 14.7593 78.9538 16.053C78.1479 17.3467 76.7983 19.7202 76.1954 20.1204C75.5925 20.5206 75.2582 20.1204 74.3992 20.7626C73.5401 21.4048 72.9122 22.6241 73.1777 23.0678L73.8025 24.1474C73.4423 24.1082 73.0778 24.1538 72.7386 24.2805C72.3994 24.4071 72.095 24.6113 71.85 24.8765C70.9129 25.8073 71.4002 25.9624 71.9281 26.4898C72.4561 27.0172 73.6963 29.4 74.9396 30.0484C74.9396 30.0484 78.2884 29.0525 80.7157 25.2798C83.143 21.5072 82.9618 13.5958 82.9618 13.5958Z" fill="#AB8DA8"/>
<path d="M75.6296 30.5476C75.5015 30.525 75.3795 30.4761 75.2715 30.4041C75.1634 30.3321 75.0716 30.2386 75.002 30.1294C74.9324 30.0202 74.8864 29.8979 74.8669 29.7701C74.8475 29.6423 74.8551 29.512 74.8892 29.3872C75.2593 28.2239 75.8151 27.1271 76.5355 26.1389C77.3758 24.9538 78.9503 22.7262 79.2158 21.5069C79.4814 20.2876 80.053 16.8718 80.9871 15.4415C81.9212 14.0113 82.8802 13.186 84.111 13.6483C85.3418 14.1105 81.4557 23.266 80.3155 24.8173C79.1752 26.3685 75.6296 30.5476 75.6296 30.5476Z" fill="#3B2645"/>
<path d="M76.3489 30.35C79.426 28.7212 80.4382 27.1389 81.3472 25.0758C82.2563 23.0126 84.3805 21.1108 84.9303 19.2586C85.4802 17.4064 85.5364 12.6565 83.4215 13.8075C81.3066 14.9585 80.8661 19.2058 79.9383 21.6599C79.0105 24.114 73.3312 31.954 76.3489 30.35Z" fill="#3B2645"/>
<path d="M57.8547 35.3665C59.2605 35.1525 61.9627 35.7295 64.4149 39.1299C67.0484 42.7815 67.5389 49.154 65.8863 49.6784C65.8863 49.6784 62.0564 49.2316 59.426 47.8634C56.7957 46.4952 52.3753 37.2529 57.8547 35.3665Z" fill="#3B2645"/>
<path d="M102.777 65.7707C98.6976 64.1791 95.3581 61.4427 92.4685 58.3836C90.1443 55.2501 80.1852 41.8318 78.4577 39.9424C77.8329 39.2722 76.3522 37.5472 74.2998 37.116C67.0335 35.5647 53.5788 35.7943 53.5788 35.7943L48.4056 34.9287L38.0967 44.5651C39.5181 46.0698 41.3018 47.3821 43.9103 48.7317C46.5188 50.0813 49.3397 51.0617 53.1446 50.7421C60.7607 50.103 65.3279 47.9654 69.4046 47.0191C70.5854 46.7461 71.81 46.4948 72.7378 48.4184C73.6656 50.3419 73.7406 51.3068 76.4865 53.3514C80.0072 55.9761 85.8208 58.911 88.3574 62.0383C88.7752 62.805 89.0244 63.651 89.0884 64.5203C89.329 67.8183 92.1155 67.1699 94.3616 68.6032C95.5862 69.3851 96.4952 70.3344 97.9697 70.6571C99.3122 70.9314 100.699 70.906 102.031 70.5826C103.23 70.3003 104.949 69.4409 105.539 68.2806C106.314 66.7355 103.952 66.2267 102.777 65.7707Z" fill="#FFEDE5"/>
<path d="M102.777 65.7707C98.6976 64.1791 95.3581 61.4427 92.4685 58.3836C90.1443 55.2501 80.1852 41.8318 78.4577 39.9424C77.8329 39.2722 76.3522 37.5472 74.2998 37.116C67.0335 35.5647 53.5788 35.7943 53.5788 35.7943L48.4056 34.9287L38.0967 44.5651C39.5181 46.0698 41.3018 47.3821 43.9103 48.7317C46.5188 50.0813 49.3397 51.0617 53.1446 50.7421C60.7607 50.103 65.3279 47.9654 69.4046 47.0191C70.5854 46.7461 71.81 46.4948 72.7378 48.4184C73.6656 50.3419 73.7406 51.3068 76.4865 53.3514C80.0072 55.9761 85.8208 58.911 88.3574 62.0383C88.7752 62.805 89.0244 63.651 89.0884 64.5203C89.329 67.8183 92.1155 67.1699 94.3616 68.6032C95.5862 69.3851 96.4952 70.3344 97.9697 70.6571C99.3122 70.9314 100.699 70.906 102.031 70.5826C103.23 70.3003 104.949 69.4409 105.539 68.2806C106.314 66.7355 103.952 66.2267 102.777 65.7707Z" fill="#FFEDE5"/>
<path d="M76.2509 51.7876C75.4775 50.9362 74.8903 49.9347 74.5265 48.8464C74.247 47.9368 73.8874 47.0533 73.4519 46.2062C72.1836 44.0345 63.7678 46.805 60.0409 47.9405C59.8316 48.2508 58.9569 49.1815 58.6445 49.9571C63.1586 49.0419 66.4075 47.7109 69.3971 47.016C70.5779 46.7429 71.8025 46.4916 72.7303 48.4152C73.6581 50.3387 73.7331 51.3036 76.479 53.3482C77.9097 54.4154 79.7185 55.5199 81.5335 56.6958C79.5061 55.1321 77.9785 53.5653 76.2509 51.7876Z" fill="#F28F8F"/>
<path d="M49.2047 34.9287C49.2047 34.9287 56.5991 35.2886 57.8549 35.3786C57.8549 35.3786 55.0715 36.1232 58.4578 42.9208C61.8441 49.7183 65.8896 49.6811 65.8896 49.6811C60.5789 51.3689 57.8205 53.2645 51.051 52.4734C42.9819 51.3161 38.0898 45.3159 38.0898 45.3159L49.2047 34.9287Z" fill="#3B2645"/>
<path opacity="0.15" d="M65.8708 49.6806C65.8095 49.6845 65.7479 49.6845 65.6865 49.6806C65.0836 49.6123 63.2905 49.2214 61.2818 47.0962C59.6873 47.5186 58.0695 47.849 56.4366 48.0859C50.4012 48.9639 45.8746 47.9059 39.1301 44.335L38.0898 45.3091C40.7665 48.3069 44.2001 50.5411 48.0364 51.781C48.2707 51.8523 48.5112 51.9237 48.7549 51.9888C48.9829 52.0478 49.2141 52.1067 49.4453 52.1595L49.5078 52.175C49.7202 52.2246 49.9389 52.268 50.1575 52.3115L50.2731 52.3332C50.5293 52.3828 50.7854 52.4263 51.0479 52.4635C51.4727 52.5131 51.8788 52.5504 52.2724 52.5814C52.666 52.6124 53.044 52.6279 53.4127 52.6403H53.9531C54.1312 52.6403 54.3061 52.6403 54.4779 52.6403C54.9934 52.6403 55.4838 52.6 55.9555 52.5535C56.2679 52.5225 56.5741 52.4852 56.874 52.4418C57.5962 52.3331 58.3117 52.184 59.017 51.995C59.2919 51.9206 59.5637 51.843 59.8323 51.7592C60.5102 51.5545 61.1787 51.3249 61.866 51.0767L62.7001 50.7664C63.6872 50.4065 64.7244 50.028 65.8865 49.6588L65.8708 49.6806Z" fill="black"/>
<path d="M24.4787 25.6745C21.4735 26.7108 18.6339 28.5226 21.0424 33.8248C24.4787 41.4818 40.0546 49.9826 48.0518 51.7883C43.9907 45.6857 47.3708 39.2169 50.023 34.9696L49.3077 29.7822C49.3077 29.7822 46.9085 28.6374 42.9349 25.5877C38.9612 22.5379 37.3118 21.7095 31.3982 23.4966C27.334 24.7252 24.4787 25.6745 24.4787 25.6745Z" fill="#AB8DA8"/>
<path opacity="0.05" d="M36.6526 42.9794C28.4742 38.3256 25.9032 34.1807 22.695 30.2002L20.5957 32.7442C20.6519 32.9087 20.7144 33.0762 20.7831 33.25C20.782 33.2592 20.782 33.2686 20.7831 33.2779C20.8519 33.4547 20.93 33.6378 21.0143 33.8239C22.5388 37.1746 26.3656 40.6866 30.864 43.7426C31.4888 44.1769 32.1636 44.602 32.8258 45.0146C33.1601 45.2225 33.4944 45.4273 33.8317 45.6351C36.1195 46.9955 38.4876 48.218 40.923 49.2961C43.2081 50.3437 45.5876 51.1747 48.03 51.7781C47.1405 50.4651 46.5459 48.9774 46.2868 47.416C43.444 46.5659 40.3951 45.1108 36.6526 42.9794Z" fill="black"/>
<path d="M22.2236 26.7136C22.2236 26.7136 12.1364 21.3587 10.5401 20.6358L19.3683 15.4888L17.4939 10.6582C17.4939 10.6582 4.37349 15.2902 1.87435 16.6212C0.565429 17.3255 0 17.9056 0 18.9046C0 20.5707 1.59632 22.73 3.80806 24.6008C8.50955 28.5813 14.8886 32.2888 21.1021 35.6768C22.5266 36.7254 24.0073 38.044 24.0073 38.044C25.6411 38.8568 28.0184 31.355 22.2236 26.7136Z" fill="#FFEDE5"/>
<path d="M31.6667 8.10165C31.0366 6.64893 29.8513 5.5043 28.3714 4.91956C26.8916 4.33482 25.2384 4.35787 23.7757 4.98363C22.3129 5.6094 21.1604 6.78662 20.5716 8.25633C19.9829 9.72604 20.0061 11.3678 20.6362 12.8205C20.6768 12.9198 20.7267 13.0098 20.7736 13.1029L19.2491 16.3977L16.9968 12.2745C16.9977 11.9497 16.8771 11.6362 16.6583 11.3948C16.4395 11.1534 16.1381 11.0014 15.8128 10.9684C15.6478 10.9544 15.4817 10.9739 15.3246 11.0256C15.1674 11.0774 15.0225 11.1603 14.8986 11.2694C14.7747 11.3785 14.6744 11.5115 14.6039 11.6603C14.5334 11.8091 14.494 11.9706 14.4883 12.1349L16.2096 12.2838C15.8318 12.5326 15.5423 12.8929 15.3817 13.3138C14.9725 14.3749 16.397 16.5373 18.3057 18.4361C18.3057 18.4361 21.0079 22.2242 21.6639 22.7548C22.0866 23.0743 22.6165 23.2208 23.1447 23.1643L23.3071 15.7183C24.4043 16.3064 25.6587 16.5405 26.8961 16.3881C28.1334 16.2356 29.2922 15.7042 30.2115 14.8677C31.1307 14.0311 31.7648 12.931 32.0256 11.7201C32.2864 10.5093 32.161 9.24777 31.6667 8.11095V8.10165Z" fill="#3B2645"/>
<path d="M20.5775 17.6817C20.3276 18.026 19.5654 17.5886 18.9625 17.3342C18.3596 17.0798 16.7445 17.0705 16.682 18.7799C16.6195 20.4894 18.7344 21.8824 19.9496 21.7552C22.0427 21.5412 21.824 20.2474 21.824 20.2474L24.8979 27.0078C28.4561 28.9437 35.0788 25.8971 31.1051 23.9828L30.2273 21.9755C30.9869 21.7728 31.7205 21.4845 32.4141 21.1161C33.6636 20.3281 34.0729 18.9009 33.8511 17.2659C33.4981 14.6443 32.9139 12.6463 30.371 8.26867C27.5595 3.48462 21.6241 5.96041 19.3061 9.32042C16.9882 12.6804 20.5775 17.6817 20.5775 17.6817Z" fill="#FFEDE5"/>
<path d="M20.824 18.2558C20.6553 18.3334 19.5464 17.5454 18.9497 17.3437C18.1406 17.0676 16.8254 11.9826 16.8254 11.9826C16.8254 11.9826 15.7508 11.0363 16.3412 9.32994C16.8254 7.93072 18.6123 6.99376 19.8494 6.37326C22.0798 5.25326 24.5759 3.97813 25.6692 1.63264C25.7567 1.44649 25.8817 1.23552 26.0878 1.23242C26.1519 1.2381 26.2141 1.25638 26.271 1.28621C26.3279 1.31604 26.3782 1.35682 26.419 1.40616C26.934 1.98037 27.2244 2.71907 27.2374 3.48794C27.2374 3.5593 27.2593 3.64927 27.3312 3.67099C27.403 3.6927 27.4561 3.63376 27.4998 3.58101C27.7267 3.30512 27.8994 2.98941 28.009 2.65026C28.159 2.18799 28.9462 3.36384 29.0024 3.52517C29.1866 4.03557 29.266 4.57744 29.236 5.11881C29.206 5.66018 29.0671 6.1901 28.8275 6.67731C28.3402 7.64839 27.3374 8.25027 26.419 8.7808C24.3728 9.96596 20.874 11.0953 20.3867 11.2287C19.7244 11.4117 19.8525 12.0726 20.2274 13.8627C20.571 15.445 21.3895 17.9921 20.824 18.2558Z" fill="#3B2645"/>
<path d="M30.2269 21.9757C30.2269 21.9757 26.5719 22.742 25.2723 22.6459C24.5099 22.5909 23.7823 22.3074 23.1855 21.833C23.6097 22.38 24.141 22.8359 24.7475 23.1733C25.9471 23.8248 30.5705 22.7855 30.5705 22.7855L30.2269 21.9757Z" fill="#F28F8F"/>
<path d="M24.5163 12.5294L23.4292 13.7083C23.2726 13.5571 23.1809 13.3515 23.1734 13.1347C23.1658 12.9179 23.2429 12.7066 23.3886 12.5449C23.4609 12.4691 23.5477 12.4085 23.644 12.3666C23.7403 12.3246 23.8441 12.3023 23.9492 12.3009C24.0543 12.2994 24.1586 12.3189 24.256 12.3581C24.3534 12.3974 24.4419 12.4556 24.5163 12.5294Z" fill="#3B2645"/>
<path d="M28.0186 18.55L29.6274 18.4756C29.6372 18.5807 29.6256 18.6867 29.5932 18.7872C29.5608 18.8878 29.5084 18.9808 29.439 19.0607C29.3695 19.1407 29.2846 19.2059 29.1892 19.2525C29.0939 19.2991 28.99 19.3261 28.8839 19.3319C28.6658 19.338 28.4539 19.2599 28.2926 19.1142C28.1312 18.9684 28.033 18.7662 28.0186 18.55Z" fill="#F28F8F"/>
<path d="M31.1332 10.6578L29.5713 10.2607C29.5925 10.1574 29.6347 10.0594 29.6952 9.97274C29.7556 9.88609 29.8332 9.81253 29.9232 9.75654C30.0132 9.70056 30.1136 9.6633 30.2185 9.64702C30.3234 9.63075 30.4306 9.63581 30.5335 9.66188C30.7423 9.72087 30.9206 9.85674 31.0321 10.0418C31.1435 10.2268 31.1797 10.4471 31.1332 10.6578Z" fill="#3B2645"/>
<path d="M27.7998 13.0869L28.8651 16.8937L30.7394 15.7644L27.7998 13.0869Z" fill="#F28F8F"/>
<path d="M24.8359 14.7928C24.8366 14.9301 24.8781 15.0642 24.9554 15.178C25.0327 15.2919 25.1422 15.3805 25.2701 15.4326C25.398 15.4848 25.5386 15.4981 25.6741 15.4709C25.8097 15.4437 25.9341 15.3773 26.0316 15.28C26.1292 15.1827 26.1955 15.0589 26.2222 14.9241C26.249 14.7894 26.2349 14.6498 26.1819 14.523C26.1288 14.3962 26.0391 14.2879 25.9241 14.2116C25.8091 14.1354 25.674 14.0947 25.5357 14.0947C25.4435 14.0947 25.3523 14.1128 25.2672 14.1479C25.1821 14.183 25.1048 14.2345 25.0398 14.2994C24.9748 14.3642 24.9233 14.4412 24.8883 14.5259C24.8533 14.6106 24.8355 14.7013 24.8359 14.7928Z" fill="#3B2645"/>
<path d="M29.8984 12.8235C29.8978 12.9569 29.9371 13.0875 30.0114 13.1987C30.0856 13.3099 30.1915 13.3966 30.3155 13.448C30.4395 13.4993 30.576 13.5129 30.7078 13.487C30.8396 13.4611 30.9607 13.397 31.0557 13.3026C31.1507 13.2083 31.2153 13.088 31.2414 12.9571C31.2674 12.8263 31.2537 12.6906 31.202 12.5675C31.1503 12.4443 31.063 12.3392 30.951 12.2655C30.839 12.1918 30.7076 12.1527 30.5732 12.1533C30.3945 12.1541 30.2234 12.225 30.097 12.3505C29.9706 12.476 29.8993 12.646 29.8984 12.8235Z" fill="#3B2645"/>
<path d="M88.6817 65.2129C88.4161 65.3928 88.8285 66.5283 89.069 66.8076C89.5702 67.2913 90.1891 67.6377 90.8653 67.8128C92.0952 68.1869 93.2444 68.7844 94.2548 69.575C95.5008 70.5769 96.95 71.2997 98.5033 71.694C100.346 72.1004 102.477 71.5823 104.336 70.4871C106.285 69.3423 106.104 68.244 105.838 67.5118L88.6817 65.2129Z" fill="#3B2645"/>
<path d="M92.8985 58.8398C93.5233 59.4976 96.9221 62.8359 99.5306 63.6859C101.608 64.3623 104.31 65.0076 105.494 66.2641C106.725 67.5734 104.891 69.2487 102.37 70.2105C99.7399 71.2095 97.953 70.4029 96.2067 69.5311C94.9791 68.9106 93.1703 67.6696 92.2612 67.1701C91.3522 66.6706 89.6684 66.3975 88.9655 65.656C88.5782 65.2465 88.3001 64.1048 88.1314 63.1027C87.9784 62.1719 87.3598 61.3312 87.6753 61.2815L88.1877 61.8369C90.5618 62.2712 93.036 60.0933 92.8985 58.8398Z" fill="#AB8DA8"/>
<path d="M10.5409 20.6367C9.04385 21.4399 7.42713 22.0002 5.75195 22.2966C5.75195 22.2966 8.40416 22.9574 11.5593 21.1424L10.5409 20.6367Z" fill="#F28F8F"/>
</svg>
