<svg width="46" height="95" viewBox="0 0 46 95" fill="none" xmlns="http://www.w3.org/2000/svg">
<path d="M18.3519 20.6935C18.3519 20.6935 15.8257 23.6208 6.46149 27.3869C7.71225 28.3325 13.7768 34.0556 14.2047 34.5737C15.1839 35.7495 14.468 36.7116 14.1553 37.9862C14.0005 38.9175 13.6948 39.8174 13.2501 40.6504C13.2074 40.7421 13.1388 40.8192 13.0527 40.8724C12.814 40.9957 12.5507 40.7655 12.4191 40.5353C12.0752 39.679 11.9154 38.7601 11.95 37.8381C11.7278 35.6098 9.58016 35.3713 7.93442 34.3599C3.12064 31.4243 -1.11713 29.0232 0.265288 25.9232C1.87811 22.338 11.0284 15.0526 13.5793 14.7483C16.1302 14.4441 20.656 19.1969 18.3519 20.6935Z" fill="#FFEDE5"/>
<path d="M17.1588 6.63229C16.924 6.32437 16.8098 5.94126 16.8379 5.55509C16.6593 4.59083 16.8008 3.59463 17.2411 2.7182C17.5207 2.31229 17.9244 2.00792 18.3918 1.85076C18.8592 1.6936 19.3649 1.69214 19.8332 1.84658C20.0388 1.39676 20.3468 1.00117 20.7325 0.691369C21.1182 0.381567 21.5711 0.166122 22.0549 0.0622154C22.5416 -0.0316047 23.0429 -0.0191897 23.5244 0.0986095C24.0058 0.216409 24.4561 0.436809 24.8444 0.744714C25.2071 1.09659 25.5979 1.41834 26.0129 1.70679C26.2236 1.84757 26.4748 1.915 26.7277 1.89865C26.9806 1.8823 27.221 1.78307 27.4118 1.61634C27.5877 1.97685 27.6258 2.38918 27.5188 2.77576C27.346 3.20335 26.8851 3.41715 26.5807 3.74606C26.2277 4.29512 26.0684 4.94632 26.1281 5.59621C26.0875 5.9283 25.9901 6.25095 25.8401 6.55006C25.7135 6.93486 25.5623 7.31114 25.3875 7.6766C25.3217 7.78349 25.1078 8.11241 25.0337 7.81638C24.6113 7.78349 24.1916 7.74238 23.7747 7.69304C22.3429 7.55325 20.9194 7.39702 19.4958 7.19967C18.9033 7.11744 18.3109 7.03521 17.7349 6.89542C17.5239 6.85716 17.3258 6.7667 17.1588 6.63229Z" fill="#3B2645"/>
<path d="M25.2644 6.38597C25.3493 6.27613 25.459 6.18792 25.5845 6.12854C25.71 6.06917 25.8478 6.0403 25.9867 6.04431C26.1255 6.04832 26.2614 6.08509 26.3833 6.15161C26.5052 6.21814 26.6096 6.31253 26.688 6.42708C27.371 7.30693 26.112 8.89394 25.1821 8.94328C25.153 8.08996 25.1805 7.23565 25.2644 6.38597V6.38597Z" fill="#E0855C"/>
<path d="M11.6865 15.8833C12.7193 18.4906 13.5179 21.1847 14.0728 23.9335C14.0728 24.1966 14.1551 24.4433 14.188 24.69C14.4102 26.3345 15.0109 34.467 15.0767 35.7415C15.0735 35.799 15.0735 35.8567 15.0767 35.9142C21.4622 37.8794 28.2426 36.3089 28.2426 36.3089L28.292 35.9553C28.4894 34.3765 29.3205 27.8393 29.8719 22.1902C30.1516 19.3122 30.3656 16.6562 30.382 15.0034C30.382 14.3949 28.9832 14.4114 28.0122 14.2469C26.8539 14.0642 25.6864 13.9462 24.515 13.8933H24.1529L24.0953 12.9477L23.9472 12.3063L23.8402 10.6042L23.5111 10.6453C23.3038 10.6737 23.095 10.6901 22.8857 10.6946C22.63 10.6983 22.3743 10.6845 22.1205 10.6535L21.7666 10.6124L21.2894 10.5137C21.026 10.448 20.7792 10.3657 20.5405 10.2835C20.4667 10.2633 20.395 10.2358 20.3266 10.2013H20.269L20.1044 10.1273C19.8005 9.99695 19.5086 9.84011 19.2322 9.65857C19.0987 9.57769 18.9697 9.48986 18.8454 9.39544L18.7796 9.3461C18.7257 9.31387 18.676 9.27522 18.6315 9.23098L18.5739 9.18164V9.40366C18.6233 9.94637 18.6809 10.6371 18.6891 11.3278C18.6891 11.7965 18.6891 12.2652 18.6891 12.6764C18.6891 13.3753 18.6891 13.8851 18.6891 13.8851C18.5356 13.8768 18.3818 13.8768 18.2283 13.8851H18.1871C17.5177 13.896 16.8498 13.9509 16.1876 14.0496C14.6631 14.2803 13.1886 14.7668 11.8264 15.4886C11.763 15.53 11.715 15.591 11.6897 15.6623C11.6645 15.7336 11.6633 15.8113 11.6865 15.8833Z" fill="#FFEDE5"/>
<path d="M18.5732 9.18164C18.6726 9.76589 18.8992 10.3212 19.2371 10.8083C19.5749 11.2954 20.0157 11.7023 20.5282 12.0004C21.0408 12.2985 21.6127 12.4804 22.2034 12.5332C22.7941 12.5861 23.3891 12.5086 23.9466 12.3063L23.8396 10.6042C22.911 10.7527 21.9615 10.7027 21.0537 10.4575C20.1459 10.2123 19.3005 9.77744 18.5732 9.18164Z" fill="#E0855C"/>
<path d="M25.1731 3.91069C25.6339 4.42051 25.6339 5.55527 25.6422 6.73936C25.6422 10.4397 24.5066 11.558 22.6058 11.6731C20.705 11.7882 18.763 11.0317 18.4914 7.56165C18.3433 5.84307 18.1788 4.2725 18.8206 3.53244C19.7504 2.52103 23.766 2.35657 25.1731 3.91069Z" fill="#FFEDE5"/>
<path d="M18.7393 7.14143C18.7393 7.14143 18.2127 5.59553 17.2746 6.3767C16.3365 7.15787 17.5297 9.50961 18.9203 9.37805C18.9286 9.37805 19.1672 7.67592 18.7393 7.14143Z" fill="#FFEDE5"/>
<path d="M17.6767 7.08403C17.8873 7.16118 18.0744 7.29149 18.2198 7.46228C18.3855 7.60933 18.5199 7.78834 18.6147 7.98855C18.616 8.00146 18.6134 8.01447 18.6073 8.02593C18.6012 8.03738 18.5919 8.04678 18.5804 8.05293C18.569 8.05909 18.556 8.06172 18.5431 8.06051C18.5301 8.05929 18.5179 8.05428 18.5078 8.04611C18.3971 7.9283 18.2928 7.80479 18.1951 7.67608C18.1208 7.76728 18.0245 7.83804 17.9153 7.88165C17.833 7.88165 17.7754 7.80764 17.8166 7.73364C17.8762 7.65101 17.9517 7.58112 18.0387 7.52807C17.8876 7.42693 17.7445 7.31421 17.6108 7.19093C17.6017 7.18035 17.5961 7.16713 17.5949 7.15317C17.5938 7.13922 17.5971 7.12526 17.6045 7.11334C17.6118 7.10141 17.6228 7.09214 17.6358 7.08687C17.6488 7.0816 17.6631 7.08061 17.6767 7.08403V7.08403Z" fill="#E0855C"/>
<path d="M24.0214 6.6074C24.0214 6.6074 24.3341 6.73075 24.3012 6.16337C24.2683 5.59599 24.0461 5.71933 24.0461 5.71933C24.0461 5.71933 23.8239 5.71933 23.8486 6.15515C23.8733 6.59096 24.0214 6.6074 24.0214 6.6074Z" fill="#3B2645"/>
<path d="M20.7791 6.50877C20.7791 6.50877 21.1001 6.63211 21.0671 6.06474C21.0342 5.49736 20.8121 5.6207 20.8121 5.6207C20.8121 5.6207 20.5899 5.6207 20.6063 6.05651C20.6228 6.49233 20.7791 6.50877 20.7791 6.50877Z" fill="#3B2645"/>
<path d="M22.5238 8.06254C22.6884 8.06254 23.0505 8.15299 23.1327 7.98031C23.1186 7.5868 23.0522 7.19692 22.9353 6.82088C22.7979 6.31512 22.6907 5.80166 22.6143 5.2832C22.6143 5.2832 22.6143 5.2832 22.6719 5.2832C22.964 6.20161 23.1814 7.14207 23.322 8.09543C23.3261 8.10693 23.3273 8.11927 23.3254 8.13135C23.3236 8.14342 23.3188 8.15485 23.3115 8.16462C23.3041 8.17439 23.2945 8.1822 23.2834 8.18734C23.2723 8.19248 23.2602 8.19481 23.248 8.1941C23.0093 8.1941 22.7707 8.1941 22.5403 8.1941C22.458 8.20232 22.4415 8.07076 22.5238 8.06254Z" fill="#E0855C"/>
<path d="M23.726 4.8805C23.9564 4.76538 24.3843 4.74893 24.5489 4.99562C24.5547 5.00566 24.5577 5.01706 24.5577 5.02866C24.5577 5.04026 24.5546 5.05164 24.5487 5.06166C24.5429 5.07168 24.5345 5.07997 24.5244 5.08571C24.5143 5.09144 24.5029 5.0944 24.4913 5.0943C24.3761 5.0943 24.2773 5.02851 24.1621 5.01207C24.0395 5.00828 23.9172 5.02495 23.8 5.0614C23.6848 5.06963 23.619 4.92161 23.726 4.8805Z" fill="#3B2645"/>
<path d="M20.3518 5.07024C20.4917 4.74955 21.0595 4.7331 21.2899 4.9469C21.3475 4.98801 21.2899 5.07846 21.2488 5.09491C21.1038 5.11127 20.9575 5.11127 20.8126 5.09491C20.6905 5.11022 20.5712 5.14347 20.4588 5.19358C20.393 5.18536 20.3189 5.11958 20.3518 5.07024Z" fill="#3B2645"/>
<path d="M23.2891 9.23927C22.5937 9.30516 21.8946 9.16199 21.2812 8.82812C21.3679 9.05676 21.5044 9.26322 21.6809 9.43249C21.8574 9.60176 22.0694 9.72958 22.3016 9.80664C22.9681 10.004 23.2891 9.23927 23.2891 9.23927Z" fill="white"/>
<path d="M22.2025 39.5574C22.1282 40.871 21.9881 42.1801 21.7828 43.4797C21.4043 46.0699 20.8118 49.0137 20.1371 51.8753C18.6477 58.4535 16.9114 64.5056 16.9114 64.5056C16.7333 68.7968 16.2133 73.067 15.3562 77.2757C15.1011 78.5996 14.846 79.8741 14.5909 81.05C13.6775 85.2272 12.8547 88.245 12.8547 88.245L8.8473 87.4803C8.65804 85.2108 8.58398 83.0399 8.58398 81.0089C8.58398 79.7426 8.58398 78.542 8.6745 77.3744C9.03656 69.464 10.4437 64.1767 10.4601 63.1817C10.4787 59.1354 10.7039 55.0927 11.1349 51.0694C12.1881 41.572 14.0725 36.6218 14.0725 36.6218C16.6563 30.6685 20.5485 31.0796 21.8322 35.4706C22.1793 36.8033 22.3044 38.1841 22.2025 39.5574Z" fill="#FFEDE5"/>
<path d="M34.9571 82.3074C34.9571 83.9519 34.8501 85.687 34.7102 87.4795L30.7028 88.2443C30.7028 88.2443 29.9869 85.6541 29.1641 81.9373C28.8596 80.5723 28.5387 79.0593 28.2342 77.4641C27.3573 73.194 26.8262 68.8602 26.6461 64.5048C26.6461 64.5048 24.8851 58.3952 23.3546 51.8005C22.721 48.9718 22.1285 46.0445 21.7089 43.4789C21.4949 42.0235 21.355 40.6914 21.2974 39.5566C21.2081 38.1724 21.3499 36.7829 21.7171 35.4452C23.0172 31.0542 26.8929 30.6513 29.4768 36.5964C29.4768 36.5964 31.3035 41.5301 32.3321 50.97C32.7694 55.0177 33.0001 59.0851 33.0233 63.1563C33.0233 64.143 34.414 69.3481 34.7925 77.1352C34.9241 78.7688 34.979 80.4928 34.9571 82.3074Z" fill="#FFEDE5"/>
<path d="M26.4154 14.1807C26.4154 14.1807 29.9126 12.5361 39.9927 12.9144C39.9927 12.9144 36.8 7.05969 36.7013 5.51379C36.7013 5.51379 35.2119 6.93635 34.0763 5.70292C33.2534 4.78196 33.3357 3.66365 34.8992 2.75091C36.4626 1.83817 38.2729 1.25434 41.4821 5.90027C44.6913 10.5462 47.5631 14.4685 45.0287 16.7298C42.0911 19.3529 30.7684 22.2638 28.3162 21.4991C25.8641 20.7343 23.6999 14.5589 26.4154 14.1807Z" fill="#FFEDE5"/>
<path d="M29.5849 29.8378C29.0418 27.5765 26.565 27.8232 26.565 27.8232C26.6539 27.0288 26.676 26.2284 26.6308 25.4303C26.6308 25.3316 26.6308 25.2412 26.6308 25.1425C26.5896 24.5916 26.532 24.0242 26.458 23.4486C26.458 23.3499 26.458 23.243 26.4168 23.1361C26.0033 20.3157 25.334 17.5386 24.4173 14.8392C24.2198 14.2308 24.0964 13.8772 24.0964 13.8772L23.9482 11.3692C23.9482 11.3692 24.4913 11.1801 25.7092 12.0764C26.1344 12.3887 26.5335 12.7352 26.9023 13.1124C28.4 14.6008 30.2679 19.8059 31.4775 23.8022C31.5186 23.9337 31.5598 24.0653 31.5927 24.2051C31.8313 25.0274 32.037 25.7263 32.2098 26.3677C32.2098 26.5157 32.2839 26.6555 32.3168 26.7871C32.5061 27.5189 32.646 28.0863 32.6953 28.4317C32.9998 30.3887 30.1362 32.0991 29.5849 29.8378Z" fill="#AB8DA8"/>
<path d="M15.9737 31.3828C15.5293 27.6168 13.3323 28.2993 13.3323 28.2993C13.25 27.4359 13.25 26.5971 13.25 25.7995C13.25 25.7008 13.25 25.6104 13.25 25.5117C13.25 25.0841 13.25 24.6894 13.25 24.2618C13.25 24.1631 13.25 24.0563 13.25 23.9576C13.6038 12.8567 18.7303 11.2861 18.7303 11.2861V13.8434C18.7303 13.8434 18.936 22.0088 19.2734 27.1645C19.2734 27.3043 19.2734 27.4441 19.2734 27.5839C19.3392 28.5459 19.4215 29.3764 19.4873 30.0507C19.4873 30.1823 19.4873 30.3056 19.4873 30.4208C19.4873 30.5359 19.5449 30.8072 19.5779 30.947C20.1868 33.4221 16.418 35.1818 15.9737 31.3828Z" fill="#AB8DA8"/>
<path d="M25.6845 12.0764C24.9699 12.8351 24.5196 13.8041 24.4008 14.8392C24.2033 14.2308 24.0799 13.8772 24.0799 13.8772L23.9482 11.3692C23.9482 11.3692 24.4667 11.1801 25.6845 12.0764Z" fill="#826B80"/>
<path d="M19.5532 30.3889C18.9605 30.2801 18.415 29.9933 17.9897 29.5667C17.1669 28.7444 16.9694 27.4369 16.0066 26.6558C15.1995 26.0902 14.2357 25.7912 13.25 25.8006C13.25 25.7019 13.25 25.6115 13.25 25.5128C14.3834 25.5061 15.4846 25.8894 16.3687 26.5982C16.9342 27.2543 17.4025 27.9881 17.7593 28.7773C17.9582 29.0935 18.2188 29.3664 18.5256 29.5798C18.8324 29.7931 19.1791 29.9425 19.5449 30.0189C19.5203 30.1505 19.5367 30.2738 19.5532 30.3889Z" fill="#E8CEE5"/>
<path d="M19.2981 27.5843C18.958 27.4446 18.6416 27.2532 18.36 27.0169C17.4986 26.204 16.5428 25.4972 15.5129 24.9119C14.7954 24.5832 14.0326 24.3642 13.25 24.2623C13.25 24.1636 13.25 24.0567 13.25 23.958C14.3156 24.0599 15.349 24.3789 16.2864 24.8954C16.9726 25.2983 17.6103 25.7783 18.1872 26.3262C18.5193 26.6377 18.8834 26.9134 19.2734 27.1485C19.2734 27.2718 19.2899 27.4445 19.2981 27.5843Z" fill="#E8CEE5"/>
<path d="M32.2912 26.778C31.8145 26.9363 31.3109 26.9978 30.8101 26.9589C29.7074 26.8684 28.0617 25.6268 26.6299 25.4294C26.6299 25.3307 26.6299 25.2403 26.6299 25.1416C27.0867 25.2062 27.5342 25.3249 27.9629 25.4952C28.7714 25.9001 29.614 26.233 30.4809 26.4902C31.0474 26.6019 31.6336 26.5564 32.176 26.3586C32.2172 26.5066 32.2583 26.6464 32.2912 26.778Z" fill="#E8CEE5"/>
<path d="M31.5663 24.1972C31.1706 24.2314 30.772 24.2121 30.3814 24.1397C29.3533 23.8257 28.3023 23.5921 27.238 23.4407C26.964 23.4246 26.6892 23.4246 26.4152 23.4407C26.4152 23.342 26.4152 23.2351 26.374 23.1282C27.0776 23.0363 27.7913 23.0558 28.4888 23.1858C29.3143 23.4619 30.1623 23.6655 31.0232 23.7943C31.1575 23.8025 31.2922 23.8025 31.4264 23.7943C31.4923 23.9259 31.5334 24.0574 31.5663 24.1972Z" fill="#E8CEE5"/>
<path d="M34.0452 60.2035C31.8805 61.4332 29.4558 62.1347 26.9685 62.251C25.9559 62.336 24.9387 62.3525 23.9239 62.3004L21.8009 45.0735L19.431 61.807C15.2673 63.2953 9.49902 60.9847 9.49902 60.9847C10.3795 41.9981 15.2591 34.3262 15.2591 34.3262C20.8381 36.1352 28.5402 34.3755 28.5402 34.3755C32.4406 39.6957 34.0452 60.2035 34.0452 60.2035Z" fill="#3B2645"/>
<path d="M21.6524 36.3169C21.3529 36.5181 21.1207 36.8046 20.9859 37.1392C20.7144 37.8217 21.0847 38.5699 20.7802 39.2442C20.5498 39.7294 20.1137 40.0665 19.9573 40.5845C19.8176 41.04 19.8176 41.5269 19.9573 41.9824C19.9573 42.1304 20.2453 42.1058 20.2289 41.9824C20.1228 41.3496 20.2453 40.6997 20.5745 40.1487C20.8322 39.8612 21.0457 39.5369 21.2081 39.1867C21.2765 38.9547 21.2961 38.7112 21.2657 38.4713C21.2198 38.1304 21.2428 37.7837 21.3332 37.4518C21.4237 37.1199 21.5798 36.8095 21.7923 36.5389C21.8417 36.3744 21.7512 36.2182 21.6524 36.3169Z" fill="#291B30"/>
<path d="M23.0748 38.6104C22.7799 37.9238 22.7362 37.1553 22.9514 36.4396C22.9591 36.4233 22.9599 36.4045 22.9537 36.3876C22.9475 36.3706 22.9349 36.3568 22.9185 36.3492C22.9021 36.3415 22.8834 36.3407 22.8664 36.3469C22.8495 36.353 22.8356 36.3657 22.828 36.3821C22.5519 36.7745 22.4263 37.2532 22.4742 37.7306C22.5235 38.3555 22.9843 38.9229 22.7457 39.5396C22.3672 40.5017 21.9228 41.2829 22.6387 42.245C22.6543 42.2607 22.6747 42.2708 22.6966 42.2736C22.7186 42.2763 22.7409 42.2717 22.7598 42.2603C22.7788 42.2489 22.7934 42.2315 22.8013 42.2108C22.8092 42.1901 22.8099 42.1674 22.8033 42.1463C22.6183 41.7779 22.5338 41.3672 22.5584 40.9558C22.583 40.5443 22.7157 40.1466 22.9432 39.8028C23.065 39.6441 23.1596 39.4662 23.223 39.2765C23.2806 38.9394 23.2147 38.964 23.0748 38.6104Z" fill="#291B30"/>
<path d="M26.9674 62.2518C25.9548 62.3367 24.9376 62.3532 23.9228 62.3011L21.7998 45.0742C24.1299 50.5997 25.8623 56.3583 26.9674 62.2518V62.2518Z" fill="#291B30"/>
<path d="M14.6153 81.0499C13.702 85.2271 12.8791 88.2449 12.8791 88.2449L8.87172 87.4802C8.68246 85.2107 8.6084 83.0398 8.6084 81.0088C10.5995 81.2952 12.6205 81.309 14.6153 81.0499V81.0499Z" fill="#E8CEE5"/>
<path d="M34.957 82.3075C34.957 83.9521 34.8501 85.6871 34.7102 87.4797L30.7028 88.2444C30.7028 88.2444 29.9869 85.6542 29.1641 81.9375C31.071 82.3098 33.0182 82.4341 34.957 82.3075V82.3075Z" fill="#E8CEE5"/>
<path d="M13.3983 92.2822C13.4027 92.3232 13.4027 92.3646 13.3983 92.4056C13.2667 94.2557 11.7526 93.9762 9.5144 94.0502C7.72055 94.0502 6.77425 93.0552 6.88122 91.978C6.91312 91.6523 7.0294 91.3406 7.2186 91.0735C7.81864 90.1302 8.23205 89.0806 8.43644 87.9817C10.6417 85.3339 12.8882 88.2859 12.8882 88.2859C13.222 89.592 13.3934 90.9342 13.3983 92.2822V92.2822Z" fill="#3B2645"/>
<path d="M34.0769 94.0082C31.7811 94.0082 30.2176 94.2713 30.1847 92.2814C30.1806 92.2239 30.1806 92.1662 30.1847 92.1087C30.1817 90.8029 30.3561 89.5028 30.7031 88.2439C30.7031 88.2439 32.9496 85.2919 35.1549 87.9397C35.3587 89.0375 35.7691 90.0867 36.3645 91.0315C36.4745 91.1861 36.563 91.3548 36.6278 91.5331C37.0392 92.7419 36.0847 94.0411 34.0769 94.0082Z" fill="#3B2645"/>
<path d="M11.778 89.3713C11.3722 89.1455 10.9194 89.0168 10.4554 88.9954C9.99135 88.974 9.52867 89.0604 9.10372 89.2479C9.09031 89.2578 9.08023 89.2716 9.0748 89.2873C9.06937 89.303 9.06885 89.3201 9.07331 89.3361C9.07777 89.3521 9.087 89.3665 9.09978 89.3771C9.11255 89.3878 9.12827 89.3944 9.14486 89.396C9.54807 89.396 9.96773 89.3137 10.3545 89.3384C10.7972 89.4072 11.2325 89.5173 11.6546 89.6673C11.6914 89.6736 11.7292 89.6673 11.7618 89.6494C11.7945 89.6314 11.8201 89.6029 11.8345 89.5685C11.8488 89.5341 11.851 89.4959 11.8408 89.46C11.8305 89.4242 11.8084 89.3929 11.778 89.3713V89.3713Z" fill="#291B30"/>
<path d="M11.4974 90.2586C10.6409 89.9685 9.71253 89.9685 8.85599 90.2586C8.82681 90.2746 8.80317 90.299 8.78817 90.3287C8.77318 90.3584 8.76753 90.3919 8.77199 90.4248C8.77645 90.4578 8.79079 90.4886 8.81313 90.5132C8.83547 90.5379 8.86476 90.5552 8.89713 90.5628C9.26298 90.635 9.63509 90.6709 10.008 90.6697C10.454 90.7021 10.8968 90.768 11.3328 90.8671C11.7113 90.9082 11.8677 90.3573 11.4974 90.2586Z" fill="#291B30"/>
<path d="M34.1178 89.2552C33.7113 89.1159 33.2789 89.0687 32.852 89.117C32.425 89.1654 32.0141 89.3081 31.6492 89.5348C31.427 89.6828 31.5587 90.1104 31.8384 89.9952C32.4907 89.6858 33.2327 89.6216 33.9285 89.8143C34.0027 89.8394 34.0839 89.834 34.1541 89.7993C34.2243 89.7646 34.2778 89.7035 34.3029 89.6293C34.328 89.5552 34.3226 89.4741 34.2879 89.4039C34.2532 89.3338 34.192 89.2803 34.1178 89.2552V89.2552Z" fill="#291B30"/>
<path d="M34.5462 90.2675C33.9777 90.0815 33.3698 90.0503 32.7852 90.1771C32.4232 90.2429 31.8472 90.3333 31.7567 90.7691C31.7465 90.8105 31.7529 90.8542 31.7744 90.8911C31.7959 90.9279 31.8308 90.9549 31.8719 90.9665C32.2257 90.9665 32.5713 90.7773 32.9004 90.7362C33.4252 90.7046 33.9518 90.7266 34.4721 90.802C34.8013 90.8185 34.8013 90.3744 34.5462 90.2675Z" fill="#291B30"/>
</svg>
