<svg width="74" height="105" viewBox="0 0 74 105" fill="none" xmlns="http://www.w3.org/2000/svg">
<path d="M35.51 104.934C33.8477 104.937 32.1899 104.76 30.5652 104.408C27.7254 103.822 25.0504 102.613 22.7328 100.866C20.4152 99.1188 18.5128 96.8781 17.1625 94.305C16.0911 91.8981 15.2952 89.3772 14.79 86.7905L14.6735 86.2979C13.0086 79.1843 10.9107 71.6615 7.03979 64.8651C6.41544 63.7714 5.73282 62.6776 5.07518 61.6256C3.48413 59.2435 2.13702 56.7063 1.05438 54.0527C-0.61055 49.5023 -0.302538 44.977 1.97009 41.9963C2.26945 41.5332 2.65897 41.1355 3.11529 40.827C3.5716 40.5185 4.08532 40.3057 4.62565 40.2012C4.95489 40.1612 5.2888 40.1895 5.60669 40.2843C5.92459 40.3791 6.21969 40.5384 6.47371 40.7522C6.67187 40.9107 6.83438 41.1094 6.95059 41.3353C7.0668 41.5612 7.13407 41.8092 7.14801 42.0631H6.60691C6.59388 41.886 6.54422 41.7137 6.46109 41.557C6.37796 41.4003 6.26318 41.2627 6.12408 41.153C5.92644 40.9883 5.6979 40.8651 5.45198 40.7905C5.20605 40.716 4.94772 40.6916 4.69224 40.7188C3.75438 40.9332 2.93469 41.5012 2.40297 42.3052C0.246888 45.1523 -0.0944224 49.4689 1.5705 53.844C2.64399 56.4787 3.98287 58.9965 5.56633 61.3584C6.22398 62.4188 6.9066 63.5125 7.53927 64.6147C11.4185 71.4611 13.5413 79.0256 15.2063 86.181L15.3228 86.6736C15.8174 89.2175 16.5994 91.6966 17.6537 94.0628C18.9658 96.5633 20.8151 98.7405 23.0681 100.437C25.3211 102.134 27.9215 103.307 30.6818 103.873C36.2632 104.983 42.054 104.195 47.1396 101.636C49.1758 100.726 51.0142 99.4235 52.5506 97.8033C54.1134 95.9061 55.318 93.7387 56.1052 91.4077C57.4954 87.7507 58.6026 83.8933 59.6015 80.1778C61.1416 74.6339 62.7316 68.8979 65.4288 63.7046C66.2612 62.185 67.0937 60.6905 67.9761 59.246C69.6284 56.6536 71.0225 53.9046 72.1384 51.0386C73.0958 48.3167 73.1374 46.029 72.2716 44.3591C71.9677 43.8023 71.5454 43.3192 71.0347 42.944C70.5241 42.5689 69.9374 42.3109 69.3164 42.1883C68.8828 42.0855 68.4313 42.0855 67.9978 42.1884C67.5642 42.2913 67.1606 42.4943 66.819 42.7811L66.461 42.372C66.8626 42.0273 67.3389 41.7814 67.852 41.6539C68.365 41.5263 68.9007 41.5206 69.4163 41.6372C70.1209 41.7831 70.7848 42.0833 71.3604 42.5163C71.936 42.9493 72.4092 43.5044 72.7461 44.142C73.6868 45.9789 73.6452 48.3668 72.6379 51.239C71.5105 54.1412 70.0936 56.9217 68.409 59.5383C67.5765 60.9827 66.6608 62.4689 65.9116 63.9718C63.2477 69.115 61.666 74.8259 60.1343 80.3365C59.0937 84.077 58.0198 87.9427 56.613 91.6165C55.8082 94.0119 54.5724 96.239 52.9668 98.1874C51.38 99.8593 49.4824 101.204 47.381 102.145C43.6811 103.951 39.6249 104.904 35.51 104.934V104.934Z" fill="#AB8DA8"/>
<path d="M41.6206 7.71337C42.051 7.02812 42.2976 6.24296 42.3365 5.434C42.3835 5.07068 42.3504 4.70145 42.2397 4.35234C42.1289 4.00323 41.9431 3.68274 41.6955 3.41345C41.4874 3.21307 41.2293 3.05443 41.0378 2.83735C40.8464 2.62027 40.7548 2.39483 40.5966 2.1861C40.4252 1.96216 40.2045 1.78089 39.9519 1.65636C39.6992 1.53183 39.4213 1.46739 39.1398 1.46805C38.5654 1.46805 37.9577 1.73523 37.4749 1.46805C37.1752 1.31777 36.9754 1.01719 36.6424 0.850203C36.329 0.690225 35.9695 0.645892 35.6268 0.724963C35.3275 0.829685 35.0113 0.877812 34.6945 0.866902C34.2449 0.800107 33.9369 0.399338 33.5373 0.173906C33.3319 0.0685767 33.106 0.00958744 32.8755 0.00107424C32.645 -0.00743895 32.4154 0.03473 32.2028 0.124624C31.9902 0.214518 31.7998 0.349961 31.645 0.521457C31.4901 0.692952 31.3745 0.896348 31.3063 1.11738C31.2521 1.32822 31.2521 1.54944 31.3063 1.76028C31.3979 2.26959 31.7475 2.67871 31.7725 3.18802C31.7975 3.69733 31.4895 4.13985 31.7725 4.59071C32.0556 5.04158 32.4718 5.05828 32.6716 5.48409C32.938 6.0602 32.6716 6.81164 32.913 7.42949C33.0379 7.82191 33.1045 8.38132 33.4707 8.6318C33.9785 8.98247 35.0857 8.69024 35.6934 8.6318L38.0493 8.43976C39.0899 8.33957 40.3719 8.43976 41.3125 7.9221C41.4261 7.87029 41.5302 7.79974 41.6206 7.71337V7.71337Z" fill="#3B2645"/>
<path d="M33.6291 7.34604C33.5465 7.23219 33.4382 7.13955 33.313 7.07568C33.1879 7.01181 33.0494 6.97852 32.909 6.97852C32.7686 6.97852 32.6302 7.01181 32.5051 7.07568C32.3799 7.13955 32.2716 7.23219 32.189 7.34604C31.4647 8.18097 32.6884 9.85084 33.6291 9.95103C33.6839 9.08357 33.6839 8.2135 33.6291 7.34604V7.34604Z" fill="#E0855C"/>
<path d="M45.3249 21.3307C45.1055 22.7371 44.811 24.1306 44.4425 25.5053C44.3843 25.7642 44.3343 26.0147 44.301 26.2568C44.2677 26.4989 44.2344 26.6826 44.1928 26.9915C44.1928 27.05 44.1928 27.1168 44.1928 27.1752C44.1928 27.3756 44.1345 27.5843 44.1095 27.8098L43.0606 37.6203C36.5425 39.4154 29.7412 37.6203 29.7412 37.6203C29.7412 37.6203 29.7412 37.495 29.7412 37.2529C29.633 36.1424 29.3 32.6106 28.967 28.628C28.967 28.628 28.967 28.5696 28.967 28.5445C28.9704 28.4833 28.9704 28.422 28.967 28.3608C28.8255 26.691 28.6923 24.9209 28.5841 23.2343C28.3843 20.3037 28.2594 17.5985 28.2844 15.9203C28.2844 15.3024 29.7246 15.3692 30.7069 15.2356C31.4311 15.1354 32.172 15.0687 32.813 15.0353C33.454 15.0019 33.9368 14.9852 34.2615 14.9852H34.6278C34.6278 14.9852 34.711 14.025 34.711 14.0166L34.9358 11.6621C35.0451 11.6904 35.1564 11.7099 35.2688 11.7206C35.4748 11.7593 35.6836 11.7816 35.8931 11.7874C36.1678 11.7874 36.4259 11.7874 36.6673 11.7874L37.0253 11.7456H37.2334C37.4665 11.7039 37.6913 11.6538 37.8994 11.5953C38.1075 11.5369 38.1741 11.5118 38.3073 11.4701C38.9154 11.2746 39.4928 10.9935 40.0221 10.6351L40.0971 10.5851L40.2386 10.4765L40.3385 10.4014C40.3385 10.5183 40.3385 10.5684 40.3385 10.6185C40.2719 11.1695 40.197 11.8709 40.1637 12.5638C40.1637 13.0481 40.1137 13.524 40.0971 13.9331C40.0804 14.3423 39.9472 14.9351 40.2386 15.1438C40.3425 15.2024 40.4548 15.2446 40.5716 15.269C41.0285 15.3414 41.491 15.3721 41.9535 15.3609C42.095 15.3609 42.2365 15.3609 42.378 15.3609C42.7329 15.3401 43.0887 15.3401 43.4436 15.3609C43.6916 15.3602 43.9372 15.4093 44.166 15.5054C44.3948 15.6015 44.602 15.7425 44.7755 15.9203C44.9913 16.2336 45.1284 16.5945 45.1751 16.9723L45.275 17.657C45.4334 18.8755 45.4502 20.1083 45.3249 21.3307V21.3307Z" fill="#FFEDE5"/>
<path d="M40.305 10.3438C40.1924 10.9413 39.9492 11.5063 39.5929 11.9984C39.2366 12.4904 38.7761 12.8971 38.2444 13.1893C37.7126 13.4815 37.123 13.6519 36.5178 13.6883C35.9126 13.7246 35.3068 13.626 34.7441 13.3996L34.9023 11.6713C35.845 11.8537 36.8159 11.8295 37.7485 11.6004C38.681 11.3712 39.5531 10.9426 40.305 10.3438V10.3438Z" fill="#E0855C"/>
<path d="M33.7957 4.84142C33.3129 5.34239 33.2712 6.4612 33.2379 7.6969C33.1131 11.4541 34.2369 12.623 36.1432 12.8318C38.0496 13.0405 40.0558 12.2974 40.4637 8.82406C40.6718 7.07905 40.8883 5.48432 40.2556 4.72453C39.3482 3.60572 35.2608 3.30514 33.7957 4.84142Z" fill="#FFEDE5"/>
<path d="M40.1807 8.31445C40.1807 8.31445 40.7634 6.76147 41.6875 7.58806C42.6115 8.41464 41.3378 10.7608 39.9226 10.5855C39.9393 10.5855 39.7478 8.84881 40.1807 8.31445Z" fill="#FFEDE5"/>
<path d="M41.2796 8.29789C41.0611 8.36635 40.8654 8.49338 40.7136 8.66526C40.5416 8.80929 40.4025 8.98867 40.3057 9.19126C40.3057 9.24971 40.3639 9.29146 40.4056 9.24971C40.5229 9.13319 40.634 9.01056 40.7385 8.88234C40.8145 8.96632 40.9084 9.03197 41.0133 9.07437C41.0965 9.07437 41.1631 8.99923 41.1298 8.93243C41.0721 8.84402 40.9953 8.76981 40.905 8.71535C41.0604 8.61555 41.2079 8.50389 41.3462 8.38138C41.3488 8.37133 41.3491 8.36082 41.3469 8.35067C41.3447 8.34053 41.3402 8.33102 41.3338 8.32292C41.3273 8.31482 41.319 8.30834 41.3097 8.30399C41.3003 8.29964 41.29 8.29755 41.2796 8.29789Z" fill="#E0855C"/>
<path d="M34.8766 7.61338C34.8766 7.61338 34.552 7.73027 34.6019 7.15417C34.6519 6.57806 34.8766 6.71165 34.8766 6.71165C34.8766 6.71165 35.1014 6.71165 35.0681 7.16252C35.0348 7.61338 34.8766 7.61338 34.8766 7.61338Z" fill="#3B2645"/>
<path d="M38.1487 7.61338C38.1487 7.61338 37.8324 7.73027 37.8823 7.15417C37.9322 6.57806 38.1487 6.71165 38.1487 6.71165C38.1487 6.71165 38.3735 6.71165 38.3402 7.16252C38.3069 7.61338 38.1487 7.61338 38.1487 7.61338Z" fill="#3B2645"/>
<path d="M35.227 5.8686C35.0962 5.79432 34.9454 5.76321 34.796 5.7797C34.6466 5.79618 34.5061 5.85942 34.3945 5.96044C34.3889 5.97186 34.3862 5.98453 34.3868 5.99726C34.3874 6.00999 34.3912 6.02237 34.3978 6.03322C34.4045 6.04408 34.4138 6.05306 34.4249 6.05931C34.4359 6.06557 34.4484 6.0689 34.4611 6.06898C34.5777 6.06898 34.6776 6.00219 34.7941 5.99384C34.9162 5.98801 35.0381 6.00792 35.1521 6.05229C35.2603 6.08568 35.3352 5.91869 35.227 5.8686Z" fill="#3B2645"/>
<path d="M38.6407 6.15286C38.5075 5.81889 37.9331 5.79384 37.6834 5.99423C37.6713 6.00359 37.6615 6.01561 37.6548 6.02936C37.648 6.04311 37.6445 6.05822 37.6445 6.07355C37.6445 6.08887 37.648 6.10398 37.6548 6.11773C37.6615 6.13149 37.6713 6.1435 37.6834 6.15286C37.833 6.16537 37.9833 6.16537 38.1329 6.15286C38.254 6.17242 38.3717 6.20896 38.4826 6.26141C38.4969 6.28244 38.519 6.2969 38.544 6.3016C38.569 6.30629 38.5948 6.30085 38.6158 6.28645C38.6367 6.27206 38.6511 6.2499 38.6558 6.22485C38.6605 6.19979 38.6551 6.1739 38.6407 6.15286V6.15286Z" fill="#3B2645"/>
<path d="M35.5352 10.3018C36.2374 10.3942 36.9511 10.272 37.583 9.95117C37.4885 10.174 37.3486 10.3745 37.1723 10.5398C36.9959 10.7052 36.7871 10.8317 36.5591 10.9113C35.8348 11.1117 35.5352 10.3018 35.5352 10.3018Z" fill="white"/>
<path d="M31.3306 15.913C33.2453 17.2572 33.4201 19.8706 32.4878 21.9579C31.8551 23.3522 30.6813 24.3291 29.9904 25.6483C29.2704 26.9278 28.4344 28.138 27.493 29.2636C25.4285 31.8936 23.4638 34.2732 22.7063 35.1749C20.1007 38.2976 14.6231 42.4222 12.6501 43.8583C12.2006 44.1922 11.9342 44.3759 11.9342 44.3759C11.9342 44.3759 10.0445 43.3823 10.544 41.5455C10.544 41.5455 18.0362 33.5635 19.1434 31.9354C20.3669 29.8192 21.4784 27.6397 22.4732 25.4062C23.7497 22.9292 25.0788 20.4856 26.4607 18.0755C27.0934 16.965 27.9009 15.5706 29.2911 15.3202C29.8521 15.2569 30.4185 15.377 30.9061 15.6625C31.0534 15.7357 31.1952 15.8194 31.3306 15.913Z" fill="#FFEDE5"/>
<path d="M10.5451 41.5538C10.7501 41.538 10.9561 41.538 11.1611 41.5538C11.1611 41.5538 12.9592 42.5558 12.6512 43.8583C12.6512 43.8583 12.4597 44.0336 12.1601 44.3008C11.8604 44.568 11.5357 44.8852 11.1444 45.286C10.7532 45.6868 9.86245 46.9559 9.47952 46.8473C9.39027 46.8143 9.31229 46.7563 9.25475 46.6804L8.48056 45.8454C8.04768 45.3612 7.32344 44.5429 7.87286 43.9C7.47328 44.1421 6.54092 44.7349 6.08307 44.4511L5.8916 44.1421C5.8916 44.1421 7.26517 43.1152 7.83124 42.6059C8.59489 41.9637 9.54933 41.5937 10.5451 41.5538V41.5538Z" fill="#FFEDE5"/>
<path d="M33.6037 28.7041C33.6008 28.7486 33.6008 28.7933 33.6037 28.8379C33.6037 28.8379 33.6787 28.8379 33.6621 28.8379L33.6037 28.7041Z" fill="#D6BED3"/>
<path d="M36.692 55.7642C35.9262 61.9177 35.0271 67.2696 35.0271 67.2696C35.152 68.7558 35.2102 70.3672 35.2102 72.0204C35.2102 75.2599 34.9938 78.6999 34.7191 81.7307C34.3695 85.5964 33.8866 88.8861 33.6785 90.5392V90.748C33.9865 101.711 30.8731 103.163 29.4163 100.767C27.9595 98.3709 29.4163 91.3074 29.4163 91.3074C29.421 91.2435 29.421 91.1793 29.4163 91.1153C28.8034 87.8349 28.3947 84.5194 28.1926 81.188C27.6931 73.1225 28.5505 67.6036 28.4506 66.6017C26.7108 49.068 29.1416 39.3995 29.1416 39.3995C29.5211 37.9946 30.2063 36.6914 31.1478 35.5838C32.921 33.6635 35.0521 34.1477 36.3923 36.4939C36.5333 36.7345 36.6611 36.9825 36.7753 37.237C37.3214 38.5846 37.6312 40.0167 37.691 41.4701C37.8242 45.1021 37.3164 50.7045 36.692 55.7642Z" fill="#FFEDE5"/>
<path d="M45.2908 80.7623C45.0972 84.1631 44.6913 87.5485 44.0754 90.8984L44.0005 91.3075C44.0005 91.3075 45.4573 98.3961 44.0005 100.767C42.5437 103.139 39.4636 101.753 39.7383 90.8984C39.7383 90.8483 39.7383 90.7982 39.7383 90.7564C39.5052 89.1868 39.039 85.7886 38.6727 81.7642C38.3897 78.7083 38.1733 75.2851 38.1733 72.0455C38.1733 70.3757 38.2399 68.7726 38.3647 67.2781C38.3647 67.2781 37.4407 61.9261 36.6998 55.781C36.0755 50.7129 35.5593 45.1105 35.7758 41.5119C35.8381 40.058 36.1507 38.6259 36.6998 37.2788C36.8089 37.0166 36.9369 36.7626 37.0827 36.519C38.6228 33.8389 41.1868 33.6051 43.0765 36.6276C43.6178 37.5037 44.0432 38.4467 44.3418 39.433C44.3418 39.433 46.7726 49.0765 45.0328 66.6352C44.9079 67.6204 45.732 72.9473 45.2908 80.7623Z" fill="#FFEDE5"/>
<path d="M10.3442 46.9723C10.51 47.1649 10.716 47.3185 10.9476 47.4224C11.1792 47.5263 11.4308 47.5779 11.6844 47.5735C11.8006 47.5463 11.9101 47.4959 12.0063 47.4251C12.1025 47.3543 12.1834 47.2647 12.2441 47.1617C12.3048 47.0587 12.3441 46.9444 12.3595 46.8257C12.3749 46.7071 12.3661 46.5865 12.3337 46.4713C12.2369 46.2174 12.0798 45.9909 11.8759 45.8117C10.6189 44.5593 9.32856 43.3069 8.02159 42.1464C7.80318 41.8994 7.51128 41.7296 7.18913 41.6621C6.88951 41.662 6.59958 41.7685 6.37091 41.9626C6.14225 42.1568 5.98971 42.4261 5.94043 42.7225C5.94043 43.2568 6.39828 43.4572 6.77289 43.7578C7.95499 44.8098 9.13709 45.9119 10.3442 46.9723Z" fill="#3B2645"/>
<path d="M10.1613 45.4932C10.2131 45.4396 10.2553 45.3774 10.2861 45.3095C10.3072 45.2232 10.3085 45.1333 10.2897 45.0465C10.271 44.9597 10.2327 44.8783 10.1779 44.8085C9.86991 44.2992 9.23724 43.481 8.6129 43.4058C8.40676 43.3953 8.20148 43.4391 8.01746 43.5328C7.83344 43.6266 7.6771 43.767 7.56399 43.9402C7.37718 44.2098 7.25837 44.5208 7.21777 44.8465C7.17717 45.1723 7.21599 45.503 7.3309 45.8104C7.51361 46.3634 7.88897 46.8318 8.38813 47.1296C8.63722 47.2355 8.91745 47.2408 9.17031 47.1443C9.42316 47.0478 9.62908 46.8571 9.74505 46.612C9.86992 46.3031 9.82829 45.9273 10.0281 45.6685C10.066 45.6054 10.1106 45.5466 10.1613 45.4932V45.4932Z" fill="#FFEDE5"/>
<path d="M42.0201 15.9127C40.0972 17.257 39.9223 19.8703 40.863 21.9576C41.4874 23.352 42.6611 24.3289 43.3604 25.6481C44.0863 26.9238 44.9219 28.1335 45.8578 29.2633C47.9223 31.8934 49.8953 34.2729 50.6445 35.1747C53.2584 38.314 58.736 42.4219 60.709 43.858L61.4332 44.3756C61.4332 44.3756 63.3146 43.3821 62.8151 41.5452C62.8151 41.5452 55.3229 33.5632 54.2157 31.9351C52.9889 29.8207 51.8773 27.6411 50.8859 25.4059C49.6039 22.9011 48.2803 20.4882 46.8901 18.0752C46.2574 16.9647 45.4582 15.5704 44.0597 15.3199C43.4987 15.2573 42.9325 15.3773 42.4447 15.6622C42.2972 15.7351 42.1553 15.8188 42.0201 15.9127Z" fill="#FFEDE5"/>
<path d="M62.8062 41.5538C62.5984 41.5381 62.3897 41.5381 62.1819 41.5538C62.1819 41.5538 60.3837 42.5557 60.6917 43.8582C60.6917 43.8582 60.8915 44.0335 61.1829 44.3007C61.4743 44.5679 61.8156 44.8851 62.1985 45.2859C62.5814 45.6867 63.4888 46.9558 63.8634 46.8472C63.9515 46.812 64.0289 46.7544 64.0882 46.6803L64.8541 45.8453C65.2953 45.3611 66.0112 44.5428 65.4701 43.8999C65.8613 44.1421 66.7937 44.7349 67.2599 44.451L67.418 44.1421C67.418 44.1421 66.0445 43.1151 65.4701 42.6058C64.7211 41.9717 63.7851 41.602 62.8062 41.5538V41.5538Z" fill="#FFEDE5"/>
<path d="M62.9983 46.9721C62.8325 47.1647 62.6265 47.3183 62.3949 47.4222C62.1633 47.5261 61.9117 47.5777 61.6581 47.5733C61.5404 47.548 61.429 47.499 61.331 47.429C61.2329 47.359 61.1501 47.2697 61.0877 47.1665C61.0254 47.0632 60.9847 46.9483 60.9682 46.8287C60.9518 46.7091 60.9599 46.5875 60.9921 46.4711C61.0959 46.2284 61.2557 46.0138 61.4583 45.8449C62.7181 44.5925 64.0056 43.3708 65.3209 42.1796C65.5381 41.9312 65.8305 41.7611 66.1534 41.6953C66.452 41.6955 66.7408 41.8023 66.9681 41.9966C67.1954 42.1909 67.3463 42.46 67.3937 42.7557C67.3937 43.29 66.9442 43.4904 66.5613 43.791C65.3875 44.8096 64.2054 45.9117 62.9983 46.9721Z" fill="#3B2645"/>
<path d="M63.1894 45.4932C63.1326 45.442 63.0872 45.3794 63.0562 45.3095C63.0386 45.2225 63.0399 45.1327 63.0601 45.0463C63.0802 44.9598 63.1186 44.8787 63.1728 44.8085C63.4725 44.2992 64.1051 43.481 64.7295 43.4058C64.9356 43.3953 65.1409 43.4391 65.3249 43.5328C65.5089 43.6266 65.6653 43.767 65.7784 43.9402C65.9631 44.211 66.0787 44.5232 66.115 44.8493C66.1513 45.1754 66.1071 45.5054 65.9865 45.8104C65.8093 46.3664 65.4325 46.8365 64.9293 47.1296C64.6802 47.2355 64.4 47.2408 64.1471 47.1443C63.8942 47.0478 63.6883 46.8571 63.5724 46.612C63.4558 46.3031 63.4974 45.9273 63.2893 45.6685L63.1894 45.4932Z" fill="#FFEDE5"/>
<path d="M45.4157 75.4104V76.2453C45.4157 76.8047 45.4157 77.3808 45.4157 77.9736V78.6499C45.4157 79.3346 45.3658 80.0443 45.3325 80.7707C43.177 81.3671 40.9578 81.7007 38.7227 81.7642C38.6312 80.8291 38.448 78.341 38.4397 78.0655C38.4397 77.4977 38.3148 75.8946 38.3065 75.6776C38.2565 74.4586 38.2232 73.2396 38.2232 72.0456C38.2232 70.4926 38.2815 68.973 38.3981 67.562C38.3981 67.4618 38.3981 67.37 38.3981 67.2781C38.3981 67.1863 37.474 61.9345 36.7331 55.7811C36.6499 56.4323 36.5666 57.0836 36.4834 57.7098C35.7841 63.0033 35.0432 67.2781 35.0432 67.2781C35.1681 68.7643 35.2264 70.3757 35.2264 72.0289C35.2264 73.2897 35.2264 74.5337 35.1348 75.8529C35.1348 76.07 34.9683 78.8587 34.9433 79.1258C34.8851 80.0192 34.8101 80.8959 34.7352 81.7392C33.5698 81.6891 32.421 81.614 31.2805 81.5138C30.3814 81.4386 29.2493 81.3885 28.1504 81.2299C28.1005 80.4784 28.0672 79.7604 28.0422 79.0591C28.0422 78.8837 28.0422 78.7084 28.0422 78.533C28.0422 77.7649 28.0422 77.0385 28.0422 76.3372V75.7861C28.0422 70.7264 28.5334 67.395 28.4584 66.6018C26.7186 49.0682 29.1494 39.3996 29.1494 39.3996C29.5289 37.9947 30.2141 36.6916 31.1556 35.584C31.8692 35.6948 32.5695 35.8795 33.2451 36.135C34.2744 36.4048 35.3368 36.5257 36.4002 36.4941H37.166C38.0901 36.4941 39.0141 36.3855 39.9298 36.3605H40.5458C41.4237 36.3474 42.3003 36.4314 43.1598 36.611C43.6735 37.4966 44.0708 38.4452 44.3419 39.433C45.0143 42.5845 45.4099 45.789 45.5239 49.0097C45.8059 54.8889 45.6417 60.781 45.0328 66.6352C44.9329 67.3783 45.3741 70.5594 45.4157 75.4104Z" fill="#3B2645"/>
<path d="M33.6285 90.7468C33.7451 95.0634 33.3372 97.9022 32.7045 99.6138C31.7388 102.261 30.2071 102.227 29.3746 100.799C29.1498 100.403 28.9949 99.9711 28.9168 99.522C28.3091 96.5413 29.3746 91.3396 29.3746 91.3396C29.3793 91.2757 29.3793 91.2115 29.3746 91.1476C29.7888 91.4506 30.2584 91.6691 30.7565 91.7905C31.3155 91.9282 31.9039 91.8806 32.4336 91.6548C32.9634 91.429 33.406 91.0372 33.6951 90.5381L33.6285 90.7468Z" fill="#AB8DA8"/>
<path d="M44.5 99.2891C44.4289 99.8197 44.2595 100.332 44.0005 100.8C43.1015 102.27 41.5531 102.261 40.5957 99.4143C40.013 97.7445 39.6384 94.9641 39.7633 90.8896C40.3866 91.4515 41.1897 91.7713 42.0276 91.7914C42.775 91.7224 43.485 91.4317 44.0671 90.9564C44.0825 91.0868 44.0825 91.2185 44.0671 91.3489C44.0671 91.3489 45.0161 96.275 44.5 99.2891Z" fill="#AB8DA8"/>
<path d="M32.3717 93.3112C31.95 93.0589 31.4682 92.9258 30.9773 92.9258C30.4863 92.9258 30.0045 93.0589 29.5829 93.3112C29.5673 93.3286 29.5568 93.35 29.5527 93.373C29.5486 93.3961 29.551 93.4198 29.5597 93.4415C29.5684 93.4633 29.5829 93.4821 29.6018 93.496C29.6206 93.5098 29.6429 93.5181 29.6661 93.5199C30.0824 93.5199 30.4986 93.3446 30.8899 93.3529C31.3478 93.3919 31.8001 93.4815 32.2385 93.6201C32.276 93.6248 32.314 93.6171 32.3468 93.5983C32.3796 93.5795 32.4055 93.5505 32.4205 93.5157C32.4355 93.4809 32.4388 93.4422 32.43 93.4053C32.4212 93.3684 32.4007 93.3354 32.3717 93.3112V93.3112Z" fill="#291B30"/>
<path d="M32.2379 94.6469C31.527 94.2314 30.6928 94.0806 29.882 94.2211C29.6073 94.2211 29.599 94.6803 29.882 94.6553C30.2737 94.6176 30.6687 94.6344 31.0558 94.7054C31.4138 94.7722 31.7384 94.9225 32.0964 94.9976C32.1404 95.0071 32.1864 95.0007 32.2262 94.9795C32.266 94.9583 32.2971 94.9238 32.314 94.8819C32.3309 94.84 32.3325 94.7935 32.3186 94.7505C32.3047 94.7075 32.2761 94.6709 32.2379 94.6469V94.6469Z" fill="#291B30"/>
<path d="M43.2597 93.3109C42.6271 93.0938 41.2535 93.0104 40.7623 93.5948C40.6957 93.67 40.7623 93.8286 40.8539 93.8203C41.2452 93.7702 41.5865 93.6115 41.9944 93.5948C42.4023 93.5781 42.8268 93.6867 43.2098 93.6616C43.2327 93.6649 43.2561 93.6636 43.2786 93.6579C43.301 93.6521 43.3222 93.6419 43.3407 93.628C43.3593 93.614 43.3749 93.5965 43.3867 93.5765C43.3985 93.5565 43.4063 93.5344 43.4096 93.5113C43.4129 93.4883 43.4116 93.4649 43.4058 93.4423C43.4001 93.4198 43.3899 93.3986 43.376 93.38C43.3621 93.3614 43.3447 93.3457 43.3247 93.3339C43.3048 93.322 43.2827 93.3142 43.2597 93.3109V93.3109Z" fill="#291B30"/>
<path d="M43.5682 94.7216C42.8773 94.4127 41.1541 94.1873 40.8044 95.1224C40.7545 95.2476 40.9127 95.3478 41.0126 95.2894C41.3722 95.0882 41.7731 94.9724 42.1843 94.9506C42.5956 94.9289 43.0063 95.002 43.3851 95.1641C43.6348 95.2643 43.8263 94.8302 43.5682 94.7216Z" fill="#291B30"/>
<path d="M36.4424 57.7012C36.4551 57.051 36.5388 56.4043 36.6921 55.7725C36.6089 56.4237 36.5256 57.075 36.4424 57.7012Z" fill="#291B30"/>
<path d="M45.4999 49.0092C44.376 42.2379 35.0941 41.9206 35.0941 41.9206C34.5197 39.132 38.2658 38.297 38.2658 38.297L40.4551 36.4017C41.333 36.3886 42.2096 36.4726 43.0691 36.6522C43.6113 37.52 44.0394 38.4546 44.3427 39.4325C45.0015 42.5856 45.3886 45.7896 45.4999 49.0092V49.0092Z" fill="#291B30"/>
<path d="M44.4755 40.1592C36.9833 43.691 28.8418 40.4515 28.8418 40.4515C29.4328 38.7816 28.9916 30.2653 28.95 28.6455C28.95 28.6455 28.95 28.587 28.95 28.562C28.9534 28.5008 28.9534 28.4395 28.95 28.3783C30.5234 24.7213 30.6982 17.6744 30.7065 15.2531C31.4141 15.1446 32.155 15.0861 32.796 15.0527C33.0457 17.7579 33.9365 24.6962 36.4172 24.3957C38.898 24.0951 40.0801 17.9166 40.5129 15.2114C40.9694 15.2882 41.4323 15.3189 41.8948 15.3032C42.0363 15.3032 42.1779 15.3032 42.3194 15.3032C42.1029 19.002 44.1508 26.7752 44.2091 26.9923C44.2091 27.0508 44.2091 27.1175 44.2091 27.176C44.2091 27.3764 44.1508 27.5851 44.1258 27.8105C44.1258 27.8105 44.1258 27.9024 44.1258 27.9525C43.6014 32.6615 44.4755 40.1592 44.4755 40.1592Z" fill="#AB8DA8"/>
</svg>
