<svg width="64" height="102" viewBox="0 0 64 102" fill="none" xmlns="http://www.w3.org/2000/svg">
<path d="M33.2239 41.9314C33.1612 43.1764 33 44.6186 32.7671 46.213C32.3461 49.0256 31.7012 52.2323 30.9756 55.3494C29.3812 62.4974 27.4823 69.09 27.4823 69.09C27.3198 73.3005 26.8377 77.4927 26.0402 81.6302C25.9595 82.087 25.8789 82.5259 25.7894 82.9738C25.5206 84.4159 25.234 85.8043 24.9653 87.0852C23.971 91.6355 23.0663 94.9228 23.0663 94.9228L18.7041 94.1704C18.4981 91.6982 18.4175 89.3335 18.4264 87.121C18.4264 85.7416 18.4265 84.4338 18.516 83.1619C18.516 82.4991 18.5877 81.8541 18.6325 81.2361C19.143 73.694 20.4239 68.6958 20.4239 67.7016C20.4239 62.6586 20.7553 58.2606 21.1584 54.5074C22.287 44.1618 24.2845 38.7694 24.2845 38.7694C27.1061 32.2844 31.3339 32.7322 32.7313 37.5065C33.1353 38.9448 33.3017 40.4394 33.2239 41.9314V41.9314Z" fill="#FFEDE5"/>
<path d="M47.097 88.5005C47.097 90.292 46.9896 92.182 46.8283 94.1347L42.4661 94.9677C42.4661 94.9677 41.6958 92.1462 40.7911 88.0974C40.4597 86.6105 40.1103 84.9624 39.7789 83.2247C39.6893 82.732 39.5908 82.2214 39.5012 81.7198C38.699 77.5526 38.214 73.3306 38.0501 69.09C38.0501 69.09 36.1333 62.4347 34.521 55.251C33.8223 52.1697 33.1774 48.9809 32.7295 46.1951C32.4877 44.6097 32.3354 43.1496 32.2727 41.9135C32.1769 40.4057 32.3312 38.8923 32.7295 37.4349C34.1448 32.6606 38.3637 32.2217 41.1852 38.6979C41.1852 38.6979 43.1737 44.0722 44.2934 54.3552C44.766 58.7647 45.0141 63.1953 45.0369 67.63C45.0369 68.6242 46.3267 73.5239 46.8283 80.9585C46.8283 81.5855 46.9089 82.2214 46.9448 82.8753C47.0881 84.6578 47.1239 86.521 47.097 88.5005Z" fill="#FFEDE5"/>
<path d="M46.8922 80.9938C44.4403 81.3651 41.9707 81.6073 39.4934 81.7193C38.6942 77.5519 38.2121 73.3298 38.0513 69.0895C38.0513 69.0895 36.1344 62.4342 34.5221 55.2505C33.8234 52.1692 33.1785 48.9803 32.7306 46.1946C32.3097 49.0072 31.6647 52.2139 30.9392 55.3311C29.3806 62.4969 27.4817 69.0895 27.4817 69.0895C27.3191 73.3001 26.8371 77.4922 26.0395 81.6298C23.3523 81.5043 20.7816 81.3342 18.6318 81.155C19.1424 73.613 20.4233 68.6148 20.4233 67.6205C20.4233 62.5775 20.7547 58.1795 21.1578 54.4264C22.2864 44.0807 24.2839 38.6884 24.2839 38.6884C27.1055 32.2033 31.3333 32.6512 32.7306 37.4254C33.8055 33.7798 36.5196 32.6601 39.0008 35.2219C39.9268 36.2404 40.6666 37.4137 41.1864 38.6884C41.7435 40.3351 42.2041 42.013 42.5658 43.7134C43.3556 47.2362 43.9448 50.801 44.3304 54.3906C44.803 58.8 45.0511 63.2307 45.0738 67.6653C45.0828 68.6596 46.3637 73.5682 46.8922 80.9938Z" fill="#3B2645"/>
<path d="M42.6007 43.7583C40.1464 41.08 29.3887 40.4261 29.3887 40.4261L39.0357 35.3115C39.9618 36.33 40.7016 37.5033 41.2213 38.778C41.7768 40.4101 42.2374 42.073 42.6007 43.7583V43.7583Z" fill="#32203B"/>
<path d="M23.6392 99.3653C23.6441 99.4099 23.6441 99.455 23.6392 99.4996C23.4958 101.515 21.8477 101.21 19.4113 101.291C17.4676 101.291 16.4285 100.207 16.545 99.0338C16.5832 98.6784 16.7128 98.339 16.9212 98.0485C17.4758 97.1815 17.8815 96.2279 18.1215 95.227C18.2269 94.7738 18.4826 94.3697 18.847 94.0804C20.3787 92.8443 21.8477 93.7938 22.5822 94.4746C22.9105 94.7677 23.1391 95.156 23.2361 95.5853C23.5121 96.8261 23.6474 98.0941 23.6392 99.3653V99.3653Z" fill="#3B2645"/>
<path d="M46.1482 101.246C43.6491 101.246 41.9473 101.533 41.9025 99.3654V99.1772C41.8977 97.9896 42.0299 96.8054 42.2966 95.6481C42.3996 95.1566 42.657 94.711 43.0311 94.3761C43.4518 93.8927 44.0315 93.5756 44.6655 93.482C45.2995 93.3883 45.9461 93.5244 46.4886 93.8656C46.9725 94.2 47.3167 94.7004 47.456 95.2719C47.6984 96.227 48.098 97.1351 48.6384 97.9591C48.7554 98.1277 48.8489 98.3115 48.916 98.5054C49.346 99.867 48.3338 101.282 46.1482 101.246Z" fill="#3B2645"/>
<path d="M37.2618 7.28394C37.5007 7.00511 37.6532 6.66273 37.7007 6.29864C37.7261 5.71958 37.8316 5.14683 38.0142 4.59675C38.1756 4.35325 38.3078 4.09171 38.4084 3.81746C38.4414 3.67158 38.4375 3.51974 38.3968 3.37579C38.3561 3.23185 38.28 3.10038 38.1755 2.99339C38.0232 2.84112 37.8082 2.73363 37.7366 2.52761C37.7184 2.39686 37.7184 2.26423 37.7366 2.13349C37.7089 1.93976 37.6328 1.75614 37.5154 1.59958C37.398 1.44302 37.243 1.31858 37.0648 1.23776C36.6996 1.05952 36.3103 0.935783 35.9093 0.870507C35.5148 0.821447 35.1374 0.680302 34.8075 0.45847C34.6719 0.331917 34.5249 0.217987 34.3686 0.118093C34.0717 -0.00919339 33.7409 -0.0343952 33.4281 0.0464341C32.8341 0.149414 32.254 0.320741 31.6993 0.557001C31.4993 0.661982 31.2851 0.737411 31.0634 0.780933C30.7319 0.780933 30.3826 0.718232 30.0512 0.780933C29.8029 0.860116 29.5749 0.992506 29.3831 1.16887C29.1913 1.34523 29.0402 1.56132 28.9405 1.80207C28.8802 1.94087 28.7881 2.06359 28.6718 2.16036C28.5253 2.23495 28.3682 2.28632 28.206 2.31263C28.001 2.3932 27.8187 2.52263 27.6751 2.68966C27.5315 2.8567 27.4308 3.05628 27.3819 3.27107C27.2972 3.71493 27.2972 4.1708 27.3819 4.61466C27.3982 5.05347 27.4461 5.49052 27.5252 5.92243C28.421 9.50535 28.6807 8.51109 28.6807 8.51109L31.3679 8.23342C32.5861 8.09906 33.7953 7.95574 35.0046 7.78555C35.4883 7.71389 35.972 7.61536 36.4557 7.53475C36.7461 7.5532 37.0331 7.4639 37.2618 7.28394V7.28394Z" fill="#3B2645"/>
<path d="M28.4307 6.9519C28.3418 6.82976 28.2253 6.73038 28.0906 6.66186C27.956 6.59333 27.807 6.55762 27.6559 6.55762C27.5049 6.55762 27.3559 6.59333 27.2213 6.66186C27.0866 6.73038 26.9701 6.82976 26.8811 6.9519C26.1377 7.91033 27.5081 9.63909 28.5203 9.69284C28.5456 8.77822 28.5157 7.86291 28.4307 6.9519V6.9519Z" fill="#E0855C"/>
<path d="M43.2016 17.2989C42.2245 19.8285 41.437 22.4274 40.8458 25.0739C40.7741 25.4143 40.7204 25.7457 40.6577 26.0681C40.595 26.3906 40.5681 26.6325 40.5323 26.8922C40.4965 27.152 40.5323 27.2595 40.4606 27.5103C40.183 30.1975 39.6634 37.6589 39.5649 38.9308C39.5649 39.0562 39.5649 39.119 39.5649 39.119C32.6051 41.2597 25.2332 39.5579 25.2332 39.5579L25.1795 39.1637C25.0182 37.9276 23.5134 24.7066 23.4596 24.1781C23.1461 21.0341 22.9222 18.1409 22.9043 16.3405C22.9043 16.0718 23.1372 15.9195 23.4865 15.821C24.0508 15.6597 24.848 15.6329 25.475 15.5254C26.6427 15.3302 27.8214 15.2076 29.0042 15.1581H29.2909C29.3505 15.1546 29.4103 15.1546 29.47 15.1581H29.685L29.9089 11.5752H30.2583C30.4865 11.6106 30.717 11.6285 30.948 11.629C31.2234 11.6329 31.4987 11.6179 31.772 11.5842L32.1572 11.5394C32.3453 11.5394 32.5155 11.4767 32.6857 11.4319C32.9603 11.3686 33.2298 11.2847 33.4918 11.1811C33.5724 11.1637 33.6506 11.1366 33.7247 11.1005H33.7964L33.9755 11.0199C34.3043 10.8771 34.6218 10.7094 34.925 10.5182L35.346 10.2316L35.4177 10.1689C35.4747 10.1315 35.5286 10.0896 35.5789 10.0435L35.6774 9.96289C35.6774 10.0973 35.6774 10.151 35.6774 10.2047C35.5992 10.9008 35.5574 11.6004 35.552 12.3008C35.552 12.8113 35.552 13.3219 35.552 13.7697C35.552 14.5311 35.552 15.0865 35.552 15.0865H36.0536C36.0628 15.0799 36.0737 15.0764 36.085 15.0764C36.0962 15.0764 36.1072 15.0799 36.1163 15.0865C36.8425 15.0963 37.567 15.1592 38.284 15.2746C39.6464 15.4535 40.9857 15.7778 42.279 16.242C42.476 16.3226 42.6193 16.3942 42.7447 16.4569C42.8701 16.5196 43.2643 17.1377 43.2016 17.2989Z" fill="#FFEDE5"/>
<path d="M35.7131 9.97168C35.6115 10.6165 35.3681 11.2307 35.0007 11.7702C34.6332 12.3096 34.1507 12.7609 33.5879 13.0916C33.0251 13.4222 32.396 13.624 31.7459 13.6824C31.0958 13.7408 30.4408 13.6543 29.8281 13.4292L29.9446 11.575C30.9648 11.7354 32.0076 11.6752 33.0026 11.3987C33.9977 11.1221 34.9219 10.6355 35.7131 9.97168Z" fill="#E0855C"/>
<path d="M28.5291 4.25696C28.0275 4.81232 28.0186 6.04842 28.0186 7.34723C28.0186 11.3691 29.2547 12.5873 31.3148 12.7216C33.375 12.856 35.5069 12.023 35.7935 8.24297C35.9637 6.37089 36.1428 4.66004 35.4442 3.85388C34.432 2.75213 30.0519 2.56403 28.5291 4.25696Z" fill="#FFEDE5"/>
<path d="M35.5341 7.7763C35.5341 7.7763 36.1074 6.09232 37.1285 6.94327C38.1497 7.79421 36.8509 10.356 35.3371 10.2127C35.3281 10.2127 35.0684 8.35852 35.5341 7.7763Z" fill="#FFEDE5"/>
<path d="M36.6891 7.71409C36.4586 7.79585 36.2544 7.93818 36.0979 8.12613C35.9151 8.28769 35.7686 8.48612 35.668 8.70836C35.668 8.77106 35.7396 8.80689 35.7844 8.77106C35.8292 8.73523 36.0083 8.49338 36.1248 8.36798C36.2044 8.46257 36.3059 8.53636 36.4204 8.58295C36.4406 8.59197 36.4633 8.5939 36.4848 8.58842C36.5063 8.58295 36.5253 8.5704 36.5387 8.5528C36.5522 8.53519 36.5593 8.51356 36.559 8.49141C36.5586 8.46925 36.5508 8.44785 36.5368 8.43068C36.4745 8.33847 36.3917 8.26185 36.295 8.20675C36.4597 8.09353 36.6154 7.96776 36.7608 7.83054C36.7708 7.81902 36.7768 7.80461 36.7781 7.78941C36.7793 7.77421 36.7757 7.75901 36.7677 7.74602C36.7597 7.73303 36.7477 7.72293 36.7336 7.71719C36.7195 7.71144 36.7039 7.71036 36.6891 7.71409V7.71409Z" fill="#E0855C"/>
<path d="M29.7828 7.19505C29.7828 7.19505 29.4424 7.32941 29.4693 6.72031C29.4962 6.11121 29.7559 6.22766 29.7559 6.22766C29.7559 6.22766 29.9978 6.22766 29.9709 6.7024C29.944 7.17713 29.7828 7.19505 29.7828 7.19505Z" fill="#3B2645"/>
<path d="M33.3033 7.08715C33.3033 7.08715 32.9629 7.22151 32.9987 6.60345C33.0346 5.9854 33.2764 6.11976 33.2764 6.11976C33.2764 6.11976 33.5183 6.11976 33.5003 6.5945C33.4824 7.06923 33.3033 7.08715 33.3033 7.08715Z" fill="#3B2645"/>
<path d="M31.4316 8.78848C31.2525 8.78848 30.8494 8.87806 30.7598 8.68995C30.7838 8.26153 30.859 7.83752 30.9838 7.42697C31.129 6.87502 31.2456 6.31594 31.3331 5.75195C31.3331 5.75195 31.3331 5.75195 31.2704 5.75195C30.9439 6.7487 30.6982 7.77016 30.5359 8.8064C30.5315 8.81893 30.5302 8.83237 30.5322 8.84553C30.5342 8.85868 30.5394 8.87113 30.5474 8.88177C30.5554 8.89242 30.5658 8.90092 30.5779 8.90652C30.59 8.91212 30.6032 8.91465 30.6165 8.91388C30.8763 8.91388 31.1271 8.91388 31.3869 8.91388C31.4854 8.94076 31.5033 8.79744 31.4316 8.78848Z" fill="#E0855C"/>
<path d="M30.4729 5.34055C30.2583 5.32252 30.0426 5.32252 29.828 5.34055C29.6075 5.28876 29.3825 5.25876 29.1562 5.25098C29.1304 5.25129 29.1052 5.25902 29.0837 5.27324C29.0622 5.28747 29.0452 5.3076 29.0348 5.33121C29.0244 5.35483 29.0211 5.38094 29.0251 5.40642C29.0292 5.4319 29.0405 5.45568 29.0577 5.47491C29.2659 5.622 29.5065 5.71671 29.7591 5.75101C30.0117 5.78532 30.2688 5.7582 30.5087 5.67197C30.546 5.65998 30.578 5.63549 30.5994 5.60265C30.6207 5.5698 30.63 5.5306 30.6258 5.49167C30.6216 5.45273 30.6041 5.41643 30.5763 5.38891C30.5484 5.36138 30.5119 5.3443 30.4729 5.34055V5.34055Z" fill="#3B2645"/>
<path d="M34.2522 4.86576C33.9505 5.03509 33.619 5.14459 33.2758 5.18823C33.0519 5.18823 32.7832 5.14344 32.6041 5.29571C32.5929 5.31307 32.5869 5.33329 32.5869 5.35394C32.5869 5.37459 32.5929 5.3948 32.6041 5.41216C32.9534 5.92273 34.0999 5.32259 34.3955 4.96429C34.4045 4.90159 34.3149 4.83889 34.2522 4.86576Z" fill="#3B2645"/>
<path d="M32.7486 9.83721C32.3713 9.78343 31.9883 9.78343 31.611 9.83721C31.3513 9.83721 30.984 9.79242 30.7959 10.0074C31.0019 10.1955 31.3513 10.1149 31.611 10.1059C31.9894 10.1418 32.3703 10.1418 32.7486 10.1059C32.7842 10.1059 32.8184 10.0918 32.8436 10.0666C32.8688 10.0414 32.883 10.0072 32.883 9.97157C32.883 9.93593 32.8688 9.90176 32.8436 9.87656C32.8184 9.85136 32.7842 9.83721 32.7486 9.83721V9.83721Z" fill="#E0855C"/>
<path d="M63.4178 56.4779H0.582225C0.427809 56.4779 0.279718 56.4166 0.170529 56.3074C0.061341 56.1982 0 56.0501 0 55.8957C0 55.7413 0.061341 55.5932 0.170529 55.484C0.279718 55.3748 0.427809 55.3135 0.582225 55.3135H63.4178C63.5722 55.3135 63.7203 55.3748 63.8295 55.484C63.9387 55.5932 64 55.7413 64 55.8957C64 56.0501 63.9387 56.1982 63.8295 56.3074C63.7203 56.4166 63.5722 56.4779 63.4178 56.4779V56.4779Z" fill="#3B2645"/>
<path d="M2.57043 58.8964C2.30674 58.8964 2.05384 58.7917 1.86738 58.6052C1.68092 58.4188 1.57617 58.1659 1.57617 57.9022V53.8624C1.57617 53.5987 1.68092 53.3458 1.86738 53.1594C2.05384 52.9729 2.30674 52.8682 2.57043 52.8682C2.83413 52.8682 3.08702 52.9729 3.27348 53.1594C3.45994 53.3458 3.56469 53.5987 3.56469 53.8624V57.8843C3.56831 58.0167 3.5452 58.1484 3.49675 58.2717C3.44829 58.3949 3.37548 58.5072 3.28267 58.6016C3.18986 58.6961 3.07895 58.7709 2.95657 58.8216C2.8342 58.8722 2.70287 58.8977 2.57043 58.8964V58.8964Z" fill="#3B2645"/>
<path d="M4.55872 62.4161C4.29502 62.4161 4.04213 62.3113 3.85567 62.1249C3.66921 61.9384 3.56445 61.6855 3.56445 61.4218V50.3685C3.58802 50.1199 3.70343 49.8891 3.88812 49.7211C4.07281 49.5531 4.31352 49.46 4.56319 49.46C4.81287 49.46 5.05358 49.5531 5.23827 49.7211C5.42296 49.8891 5.53837 50.1199 5.56194 50.3685V61.4218C5.55957 61.6863 5.45283 61.9392 5.26495 62.1254C5.07707 62.3116 4.82324 62.4161 4.55872 62.4161V62.4161Z" fill="#291B30"/>
<path d="M6.5568 64.0816C6.4259 64.0828 6.29607 64.0579 6.17491 64.0084C6.05374 63.9588 5.94365 63.8856 5.85109 63.7931C5.75852 63.7005 5.68533 63.5904 5.63579 63.4692C5.58625 63.3481 5.56135 63.2183 5.56254 63.0874V49.0333C5.56254 48.7696 5.66729 48.5167 5.85375 48.3303C6.04021 48.1438 6.29311 48.0391 6.5568 48.0391C6.8205 48.0391 7.07339 48.1438 7.25985 48.3303C7.44631 48.5167 7.55106 48.7696 7.55106 49.0333V63.0874C7.55106 63.351 7.44631 63.6039 7.25985 63.7904C7.07339 63.9769 6.8205 64.0816 6.5568 64.0816Z" fill="#3B2645"/>
<path d="M60.5598 58.8964C60.8235 58.8964 61.0764 58.7917 61.2629 58.6052C61.4494 58.4188 61.5541 58.1659 61.5541 57.9022V53.8624C61.5541 53.5987 61.4494 53.3458 61.2629 53.1594C61.0764 52.9729 60.8235 52.8682 60.5598 52.8682C60.2962 52.8682 60.0433 52.9729 59.8568 53.1594C59.6703 53.3458 59.5656 53.5987 59.5656 53.8624V57.8843C59.5632 58.0163 59.5872 58.1475 59.6361 58.2702C59.685 58.393 59.7578 58.5047 59.8504 58.5989C59.943 58.6932 60.0534 58.768 60.1752 58.8191C60.297 58.8702 60.4278 58.8965 60.5598 58.8964V58.8964Z" fill="#3B2645"/>
<path d="M58.5716 62.4161C58.8353 62.4161 59.0882 62.3113 59.2746 62.1249C59.4611 61.9384 59.5658 61.6855 59.5658 61.4218V50.3685C59.5423 50.1199 59.4269 49.8891 59.2422 49.7211C59.0575 49.5531 58.8168 49.46 58.5671 49.46C58.3174 49.46 58.0767 49.5531 57.892 49.7211C57.7073 49.8891 57.5919 50.1199 57.5684 50.3685V61.4218C57.5707 61.6863 57.6775 61.9392 57.8653 62.1254C58.0532 62.3116 58.3071 62.4161 58.5716 62.4161V62.4161Z" fill="#291B30"/>
<path d="M56.5743 64.0816C56.7052 64.0828 56.8351 64.0579 56.9562 64.0084C57.0774 63.9588 57.1875 63.8856 57.2801 63.7931C57.3726 63.7005 57.4458 63.5904 57.4954 63.4692C57.5449 63.3481 57.5698 63.2183 57.5686 63.0874V49.0333C57.5686 48.7696 57.4639 48.5167 57.2774 48.3303C57.0909 48.1438 56.838 48.0391 56.5743 48.0391C56.3106 48.0391 56.0578 48.1438 55.8713 48.3303C55.6848 48.5167 55.5801 48.7696 55.5801 49.0333V63.0874C55.5801 63.351 55.6848 63.6039 55.8713 63.7904C56.0578 63.9769 56.3106 64.0816 56.5743 64.0816V64.0816Z" fill="#3B2645"/>
<path d="M26.7916 23.1029C26.4246 24.3822 25.9169 25.6169 25.2778 26.7844C25.018 27.3218 23.97 29.597 23.9252 29.6865C22.295 33.2605 19.993 38.5364 19.7869 39.1634C19.2764 41.1877 18.1836 52.9666 18.1746 52.9666C17.055 54.6506 14.9231 53.8623 14.9231 53.8623C14.9231 53.8623 14.9231 53.504 14.8246 52.8949C14.5827 50.2884 14.0095 42.9613 14.6723 38.6259C14.8604 37.4257 15.5681 34.5145 16.4638 31.2272C17.1804 28.54 17.4939 25.9872 18.3448 23.3716C19.0616 21.1212 20.1418 19.0031 21.5426 17.1015C22.0673 16.5028 22.7553 16.0701 23.5221 15.8564C23.8536 15.8564 23.9969 16.2864 24.2746 16.4118C25.0635 16.7801 25.6977 17.4143 26.066 18.2033C26.8465 19.7102 27.1019 21.4345 26.7916 23.1029V23.1029Z" fill="#FFEDE5"/>
<path d="M14.7079 55.0713C14.7079 54.6772 14.7885 54.2741 14.7974 53.88C14.7974 53.2619 14.7974 52.8588 14.7974 52.8588C15.1806 52.4866 15.6695 52.2421 16.1971 52.1587C16.7247 52.0753 17.2652 52.1572 17.7444 52.3931C17.9602 52.5505 18.1584 52.7307 18.3356 52.9305C18.6939 53.2709 19.1059 53.5396 19.4463 53.8979C19.6234 54.0687 19.7591 54.2778 19.8429 54.5091C19.9268 54.7404 19.9565 54.9879 19.93 55.2325C19.5054 55.2793 19.1115 55.4763 18.8193 55.7879C18.4879 56.1999 18.6312 56.5761 18.4699 57.0329C18.3087 57.4898 17.9146 57.5346 17.5742 57.5883C16.4277 57.7585 14.7885 57.8122 14.69 56.3343C14.6649 55.9134 14.6709 55.4913 14.7079 55.0713V55.0713Z" fill="#FFEDE5"/>
<path d="M50.5639 52.8312C50.5101 53.4403 50.4654 53.7986 50.4654 53.7986C50.4654 53.7986 48.3335 54.6137 47.2049 52.9028C47.2049 52.9028 46.1121 41.1598 45.5657 39.1354C45.4761 38.7951 44.7775 37.138 43.8996 35.1315C43.0218 33.1251 40.2003 26.9893 40.1107 26.7833C39.4678 25.6177 38.9599 24.3825 38.5969 23.1018C38.257 21.4115 38.5001 19.6559 39.2866 18.1216C39.6599 17.3361 40.2926 16.7034 41.0781 16.3301C41.3553 16.1909 41.664 16.1261 41.9738 16.142C42.0719 16.1417 42.1691 16.16 42.2605 16.1958C42.4264 16.2417 42.5837 16.3143 42.7262 16.4107C42.9455 16.5639 43.1495 16.7379 43.3353 16.9303C44.9412 18.6413 46.1279 20.7018 46.8018 22.9496C47.6975 25.6368 48.226 28.53 48.9068 31.1186C49.8025 34.406 50.5012 37.3171 50.6982 38.5174C51.379 42.8975 50.7968 50.2246 50.5639 52.8312Z" fill="#FFEDE5"/>
<path d="M50.6443 55.0801C50.6443 54.6322 50.5905 54.1844 50.5816 53.8798C50.5816 53.2618 50.5816 52.8587 50.5816 52.8587C50.2006 52.4861 49.7132 52.2411 49.1868 52.1577C48.6605 52.0742 48.1212 52.1564 47.6436 52.3929C47.4269 52.5525 47.2259 52.7325 47.0435 52.9303C46.6941 53.2707 46.2731 53.5394 45.9417 53.8977C45.7629 54.0673 45.6261 54.2762 45.5421 54.5079C45.4582 54.7396 45.4294 54.9876 45.458 55.2324C45.8686 55.3406 46.27 55.4814 46.6583 55.6534C46.9897 55.9937 46.7389 56.2983 46.7389 56.6924C46.7389 57.2388 47.1151 57.4269 47.6346 57.5165L48.6379 57.6956C49.1699 57.8235 49.7291 57.7764 50.2323 57.5613C50.3045 57.5198 50.3683 57.4651 50.4204 57.4C50.463 57.3344 50.4934 57.2616 50.5099 57.1851C50.6813 56.4973 50.7268 55.7841 50.6443 55.0801Z" fill="#FFEDE5"/>
<path d="M40.8445 25.073L41.3461 39.0912C33.0696 42.3248 24.1212 39.3062 24.1212 39.3062L23.9242 25.8702L23.6554 25.7896C23.2524 25.6642 22.8224 25.5298 22.3835 25.3507C22.1327 25.2522 21.8729 25.1536 21.6132 25.0282C20.4922 24.5162 19.4007 23.942 18.3438 23.3084C19.0605 21.058 20.1407 18.9399 21.5415 17.0383C22.0686 16.4424 22.7557 16.0103 23.5211 15.7933C24.0854 15.641 24.8826 15.6051 25.5096 15.4977C26.6773 15.3025 27.8559 15.1798 29.0388 15.1304L32.2903 23.192C33.6826 20.5643 34.9062 17.8508 35.9538 15.0677H36.0434C36.0525 15.0611 36.0635 15.0576 36.0748 15.0576C36.086 15.0576 36.097 15.0611 36.1061 15.0677C36.8323 15.0775 37.5568 15.1404 38.2738 15.2558C39.6396 15.4412 40.9818 15.7715 42.2777 16.2411C42.4436 16.287 42.6009 16.3596 42.7435 16.4561C42.9627 16.6093 43.1667 16.7832 43.3526 16.9756C44.9585 18.6866 46.1451 20.7472 46.819 22.9949C45.7413 23.4891 44.6379 23.9257 43.5138 24.3027C42.0269 24.7685 40.8445 25.073 40.8445 25.073Z" fill="#AB8DA8"/>
<path d="M23.9244 21.2393V25.8702L23.6557 25.7896C23.2526 25.6642 22.8227 25.5298 22.3838 25.3507C22.9677 24.0076 23.4819 22.6353 23.9244 21.2393V21.2393Z" fill="#27192E"/>
<path d="M21.641 96.2746C20.9333 95.8805 19.6077 95.5759 18.9538 96.1223C18.9412 96.1441 18.9346 96.1688 18.9346 96.194C18.9346 96.2192 18.9412 96.2439 18.9538 96.2657V96.3194C18.9538 96.3911 19.0523 96.409 19.106 96.3821C19.1598 96.3552 19.106 96.3821 19.1687 96.3821C19.3219 96.2847 19.498 96.2291 19.6793 96.2209C19.911 96.2101 20.1431 96.2312 20.369 96.2836C20.789 96.4073 21.2218 96.4824 21.6589 96.5075C21.6898 96.5051 21.7184 96.4906 21.7386 96.4671C21.7588 96.4435 21.7687 96.413 21.7664 96.3821C21.764 96.3512 21.7494 96.3225 21.7259 96.3024C21.7024 96.2822 21.6718 96.2722 21.641 96.2746Z" fill="#27192E"/>
<path d="M22.0978 97.5383C21.6975 97.2139 21.1979 97.0368 20.6826 97.0367C20.1723 96.9145 19.6358 96.9682 19.1598 97.189C19.0971 97.2427 19.0613 97.3771 19.1598 97.4219C19.5779 97.5294 20.0095 97.5747 20.4407 97.5562C20.9555 97.6985 21.484 97.7856 22.0172 97.816C22.0468 97.8107 22.0744 97.7973 22.0967 97.7772C22.1191 97.7571 22.1354 97.7311 22.1438 97.7022C22.1522 97.6733 22.1523 97.6427 22.1442 97.6137C22.1361 97.5848 22.12 97.5586 22.0978 97.5383V97.5383Z" fill="#27192E"/>
<path d="M46.2106 95.791C45.7295 95.5262 45.1789 95.4152 44.6328 95.4729C44.0867 95.5305 43.5714 95.7541 43.1562 96.1135C43.0666 96.2299 43.1562 96.4539 43.2905 96.436C43.7474 96.436 44.1863 96.1672 44.6341 96.1224C45.082 96.0777 45.5746 96.2479 46.0404 96.1941C46.2196 96.1762 46.3808 95.9612 46.2106 95.791Z" fill="#27192E"/>
<path d="M46.587 96.9653C46.0006 96.8257 45.3938 96.7923 44.7956 96.8668C44.5844 96.8394 44.3697 96.8572 44.1659 96.919C43.9621 96.9808 43.7737 97.0851 43.6132 97.2251C43.4878 97.3863 43.6132 97.6908 43.8371 97.6102C44.7329 97.2967 45.745 97.7625 46.6318 97.44C46.6803 97.419 46.721 97.3831 46.7479 97.3375C46.7748 97.292 46.7866 97.2391 46.7816 97.1864C46.7767 97.1338 46.7552 97.084 46.7202 97.0443C46.6853 97.0046 46.6386 96.9769 46.587 96.9653V96.9653Z" fill="#27192E"/>
</svg>
