<svg width="61" height="87" viewBox="0 0 61 87" fill="none" xmlns="http://www.w3.org/2000/svg">
<path d="M28.7869 10.2989C29.0886 10.0833 29.3467 9.81234 29.5473 9.50042C29.9193 9.04235 30.4199 8.70602 30.9845 8.53466C31.2282 8.44868 31.4879 8.41752 31.745 8.44341C32.1486 8.55567 32.5407 8.70589 32.9161 8.89207C33.9579 9.25708 35.0909 8.80081 36.1936 8.74758C37.2869 8.68421 38.3665 9.0162 39.2353 9.68293C39.5487 9.86874 39.795 10.1493 39.9385 10.4842C40.082 10.8191 40.1154 11.1909 40.0338 11.546C39.9227 11.7849 39.7558 11.9935 39.5471 12.1544C39.1525 12.4853 38.7018 12.7428 38.2164 12.9148C37.7682 13.0262 37.3363 13.1949 36.9312 13.4167C36.6024 13.6618 36.2969 13.9367 36.0187 14.238C35.3183 14.8966 34.4202 15.3056 33.4636 15.4015C32.5106 15.4944 31.5488 15.3829 30.6423 15.0745C30.2713 14.9785 29.926 14.8019 29.631 14.5574C29.2051 14.1771 28.977 13.6676 28.5055 13.3254C28.034 12.9832 27.555 12.8007 27.2964 12.3369C27.205 12.1586 27.1618 11.9596 27.1712 11.7595C27.1805 11.5594 27.242 11.3652 27.3496 11.1962C27.6994 10.5574 28.2013 10.6031 28.7869 10.2989Z" fill="#AB8DA8"/>
<path d="M37.213 5.75114C37.3042 5.53061 37.4031 5.30248 37.5096 5.08195C37.7432 4.55764 37.84 3.9826 37.7907 3.4107C37.7415 2.83879 37.548 2.28874 37.2282 1.81205C36.7403 1.22563 36.0973 0.788209 35.3727 0.549711C34.9087 0.321426 34.403 0.190195 33.8865 0.164044C33.3701 0.137894 32.8537 0.217374 32.369 0.397623C32.2901 0.441631 32.2057 0.47488 32.118 0.496481C31.9996 0.503784 31.8808 0.488295 31.7682 0.450854C31.4077 0.39375 31.0385 0.434151 30.6988 0.567867C30.3592 0.701583 30.0615 0.923742 29.8367 1.2113C29.3736 1.78847 29.0578 2.46964 28.9166 3.19605C28.8809 3.62975 28.93 4.06625 29.061 4.4812C29.128 4.87139 29.235 5.25364 29.3804 5.62186C29.5972 5.90381 29.8685 6.1393 30.1781 6.31435C30.4877 6.4894 30.8293 6.60043 31.1827 6.64086C31.8254 6.7324 32.4626 6.85933 33.0914 7.02108C33.4917 7.18399 33.8554 7.42535 34.161 7.73095C34.4666 8.03655 34.7079 8.40021 34.8708 8.80051C35.2587 9.4621 35.5096 10.6408 36.2168 11.0362C36.5966 11.2206 37.0337 11.248 37.4335 11.1123C37.9658 10.9602 38.521 10.5343 38.4753 9.9792C38.4297 9.42408 37.7605 9.08948 37.213 8.91458L36.2016 8.54196C36.167 8.52889 36.1357 8.50809 36.1104 8.48113C36.0571 8.42029 36.1104 8.32143 36.1104 8.25299C36.559 7.39369 36.8556 6.57242 37.213 5.75114Z" fill="#3B2645"/>
<path d="M29.7603 4.95154C29.6893 4.84508 29.5944 4.75668 29.4832 4.6934C29.3719 4.63011 29.2475 4.59369 29.1197 4.58705C28.9919 4.5804 28.8643 4.6037 28.7471 4.65511C28.6299 4.70651 28.5264 4.78458 28.4447 4.8831C27.7451 5.64354 28.7869 7.21005 29.6386 7.31651C29.7264 6.53133 29.767 5.74159 29.7603 4.95154V4.95154Z" fill="#FBD3CB"/>
<path d="M41.5549 14.7159C40.4284 17.0469 39.5073 19.4718 38.8021 21.9629C38.7413 22.2012 38.6881 22.4293 38.6424 22.6473C38.3078 24.1682 37.1824 31.6053 36.9999 32.7764C36.9999 32.8753 36.9999 32.9285 36.9999 32.9285C30.962 34.2669 24.8784 32.3201 24.8784 32.3201V31.9855C24.8176 30.5179 24.5362 24.4343 24.445 19.1873C24.3994 16.5105 24.3993 14.0467 24.5058 12.5182C24.5058 11.9555 25.8366 12.0848 26.7415 12.0011C27.8118 11.9198 28.886 11.9046 29.9582 11.9555C30.0088 11.9517 30.0597 11.9517 30.1103 11.9555H30.308L30.4297 11.0886L30.5133 10.5106L30.7414 8.95174L31.038 9.01257C31.2256 9.05718 31.4162 9.08768 31.6083 9.10383C31.8439 9.11853 32.08 9.11853 32.3156 9.10383H32.6502L33.0988 9.0506C33.3422 9.01257 33.5779 8.95174 33.7984 8.89851L34.0037 8.83767C34.0037 8.83767 34.0037 8.83767 34.057 8.83767L34.2167 8.79205C34.5044 8.69198 34.7841 8.56995 35.0532 8.42703L35.4334 8.2065L35.5018 8.16848L35.6387 8.07723L35.7299 8.00879C35.7299 8.11525 35.7299 8.16088 35.6843 8.21411C35.6007 8.7084 35.4942 9.33956 35.4334 9.97073C35.3801 10.4118 35.3421 10.8376 35.3117 11.2179C35.2585 11.8642 35.2357 12.3357 35.2357 12.3357C35.3782 12.3405 35.5204 12.3532 35.6615 12.3737H35.7147C36.3296 12.4312 36.9395 12.5328 37.5398 12.6779C38.9293 12.9982 40.2538 13.5537 41.4561 14.3205C41.5149 14.3654 41.5567 14.4291 41.5747 14.5009C41.5926 14.5727 41.5857 14.6485 41.5549 14.7159Z" fill="#FFEDE5"/>
<path d="M35.7157 7.9873C35.5848 8.52546 35.3364 9.02794 34.9882 9.45863C34.64 9.88931 34.2008 10.2375 33.702 10.4782C33.2032 10.7189 32.6572 10.846 32.1034 10.8506C31.5496 10.8551 31.0017 10.7369 30.499 10.5044L30.7272 8.94546C31.5786 9.15466 32.4652 9.17734 33.3262 9.01196C34.1872 8.84658 35.0023 8.49705 35.7157 7.9873V7.9873Z" fill="#FBD3CB"/>
<path d="M30.0188 2.67922C29.5625 3.11268 29.4788 4.13167 29.38 5.25713C29.1062 8.66391 30.072 9.77415 31.8058 10.0555C33.5396 10.3369 35.3951 9.74373 35.9274 6.60311C36.1936 5.02899 36.4673 3.56134 35.9274 2.86173C35.1213 1.80472 31.4332 1.34845 30.0188 2.67922Z" fill="#FFEDE5"/>
<path d="M35.7076 6.13118C35.7076 6.13118 36.3159 4.74718 37.122 5.53804C37.9281 6.3289 36.6505 8.40491 35.373 8.18438C35.373 8.15396 35.2741 6.63308 35.7076 6.13118Z" fill="#FFEDE5"/>
<path d="M36.6953 6.16143C36.4953 6.21695 36.3124 6.3215 36.163 6.46561C35.9997 6.59035 35.8649 6.74849 35.7676 6.92947C35.7676 6.98271 35.8208 7.02073 35.8588 6.99031C35.8969 6.95989 36.0641 6.77739 36.1706 6.67092C36.2328 6.75903 36.3166 6.82972 36.414 6.87624C36.49 6.87624 36.5508 6.81541 36.5204 6.74697C36.468 6.66668 36.401 6.59701 36.3227 6.54165C36.472 6.45946 36.6144 6.36536 36.7485 6.26029C36.7561 6.25096 36.7607 6.23961 36.7619 6.22766C36.763 6.21571 36.7605 6.20369 36.7549 6.19313C36.7492 6.18256 36.7405 6.17391 36.7299 6.16827C36.7193 6.16263 36.7073 6.16025 36.6953 6.16143V6.16143Z" fill="#FBD3CB"/>
<path d="M30.8858 5.24975C30.8858 5.24975 30.5817 5.34101 30.6577 4.82391C30.7338 4.3068 30.9239 4.42847 30.9239 4.42847C30.9239 4.42847 31.1292 4.42847 31.076 4.84672C31.0227 5.26496 30.8858 5.24975 30.8858 5.24975Z" fill="#3B2645"/>
<path d="M33.8732 5.39324C33.8732 5.39324 33.5766 5.4921 33.645 4.96739C33.7135 4.44269 33.9112 4.57957 33.9112 4.57957C33.9112 4.57957 34.1165 4.57957 34.0709 4.99781C34.0252 5.41605 33.8732 5.39324 33.8732 5.39324Z" fill="#3B2645"/>
<path d="M32.1552 6.70113C32.0107 6.70113 31.6609 6.74676 31.6001 6.57946C31.6447 6.21993 31.7341 5.86738 31.8663 5.53005C32.0107 5.04337 32.1552 4.71638 32.2769 4.13844C32.2769 4.13844 32.2389 4.09282 32.2313 4.13844C31.8934 4.94663 31.6213 5.78075 31.4176 6.63269C31.4141 6.64376 31.4132 6.65548 31.4149 6.66696C31.4166 6.67843 31.421 6.68936 31.4276 6.6989C31.4342 6.70844 31.4429 6.71635 31.453 6.72201C31.4632 6.72767 31.4744 6.73093 31.486 6.73155C31.699 6.73155 31.9119 6.79239 32.1324 6.8076C32.2009 6.83801 32.2313 6.71634 32.1552 6.70113Z" fill="#FBD3CB"/>
<path d="M31.2893 3.67502C31.084 3.56095 30.6885 3.50772 30.5288 3.72065C30.5239 3.73049 30.5213 3.74138 30.5215 3.75241C30.5216 3.76343 30.5244 3.77426 30.5297 3.78396C30.5349 3.79367 30.5424 3.80197 30.5515 3.80816C30.5606 3.81435 30.5711 3.81824 30.5821 3.8195C30.6885 3.8195 30.7798 3.77388 30.8862 3.77388C30.9988 3.77383 31.1101 3.79713 31.2132 3.84232C31.3045 3.87273 31.3805 3.72825 31.2893 3.67502Z" fill="#3B2645"/>
<path d="M34.3839 4.08554C34.2775 3.78136 33.7528 3.72813 33.5246 3.90303C33.4714 3.94105 33.5246 4.0247 33.5246 4.04751C33.6587 4.05909 33.7936 4.05909 33.9277 4.04751C34.0385 4.07192 34.1458 4.11024 34.2471 4.16158C34.26 4.17259 34.276 4.17939 34.293 4.18106C34.3099 4.18273 34.3269 4.1792 34.3418 4.17093C34.3567 4.16267 34.3687 4.15007 34.3762 4.13481C34.3837 4.11956 34.3864 4.10237 34.3839 4.08554V4.08554Z" fill="#3B2645"/>
<path d="M31.3652 7.72813C32 7.84403 32.655 7.76448 33.2435 7.5C33.1483 7.69856 33.0125 7.87493 32.8448 8.01771C32.6771 8.16049 32.4814 8.2665 32.2702 8.32888C31.601 8.47337 31.3652 7.72813 31.3652 7.72813Z" fill="white"/>
<path d="M24.1028 58.0239C22.2549 61.2101 21.1294 64.7234 19.7302 68.1074C18.3554 71.3211 16.6098 74.3633 14.5288 77.1718C13.3273 78.8752 11.1676 81.1565 11.2969 83.4379C11.4219 84.24 11.4601 85.0533 11.411 85.8637C11.1676 87.3846 9.89008 86.8218 8.78744 86.8218H5.31221C3.79133 86.8218 1.78376 87.1716 0.293294 86.8218C-0.467149 86.6393 0.460591 85.7724 0.726746 85.6432C1.8446 85.1185 3.00807 84.7458 4.16395 84.2439C5.23141 83.8104 6.18779 83.1425 6.96237 82.2896C7.02482 82.2195 7.08321 82.1458 7.13728 82.0691C8.28555 80.5482 10.7798 73.3316 12.0954 69.5978C12.3387 68.8906 12.544 68.3051 12.6961 67.9096C16.2474 58.3433 19.0838 48.5031 22.4602 38.8227C23.0609 37.1117 24.81 31.3704 26.0875 30.0776C27.8898 28.2526 29.5399 32.359 31.4106 34.1308C31.9302 34.6656 32.2909 35.3344 32.4524 36.0623C34.4676 43.9329 27.7681 51.697 24.1028 58.0239Z" fill="#FFEDE5"/>
<path d="M48.8781 86.4187C48.7404 86.5152 48.5746 86.5634 48.4067 86.5556C45.6463 86.6545 42.9315 86.5556 40.1863 86.5556C39.9017 86.5706 39.6174 86.5217 39.3543 86.4125C39.0911 86.3032 38.8557 86.1365 38.6654 85.9244C38.5092 85.6293 38.4282 85.3002 38.4297 84.9663C38.4297 84.4568 38.346 83.9625 38.2776 83.491C38.0474 81.9605 37.6627 80.4573 37.1293 79.0044C35.8889 75.601 35.0394 72.0676 34.597 68.4723C34.194 64.6701 34.0799 60.8679 33.175 57.1417C32.4146 54.1836 31.3043 50.8604 30.4754 47.4765C29.3043 42.6857 28.7416 37.7656 30.848 33.5528C30.9697 33.3094 31.099 33.0661 31.2359 32.7923C31.4402 32.3684 31.7308 31.9919 32.0891 31.687C32.4475 31.382 32.8656 31.1553 33.3167 31.0214C33.7677 30.8875 34.2418 30.8494 34.7085 30.9095C35.1752 30.9696 35.6242 31.1265 36.0267 31.3703C37.2966 32.0015 38.019 33.3627 38.5057 34.701C38.9432 35.9364 39.2789 37.2055 39.5095 38.4956C40.095 41.583 40.2243 44.8225 40.4981 47.8643C40.8859 52.4269 40.9315 56.8983 41.114 61.4382C41.2737 65.3545 41.6235 77.1033 41.6996 79.0652C41.6624 80.156 41.7932 81.2461 42.0874 82.2971C42.2593 82.8037 42.5703 83.2516 42.9847 83.5899C43.4642 83.9021 43.9982 84.1214 44.5588 84.2363C45.7907 84.5709 46.901 85.1032 48.1481 85.4225C48.4016 85.4701 48.6394 85.5799 48.8401 85.7419C48.9332 85.8277 48.9892 85.9463 48.9963 86.0726C49.0034 86.199 48.961 86.3231 48.8781 86.4187Z" fill="#FFEDE5"/>
<path d="M26.4068 12.6023C24.9848 11.5376 21.5932 12.6023 20.2168 13.0509C18.2017 13.6669 16.1865 14.4349 14.0801 14.5034C13.861 14.5259 13.6398 14.4973 13.4337 14.4197C13.1954 14.2855 12.9962 14.0916 12.8557 13.857C11.0307 11.3171 8.35393 8.45024 7.88245 5.25639C7.80092 4.72476 7.8399 4.1816 7.99652 3.66706C8.06496 3.43893 8.14101 3.20319 8.20944 2.96745C8.32359 2.61097 8.38257 2.23912 8.38435 1.86481C8.4027 1.54896 8.32545 1.23491 8.16267 0.963613C7.9999 0.692316 7.75914 0.476366 7.47181 0.343926C6.23229 -0.0819215 4.43005 1.00551 4.55932 2.29066C4.55932 2.59484 4.61255 2.89901 4.65057 3.19559C4.71141 3.68987 4.79506 4.18416 4.88631 4.66324C5.13726 5.9788 5.47946 7.27156 5.82165 8.53389C6.33876 10.4654 6.87867 12.3893 7.54025 14.2828C8.1258 15.9406 9.22844 18.1763 10.7265 19.1953C11.8203 19.8406 13.0687 20.177 14.3386 20.1687C17.3466 20.3514 20.3657 20.183 23.3346 19.6668C24.1389 19.5711 24.9152 19.3123 25.616 18.9063C26.5893 18.2676 26.5133 17.5527 26.7262 16.5794C26.9848 15.3627 27.4867 14.3893 26.9087 13.1422C26.7882 12.9238 26.6159 12.7384 26.4068 12.6023V12.6023ZM7.34254 4.7697C7.34254 4.7697 7.34254 4.7697 7.34254 4.72407C7.3461 4.73908 7.3461 4.7547 7.34254 4.7697V4.7697Z" fill="#FFEDE5"/>
<path d="M7.88227 5.25671C6.93263 4.86594 5.91284 4.6744 4.88613 4.69398C4.79487 4.2149 4.71123 3.72061 4.65039 3.22632L8.20926 2.96777C8.14082 3.20351 8.06478 3.43925 7.99634 3.66738C7.83972 4.18192 7.80073 4.72508 7.88227 5.25671Z" fill="#FBD3CB"/>
<path d="M9.61634 1.5459L3.38832 2.0706C3.35403 1.69043 3.17013 1.33945 2.87706 1.09488C2.584 0.850298 2.20578 0.732158 1.82561 0.766444C1.44544 0.80073 1.09446 0.984634 0.849878 1.2777C0.605301 1.57076 0.487161 1.94898 0.521447 2.32915L0.688744 4.18463C0.72303 4.5648 0.906934 4.91578 1.2 5.16036C1.49306 5.40494 1.87128 5.52308 2.25145 5.48879C2.63162 5.45451 2.9826 5.2706 3.22718 4.97754C3.47176 4.68447 3.5899 4.30625 3.55561 3.92608L9.77603 3.39377C9.78255 3.58896 9.82877 3.78077 9.91189 3.9575C9.995 4.13422 10.1133 4.29216 10.2594 4.42165C10.4056 4.55115 10.5767 4.6495 10.7621 4.71069C10.9476 4.77189 11.1436 4.79464 11.3381 4.77756C11.5327 4.76049 11.7217 4.70395 11.8937 4.61138C12.0656 4.51882 12.2169 4.39218 12.3383 4.2392C12.4597 4.08622 12.5487 3.9101 12.5997 3.7216C12.6508 3.53309 12.6629 3.33616 12.6353 3.14283L12.4756 1.31016C12.4242 0.944932 12.2343 0.613444 11.9453 0.384294C11.6563 0.155143 11.2903 0.0458698 10.923 0.0790858C10.5556 0.112302 10.2151 0.285465 9.97191 0.562741C9.7287 0.840018 9.6014 1.20018 9.61634 1.56871V1.5459Z" fill="#3B2645"/>
<path d="M5.79096 3.17308C5.79464 3.33482 5.83736 3.49328 5.91548 3.63495C5.9936 3.77663 6.1048 3.89732 6.23962 3.98675C6.39073 4.05182 6.55426 4.08297 6.7187 4.07801C7.07948 4.12864 7.44715 4.09214 7.79093 3.97154C7.99079 3.87089 8.16597 3.72738 8.30399 3.55124C8.44201 3.37511 8.53946 3.17068 8.58939 2.95255C8.67988 2.51192 8.651 2.05511 8.50574 1.62938C8.4392 1.33529 8.28232 1.06939 8.05708 0.868939C7.91546 0.767634 7.75525 0.695277 7.58561 0.656015C6.93524 0.484054 6.24775 0.515907 5.61606 0.747268C5.08375 0.944983 4.85562 1.26437 5.20542 1.68261C5.39825 1.8789 5.54949 2.11207 5.6501 2.36817C5.75071 2.62427 5.79862 2.89803 5.79096 3.17308V3.17308Z" fill="#FFEDE5"/>
<path d="M34.2318 13.1655C33.6387 14.4126 34.1558 15.386 34.4143 16.6027C34.6196 17.576 34.5512 18.2908 35.5245 18.9296C36.2254 19.3356 37.0016 19.5944 37.8059 19.6901C40.7749 20.2063 43.7939 20.3747 46.8019 20.192C48.0689 20.2083 49.3167 19.8826 50.414 19.249C51.9349 18.23 53.0147 15.9943 53.5927 14.3365C54.2542 12.443 54.8018 10.5343 55.3189 8.5876C55.6611 7.32527 55.9957 6.03252 56.2542 4.71695C56.3455 4.23787 56.4215 3.74358 56.4899 3.2493C56.4899 2.95272 56.5584 2.64855 56.5812 2.34437C56.6801 1.05922 54.9006 -0.0282106 53.6687 0.397637C53.3814 0.530077 53.1406 0.746026 52.9778 1.01732C52.8151 1.28862 52.7378 1.60267 52.7562 1.91852C52.7591 2.29217 52.8154 2.66348 52.9235 3.02116C52.9919 3.2569 53.068 3.49264 53.144 3.72077C53.2938 4.23654 53.3327 4.77821 53.2581 5.3101C52.7866 8.50395 50.1098 11.3936 48.2848 13.9107C48.1443 14.1453 47.9451 14.3392 47.7068 14.4734C47.5008 14.551 47.2795 14.5796 47.0605 14.5571C44.954 14.4886 42.9389 13.7206 40.9237 13.1046C39.5397 12.6788 36.1557 11.5837 34.7261 12.656C34.5221 12.7828 34.3524 12.9577 34.2318 13.1655V13.1655ZM53.7752 4.72455V4.77018V4.72455V4.72455Z" fill="#FFEDE5"/>
<path d="M53.2282 5.25671C54.1775 4.86489 55.1975 4.67331 56.2243 4.69398C56.3155 4.2149 56.3916 3.72061 56.46 3.22632L52.8936 2.96777C52.962 3.20351 53.038 3.43925 53.1141 3.66738C53.2639 4.18315 53.3028 4.72482 53.2282 5.25671V5.25671Z" fill="#FBD3CB"/>
<path d="M51.4941 1.54572L57.7221 2.10084C57.7735 1.73561 57.9634 1.40412 58.2524 1.17497C58.5414 0.945823 58.9074 0.83655 59.2748 0.869766C59.6421 0.902982 59.9826 1.07614 60.2258 1.35342C60.469 1.6307 60.5963 1.99086 60.5814 2.35939L60.4141 4.21487C60.3627 4.5801 60.1728 4.91159 59.8838 5.14074C59.5948 5.36989 59.2288 5.47916 58.8614 5.44595C58.4941 5.41273 58.1536 5.23957 57.9104 4.96229C57.6672 4.68501 57.5399 4.32485 57.5548 3.95632L51.3268 3.39359C51.3203 3.58878 51.2741 3.78059 51.1909 3.95732C51.1078 4.13404 50.9896 4.29198 50.8434 4.42147C50.6972 4.55097 50.5262 4.64932 50.3407 4.71051C50.1552 4.77171 49.9593 4.79446 49.7647 4.77738C49.5702 4.76031 49.3811 4.70377 49.2092 4.6112C49.0372 4.51864 48.8859 4.392 48.7645 4.23902C48.6431 4.08604 48.5542 3.90992 48.5031 3.72142C48.4521 3.53291 48.4399 3.33598 48.4675 3.14265L48.6272 1.30998C48.6615 0.92981 48.8454 0.578831 49.1385 0.334254C49.4315 0.0896766 49.8098 -0.0284644 50.1899 0.00582156C50.5701 0.0401075 50.9211 0.224011 51.1657 0.517076C51.4102 0.810141 51.5284 1.18836 51.4941 1.56853V1.54572Z" fill="#3B2645"/>
<path d="M55.3188 3.17308C55.3151 3.33482 55.2724 3.49328 55.1943 3.63495C55.1162 3.77663 55.005 3.89732 54.8701 3.98675C54.7188 4.05112 54.5554 4.08224 54.3911 4.07801C54.0303 4.12864 53.6626 4.09214 53.3188 3.97154C53.1167 3.87405 52.9396 3.73149 52.8012 3.55484C52.6628 3.37819 52.5667 3.17214 52.5204 2.95255C52.4299 2.51192 52.4588 2.05511 52.604 1.62938C52.6676 1.33412 52.825 1.06735 53.0527 0.868939C53.1943 0.767634 53.3545 0.695277 53.5241 0.656015C54.1745 0.484054 54.862 0.515907 55.4937 0.747268C56.026 0.944983 56.2541 1.26437 55.9043 1.68261C55.7101 1.87785 55.5579 2.11083 55.4572 2.36719C55.3564 2.62354 55.3094 2.89782 55.3188 3.17308V3.17308Z" fill="#FFEDE5"/>
<path d="M41.9054 79.506C41.8541 79.5848 41.7898 79.6542 41.7153 79.7114C41.5977 79.7891 41.4729 79.8554 41.3427 79.9091C41.0684 80.021 40.7786 80.0903 40.4833 80.1144C40.2456 80.1373 40.0063 80.1373 39.7685 80.1144C38.6355 80.1144 37.4872 80.1144 37.4872 80.1144C36.1868 77.6886 33.1603 69.2097 33.4112 63.5444C33.6622 57.8791 30.1946 47.9477 30.1946 47.9477C30.1946 47.9477 30.1946 48.0161 30.1946 48.0465C29.4341 50.6092 22.0046 65.2249 20.6814 68.2439L20.5978 68.4416C19.1681 71.856 12.6283 79.7494 12.6283 79.7494C11.1835 79.833 8.93259 78.2969 8.93259 78.2969C8.93259 78.2969 8.33945 75.8787 9.35084 70.6469C10.3622 65.415 16.4534 57.0654 17.9743 49.7727C19.4951 42.4801 24.8182 31.9632 24.8182 31.9632C27.6834 32.4913 30.6135 32.5683 33.5025 32.1913H33.7382C34.1489 32.1381 34.4987 32.0696 34.8789 32.0088L35.2591 31.9328C35.9097 31.8065 36.5521 31.6414 37.183 31.4385C40.278 35.8186 41.0233 43.4611 41.0233 46.0846C41.0233 48.7081 42.1183 64.7535 42.1183 67.8028C42.1411 70.6773 42.9472 77.9547 41.9054 79.506Z" fill="#3B2645"/>
<path d="M41.9041 79.5067C41.855 79.5871 41.7904 79.6569 41.714 79.712C41.5964 79.7898 41.4716 79.856 41.3413 79.9097C41.6683 72.1 40.1703 64.3282 39.5543 56.5337C39.1969 52.0395 39.4707 47.492 39.0372 43.013C38.6342 38.9219 37.0372 35.4086 34.9004 32.0018L35.2806 31.9258C37.5554 34.8384 38.9911 38.3172 39.4326 41.9864C40.0486 46.4654 39.5923 51.0585 39.9269 55.5679C40.2615 60.2447 40.8851 64.8986 41.3642 69.5601C41.8113 72.8557 41.9918 76.182 41.9041 79.5067V79.5067Z" fill="#E8CEE5"/>
<path d="M30.2016 47.9785C30.2016 47.9785 30.2016 48.0317 30.2016 48.0698C29.4412 50.6325 22.0116 65.2482 20.6885 68.2671C21.6999 64.0847 21.7759 60.6627 23.7302 55.9175C26.0724 50.199 29.8974 48.1382 30.2016 47.9785Z" fill="#291B30"/>
<path d="M55.5694 7.4927C55.5694 7.4927 54.9459 14.5344 52.9003 17.8803C50.8547 21.2263 39.7142 19.9564 39.7142 19.9564C39.7142 19.9564 37.296 28.9828 38.4367 31.4314C39.5773 33.8801 34.5736 34.2679 32.9843 34.1994C31.395 34.131 22.916 34.3135 22.9845 32.7318C23.0529 31.1501 24.224 30.5873 24.1175 28.3669C24.0111 26.1464 23.9274 19.9411 23.9274 19.9411C23.9274 19.9411 16.7717 21.5761 12.2698 20.5723C7.76802 19.5685 5.8441 11.2721 5.82129 8.56493L8.64253 7.4927C8.64253 7.4927 12.3155 12.5192 13.1596 13.3253C14.0037 14.1314 21.9046 11.8044 24.0187 11.8424C26.1327 11.8805 30.3075 11.9565 30.3075 11.9565C30.3075 11.9565 30.6041 14.58 32.2999 14.3215C33.9957 14.0629 35.2352 12.3215 35.2352 12.3215C36.5435 11.9896 37.9082 11.9455 39.2351 12.1922L39.4633 12.2379C40.4062 12.4508 41.7446 12.8614 43.1134 13.2112C44.8928 13.6751 46.5886 14.0401 47.1513 13.7131C48.1627 13.12 52.8318 6.86914 52.8318 6.86914L55.5694 7.4927Z" fill="#AB8DA8"/>
<path d="M31.0683 15.6291C30.1481 15.5226 30.3078 17.5302 30.3078 18.0017C30.3551 18.5735 30.3062 19.1493 30.1633 19.7051C29.9484 20.1893 29.7073 20.6615 29.4409 21.1195C29.2974 21.3743 29.2109 21.6571 29.1873 21.9486C29.1637 22.24 29.2035 22.5331 29.304 22.8077C29.3172 22.8314 29.3379 22.8501 29.3629 22.8607C29.3878 22.8714 29.4156 22.8733 29.4419 22.8663C29.4681 22.8594 29.4912 22.8438 29.5076 22.8221C29.524 22.8005 29.5326 22.774 29.5322 22.7468C29.3269 21.4008 30.3458 20.5872 30.5892 19.3705C30.7185 18.7089 30.285 16.1006 31.0987 15.8496C31.123 15.8405 31.1434 15.8235 31.1567 15.8012C31.17 15.779 31.1753 15.7528 31.1718 15.7272C31.1682 15.7015 31.1561 15.6778 31.1372 15.66C31.1184 15.6421 31.0941 15.6312 31.0683 15.6291V15.6291Z" fill="#3B2645"/>
<path d="M32.2473 15.7587C32.0226 16.106 31.8746 16.4973 31.8129 16.9064C31.7513 17.3155 31.7775 17.7331 31.8899 18.1312C32.0219 18.9434 31.9567 19.7754 31.6998 20.557C31.5043 21.0387 31.4312 21.5612 31.4869 22.0779C31.4922 22.0949 31.5028 22.1098 31.5171 22.1204C31.5315 22.1309 31.5489 22.1366 31.5667 22.1366C31.5845 22.1366 31.6019 22.1309 31.6163 22.1204C31.6306 22.1098 31.6412 22.0949 31.6465 22.0779C31.7606 21.1958 32.2169 20.405 32.3081 19.5228C32.445 18.2605 31.7758 17.1122 32.4374 15.8955C32.4556 15.8703 32.463 15.8389 32.458 15.8083C32.453 15.7776 32.436 15.7502 32.4108 15.732C32.3856 15.7139 32.3542 15.7065 32.3235 15.7115C32.2929 15.7165 32.2654 15.7334 32.2473 15.7587Z" fill="#3B2645"/>
<path d="M18.1406 20.8C18.1406 20.8 23.5246 17.9788 24.1633 16.648C24.8021 15.3172 23.9732 20.2449 23.9732 20.2449L18.1406 20.8Z" fill="#826B80"/>
<path d="M39.4338 12.2295C40.3767 12.4424 41.7151 12.8531 43.0839 13.2029C42.3963 13.0459 41.6801 13.0654 41.002 13.2595C40.324 13.4536 39.706 13.816 39.2056 14.3131C37.6315 15.9405 33.8825 15.4842 33.4795 15.4386C36.0498 15.7047 38.9471 12.7618 39.4338 12.2295Z" fill="#826B80"/>
<path d="M11.4266 85.8867C11.1832 87.4076 9.9057 86.8449 8.80306 86.8449H5.32784C3.80695 86.8449 1.79939 87.1947 0.308919 86.8449C-0.451524 86.6624 0.476216 85.7955 0.742371 85.6662C1.86022 85.1415 3.0237 84.7689 4.17957 84.267C5.24703 83.8335 6.20341 83.1656 6.978 82.3127H7.13769C7.53134 82.2555 7.9317 82.3549 8.25296 82.5894C8.57422 82.824 8.79081 83.175 8.85629 83.5674C9.49506 84.1149 10.5065 83.4457 11.3125 83.4989C11.4348 84.2886 11.473 85.089 11.4266 85.8867V85.8867Z" fill="#3B2645"/>
<path d="M48.8779 86.4187C48.7402 86.5152 48.5744 86.5633 48.4064 86.5556C45.646 86.6544 42.9313 86.5556 40.1861 86.5556C39.9015 86.5705 39.6172 86.5216 39.354 86.4124C39.0909 86.3032 38.8555 86.1364 38.6652 85.9244C38.509 85.6292 38.428 85.3001 38.4294 84.9662C38.4294 84.4567 38.3458 83.9625 38.2773 83.491C39.1062 83.3161 40.2165 84.1221 40.9009 83.5366C40.9583 83.2397 41.1 82.9657 41.309 82.7472C41.518 82.5288 41.7855 82.3751 42.0796 82.3047C42.2515 82.8112 42.5624 83.2592 42.9769 83.5974C43.4564 83.9097 43.9904 84.129 44.551 84.2438C45.7829 84.5784 46.8932 85.1107 48.1403 85.4301C48.3938 85.4777 48.6316 85.5874 48.8323 85.7495C48.9243 85.8339 48.9803 85.9504 48.9888 86.075C48.9973 86.1995 48.9576 86.3226 48.8779 86.4187Z" fill="#3B2645"/>
</svg>
