<svg width="73" height="90" viewBox="0 0 73 90" fill="none" xmlns="http://www.w3.org/2000/svg">
<g clip-path="url(#clip0_1277_3129)">
<g opacity="0.3">
<path opacity="0.3" d="M18.3031 55.055H18.2588L16.5559 54.5601C16.4975 54.5419 16.4484 54.501 16.4191 54.4463C16.3899 54.3915 16.3828 54.3273 16.3994 54.2673C16.4161 54.2072 16.4551 54.1563 16.5081 54.1253C16.5611 54.0943 16.6239 54.0857 16.683 54.1014L18.3741 54.5903C18.4277 54.6082 18.4732 54.6454 18.502 54.6949C18.5309 54.7443 18.5413 54.8028 18.5312 54.8595C18.5211 54.9162 18.4912 54.9672 18.4471 55.0031C18.403 55.0391 18.3477 55.0575 18.2913 55.055H18.3031Z" fill="black"/>
<path opacity="0.3" d="M16.5559 56.3945C16.5077 56.39 16.462 56.3705 16.425 56.3387C16.388 56.3069 16.3615 56.2642 16.349 56.2165C16.3396 56.1852 16.3367 56.1522 16.3404 56.1197C16.3441 56.0872 16.3543 56.0558 16.3704 56.0275C16.3865 55.9992 16.4081 55.9746 16.4339 55.9552C16.4597 55.9358 16.4892 55.922 16.5204 55.9147L18.2233 55.4741C18.2824 55.4611 18.3442 55.472 18.3956 55.5044C18.447 55.5369 18.484 55.5885 18.499 55.6483C18.5139 55.7081 18.5055 55.7714 18.4756 55.8251C18.4457 55.8787 18.3966 55.9184 18.3386 55.9358L16.6328 56.3764C16.6084 56.3869 16.5824 56.393 16.5559 56.3945V56.3945Z" fill="black"/>
<path opacity="0.3" d="M17.4251 58.0006C17.369 57.995 17.3167 57.9693 17.2773 57.9282C17.2342 57.8835 17.21 57.8234 17.21 57.7607C17.21 57.698 17.2342 57.6378 17.2773 57.5932L18.5367 56.3408C18.5582 56.3168 18.5842 56.2974 18.6133 56.284C18.6423 56.2705 18.6737 56.2633 18.7056 56.2627C18.7375 56.2622 18.7691 56.2683 18.7986 56.2807C18.8281 56.2931 18.8548 56.3115 18.877 56.3348C18.8993 56.3581 18.9166 56.3858 18.9279 56.4163C18.9393 56.4467 18.9444 56.4791 18.943 56.5117C18.9416 56.5442 18.9337 56.576 18.9197 56.6053C18.9058 56.6346 18.8861 56.6606 18.862 56.6819L17.6084 57.9402C17.5836 57.9627 17.5545 57.9797 17.523 57.9901C17.4914 58.0004 17.4581 58.004 17.4251 58.0006V58.0006Z" fill="black"/>
<path opacity="0.3" d="M18.9532 58.9505H18.9089C18.8787 58.9419 18.8505 58.9271 18.826 58.9072C18.8015 58.8872 18.7812 58.8624 18.7663 58.8342C18.7514 58.8061 18.7422 58.7751 18.7393 58.7433C18.7364 58.7114 18.7398 58.6792 18.7492 58.6487L19.2164 56.9226C19.2342 56.863 19.2743 56.8129 19.3279 56.783C19.3815 56.7531 19.4445 56.7459 19.5033 56.7629C19.5621 56.7799 19.612 56.8197 19.6424 56.8738C19.6727 56.9279 19.6811 56.992 19.6657 57.0524L19.1868 58.7785C19.1723 58.8297 19.1414 58.8745 19.0991 58.9056C19.0568 58.9368 19.0054 58.9526 18.9532 58.9505Z" fill="black"/>
</g>
<path d="M65.1381 32.154L60.9015 34.6436L51.6242 36.0136C51.6242 36.0136 44.8511 25.6267 43.8134 23.9941C42.7757 22.3615 41.5606 21.3144 38.749 21.3174L39.2812 29.604C39.3699 29.8726 44.9782 36.925 48.6767 40.7695C49.9834 42.1245 50.7846 42.4715 52.8157 41.8921C58.0279 40.4164 64.3457 36.0438 64.8542 34.9514C65.5372 33.524 65.0878 32.1841 65.1381 32.154Z" fill="#FFEDE5"/>
<path d="M63.3974 26.9C63.9532 25.0472 66.2238 23.5383 68.3317 24.1418C68.6656 24.236 68.9857 24.375 69.2837 24.5553C71.3532 25.7624 72.9999 28.7046 72.9999 31.1248C73.0067 31.5335 72.9508 31.9408 72.8343 32.3319V32.3319C72.2815 34.1818 70.0169 35.7027 67.9001 35.0961C67.5667 35.0006 67.2467 34.8616 66.9481 34.6827C64.8963 33.4756 63.2319 30.5303 63.2319 28.1101C63.2259 27.7005 63.2817 27.2923 63.3974 26.9Z" fill="#455A64"/>
<path d="M66.9506 34.6642C64.8988 33.4572 63.2344 30.5119 63.2344 28.0917C63.2344 25.6715 64.8988 24.6937 66.9506 25.9008C69.0024 27.1079 70.658 30.0502 70.658 32.4704C70.658 34.8906 69.0024 35.8713 66.9506 34.6642Z" fill="#37474F"/>
<path d="M66.9504 28.5837C66.1611 28.119 65.5195 28.4962 65.5195 29.4257C65.5464 29.9323 65.69 30.4254 65.9386 30.8648C66.1872 31.3042 66.5339 31.6776 66.9504 31.9545C67.7398 32.4192 68.3784 32.042 68.3784 31.1126C68.3521 30.6061 68.2091 30.1131 67.961 29.6737C67.7128 29.2343 67.3666 28.8608 66.9504 28.5837V28.5837Z" fill="#455A64"/>
<path d="M66.4597 29.9811C66.4692 30.1547 66.5186 30.3235 66.6038 30.4739C66.6891 30.6244 66.8078 30.7523 66.9505 30.8472C66.9974 30.8816 67.0518 30.9038 67.109 30.9117C67.1663 30.9196 67.2245 30.913 67.2787 30.8925L67.3141 30.8713C67.3564 30.8344 67.3896 30.7878 67.4112 30.7354C67.4328 30.6831 67.442 30.6263 67.4383 30.5696C67.4289 30.3963 67.3799 30.2278 67.2952 30.0774C67.2105 29.927 67.0924 29.7989 66.9505 29.7035C66.9036 29.669 66.8492 29.6469 66.792 29.639C66.7347 29.6311 66.6765 29.6377 66.6223 29.6582L66.5869 29.6793C66.5439 29.7159 66.5099 29.7622 66.4878 29.8147C66.4657 29.8671 66.4561 29.9241 66.4597 29.9811V29.9811Z" fill="#37474F"/>
<path d="M58.6112 34.6072C58.6204 34.7805 58.6693 34.9492 58.754 35.0996C58.8388 35.2501 58.957 35.3781 59.0991 35.4733C59.1626 35.5152 59.2363 35.5382 59.3119 35.5397C59.3693 35.5386 59.4254 35.5219 59.4745 35.4914L67.2795 30.8925L67.315 30.8713C67.3572 30.8344 67.3905 30.7878 67.412 30.7354C67.4336 30.6831 67.4429 30.6263 67.4391 30.5696C67.4297 30.3963 67.3807 30.2278 67.296 30.0774C67.2113 29.927 67.0933 29.7989 66.9513 29.7035C66.9045 29.669 66.85 29.6469 66.7928 29.639C66.7355 29.6311 66.6773 29.6377 66.6232 29.6582L66.5877 29.6793L58.7827 34.2783C58.7267 34.3111 58.6809 34.3594 58.6505 34.4176C58.6202 34.4758 58.6066 34.5415 58.6112 34.6072V34.6072Z" fill="#FAFAFA"/>
<path d="M50.9503 34.2363C51.5031 32.3864 53.7678 30.8564 55.8846 31.463C56.2187 31.559 56.5396 31.6979 56.8395 31.8764C58.8912 33.0835 60.5557 36.0288 60.5557 38.449C60.5607 38.8576 60.5049 39.2646 60.3901 39.6561C59.8343 41.5059 57.5727 43.0269 55.4559 42.4233C55.1227 42.3273 54.8028 42.1883 54.5039 42.0099C52.4521 40.8028 50.7877 37.8575 50.7877 35.4403C50.7808 35.0328 50.8357 34.6267 50.9503 34.2363V34.2363Z" fill="#455A64"/>
<path d="M54.5014 41.998C52.4496 40.791 50.7852 37.8457 50.7852 35.4285C50.7852 33.0113 52.4496 32.0276 54.5014 33.2346C56.5531 34.4417 58.2176 37.387 58.2176 39.8072C58.2176 42.2274 56.5561 43.2081 54.5014 41.998Z" fill="#37474F"/>
<path d="M54.5012 35.9108C53.7118 35.443 53.0732 35.8203 53.0732 36.7527C53.1 37.2587 53.2432 37.7511 53.4913 38.1899C53.7394 38.6288 54.0854 39.0017 54.5012 39.2785C55.2906 39.7433 55.9321 39.3661 55.9321 38.4366C55.9048 37.9304 55.761 37.438 55.5124 36.9991C55.2638 36.5603 54.9174 36.1874 54.5012 35.9108V35.9108Z" fill="#455A64"/>
<path d="M54.0134 37.3143C54.0226 37.4876 54.0715 37.6563 54.1562 37.8067C54.241 37.9571 54.3592 38.0852 54.5013 38.1804C54.5481 38.2149 54.6026 38.237 54.6598 38.2449C54.717 38.2528 54.7753 38.2462 54.8294 38.2257C54.8425 38.2211 54.8546 38.2139 54.8649 38.2046C54.9077 38.1679 54.9415 38.1215 54.9636 38.0691C54.9857 38.0167 54.9954 37.9597 54.992 37.9028C54.9823 37.7293 54.9328 37.5606 54.8476 37.4101C54.7624 37.2597 54.6437 37.1318 54.5013 37.0367C54.4545 37.0032 54.4004 36.9819 54.3438 36.9746C54.2871 36.9672 54.2295 36.974 54.176 36.9945L54.1406 37.0156C54.0976 37.0515 54.0637 37.0973 54.0416 37.1492C54.0195 37.2012 54.0098 37.2578 54.0134 37.3143V37.3143Z" fill="#37474F"/>
<path d="M52.831 38.0231C52.8394 38.1966 52.888 38.3655 52.9728 38.5161C53.0576 38.6666 53.1762 38.7945 53.3188 38.8892C53.3823 38.9311 53.456 38.954 53.5316 38.9556C53.589 38.9542 53.6451 38.9375 53.6942 38.9073L54.8295 38.2374C54.8426 38.2328 54.8547 38.2257 54.865 38.2163C54.9078 38.1796 54.9416 38.1332 54.9637 38.0808C54.9858 38.0284 54.9955 37.9714 54.9921 37.9145C54.9824 37.741 54.9329 37.5723 54.8477 37.4219C54.7625 37.2714 54.6438 37.1435 54.5014 37.0484C54.4546 37.015 54.4005 36.9936 54.3439 36.9863C54.2872 36.9789 54.2296 36.9857 54.1761 37.0062L54.1407 37.0273L53.0024 37.6942C52.9464 37.727 52.9006 37.7753 52.8703 37.8335C52.8399 37.8916 52.8263 37.9574 52.831 38.0231V38.0231Z" fill="#FAFAFA"/>
<path d="M52.831 38.0234C52.8397 38.1972 52.8884 38.3665 52.9731 38.5175C53.0579 38.6685 53.1763 38.797 53.3188 38.8925C53.3661 38.926 53.4207 38.9473 53.4778 38.9547C53.5349 38.962 53.593 38.9552 53.647 38.9348L53.6824 38.9136C53.7256 38.8773 53.7597 38.8309 53.7818 38.7785C53.8039 38.726 53.8134 38.6689 53.8096 38.6119C53.7996 38.438 53.7501 38.2689 53.6649 38.1181C53.5797 37.9672 53.4612 37.8387 53.3188 37.7428C53.2715 37.7093 53.2169 37.688 53.1598 37.6806C53.1026 37.6732 53.0446 37.6801 52.9906 37.7005L52.9551 37.7216C52.9127 37.7585 52.8793 37.805 52.8578 37.8574C52.8362 37.9098 52.827 37.9667 52.831 38.0234V38.0234Z" fill="#E0E0E0"/>
<path d="M62.4305 37.0753C64.2251 35.6781 65.9457 35.6872 65.6353 32.2712C65.3722 30.7623 65.0056 30.6537 63.5658 30.0803C62.9331 29.8298 62.0876 29.6397 61.5821 30.2312C61.5265 30.3055 61.4652 30.3751 61.3988 30.4394C61.2497 30.5364 61.0786 30.5925 60.9021 30.6024C60.565 30.6192 60.2446 30.757 59.9974 30.9916C59.8289 31.1878 59.7639 31.4564 59.5983 31.6525C59.4392 31.8063 59.2682 31.9465 59.0868 32.072C58.9569 32.187 58.8521 32.3287 58.7792 32.4878C58.7064 32.6469 58.6672 32.8198 58.6641 32.9954C58.676 33.1961 58.7309 33.3918 58.8249 33.5685C58.9189 33.7452 59.0496 33.8988 59.208 34.0184L60.1127 33.4873C60.4823 33.2278 61.245 34.1542 60.9169 34.6431C60.3936 35.4216 62.4305 37.0753 62.4305 37.0753Z" fill="#FFEDE5"/>
<path d="M41.5289 43.9436C42.1025 41.5777 42.268 35.666 42.268 35.666L25.4814 36.179L26.395 39.9119C26.5457 40.7534 26.6258 41.6065 26.6344 42.4619C26.6344 42.4619 28.2634 45.543 33.0942 46.0831C36.0625 46.3719 39.0384 45.6171 41.5289 43.9436Z" fill="#FFEDE5"/>
<path d="M42.276 35.6667C42.2967 35.8538 42.1785 37.6433 42.1785 37.6433C40.0321 39.4871 33.1466 40.4196 25.9181 37.9662L24.3867 31.9308C24.3867 31.9308 29.5841 29.6012 26.0719 21.7853L29.8472 21.4835L36.5494 21.3115H38.749C40.5576 23.1051 42.0861 25.171 43.2812 27.4375C44.1593 29.1093 45.2768 31.5596 42.276 35.6667Z" fill="#AB8DA8"/>
<path d="M32.7778 35.7202C29.7534 34.9326 28.9966 33.0043 28.7808 31.5859C28.7808 31.5859 28.2102 35.7202 32.5325 36.6828C37.0913 37.6968 38.9656 34.0122 38.9656 34.0122C38.9656 34.0122 36.4261 36.6708 32.7778 35.7202Z" fill="#AB8DA8"/>
<path d="M7.03285 81.7256C6.14593 82.3865 4.10304 82.5464 2.30258 81.6833C0.502113 80.8203 -0.248818 78.3639 0.0882141 76.4657C0.496201 74.1512 1.61668 72.8867 1.9005 71.4926C2.18432 70.0984 1.9005 68.1731 2.33214 66.9298C2.51007 66.4519 2.78713 66.0189 3.14434 65.6606C3.50154 65.3022 3.93044 65.0269 4.40164 64.8536C4.70205 64.7351 5.02506 64.6885 5.34588 64.7172C5.6667 64.746 5.97679 64.8494 6.25236 65.0196L6.78451 65.3395L7.03285 81.7256Z" fill="#3B2645"/>
<path d="M9.14659 72.8985L7.74525 77.1897C7.74525 77.1897 8.63217 80.2496 8.13254 81.0644C7.39639 82.2715 6.09852 82.4827 3.91372 81.8007C1.41554 81.0252 0.827215 78.7166 0.957298 76.9241C1.13468 74.3681 3.44956 72.4458 3.18348 69.9834C3.0534 68.7763 3.216 67.4274 3.86346 66.3893C4.58778 65.2305 5.77627 65.0132 7.0091 65.3904C8.06749 65.7163 8.99581 66.3953 9.89161 67.0321C10.1488 67.1992 10.3817 67.4023 10.5834 67.6356C10.7439 67.8541 10.8641 68.1005 10.9382 68.3629C11.1003 68.8903 11.1487 69.4472 11.0801 69.9955C11.015 70.5085 10.6928 70.8072 10.3942 71.2025L9.14659 72.8985Z" fill="#AB8DA8"/>
<path d="M15.187 70.8675C15.1012 70.8343 10.8203 68.0399 10.3591 67.8287C9.89792 67.6174 8.76266 67.3187 7.66583 69.9109C6.88237 71.7547 8.00877 72.4367 8.00877 72.4367L13.0347 75.4846L15.187 70.8675Z" fill="#FFEDE5"/>
<path d="M7.74543 77.1899C6.83964 76.7278 5.83685 76.4988 4.82449 76.523C4.74932 76.5302 4.67357 76.5184 4.6039 76.4887C4.53422 76.459 4.47275 76.4124 4.42488 76.3528C4.37701 76.2932 4.3442 76.2225 4.32934 76.147C4.31448 76.0714 4.31801 75.9933 4.33963 75.9194V75.9194C4.36809 75.8315 4.42149 75.7541 4.49307 75.6972C4.56465 75.6402 4.65119 75.6063 4.74171 75.5996C5.41873 75.5453 7.0625 75.5241 8.15342 76.4415C8.44315 77.039 7.74543 77.1899 7.74543 77.1899Z" fill="#455A64"/>
<path d="M8.26008 75.2282C7.37924 74.719 6.38947 74.4382 5.37757 74.4104C5.30136 74.4143 5.22541 74.3987 5.15653 74.3653C5.08764 74.3318 5.02796 74.2814 4.98284 74.2186C4.93772 74.1558 4.90857 74.0826 4.898 74.0054C4.88743 73.9283 4.89577 73.8497 4.92228 73.7767V73.7767C4.95488 73.69 5.01184 73.6152 5.08601 73.5615C5.16018 73.5078 5.24824 73.4777 5.33913 73.4749C6.01911 73.4568 7.66288 73.5262 8.7065 74.4979C8.96371 75.1165 8.26008 75.2282 8.26008 75.2282Z" fill="#455A64"/>
<path opacity="0.3" d="M7.74543 77.1899C6.83964 76.7278 5.83685 76.4988 4.82449 76.523C4.74932 76.5302 4.67357 76.5184 4.6039 76.4887C4.53422 76.459 4.47275 76.4124 4.42488 76.3528C4.37701 76.2932 4.3442 76.2225 4.32934 76.147C4.31448 76.0714 4.31801 75.9933 4.33963 75.9194V75.9194C4.36809 75.8315 4.42149 75.7541 4.49307 75.6972C4.56465 75.6402 4.65119 75.6063 4.74171 75.5996C5.41873 75.5453 7.0625 75.5241 8.15342 76.4415C8.44315 77.039 7.74543 77.1899 7.74543 77.1899Z" fill="#3B2645"/>
<path opacity="0.3" d="M8.26008 75.2282C7.37924 74.719 6.38947 74.4382 5.37757 74.4104C5.30136 74.4143 5.22541 74.3987 5.15653 74.3653C5.08764 74.3318 5.02796 74.2814 4.98284 74.2186C4.93772 74.1558 4.90857 74.0826 4.898 74.0054C4.88743 73.9283 4.89577 73.8497 4.92228 73.7767V73.7767C4.95488 73.69 5.01184 73.6152 5.08601 73.5615C5.16018 73.5078 5.24824 73.4777 5.33913 73.4749C6.01911 73.4568 7.66288 73.5262 8.7065 74.4979C8.96371 75.1165 8.26008 75.2282 8.26008 75.2282Z" fill="#3B2645"/>
<path d="M51.8874 82.1906L57.4484 79.9393C57.3538 78.4758 56.999 76.5263 57.3686 72.6969L51.0596 71.4717V77.9175L51.8874 82.1906Z" fill="#FFEDE5"/>
<path d="M67.7544 87.1756C67.9022 87.6326 67.8747 88.1297 67.6775 88.5668C67.4883 88.9742 65.404 90.1722 62.5925 89.9791C60.5076 89.83 58.4997 89.1141 56.7772 87.9059C55.707 87.1817 54.5894 87.0459 53.1999 86.9644C51.8104 86.8829 49.9774 86.1737 49.6729 85.5098C49.3684 84.8459 49.7202 83.6992 49.7202 83.6992L67.7544 87.1756Z" fill="#3B2645"/>
<path d="M56.4113 78.2194L56.633 78.1711C56.7535 78.138 56.8795 78.1319 57.0026 78.153C57.1391 78.196 57.2604 78.2789 57.3514 78.3914C57.6267 78.7495 57.8663 79.1346 58.0669 79.5411C58.6582 80.5219 59.894 81.3366 61.245 82.076C62.1645 82.5799 63.0632 82.9813 64.0123 83.4068C64.9613 83.8323 66.2621 84.122 67.0189 84.644C68.1217 85.4015 68.2665 87.3087 67.0189 88.0601C65.9369 88.7119 63.0839 89.415 60.092 88.549C58.4601 88.0782 56.6508 86.3008 54.5133 86.1348C53.1533 86.0262 50.5783 85.6369 49.7032 84.5837C49.3809 84.116 49.8126 82.6312 50.1673 81.3517C50.5546 79.9545 50.6965 77.4921 51.1518 77.6158C51.1518 77.6158 51.0276 77.9629 51.205 78.1499C51.3824 78.337 52.0062 78.7112 52.1895 78.8682C52.4961 79.1873 52.7435 79.5605 52.9198 79.9696C52.993 80.1544 53.1296 80.3056 53.3041 80.3951C53.5347 80.4826 53.7062 80.3348 53.8954 80.2412C54.1512 80.1244 54.4393 80.1041 54.7084 80.1839C54.6824 79.9067 54.634 79.6321 54.5635 79.3631C54.5333 79.2781 54.5261 79.1863 54.5428 79.0975C54.58 79.0147 54.6408 78.9453 54.7173 78.8983C55.2292 78.5536 55.8063 78.3223 56.4113 78.2194Z" fill="#AB8DA8"/>
<path d="M59.9734 81.3216C59.9734 81.3216 59.7782 80.7874 58.9711 80.6365C58.3503 80.5188 57.2564 80.9836 56.5764 81.5419C56.5125 81.5958 56.4623 81.6648 56.4303 81.7429C56.3983 81.821 56.3853 81.9059 56.3926 81.9902C56.3999 82.0746 56.4271 82.1558 56.472 82.227C56.5169 82.2982 56.5781 82.3572 56.6504 82.3989V82.3989C56.7431 82.453 56.8503 82.4758 56.9566 82.4638C57.0628 82.4519 57.1626 82.4059 57.2416 82.3325C57.9901 81.6481 58.9691 81.2858 59.9734 81.3216V81.3216Z" fill="#455A64"/>
<path d="M61.8921 82.4166C61.7581 82.2238 61.5808 82.0664 61.3751 81.9578C61.1694 81.8491 60.9411 81.7922 60.7095 81.792C60.7095 81.792 59.0923 81.8403 58.0901 82.7909C58.0291 82.8433 57.9813 82.9099 57.9508 82.9851C57.9203 83.0604 57.908 83.142 57.915 83.2231C57.9219 83.3042 57.9479 83.3824 57.9908 83.4511C58.0336 83.5198 58.092 83.5769 58.1611 83.6177V83.6177C58.2488 83.6675 58.3497 83.6879 58.4494 83.676C58.5492 83.6641 58.6427 83.6205 58.7169 83.5513C59.1296 83.1323 59.629 82.8128 60.1784 82.6165C60.7279 82.4202 61.3134 82.3519 61.8921 82.4166Z" fill="#455A64"/>
<path d="M64.0121 83.4062C63.8578 83.2272 63.6676 83.0841 63.4544 82.9868C63.2411 82.8894 63.0099 82.84 62.7763 82.8418C62.7763 82.8418 61.2686 82.8992 60.2693 83.8498C60.2075 83.9016 60.1589 83.9679 60.1278 84.0431C60.0967 84.1183 60.0839 84.2001 60.0906 84.2814C60.0973 84.3628 60.1232 84.4412 60.1662 84.5101C60.2092 84.5789 60.2679 84.6361 60.3373 84.6766V84.6766C60.4256 84.7262 60.5269 84.7465 60.6271 84.7346C60.7272 84.7227 60.8212 84.6792 60.896 84.6102C61.2878 84.1758 61.7735 83.8408 62.3145 83.6318C62.8554 83.4227 63.4367 83.3455 64.0121 83.4062Z" fill="#455A64"/>
<path opacity="0.3" d="M59.9734 81.3216C59.9734 81.3216 59.7782 80.7874 58.9711 80.6365C58.3503 80.5188 57.2564 80.9836 56.5764 81.5419C56.5125 81.5958 56.4623 81.6648 56.4303 81.7429C56.3983 81.821 56.3853 81.9059 56.3926 81.9902C56.3999 82.0746 56.4271 82.1558 56.472 82.227C56.5169 82.2982 56.5781 82.3572 56.6504 82.3989V82.3989C56.7431 82.453 56.8503 82.4758 56.9566 82.4638C57.0628 82.4519 57.1626 82.4059 57.2416 82.3325C57.9901 81.6481 58.9691 81.2858 59.9734 81.3216V81.3216Z" fill="#3B2645"/>
<path opacity="0.3" d="M61.8921 82.4166C61.7581 82.2238 61.5808 82.0664 61.3751 81.9578C61.1694 81.8491 60.9411 81.7922 60.7095 81.792C60.7095 81.792 59.0923 81.8403 58.0901 82.7909C58.0291 82.8433 57.9813 82.9099 57.9508 82.9851C57.9203 83.0604 57.908 83.142 57.915 83.2231C57.9219 83.3042 57.9479 83.3824 57.9908 83.4511C58.0336 83.5198 58.092 83.5769 58.1611 83.6177V83.6177C58.2488 83.6675 58.3497 83.6879 58.4494 83.676C58.5492 83.6641 58.6427 83.6205 58.7169 83.5513C59.1296 83.1323 59.629 82.8128 60.1784 82.6165C60.7279 82.4202 61.3134 82.3519 61.8921 82.4166Z" fill="#3B2645"/>
<path opacity="0.3" d="M64.0121 83.4062C63.8578 83.2272 63.6676 83.0841 63.4544 82.9868C63.2411 82.8894 63.0099 82.84 62.7763 82.8418C62.7763 82.8418 61.2686 82.8992 60.2693 83.8498C60.2075 83.9016 60.1589 83.9679 60.1278 84.0431C60.0967 84.1183 60.0839 84.2001 60.0906 84.2814C60.0973 84.3628 60.1232 84.4412 60.1662 84.5101C60.2092 84.5789 60.2679 84.6361 60.3373 84.6766V84.6766C60.4256 84.7262 60.5269 84.7465 60.6271 84.7346C60.7272 84.7227 60.8212 84.6792 60.896 84.6102C61.2878 84.1758 61.7735 83.8408 62.3145 83.6318C62.8554 83.4227 63.4367 83.3455 64.0121 83.4062Z" fill="#3B2645"/>
<path d="M55.6897 49.8191C51.462 48.8504 41.3658 46.6958 41.3658 46.6958L41.5284 43.9436C37.8772 45.8749 30.1816 45.3287 26.6339 42.4619L26.0752 45.38C24.7301 47.0238 23.5652 48.8129 22.6014 50.7153C21.7913 52.3539 20.4373 54.9099 21.7854 60.8639C22.5777 64.3614 23.6332 73.5684 23.6332 73.5684L13.2857 69.6756C13.2857 69.6756 12.3988 69.8295 11.6478 71.8091C11.2044 72.9799 11.0565 74.1055 11.5059 74.688C15.2901 77.7389 21.4218 82.7211 27.6184 85.5155C31.7574 87.133 33.957 83.5811 34.158 82.2654C34.9356 77.2258 35.8314 61.0329 35.8314 61.0329L49.6674 60.5832C49.2092 63.2569 51.0717 73.7042 51.0717 73.7042C51.0717 73.7042 54.4775 75.213 57.298 73.668C57.298 73.668 59.1842 61.6455 59.3675 57.6349C59.5537 53.1627 59.7784 50.7576 55.6897 49.8191Z" fill="#3B2645"/>
<path opacity="0.15" d="M49.6674 60.5839C49.6674 59.8627 50.1375 57.3429 51.7369 56C51.7369 56 49.5433 56.4014 48.5381 60.6201L49.6674 60.5839Z" fill="black"/>
<path opacity="0.15" d="M23.6333 73.5691C23.6333 73.5691 23.929 77.5434 24.674 79.4808C24.674 79.4808 22.8085 76.0406 22.6045 73.1768L23.6333 73.5691Z" fill="black"/>
<path opacity="0.15" d="M41.3628 46.6957L41.5254 43.9465C37.8743 45.8748 30.1816 45.3286 26.6369 42.4648L26.0781 45.3799C26.1077 45.4071 28.3841 47.8092 34.3029 48.12C40.2217 48.4308 41.3628 46.6957 41.3628 46.6957Z" fill="black"/>
<path opacity="0.15" d="M35.8433 61.0333C35.7943 59.5396 35.4482 58.0716 34.8261 56.7187C34.2041 55.3657 33.3189 54.156 32.2246 53.1631C32.2246 53.1631 35.4057 54.6719 36.47 59.449C36.47 59.449 38.8352 58.3234 40.071 54.9496C40.071 54.9496 39.6925 58.3234 37.7886 60.2426L43.527 60.7828L35.8433 61.0333Z" fill="black"/>
<path d="M33.9988 1.20688e-05C32.7841 -0.00197107 31.581 0.240466 30.4582 0.713459C29.3354 1.18645 28.315 1.88072 27.4553 2.75657C26.5956 3.63241 25.9135 4.67265 25.4479 5.81779C24.9824 6.96293 24.7426 8.19052 24.7422 9.43034V9.43034C24.7422 10.6704 24.9817 11.8983 25.4471 13.0438C25.9125 14.1893 26.5945 15.2299 27.4543 16.1061C28.314 16.9822 29.3346 17.6768 30.4575 18.1499C31.5805 18.6231 32.7839 18.8657 33.9988 18.8637V18.8637C36.447 18.8597 38.7936 17.864 40.5231 16.0952C42.2526 14.3265 43.2236 11.9293 43.2228 9.43034V9.43034C43.2228 6.93187 42.2515 4.53552 40.522 2.76742C38.7926 0.999323 36.4465 0.00400961 33.9988 1.20688e-05V1.20688e-05Z" fill="#263238"/>
<path d="M24.3461 5.73377C24.6802 5.71816 25.015 5.73737 25.3453 5.79111C25.4573 5.79862 25.5626 5.84805 25.641 5.92992C25.6865 5.99763 25.7121 6.0772 25.7149 6.15926C25.7912 6.68318 25.7435 7.21813 25.5759 7.71942C25.4459 8.06947 25.0408 8.24752 24.7836 8.501C23.7844 9.49081 23.7045 11.1294 24.0977 12.4904C24.4909 13.8514 25.2803 15.0645 25.7918 16.3802C26.3032 17.6959 26.5752 19.2802 25.8509 20.605C25.57 21.112 25.0586 21.5103 25.1207 22.1139C25.1916 22.8532 25.8243 23.5593 26.0963 24.2263C26.3948 25.0163 26.4964 25.8698 26.3919 26.7098C26.3171 27.7543 25.9371 28.7519 25.301 29.5736C24.8148 30.152 24.1871 30.5885 23.4819 30.8387C22.7766 31.0889 22.019 31.1439 21.2862 30.998C20.9772 30.943 20.6848 30.8159 20.4318 30.6268C19.9972 30.2707 19.8227 29.6883 19.5862 29.1723C18.8264 27.5035 17.2211 26.2904 16.7333 24.519C16.2041 22.6329 17.0851 20.6714 18.1671 19.069C18.6727 18.3206 19.2374 17.5873 19.4857 16.7122C19.8198 15.5323 19.5271 14.2769 19.4502 13.0487C19.3769 11.849 19.512 10.6455 19.8494 9.49383C20.0918 8.66094 20.4672 7.70131 21.1029 7.10381C21.9949 6.27599 23.1418 5.7915 24.3461 5.73377Z" fill="#263238"/>
<path d="M39.7755 4.31543C40.7866 4.93406 42.0313 7.54437 41.8864 13.0064C41.7622 17.6356 40.287 18.7733 39.5479 19.1022C38.8088 19.4311 37.3838 19.2199 36.0002 18.9785V21.7578C36.0002 21.7578 37.9041 24.0331 37.774 25.3096C37.6439 26.5861 35.0068 26.8728 33.2211 25.6114C31.4354 24.35 29.9365 21.9268 29.9365 21.9268L29.9957 15.5353C29.9957 15.5353 29.1708 16.35 27.7902 15.1128C26.6579 14.0898 26.2794 12.3727 27.1723 11.4674C28.0651 10.5621 29.7059 10.8065 30.3327 12.1222C30.3327 12.1222 32.5382 12.2128 35.4857 10.5772C36.6324 9.95078 37.6184 9.05742 38.3637 7.96951C39.109 6.8816 39.5926 5.62975 39.7755 4.31543V4.31543Z" fill="#FFEDE5"/>
<path d="M36.8248 11.8235C36.8253 11.9379 36.7928 12.05 36.7313 12.1456C36.6698 12.2413 36.5821 12.3163 36.4791 12.3614C36.3761 12.4065 36.2624 12.4197 36.1521 12.3992C36.0418 12.3787 35.9399 12.3256 35.859 12.2463C35.7782 12.1671 35.722 12.0653 35.6974 11.9537C35.6729 11.8421 35.6811 11.7255 35.7211 11.6186C35.761 11.5117 35.8309 11.4192 35.922 11.3526C36.0132 11.286 36.1215 11.2483 36.2335 11.2441C36.3863 11.244 36.5332 11.3043 36.6434 11.4123C36.7537 11.5203 36.8187 11.6677 36.8248 11.8235Z" fill="#263238"/>
<g style="mix-blend-mode:multiply" opacity="0.5">
<g style="mix-blend-mode:multiply" opacity="0.5">
<path d="M36.955 15.749L38.2765 16.1836C38.2524 16.2741 38.2107 16.3588 38.1538 16.4325C38.097 16.5062 38.0261 16.5674 37.9455 16.6125C37.8649 16.6576 37.7762 16.6856 37.6847 16.6949C37.5933 16.7041 37.5009 16.6944 37.4132 16.6664C37.235 16.6043 37.0874 16.4738 37.0019 16.3025C36.9163 16.1313 36.8995 15.9327 36.955 15.749Z" fill="#F28F8F"/>
</g>
</g>
<path d="M41.5104 10.0546L40.3604 9.23382C40.4085 9.15433 40.4721 9.08575 40.5472 9.03229C40.6224 8.97883 40.7074 8.94162 40.7971 8.92296C40.8869 8.90431 40.9794 8.90459 41.069 8.9238C41.1586 8.94301 41.2434 8.98073 41.3182 9.03465C41.471 9.14812 41.5758 9.31657 41.6115 9.50594C41.6472 9.69531 41.611 9.89144 41.5104 10.0546Z" fill="#263238"/>
<path d="M41.2388 11.4192C41.2399 11.5337 41.2079 11.646 41.1468 11.742C41.0856 11.8381 40.9981 11.9136 40.8952 11.9592C40.7922 12.0047 40.6784 12.0183 40.568 11.9982C40.4575 11.978 40.3553 11.9251 40.2742 11.846C40.193 11.7669 40.1365 11.6651 40.1117 11.5534C40.087 11.4417 40.095 11.3251 40.1348 11.218C40.1747 11.1109 40.2446 11.0182 40.3358 10.9515C40.427 10.8847 40.5354 10.8469 40.6475 10.8428C40.7998 10.8426 40.9463 10.9025 41.0565 11.0098C41.1666 11.1172 41.232 11.2638 41.2388 11.4192Z" fill="#263238"/>
<g style="mix-blend-mode:multiply" opacity="0.5">
<g style="mix-blend-mode:multiply" opacity="0.5">
<path d="M38.5488 11.0752L38.6257 14.5818L40.435 14.0175L38.5488 11.0752Z" fill="#F28F8F"/>
</g>
</g>
<g style="mix-blend-mode:multiply" opacity="0.5">
<g style="mix-blend-mode:multiply" opacity="0.5">
<path d="M36.0025 18.9784C34.542 18.7792 31.5442 17.886 31.083 16.6729C31.2688 17.2859 31.634 17.8261 32.1296 18.2209C33.0224 19.0116 35.9966 19.9169 35.9966 19.9169L36.0025 18.9784Z" fill="#F28F8F"/>
</g>
</g>
<path d="M26.0718 21.7881C23.21 21.9963 22.0304 22.3675 20.4369 25.9767C19.003 29.2207 15.5736 37.6159 14.7162 39.4869C13.8589 41.3579 13.6963 42.1093 14.4206 44.0678C15.0119 45.6642 19.8427 54.835 20.3719 56.1718C20.9011 57.5087 21.1346 58.8606 22.0363 60.4177C22.938 61.9749 24.363 63.4958 25.4894 63.8549C27.1598 64.389 29.3328 63.6467 29.3949 62.6176C29.4569 61.5886 26.944 59.8715 26.2611 57.5871C26.7155 57.8919 27.1942 58.1574 27.692 58.3808C28.369 58.6644 29.1258 58.6011 29.3505 58.2088C29.5752 57.8165 28.8982 57.5781 28.2951 56.9655C27.9344 56.6003 27.2958 55.7795 26.4798 55.0553C25.927 54.5664 25.0223 54.4215 24.6143 53.8844C24.3955 53.5977 23.4022 51.1141 22.6542 48.9022C21.7318 46.1591 20.5167 42.5076 20.5167 42.5076L25.4894 31.9457C25.4894 31.9457 29.3889 27.9744 26.0718 21.7881Z" fill="#FFEDE5"/>
<path d="M20.3634 56.1717C20.3634 56.1717 21.5075 53.8089 24.6058 53.8843L23.7869 52.0254C23.7869 52.0254 20.7625 52.2427 19.4883 54.3339L20.3634 56.1717Z" fill="#37474F"/>
<path d="M20.0289 54.1648L20.6941 55.1274C20.7423 55.1974 20.8037 55.2568 20.8749 55.302C20.946 55.3472 21.0253 55.3773 21.1081 55.3906C21.1908 55.4038 21.2754 55.3999 21.3566 55.3791C21.4379 55.3582 21.5142 55.3209 21.581 55.2693L22.7636 54.364C22.9011 54.2565 22.9932 54.0996 23.0212 53.9252C23.0492 53.7508 23.011 53.5721 22.9144 53.4255L22.2965 52.496C22.25 52.4243 22.1897 52.363 22.1192 52.3158C22.0488 52.2686 21.9697 52.2365 21.8867 52.2216C21.8037 52.2066 21.7186 52.209 21.6366 52.2287C21.5546 52.2484 21.4773 52.2849 21.4096 52.3361L20.156 53.2414C20.0195 53.3469 19.9295 53.5032 19.9057 53.6763C19.8819 53.8494 19.9262 54.025 20.0289 54.1648V54.1648Z" fill="#263238"/>
<path d="M19.808 54.1411L20.4791 55.1037C20.5275 55.1734 20.5891 55.2324 20.6603 55.2774C20.7314 55.3223 20.8106 55.3523 20.8933 55.3655C20.9759 55.3788 21.0604 55.375 21.1416 55.3543C21.2228 55.3337 21.2991 55.2967 21.3661 55.2455L22.5486 54.3402C22.686 54.2328 22.7782 54.0761 22.8068 53.9019C22.8353 53.7277 22.798 53.5489 22.7024 53.4017L22.0845 52.4723C22.0377 52.4009 21.9773 52.3399 21.9068 52.2929C21.8363 52.246 21.7573 52.2141 21.6744 52.1992C21.5916 52.1842 21.5066 52.1865 21.4247 52.206C21.3427 52.2254 21.2654 52.2616 21.1975 52.3123L19.944 53.2327C19.8097 53.3361 19.7203 53.4889 19.6949 53.6586C19.6695 53.8284 19.7101 54.0015 19.808 54.1411Z" fill="#455A64"/>
<path d="M22.5802 53.8238C22.5653 53.9432 22.5047 54.0516 22.4117 54.1256L21.2292 55.0309C21.1881 55.0644 21.1404 55.0884 21.0894 55.1014C21.0384 55.1145 20.9852 55.1161 20.9335 55.1063C20.8828 55.0983 20.8342 55.0801 20.7906 55.0526C20.7469 55.0251 20.7091 54.989 20.6793 54.9464L20.0052 53.9807C19.9483 53.9005 19.923 53.8014 19.9343 53.7031C19.9383 53.6434 19.9552 53.5854 19.9838 53.5332C20.0125 53.4811 20.0521 53.436 20.0998 53.4013L21.3533 52.496C21.3953 52.4643 21.4432 52.4417 21.494 52.4297C21.5449 52.4178 21.5977 52.4167 21.649 52.4266C21.6996 52.4357 21.7479 52.4551 21.7911 52.4836C21.8343 52.5121 21.8714 52.5492 21.9003 52.5926L22.5182 53.522C22.5762 53.6108 22.6013 53.7178 22.5891 53.8238H22.5802Z" fill="#455A64"/>
</g>
<defs>
<clipPath id="clip0_1277_3129">
<rect width="73" height="90" fill="white"/>
</clipPath>
</defs>
</svg>
