<svg width="52" height="100" viewBox="0 0 52 100" fill="none" xmlns="http://www.w3.org/2000/svg">
<path d="M49.2459 8.80626C49.4605 8.80626 49.6664 8.72136 49.8181 8.57022C49.9699 8.41909 50.0552 8.2141 50.0552 8.00036V4.74047C50.0552 4.63464 50.0343 4.52984 49.9936 4.43207C49.9529 4.33429 49.8933 4.24545 49.8181 4.17061C49.743 4.09578 49.6538 4.03642 49.5556 3.99592C49.4574 3.95542 49.3521 3.93457 49.2459 3.93457C49.1396 3.93457 49.0343 3.95542 48.9361 3.99592C48.8379 4.03642 48.7487 4.09578 48.6736 4.17061C48.5984 4.24545 48.5388 4.33429 48.4981 4.43207C48.4575 4.52984 48.4365 4.63464 48.4365 4.74047V8.00036C48.4365 8.2141 48.5218 8.41909 48.6736 8.57022C48.8254 8.72136 49.0312 8.80626 49.2459 8.80626Z" fill="#3B2645"/>
<path d="M47.6257 11.6536C47.8391 11.6537 48.0439 11.5697 48.1955 11.4202C48.347 11.2706 48.4332 11.0675 48.4351 10.855V1.89574C48.4351 1.682 48.3498 1.47702 48.198 1.32589C48.0462 1.17475 47.8404 1.08984 47.6257 1.08984C47.4111 1.08984 47.2052 1.17475 47.0535 1.32589C46.9017 1.47702 46.8164 1.682 46.8164 1.89574V10.855C46.8183 11.0675 46.9044 11.2706 47.056 11.4202C47.2076 11.5697 47.4123 11.6537 47.6257 11.6536Z" fill="#291B30"/>
<path d="M41.8514 9.46644C41.8514 9.46644 41.8514 9.75686 41.8077 10.2506C41.6691 12.3633 41.1952 18.3095 40.1088 21.6929C39.8025 22.6367 38.8474 24.8656 37.7245 27.3922C36.0767 31.1821 34.0643 35.5384 33.2987 37.4624C33.0508 38.0867 30.6447 36.9033 30.003 36.7871C28.3844 36.4749 28.1875 33.5998 28.7125 31.1821C28.8824 30.3358 29.1929 29.5236 29.6312 28.779L29.7697 28.5684L29.8645 28.4305C30.754 27.1381 32.205 25.4683 33.5102 23.9508C34.4759 22.9017 35.3333 21.7585 36.0694 20.5385C36.7985 18.992 39.139 9.73508 39.139 9.73508C40.24 8.54438 41.8514 9.46644 41.8514 9.46644Z" fill="#FFEDE5"/>
<path d="M42.1571 8.46616C42.0769 8.81466 42.0112 9.14863 41.9602 9.41727C41.8654 9.91097 41.8217 10.2377 41.8217 10.2377C41.0051 11.0871 39.4155 10.2377 39.4155 10.2377C39.3073 10.0925 39.2098 9.93961 39.1239 9.78028C38.6858 9.03057 38.5114 8.1568 38.6281 7.29725C38.7447 6.63655 38.8614 5.11914 38.8614 5.11914H39.1531C39.4593 5.11914 39.5541 6.06299 39.576 6.50587C39.5816 6.56624 39.5816 6.62701 39.576 6.68738C39.5927 6.60923 39.625 6.53519 39.6707 6.46957C39.7678 6.35251 39.8926 6.26136 40.0339 6.20433C40.1752 6.14729 40.3285 6.12616 40.4801 6.14285C40.8519 6.14285 41.2092 6.14285 41.5884 6.14285C41.7592 6.13922 41.9287 6.17396 42.0842 6.24449C42.1397 6.26728 42.1895 6.30199 42.23 6.34614C42.7185 6.83984 42.2883 7.95068 42.1571 8.46616Z" fill="#FFEDE5"/>
<path d="M42.1568 8.46538C42.0766 8.81388 42.011 9.14786 41.9599 9.41649C41.9027 9.32982 41.8394 9.24732 41.7704 9.16964C41.4486 8.85871 41.0699 8.61223 40.6548 8.4436C40.1882 8.19675 38.9049 7.47072 39.2986 6.73742C39.3654 6.63739 39.4625 6.56111 39.5757 6.51961L39.6851 6.48331C40.2885 6.39276 40.8976 6.34424 41.5079 6.3381C41.7047 6.3381 41.9016 6.27276 42.0985 6.25098C42.153 6.27553 42.2025 6.31001 42.2443 6.35262C42.7182 6.83906 42.2881 7.9499 42.1568 8.46538Z" fill="#E0855C"/>
<path d="M31.0235 22.144C31.2627 20.7789 31.599 19.4323 32.0297 18.1145C32.083 17.9726 32.0989 17.8194 32.0758 17.6696C32.0528 17.5198 31.9915 17.3784 31.8978 17.259C31.8042 17.1395 31.6813 17.046 31.541 16.9873C31.4007 16.9286 31.2476 16.9068 31.0964 16.9238C30.7847 16.9782 30.481 17.0708 30.1922 17.1997C30.1922 17.1997 30.9214 15.1088 29.8933 14.419C28.8652 13.7293 27.3413 15.0507 26.7507 16.0381C26.8651 15.8269 26.8971 15.5812 26.8405 15.348C26.784 15.1149 26.643 14.9107 26.4445 14.7748C25.7154 14.3101 22.4562 17.8895 23.0978 20.8299C23.7394 23.7703 24.0092 22.9427 24.0092 22.9427C24.0092 22.9427 30.8193 22.5216 31.0235 22.144Z" fill="#3B2645"/>
<path d="M23.8276 21.6731C23.7553 21.5741 23.6604 21.4935 23.5508 21.438C23.4412 21.3825 23.3199 21.3535 23.1969 21.3535C23.074 21.3535 22.9527 21.3825 22.8431 21.438C22.7335 21.4935 22.6386 21.5741 22.5662 21.6731C21.9319 22.3991 23.011 23.8512 23.8276 23.9383C23.8756 23.184 23.8756 22.4274 23.8276 21.6731V21.6731Z" fill="#E0855C"/>
<path d="M35.5877 30.4579C34.6199 32.7345 33.8538 35.091 33.2982 37.5005C33.2544 37.7328 33.2107 37.9506 33.1742 38.1612C32.9336 39.6132 32.2045 46.7719 32.0878 47.8973C32.0878 47.9917 32.0878 48.0425 32.0878 48.0425C26.3787 49.6107 20.4218 48.0425 20.4218 48.0425C20.4218 48.0425 20.4218 47.9336 20.4218 47.723C20.2905 46.3291 19.7291 40.5426 19.3937 35.5402C19.2187 32.9845 19.1093 30.6394 19.1385 29.1801C19.1385 28.6429 20.3926 28.7009 21.253 28.5775C22.2857 28.4455 23.3252 28.3728 24.3663 28.3597H24.6872L24.7601 27.5248L24.8184 26.9657L24.9569 25.4701C25.0517 25.4701 25.1465 25.5064 25.2413 25.5136C25.4243 25.547 25.6095 25.5665 25.7954 25.5717C26.0211 25.5901 26.2479 25.5901 26.4735 25.5717L26.7944 25.5354C26.9364 25.5213 27.0776 25.4995 27.2172 25.4701C27.4506 25.4193 27.6766 25.3539 27.888 25.2886L28.0776 25.2232H28.1287L28.2745 25.1651C28.5465 25.0573 28.8098 24.9286 29.0619 24.7803C29.2005 24.7005 29.3171 24.6206 29.4119 24.5553L29.4776 24.5117L29.6015 24.4173C29.6361 24.4004 29.6661 24.3756 29.689 24.3447C29.689 24.4536 29.689 24.4972 29.689 24.548C29.6234 25.0199 29.5578 25.6298 29.5286 26.2397C29.5286 26.6535 29.4848 27.0674 29.4703 27.4304C29.4703 28.0475 29.4703 28.4976 29.4703 28.4976C29.6063 28.4904 29.7426 28.4904 29.8786 28.4976C29.8852 28.4938 29.8928 28.4918 29.9004 28.4918C29.9081 28.4918 29.9157 28.4938 29.9223 28.4976C30.5169 28.5253 31.1088 28.5932 31.6941 28.7009C33.0381 28.9415 34.3305 29.4105 35.5148 30.0877C35.568 30.1315 35.6044 30.1923 35.6177 30.2598C35.6309 30.3273 35.6204 30.3973 35.5877 30.4579V30.4579Z" fill="#FFEDE5"/>
<path d="M29.6753 24.2783C29.5782 24.7986 29.366 25.2908 29.0541 25.7192C28.7422 26.1477 28.3385 26.5016 27.8721 26.7553C27.4058 27.009 26.8886 27.1562 26.358 27.1861C25.8274 27.2161 25.2968 27.128 24.8047 26.9283L24.9432 25.4327C25.7689 25.5913 26.6193 25.5703 27.4361 25.371C28.2529 25.1718 29.0167 24.799 29.6753 24.2783Z" fill="#E0855C"/>
<path d="M24.0085 19.4943C23.5856 19.9227 23.5564 20.9029 23.52 21.9774C23.4106 25.2373 24.3949 26.261 26.0646 26.4352C27.7343 26.6095 29.4915 25.9778 29.8488 22.9503C30.0311 21.4401 30.2207 20.0461 29.6738 19.3854C28.8135 18.4126 25.2553 18.1584 24.0085 19.4943Z" fill="#FFEDE5"/>
<path d="M29.5798 22.5143C29.5798 22.5143 30.0974 21.1638 30.8995 21.8826C31.7015 22.6014 30.5714 24.6488 29.361 24.4891C29.361 24.4891 29.186 22.9789 29.5798 22.5143Z" fill="#FFEDE5"/>
<path d="M30.5279 22.471C30.3392 22.5361 30.1691 22.6457 30.0321 22.7904C29.8833 22.9175 29.7618 23.073 29.6748 23.2478C29.6748 23.3059 29.7258 23.335 29.7696 23.3059C29.8133 23.2769 29.9519 23.0881 30.054 22.9865C30.116 23.0665 30.1959 23.1311 30.2873 23.1752C30.3041 23.1779 30.3213 23.1761 30.3371 23.1699C30.3529 23.1637 30.3668 23.1534 30.3772 23.14C30.3876 23.1266 30.3943 23.1107 30.3964 23.0939C30.3985 23.0771 30.3961 23.0601 30.3894 23.0446C30.3386 22.9698 30.2712 22.9077 30.1925 22.863C30.3287 22.7738 30.4579 22.6743 30.5789 22.5654C30.5862 22.5565 30.5906 22.5456 30.5917 22.5342C30.5928 22.5228 30.5904 22.5113 30.585 22.5012C30.5795 22.4912 30.5712 22.4829 30.561 22.4775C30.5509 22.4721 30.5393 22.4699 30.5279 22.471Z" fill="#E0855C"/>
<path d="M24.921 21.8979C24.921 21.8979 24.6366 22.0068 24.6804 21.5058C24.7241 21.0049 24.921 21.121 24.921 21.121C24.921 21.121 25.1178 21.121 25.0887 21.5131C25.0595 21.9052 24.921 21.8979 24.921 21.8979Z" fill="#3B2645"/>
<path d="M27.794 21.8979C27.794 21.8979 27.5097 22.0068 27.5534 21.5058C27.5972 21.0049 27.794 21.121 27.794 21.121C27.794 21.121 27.9909 21.121 27.9617 21.5131C27.9325 21.9052 27.794 21.8979 27.794 21.8979Z" fill="#3B2645"/>
<path d="M26.1974 23.2333C26.0589 23.2333 25.7308 23.2913 25.6579 23.1389C25.6862 22.7927 25.7572 22.4513 25.8693 22.1224C26.0041 21.6788 26.1136 21.2279 26.1974 20.772C26.1974 20.772 26.1974 20.7357 26.1464 20.772C25.8582 21.5618 25.6315 22.3725 25.4683 23.1969C25.4662 23.207 25.4663 23.2175 25.4685 23.2275C25.4708 23.2376 25.4752 23.247 25.4814 23.2553C25.4876 23.2635 25.4955 23.2703 25.5045 23.2753C25.5136 23.2803 25.5236 23.2833 25.5339 23.2841C25.7454 23.2841 25.9495 23.3276 26.161 23.3276C26.2631 23.3567 26.2849 23.2405 26.1974 23.2333Z" fill="#E0855C"/>
<path d="M25.234 20.3865C25.0299 20.2776 24.6507 20.2558 24.5049 20.4664C24.4997 20.4753 24.497 20.4853 24.4971 20.4956C24.4971 20.5058 24.4998 20.5159 24.505 20.5247C24.5102 20.5336 24.5176 20.5409 24.5266 20.5459C24.5355 20.551 24.5456 20.5536 24.5559 20.5535C24.658 20.5535 24.7455 20.5027 24.8476 20.4954C24.9545 20.4904 25.0613 20.5077 25.1611 20.5463C25.2559 20.5753 25.3215 20.4301 25.234 20.3865Z" fill="#3B2645"/>
<path d="M28.2171 20.6334C28.1004 20.3429 27.5973 20.3139 27.3859 20.4954C27.3735 20.5014 27.3631 20.5106 27.3559 20.5222C27.3486 20.5337 27.3447 20.5471 27.3447 20.5608C27.3447 20.5744 27.3486 20.5878 27.3559 20.5993C27.3631 20.6109 27.3735 20.6201 27.3859 20.6261C27.5098 20.6697 27.6411 20.6261 27.7723 20.6261C27.8783 20.6431 27.9814 20.6749 28.0785 20.7205C28.1733 20.7495 28.2389 20.6842 28.2171 20.6334Z" fill="#3B2645"/>
<path d="M25.4678 24.2423C26.0939 24.3242 26.7302 24.2126 27.2906 23.9229C27.2067 24.1159 27.0837 24.2896 26.9295 24.4333C26.7752 24.5769 26.5928 24.6874 26.3938 24.7578C25.7594 24.9466 25.4678 24.2423 25.4678 24.2423Z" fill="white"/>
<path d="M24.2937 36.7872C23.6666 36.9033 20.7866 37.2228 20.2762 36.7872C19.9099 36.4232 19.6068 36.0012 19.3793 35.5384C18.2114 33.089 17.1913 30.5725 16.3243 28.0021C15.3473 25.2577 14.516 22.7021 14.2025 21.7292C13.0724 18.3096 12.6349 12.3561 12.4964 10.2433C12.4599 9.74962 12.4453 9.46646 12.4453 9.46646C12.4453 9.46646 14.0421 8.56618 15.1796 9.74962C15.1796 9.74962 17.5565 19.0138 18.2565 20.5603C18.8443 21.568 19.5358 22.5121 20.3199 23.3773C21.6688 24.9891 23.3312 26.8768 24.352 28.3216L24.5416 28.5902L24.6801 28.8008C25.3229 29.9615 25.7059 31.2469 25.803 32.5689C25.9926 34.5727 25.6207 36.533 24.2937 36.7872Z" fill="#FFEDE5"/>
<path d="M15.1804 9.75056C15.0945 9.90989 14.997 10.0628 14.8888 10.208C14.8888 10.208 13.3066 11.0792 12.4972 10.2443C12.4972 10.2443 12.4608 10.0192 12.3951 9.6707C12.3295 9.3222 12.2566 8.94466 12.1472 8.46548C12.0597 8.11698 11.491 6.73026 11.7827 6.48341C11.8524 6.43639 11.9324 6.40653 12.016 6.39628L12.993 6.22203C13.5545 6.12039 14.495 5.96792 14.7211 6.67217C14.7211 6.2656 14.7211 5.30723 15.144 5.09668H15.4502C15.4502 5.09668 15.5596 6.58505 15.6762 7.27478C15.7913 8.13196 15.6169 9.0029 15.1804 9.75056V9.75056Z" fill="#FFEDE5"/>
<path d="M19.3056 49.3338C19.3056 49.3338 16.287 57.4436 16.1631 72.7848C16.1631 74.0045 13.7788 82.4483 14.7048 94.2463L18.2557 94.9143C18.2557 94.9143 21.6972 82.4555 21.8503 73.9537C21.8503 73.9537 26.2251 58.8667 26.524 51.9258C26.823 44.9849 22.1857 42.7342 19.3056 49.3338Z" fill="#FFEDE5"/>
<path d="M18.7526 98.4726C18.7562 98.5088 18.7562 98.5453 18.7526 98.5815C18.6359 100.215 17.2943 99.961 15.3111 99.99C13.7289 99.99 12.8831 99.1115 12.9779 98.1604C13.0115 97.8729 13.1168 97.5984 13.2841 97.3618C13.8116 96.5275 14.1754 95.6012 14.3559 94.6319C16.31 92.2941 18.3005 94.9005 18.3005 94.9005C18.5969 96.0684 18.7487 97.268 18.7526 98.4726Z" fill="#3B2645"/>
<path d="M33.0656 49.3338C33.0656 49.3338 36.0842 57.4436 36.2009 72.7848C36.2009 74.0045 38.5924 82.4483 37.6591 94.2463L34.1083 94.9143C34.1083 94.9143 30.6741 82.4555 30.5136 73.9537C30.5136 73.9537 26.1389 58.8667 25.8399 51.9258C25.541 44.9849 30.1855 42.7342 33.0656 49.3338Z" fill="#FFEDE5"/>
<path d="M37.0752 99.99C35.0409 99.99 33.6556 100.222 33.6191 98.4726V98.3202C33.6209 97.1651 33.7754 96.0154 34.0785 94.9005C34.0785 94.9005 36.0763 92.2941 38.0231 94.6319C38.2042 95.6022 38.5705 96.5289 39.1022 97.3618C39.1975 97.4984 39.2735 97.6475 39.3282 97.8047C39.7001 98.8792 38.8543 100.019 37.0752 99.99Z" fill="#3B2645"/>
<path d="M37.7233 27.3939C36.0755 31.1838 34.0703 35.54 33.2975 37.464C33.2537 37.6963 33.21 37.9141 33.1735 38.1247C32.9329 39.5767 32.2038 46.7354 32.0871 47.8608C30.1112 48.4634 26.0937 49.1749 20.421 47.6866C20.2898 46.2926 19.7283 40.5061 19.3929 35.5037C18.225 33.0543 17.2049 30.5378 16.3379 27.9674C17.7014 27.1107 19.6117 25.5788 20.3335 23.3789C21.6824 24.9907 23.3448 26.8784 24.3656 28.3232H24.5114C24.5114 28.4031 24.5114 28.4975 24.5552 28.5918C24.7372 29.9816 25.1642 31.3285 25.8166 32.5705C25.911 32.7437 26.0444 32.8928 26.2063 33.0062C26.3682 33.1195 26.5542 33.1941 26.7499 33.2239C27.479 33.2239 28.1717 32.3091 28.7258 31.2056C29.1413 30.361 29.4947 29.4874 29.7831 28.5918L29.8341 28.4539C29.8407 28.4501 29.8483 28.4481 29.856 28.4481C29.8636 28.4481 29.8712 28.4501 29.8778 28.4539C30.7674 27.1615 32.2184 25.4917 33.5235 23.9743C34.2162 24.9617 35.8786 26.9365 37.7233 27.3939Z" fill="#AB8DA8"/>
<path d="M36.3606 65.8652C34.4454 66.8585 32.2845 67.2843 30.1338 67.0922C29.3761 67.028 28.6356 66.8314 27.9464 66.5114L26.1965 56.7825L24.4976 66.5114C20.8082 67.84 15.748 65.4151 15.748 65.4151C17.3594 49.6819 20.3634 47.3223 20.3634 47.3223C25.3142 48.9268 32.1316 47.3731 32.1316 47.3731C35.6241 52.0415 36.3606 65.8652 36.3606 65.8652Z" fill="#3B2645"/>
<path d="M12.4599 9.63394H12.3943C12.336 9.32174 12.2558 8.9079 12.1464 8.42872C12.0589 8.08022 11.4975 6.70076 11.7818 6.44665C11.8522 6.40079 11.9319 6.37103 12.0152 6.35952L12.9922 6.18527C13.406 6.08017 13.8397 6.08017 14.2536 6.18527C14.4502 6.27626 14.615 6.42376 14.7268 6.60878C14.8385 6.79381 14.8921 7.0079 14.8806 7.2235C14.8806 8.53037 12.8026 9.45243 12.4599 9.63394Z" fill="#E0855C"/>
<path d="M51.5779 6.84564H0.422103C0.305603 6.83128 0.198391 6.77501 0.12065 6.68742C0.0429091 6.59984 0 6.48698 0 6.37008C0 6.25319 0.0429091 6.14033 0.12065 6.05275C0.198391 5.96516 0.305603 5.90889 0.422103 5.89453H51.5779C51.6944 5.90889 51.8016 5.96516 51.8793 6.05275C51.9571 6.14033 52 6.25319 52 6.37008C52 6.48698 51.9571 6.59984 51.8793 6.68742C51.8016 6.77501 51.6944 6.83128 51.5779 6.84564V6.84564Z" fill="#3B2645"/>
<path d="M2.04807 8.80669C1.83275 8.8067 1.62613 8.72202 1.47319 8.57109C1.32025 8.42016 1.23337 8.21519 1.23145 8.00079V4.74089C1.23145 4.52523 1.31748 4.3184 1.47063 4.1659C1.62378 4.01341 1.83149 3.92773 2.04807 3.92773C2.26465 3.92773 2.47237 4.01341 2.62551 4.1659C2.77866 4.3184 2.8647 4.52523 2.8647 4.74089V8.00079C2.8647 8.10724 2.84353 8.21263 2.8024 8.31088C2.76127 8.40913 2.701 8.4983 2.62508 8.57323C2.54915 8.64816 2.45907 8.70737 2.36003 8.74744C2.26099 8.78751 2.15497 8.80765 2.04807 8.80669V8.80669Z" fill="#3B2645"/>
<path d="M3.66728 11.6537C3.45456 11.6537 3.25056 11.5695 3.10015 11.4197C2.94974 11.27 2.86523 11.0668 2.86523 10.855V1.89574C2.86523 1.682 2.9505 1.47702 3.10228 1.32589C3.25406 1.17475 3.45992 1.08984 3.67457 1.08984C3.88922 1.08984 4.09508 1.17475 4.24686 1.32589C4.39863 1.47702 4.4839 1.682 4.4839 1.89574V10.855C4.48295 10.9608 4.46107 11.0655 4.41952 11.1629C4.37796 11.2603 4.31754 11.3486 4.24171 11.4228C4.16588 11.4969 4.07612 11.5555 3.97756 11.5951C3.879 11.6347 3.77356 11.6546 3.66728 11.6537Z" fill="#291B30"/>
<path d="M5.28492 13.0323C5.07027 13.0323 4.86441 12.9474 4.71263 12.7963C4.56085 12.6451 4.47559 12.4402 4.47559 12.2264V0.805899C4.47559 0.592161 4.56085 0.387178 4.71263 0.236042C4.86441 0.0849069 5.07027 0 5.28492 0C5.49957 0 5.70543 0.0849069 5.85721 0.236042C6.00899 0.387178 6.09426 0.592161 6.09426 0.805899V12.2046C6.09718 12.3123 6.0784 12.4194 6.03904 12.5197C5.99968 12.62 5.94053 12.7115 5.86508 12.7886C5.78963 12.8658 5.69942 12.9271 5.59978 12.969C5.50013 13.0108 5.39307 13.0324 5.28492 13.0323V13.0323Z" fill="#3B2645"/>
<path d="M46.0079 13.0323C46.2225 13.0323 46.4284 12.9474 46.5802 12.7963C46.7319 12.6451 46.8172 12.4402 46.8172 12.2264V0.805899C46.8172 0.592161 46.7319 0.387178 46.5802 0.236042C46.4284 0.0849069 46.2225 0 46.0079 0C45.7932 0 45.5874 0.0849069 45.4356 0.236042C45.2838 0.387178 45.1985 0.592161 45.1985 0.805899V12.2046C45.1956 12.3123 45.2144 12.4194 45.2537 12.5197C45.2931 12.62 45.3523 12.7115 45.4277 12.7886C45.5032 12.8658 45.5934 12.9271 45.693 12.969C45.7927 13.0108 45.8997 13.0324 46.0079 13.0323Z" fill="#3B2645"/>
<path d="M12.4748 7.39934C12.5038 7.47129 12.5486 7.53581 12.6061 7.58811C12.6929 7.64523 12.7937 7.67785 12.8977 7.68249C13.2217 7.7129 13.5484 7.69578 13.8675 7.63167C14.1635 7.59241 14.4354 7.44803 14.633 7.22509C14.7361 7.07843 14.799 6.90759 14.8156 6.72937C14.8323 6.55114 14.802 6.37168 14.7278 6.20864C14.6181 5.95198 14.4484 5.72515 14.2328 5.54707C14.0171 5.369 13.7619 5.24483 13.4883 5.18493C13.0362 5.08329 11.8915 5.12685 11.7092 5.6859C11.6144 5.96179 11.8842 6.23768 12.0155 6.45549C12.1467 6.6733 12.3436 7.0944 12.4748 7.39934Z" fill="#FFEDE5"/>
<path d="M41.5089 7.39934C41.48 7.47315 41.4322 7.5382 41.3704 7.58811C41.284 7.64626 41.1829 7.67898 41.0787 7.68249C40.7572 7.71271 40.4329 7.69559 40.1163 7.63167C39.8108 7.59595 39.5286 7.45157 39.3215 7.22509C39.2183 7.07837 39.1558 6.90709 39.1404 6.72859C39.1251 6.55009 39.1574 6.37072 39.234 6.20864C39.343 5.95283 39.5117 5.72656 39.7259 5.54854C39.9402 5.37052 40.194 5.24588 40.4663 5.18493C40.9256 5.08329 42.0704 5.12685 42.2526 5.6859C42.3474 5.96179 42.0776 6.23768 41.9464 6.45549C41.8152 6.6733 41.6693 7.0944 41.5089 7.39934Z" fill="#FFEDE5"/>
<path d="M30.1346 67.0929C29.3768 67.0287 28.6364 66.8321 27.9472 66.5121L26.1973 56.7832C26.1973 56.7832 28.3847 59.8979 30.1346 67.0929Z" fill="#291B30"/>
<path d="M18.738 98.5803C18.6213 100.214 17.2797 99.9597 15.2965 99.9888C13.7142 99.9888 12.8685 99.1103 12.9632 98.1592C13.3378 98.5155 13.8008 98.7661 14.3048 98.8852C14.9023 99.0038 15.5138 99.0356 16.1204 98.9796C17.0021 98.9149 17.8773 98.7814 18.738 98.5803V98.5803Z" fill="#291B30"/>
<path d="M37.0752 99.9891C35.0409 99.9891 33.6556 100.221 33.6191 98.4717V98.3192C34.1744 98.723 34.8231 98.9806 35.505 99.0682C36.1869 99.1558 36.88 99.0705 37.52 98.8202C38.1595 98.5507 38.7661 98.2096 39.3282 97.8037C39.7001 98.8782 38.8543 100.018 37.0752 99.9891Z" fill="#291B30"/>
<path d="M17.6874 95.8003C17.1333 95.125 15.799 95.1686 15.099 95.5461C15.0579 95.5748 15.028 95.6166 15.0143 95.6646C15.0005 95.7126 15.0037 95.7639 15.0234 95.8098C15.043 95.8557 15.0779 95.8935 15.1222 95.9169C15.1665 95.9403 15.2175 95.9478 15.2667 95.9382C15.6322 95.826 16.0153 95.7817 16.3968 95.8075C16.7648 95.8998 17.1254 96.0187 17.476 96.1633C17.5222 96.1752 17.5711 96.1718 17.6152 96.1534C17.6593 96.1351 17.6962 96.1029 17.7201 96.0617C17.7441 96.0206 17.7539 95.9727 17.748 95.9255C17.7421 95.8783 17.7208 95.8343 17.6874 95.8003V95.8003Z" fill="#AB8DA8"/>
<path d="M17.3658 96.5767C16.9357 96.4462 16.4885 96.3801 16.0388 96.3807C15.6396 96.3327 15.2347 96.3903 14.8649 96.5477C14.8415 96.5578 14.8216 96.5746 14.8076 96.5958C14.7936 96.6171 14.7861 96.642 14.7861 96.6675C14.7861 96.6929 14.7936 96.7178 14.8076 96.7391C14.8216 96.7603 14.8415 96.7771 14.8649 96.7872C15.2425 96.855 15.6265 96.8794 16.0097 96.8599C16.4398 96.8599 16.8482 96.9833 17.2783 97.0123C17.57 97.0414 17.5846 96.6566 17.3658 96.5767Z" fill="#AB8DA8"/>
<path d="M37.4541 95.589C37.177 94.754 35.5438 95.1896 34.9678 95.3712C34.7345 95.4365 34.7636 95.8213 35.0261 95.8068C35.4271 95.8068 35.8209 95.6688 36.2219 95.6398C36.4327 95.6223 36.645 95.642 36.8489 95.6979C36.9794 95.7688 37.1236 95.8108 37.2718 95.8213C37.3003 95.821 37.3283 95.8143 37.3537 95.8017C37.3792 95.7892 37.4015 95.7711 37.419 95.7488C37.4366 95.7264 37.4488 95.7005 37.4549 95.6728C37.4609 95.6452 37.4607 95.6165 37.4541 95.589V95.589Z" fill="#AB8DA8"/>
<path d="M37.2647 96.2873C36.8491 95.9098 35.9449 96.0332 35.4418 96.1349C35.1939 96.1857 34.5961 96.4326 34.9242 96.7665C34.942 96.7801 34.9637 96.7874 34.9861 96.7874C35.0085 96.7874 35.0303 96.7801 35.0481 96.7665C35.2523 96.5705 35.7772 96.6068 36.047 96.5995C36.4215 96.658 36.8028 96.658 37.1772 96.5995C37.2065 96.588 37.2328 96.5699 37.2539 96.5465C37.275 96.5232 37.2904 96.4953 37.2989 96.4651C37.3073 96.4348 37.3087 96.4031 37.3027 96.3722C37.2968 96.3414 37.2838 96.3123 37.2647 96.2873V96.2873Z" fill="#AB8DA8"/>
<path d="M23.8049 40.2441C23.8007 40.2829 23.8007 40.322 23.8049 40.3608C23.8049 40.3608 23.8705 40.3608 23.8559 40.3608L23.8049 40.2441Z" fill="#D6BED3"/>
</svg>
