<svg width="82" height="100" viewBox="0 0 82 100" fill="none" xmlns="http://www.w3.org/2000/svg">
<path d="M81.4331 79.5743C81.3615 80.9138 81.1161 83.6644 79.2654 83.6644H79.1734C78.9426 83.6434 78.7174 83.581 78.5087 83.4803C78.4125 83.4371 78.3202 83.3858 78.2326 83.3269C77.8003 82.9733 77.4648 82.5158 77.2573 81.9972C77.0499 81.4786 76.9774 80.9159 77.0465 80.3616C77.0573 80.0178 77.0229 79.674 76.9443 79.3391C76.9142 79.1797 76.8732 79.0225 76.8216 78.8688C76.8172 78.8382 76.8172 78.8073 76.8216 78.7767C76.7398 78.5927 76.6682 78.4495 76.5966 78.3166C76.555 78.2347 76.5071 78.1561 76.4535 78.0814C76.4605 78.0616 76.4605 78.0399 76.4535 78.0201C76.4252 77.9716 76.3909 77.9269 76.3512 77.8872C76.2421 77.7392 76.1188 77.6022 75.9831 77.4782C75.9831 77.4782 75.9831 77.4782 75.9831 77.4782L75.9218 77.4168C75.7684 77.2839 75.6252 77.151 75.4821 77.0385C74.9401 76.5783 74.4596 76.2614 74.5209 75.6785C74.6027 74.3084 75.5434 72.5394 76.842 72.928C76.842 72.928 77.1692 71.292 76.2694 70.883C75.6968 70.5966 76.2694 70.4433 76.6171 70.4126C77.2101 70.3615 77.8032 70.5966 78.4371 70.5455C78.4763 70.5094 78.5173 70.4753 78.5598 70.4433C78.8108 70.4075 79.0656 70.4075 79.3165 70.4433H79.3779C79.6499 70.5016 79.9037 70.6251 80.1174 70.8032C80.3312 70.9814 80.4984 71.2087 80.6049 71.4658C80.7817 71.986 80.8715 72.5319 80.8707 73.0814C80.973 75.3002 81.5558 77.335 81.4331 79.5743Z" fill="#3B2645"/>
<path d="M77.6186 76.5792C77.5368 76.7939 77.3629 76.886 77.1789 77.0087C76.9665 77.1578 76.7649 77.3219 76.5756 77.4995C76.4683 77.6115 76.3692 77.7311 76.2791 77.8574C76.1699 77.7094 76.0467 77.5724 75.911 77.4484C75.911 77.4484 75.911 77.4484 75.911 77.4484L75.8496 77.387C75.919 77.2905 75.9941 77.1983 76.0746 77.1109C76.3813 76.7735 76.9846 76.1498 77.4754 76.3031C77.5302 76.3219 77.5757 76.361 77.6024 76.4125C77.629 76.4639 77.6348 76.5236 77.6186 76.5792V76.5792Z" fill="#E8CEE5"/>
<path d="M78.089 77.7649C77.6882 78.1446 77.2535 78.4869 76.7904 78.7875C76.7086 78.6034 76.637 78.4602 76.5654 78.3273C76.9176 77.9057 77.4058 77.6201 77.9458 77.5195C77.9736 77.5219 78.0003 77.531 78.0238 77.5459C78.0474 77.5607 78.067 77.5811 78.081 77.6051C78.095 77.6292 78.1031 77.6562 78.1045 77.6841C78.1059 77.7119 78.1005 77.7396 78.089 77.7649Z" fill="#E8CEE5"/>
<path d="M81.4322 79.5744C81.3606 80.9139 81.1152 83.6645 79.2645 83.6645H79.1724C78.9417 83.6434 78.7165 83.5811 78.5078 83.4804C81.2379 82.4579 80.6346 78.8586 80.379 76.3228C80.3547 74.3267 80.0342 72.3453 79.4281 70.4434C79.6915 70.5075 79.9357 70.6338 80.1403 70.8117C80.3449 70.9896 80.5039 71.2139 80.604 71.4659C80.7808 71.9861 80.8706 72.532 80.8698 73.0814C80.9721 75.3003 81.5549 77.3351 81.4322 79.5744Z" fill="#E8CEE5"/>
<path d="M26.4114 25.2371C26.4114 25.2371 26.1353 26.4539 25.6752 28.3047C24.7276 32.2502 23.4764 36.1166 21.9328 39.8693C21.511 40.8669 20.9721 41.8108 20.3274 42.6812C17.4542 46.3213 5.89979 37.9879 4.42737 36.904C4.33028 36.8292 4.2124 36.7863 4.08994 36.7813C3.27193 36.7813 -0.00010704 36.6075 0.0714689 34.3477C0.13282 31.8835 1.83019 28.7852 5.54191 32.3027C7.83234 34.4602 15.9204 37.1392 15.9204 37.1392L18.5483 20.1041C18.5814 19.8944 18.6711 19.6976 18.8079 19.5352C18.9446 19.3727 19.1231 19.2507 19.3242 19.1823C19.5252 19.1139 19.7411 19.1017 19.9485 19.147C20.156 19.1923 20.3471 19.2934 20.5013 19.4395C21.943 20.779 24.1721 22.9365 26.4114 25.2371Z" fill="#FFEDE5"/>
<path d="M25.6643 28.2655C24.7221 32.2247 23.4743 36.1048 21.9322 39.871C21.881 34.963 21.7686 28.2042 21.7686 28.2042C22.3741 27.8975 23.0453 27.7428 23.724 27.7534C24.4028 27.7641 25.0687 27.9399 25.6643 28.2655V28.2655Z" fill="#E0855C"/>
<path d="M34.8781 55.1569C32.741 56.6702 30.3586 58.1324 27.9864 59.5742C26.8514 60.2593 25.7675 60.9443 24.745 61.6192C21.732 63.6202 18.8305 65.7844 16.0536 68.1019C17.25 69.5334 18.4974 72.8259 19.6222 76.5683C21.882 84.094 23.7122 93.4705 23.7122 93.4705C21.6672 95.3417 19.9392 94.493 19.9392 94.493C18.3338 91.4254 14.8777 84.7893 11.9636 78.6849C9.23347 73.01 6.98394 67.7236 7.20889 66.0467C7.43384 64.3698 11.8511 59.523 16.4115 54.8604C21.5241 49.7478 26.7593 44.8193 26.7593 44.8193C28.721 42.717 30.9444 40.875 33.375 39.3386C35.8188 37.8969 38.4876 37.0687 40.5326 38.4184C41.5749 39.1529 42.3586 40.1979 42.7719 41.4041C42.8473 41.5808 42.9122 41.7617 42.9662 41.9461C44.5306 46.9257 40.4815 51.2202 34.8781 55.1569Z" fill="#FFEDE5"/>
<path d="M76.2798 75.434C70.656 75.6998 64.8174 76.344 60.0832 76.7121C55.9931 77.0393 52.762 77.1825 51.2078 76.7121C48.1402 75.8328 43.2424 68.6547 39.9601 63.4195C38.0276 60.2906 36.637 57.8468 36.637 57.8468C36.637 57.8468 35.8292 56.8242 34.8476 55.1576C32.2606 50.8323 28.4875 42.5602 35.8701 40.3209C39.0399 39.3597 41.1872 40.0755 42.8948 41.9467C45.1852 44.4518 46.6883 49.0225 48.8253 54.4929L54.7048 69.1046C56.4358 68.7428 58.2028 68.5816 59.9707 68.624C65.5866 68.8416 71.1682 69.6018 76.6377 70.894C78.3964 73.0822 76.2798 75.434 76.2798 75.434Z" fill="#FFEDE5"/>
<path d="M24.2741 9.25629C26.4316 8.66324 28.5788 8.02928 30.7057 7.33397C31.9531 6.92496 33.3233 6.90451 33.7732 5.46277C33.9437 4.86598 33.9762 4.23821 33.8681 3.62701C33.76 3.01582 33.5143 2.43724 33.1495 1.9351C32.4392 1.04154 31.4424 0.420362 30.3273 0.176379C29.2183 -0.058793 28.0723 -0.058793 26.9633 0.176379C26.163 0.277552 25.3932 0.546642 24.7042 0.966024C24.0153 1.38541 23.4227 1.94562 22.9652 2.60996C22.4761 3.58647 22.2841 4.685 22.4131 5.76952C22.4993 6.72046 22.8227 7.63455 23.3538 8.42806C23.4254 8.54054 23.906 9.52215 24.1514 9.45057C24.2229 9.40967 24.2638 9.26652 24.2741 9.25629Z" fill="#3B2645"/>
<path d="M23.7017 7.54827C23.5734 7.43347 23.4199 7.35057 23.2535 7.30631C23.0871 7.26205 22.9126 7.25767 22.7442 7.29354C22.5759 7.32941 22.4183 7.40451 22.2844 7.51273C22.1505 7.62096 22.0441 7.75926 21.9737 7.91638C21.3295 9.14339 23.2314 10.8203 24.3664 10.6669C24.2107 9.61443 23.9887 8.57281 23.7017 7.54827V7.54827Z" fill="#E0855C"/>
<path d="M42.4135 16.1579C41.7789 19.5625 41.4198 23.0128 41.3399 26.4751C41.3399 26.8125 41.3399 27.109 41.3399 27.4056C41.4728 29.5426 42.5669 39.6144 42.7714 41.1993C42.7714 41.3322 42.7714 41.4038 42.7714 41.4038C35.8899 44.9826 27.9347 44.8292 26.9225 44.819H26.81C26.7735 44.6735 26.7291 44.5302 26.677 44.3895C26.0635 42.5388 23.6913 34.921 21.7792 28.2031C21.7792 28.1009 21.7179 28.0089 21.6872 27.8964C20.6647 24.4403 19.2229 21.7613 18.8344 19.7879C18.6912 19.0414 21.043 18.1825 22.1882 17.7428C22.3518 17.6713 22.5256 17.6201 22.7097 17.5588C23.6095 17.2418 24.54 16.9759 25.2864 16.7817L26.8304 16.4238L26.3498 12.3337H26.7589C27.016 12.3227 27.2721 12.2954 27.5257 12.2519C27.8402 12.2006 28.151 12.1289 28.4562 12.0372L28.8857 11.9043L29.4481 11.6691C29.7478 11.5432 30.0382 11.3963 30.3172 11.2294C30.3802 11.2022 30.4416 11.1714 30.5012 11.1374C30.5106 11.1428 30.5212 11.1456 30.5319 11.1456C30.5427 11.1456 30.5533 11.1428 30.5626 11.1374L30.7569 11.0147C31.1001 10.789 31.4218 10.5323 31.718 10.2478C31.8816 10.0944 32.0248 9.96151 32.1373 9.83881L32.2088 9.75701C32.2626 9.70806 32.3106 9.65318 32.352 9.5934C32.3915 9.5573 32.4259 9.51603 32.4542 9.4707V9.56273C32.4542 9.62408 32.4542 9.68543 32.4542 9.75701C32.4542 10.4319 32.5974 11.2805 32.7405 12.1292C32.8224 12.7121 32.9144 13.2847 33.0064 13.7857C33.17 14.6446 33.3029 15.2684 33.3029 15.2684C33.4883 15.2235 33.676 15.1894 33.8653 15.1661H33.9267H34.2334C34.955 15.0589 35.6822 14.994 36.4114 14.9718C36.7181 14.9718 37.0147 14.9718 37.301 14.9718C38.9195 14.9971 40.5253 15.2624 42.0659 15.7592C42.1592 15.7789 42.2437 15.8285 42.3064 15.9004C42.3691 15.9723 42.4067 16.0627 42.4135 16.1579Z" fill="#FFEDE5"/>
<path d="M32.5462 9.43066C32.5662 10.178 32.42 10.9205 32.1183 11.6045C31.8166 12.2885 31.3668 12.897 30.8014 13.3861C30.236 13.8752 29.5691 14.2327 28.8488 14.4328C28.1285 14.6329 27.3727 14.6706 26.636 14.5432L26.3906 12.4266C27.5722 12.4015 28.7342 12.1207 29.7969 11.6036C30.8595 11.0864 31.7974 10.3451 32.5462 9.43066Z" fill="#E0855C"/>
<path d="M23.2611 4.50102C22.8111 5.227 23.0566 6.54604 23.3224 8.06959C24.1404 12.5993 25.7764 13.7139 28.1282 13.4685C30.48 13.2231 32.6886 11.8324 32.2898 7.55833C32.0956 5.42128 31.9524 3.46828 31.0015 2.70139C29.5802 1.59708 24.6312 2.29239 23.2611 4.50102Z" fill="#FFEDE5"/>
<path d="M31.8513 7.04764C31.8513 7.04764 32.1479 5.00262 33.4669 5.77972C34.786 6.55683 33.8555 9.6755 32.1172 9.86978C32.1172 9.80843 31.4423 7.77362 31.8513 7.04764Z" fill="#FFEDE5"/>
<path d="M25.2767 7.53779C25.2767 7.53779 24.9188 7.77296 24.8268 7.06743C24.7348 6.3619 25.0415 6.46415 25.0415 6.46415C25.0415 6.46415 25.3074 6.4028 25.3892 6.95495C25.471 7.50711 25.2767 7.53779 25.2767 7.53779Z" fill="#3B2645"/>
<path d="M29.2132 6.70072C29.2132 6.70072 28.8553 6.92567 28.7633 6.23036C28.6713 5.53505 28.978 5.62708 28.978 5.62708C28.978 5.62708 29.2439 5.56573 29.3257 6.11789C29.4075 6.67004 29.2132 6.70072 29.2132 6.70072Z" fill="#3B2645"/>
<path d="M27.433 9.00015C27.2388 9.00015 26.8093 9.22511 26.6662 9.00015C26.6047 8.5147 26.6047 8.02342 26.6662 7.53796C26.7206 6.88848 26.7377 6.2364 26.7173 5.58496C26.7173 5.58496 26.6559 5.58496 26.6457 5.58496C26.4683 6.77961 26.3896 7.98686 26.4105 9.19443C26.4077 9.21039 26.4092 9.22682 26.4147 9.24204C26.4203 9.25727 26.4298 9.27075 26.4422 9.28112C26.4547 9.2915 26.4697 9.29841 26.4856 9.30114C26.5016 9.30387 26.518 9.30233 26.5332 9.29668C26.8195 9.23533 27.1161 9.23533 27.4024 9.17398C27.5353 9.15353 27.5353 8.98993 27.433 9.00015Z" fill="#E0855C"/>
<path d="M25.2554 5.36056C24.9384 5.27876 24.417 5.36056 24.2329 5.68776C24.2257 5.70248 24.2231 5.71901 24.2254 5.73521C24.2277 5.75142 24.2349 5.76656 24.2459 5.77868C24.2569 5.7908 24.2713 5.79933 24.2872 5.80317C24.3031 5.80701 24.3198 5.80599 24.3352 5.80024C24.4681 5.80024 24.5806 5.66731 24.7135 5.62641C24.8619 5.59583 25.015 5.59583 25.1634 5.62641C25.1986 5.63861 25.2373 5.63631 25.2709 5.62001C25.3044 5.60371 25.3301 5.57475 25.3423 5.5395C25.3545 5.50424 25.3522 5.46559 25.3359 5.43203C25.3196 5.39847 25.2907 5.37276 25.2554 5.36056Z" fill="#3B2645"/>
<path d="M29.4178 4.82816C29.3373 4.75224 29.2424 4.69322 29.1387 4.6546C29.035 4.61598 28.9246 4.59854 28.814 4.60331C28.7034 4.60807 28.5949 4.63495 28.4949 4.68235C28.3949 4.72975 28.3054 4.79672 28.2317 4.87929C28.2214 4.89692 28.2156 4.91686 28.2149 4.93729C28.2142 4.95772 28.2187 4.978 28.2278 4.99629C28.2369 5.01458 28.2505 5.03029 28.2673 5.042C28.284 5.05371 28.3034 5.06104 28.3238 5.06334C28.5038 5.04061 28.6816 5.00299 28.8555 4.95086C29.0047 4.93015 29.1561 4.93015 29.3054 4.95086C29.3872 5.00199 29.4792 4.89974 29.4178 4.82816Z" fill="#3B2645"/>
<path d="M28.6709 9.72675C28.2312 9.9517 27.996 10.2891 27.4745 10.3812C27.2198 10.4479 26.9522 10.4479 26.6974 10.3812C26.5543 10.3812 26.5543 10.3096 26.4111 10.3198C26.4006 10.3209 26.3904 10.3242 26.3814 10.3297C26.3723 10.3351 26.3646 10.3425 26.3587 10.3513C26.3528 10.3601 26.349 10.3701 26.3474 10.3806C26.3459 10.391 26.3467 10.4017 26.3498 10.4118C26.4725 10.8515 27.1678 10.7799 27.5052 10.7288C27.7719 10.6998 28.0275 10.6065 28.2502 10.4569C28.4728 10.3073 28.6558 10.1059 28.7834 9.8699C28.814 9.7881 28.7424 9.69607 28.6709 9.72675Z" fill="#E0855C"/>
<path d="M50.4409 58.3981C50.1341 58.6231 49.8478 58.8378 49.5513 59.0321C49.2548 59.2264 49.0809 59.3593 48.8458 59.5127C46.1636 61.369 43.1509 62.6949 39.9703 63.4187C38.0276 60.2898 36.637 57.846 36.637 57.846C36.637 57.846 35.8292 56.8235 34.8476 55.1568C32.7105 56.6701 30.328 58.1323 27.9558 59.574C26.8208 60.2591 25.737 60.9442 24.7145 61.619C23.7431 61.0362 22.8637 60.4534 22.0661 59.891C19.9754 58.4648 18.0782 56.7738 16.4219 54.8602C21.5344 49.7477 26.7697 44.8192 26.7697 44.8192C28.7314 42.7168 30.9548 40.8749 33.3854 39.3385C35.6862 38.5584 38.1196 38.2456 40.543 38.4182C41.5814 39.1543 42.3614 40.1991 42.772 41.404C42.8474 41.5806 42.9123 41.7616 42.9663 41.9459C45.2567 44.4511 46.7598 49.0217 48.8969 54.4921C49.4388 55.8623 49.9296 57.1507 50.4409 58.3981Z" fill="#3B2645"/>
<path d="M23.6911 93.471C21.646 95.3422 19.918 94.4935 19.918 94.4935C18.3126 91.426 14.8565 84.7899 11.9424 78.6855C14.5715 78.2666 17.1466 77.5602 19.6215 76.5791C21.8812 84.0946 23.6911 93.471 23.6911 93.471Z" fill="#AB8DA8"/>
<path d="M24.7647 94.8404C24.7801 94.9352 24.7801 95.0319 24.7647 95.1267C24.6929 95.5777 24.456 95.9859 24.1001 96.2719C23.6533 96.5959 23.1604 96.851 22.6379 97.0286C20.5928 97.8568 18.8443 99.0736 16.6766 99.6155C15.3882 99.953 12.7195 100.566 12.1264 98.8078C12.1243 98.7771 12.1243 98.7464 12.1264 98.7157C12.1024 98.5359 12.1024 98.3537 12.1264 98.1738C12.1369 98.022 12.1608 97.8714 12.198 97.7239C12.3923 97.049 12.9956 96.2106 14.652 95.6789C14.9816 95.5781 15.2975 95.4373 15.5927 95.2596C15.7308 95.1828 15.864 95.0974 15.9915 95.004L16.0733 94.9324C16.2249 94.8125 16.3652 94.679 16.4926 94.5337L16.6255 94.3803L16.6766 94.3189L16.8198 94.094C16.9012 93.9702 16.973 93.8403 17.0345 93.7054V93.7054C17.147 93.4702 17.2288 93.276 17.3003 93.1021C17.556 92.4477 17.7298 91.916 18.3229 91.7729C19.6521 91.4252 21.6153 91.7729 21.6665 93.1226C21.6665 93.1226 23.3229 92.9283 23.4559 91.9365C23.5479 91.3025 23.8853 91.7933 24.0183 92.1205C24.2432 92.6727 24.2125 93.3066 24.4579 93.8792C24.4579 93.961 24.5295 94.0224 24.5602 94.1042C24.6828 94.3277 24.7691 94.5693 24.8158 94.82C24.8 94.8294 24.7827 94.8364 24.7647 94.8404Z" fill="#3B2645"/>
<path d="M76.279 75.4334C70.6552 75.6992 64.8166 76.3434 60.0824 76.7115C60.4248 75.0303 60.552 73.3123 60.4607 71.599C60.4463 70.5827 60.302 69.5724 60.0312 68.5928C65.6471 68.8103 71.2287 69.5705 76.6982 70.8628C78.3956 73.0816 76.279 75.4334 76.279 75.4334Z" fill="#AB8DA8"/>
<path d="M17.4953 96.5076C17.0454 96.0373 16.6364 95.5362 16.1661 95.0761L16.0127 94.933C16.1642 94.813 16.3045 94.6795 16.4319 94.5342C16.4933 94.5955 16.5444 94.6569 16.6058 94.708C17.0758 95.1456 17.4974 95.6324 17.8634 96.16C18.0168 96.3952 17.6998 96.7224 17.4953 96.5076Z" fill="#E8CEE5"/>
<path d="M18.6913 95.1469C18.7072 95.1865 18.7109 95.23 18.7019 95.2717C18.6929 95.3134 18.6717 95.3516 18.641 95.3812C18.6103 95.4108 18.5714 95.4306 18.5294 95.4381C18.4874 95.4455 18.4441 95.4402 18.405 95.423C17.9517 95.122 17.5273 94.7797 17.1371 94.4004C17.0173 94.2969 16.891 94.2013 16.7588 94.1141C16.8402 93.9903 16.912 93.8604 16.9735 93.7256V93.7256C17.1253 93.7849 17.2667 93.8677 17.3927 93.971C17.9256 94.2359 18.375 94.6428 18.6913 95.1469V95.1469Z" fill="#E8CEE5"/>
<path d="M24.7549 95.1279C24.6831 95.5789 24.4462 95.9871 24.0903 96.2731C23.6435 96.5972 23.1506 96.8522 22.6281 97.0298C20.5831 97.858 18.8346 99.0748 16.6668 99.6168C15.3785 99.9542 12.7097 100.568 12.1167 98.809C12.1146 98.7783 12.1146 98.7476 12.1167 98.717C12.0926 98.5371 12.0926 98.3549 12.1167 98.175C14.6832 99.9031 17.1474 98.3284 19.7548 97.4899C21.6567 96.8662 23.579 96.4981 24.7549 95.1279Z" fill="#E8CEE5"/>
<path d="M49.5513 59.0329C49.3161 59.2068 49.0809 59.3601 48.8458 59.5135C46.3508 53.5114 44.0911 47.3354 40.7781 41.8138C40.6043 41.5275 41.0031 41.2208 41.2076 41.5071C43.2526 44.319 44.5103 47.7955 45.952 50.9551C47.1791 53.5932 48.4265 56.3028 49.5513 59.0329Z" fill="#32203B"/>
<path d="M34.8771 55.1572C32.7401 56.6705 30.3576 58.1327 27.9854 59.5745C26.8504 60.2596 25.7665 60.9447 24.744 61.6195C23.7726 61.0367 22.8933 60.4538 22.0957 59.8915C29.4169 55.7196 34.734 55.1675 34.8771 55.1572Z" fill="#32203B"/>
<path d="M42.7715 41.4048C35.89 44.9836 27.9348 44.8507 26.9225 44.82H26.8101L26.6771 44.4213C26.0636 42.5705 23.6914 34.9528 21.7793 28.2349C22.8018 24.7992 22.8018 19.4719 22.7098 17.6212C23.6096 17.3042 24.5401 17.0384 25.2865 16.8441C25.3376 18.6437 25.8182 23.1325 29.2743 23.2552C33.3644 23.3984 34.1517 17.611 34.2949 15.0751C35.0164 14.9679 35.7437 14.903 36.4728 14.8809C36.7796 14.8809 37.0761 14.8809 37.3624 14.8809C37.1488 16.5835 37.2075 18.3092 37.5362 19.9934C38.0792 22.8052 39.4048 25.4067 41.3604 27.4987C41.4218 28.5825 41.7183 31.6501 42.0251 34.6563C42.3318 37.6624 42.7715 41.4048 42.7715 41.4048Z" fill="#AB8DA8"/>
<path d="M41.3704 27.4975C41.3704 28.5201 41.7181 31.5876 42.0249 34.6551C38.9943 30.3905 37.4169 25.2638 37.5258 20.0332C38.079 22.8316 39.4076 25.4181 41.3602 27.4975H41.3704Z" fill="#291B30"/>
<path d="M6.68673 33.4901C6.28795 34.9319 5.57219 36.2305 5.14273 37.6415C4.91778 38.3777 5.96074 38.664 6.37997 38.2141C7.39257 36.9149 8.09233 35.3999 8.425 33.7867C8.68063 32.713 6.98326 32.4267 6.68673 33.4901Z" fill="#AB8DA8"/>
<path d="M24.7237 14.645C24.9691 14.9825 25.2247 15.2892 25.4803 15.6062C25.5778 15.7151 25.6666 15.8313 25.7462 15.9539C27.3004 18.1216 27.5663 20.6165 28.3434 23.0194L28.6195 22.59C28.3945 21.6493 28.2002 20.7085 27.9446 19.7883C28.1832 18.3561 28.7696 17.0044 29.6522 15.8516C30.343 15.1676 30.9694 14.4214 31.5234 13.6225C31.9848 12.7637 32.2535 11.8146 32.3107 10.8413C32.3316 9.89344 32.5149 8.95619 32.8527 8.07029C32.8905 7.99596 32.918 7.91685 32.9345 7.83511C32.9378 7.72994 32.9153 7.62555 32.8689 7.53108C32.8226 7.43661 32.7538 7.35493 32.6686 7.29318C32.6046 7.23877 32.5267 7.20335 32.4437 7.19093C32.4007 7.18587 32.3572 7.1939 32.3189 7.21397C32.2806 7.23404 32.2492 7.26521 32.2289 7.3034C32.2184 7.35743 32.2184 7.41298 32.2289 7.46701C32.251 8.06536 32.2167 8.66446 32.1267 9.2564C32.0653 9.88014 32.0347 10.5141 31.9631 11.1481C31.7863 12.6024 31.1105 13.9503 30.051 14.962C28.8429 16.1274 28.0523 17.6582 27.8014 19.3179C27.5606 18.4585 27.2173 17.6311 26.7789 16.8537C26.1757 15.8312 25.3576 14.9313 24.7339 13.9293C24.2821 13.2313 23.9664 12.4542 23.8034 11.6389C23.6905 11.264 23.6319 10.8749 23.6296 10.4834C23.6296 10.0949 23.8136 9.31775 23.5682 8.99055C23.1899 8.47929 23.0468 9.07235 23.0979 9.43023C23.2206 10.2073 23.2104 10.9947 23.374 11.7616C23.5979 12.6904 23.9895 13.5705 24.5294 14.3587L24.7237 14.645Z" fill="#AB8DA8"/>
<path d="M33.1288 34.3997C32.4948 35.136 32.6175 36.4448 32.638 37.3037C32.7385 38.0526 32.783 38.8079 32.7709 39.5634C32.7662 39.8899 32.6895 40.2112 32.5464 40.5046C32.4032 40.798 32.1971 41.0562 31.9426 41.2608C31.7432 41.3524 31.5279 41.4045 31.3087 41.4142C31.1166 41.455 30.918 41.455 30.7259 41.4142C30.4522 41.2993 30.2178 41.1075 30.051 40.862C29.3352 39.9622 29.4784 39.1647 29.4273 38.091C29.422 37.6349 29.322 37.1849 29.1337 36.7695C28.9453 36.3541 28.6727 35.9824 28.3332 35.6779C26.462 33.7147 27.4436 32.0377 28.006 29.8393C28.732 26.9967 29.0285 23.3464 27.781 20.6367C28.0451 22.4008 28.1919 24.1805 28.2207 25.964C28.0669 27.8955 27.6789 29.8011 27.0653 31.639C26.8526 32.151 26.7432 32.7001 26.7432 33.2545C26.7432 33.809 26.8526 34.358 27.0653 34.8701C27.2925 35.2478 27.5713 35.5919 27.8935 35.8926C28.916 36.9151 28.916 37.8763 29.0285 39.2771C29.141 40.678 30.6338 42.6719 32.2801 41.496C32.5957 41.2145 32.8392 40.8615 32.9904 40.4666C33.1417 40.0717 33.1961 39.6463 33.1492 39.226C33.1492 38.4898 32.9958 37.7638 32.9549 37.0276C32.89 36.4066 32.9175 35.7795 33.0367 35.1666C33.0681 35.0443 33.1237 34.9296 33.2003 34.8292C33.3566 34.6597 33.5656 34.548 33.7934 34.5122C33.9091 34.4614 34.0356 34.4403 34.1615 34.4509C34.3236 34.4689 34.4748 34.5409 34.591 34.6554C34.8748 34.9898 35.1058 35.3657 35.276 35.7699C35.276 35.8619 35.3476 36.0562 35.4499 36.0971C35.5521 36.138 35.7157 36.046 35.685 35.9131C35.4294 34.8905 34.3251 33.0296 33.1288 34.3997Z" fill="#AB8DA8"/>
<path d="M37.1032 34.892L34.797 36.0183C34.249 36.286 34.0217 36.9472 34.2893 37.4952L37.1028 43.2561C37.3704 43.8041 38.0317 44.0314 38.5797 43.7637L40.8859 42.6375C41.4339 42.3698 41.6612 41.7086 41.3936 41.1605L38.5801 35.3997C38.3124 34.8517 37.6512 34.6244 37.1032 34.892Z" fill="#E8CEE5"/>
<path d="M41.6569 15.678C41.818 15.6442 41.9848 15.6498 42.1433 15.6943C42.3017 15.7389 42.4471 15.8209 42.567 15.9336C44.612 17.8662 54.3975 27.5392 55.2666 31.7519C56.1766 36.1589 42.8226 39.5435 41.1048 39.932C40.988 39.9583 40.8836 40.0231 40.8083 40.1161C40.297 40.7091 38.1497 43.0098 36.5035 41.5783C34.8572 40.1467 33.4359 36.8133 38.3747 36.2305C41.3911 35.8726 48.4055 31.5372 48.4055 31.5372L39.98 25.0851C39.98 25.0851 37.2397 16.6494 41.6569 15.678Z" fill="#FFEDE5"/>
</svg>
