<svg width="75" height="91" viewBox="0 0 75 91" fill="none" xmlns="http://www.w3.org/2000/svg">
<path d="M30.164 5.18357C30.164 5.18357 30.9255 0 36.7602 0C42.5949 0 45.4247 6.63087 46.7419 10.5211C48.0591 14.4114 51.4549 18.0758 55.8798 20.2416C60.3047 22.4074 63.649 24.7374 63.0831 29.6439C63.0831 29.6439 72.5503 37.0343 54.5112 38.3995C36.4721 39.7647 27.612 28.4429 28.7028 22.6127C29.7936 16.7825 22.7549 8.87879 30.164 5.18357Z" fill="#3B2645"/>
<path d="M41.0819 17.6249C41.0819 17.6249 40.2586 25.5902 43.7574 26.2882C43.7574 26.2882 45.2083 40.5866 37.048 40.5866C28.8877 40.5866 29.7213 26.7193 29.7213 26.7193C29.7213 26.7193 33.1994 25.8058 32.9216 18.1176C32.6437 10.4295 41.1951 12.2771 41.0819 17.6249Z" fill="#FFEDE5"/>
<path d="M38.6532 18.3324C39.3426 15.715 35.7924 15.1812 33.4051 15.1094C33.0655 15.8792 32.87 16.8749 32.9111 18.1169C32.9626 19.2049 32.9111 20.3032 32.7773 21.3912C34.1357 21.4939 37.8196 21.4836 38.6532 18.3324Z" fill="#E0855C"/>
<path d="M31.9269 15.8889C32.6633 15.6364 32.8767 14.3191 32.4038 12.9467C31.9308 11.5742 30.9504 10.6663 30.2141 10.9188C29.4778 11.1713 29.2643 12.4886 29.7373 13.861C30.2103 15.2334 31.1906 16.1413 31.9269 15.8889Z" fill="#E0855C"/>
<path d="M44.184 13.8492C44.657 12.4768 44.4435 11.1595 43.7072 10.907C42.9709 10.6545 41.9905 11.5624 41.5176 12.9349C41.0446 14.3073 41.258 15.6246 41.9944 15.8771C42.7307 16.1296 43.711 15.2217 44.184 13.8492Z" fill="#E0855C"/>
<path d="M30.6061 6.46847C30.6061 6.46847 30.0401 20.2126 36.5643 20.2434C41.6374 20.264 43.0884 14.095 43.1707 7.14593C43.253 0.196861 30.6884 1.13093 30.6061 6.46847Z" fill="#FFEDE5"/>
<path d="M37.0787 16.2161C35.9879 16.2161 35.0309 15.5592 35.0206 15.5489C34.9691 15.5181 34.9588 15.4566 35 15.4052C35.0309 15.3539 35.0926 15.3437 35.1441 15.3847C35.1647 15.395 37.0169 16.6575 38.3856 15.5797C38.4267 15.5489 38.4987 15.5489 38.5296 15.6003C38.5605 15.6516 38.5605 15.7132 38.509 15.744C38.046 16.093 37.552 16.2161 37.0787 16.2161Z" fill="#472938"/>
<path d="M32.8398 10.5312C32.8398 10.5312 33.6939 11.0753 35.1346 10.6339C35.1346 10.6236 33.91 11.8759 32.8398 10.5312Z" fill="#472938"/>
<path d="M41.0291 10.6436C41.0291 10.6436 40.175 11.1876 38.7344 10.7462C38.7344 10.7462 39.9589 11.9985 41.0291 10.6436Z" fill="#472938"/>
<path d="M32.3457 8.8579C32.3457 8.8579 33.4262 7.66722 35.0006 8.03674C35.8033 8.2215 35.4946 7.23611 34.0436 7.2977C32.5927 7.35929 32.3457 8.8579 32.3457 8.8579Z" fill="#472938"/>
<path d="M41.6058 8.8579C41.6058 8.8579 40.5253 7.66722 38.9509 8.03674C38.1483 8.2215 38.457 7.23611 39.9079 7.2977C41.3589 7.35929 41.6058 8.8579 41.6058 8.8579Z" fill="#472938"/>
<path d="M36.8307 13.9182C36.522 13.9182 35.8634 13.6923 35.637 13.4665C35.5547 13.3844 35.5238 13.3023 35.5341 13.2202C35.5547 13.097 35.6473 12.7069 35.7811 12.2142C35.956 11.506 36.1824 10.6335 36.2545 10.2024C36.3265 9.79181 36.2545 9.3607 36.0589 8.99118C36.0281 8.93986 36.0487 8.87827 36.1001 8.84748C36.1516 8.81668 36.2133 8.83721 36.2442 8.88854C36.4603 9.29912 36.5426 9.77128 36.4603 10.2332C36.3882 10.6746 36.1619 11.5573 35.9869 12.2656C35.8634 12.7377 35.7605 13.1483 35.7502 13.251C35.7502 13.2612 35.7605 13.2817 35.7914 13.3228C36.0075 13.5384 36.6867 13.7437 36.8822 13.7129C37.1394 13.6718 37.6745 13.4255 37.8598 13.2099C37.9009 13.1688 37.9627 13.1688 38.0038 13.1996C38.045 13.2407 38.045 13.3023 38.0141 13.3433C37.7877 13.5897 37.2115 13.8668 36.913 13.9079C36.8719 13.9182 36.8513 13.9182 36.8307 13.9182Z" fill="#472938"/>
<path d="M30.6974 9.98657C30.6974 9.98657 31.109 6.71219 32.1278 5.51124C32.1278 5.51124 33.836 4.75167 36.5527 6.3632C39.2693 7.97472 41.1731 9.32964 43.6942 8.92932C43.6942 8.92932 43.9309 1.11803 37.417 1.53888C30.9032 1.95972 29.5655 5.35727 30.6974 9.98657Z" fill="#3B2645"/>
<path d="M73.7436 58.2507C73.6407 58.0864 73.332 58.3636 73.332 58.3636C73.332 58.3636 73.013 58.0043 72.1486 58.2609C71.2842 58.5176 68.7219 60.7142 68.7219 60.7142C67.5693 60.6936 65.6862 61.8227 65.6862 61.8227C65.6862 61.8227 64.2661 61.2376 62.9798 59.3079C61.6935 57.3782 60.294 56.4339 60.294 56.4339C60.294 56.4339 57.2789 44.3423 55.2414 36.7979C53.1731 37.6703 50.4873 41.1089 48.5732 43.8804C48.6144 45.184 48.6556 46.0154 48.6556 46.0154C48.6556 46.0154 55.3649 63.773 56.2293 64.3067C57.0937 64.8405 66.9622 66.0312 67.0651 65.9593C67.168 65.8875 68.0736 66.1236 68.444 65.9593C68.8145 65.7951 69.2673 66.062 69.72 65.754C70.1728 65.4461 70.9549 65.9183 71.2739 65.6206C71.5929 65.3229 72.1486 65.4461 72.519 65.2716C72.8895 65.0971 74.9579 62.182 74.999 61.6585C75.0402 61.135 73.8465 58.4149 73.7436 58.2507Z" fill="#FFEDE5"/>
<path d="M50.3032 40.3389C50.3032 40.3389 53.8123 46.3128 51.0339 52.1944L48.6465 45.9946L50.3032 40.3389Z" fill="#E0855C"/>
<path d="M55.2316 36.779C54.501 34.0692 53.8938 31.9444 53.5954 31.1746C52.4635 28.2184 50.3745 28.085 50.3745 28.085C48.3164 28.1158 48.4193 39.1193 48.5634 43.8615C50.4774 41.0901 53.1632 37.6617 55.2316 36.779Z" fill="#AB8DA8"/>
<path d="M58.0092 57.0598C57.968 57.0598 57.9268 57.0291 57.9063 56.988C57.896 56.9367 57.9268 56.8751 57.9783 56.8648L59.9952 56.3311C60.0467 56.3208 60.1084 56.3516 60.1187 56.4029C60.129 56.4542 60.0981 56.5158 60.0467 56.5261L58.0297 57.0598C58.0297 57.0598 58.0195 57.0598 58.0092 57.0598Z" fill="#472938"/>
<path d="M67.9912 64.052C67.9398 64.052 67.8883 64.0109 67.8883 63.9493C67.8369 62.697 66.3551 62.6457 66.2933 62.6457C66.2316 62.6457 66.1904 62.5944 66.1904 62.5431C66.1904 62.4815 66.2419 62.4404 66.2933 62.4404C66.3139 62.4404 68.0221 62.502 68.0839 63.939C68.1044 64.0006 68.053 64.052 67.9912 64.052C68.0015 64.052 68.0015 64.052 67.9912 64.052Z" fill="#472938"/>
<path d="M67.54 64.9837C67.5297 64.9837 67.5091 64.9837 67.4988 64.9735C67.4473 64.9529 67.4268 64.8913 67.4473 64.84C67.5708 64.5731 68.6822 62.1712 69.1453 61.8633C69.526 61.6067 69.9891 61.6888 70.1743 61.853C70.2978 61.9557 70.2566 62.0583 70.2463 62.0891C70.1949 62.202 69.598 63.6801 69.2996 64.4397C69.279 64.491 69.2173 64.5218 69.1658 64.5013C69.1144 64.4807 69.0835 64.4192 69.1041 64.3678C69.135 64.2755 69.9376 62.2841 70.0508 62.0275C70.0302 62.007 69.9788 61.9659 69.8759 61.9454C69.7936 61.9249 69.526 61.8736 69.2585 62.0481C68.9086 62.2841 67.9619 64.2139 67.6223 64.9427C67.612 64.9632 67.5811 64.9837 67.54 64.9837Z" fill="#472938"/>
<path d="M70.7903 64.2154C70.7286 64.2154 70.6874 64.1743 70.6874 64.1127C70.6874 64.0922 70.6874 64.0922 70.9756 63.076C71.2123 62.2446 71.593 60.8897 71.6342 60.6741C71.5724 60.6125 71.2843 60.4893 71.0888 60.5509C70.9344 60.6023 70.4611 61.3002 70.1112 61.9161C70.0803 61.9674 70.0186 61.9777 69.9671 61.9572C69.9157 61.9264 69.9054 61.8648 69.926 61.8135C70.1112 61.4953 70.7286 60.4483 71.0167 60.3456C71.2637 60.2635 71.5827 60.3764 71.7268 60.4791C71.7988 60.5304 71.84 60.592 71.84 60.6433C71.84 60.7049 71.6959 61.2284 71.1711 63.1171C71.0373 63.5995 70.9035 64.0614 70.8932 64.1127C70.8932 64.1743 70.8418 64.2154 70.7903 64.2154Z" fill="#472938"/>
<path d="M72.2417 64.0011C72.2314 64.0011 72.2314 64.0011 72.2211 64.0011C72.1696 63.9908 72.1285 63.9292 72.1388 63.8779C72.4989 62.2766 73.0237 59.8337 73.034 59.5668C72.9929 59.5052 72.8076 59.4026 72.4886 59.4026C72.3137 59.4026 71.8712 59.9876 71.5728 60.5317C71.5419 60.583 71.4802 60.6035 71.4287 60.5727C71.3773 60.5419 71.3567 60.4803 71.3876 60.429C71.5522 60.1416 72.1079 59.1973 72.4886 59.1973C72.8488 59.1973 73.1472 59.3204 73.2295 59.4949C73.2501 59.536 73.3016 59.6489 72.3343 63.9189C72.3343 63.9703 72.2931 64.0011 72.2417 64.0011Z" fill="#472938"/>
<path d="M73.014 59.503C72.9728 59.503 72.9317 59.4722 72.9111 59.4311C72.7464 58.9076 73.2301 58.3226 73.2507 58.302C73.2918 58.261 73.3536 58.2507 73.3947 58.2918C73.4359 58.3328 73.4462 58.3944 73.405 58.4355C73.405 58.4457 72.9728 58.959 73.1066 59.3798C73.1272 59.4311 73.0963 59.4927 73.0346 59.5132C73.0346 59.503 73.0243 59.503 73.014 59.503Z" fill="#472938"/>
<path d="M72.4688 63.0033C72.4483 63.0033 72.4277 62.9931 72.4174 62.9828C72.3659 62.952 72.3556 62.8904 72.3865 62.8391L73.2303 61.5663L72.9834 60.0266C72.9731 59.9753 73.0142 59.9137 73.0657 59.9137C73.1171 59.9034 73.1789 59.9445 73.1789 59.9958L73.4464 61.6176L72.5614 62.9623C72.5306 62.9828 72.4997 63.0033 72.4688 63.0033Z" fill="#472938"/>
<path d="M1.10364 59.9668C1.19626 59.8025 1.51526 60.0592 1.51526 60.0592C1.51526 60.0592 1.82397 59.6896 2.69866 59.9154C3.57334 60.1413 6.21798 62.225 6.21798 62.225C7.36021 62.1634 9.3051 63.2103 9.3051 63.2103C9.3051 63.2103 10.7046 62.5637 11.9189 60.5826C13.1331 58.6016 14.4915 57.5957 14.4915 57.5957C14.4915 57.5957 17.0126 45.4014 18.7517 37.7646C20.8509 38.555 23.6705 41.8807 25.6977 44.57C25.708 45.8736 25.708 46.705 25.708 46.705C25.708 46.705 19.719 64.709 18.8752 65.2838C18.0314 65.8586 8.21432 67.4291 8.12171 67.3675C8.02909 67.3059 7.12354 67.5728 6.74279 67.4188C6.36205 67.2648 5.92985 67.5625 5.45649 67.2648C4.98313 66.9672 4.23193 67.4701 3.89235 67.193C3.55276 66.9158 3.01766 67.0493 2.62663 66.8953C2.23559 66.7413 0.0643128 63.9083 0.00257034 63.3849C-0.0591721 62.8614 1.01103 60.131 1.10364 59.9668Z" fill="#FFEDE5"/>
<path d="M23.8143 41.1416C23.8143 41.1416 20.5522 47.2593 23.557 53.0176L25.6871 46.7255L23.8143 41.1416Z" fill="#E0855C"/>
<path d="M18.7402 37.774C19.3577 35.0436 19.8825 32.8984 20.15 32.108C21.1585 29.1108 23.2474 28.8849 23.2474 28.8849C25.3055 28.8336 25.6348 39.8372 25.6863 44.5794C23.6591 41.9003 20.8395 38.5746 18.7402 37.774Z" fill="#AB8DA8"/>
<path d="M16.7758 58.1478C16.7655 58.1478 16.7655 58.1478 16.7552 58.1478L14.7177 57.6961C14.6662 57.6859 14.6251 57.6243 14.6354 57.573C14.6457 57.5216 14.7074 57.4806 14.7589 57.4908L16.7964 57.9425C16.8478 57.9528 16.889 58.0143 16.8787 58.0657C16.8684 58.117 16.8169 58.1478 16.7758 58.1478Z" fill="#472938"/>
<path d="M7.07068 65.5296C7.00894 65.5296 6.96777 65.4782 6.96777 65.4269C6.97806 63.9796 8.67598 63.8564 8.69657 63.8564C8.74802 63.8564 8.79947 63.8975 8.80976 63.9488C8.80976 64.0104 8.7686 64.0515 8.71714 64.0617C8.6554 64.0617 7.18387 64.1746 7.18387 65.4269C7.17358 65.4885 7.13242 65.5296 7.07068 65.5296Z" fill="#472938"/>
<path d="M7.57628 66.4432C7.53512 66.4432 7.50425 66.4227 7.48367 66.3919C7.12351 65.6836 6.09447 63.7847 5.7343 63.5589C5.45646 63.3946 5.18891 63.4562 5.10659 63.4767C5.01398 63.5075 4.96253 63.5486 4.94195 63.5691C5.06543 63.8257 5.94011 65.7863 5.98127 65.8786C6.00185 65.93 5.98127 65.9915 5.92982 66.0121C5.87837 66.0326 5.81663 66.0121 5.79605 65.9608C5.45646 65.2114 4.80817 63.7539 4.75672 63.641C4.71556 63.5691 4.74643 63.4767 4.81846 63.4049C4.9934 63.2407 5.45646 63.138 5.8475 63.3741C6.33115 63.6615 7.53513 66.0223 7.6689 66.2892C7.68948 66.3405 7.67919 66.4021 7.62774 66.4227C7.60716 66.4432 7.58657 66.4432 7.57628 66.4432Z" fill="#472938"/>
<path d="M4.28301 65.7973C4.23155 65.7973 4.19039 65.7665 4.1801 65.7152C4.16981 65.6639 4.03604 65.2533 3.88168 64.7709C3.26425 62.8719 3.09961 62.3382 3.09961 62.2766C3.09961 62.215 3.13048 62.1637 3.20251 62.1124C3.34658 61.9994 3.65529 61.8763 3.91255 61.9481C4.21097 62.0302 4.86956 63.0567 5.06508 63.3646C5.09595 63.4159 5.07537 63.4775 5.03421 63.5083C4.98275 63.5391 4.92101 63.5186 4.89014 63.4775C4.5094 62.8719 4.00516 62.1945 3.8611 62.1534C3.65529 62.0918 3.37745 62.2355 3.31571 62.2971C3.36716 62.4819 3.80965 63.8779 4.08749 64.7196C4.3962 65.6742 4.3962 65.6742 4.3962 65.6947C4.3962 65.746 4.34475 65.7973 4.28301 65.7973C4.2933 65.7973 4.2933 65.7973 4.28301 65.7973Z" fill="#472938"/>
<path d="M2.83179 65.6519C2.79063 65.6519 2.74947 65.6211 2.72889 65.5801C1.59694 61.3408 1.64839 61.2279 1.65868 61.1869C1.73072 61.0021 2.01885 60.8687 2.3893 60.8584H2.39959C2.78034 60.8584 3.36689 61.772 3.54183 62.0491C3.5727 62.1004 3.55212 62.162 3.51096 62.1928C3.45951 62.2236 3.39776 62.2031 3.36689 62.162C3.04789 61.6385 2.58482 61.0637 2.40988 61.0637C2.10117 61.074 1.91594 61.1869 1.87478 61.2485C1.89536 61.5153 2.52308 63.9378 2.94499 65.5185C2.95528 65.5698 2.9244 65.6314 2.87295 65.6417C2.84208 65.6417 2.83179 65.6519 2.83179 65.6519Z" fill="#472938"/>
<path d="M1.88568 61.1968C1.87539 61.1968 1.8651 61.1968 1.85481 61.1968C1.80336 61.1865 1.7622 61.125 1.78278 61.0736C1.89597 60.6425 1.45349 60.1498 1.4432 60.1396C1.40203 60.0985 1.41232 60.0369 1.45349 59.9959C1.49465 59.9548 1.55639 59.9651 1.59755 60.0061C1.61813 60.0267 2.12236 60.5912 1.9783 61.125C1.96801 61.166 1.92685 61.1968 1.88568 61.1968Z" fill="#472938"/>
<path d="M2.5666 64.6579C2.53573 64.6579 2.50486 64.6477 2.48428 64.6169L1.54785 63.3133L1.74337 61.6812C1.75366 61.6299 1.80511 61.5889 1.85656 61.5889C1.90802 61.5991 1.94918 61.6505 1.94918 61.7018L1.76395 63.2517L2.65922 64.4937C2.69009 64.5348 2.6798 64.6066 2.63863 64.6374C2.60776 64.658 2.58718 64.6579 2.5666 64.6579Z" fill="#472938"/>
<path d="M43.7452 26.2881L50.3723 28.0844C50.3723 28.0844 49.5696 38.7697 50.9382 40.9766C52.3069 43.1835 51.5454 48.2028 49.8886 50.6971C49.8886 50.6971 47.2337 59.2166 47.954 61.2182C48.6744 63.2198 51.0926 67.6438 51.0926 67.6438C51.0926 67.6438 40.298 73.1045 24.6771 68.2494C24.6771 68.2494 27.7745 61.7417 27.2909 59.2474C26.8072 56.7531 23.4629 49.8041 23.504 46.5194C23.5452 43.2348 24.5948 34.4689 23.0615 28.9261L29.6885 26.7192C29.6885 26.7192 29.8017 39.7346 37.3446 39.7346C44.8875 39.7346 43.7452 26.2881 43.7452 26.2881Z" fill="#AB8DA8"/>
<path d="M49.9023 50.6973C49.9023 50.6973 49.0791 52.3396 43.8516 53.0273C43.8516 53.0273 48.8836 53.4071 48.3793 56.4249L49.9023 50.6973Z" fill="#3B2645"/>
<path d="M24.2256 50.2344C24.2256 50.2344 25.4604 52.5439 31.0481 53.0674C31.0481 53.0674 24.9253 52.1436 26.0676 55.4898L24.2256 50.2344Z" fill="#3B2645"/>
<path d="M23.5364 47.094C23.485 47.094 23.4335 47.0529 23.4335 47.0016C23.4232 46.8271 23.4129 46.6732 23.4232 46.5192C23.4335 45.7801 23.4952 44.7742 23.557 43.6041C23.6496 42.0028 23.7628 40.0115 23.7937 37.9689C23.7937 37.9073 23.8348 37.8662 23.8966 37.8662C23.9583 37.8662 23.9995 37.9175 23.9995 37.9689C23.9686 40.0115 23.8554 42.0131 23.7628 43.6143C23.6908 44.7845 23.6393 45.7904 23.629 46.5294C23.629 46.6732 23.629 46.8271 23.6393 46.9914C23.6393 47.0324 23.5981 47.0837 23.5364 47.094Z" fill="#472938"/>
<path d="M50.9406 41.079C50.9098 41.079 50.8686 41.0585 50.848 41.0277C50.3953 40.2989 50.1277 38.6258 50.0557 36.0597C50.0557 35.9981 50.0968 35.957 50.1586 35.957C50.21 35.957 50.2615 35.9981 50.2615 36.0597C50.3335 38.595 50.5908 40.2373 51.023 40.925C51.0538 40.9764 51.0333 41.038 50.9921 41.0687C50.9818 41.0687 50.9612 41.079 50.9406 41.079Z" fill="#472938"/>
<path d="M25.0394 67.4881C25.0394 67.4881 30.8534 69.695 37.6554 69.4589C44.4574 69.2228 58.0716 64.3164 64.4311 65.3223C70.7905 66.3282 70.3789 69.0278 70.1628 70.2698C69.9467 71.5118 56.7441 90.1418 45.1468 90.1418H27.3753C27.3753 90.1418 5.53903 76.4182 4.82899 72.4561C4.11895 68.494 4.63347 66.1229 10.7254 66.01C16.8173 65.8971 23.4032 66.9543 25.0394 67.4881Z" fill="#3B2645"/>
<path d="M37.4287 73.5343C37.4287 73.5343 46.1138 69.9315 53.3686 68.6895C53.3686 68.6895 58.0404 75.9157 56.6718 82.023C56.6615 82.023 40.0528 78.3894 37.4287 73.5343Z" fill="#FFEDE5"/>
<path d="M37.4287 73.5352C37.4287 73.5352 58.4417 76.2758 56.6615 82.0239C54.8812 87.772 37.4287 73.5352 37.4287 73.5352Z" fill="#E0855C"/>
<path d="M46.8745 83.9321C46.8745 83.9321 25.3367 85.7797 20.6134 86.7446C15.8901 87.7095 11.1051 87.2783 8.18258 88.2945C5.2601 89.3107 3.64451 90.0908 3.29463 90.1319C2.94476 90.1729 2.14211 85.6463 3.61364 84.045C3.61364 84.045 3.16086 82.413 5.21894 81.1504C7.27702 79.8879 10.6934 81.5507 11.9592 81.1504C13.2249 80.7501 14.1304 80.3806 15.4785 80.668C16.8265 80.9554 20.1195 81.7663 20.1195 81.7663C20.1195 81.7663 37.0781 71.0193 46.8745 83.9321Z" fill="#FFEDE5"/>
<path d="M20.1299 81.7672L32.9209 85.2366L46.8747 83.933C46.8747 83.933 40.5152 77.4048 31.7375 78.0104C22.9597 78.616 20.1299 81.7672 20.1299 81.7672Z" fill="#E0855C"/>
<path d="M24.5856 68.8652C24.5856 68.8652 31.1921 70.1996 40.7416 75.1882C50.2911 80.1767 58.1941 78.1341 60.9828 79.099C63.7715 80.0638 69.0608 79.3145 69.9252 80.0638C70.7896 80.8131 71.3556 82.127 70.841 82.6915C70.841 82.6915 73.1461 87.9675 72.93 88.3165C72.7139 88.6655 71.9113 88.6347 71.5305 88.5526C71.1498 88.4704 67.7951 86.8076 63.9362 86.1199C60.0773 85.4322 49.437 83.9541 40.9577 83.5229C32.4784 83.0918 20.1299 82.2399 20.1299 82.2399C20.1299 82.2399 20.418 71.8625 24.5856 68.8652Z" fill="#FFEDE5"/>
<path d="M70.1422 82.9063C69.813 82.9063 69.3705 82.8447 68.8045 82.6497C68.7531 82.6292 68.7222 82.5676 68.7428 82.5163C68.7634 82.4649 68.8251 82.4341 68.8765 82.4547C70.1525 82.9063 70.77 82.5984 70.7802 82.5984C70.8317 82.5676 70.8934 82.5881 70.914 82.6394C70.9449 82.6908 70.9243 82.7524 70.8729 82.7729C70.8626 82.7729 70.6259 82.9063 70.1422 82.9063Z" fill="#472938"/>
<path d="M4.65269 84.3644C3.93236 84.3644 3.58249 84.1386 3.56191 84.1284C3.51046 84.0976 3.50017 84.036 3.53104 83.9847C3.56191 83.9333 3.62365 83.9231 3.6751 83.9539C3.6751 83.9539 4.04556 84.1797 4.76589 84.1489C5.51709 84.1283 6.33003 83.7588 6.34032 83.7588C6.39177 83.7383 6.45352 83.7588 6.4741 83.8102C6.49468 83.8615 6.4741 83.9231 6.42265 83.9436C6.39178 83.9641 5.55825 84.3234 4.77618 84.3542C4.73502 84.3644 4.69385 84.3644 4.65269 84.3644Z" fill="#472938"/>
</svg>
