<svg width="79" height="96" viewBox="0 0 79 96" fill="none" xmlns="http://www.w3.org/2000/svg">
<path d="M30.1738 26.248L25.1107 27.8668C25.1107 27.8668 23.5702 33.8122 24.051 34.8718C24.5318 35.9313 27.2399 36.7358 28.5253 36.0981C29.8107 35.4604 34.1674 31.2908 34.1674 31.2908L30.1738 26.248Z" fill="#FFEDE5"/>
<path d="M34.814 20.5091C34.814 20.5091 31.576 24.1784 30.1729 26.2484L33.7837 31.8897L37.5614 28.4951C37.5614 28.4951 36.9335 19.1062 34.814 20.5091Z" fill="#AB8DA8"/>
<path d="M29.5938 26.4345V32.0855L31.2226 27.8865L30.1727 26.248L29.5938 26.4345Z" fill="#E0855C"/>
<path d="M29.3499 23.1586C29.7915 23.2665 29.9288 22.9624 30.2919 23.5413C30.6549 24.1201 31.4203 26.3864 31.2142 26.7298C31.0082 27.0732 28.7219 29.2806 28.5551 29.2806C28.3883 29.2806 27.9664 28.6625 28.0547 28.4467C28.0547 28.4467 27.515 28.7704 27.1618 28.7116C27.1618 28.7116 26.3768 29.1236 26.0628 29.0451C25.7488 28.9666 23.914 26.2588 24.3457 25.5427C24.7774 24.8265 25.0522 25.1993 25.3073 24.9148C25.5624 24.6303 25.9941 24.1593 26.5142 24.2084C27.0342 24.2574 27.2697 23.453 28.0253 23.5707C28.7808 23.6884 28.3687 22.9134 29.3499 23.1586Z" fill="#FFEDE5"/>
<path d="M28.0445 28.5449C28.0053 28.5449 27.9758 28.5252 27.9562 28.4958C27.9268 28.4468 27.9464 28.3879 27.9955 28.3683C28.0053 28.3683 28.8884 27.8973 29.1239 27.554L29.1435 27.5343C29.1533 27.5343 29.6537 27.083 29.8205 26.7397L28.9669 24.8069C28.9472 24.7579 28.9669 24.699 29.0159 24.6794C29.065 24.6598 29.1239 24.6794 29.1435 24.7284L30.0266 26.7397L30.007 26.7789C29.8598 27.1517 29.3495 27.6128 29.271 27.6815C28.9963 28.0641 28.1132 28.5252 28.074 28.5449C28.074 28.535 28.0641 28.5449 28.0445 28.5449Z" fill="#472938"/>
<path d="M27.1518 28.8077C27.1125 28.8077 27.0831 28.788 27.0635 28.7488L25.9743 26.5315C25.9547 26.4825 25.9743 26.4236 26.0234 26.404C26.0724 26.3844 26.1313 26.404 26.1509 26.4531L27.2401 28.6703C27.2597 28.7194 27.2401 28.7782 27.191 28.7978C27.1812 28.8077 27.1714 28.8077 27.1518 28.8077Z" fill="#472938"/>
<path d="M28.6241 28.1992C28.5849 28.1992 28.5554 28.1795 28.5358 28.1403L27.5153 25.9427C27.4957 25.8936 27.5153 25.8348 27.5644 25.8151C27.6135 25.7955 27.6723 25.8151 27.692 25.8642L28.7124 28.0618C28.732 28.1109 28.7124 28.1697 28.6634 28.1894C28.6535 28.1992 28.6339 28.1992 28.6241 28.1992Z" fill="#472938"/>
<path d="M28.544 29.3783C28.387 29.3783 28.2104 29.1331 28.1417 29.035C28.0926 28.9663 27.9847 28.7897 27.9454 28.6131C27.759 28.7014 27.4352 28.8387 27.1703 28.8191C27.0133 28.8976 26.346 29.2214 26.032 29.1429C25.8554 29.1036 25.5316 28.672 25.355 28.4169C25.3256 28.3678 25.3354 28.309 25.3746 28.2795C25.4139 28.2501 25.4826 28.2599 25.512 28.2992C25.8162 28.7406 26.0222 28.927 26.0713 28.9467C26.2774 28.9957 26.8072 28.7701 27.1016 28.6229L27.131 28.6131H27.1604C27.4843 28.6621 27.9847 28.358 27.9945 28.358L28.2496 28.2109L28.1417 28.4856C28.1319 28.515 28.1319 28.6131 28.23 28.7995C28.3477 29.0153 28.4851 29.1527 28.544 29.1821C28.7893 29.0448 30.3887 27.5339 30.9578 26.9256C30.4279 27.0532 29.9177 26.8275 29.8981 26.8177C29.849 26.7981 29.8294 26.7392 29.849 26.6902C29.8686 26.6411 29.9275 26.6215 29.9765 26.6411C29.9864 26.6411 30.6242 26.9256 31.1638 26.6411C31.2325 26.6019 31.2816 26.6215 31.3012 26.6509C31.3306 26.6705 31.3503 26.7196 31.3306 26.7687C31.2619 26.9453 28.7795 29.3783 28.544 29.3783Z" fill="#472938"/>
<path d="M45.9118 14.6123L50.8277 17.7027V24.1092C50.8277 24.1092 45.7156 34.7441 45.9118 38.5802L34.2059 40.768C34.2059 40.768 31.3996 29.5051 34.8142 20.4988L40.0343 16.8295L45.9118 14.6123Z" fill="#AB8DA8"/>
<path d="M50.8268 24.1189L46.9902 23.54L49.1391 27.8862L50.8268 24.1189Z" fill="#32203B"/>
<path d="M44.6358 10.6777L45.9114 14.6119C44.5475 15.1417 43.321 15.9658 42.3202 17.0351C40.6423 18.8207 39.9947 20.5082 38.984 20.5082C37.9734 20.5082 40.0437 16.8389 40.0437 16.8389L39.7788 13.4051L44.6358 10.6777Z" fill="#FFEDE5"/>
<path d="M39.905 15.1502C39.905 15.1502 42.1519 14.8166 43.3 11.5889L39.7676 13.4039L39.905 15.1502Z" fill="#E0855C"/>
<path d="M38.2386 2.64258C38.2386 2.64258 36.0701 13.2187 37.1985 13.9447C38.3269 14.6707 42.7816 14.0428 44.4399 11.0995C46.0981 8.15626 44.0179 2.64258 38.2386 2.64258Z" fill="#FFEDE5"/>
<path d="M37.5419 6.40039C37.5419 6.40039 35.5009 9.0395 35.707 9.29458C35.9131 9.54966 37.0316 9.91266 37.0316 9.91266L37.5419 6.40039Z" fill="#FFEDE5"/>
<path d="M43.6648 9.5008C43.6648 9.5008 42.6444 8.99064 43.3018 6.76359C43.3018 6.76359 41.9772 4.4188 41.1137 4.03618C40.2502 3.65356 38.0523 3.53583 38.0523 3.53583C38.0523 3.53583 37.6107 0.445418 38.3466 0.121661C39.0825 -0.202096 45.8922 -0.0156928 47.1776 2.38796C47.6094 3.20226 47.3346 3.6928 47.3346 3.6928C47.3346 3.6928 48.0607 4.65426 47.9332 5.47837C47.8056 6.30248 45.8039 9.35364 45.8039 9.35364L43.6648 9.5008Z" fill="#3B2645"/>
<path d="M45.7011 10.3053C46.3832 9.6233 46.5758 8.71016 46.1313 8.26572C45.6868 7.82129 44.7735 8.01386 44.0914 8.69584C43.4094 9.37781 43.2168 10.2909 43.6613 10.7354C44.1058 11.1798 45.019 10.9873 45.7011 10.3053Z" fill="#FFEDE5"/>
<path d="M38.0615 11.6103C37.6003 11.6103 37.1882 11.4827 37.1588 11.4729C37.1097 11.4533 37.0803 11.4042 37.0999 11.3454C37.1195 11.2963 37.1686 11.2669 37.2275 11.2865C37.2373 11.2865 38.5717 11.7182 39.0329 11.0118C39.0623 10.9628 39.1212 10.9529 39.1703 10.9824C39.2193 11.0118 39.2291 11.0707 39.1997 11.1197C38.9348 11.5024 38.4834 11.6103 38.0615 11.6103Z" fill="#472938"/>
<path d="M44.1859 9.95137C44.1564 9.95137 44.1172 9.93175 44.1074 9.90232C44.0779 9.85326 44.0878 9.7944 44.1368 9.76496L44.9316 9.2646C44.9807 9.23517 45.0395 9.24498 45.069 9.29404C45.0984 9.34309 45.0886 9.40196 45.0396 9.43139L44.2447 9.93175C44.2251 9.94156 44.2055 9.95137 44.1859 9.95137Z" fill="#472938"/>
<path d="M38.8948 6.40991C39.1008 6.45897 39.2284 6.66499 39.1793 6.86121L39.1204 7.1261C39.0714 7.33213 38.8653 7.45967 38.6691 7.41061C38.463 7.36156 38.3355 7.15553 38.3845 6.95932L38.4434 6.69443C38.4925 6.4884 38.6887 6.36086 38.8948 6.40991Z" fill="#3B2645"/>
<path d="M38.4836 5.38005C38.4836 5.38005 39.7788 5.29175 40.1125 6.35133C40.1125 6.35133 40.0732 5.2427 39.2588 5.07591C38.4444 4.90913 38.1795 5.33099 38.4836 5.38005Z" fill="#3B2645"/>
<path d="M47.6584 15.7115C43.2527 14.9659 46.1767 24.2568 46.1767 24.2568L52.7705 26.2484L55.2138 18.7431C51.3772 17.0556 47.6584 15.7115 47.6584 15.7115Z" fill="#AB8DA8"/>
<path d="M53.8011 37.6663C53.8011 37.6663 51.4756 38.4806 51.2499 38.8436C51.0242 39.2066 51.2401 40.4918 51.2401 40.4918C50.9948 40.8842 50.7985 41.2963 50.6612 41.7378C50.4649 42.3951 50.9555 42.1989 51.5345 42.866C52.1134 43.5332 52.5844 43.3664 52.918 43.6705C53.2516 43.9746 53.9286 43.8765 54.1936 44.0041C54.4585 44.1316 54.9589 44.5633 55.2631 44.5437C55.5673 44.5241 56.2836 43.4841 56.8723 42.1793C57.461 40.8744 57.3531 39.8149 57.618 38.2451C57.883 36.6754 64.0744 26.5801 63.3483 23.8428C62.9853 22.4791 59.0408 20.4385 55.2042 18.7412L52.761 26.2465L56.2541 27.3061L53.8011 37.6663Z" fill="#FFEDE5"/>
<path d="M57.3036 27.6798C57.2938 27.6798 57.284 27.6798 57.2741 27.6798L56.2242 27.3953C56.1752 27.3855 56.1359 27.3266 56.1556 27.2776C56.1654 27.2285 56.2242 27.1991 56.2733 27.2089L57.3232 27.4934C57.3723 27.5032 57.4115 27.5621 57.3919 27.6112C57.3919 27.6504 57.3526 27.6798 57.3036 27.6798Z" fill="#472938"/>
<path d="M65.281 62.8324L69.0979 60.9193C69.0979 60.9193 69.0096 60.1737 69.775 59.33C70.5403 58.4863 69.9712 56.5339 69.2549 56.2199C68.5386 55.906 68.1854 56.1218 67.5672 55.1113L62.043 57.5052L65.281 62.8324Z" fill="#FFEDE5"/>
<path d="M69.2453 56.2204C69.9616 56.5343 70.5209 58.4867 69.7654 59.3304C69.0098 60.1741 69.0883 60.9198 69.0883 60.9198C72.3558 61.3613 75.427 66.1489 76.0059 66.6885C76.5848 67.2281 78.9299 66.8455 78.9986 66.4433C79.0673 66.041 73.9748 52.61 73.5038 52.3157C73.0328 52.0213 67.5576 55.1118 67.5576 55.1118C68.1758 56.1223 68.529 55.9064 69.2453 56.2204Z" fill="#AB8DA8"/>
<path d="M78.9982 66.4436C79.057 66.0414 73.9743 52.6104 73.5033 52.316C73.3856 52.2376 72.9539 52.3749 72.3848 52.6202C73.7388 55.3083 77.1927 64.5698 78.0464 66.8655C78.5566 66.7674 78.9687 66.6104 78.9982 66.4436Z" fill="#E5E5E5"/>
<path d="M35.8545 48.6464C35.8545 48.6464 44.607 71.6037 48.2964 71.9079C51.9857 72.212 66.9591 62.1559 66.9591 62.1559L64.1725 56.5735L51.5246 60.7431L48.3748 46.3311L35.8545 48.6464Z" fill="#3B2645"/>
<g opacity="0.5">
<path opacity="0.5" d="M48.3749 46.3408L35.8545 48.6464C35.8545 48.6464 38.1015 54.5329 40.79 60.3801L49.4149 51.1481L48.3749 46.3408Z" fill="#3B2645"/>
</g>
<path d="M12.8557 81.7568L11.168 85.6713C11.168 85.6713 11.7175 86.1913 11.6782 87.3196C11.639 88.4478 13.3267 89.5859 14.0822 89.3602C14.8377 89.1346 14.9653 88.7421 16.0937 89.1248L18.7822 83.7288L12.8557 81.7568Z" fill="#FFEDE5"/>
<path d="M12.2656 83.1206C12.2656 83.1206 14.5813 85.5439 17.6133 86.054L18.7711 83.7289L12.8544 81.7471L12.2656 83.1206Z" fill="#E0855C"/>
<path d="M45.9118 38.5898C45.9118 38.5898 51.0338 44.5254 48.3649 49.2346C45.6959 53.9438 29.7904 62.5969 28.711 65.2557C27.6317 67.9144 27.0233 70.9852 24.8156 74.6741C22.6079 78.3629 19.0853 84.8675 19.0853 84.8675C19.0853 84.8675 13.7573 84.6615 12.0205 82.3559C12.0205 82.3559 20.616 60.6053 22.6667 57.7896C24.7175 54.9739 34.3923 43.044 34.3923 43.044L34.1961 40.7777L45.9118 38.5898Z" fill="#3B2645"/>
<path d="M16.6616 84.0931C16.6518 84.0931 16.6518 84.0931 16.642 84.0931C16.6224 84.0833 16.6028 84.0539 16.6224 84.0244C16.7205 83.8184 26.1893 63.6474 28.083 61.2928C28.7797 60.4196 30.8304 58.3691 33.1952 55.9949C37.2476 51.9332 42.2813 46.8807 42.9583 45.3305C44.018 42.9171 43.3116 39.5225 43.3018 39.4833C43.2919 39.4539 43.3116 39.4342 43.341 39.4244C43.3704 39.4146 43.3901 39.4342 43.3999 39.4637C43.4097 39.4931 44.1162 42.9269 43.0466 45.3698C42.3598 46.9297 37.3163 51.9921 33.2639 56.0636C30.8991 58.4378 28.8582 60.4785 28.1615 61.3516C26.2776 63.6964 16.8088 83.8577 16.7205 84.0637C16.7009 84.0833 16.6813 84.0931 16.6616 84.0931Z" fill="white"/>
<path d="M15.3169 83.7888C15.3071 83.7888 15.3071 83.7888 15.2973 83.7888C15.2777 83.779 15.258 83.7496 15.2777 83.7202C15.3758 83.5141 25.1978 62.7348 26.336 60.9885C26.9149 60.0957 30.3688 56.4461 33.705 52.924C37.0019 49.4411 40.4165 45.8308 41.0739 44.8693C42.3887 42.9464 42.114 39.8265 42.114 39.7971C42.114 39.7677 42.1336 39.748 42.1631 39.748C42.1925 39.748 42.2121 39.7677 42.2121 39.7971C42.2121 39.8265 42.4967 42.9856 41.1524 44.938C40.4852 45.9092 37.0705 49.5196 33.7736 53.0123C30.4375 56.5344 26.9934 60.184 26.4145 61.067C25.2861 62.8133 15.4543 83.5828 15.3562 83.7888C15.3562 83.779 15.3365 83.7888 15.3169 83.7888Z" fill="white"/>
<path d="M14.0715 89.3705C13.3257 89.5863 11.6282 88.4581 11.6675 87.3299C11.7067 86.2016 11.1572 85.6816 11.1572 85.6816C8.37058 87.4476 2.94444 85.7601 2.14965 85.7209C1.35486 85.6816 -0.195463 87.4868 0.0204048 87.8302C0.236273 88.1736 12.7664 95.1785 13.3257 95.1098C13.885 95.0412 16.0732 89.1449 16.0732 89.1449C14.9546 88.7524 14.827 89.1547 14.0715 89.3705Z" fill="#AB8DA8"/>
<path d="M0.030583 87.8295C0.236639 88.1729 12.7766 95.1778 13.3359 95.1091C13.4733 95.0895 13.7186 94.7167 13.9933 94.1575C11.2263 92.9704 2.61119 88.1042 0.491756 86.8975C0.158141 87.2899 -0.0577267 87.6823 0.030583 87.8295Z" fill="#E5E5E5"/>
<g opacity="0.5">
<path opacity="0.5" d="M34.3929 43.0445C34.3929 43.0445 40.2116 42.3185 40.1527 42.3381C40.0938 42.3577 34.3145 42.083 34.3145 42.083L34.3929 43.0445Z" fill="#3B2645"/>
</g>
</svg>
