<svg width="62" height="97" viewBox="0 0 62 97" fill="none" xmlns="http://www.w3.org/2000/svg">
<path d="M25.8625 96.9996C35.6592 96.9996 43.601 96.8004 43.601 96.5545C43.601 96.3087 35.6592 96.1094 25.8625 96.1094C16.0658 96.1094 8.12402 96.3087 8.12402 96.5545C8.12402 96.8004 16.0658 96.9996 25.8625 96.9996Z" fill="#3B2645"/>
<path d="M25.9069 96.5549C37.652 96.5549 47.1732 87.0498 47.1732 75.3248C47.1732 63.5998 37.652 54.0947 25.9069 54.0947C14.1619 54.0947 4.64062 63.5998 4.64062 75.3248C4.64062 87.0498 14.1619 96.5549 25.9069 96.5549Z" fill="#FA9E97"/>
<path d="M22.1895 90.1583C20.5161 90.1583 18.8426 89.9675 17.1873 89.5678C11.3257 88.1779 6.37772 84.4715 3.25697 79.1208C0.13623 73.7792 -0.77738 67.4384 0.669922 61.2701C2.11722 55.1019 5.76262 49.8511 10.9367 46.4718C16.1108 43.0924 22.1895 42.0023 28.0511 43.3922C33.9126 44.7821 38.8606 48.4885 41.9814 53.8392C45.1021 59.1807 46.0157 65.5216 44.5684 71.6898C43.1211 77.8581 39.4667 83.1088 34.3016 86.4882C30.5929 88.9046 26.4229 90.1583 22.1895 90.1583ZM23.076 42.9925C12.8273 42.9925 3.4017 50.4144 0.832744 61.3156C-0.605513 67.4384 0.308097 73.7247 3.40171 79.03C6.49531 84.3352 11.4071 88.0144 17.2234 89.3952C18.8697 89.7858 20.5341 89.9766 22.1895 89.9766C26.3867 89.9766 30.5205 88.7411 34.2021 86.3338C39.331 82.9817 42.9492 77.7673 44.3965 71.6444C45.8348 65.5216 44.9212 59.2352 41.8276 53.93C38.734 48.6248 33.8222 44.9456 28.0058 43.5648C26.3595 43.1742 24.7042 42.9925 23.076 42.9925Z" fill="white"/>
<path d="M15.061 79.2023C13.08 79.2023 11.2708 78.7026 9.72404 77.6852C6.51283 75.5776 4.83035 71.5351 5.00221 66.2935C5.17408 61.0609 7.15508 55.2651 10.5924 49.9689C14.0298 44.6728 18.5073 40.5031 23.2111 38.232C27.9148 35.9609 32.2839 35.8701 35.4951 37.9685C38.7063 40.0761 40.3887 44.1186 40.2169 49.3603C40.045 54.5929 38.064 60.3887 34.6267 65.6848C31.1893 70.981 26.7117 75.1507 22.008 77.4218C19.5657 78.6118 17.2138 79.2023 15.061 79.2023ZM10.6557 50.0053L10.71 50.0416C7.28171 55.3196 5.30977 61.0972 5.1379 66.2935C4.97508 71.4897 6.63043 75.4868 9.7964 77.5671C16.3545 81.864 27.4444 76.4952 34.5091 65.6121C41.5737 54.7291 41.9808 42.3744 35.4227 38.0866C28.8646 33.7897 17.7747 39.1586 10.71 50.0416L10.6557 50.0053Z" fill="white"/>
<path d="M13.1708 71.0541C11.8682 71.0541 10.8009 70.6635 10.1767 69.8459C9.34451 68.7739 9.37164 67.1388 10.2581 65.2492C11.1355 63.3688 12.7366 61.4611 14.79 59.8622L14.8262 59.9076L14.79 59.8622C19.0324 56.5555 23.8718 55.6653 25.5724 57.8728C27.273 60.0802 25.2015 64.5588 20.9591 67.8655C18.2816 69.9277 15.3779 71.0541 13.1708 71.0541ZM14.8623 59.9531C12.8271 61.5337 11.235 63.4324 10.3667 65.2947C9.50733 67.1388 9.47115 68.7285 10.2762 69.7641C11.9316 71.9171 16.6896 71.0087 20.8867 67.7474C25.0839 64.4861 27.1373 60.0802 25.4729 57.9363C23.8085 55.7924 19.0505 56.6918 14.8623 59.9531Z" fill="white"/>
<g opacity="0.3">
<path opacity="0.3" d="M43.9258 64.0518C44.6947 66.2229 45.0837 68.5122 45.0746 70.8196C45.0746 82.0387 36.0199 91.123 24.8576 91.123C14.437 91.123 5.86179 83.2106 4.75822 73.0452C4.67681 73.7992 4.64062 74.5623 4.64062 75.3254C4.64062 87.0442 14.1657 96.5554 25.9069 96.5554C37.6481 96.5554 47.1732 87.0533 47.1732 75.3345C47.1822 71.3374 46.0515 67.422 43.9258 64.0518Z" fill="#543753"/>
</g>
<path d="M39.4485 16.7579C39.4485 16.7579 37.8836 17.7663 36.4001 20.21C34.9166 22.6537 33.3336 24.952 33.3336 24.952C33.3336 24.952 32.7547 20.001 33.0261 19.347C33.2974 18.6929 34.2744 17.2485 34.5005 16.7579C34.7267 16.2674 35.8031 15.5679 35.8121 15.2863C35.8212 15.0047 35.7036 14.1235 35.6584 14.0962C35.6131 14.069 35.0704 14.2688 34.989 14.5595C34.9257 14.7685 34.8804 14.9502 34.8804 14.9502C34.8804 14.9502 34.1477 15.359 34.0211 15.368C33.8945 15.3771 33.2974 15.0592 33.2884 15.0047C33.2794 14.9502 33.7859 13.7692 33.9397 13.7056C34.0935 13.642 34.9437 14.3052 35.1066 14.3052C35.2694 14.3052 35.6131 14.0871 35.6312 13.96C35.6493 13.8328 34.5729 12.7245 34.4824 12.7154C34.392 12.7063 33.4693 12.5428 33.3427 12.6337C33.216 12.7245 32.5286 13.3241 32.5286 13.3241C32.5286 13.3241 32.5286 11.2619 32.5286 10.844C32.5286 10.4262 32.4381 9.13619 32.2481 9.04535C32.0582 8.97267 31.8501 8.9545 31.6511 8.98176C31.5607 9.00901 31.5064 9.58132 31.5064 9.58132C31.5064 9.58132 31.027 9.50865 30.9004 9.60857C30.7737 9.7085 30.5114 13.6148 30.5114 13.6511C30.5114 13.6874 29.833 12.8608 29.7516 12.7063C29.6701 12.5519 29.3897 11.6071 29.2631 11.5708C29.1365 11.5345 28.7746 11.5072 28.7294 11.598C28.6842 11.6889 28.9736 13.0515 28.9917 13.206C29.0098 13.3604 29.8692 15.1954 29.9144 15.477C29.9596 15.7587 30.1405 18.1206 30.1948 18.6021C30.2491 19.0835 29.643 24.7431 29.5073 27.105C29.3716 29.4669 29.4892 31.5836 29.634 31.8016C29.7787 32.0196 30.9637 32.7918 31.5969 32.4738C32.2301 32.1559 33.9759 30.7841 35.6403 29.1853C37.3047 27.5865 39.2676 25.488 39.2676 25.488L39.4485 16.7579Z" fill="#FFEDE5"/>
<path d="M33.3252 24.9433C33.3252 24.9433 33.488 26.2151 33.5513 27.3597C33.5513 27.3597 33.9041 26.2787 33.7322 24.3438L33.3252 24.9433Z" fill="#DE835C"/>
<path d="M30.4118 14.8324C30.4028 14.8324 30.3937 14.8324 30.3847 14.8234C30.3666 14.8052 30.3666 14.7779 30.3847 14.7598C30.656 14.4509 32.2028 13.4698 32.2662 13.4244C32.2843 13.4153 32.3114 13.4153 32.3295 13.4425C32.3385 13.4607 32.3385 13.488 32.3114 13.5061C32.2933 13.5152 30.7103 14.5236 30.448 14.8234C30.4389 14.8324 30.4208 14.8324 30.4118 14.8324Z" fill="#472938"/>
<path d="M31.5974 13.0873C31.5974 13.0873 31.5884 13.0873 31.5974 13.0873C31.5703 13.0873 31.5522 13.0692 31.5522 13.0419C31.5522 13.0146 31.6607 10.5982 31.6336 10.1622C31.6065 9.75338 31.4798 9.63528 31.4798 9.63528C31.4617 9.61711 31.4617 9.58986 31.4708 9.57169C31.4889 9.55352 31.516 9.55352 31.5341 9.56261C31.5522 9.57169 31.6879 9.70796 31.715 10.1531C31.7422 10.5982 31.6336 12.9511 31.6336 13.051C31.6336 13.0692 31.6155 13.0873 31.5974 13.0873Z" fill="#472938"/>
<path d="M31.8773 16.876C31.8682 16.876 31.8682 16.8669 31.8773 16.876C31.8411 16.8669 31.832 16.8488 31.832 16.8215C32.022 15.7496 33.207 14.9956 33.2522 14.9683C33.2703 14.9592 33.2974 14.9592 33.3155 14.9865C33.3246 15.0047 33.3246 15.0319 33.2974 15.0501C33.2884 15.0592 32.0944 15.8132 31.9134 16.8488C31.9134 16.8579 31.8954 16.876 31.8773 16.876Z" fill="#472938"/>
<path d="M40.4525 95.7826C40.4887 95.9734 40.9138 96.6002 43.0576 96.791C45.2014 96.9818 47.8247 96.2005 49.1182 96.0552C50.2037 95.9371 51.5877 95.5283 52.0038 95.392C52.0761 95.3738 52.1304 95.3012 52.1304 95.2194C52.1304 95.0922 52.1214 94.8833 52.1123 94.6289C50.3575 94.6562 47.879 95.3102 44.9029 95.719C42.6596 96.0279 41.149 95.4374 40.4887 95.0831C40.4525 95.3193 40.4434 95.5464 40.4525 95.7826Z" fill="#3B2645"/>
<path d="M51.841 90.4496C51.054 90.5223 50.7284 91.1764 50.3485 91.3944C49.9686 91.6124 48.8469 91.7033 48.9464 90.277C49.0459 88.8508 47.9514 88.4238 47.9514 88.4238C47.6529 88.4329 46.8478 90.0318 45.4819 91.7578C44.116 93.4838 40.8415 94.3922 40.6968 94.4467C40.6154 94.474 40.5521 94.7738 40.5068 95.0826C41.1672 95.4279 42.6778 96.0274 44.9211 95.7186C47.8881 95.3098 50.3756 94.6557 52.1305 94.6284C52.1033 93.6927 52.0491 92.0939 51.9586 91.4126C51.9043 91.1491 51.8772 90.8039 51.841 90.4496Z" fill="#AB8DA8"/>
<path d="M48.9464 90.2868C48.856 91.713 49.9686 91.6222 50.3485 91.4042C50.7284 91.1861 51.0631 90.5321 51.8411 90.4594C51.7687 89.5419 51.7144 88.5608 51.7144 88.5608L47.9424 88.4336C47.9514 88.4336 49.0369 88.8696 48.9464 90.2868Z" fill="#FFEDE5"/>
<path d="M44.8035 93.8115C46.5765 93.648 48.9464 90.5957 48.9464 90.5957C48.9374 90.4957 48.9374 90.3867 48.9464 90.2868C49.0369 88.8606 47.9514 88.4336 47.9514 88.4336C47.6529 88.4427 46.8479 90.0415 45.482 91.7675C44.9573 92.4398 44.1342 92.9848 43.3291 93.4027C43.7452 93.7298 44.2698 93.8751 44.8035 93.8115Z" fill="#3B2645"/>
<path d="M34.1206 95.2378C34.2744 95.7192 35.2604 95.8918 37.4403 95.8918C39.6203 95.8918 40.6606 92.0038 41.5471 91.2134C42.4335 90.4322 44.2698 87.7432 44.2698 87.2799C44.2698 87.1437 43.9984 86.8075 43.6095 86.3896C43.2205 87.2254 42.3521 88.906 41.0767 90.1142C40.0184 91.1226 39.9731 94.511 37.3408 95.1379C36.1106 95.4285 34.9618 95.1015 34.0935 94.6746C34.0573 94.8653 34.0754 95.0561 34.1206 95.2378Z" fill="#3B2645"/>
<path d="M40.9144 83.7822C39.9827 84.7815 40.2812 85.9988 40.236 86.4894C40.1908 86.9799 38.5173 87.1071 38.255 86.9981C37.9927 86.8891 37.7123 86.4803 37.1876 86.4894C36.871 86.4984 36.5816 86.6529 36.4097 86.9163C36.274 88.6514 36.0298 90.7136 35.9212 91.5311C35.7403 92.8847 34.9624 93.2299 34.5734 93.5024C34.3021 93.6841 34.1211 94.2201 34.085 94.6834C34.9533 95.1104 36.1021 95.4374 37.3323 95.1467C39.9737 94.529 40.0099 91.1314 41.0682 90.1231C42.3436 88.9149 43.212 87.2434 43.601 86.3985C42.6602 85.3811 41.032 83.9185 40.9144 83.7822Z" fill="#AB8DA8"/>
<path d="M37.1776 86.48C37.7113 86.4709 37.9827 86.8797 38.245 86.9887C38.5073 87.0977 40.1808 86.9706 40.226 86.48C40.2712 85.9895 39.9727 84.7722 40.9044 83.7729C40.7416 83.573 40.1808 82.5283 40.1808 82.5283L36.463 84.3724C36.5263 84.8085 36.4811 85.7896 36.3906 86.907C36.5715 86.6435 36.87 86.4891 37.1776 86.48Z" fill="#FFEDE5"/>
<path d="M36.7796 92.5853C38.1003 92.1038 38.245 86.9893 38.245 86.9893C37.9827 86.8803 37.7023 86.4715 37.1776 86.4806C36.861 86.4897 36.5716 86.6441 36.3997 86.9076C36.264 88.6427 36.0198 90.7048 35.9112 91.5224C35.866 91.9403 35.7213 92.34 35.4951 92.6943C35.9293 92.767 36.3725 92.7216 36.7796 92.5853Z" fill="#3B2645"/>
<path d="M52.3928 36.0352C52.3928 36.0352 57.1689 44.1565 57.1689 48.2717C57.1689 52.3869 53.0622 66.1497 52.9898 68.0029C52.9175 69.8561 54.3738 73.9077 53.9125 77.9957C53.4512 82.0836 51.7144 88.5516 51.7144 88.5516C51.7144 88.5516 49.3806 88.9059 47.9424 88.4245C47.9424 88.4245 47.879 76.2696 47.0288 71.3005C46.1785 66.3314 45.5181 55.8026 45.5181 55.8026C45.5181 55.8026 36.7891 65.2776 36.5087 66.8492C36.2283 68.4208 37.8293 69.4564 38.5892 74.1984C39.349 78.9404 40.1903 82.5378 40.1903 82.5378C40.1903 82.5378 38.4716 84.5727 36.4725 84.3819C36.4725 84.3819 29.0279 67.5487 29.4531 65.3503C29.8782 63.1519 38.4897 46.9636 38.8063 45.0468C39.1229 43.13 39.349 40.6954 39.747 38.1972L52.3928 36.0352Z" fill="#3B2645"/>
<path d="M46.4764 41.4945C49.4976 40.9858 51.8947 39.169 53.3511 37.77C52.7903 36.7162 52.3922 36.0439 52.3922 36.0439L39.7374 38.1969C39.6469 38.7602 39.5655 39.3234 39.4932 39.8775C40.6601 40.7678 43.03 42.0759 46.4764 41.4945Z" fill="#3B2645"/>
<g opacity="0.5">
<path opacity="0.5" d="M45.527 55.8035V51.9881C45.527 51.9881 44.3872 49.717 44.2787 47.8184L44.541 53.4143L42.0625 59.6734L45.527 55.8035Z" fill="#543753"/>
</g>
<path d="M39.748 33.0554C40.0104 34.3544 39.748 38.1971 39.748 38.1971C39.748 38.1971 40.3812 39.6233 43.7824 40.1865C47.1836 40.7498 52.3938 36.035 52.3938 36.035C51.9054 34.9267 51.824 33.6549 51.8602 32.6738C44.2709 31.5019 39.748 33.0554 39.748 33.0554Z" fill="#FFEDE5"/>
<path d="M52.059 35.0172C51.8872 34.245 51.8238 33.4638 51.86 32.6734C50.9464 32.5281 50.078 32.4281 49.2549 32.3555L49.4629 34.1905L52.059 35.0172Z" fill="#DE835C"/>
<path d="M44.1804 23.4349C48.9746 22.9988 50.4309 18.9018 50.8651 16.6126L49.5806 16.2492L43.321 15.6133L41.4848 16.0857C40.5169 19.4378 40.0103 23.8073 44.1804 23.4349Z" fill="#FFEDE5"/>
<path d="M54.4642 17.6031L52.5465 17.0762C51.3344 27.5595 53.6139 27.2779 53.6139 27.2779L54.2471 25.6154L54.4642 17.6031Z" fill="#FFEDE5"/>
<path d="M52.0224 31.0929C53.6416 29.6395 53.6144 27.2775 53.6144 27.2775C53.6144 27.2775 51.3259 27.5591 52.547 17.0758L50.8646 16.6125C50.4213 18.9018 48.965 23.0079 44.1798 23.4349C40.0098 23.8073 40.5163 19.4378 41.4933 16.0947L39.6027 16.5853C39.6027 16.5853 37.4047 23.7892 37.3413 26.3964C37.2961 28.0679 38.2911 30.3299 39.0238 31.7379C43.9356 29.6395 52.0224 31.0929 52.0224 31.0929Z" fill="#AB8DA8"/>
<path d="M51.8592 32.6737C51.8773 32.1378 51.9316 31.6109 52.0311 31.084C52.0311 31.084 43.9443 29.6305 39.0234 31.729C39.4305 32.5193 39.7471 33.0462 39.7471 33.0462C39.7471 33.0462 44.2699 31.5019 51.8592 32.6737Z" fill="#3B2645"/>
<path d="M52.5476 17.0664C52.5476 17.0664 53.434 22.0264 50.1776 27.8586L49.8067 31.8193L50.1233 40.8582C50.1233 40.8582 48.676 41.2489 47.9071 41.2489C47.1383 41.2489 46.0618 41.6032 46.0618 41.6032L45.9081 40.1406L45.094 40.1588C45.094 40.1588 44.8588 37.1882 45.8719 34.7536C46.885 32.319 47.3735 30.8473 47.5363 28.3401C47.6991 25.8328 47.1383 22.4716 48.9926 17.3571L52.5476 17.0664Z" fill="white"/>
<path d="M54.2572 25.6159L53.7145 23.5537L53.624 27.2692L54.2572 25.6159Z" fill="#DE835C"/>
<path d="M43.7637 39.6333C43.8586 39.6333 43.9355 39.5154 43.9355 39.3699C43.9355 39.2244 43.8586 39.1064 43.7637 39.1064C43.6687 39.1064 43.5918 39.2244 43.5918 39.3699C43.5918 39.5154 43.6687 39.6333 43.7637 39.6333Z" fill="#DE835C"/>
<path d="M43.6279 12.761C43.6279 12.761 43.664 16.5037 41.6559 21.4819C39.6478 26.4601 39.4849 28.2134 39.9553 33.0463C40.4257 37.8791 39.2679 41.74 39.2679 41.74C39.2679 41.74 33.9128 42.8573 31.7871 39.9594C31.7871 39.9594 34.4103 33.8911 35.5863 26.6418C36.7622 19.3925 39.6025 16.5673 39.6025 16.5673C39.6025 16.5673 40.1453 15.0048 41.3755 15.1683C41.3755 15.1865 42.3705 12.6974 43.6279 12.761Z" fill="white"/>
<path d="M36.934 36.9338C36.9069 36.9338 36.8888 36.9157 36.8888 36.8884C36.527 30.1297 38.4808 23.9887 39.5301 20.6911L39.6025 20.473C39.6115 20.4458 39.6387 20.4367 39.6568 20.4458C39.6839 20.4549 39.6929 20.4821 39.6839 20.5003L39.6115 20.7183C38.5622 24.0159 36.6174 30.1388 36.9793 36.8793C36.9793 36.9157 36.9612 36.9338 36.934 36.9338Z" fill="#472938"/>
<path d="M40.0728 19.1197H40.0637C40.0366 19.1107 40.0275 19.0834 40.0366 19.0652C40.7874 16.4762 41.3301 15.1862 41.3392 15.1771C41.3482 15.1499 41.3754 15.1408 41.4025 15.1499C41.4296 15.159 41.4387 15.1862 41.4296 15.2135C41.4206 15.2226 40.8778 16.5125 40.1361 19.0925C40.109 19.1016 40.0909 19.1197 40.0728 19.1197Z" fill="#472938"/>
<path d="M36.7806 24.7073H36.7715C36.7444 24.6982 36.7354 24.6801 36.7354 24.6528C37.5223 21.5914 39.5395 16.6223 39.5576 16.5678C39.5666 16.5405 39.5938 16.5314 39.6209 16.5405C39.6481 16.5496 39.6571 16.5769 39.6481 16.6041C39.63 16.6495 37.6128 21.6187 36.8258 24.671C36.8258 24.6892 36.8077 24.7073 36.7806 24.7073Z" fill="#472938"/>
<path d="M45.9164 40.196C45.8892 40.196 45.8712 40.1778 45.8712 40.1505C45.8712 40.1233 45.8531 37.0891 46.441 35.681C46.4501 35.6538 46.4772 35.6447 46.5044 35.6538C46.5315 35.6629 46.5405 35.6901 46.5315 35.7174C45.9526 37.1073 45.9707 40.1233 45.9707 40.1505C45.9616 40.1778 45.9435 40.196 45.9164 40.196Z" fill="#472938"/>
<path d="M46.8571 39.6786C46.8299 39.6786 46.8119 39.6605 46.8119 39.6332C46.8119 39.6059 46.7123 37.0714 47.2551 35.1637C47.7978 33.2742 47.9426 30.0492 47.9426 30.022C47.9426 29.9947 47.9607 29.9766 47.9878 29.9766C48.0149 29.9766 48.033 29.9947 48.033 30.022C48.033 30.0583 47.8883 33.2833 47.3455 35.191C46.8028 37.0805 46.9023 39.6059 46.9023 39.6241C46.9023 39.6514 46.8842 39.6786 46.8571 39.6786Z" fill="#472938"/>
<path d="M48.7025 35.6089C48.6934 35.6089 48.6934 35.6089 48.7025 35.6089C48.6663 35.5998 48.6572 35.5816 48.6572 35.5544C49.01 33.7012 48.7296 29.8858 48.7296 29.8403C48.7296 29.8131 48.7477 29.7949 48.7748 29.7949C48.802 29.7949 48.82 29.8131 48.82 29.8403C48.82 29.8767 49.1005 33.7103 48.7477 35.5726C48.7386 35.5907 48.7205 35.6089 48.7025 35.6089Z" fill="#472938"/>
<path d="M49.3714 28.2863C49.3352 28.2772 49.3262 28.259 49.3262 28.2317C49.3352 28.1954 49.896 24.7252 50.4388 23.1264C50.4478 23.0991 50.475 23.09 50.4931 23.0991C50.5202 23.1082 50.5292 23.1354 50.5202 23.1536C49.9865 24.7434 49.4166 28.2045 49.4166 28.2408C49.4166 28.2681 49.3985 28.2863 49.3714 28.2863Z" fill="#472938"/>
<path d="M48.7025 27.905C48.6844 27.905 48.6663 27.8869 48.6573 27.8687C48.6573 27.8505 48.3588 26.3153 48.7478 23.5446C48.7478 23.5173 48.7749 23.4991 48.802 23.5082C48.8292 23.5082 48.8473 23.5355 48.8382 23.5627C48.4583 26.3244 48.7478 27.8414 48.7478 27.8596C48.7478 27.8778 48.7297 27.905 48.7025 27.905Z" fill="#472938"/>
<path d="M49.5264 9.87207L49.5807 16.2493H43.2578L43.8639 10.5625L49.5264 9.87207Z" fill="#FFEDE5"/>
<path d="M43.8623 10.5625C43.8623 10.5625 44.785 16.6036 49.552 13.0607L49.5249 9.87207L43.8623 10.5625Z" fill="#DE835C"/>
<path d="M42.8462 9.5952C43.2547 9.47844 43.3972 8.71877 43.1647 7.89844C42.9322 7.07811 42.4126 6.50775 42.0042 6.62452C41.5957 6.74128 41.4532 7.50095 41.6857 8.32128C41.9182 9.14161 42.4378 9.71197 42.8462 9.5952Z" fill="#DE835C"/>
<path d="M49.5353 10.4722C49.5353 10.4722 49.5172 12.0256 49.4448 13.0612C49.4448 13.0612 48.7031 15.4141 49.0378 17.6034C49.3725 19.7927 49.2639 21.4097 48.7393 22.191L49.3272 21.9093C49.3272 21.9093 52.3394 21.9457 52.3032 17.5398C52.3032 17.5398 53.8229 15.0689 51.5434 12.171C49.2639 9.27305 50.5484 7.69238 50.5484 7.69238C50.5484 7.69238 49.6076 8.16477 49.5353 10.4722Z" fill="#3B2645"/>
<path d="M50.5291 7.68359C50.5291 7.68359 49.6064 8.16506 49.525 10.4725C49.525 10.4725 49.5069 12.0259 49.4346 13.0615C49.7964 12.0986 50.1039 11.1175 50.3572 10.1182C49.8416 8.52844 50.5291 7.68359 50.5291 7.68359Z" fill="#3B2645"/>
<path d="M50.9087 8.18569C51.1541 7.3692 51.0236 6.60739 50.6171 6.48415C50.2106 6.3609 49.682 6.92289 49.4366 7.73938C49.1912 8.55587 49.3217 9.31768 49.7282 9.44093C50.1347 9.56418 50.6633 9.00219 50.9087 8.18569Z" fill="#FFEDE5"/>
<path d="M42.3248 3.64961C42.3248 3.64961 42.162 8.37346 42.7861 10.3538C43.4103 12.3342 44.9661 13.5879 45.9883 13.5879C47.0104 13.5879 49.0005 12.8429 49.7784 9.66343C50.5563 6.48392 50.4659 2.4959 47.128 1.4512C43.7902 0.406506 42.3248 2.59583 42.3248 3.64961Z" fill="#FFEDE5"/>
<path d="M50.1586 7.06532C50.1586 7.06532 49.9777 5.78443 49.2903 5.08493C48.6028 4.38544 47.1917 3.91306 47.454 2.79568C47.454 2.79568 46.5494 3.33166 44.9212 3.33166C43.293 3.33166 42.1713 4.60346 42.3342 6.76553L42.1261 6.62018C42.1261 6.62018 41.3482 3.54968 42.298 2.05985C43.2568 0.570023 45.5182 -0.374747 47.3454 0.14306C49.1727 0.660866 51.226 1.88725 51.0451 4.28551C50.9908 5.0486 50.8823 5.80259 50.7195 6.54751C50.7195 6.53842 50.1948 6.62018 50.1586 7.06532Z" fill="#3B2645"/>
<path d="M43.7824 7.43846C43.6376 7.43846 43.52 7.32944 43.511 7.18409L43.502 7.02058C43.502 6.87523 43.6105 6.75713 43.7552 6.74805C43.9 6.74805 44.0176 6.85706 44.0266 7.00241L44.0356 7.16593C44.0356 7.31128 43.9271 7.43846 43.7824 7.43846Z" fill="#472938"/>
<path d="M47.8251 7.57351C47.6803 7.55534 47.5808 7.41907 47.608 7.27372L47.6351 7.11021C47.6532 6.96486 47.7889 6.86493 47.9336 6.89218C48.0784 6.91035 48.1779 7.04662 48.1507 7.19197L48.1236 7.35548C48.0965 7.50083 47.9608 7.59168 47.8251 7.57351Z" fill="#472938"/>
<path d="M42.8408 6.3301C42.8408 6.3301 43.0851 6.05757 43.6549 6.04848C44.2248 6.0394 44.4057 6.0939 44.4419 5.91222C44.4781 5.73053 43.2569 5.26723 42.8408 6.3301Z" fill="#472938"/>
<path d="M48.7836 6.24769C48.7836 6.24769 48.5122 5.99333 47.8971 6.02059C47.282 6.04784 47.1011 6.11143 47.0558 5.93883C47.0106 5.76623 48.3042 5.21208 48.7836 6.24769Z" fill="#472938"/>
<path d="M47.1732 10.2624L44.7852 10.1807C44.7852 10.1807 44.9118 11.8249 45.9792 11.7977C47.0466 11.7704 47.1732 10.2624 47.1732 10.2624Z" fill="white"/>
<path d="M45.835 9.54525C45.6812 9.54525 45.5365 9.50891 45.4189 9.4544C45.3194 9.3999 45.2652 9.32722 45.238 9.24546C45.1837 9.03652 45.2923 8.5278 45.4189 7.8919L45.4642 7.69205C45.6722 6.66552 45.1114 6.3839 45.0842 6.37482C45.0571 6.36573 45.0481 6.3294 45.0571 6.30214C45.0661 6.27489 45.1023 6.26581 45.1295 6.27489C45.1566 6.28398 45.7898 6.60193 45.5637 7.71021L45.5184 7.91007C45.3918 8.50963 45.2923 9.03653 45.3375 9.21821C45.3556 9.27272 45.3918 9.31814 45.4642 9.36356C45.636 9.4544 45.9074 9.47257 46.1607 9.39081C46.1878 9.38173 46.224 9.3999 46.233 9.42715C46.2421 9.4544 46.224 9.49074 46.1968 9.49983C46.0793 9.52708 45.9526 9.54525 45.835 9.54525Z" fill="#472938"/>
<path d="M54.4642 17.6035C54.4642 17.6035 56.3547 17.6944 57.2954 20.4015C58.2362 23.0995 61.2122 30.9484 61.3298 32.3928C61.4474 33.8372 61.0042 35 58.9508 35.427C57.205 35.7903 52.5736 34.4368 52.1937 34.4004C51.8138 34.3641 50.7374 34.3368 50.3755 33.71C50.0137 33.0832 49.8147 32.0203 49.8147 32.0203C49.8147 32.0203 48.8649 31.657 48.7021 31.657C48.5393 31.657 47.3905 31.7296 47.2819 31.557C47.1734 31.3844 47.1734 31.0574 47.2096 30.903C47.2096 30.903 47.0106 30.5396 47.0739 30.3216C47.0739 30.3216 46.8658 29.7947 46.8839 29.6766C46.902 29.5585 47.4628 29.2133 47.5804 29.186C47.698 29.1588 49.0549 29.1043 49.0549 29.1043C49.0549 29.1043 48.6478 28.6046 48.5755 28.5865C48.5031 28.5683 47.5352 28.6046 47.5352 28.6046L47.5171 28.8499C47.5171 28.8499 47.2548 28.6228 47.2096 28.4956C47.1643 28.3684 47.2458 27.996 47.3543 27.9506C47.4628 27.9051 48.7473 27.4782 49.1363 27.6144C49.5252 27.7507 50.7645 28.5138 50.9273 28.7681C51.0901 29.0225 52.0038 31.5752 52.2932 31.766C52.5827 31.9567 54.0662 32.1657 56.4361 31.657L53.0621 23.0904L54.4642 17.6035Z" fill="#FFEDE5"/>
</svg>
