<svg width="121" height="82" viewBox="0 0 121 82" fill="none" xmlns="http://www.w3.org/2000/svg">
<path d="M48.2292 31.5412C48.2292 31.5412 50.6932 11.6521 50.137 4.38844C49.8517 0.662772 48.0366 -0.180106 45.2623 0.0323845C42.488 0.244875 26.623 8.62053 26.623 8.62053L28.8839 14.039L42.0779 9.91672C42.0779 9.91672 40.7335 17.6549 40.4233 19.1246C40.1131 20.5944 39.4641 22.5741 38.947 24.3484C38.6938 25.2231 38.3408 26.3564 38.3408 26.9053C38.3479 28.2015 48.2292 31.5412 48.2292 31.5412Z" fill="#FFEDE5"/>
<path d="M42.0785 9.91696C43.9185 9.56281 45.755 8.48266 46.3327 7.62207C46.036 8.58976 45.381 9.4098 44.4998 9.91696C43.661 10.4541 42.7726 10.9106 41.8467 11.2804L42.0785 9.91696Z" fill="#F28F8F"/>
<path d="M73.2051 31.1866C72.9306 30.1738 71.1404 29.1078 65.8058 28.2189C60.4711 27.3299 55.6178 28.2189 55.5893 28.8457C55.5608 29.4726 56.9051 33.6622 63.0564 34.4271C69.2077 35.1921 73.7686 33.4107 73.2051 31.1866Z" fill="#3B2645"/>
<path d="M57.1584 39.7967C57.1584 39.7967 53.6816 17.4003 54.1809 12.8282C54.6979 8.10382 56.5023 5.91163 59.5298 5.60352C63.4845 7.88424 65.5919 13.3346 68.1202 18.7071C70.6485 24.0795 73.3871 35.6036 73.5333 41.1106C73.6795 46.6177 69.2934 50.5417 64.326 51.2571C59.3586 51.9724 57.1584 39.7967 57.1584 39.7967Z" fill="#FFEDE5"/>
<path d="M62.6218 22.2626C61.0174 20.9817 59.9333 19.168 59.5693 17.1557L64.5438 15.4346L67.8994 18.2076L67.9993 18.4236C68.0421 18.5157 68.0848 18.6078 68.1312 18.6998C68.2275 18.9052 68.3238 19.1213 68.42 19.3408C68.445 19.4046 68.4735 19.4683 68.5021 19.5356C68.5769 19.7056 68.6483 19.8898 68.7231 20.0669L68.798 20.251C68.8979 20.4954 68.9942 20.7468 69.094 21.0054C69.1903 21.2639 69.2866 21.5295 69.3829 21.7987C69.4042 21.8589 69.4256 21.9155 69.4435 21.9722L69.7002 22.7159C69.7002 22.7513 69.7252 22.7903 69.7394 22.8257C69.9391 23.4277 70.1388 24.051 70.3314 24.6885L70.3635 24.7912C70.4598 25.1064 70.5525 25.4252 70.6452 25.7474C70.6452 25.7474 66.0237 25.0887 62.6218 22.2626Z" fill="#F28F8F"/>
<path d="M58.4814 5.79425C60.3713 5.05408 62.6714 6.78587 63.8874 7.56501C66.3586 9.13743 81.4675 20.8315 84.9907 23.5726C85.7538 24.033 86.5312 24.4757 87.3228 24.8936L83.172 31.3391C82.8312 30.4128 82.2978 29.5682 81.6066 28.8601C77.8409 26.1898 70.5521 24.7342 65.8593 22.921C62.2078 21.5044 61.4447 20.7111 60.2144 18.6393C59.273 16.9996 55.8746 7.01961 58.4814 5.79425Z" fill="#FFEDE5"/>
<path d="M57.084 39.921L55.5898 28.8467C55.5898 28.8467 56.9306 31.8995 63.8343 32.7034C70.738 33.5073 73.3804 32.3492 73.2057 31.1876C73.2057 31.1876 75.01 38.1219 74.3111 42.6267C73.6122 47.1315 66.6835 51.9302 66.6835 51.9302L57.084 39.921Z" fill="#3B2645"/>
<path opacity="0.15" d="M60.1394 41.4366C59.5047 41.4366 58.9092 41.4755 58.3564 41.5109L66.0304 51.0978H67.8134C69.8032 49.5289 73.7935 46.0016 74.3141 42.6371C74.8276 39.3329 73.9932 34.7289 73.5118 32.5049C73.7863 35.0618 68.0273 41.2701 60.1394 41.4366Z" fill="black"/>
<path d="M94.7009 15.5229C92.2047 15.0625 91.0458 16.851 90.1258 18.3278C89.2058 19.8046 87.6653 22.5139 86.977 22.9707C86.2888 23.4276 85.9072 22.9707 84.9266 23.7038C83.946 24.4369 83.2292 25.8287 83.5323 26.3351L84.2455 27.5676C83.8343 27.5229 83.4183 27.5749 83.0311 27.7195C82.6439 27.864 82.2964 28.0971 82.0168 28.3998C80.947 29.4623 81.5033 29.6394 82.1059 30.2414C82.7086 30.8435 84.1243 33.5634 85.5435 34.3035C85.5435 34.3035 89.3662 33.1667 92.137 28.8602C94.9077 24.5538 94.7009 15.5229 94.7009 15.5229Z" fill="#AB8DA8"/>
<path d="M86.3318 34.8741C86.1855 34.8482 86.0463 34.7925 85.923 34.7103C85.7996 34.6281 85.6949 34.5213 85.6154 34.3967C85.5359 34.2721 85.4834 34.1324 85.4612 33.9866C85.439 33.8407 85.4477 33.6919 85.4866 33.5495C85.909 32.2216 86.5435 30.9696 87.3659 29.8416C88.3251 28.4887 90.1224 25.9459 90.4255 24.5541C90.7286 23.1623 91.3811 19.2631 92.4474 17.6305C93.5136 15.9978 94.6083 15.0558 96.0133 15.5835C97.4183 16.1112 92.9823 26.5621 91.6807 28.3329C90.3791 30.1036 86.3318 34.8741 86.3318 34.8741Z" fill="#3B2645"/>
<path d="M87.1515 34.6476C90.664 32.7883 91.8193 30.9821 92.857 28.627C93.8947 26.2719 96.3196 24.101 96.9472 21.9867C97.5748 19.8724 97.639 14.4504 95.2248 15.7643C92.8107 17.0781 92.3079 21.9265 91.2488 24.7278C90.1897 27.5291 83.7068 36.4785 87.1515 34.6476Z" fill="#3B2645"/>
<path d="M66.0413 40.3741C67.646 40.1297 70.7306 40.7884 73.5298 44.6699C76.5359 48.8383 77.0958 56.1125 75.2094 56.711C75.2094 56.711 70.8375 56.2011 67.835 54.6392C64.8325 53.0774 59.7866 42.5273 66.0413 40.3741Z" fill="#3B2645"/>
<path d="M117.32 75.0801C112.663 73.2633 108.851 70.1397 105.553 66.6478C102.9 63.0709 91.5314 47.7539 89.5595 45.5971C88.8463 44.8321 87.156 42.8631 84.8132 42.3708C76.5188 40.6 61.1602 40.8621 61.1602 40.8621L55.255 39.874L43.4873 50.8739C45.1098 52.5916 47.146 54.0896 50.1235 55.6302C53.1011 57.1707 56.3212 58.2899 60.6645 57.9251C69.3583 57.1955 74.5717 54.7554 79.2253 53.6753C80.5732 53.3636 81.9711 53.0768 83.0302 55.2725C84.0893 57.4682 84.1749 58.5696 87.3093 60.9035C91.3282 63.8996 97.9644 67.2499 100.86 70.8197C101.337 71.6948 101.621 72.6605 101.694 73.6529C101.969 77.4175 105.15 76.6773 107.714 78.3135C109.112 79.206 110.149 80.2897 111.832 80.658C113.365 80.9711 114.948 80.9421 116.468 80.573C117.837 80.2507 119.799 79.2697 120.473 77.9452C121.357 76.1815 118.661 75.6007 117.32 75.0801Z" fill="#FFEDE5"/>
<path d="M117.32 75.0801C112.663 73.2633 108.851 70.1397 105.553 66.6478C102.9 63.0709 91.5314 47.7539 89.5595 45.5971C88.8463 44.8321 87.156 42.8631 84.8132 42.3708C76.5188 40.6 61.1602 40.8621 61.1602 40.8621L55.255 39.874L43.4873 50.8739C45.1098 52.5916 47.146 54.0896 50.1235 55.6302C53.1011 57.1707 56.3212 58.2899 60.6645 57.9251C69.3583 57.1955 74.5717 54.7554 79.2253 53.6753C80.5732 53.3636 81.9711 53.0768 83.0302 55.2725C84.0893 57.4682 84.1749 58.5696 87.3093 60.9035C91.3282 63.8996 97.9644 67.2499 100.86 70.8197C101.337 71.6948 101.621 72.6605 101.694 73.6529C101.969 77.4175 105.15 76.6773 107.714 78.3135C109.112 79.206 110.149 80.2897 111.832 80.658C113.365 80.9711 114.948 80.9421 116.468 80.573C117.837 80.2507 119.799 79.2697 120.473 77.9452C121.357 76.1815 118.661 75.6007 117.32 75.0801Z" fill="#FFEDE5"/>
<path d="M87.0411 59.1194C86.1582 58.1475 85.4879 57.0043 85.0727 55.7621C84.7536 54.7237 84.3431 53.7152 83.846 52.7482C82.3982 50.2692 72.7915 53.4318 68.5373 54.7279C68.2984 55.0821 67.3 56.1445 66.9434 57.0299C72.0962 55.9852 75.8048 54.4659 79.2174 53.6726C80.5653 53.3609 81.9632 53.0741 83.0223 55.2698C84.0813 57.4655 84.1669 58.5669 87.3014 60.9008C88.9346 62.1191 90.9993 63.3798 93.0711 64.7221C90.7568 62.9372 89.0131 61.1487 87.0411 59.1194Z" fill="#F28F8F"/>
<path d="M56.1672 39.874C56.1672 39.874 64.6078 40.2848 66.0413 40.3875C66.0413 40.3875 62.864 41.2375 66.7295 48.9969C70.595 56.7564 75.2129 56.7139 75.2129 56.7139C69.1508 58.6405 66.0021 60.8043 58.2746 59.9012C49.0638 58.5803 43.4795 51.731 43.4795 51.731L56.1672 39.874Z" fill="#3B2645"/>
<path opacity="0.15" d="M75.1915 56.7143C75.1215 56.7188 75.0512 56.7188 74.9811 56.7143C74.2929 56.6364 72.246 56.1902 69.9531 53.7642C68.133 54.2464 66.2863 54.6236 64.4223 54.894C57.5329 55.8962 52.3659 54.6886 44.667 50.6123L43.4795 51.7243C46.5349 55.1463 50.4544 57.6966 54.8335 59.1119C55.1009 59.1934 55.3755 59.2748 55.6537 59.3492C55.914 59.4165 56.1779 59.4838 56.4417 59.544L56.5131 59.5617C56.7555 59.6183 57.0052 59.6679 57.2548 59.7175L57.3867 59.7423C57.6791 59.799 57.9715 59.8485 58.2711 59.891C58.756 59.9477 59.2196 59.9902 59.6689 60.0256C60.1182 60.061 60.5497 60.0787 60.9705 60.0929H61.5874C61.7907 60.0929 61.9904 60.0929 62.1865 60.0929C62.7749 60.0929 63.3347 60.0469 63.8732 59.9937C64.2298 59.9583 64.5792 59.9158 64.9216 59.8663C65.746 59.7422 66.5627 59.5719 67.3678 59.3563C67.6816 59.2713 67.9919 59.1827 68.2985 59.0871C69.0723 58.8534 69.8355 58.5913 70.62 58.308L71.5721 57.9538C72.6989 57.543 73.8828 57.111 75.2094 56.6895L75.1915 56.7143Z" fill="black"/>
<path d="M27.9425 29.3099C24.512 30.4928 21.2706 32.561 24.0199 38.6135C27.9425 47.3539 45.7223 57.0576 54.8512 59.1188C50.2154 52.1526 54.0738 44.7686 57.1013 39.9203L56.2847 33.9989C56.2847 33.9989 53.546 32.6921 49.0101 29.2108C44.4742 25.7295 42.5914 24.7839 35.8411 26.8238C31.2018 28.2262 27.9425 29.3099 27.9425 29.3099Z" fill="#AB8DA8"/>
<path opacity="0.05" d="M41.8398 49.065C32.5041 43.7527 29.5693 39.0213 25.9071 34.4775L23.5107 37.3816C23.5749 37.5693 23.6462 37.7605 23.7247 37.9588C23.7234 37.9694 23.7234 37.9801 23.7247 37.9907C23.8032 38.1926 23.8923 38.4015 23.9886 38.614C25.7288 42.4388 30.0971 46.4478 35.232 49.9362C35.9452 50.432 36.7155 50.9172 37.4715 51.3882C37.853 51.6255 38.2346 51.8592 38.6197 52.0965C41.2312 53.6493 43.9343 55.0448 46.7144 56.2755C49.3228 57.4713 52.039 58.42 54.827 59.1087C53.8116 57.61 53.133 55.9117 52.8372 54.1293C49.5921 53.159 46.1118 51.498 41.8398 49.065Z" fill="black"/>
<path d="M25.3682 30.4962C25.3682 30.4962 13.8537 24.3836 12.0315 23.5584L22.1089 17.6831L19.9694 12.1689C19.9694 12.1689 4.99234 17.4564 2.13957 18.9757C0.645438 19.7796 0 20.4419 0 21.5823C0 23.4841 1.8222 25.9489 4.3469 28.0845C9.71366 32.6282 16.9953 36.8603 24.088 40.7276C25.7141 41.9247 27.4044 43.4298 27.4044 43.4298C29.2694 44.3577 31.9831 35.7943 25.3682 30.4962Z" fill="#FFEDE5"/>
<path d="M36.1482 9.25135C35.429 7.59307 34.0759 6.28648 32.3867 5.61899C30.6974 4.95151 28.8104 4.97782 27.1406 5.69213C25.4709 6.40644 24.1553 7.75024 23.4832 9.42792C22.8111 11.1056 22.8376 12.9797 23.5569 14.638C23.6032 14.7513 23.6603 14.854 23.7138 14.9603L21.9736 18.7213L19.4025 14.0147C19.4036 13.6439 19.2659 13.286 19.0161 13.0105C18.7663 12.735 18.4224 12.5615 18.051 12.5237C17.8627 12.5077 17.6731 12.53 17.4937 12.5891C17.3143 12.6481 17.1488 12.7428 17.0074 12.8674C16.866 12.9919 16.7516 13.1437 16.671 13.3136C16.5905 13.4834 16.5456 13.6677 16.5391 13.8553L18.5039 14.0253C18.0727 14.3093 17.7422 14.7206 17.5589 15.2011C17.0918 16.4123 18.7179 18.8807 20.8967 21.0481C20.8967 21.0481 23.9812 25.3723 24.7301 25.9779C25.2126 26.3426 25.8174 26.5099 26.4203 26.4454L26.6058 17.9457C27.8582 18.6171 29.2901 18.8843 30.7025 18.7103C32.115 18.5363 33.4377 17.9297 34.4871 16.9748C35.5364 16.0199 36.2602 14.7641 36.5579 13.3818C36.8556 11.9996 36.7124 10.5596 36.1482 9.26197V9.25135Z" fill="#3B2645"/>
<path d="M23.4893 20.1875C23.204 20.5806 22.3339 20.0812 21.6457 19.7908C20.9575 19.5004 19.1139 19.4898 19.0426 21.4411C18.9712 23.3925 21.3854 24.9827 22.7725 24.8375C25.1617 24.5931 24.9121 23.1163 24.9121 23.1163L28.421 30.8332C32.4826 33.0431 40.0425 29.5654 35.5066 27.3803L34.5045 25.0889C35.3716 24.8575 36.2091 24.5284 37.0007 24.1079C38.4271 23.2084 38.8942 21.5793 38.641 19.7129C38.2381 16.7203 37.5713 14.4396 34.6686 9.44253C31.4592 3.98153 24.6839 6.80765 22.038 10.6431C19.392 14.4785 23.4893 20.1875 23.4893 20.1875Z" fill="#FFEDE5"/>
<path d="M23.7705 20.8424C23.578 20.9309 22.3121 20.0314 21.631 19.8012C20.7074 19.486 19.2061 13.6815 19.2061 13.6815C19.2061 13.6815 17.9794 12.6013 18.6534 10.6535C19.2061 9.05626 21.2458 7.98673 22.658 7.27843C25.204 5.99995 28.0532 4.54439 29.3013 1.86701C29.4012 1.65452 29.5438 1.4137 29.7792 1.41016C29.8523 1.41663 29.9233 1.4375 29.9882 1.47156C30.0531 1.50561 30.1106 1.55215 30.1572 1.60848C30.745 2.26394 31.0766 3.10716 31.0914 3.98483C31.0914 4.06628 31.1164 4.16899 31.1984 4.19378C31.2804 4.21857 31.3411 4.15128 31.391 4.09108C31.6499 3.77614 31.8471 3.41576 31.9722 3.02862C32.1434 2.50094 33.042 3.84317 33.1062 4.02733C33.3164 4.60996 33.4071 5.2285 33.3728 5.84647C33.3385 6.46445 33.18 7.06935 32.9065 7.6255C32.3502 8.73399 31.2055 9.42104 30.1572 10.0266C27.8215 11.3795 23.8276 12.6686 23.2713 12.8209C22.5153 13.0298 22.6615 13.7842 23.0894 15.8276C23.4817 17.6338 24.416 20.5414 23.7705 20.8424Z" fill="#3B2645"/>
<path d="M34.5045 25.0887C34.5045 25.0887 30.3323 25.9634 28.8489 25.8537C27.9786 25.7909 27.148 25.4673 26.4668 24.9258C26.951 25.5501 27.5575 26.0706 28.2498 26.4557C29.6191 27.1994 34.8967 26.013 34.8967 26.013L34.5045 25.0887Z" fill="#F28F8F"/>
<path d="M27.9857 14.3049L26.7448 15.6507C26.566 15.478 26.4614 15.2434 26.4527 14.9959C26.4441 14.7484 26.5321 14.5071 26.6984 14.3226C26.7809 14.2361 26.8801 14.1669 26.99 14.119C27.0999 14.0712 27.2183 14.0457 27.3383 14.044C27.4583 14.0424 27.5774 14.0646 27.6886 14.1094C27.7998 14.1542 27.9008 14.2207 27.9857 14.3049Z" fill="#3B2645"/>
<path d="M31.9834 21.1787L33.8199 21.0938C33.8311 21.2137 33.8178 21.3347 33.7809 21.4495C33.7439 21.5643 33.684 21.6704 33.6048 21.7617C33.5256 21.8529 33.4286 21.9274 33.3197 21.9806C33.2109 22.0338 33.0923 22.0646 32.9712 22.0712C32.7223 22.0782 32.4804 21.9891 32.2962 21.8227C32.112 21.6563 31.9999 21.4255 31.9834 21.1787Z" fill="#F28F8F"/>
<path d="M35.5388 12.1693L33.7559 11.716C33.7801 11.5981 33.8282 11.4863 33.8973 11.3873C33.9663 11.2884 34.0549 11.2045 34.1576 11.1405C34.2603 11.0766 34.375 11.0341 34.4947 11.0155C34.6144 10.997 34.7367 11.0027 34.8542 11.0325C35.0926 11.0998 35.2961 11.2549 35.4233 11.4662C35.5506 11.6774 35.5919 11.9289 35.5388 12.1693Z" fill="#3B2645"/>
<path d="M31.7334 14.9424L32.9494 19.2878L35.089 17.9987L31.7334 14.9424Z" fill="#F28F8F"/>
<path d="M28.3496 16.8896C28.3503 17.0464 28.3978 17.1994 28.486 17.3294C28.5742 17.4594 28.6992 17.5605 28.8452 17.62C28.9912 17.6795 29.1517 17.6947 29.3064 17.6637C29.4611 17.6327 29.6031 17.5569 29.7145 17.4458C29.8258 17.3347 29.9015 17.1933 29.9321 17.0395C29.9626 16.8858 29.9466 16.7264 29.886 16.5817C29.8255 16.4369 29.7231 16.3132 29.5918 16.2262C29.4605 16.1392 29.3062 16.0928 29.1484 16.0928C29.0432 16.0928 28.939 16.1134 28.8419 16.1535C28.7447 16.1936 28.6565 16.2523 28.5823 16.3264C28.5081 16.4004 28.4493 16.4883 28.4094 16.5849C28.3695 16.6816 28.3491 16.7851 28.3496 16.8896Z" fill="#3B2645"/>
<path d="M34.1299 14.641C34.1292 14.7932 34.1741 14.9423 34.2588 15.0692C34.3436 15.1962 34.4644 15.2952 34.6059 15.3538C34.7475 15.4124 34.9034 15.4279 35.0538 15.3984C35.2042 15.3689 35.3424 15.2956 35.4509 15.1879C35.5593 15.0802 35.6331 14.943 35.6628 14.7935C35.6926 14.6441 35.6769 14.4893 35.6179 14.3488C35.5589 14.2082 35.4592 14.0882 35.3314 14.004C35.2036 13.9199 35.0535 13.8753 34.9001 13.876C34.6961 13.8769 34.5008 13.9578 34.3565 14.1011C34.2123 14.2443 34.1308 14.4384 34.1299 14.641Z" fill="#3B2645"/>
<path d="M101.23 74.4434C100.927 74.6488 101.398 75.945 101.672 76.2637C102.244 76.8159 102.951 77.2113 103.723 77.4111C105.126 77.8382 106.438 78.5203 107.592 79.4227C109.014 80.5664 110.668 81.3915 112.441 81.8416C114.545 82.3055 116.977 81.7141 119.099 80.4639C121.324 79.1571 121.117 77.9034 120.814 77.0676L101.23 74.4434Z" fill="#3B2645"/>
<path d="M106.045 67.1689C106.758 67.9197 110.638 71.7304 113.615 72.7008C115.987 73.4728 119.071 74.2095 120.423 75.6438C121.828 77.1383 119.734 79.0507 116.857 80.1486C113.854 81.2889 111.814 80.3681 109.821 79.373C108.42 78.6647 106.355 77.2481 105.317 76.6779C104.28 76.1077 102.357 75.7961 101.555 74.9496C101.113 74.4822 100.796 73.1789 100.603 72.035C100.428 70.9725 99.7222 70.0128 100.082 69.9561L100.667 70.59C103.377 71.0859 106.202 68.5997 106.045 67.1689Z" fill="#AB8DA8"/>
<path d="M12.032 23.5586C10.3231 24.4754 8.47765 25.1151 6.56543 25.4533C6.56543 25.4533 9.59293 26.2076 13.1945 24.1359L12.032 23.5586Z" fill="#F28F8F"/>
</svg>
