<svg width="114" height="79" viewBox="0 0 114 79" fill="none" xmlns="http://www.w3.org/2000/svg">
<g clip-path="url(#clip0_1268_4218)">
<path fill-rule="evenodd" clip-rule="evenodd" d="M114 58.4874C114 69.6064 88.494 78.6209 57.003 78.6209C25.5119 78.6209 0 69.6064 0 58.4874C0 47.3685 25.506 38.354 57.003 38.354C88.4999 38.354 114 47.3685 114 58.4874Z" fill="#E2CAB3"/>
<path fill-rule="evenodd" clip-rule="evenodd" d="M114 56.2667C114 67.3857 88.494 76.4002 57.003 76.4002C25.5119 76.4002 0 67.3857 0 56.2667C0 45.1478 25.506 36.1333 57.003 36.1333C88.4999 36.1333 114 45.1478 114 56.2667Z" fill="white"/>
<path fill-rule="evenodd" clip-rule="evenodd" d="M114 55.9484C114 66.7195 88.494 75.4499 57.003 75.4499C25.5119 75.4499 0 66.7195 0 55.9484C0 45.1773 25.506 36.4526 57.003 36.4526C88.4999 36.4526 114 45.1831 114 55.9484Z" fill="#E7D8C8"/>
<path fill-rule="evenodd" clip-rule="evenodd" d="M111.472 55.9483C111.472 63.6353 89.644 69.8614 62.7204 69.8614C35.7967 69.8614 13.9624 63.6353 13.9624 55.9483C13.9624 48.2613 35.7908 42.0352 62.7204 42.0352C89.65 42.0352 111.472 48.2671 111.472 55.9483Z" fill="#E2CAB3"/>
<path d="M107.362 56.4467C106.324 51.6931 101.27 49.6815 97.2784 49.3626C94.8167 49.1713 92.3551 49.6815 89.8994 49.8148C88.535 49.8912 87.1661 49.8368 85.8125 49.6525C84.3178 49.4496 82.8882 48.9221 81.3816 48.8003C78.7658 48.5916 76.1736 49.4786 73.7357 50.4061C70.8708 51.5018 68.0058 52.4989 65.0696 53.3453C59.2779 55.0697 53.311 56.1719 47.2747 56.6322C44.8195 56.8506 42.3484 56.8371 39.8958 56.5917C38.1756 56.383 36.4792 56.012 34.759 55.8148C31.7457 55.4844 28.4062 55.8728 27.1902 59.3337C26.2786 59.3307 25.3795 59.5414 24.5685 59.9482C23.3406 60.4641 21.6976 61.3801 21.0629 62.7076C19.7401 65.4845 24.0287 66.5743 25.6184 66.87C27.1309 67.1482 28.6554 67.2468 30.1739 67.4033C32.2855 67.6236 33.982 68.6033 35.7674 69.7975C40.2695 72.8062 46.2782 73.0033 51.4032 72.6555C54.23 72.4483 57.0249 71.937 59.7371 71.1309C62.6021 70.2961 65.5501 70.8004 68.4447 71.2816C70.9312 71.7948 73.5133 71.6426 75.9186 70.841C78.3387 70.0004 80.4385 68.4642 82.5086 66.9221C84.9228 65.125 87.6691 65.0149 90.5104 64.7888C93.3113 64.6189 96.0907 64.2018 98.8147 63.5424C101.101 62.9776 103.328 62.2011 105.464 61.2236C107.279 60.2902 107.789 58.5511 107.362 56.4467Z" fill="#EEBE30"/>
<path d="M91.1811 52.3135C91.1811 59.8034 74.9106 66.7657 55.3184 66.7657C35.7263 66.7657 19.3253 59.2874 19.3253 51.7975C19.3253 44.3076 35.7263 39.6235 55.3184 39.6235C74.9106 39.6235 91.1811 44.8236 91.1811 52.3135Z" fill="#E3AC8A"/>
<path d="M90.7897 50.8695C90.7897 58.3594 74.9107 64.429 55.3185 64.429C35.7263 64.429 19.8414 58.3594 19.8414 50.8695C19.8414 43.3796 35.7263 37.3042 55.3185 37.3042C74.9107 37.3042 90.7897 43.3796 90.7897 50.8695Z" fill="#DA840D"/>
<path d="M81.1212 49.5829C81.1212 55.1424 69.341 59.6409 54.8025 59.6409C40.2641 59.6409 28.472 55.1424 28.472 49.5829C28.472 44.0235 40.2701 39.5249 54.8025 39.5249C69.335 39.5249 81.1212 44.0583 81.1212 49.5829Z" fill="#F0A508"/>
<path d="M37.0906 53.2926C37.0906 53.8723 36.4203 54.3766 35.5899 54.3766C34.7594 54.3766 34.0951 53.8897 34.0951 53.2926C34.0951 52.6955 34.7654 52.2085 35.5899 52.2085C36.4144 52.2085 37.0906 52.6955 37.0906 53.2926Z" fill="#DA840D"/>
<path d="M34.0951 48.731C34.087 48.8907 34.0312 49.0446 33.9345 49.1736C33.8378 49.3025 33.7045 49.401 33.5511 49.4567C33.3978 49.5124 33.2311 49.5229 33.0717 49.4869C32.9122 49.4509 32.7671 49.37 32.6543 49.2543C32.5414 49.1385 32.4658 48.9929 32.4368 48.8356C32.4077 48.6782 32.4265 48.516 32.4909 48.369C32.5552 48.222 32.6622 48.0966 32.7987 48.0085C32.9352 47.9203 33.0952 47.8732 33.2588 47.873C33.3715 47.8753 33.4826 47.8993 33.5857 47.9437C33.6889 47.9882 33.782 48.0521 33.8597 48.1318C33.9375 48.2116 33.9983 48.3056 34.0387 48.4084C34.0791 48.5113 34.0983 48.6209 34.0951 48.731Z" fill="#DA840D"/>
<path d="M44.4869 54.6087C44.506 54.8906 44.4379 55.1715 44.2915 55.415C44.1451 55.6585 43.9272 55.8534 43.6661 55.9744C43.405 56.0954 43.1126 56.1369 42.8271 56.0934C42.5415 56.05 42.2759 55.9237 42.0647 55.7309C41.8536 55.5381 41.7066 55.2877 41.6428 55.0122C41.5791 54.7368 41.6015 54.4489 41.7073 54.1861C41.813 53.9232 41.9971 53.6975 42.2358 53.5382C42.4744 53.3789 42.7566 53.2934 43.0456 53.2928C43.2286 53.2866 43.4112 53.3157 43.5827 53.3785C43.7543 53.4413 43.9115 53.5366 44.0453 53.6588C44.1792 53.781 44.2871 53.9278 44.3629 54.0908C44.4387 54.2538 44.4808 54.4298 44.4869 54.6087V54.6087Z" fill="#DA840D"/>
<path d="M41.3552 49.386C41.3552 49.7455 40.9459 50.0411 40.4477 50.0411C39.9494 50.0411 39.5342 49.7455 39.5342 49.386C39.5342 49.0266 39.9435 48.731 40.4477 48.731C40.9518 48.731 41.3552 49.0208 41.3552 49.386Z" fill="#DA840D"/>
<path d="M50.5256 52.4939C50.5473 52.676 50.5118 52.8602 50.4239 53.0222C50.336 53.1841 50.1998 53.3161 50.0334 53.4007C49.867 53.4852 49.6782 53.5184 49.4921 53.4957C49.3059 53.473 49.1313 53.3956 48.9912 53.2737C48.8511 53.1518 48.7522 52.9912 48.7076 52.8132C48.6631 52.6351 48.6749 52.448 48.7416 52.2767C48.8083 52.1053 48.9267 51.9579 49.0811 51.8538C49.2356 51.7497 49.4187 51.694 49.6062 51.6939C49.8362 51.6828 50.0615 51.7604 50.2334 51.91C50.4054 52.0597 50.5104 52.2694 50.5256 52.4939V52.4939Z" fill="#DA840D"/>
<path d="M50.8757 57.3224C50.8757 57.6934 50.4367 57.9948 49.891 57.9948C49.3453 57.9948 48.9064 57.6934 48.9064 57.3224C48.9064 56.9514 49.3512 56.6499 49.891 56.6499C50.4308 56.6499 50.8757 56.9514 50.8757 57.3224Z" fill="#DA840D"/>
<path d="M46.949 50.1281C46.9385 50.2628 46.8877 50.3915 46.803 50.4983C46.7183 50.6051 46.6034 50.6852 46.4725 50.7287C46.3416 50.7722 46.2006 50.7772 46.0668 50.743C45.933 50.7089 45.8125 50.6371 45.7201 50.5366C45.6277 50.4361 45.5676 50.3113 45.5471 50.1777C45.5266 50.0441 45.5468 49.9075 45.605 49.785C45.6632 49.6625 45.757 49.5594 45.8746 49.4884C45.9923 49.4175 46.1287 49.3819 46.2669 49.3861C46.4567 49.3995 46.6339 49.4842 46.7611 49.6226C46.8883 49.761 46.9557 49.9422 46.949 50.1281V50.1281Z" fill="#DA840D"/>
<path d="M57.1627 51.5373C57.1627 51.9083 56.7356 52.2097 56.2077 52.2097C55.6798 52.2097 55.2527 51.9083 55.2527 51.5373C55.2527 51.1663 55.6798 50.8706 56.2077 50.8706C56.7356 50.8706 57.1627 51.1663 57.1627 51.5373Z" fill="#DA840D"/>
<path d="M57.1627 55.0079C57.1627 55.2282 56.7356 55.4079 56.2077 55.4079C55.6798 55.4079 55.2527 55.2282 55.2527 55.0079C55.2527 54.7876 55.6798 54.6079 56.2077 54.6079C56.7356 54.6079 57.1627 54.7876 57.1627 55.0079Z" fill="#DA840D"/>
<path d="M63.6225 52.7534C63.6225 53.0491 63.237 53.2926 62.7565 53.2926C62.276 53.2926 61.8964 53.0491 61.8964 52.7534C61.8964 52.4578 62.2819 52.2085 62.7565 52.2085C63.231 52.2085 63.6225 52.452 63.6225 52.7534Z" fill="#DA840D"/>
<path d="M62.5902 56.6274C62.6307 56.808 62.6129 56.9964 62.5391 57.1667C62.4654 57.337 62.3393 57.4806 62.1785 57.5779C62.0176 57.6752 61.8297 57.7212 61.6409 57.7097C61.4521 57.6982 61.2716 57.6296 61.1244 57.5135C60.9771 57.3975 60.8704 57.2395 60.8189 57.0616C60.7674 56.8837 60.7737 56.6946 60.8369 56.5203C60.9002 56.346 61.0172 56.1953 61.1719 56.0888C61.3265 55.9823 61.5112 55.9254 61.7004 55.9259C61.913 55.9063 62.1251 55.9687 62.2913 56.0997C62.4576 56.2308 62.5648 56.4201 62.5902 56.6274V56.6274Z" fill="#DA840D"/>
<path d="M69.7797 55.5016C69.7426 55.6744 69.6562 55.8334 69.5305 55.9601C69.4047 56.0869 69.2447 56.1761 69.0692 56.2176C68.8936 56.259 68.7096 56.2509 68.5385 56.1943C68.3674 56.1376 68.2163 56.0347 68.1026 55.8975C67.989 55.7602 67.9175 55.5943 67.8965 55.419C67.8755 55.2436 67.9058 55.066 67.9838 54.9068C68.0619 54.7476 68.1846 54.6133 68.3376 54.5196C68.4907 54.4258 68.6678 54.3763 68.8484 54.377C69.1235 54.4076 69.3753 54.5427 69.5495 54.7531C69.7237 54.9634 69.8063 55.2322 69.7797 55.5016Z" fill="#DA840D"/>
<path d="M69.2634 50.4355C69.2634 50.6674 68.9609 50.8529 68.5872 50.8529C68.2136 50.8529 67.917 50.6674 67.917 50.4355C67.917 50.2036 68.2195 50.0239 68.5872 50.0239C68.955 50.0239 69.2634 50.2268 69.2634 50.4355Z" fill="#DA840D"/>
<path d="M74.9581 51.6695C74.9581 52.5681 74.5488 53.2927 74.0505 53.2927C73.5523 53.2927 73.1371 52.5681 73.1371 51.6695C73.1371 50.771 73.5464 50.0405 74.0505 50.0405C74.5547 50.0405 74.9581 50.771 74.9581 51.6695Z" fill="#DA840D"/>
<path d="M77.2423 50.0173C77.2423 50.1326 77.1954 50.2432 77.112 50.3247C77.0286 50.4063 76.9154 50.4521 76.7974 50.4521C76.6794 50.4521 76.5663 50.4063 76.4828 50.3247C76.3994 50.2432 76.3525 50.1326 76.3525 50.0173C76.3525 49.902 76.3994 49.7914 76.4828 49.7099C76.5663 49.6283 76.6794 49.5825 76.7974 49.5825C76.9149 49.584 77.0272 49.6303 77.1103 49.7115C77.1934 49.7927 77.2407 49.9025 77.2423 50.0173V50.0173Z" fill="#DA840D"/>
<path d="M62.2822 48.6325C62.2822 49.0441 61.7246 49.3861 61.0425 49.3861C60.3603 49.3861 59.8027 49.0441 59.8027 48.6325C59.8027 48.2209 60.3544 47.873 61.0425 47.873C61.7305 47.873 62.2822 48.2151 62.2822 48.6325Z" fill="#DA840D"/>
<path d="M39.0237 44.7245C39.0237 44.9796 38.5907 45.1883 38.0568 45.1883C37.523 45.1883 37.09 44.9796 37.09 44.7245C37.09 44.4694 37.523 44.2607 38.0568 44.2607C38.5907 44.2607 39.0237 44.4694 39.0237 44.7245Z" fill="#DA840D"/>
<path d="M44.7178 43.7919C44.7178 44.0528 44.2255 44.2615 43.6205 44.2615C43.0155 44.2615 42.5172 44.0528 42.5172 43.7919C42.5172 43.531 43.0095 43.3281 43.6205 43.3281C44.2315 43.3281 44.7178 43.5368 44.7178 43.7919Z" fill="#DA840D"/>
<path d="M51.8841 44.9332C51.8841 45.2984 51.2197 45.5999 50.3952 45.5999C49.5707 45.5999 48.9064 45.2984 48.9064 44.9332C48.9064 44.568 49.5766 44.2607 50.3952 44.2607C51.2138 44.2607 51.8841 44.5622 51.8841 44.9332Z" fill="#DA840D"/>
<path d="M57.1639 43.7919C57.1651 43.8853 57.1377 43.9769 57.0854 44.055C57.033 44.1331 56.9581 44.1941 56.87 44.2304C56.782 44.2667 56.6849 44.2765 56.5912 44.2585C56.4974 44.2406 56.4113 44.1957 56.3437 44.1297C56.2762 44.0637 56.2303 43.9795 56.2119 43.8879C56.1936 43.7963 56.2036 43.7014 56.2407 43.6153C56.2778 43.5293 56.3403 43.456 56.4202 43.4049C56.5001 43.3537 56.5938 43.327 56.6894 43.3282C56.8152 43.3282 56.9359 43.377 57.0249 43.464C57.1139 43.551 57.1639 43.6689 57.1639 43.7919V43.7919Z" fill="#DA840D"/>
<path d="M56.2082 47.4609C56.2082 47.687 55.7574 47.8725 55.1939 47.8725C54.6304 47.8725 54.1855 47.687 54.1855 47.4609C54.1855 47.2348 54.6364 47.0493 55.1939 47.0493C55.7515 47.0493 56.2082 47.2348 56.2082 47.4609Z" fill="#DA840D"/>
<path d="M64.1389 43.5882C64.1364 43.7228 64.0931 43.8537 64.0143 43.9641C63.9355 44.0745 63.8249 44.1596 63.6965 44.2084C63.5682 44.2572 63.4278 44.2675 63.2934 44.2381C63.159 44.2087 63.0366 44.1409 62.9417 44.0433C62.8469 43.9457 62.7839 43.8227 62.7608 43.6899C62.7377 43.5572 62.7555 43.4208 62.812 43.298C62.8685 43.1752 62.9611 43.0717 63.0781 43.0005C63.195 42.9293 63.3309 42.8938 63.4686 42.8983C63.559 42.9006 63.648 42.9202 63.7306 42.9561C63.8132 42.992 63.8877 43.0435 63.95 43.1075C64.0122 43.1716 64.061 43.247 64.0934 43.3295C64.1258 43.412 64.1412 43.4999 64.1389 43.5882V43.5882Z" fill="#DA840D"/>
<path d="M67.9178 46.3254C67.9178 46.4413 67.5678 46.534 67.1289 46.534C66.6899 46.534 66.3458 46.4413 66.3458 46.3254C66.3458 46.2094 66.6958 46.1167 67.1289 46.1167C67.5619 46.1167 67.9178 46.2094 67.9178 46.3254Z" fill="#DA840D"/>
<path d="M70.3783 44.9567C70.3932 45.0178 70.3881 45.0819 70.3639 45.14C70.3396 45.1981 70.2975 45.2474 70.2432 45.281C70.189 45.3146 70.1253 45.3307 70.0612 45.3273C69.9971 45.3238 69.9357 45.3009 69.8855 45.2617C69.8354 45.2225 69.799 45.1689 69.7815 45.1086C69.764 45.0482 69.7661 44.984 69.7878 44.9249C69.8094 44.8658 69.8493 44.8147 69.902 44.7789C69.9547 44.743 70.0175 44.7241 70.0818 44.7248C70.1523 44.7183 70.2227 44.7388 70.2781 44.7821C70.3335 44.8254 70.3694 44.888 70.3783 44.9567Z" fill="#DA840D"/>
<path d="M67.9173 46.3248C67.9036 46.4505 67.8529 46.5696 67.7714 46.6678C67.6899 46.766 67.5811 46.8391 67.4581 46.8782C67.335 46.9173 67.2031 46.9207 67.0781 46.8881C66.9531 46.8555 66.8404 46.7883 66.7536 46.6945C66.6669 46.6007 66.6097 46.4844 66.5891 46.3595C66.5685 46.2347 66.5853 46.1067 66.6375 45.991C66.6896 45.8753 66.775 45.7768 66.8831 45.7075C66.9913 45.6381 67.1177 45.6008 67.2471 45.6001C67.3398 45.6046 67.4307 45.6268 67.5146 45.6657C67.5985 45.7045 67.6738 45.7592 67.736 45.8265C67.7983 45.8938 67.8464 45.9725 67.8775 46.058C67.9086 46.1435 67.9221 46.2341 67.9173 46.3248V46.3248Z" fill="#DA840D"/>
<path d="M71.725 45.1647C71.725 45.4024 71.3572 45.5995 70.9005 45.5995C70.4437 45.5995 70.0819 45.4024 70.0819 45.1647C70.0819 44.927 70.4497 44.7241 70.9005 44.7241C71.3513 44.7241 71.725 44.9212 71.725 45.1647Z" fill="#DA840D"/>
<path d="M91.1811 46.7485C91.1811 54.2326 74.9106 61.2008 55.3184 61.2008C35.7263 61.2008 19.3253 53.7167 19.3253 46.2326C19.3253 38.7485 35.7263 34.0586 55.3184 34.0586C74.9106 34.0586 91.1811 39.2586 91.1811 46.7485Z" fill="#E3AC8A"/>
<path d="M90.7897 45.2997C90.7897 52.7896 74.9107 58.8592 55.3185 58.8592C35.7263 58.8592 19.8414 52.7896 19.8414 45.2997C19.8414 37.8098 35.7263 31.7402 55.3185 31.7402C74.9107 31.7402 90.7897 37.8098 90.7897 45.2997Z" fill="#DA840D"/>
<path d="M54.8019 54.076C69.3373 54.076 81.1206 49.5729 81.1206 44.018C81.1206 38.4631 69.3373 33.96 54.8019 33.96C40.2665 33.96 28.4833 38.4631 28.4833 44.018C28.4833 49.5729 40.2665 54.076 54.8019 54.076Z" fill="#F0A508"/>
<path d="M37.0906 47.7286C37.0906 48.3083 36.4203 48.8127 35.5899 48.8127C34.7594 48.8127 34.0951 48.3257 34.0951 47.7286C34.0951 47.1315 34.7654 46.6445 35.5899 46.6445C36.4144 46.6445 37.0906 47.1257 37.0906 47.7286Z" fill="#DA840D"/>
<path d="M34.095 43.1599C34.0903 43.3205 34.0373 43.4762 33.9426 43.6076C33.8479 43.7389 33.7158 43.8401 33.5626 43.8984C33.4094 43.9567 33.242 43.9696 33.0814 43.9355C32.9208 43.9014 32.774 43.8218 32.6594 43.7066C32.5448 43.5914 32.4674 43.4458 32.437 43.2879C32.4066 43.13 32.4245 42.9668 32.4885 42.8188C32.5524 42.6708 32.6596 42.5445 32.7965 42.4556C32.9335 42.3668 33.0942 42.3194 33.2586 42.3193C33.4831 42.3239 33.6967 42.4147 33.8532 42.572C34.0097 42.7293 34.0966 42.9405 34.095 43.1599Z" fill="#DA840D"/>
<path d="M44.4869 49.0431C44.506 49.325 44.4379 49.6059 44.2915 49.8494C44.1451 50.0929 43.9272 50.2878 43.6661 50.4088C43.405 50.5298 43.1126 50.5713 42.8271 50.5278C42.5415 50.4844 42.2759 50.3581 42.0647 50.1653C41.8536 49.9725 41.7066 49.7221 41.6428 49.4466C41.5791 49.1711 41.6015 48.8833 41.7073 48.6204C41.813 48.3576 41.9971 48.1319 42.2358 47.9726C42.4744 47.8133 42.7566 47.7278 43.0456 47.7272C43.4149 47.7162 43.7737 47.8484 44.0437 48.0949C44.3137 48.3414 44.473 48.6823 44.4869 49.0431V49.0431Z" fill="#DA840D"/>
<path d="M41.3552 43.8205C41.3552 44.18 40.9459 44.4756 40.4477 44.4756C39.9494 44.4756 39.5342 44.18 39.5342 43.8205C39.5342 43.4611 39.9435 43.1597 40.4477 43.1597C40.9518 43.1597 41.3552 43.4785 41.3552 43.8205Z" fill="#DA840D"/>
<path d="M50.5256 46.9578C50.5473 47.1399 50.5118 47.3241 50.4239 47.486C50.336 47.648 50.1998 47.78 50.0334 47.8645C49.867 47.9491 49.6782 47.9822 49.4921 47.9596C49.3059 47.9369 49.1313 47.8595 48.9912 47.7376C48.8511 47.6157 48.7522 47.4551 48.7076 47.277C48.6631 47.099 48.6749 46.9119 48.7416 46.7405C48.8083 46.5692 48.9267 46.4217 49.0811 46.3177C49.2356 46.2136 49.4187 46.1578 49.6062 46.1578C49.8362 46.1467 50.0615 46.2243 50.2334 46.3739C50.4054 46.5236 50.5104 46.7333 50.5256 46.9578V46.9578Z" fill="#DA840D"/>
<path d="M50.8757 51.7506C50.8757 52.1217 50.4367 52.4231 49.891 52.4231C49.3453 52.4231 48.9064 52.1217 48.9064 51.7506C48.9064 51.3796 49.3512 51.084 49.891 51.084C50.4308 51.084 50.8757 51.3796 50.8757 51.7506Z" fill="#DA840D"/>
<path d="M46.9489 44.5559C46.9396 44.691 46.8897 44.8204 46.8056 44.9279C46.7216 45.0355 46.607 45.1165 46.4761 45.1609C46.3453 45.2053 46.2039 45.2111 46.0697 45.1775C45.9356 45.144 45.8144 45.0726 45.7215 44.9722C45.6285 44.8719 45.5678 44.747 45.5469 44.6132C45.526 44.4794 45.5459 44.3425 45.604 44.2197C45.6621 44.0968 45.756 43.9933 45.8738 43.9222C45.9917 43.8511 46.1283 43.8154 46.2668 43.8197C46.4561 43.8316 46.6332 43.9152 46.7606 44.0526C46.8879 44.1901 46.9555 44.3706 46.9489 44.5559Z" fill="#DA840D"/>
<path d="M57.1627 45.9708C57.1627 46.3418 56.7356 46.6433 56.2077 46.6433C55.6798 46.6433 55.2527 46.3418 55.2527 45.9708C55.2527 45.5998 55.6798 45.2983 56.2077 45.2983C56.7356 45.2983 57.1627 45.5998 57.1627 45.9708Z" fill="#DA840D"/>
<path d="M57.1627 49.444C57.1627 49.6643 56.7356 49.844 56.2077 49.844C55.6798 49.844 55.2527 49.6643 55.2527 49.444C55.2527 49.2237 55.6798 49.0439 56.2077 49.0439C56.7356 49.0439 57.1627 49.2237 57.1627 49.444Z" fill="#DA840D"/>
<path d="M63.6225 47.1837C63.6225 47.4851 63.237 47.7286 62.7565 47.7286C62.276 47.7286 61.8964 47.4851 61.8964 47.1837C61.8964 46.8822 62.2819 46.6445 62.7565 46.6445C63.231 46.6445 63.6225 46.888 63.6225 47.1837Z" fill="#DA840D"/>
<path d="M62.5904 51.0548C62.6322 51.2353 62.6156 51.4241 62.5428 51.595C62.47 51.7659 62.3447 51.9104 62.1842 52.0086C62.0237 52.1068 61.8359 52.1539 61.6468 52.1432C61.4577 52.1325 61.2767 52.0647 61.1288 51.949C60.981 51.8334 60.8735 51.6757 60.8213 51.4978C60.7692 51.3198 60.7749 51.1305 60.8377 50.9558C60.9005 50.7812 61.0173 50.63 61.1719 50.5231C61.3265 50.4162 61.5113 50.3589 61.7007 50.3591C61.9127 50.3379 62.1248 50.3989 62.2912 50.529C62.4576 50.6591 62.5651 50.848 62.5904 51.0548V51.0548Z" fill="#DA840D"/>
<path d="M69.7796 49.9299C69.7427 50.1013 69.6568 50.2589 69.532 50.3846C69.4072 50.5103 69.2485 50.5988 69.0743 50.6401C68.9001 50.6813 68.7176 50.6735 68.5478 50.6175C68.3779 50.5616 68.2278 50.4598 68.1147 50.3239C68.0016 50.188 67.9302 50.0236 67.9087 49.8498C67.8872 49.6759 67.9165 49.4996 67.9933 49.3413C68.07 49.1831 68.1911 49.0493 68.3424 48.9554C68.4937 48.8616 68.6691 48.8115 68.8483 48.811C69.1223 48.8417 69.3732 48.976 69.5472 49.185C69.7212 49.3941 69.8047 49.6615 69.7796 49.9299V49.9299Z" fill="#DA840D"/>
<path d="M69.2634 44.8872C69.2634 45.1133 68.9609 45.2988 68.5872 45.2988C68.2136 45.2988 67.917 45.1133 67.917 44.8872C67.917 44.6611 68.2195 44.4756 68.5872 44.4756C68.955 44.4756 69.2634 44.6379 69.2634 44.8872Z" fill="#DA840D"/>
<path d="M74.9581 46.0988C74.9581 46.9973 74.5488 47.7278 74.0505 47.7278C73.5523 47.7278 73.1371 46.9973 73.1371 46.0988C73.1371 45.2002 73.5464 44.4756 74.0505 44.4756C74.5547 44.4756 74.9581 45.2176 74.9581 46.0988Z" fill="#DA840D"/>
<path d="M77.2423 44.4514C77.2408 44.5662 77.1934 44.6759 77.1103 44.7572C77.0272 44.8384 76.9149 44.8847 76.7974 44.8862C76.7094 44.8862 76.6234 44.8607 76.5503 44.8129C76.4771 44.7651 76.4201 44.6972 76.3864 44.6178C76.3527 44.5383 76.3439 44.4509 76.3611 44.3666C76.3783 44.2822 76.4206 44.2048 76.4828 44.1439C76.5451 44.0831 76.6243 44.0417 76.7106 44.025C76.7969 44.0082 76.8864 44.0168 76.9677 44.0497C77.049 44.0826 77.1185 44.1383 77.1673 44.2098C77.2162 44.2813 77.2423 44.3654 77.2423 44.4514Z" fill="#DA840D"/>
<path d="M62.2822 43.0617C62.2822 43.4791 61.7246 43.8212 61.0425 43.8212C60.3603 43.8212 59.8027 43.4791 59.8027 43.0617C59.8027 42.6443 60.3544 42.3081 61.0425 42.3081C61.7305 42.3081 62.2822 42.6443 62.2822 43.0617Z" fill="#DA840D"/>
<path d="M39.0237 39.1537C39.0237 39.4146 38.5907 39.6233 38.0568 39.6233C37.523 39.6233 37.09 39.4146 37.09 39.1537C37.09 38.8928 37.523 38.6899 38.0568 38.6899C38.5907 38.6899 39.0237 38.8986 39.0237 39.1537Z" fill="#DA840D"/>
<path d="M44.7178 38.226C44.7178 38.4811 44.2255 38.6897 43.6205 38.6897C43.0155 38.6897 42.5172 38.4811 42.5172 38.226C42.5172 37.9709 43.0095 37.7622 43.6205 37.7622C44.2315 37.7622 44.7178 37.9709 44.7178 38.226Z" fill="#DA840D"/>
<path d="M51.8841 39.3624C51.8841 39.7335 51.2197 40.0349 50.3952 40.0349C49.5707 40.0349 48.9064 39.7335 48.9064 39.3624C48.9064 38.9914 49.5766 38.6899 50.3952 38.6899C51.2138 38.6899 51.8841 38.9914 51.8841 39.3624Z" fill="#DA840D"/>
<path d="M57.1639 38.2255C57.1651 38.3189 57.1377 38.4105 57.0854 38.4886C57.033 38.5667 56.9581 38.6277 56.87 38.664C56.782 38.7003 56.6849 38.71 56.5912 38.6921C56.4974 38.6742 56.4113 38.6293 56.3437 38.5633C56.2762 38.4973 56.2303 38.4131 56.2119 38.3215C56.1936 38.2299 56.2036 38.135 56.2407 38.0489C56.2778 37.9629 56.3403 37.8896 56.4202 37.8385C56.5001 37.7873 56.5938 37.7606 56.6894 37.7618C56.8152 37.7618 56.9359 37.8106 57.0249 37.8976C57.1139 37.9846 57.1639 38.1025 57.1639 38.2255V38.2255Z" fill="#DA840D"/>
<path d="M56.2082 41.8959C56.2082 42.122 55.7574 42.3075 55.1939 42.3075C54.6304 42.3075 54.1855 42.122 54.1855 41.8959C54.1855 41.6698 54.6364 41.4785 55.1939 41.4785C55.7515 41.4785 56.2082 41.664 56.2082 41.8959Z" fill="#DA840D"/>
<path d="M64.1388 38.023C64.1399 38.1583 64.0995 38.2909 64.0229 38.4037C63.9463 38.5164 63.8369 38.6042 63.7088 38.6557C63.5807 38.7071 63.4398 38.72 63.3041 38.6925C63.1685 38.6651 63.0444 38.5986 62.9477 38.5016C62.8511 38.4047 62.7863 38.2817 62.7618 38.1484C62.7373 38.0152 62.7541 37.8779 62.8101 37.7541C62.8661 37.6303 62.9588 37.5257 63.0761 37.4538C63.1935 37.3818 63.3301 37.3459 63.4685 37.3505C63.6484 37.3535 63.8198 37.4259 63.9453 37.5519C64.0709 37.6778 64.1404 37.8471 64.1388 38.023V38.023Z" fill="#DA840D"/>
<path d="M67.9178 40.7595C67.9178 40.8696 67.5678 40.9624 67.1289 40.9624C66.6899 40.9624 66.3458 40.8696 66.3458 40.7595C66.3458 40.6493 66.6958 40.5508 67.1289 40.5508C67.5619 40.5508 67.9178 40.6435 67.9178 40.7595Z" fill="#DA840D"/>
<path d="M70.3791 39.4205C70.3927 39.4816 70.3864 39.5454 70.3612 39.6029C70.336 39.6604 70.2931 39.7088 70.2385 39.7414C70.1839 39.7741 70.1202 39.7893 70.0564 39.7849C69.9925 39.7806 69.9316 39.757 69.8821 39.7173C69.8326 39.6776 69.797 39.6239 69.7802 39.5635C69.7633 39.5032 69.7661 39.4392 69.7881 39.3805C69.8102 39.3217 69.8503 39.2711 69.9031 39.2357C69.9559 39.2003 70.0186 39.1818 70.0826 39.1828C70.1541 39.1763 70.2253 39.1976 70.2808 39.2421C70.3363 39.2866 70.3717 39.3507 70.3791 39.4205V39.4205Z" fill="#DA840D"/>
<path d="M67.9173 40.7598C67.9036 40.8855 67.8529 41.0047 67.7714 41.1029C67.6899 41.2011 67.5811 41.2741 67.4581 41.3132C67.335 41.3523 67.2031 41.3557 67.0781 41.3232C66.9531 41.2906 66.8404 41.2233 66.7536 41.1295C66.6669 41.0357 66.6097 40.9194 66.5891 40.7946C66.5685 40.6697 66.5853 40.5418 66.6375 40.4261C66.6896 40.3104 66.775 40.2119 66.8831 40.1425C66.9913 40.0732 67.1177 40.0359 67.2471 40.0352C67.3398 40.0396 67.4307 40.0619 67.5146 40.1008C67.5985 40.1396 67.6738 40.1942 67.736 40.2616C67.7983 40.3289 67.8464 40.4075 67.8775 40.493C67.9086 40.5785 67.9221 40.6692 67.9173 40.7598V40.7598Z" fill="#DA840D"/>
<path d="M71.725 39.5939C71.725 39.8374 71.3572 40.0345 70.9005 40.0345C70.4437 40.0345 70.0819 39.8374 70.0819 39.5939C70.0819 39.3504 70.4497 39.1533 70.9005 39.1533C71.3513 39.1533 71.725 39.3504 71.725 39.5939Z" fill="#DA840D"/>
<path d="M91.7447 36.8C91.7447 44.2841 75.4683 51.2523 55.8761 51.2523C36.2839 51.2523 19.8889 43.7682 19.8889 36.2783C19.8889 28.7884 36.2839 24.1333 55.8761 24.1333C75.4683 24.1333 91.7447 29.3101 91.7447 36.8Z" fill="#E3AC8A"/>
<path d="M91.3467 35.3626C91.3467 42.8525 75.4618 48.9221 55.8696 48.9221C36.2775 48.9221 20.4044 42.8409 20.4044 35.3626C20.4044 27.8843 36.2834 21.7915 55.8756 21.7915C75.4677 21.7915 91.3467 27.8611 91.3467 35.3626Z" fill="#DA840D"/>
<path d="M81.6846 34.0697C81.6846 39.6233 69.8984 44.1277 55.3659 44.1277C40.8334 44.1277 29.0651 39.6233 29.0651 34.0697C29.0651 28.516 40.8334 24.0059 55.3659 24.0059C69.8984 24.0059 81.6846 28.5102 81.6846 34.0697Z" fill="#F0A508"/>
<path d="M37.648 37.7804C37.648 38.3601 36.9836 38.8644 36.1532 38.8644C35.3228 38.8644 34.6584 38.3775 34.6584 37.7804C34.6584 37.1833 35.3287 36.6963 36.1829 36.6963C37.037 36.6963 37.648 37.1775 37.648 37.7804Z" fill="#DA840D"/>
<path d="M34.6588 33.2115C34.6518 33.3711 34.5972 33.5251 34.5017 33.6546C34.4062 33.7841 34.2739 33.8835 34.1213 33.9404C33.9687 33.9973 33.8023 34.0093 33.6428 33.9748C33.4833 33.9404 33.3376 33.8611 33.2237 33.7466C33.1098 33.6322 33.0326 33.4876 33.0018 33.3309C32.971 33.1741 32.9879 33.0119 33.0503 32.8644C33.1127 32.7168 33.2179 32.5904 33.3531 32.5006C33.4882 32.4109 33.6472 32.3618 33.8105 32.3594C33.9237 32.3601 34.0356 32.3828 34.1397 32.4262C34.2439 32.4696 34.3381 32.5328 34.4171 32.6121C34.496 32.6913 34.558 32.7852 34.5995 32.8881C34.641 32.991 34.6611 33.101 34.6588 33.2115V33.2115Z" fill="#DA840D"/>
<path d="M45.0799 39.0964C45.0977 39.3769 45.0289 39.6562 44.8824 39.898C44.7359 40.1399 44.5185 40.3331 44.2583 40.4528C43.998 40.5724 43.707 40.6129 43.423 40.569C43.1389 40.5251 42.8749 40.3988 42.6652 40.2065C42.4554 40.0142 42.3096 39.7648 42.2466 39.4906C42.1837 39.2163 42.2064 38.9299 42.3119 38.6685C42.4175 38.407 42.6009 38.1826 42.8385 38.0243C43.0761 37.8659 43.3569 37.781 43.6445 37.7804C44.0132 37.7695 44.3714 37.9018 44.6404 38.1485C44.9095 38.3952 45.0675 38.736 45.0799 39.0964Z" fill="#DA840D"/>
<path d="M41.9187 33.866C41.9187 34.2312 41.5094 34.5269 41.0052 34.5269C40.501 34.5269 40.0977 34.2312 40.0977 33.866C40.0977 33.5008 40.5069 33.2109 41.0052 33.2109C41.5034 33.2109 41.9187 33.5066 41.9187 33.866Z" fill="#DA840D"/>
<path d="M51.0891 36.9803C51.1108 37.1623 51.0753 37.3466 50.9874 37.5085C50.8994 37.6704 50.7633 37.8024 50.5969 37.887C50.4304 37.9715 50.2417 38.0047 50.0555 37.982C49.8694 37.9593 49.6947 37.8819 49.5547 37.76C49.4146 37.6382 49.3157 37.4775 49.2711 37.2995C49.2266 37.1214 49.2384 36.9343 49.3051 36.763C49.3718 36.5917 49.4902 36.4442 49.6446 36.3401C49.799 36.2361 49.9822 36.1803 50.1697 36.1803C50.3997 36.1691 50.6249 36.2467 50.7969 36.3964C50.9689 36.546 51.0738 36.7557 51.0891 36.9803V36.9803Z" fill="#DA840D"/>
<path d="M51.4389 41.8036C51.4389 42.1747 51 42.4761 50.4543 42.4761C49.9085 42.4761 49.4696 42.1747 49.4696 41.8036C49.4696 41.4326 49.9085 41.1602 50.4543 41.1602C51 41.1602 51.4389 41.4384 51.4389 41.8036Z" fill="#DA840D"/>
<path d="M47.5127 34.6088C47.5127 34.7918 47.4383 34.9672 47.3059 35.0966C47.1736 35.226 46.994 35.2987 46.8068 35.2987C46.6196 35.2987 46.4401 35.226 46.3077 35.0966C46.1753 34.9672 46.101 34.7918 46.101 34.6088C46.101 34.4258 46.1753 34.2504 46.3077 34.121C46.4401 33.9916 46.6196 33.9189 46.8068 33.9189C46.994 33.9189 47.1736 33.9916 47.3059 34.121C47.4383 34.2504 47.5127 34.4258 47.5127 34.6088V34.6088Z" fill="#DA840D"/>
<path d="M57.7264 36.0237C57.7264 36.3947 57.2993 36.6961 56.7714 36.6961C56.2435 36.6961 55.8164 36.3947 55.8164 36.0237C55.8164 35.6526 56.2435 35.3628 56.7714 35.3628C57.2993 35.3628 57.7264 35.6526 57.7264 36.0237Z" fill="#DA840D"/>
<path d="M57.7264 39.4952C57.7264 39.7155 57.2993 39.8952 56.7714 39.8952C56.2435 39.8952 55.8164 39.7155 55.8164 39.4952C55.8164 39.2749 56.2435 39.0952 56.7714 39.0952C57.2993 39.0952 57.7264 39.2749 57.7264 39.4952Z" fill="#DA840D"/>
<path d="M64.1855 37.2354C64.1855 37.5369 63.8 37.7803 63.3195 37.7803C62.839 37.7803 62.4535 37.5369 62.4535 37.2354C62.4535 36.934 62.845 36.6963 63.3195 36.6963C63.794 36.6963 64.1855 36.9398 64.1855 37.2354Z" fill="#DA840D"/>
<path d="M63.1539 41.1067C63.1969 41.2883 63.1811 41.4785 63.1087 41.651C63.0362 41.8234 62.9106 41.9696 62.7493 42.0692C62.5881 42.1688 62.3991 42.2169 62.2086 42.2068C62.0181 42.1968 61.8356 42.129 61.6862 42.013C61.5369 41.897 61.4282 41.7385 61.3751 41.5594C61.3221 41.3803 61.3273 41.1895 61.3902 41.0135C61.453 40.8375 61.5704 40.6849 61.7259 40.577C61.8814 40.469 62.0675 40.411 62.2582 40.411C62.4712 40.3881 62.6848 40.4484 62.8525 40.5787C63.0203 40.709 63.1286 40.8987 63.1539 41.1067Z" fill="#DA840D"/>
<path d="M70.3436 40.0002C70.3004 40.1692 70.2096 40.323 70.0816 40.4442C69.9537 40.5655 69.7935 40.6493 69.6193 40.6861C69.4451 40.723 69.2639 40.7116 69.096 40.653C68.9281 40.5945 68.7804 40.4912 68.6695 40.3548C68.5586 40.2185 68.4889 40.0545 68.4684 39.8815C68.4479 39.7085 68.4773 39.5333 68.5533 39.3757C68.6294 39.2182 68.749 39.0846 68.8987 38.9901C69.0484 38.8956 69.2222 38.8439 69.4004 38.8408C69.5411 38.8544 69.6775 38.8955 69.8016 38.9616C69.9257 39.0277 70.035 39.1174 70.123 39.2255C70.2109 39.3337 70.2758 39.4579 70.3137 39.591C70.3515 39.7241 70.3617 39.8632 70.3436 40.0002V40.0002Z" fill="#DA840D"/>
<path d="M69.8277 34.9394C69.8277 35.1655 69.5252 35.351 69.1515 35.351C68.7778 35.351 68.4812 35.1655 68.4812 34.9394C68.4812 34.7133 68.7778 34.5278 69.1515 34.5278C69.5252 34.5278 69.8277 34.7133 69.8277 34.9394Z" fill="#DA840D"/>
<path d="M75.5219 36.151C75.5219 37.0496 75.1126 37.78 74.6084 37.78C74.1043 37.78 73.7009 37.0496 73.7009 36.151C73.7009 35.2525 74.1102 34.5278 74.6084 34.5278C75.1067 34.5278 75.5219 35.2525 75.5219 36.151Z" fill="#DA840D"/>
<path d="M77.7997 34.5046C77.7986 34.5892 77.7718 34.6716 77.7229 34.7413C77.674 34.8111 77.605 34.8652 77.5247 34.8968C77.4444 34.9284 77.3563 34.936 77.2716 34.9188C77.1868 34.9016 77.1092 34.8603 77.0484 34.8001C76.9876 34.7399 76.9463 34.6634 76.9299 34.5804C76.9134 34.4973 76.9225 34.4114 76.9558 34.3333C76.9892 34.2553 77.0455 34.1886 77.1175 34.1417C77.1896 34.0949 77.2742 34.0698 77.3608 34.0698C77.4777 34.0713 77.5894 34.1178 77.6715 34.1992C77.7537 34.2806 77.7997 34.3903 77.7997 34.5046V34.5046Z" fill="#DA840D"/>
<path d="M62.8393 33.113C62.8393 33.5304 62.2877 33.8666 61.6055 33.8666C60.9234 33.8666 60.3658 33.5304 60.3658 33.113C60.3658 32.6956 60.9175 32.3594 61.6055 32.3594C62.2936 32.3594 62.8393 32.6956 62.8393 33.113Z" fill="#DA840D"/>
<path d="M39.5878 29.2117C39.5878 29.4668 39.1548 29.6755 38.621 29.6755C38.0871 29.6755 37.6482 29.4668 37.6482 29.2117C37.6482 28.9567 38.0812 28.7422 38.621 28.7422C39.1607 28.7422 39.5878 28.9509 39.5878 29.2117Z" fill="#DA840D"/>
<path d="M45.2818 28.2782C45.2818 28.5391 44.7895 28.742 44.1785 28.742C43.5676 28.742 43.0812 28.5391 43.0812 28.2782C43.0812 28.0174 43.5735 27.8145 44.1785 27.8145C44.7836 27.8145 45.2818 28.0232 45.2818 28.2782Z" fill="#DA840D"/>
<path d="M52.4473 29.4147C52.4473 29.7857 51.7829 30.0871 50.9584 30.0871C50.1339 30.0871 49.4696 29.7857 49.4696 29.4147C49.4696 29.0436 50.1399 28.7422 50.9584 28.7422C51.777 28.7422 52.4473 29.0436 52.4473 29.4147Z" fill="#DA840D"/>
<path d="M57.7269 28.2773C57.7137 28.3921 57.6578 28.4982 57.5697 28.5752C57.4816 28.6522 57.3675 28.6948 57.2494 28.6948C57.1312 28.6948 57.0171 28.6522 56.929 28.5752C56.8409 28.4982 56.785 28.3921 56.7719 28.2773C56.785 28.1625 56.8409 28.0565 56.929 27.9795C57.0171 27.9024 57.1312 27.8599 57.2494 27.8599C57.3675 27.8599 57.4816 27.9024 57.5697 27.9795C57.6578 28.0565 57.7137 28.1625 57.7269 28.2773V28.2773Z" fill="#DA840D"/>
<path d="M56.7713 31.9424C56.7713 32.1742 56.3205 32.3598 55.757 32.3598C55.1935 32.3598 54.7427 32.1742 54.7427 31.9424C54.7427 31.7105 55.1994 31.5308 55.757 31.5308C56.3146 31.5308 56.7713 31.7163 56.7713 31.9424Z" fill="#DA840D"/>
<path d="M64.7024 28.0744C64.7036 28.2088 64.6639 28.3405 64.5884 28.4528C64.5128 28.5651 64.4048 28.6529 64.2781 28.7052C64.1514 28.7574 64.0117 28.7717 63.8767 28.7461C63.7417 28.7206 63.6175 28.6565 63.5198 28.5619C63.4222 28.4672 63.3555 28.3464 63.3282 28.2147C63.301 28.083 63.3144 27.9463 63.3667 27.822C63.4191 27.6977 63.508 27.5915 63.6222 27.5167C63.7365 27.4419 63.8709 27.402 64.0084 27.402C64.0995 27.4004 64.19 27.4167 64.2745 27.4499C64.359 27.483 64.4359 27.5324 64.5006 27.5951C64.5653 27.6578 64.6164 27.7325 64.6511 27.8148C64.6858 27.8971 64.7032 27.9854 64.7024 28.0744V28.0744Z" fill="#DA840D"/>
<path d="M68.4803 30.8117C68.4803 30.9219 68.1244 31.0146 67.6914 31.0146C67.2584 31.0146 66.9084 30.9219 66.9084 30.8117C66.9084 30.7016 67.2584 30.603 67.6914 30.603C68.1244 30.603 68.4803 30.7248 68.4803 30.8117Z" fill="#DA840D"/>
<path d="M70.9424 29.4442C70.924 29.5072 70.885 29.5626 70.8315 29.6021C70.778 29.6415 70.7128 29.6629 70.6457 29.6629C70.5787 29.6629 70.5135 29.6415 70.46 29.6021C70.4064 29.5626 70.3675 29.5072 70.3491 29.4442C70.3675 29.3812 70.4064 29.3258 70.46 29.2864C70.5135 29.2469 70.5787 29.2256 70.6457 29.2256C70.7128 29.2256 70.778 29.2469 70.8315 29.2864C70.885 29.3258 70.924 29.3812 70.9424 29.4442V29.4442Z" fill="#DA840D"/>
<path d="M68.4807 30.8111C68.467 30.9368 68.4163 31.0559 68.3348 31.1541C68.2533 31.2523 68.1445 31.3254 68.0214 31.3645C67.8984 31.4036 67.7664 31.407 67.6414 31.3744C67.5164 31.3418 67.4037 31.2746 67.317 31.1808C67.2302 31.087 67.1731 30.9707 67.1525 30.8458C67.1319 30.721 67.1487 30.593 67.2008 30.4773C67.253 30.3616 67.3383 30.2632 67.4465 30.1938C67.5546 30.1244 67.681 30.0871 67.8104 30.0864C67.9031 30.0909 67.9941 30.1132 68.078 30.152C68.1619 30.1909 68.2371 30.2455 68.2994 30.3128C68.3617 30.3801 68.4097 30.4588 68.4408 30.5443C68.4719 30.6298 68.4855 30.7204 68.4807 30.8111V30.8111Z" fill="#DA840D"/>
<path d="M72.2891 29.6462C72.2891 29.8897 71.9214 30.0868 71.4646 30.0868C71.0079 30.0868 70.6401 29.8897 70.6401 29.6462C70.6401 29.4027 71.0079 29.2114 71.4646 29.2114C71.9214 29.2114 72.2891 29.4027 72.2891 29.6462Z" fill="#DA840D"/>
<path d="M91.7447 30.4057C91.7447 37.8956 75.4683 44.858 55.8761 44.858C36.2839 44.858 19.8889 37.3797 19.8889 29.8898C19.8889 22.3999 36.2839 17.7158 55.8761 17.7158C75.4683 17.7158 91.7447 22.9159 91.7447 30.4057Z" fill="#E3AC8A"/>
<path d="M91.3467 28.9857C91.3467 36.4698 75.4618 42.5452 55.8696 42.5452C36.2775 42.5452 20.4044 36.4466 20.4044 28.9857C20.4044 21.5248 36.2834 15.4204 55.8756 15.4204C75.4677 15.4204 91.3467 21.4494 91.3467 28.9857Z" fill="#DA840D"/>
<path d="M81.6846 27.6751C81.6846 33.2288 69.8984 37.7332 55.3659 37.7332C40.8334 37.7332 29.0651 33.2288 29.0651 27.6751C29.0651 22.1215 40.8334 17.6113 55.3659 17.6113C69.8984 17.6113 81.6846 22.1157 81.6846 27.6751Z" fill="#F0A508"/>
<path d="M37.648 31.3863C37.648 31.966 36.9836 32.4704 36.1532 32.4704C35.3228 32.4704 34.6584 31.9834 34.6584 31.3863C34.6584 30.7892 35.3287 30.3022 36.1532 30.3022C36.9777 30.3022 37.648 30.7892 37.648 31.3863Z" fill="#DA840D"/>
<path d="M34.6588 26.818C34.6518 26.9775 34.5972 27.1315 34.5017 27.2611C34.4062 27.3906 34.2739 27.4899 34.1213 27.5468C33.9687 27.6037 33.8023 27.6157 33.6428 27.5813C33.4833 27.5469 33.3376 27.4675 33.2237 27.3531C33.1098 27.2386 33.0326 27.0941 33.0018 26.9373C32.971 26.7805 32.9879 26.6184 33.0503 26.4708C33.1127 26.3233 33.2179 26.1968 33.3531 26.1071C33.4882 26.0173 33.6472 25.9682 33.8105 25.9658C33.9237 25.9666 34.0356 25.9893 34.1397 26.0327C34.2439 26.076 34.3381 26.1392 34.4171 26.2185C34.496 26.2978 34.558 26.3916 34.5995 26.4945C34.641 26.5975 34.6611 26.7074 34.6588 26.818V26.818Z" fill="#DA840D"/>
<path d="M43.6275 34.0167C44.4203 34.0167 45.0629 33.4275 45.0629 32.7007C45.0629 31.9739 44.4203 31.3848 43.6275 31.3848C42.8347 31.3848 42.192 31.9739 42.192 32.7007C42.192 33.4275 42.8347 34.0167 43.6275 34.0167Z" fill="#DA840D"/>
<path d="M41.9187 27.4792C41.9187 27.8387 41.5094 28.1343 41.0052 28.1343C40.501 28.1343 40.0977 27.8271 40.0977 27.4792C40.0977 27.1314 40.5069 26.8184 41.0052 26.8184C41.5034 26.8184 41.9187 27.114 41.9187 27.4792Z" fill="#DA840D"/>
<path d="M51.0891 30.5862C51.1108 30.7683 51.0753 30.9525 50.9874 31.1144C50.8994 31.2764 50.7633 31.4084 50.5969 31.4929C50.4304 31.5775 50.2417 31.6106 50.0555 31.588C49.8694 31.5653 49.6947 31.4879 49.5547 31.366C49.4146 31.2441 49.3157 31.0835 49.2711 30.9054C49.2266 30.7274 49.2384 30.5403 49.3051 30.3689C49.3718 30.1976 49.4902 30.0502 49.6446 29.9461C49.799 29.842 49.9822 29.7863 50.1697 29.7862C50.3997 29.7751 50.6249 29.8527 50.7969 30.0023C50.9689 30.152 51.0738 30.3617 51.0891 30.5862V30.5862Z" fill="#DA840D"/>
<path d="M51.4389 35.4079C51.4389 35.7789 51 36.0803 50.4543 36.0803C49.9085 36.0803 49.4696 35.7789 49.4696 35.4079C49.4696 35.0369 49.9085 34.7412 50.4543 34.7412C51 34.7412 51.4389 35.0427 51.4389 35.4079Z" fill="#DA840D"/>
<path d="M47.5128 28.2196C47.5025 28.3533 47.4524 28.4812 47.3688 28.5876C47.2852 28.694 47.1717 28.7742 47.0422 28.8185C46.9126 28.8628 46.7727 28.8693 46.6395 28.837C46.5062 28.8048 46.3855 28.7353 46.2921 28.6371C46.1986 28.5389 46.1365 28.4161 46.1133 28.2839C46.0901 28.1517 46.1069 28.0158 46.1615 27.8927C46.2161 27.7697 46.3063 27.6649 46.4209 27.5911C46.5356 27.5174 46.6697 27.4779 46.807 27.4775C47.0011 27.4851 47.1842 27.5673 47.3164 27.7064C47.4487 27.8454 47.5193 28.0299 47.5128 28.2196V28.2196Z" fill="#DA840D"/>
<path d="M57.7264 29.6288C57.7264 29.9998 57.2993 30.3013 56.7714 30.3013C56.2435 30.3013 55.8164 29.9998 55.8164 29.6288C55.8164 29.2578 56.2435 28.9854 56.7714 28.9854C57.2993 28.9854 57.7264 29.2578 57.7264 29.6288Z" fill="#DA840D"/>
<path d="M57.7264 33.1017C57.7264 33.3219 57.2993 33.5017 56.7714 33.5017C56.2435 33.5017 55.8164 33.3219 55.8164 33.1017C55.8164 32.8814 56.2435 32.7017 56.7714 32.7017C57.2993 32.7017 57.7264 32.8814 57.7264 33.1017Z" fill="#DA840D"/>
<path d="M64.1855 30.8414C64.1855 31.1428 63.8 31.3863 63.3195 31.3863C62.839 31.3863 62.4535 31.1428 62.4535 30.8414C62.4535 30.5399 62.845 30.3022 63.3195 30.3022C63.794 30.3022 64.1855 30.5457 64.1855 30.8414Z" fill="#DA840D"/>
<path d="M63.1539 34.7141C63.1969 34.8957 63.1811 35.0859 63.1087 35.2584C63.0362 35.4308 62.9106 35.577 62.7493 35.6766C62.5881 35.7762 62.3991 35.8243 62.2086 35.8142C62.0181 35.8042 61.8356 35.7364 61.6862 35.6204C61.5369 35.5044 61.4282 35.3459 61.3751 35.1668C61.3221 34.9877 61.3273 34.797 61.3902 34.6209C61.453 34.4449 61.5704 34.2923 61.7259 34.1844C61.8814 34.0764 62.0675 34.0184 62.2582 34.0184C62.4712 33.9956 62.6848 34.0558 62.8525 34.1861C63.0203 34.3164 63.1286 34.5061 63.1539 34.7141Z" fill="#DA840D"/>
<path d="M70.3435 33.6238C70.3003 33.7928 70.2096 33.9466 70.0816 34.0678C69.9536 34.189 69.7935 34.2728 69.6193 34.3097C69.4451 34.3466 69.2638 34.3351 69.096 34.2766C68.9281 34.218 68.7804 34.1147 68.6695 33.9784C68.5586 33.842 68.4889 33.6781 68.4684 33.505C68.4479 33.332 68.4773 33.1568 68.5533 32.9993C68.6294 32.8418 68.749 32.7082 68.8987 32.6136C69.0484 32.5191 69.2222 32.4674 69.4004 32.4644C69.5414 32.4772 69.6782 32.5177 69.8027 32.5836C69.9273 32.6494 70.0369 32.7392 70.125 32.8475C70.2131 32.9558 70.2778 33.0804 70.3154 33.2138C70.353 33.3472 70.3625 33.4867 70.3435 33.6238V33.6238Z" fill="#DA840D"/>
<path d="M69.8277 28.5454C69.8277 28.7773 69.5252 28.9628 69.1515 28.9628C68.7778 28.9628 68.4812 28.7773 68.4812 28.5454C68.4812 28.3135 68.7778 28.1338 69.1515 28.1338C69.5252 28.1338 69.8277 28.3193 69.8277 28.5454Z" fill="#DA840D"/>
<path d="M75.5219 29.757C75.5219 30.6555 75.1126 31.386 74.6084 31.386C74.1043 31.386 73.7009 30.6555 73.7009 29.757C73.7009 28.8584 74.1102 28.1338 74.6084 28.1338C75.1067 28.1338 75.5219 28.8642 75.5219 29.757Z" fill="#DA840D"/>
<path d="M77.7998 28.1106C77.7986 28.1952 77.7719 28.2775 77.7229 28.3473C77.674 28.4171 77.605 28.4712 77.5247 28.5028C77.4444 28.5344 77.3564 28.542 77.2716 28.5248C77.1868 28.5076 77.1092 28.4663 77.0484 28.4061C76.9876 28.3459 76.9463 28.2694 76.9299 28.1864C76.9134 28.1033 76.9225 28.0174 76.9558 27.9393C76.9892 27.8612 77.0455 27.7946 77.1176 27.7477C77.1896 27.7008 77.2742 27.6758 77.3608 27.6758C77.419 27.6758 77.4765 27.6871 77.5302 27.709C77.5838 27.7309 77.6325 27.763 77.6733 27.8035C77.7142 27.8439 77.7464 27.8919 77.7681 27.9446C77.7898 27.9973 77.8006 28.0538 77.7998 28.1106V28.1106Z" fill="#DA840D"/>
<path d="M62.8393 26.7195C62.8393 27.1369 62.2877 27.4789 61.6055 27.4789C60.9234 27.4789 60.3658 27.1369 60.3658 26.7195C60.3658 26.3021 60.9175 25.9658 61.6055 25.9658C62.2936 25.9658 62.8393 26.3021 62.8393 26.7195Z" fill="#DA840D"/>
<path d="M39.5878 22.8183C39.5878 23.0733 39.1548 23.282 38.621 23.282C38.0871 23.282 37.6482 23.0733 37.6482 22.8183C37.6482 22.5632 38.0812 22.3545 38.621 22.3545C39.1607 22.3545 39.5878 22.5632 39.5878 22.8183Z" fill="#DA840D"/>
<path d="M45.2818 21.8842C45.2818 22.145 44.7895 22.3537 44.1785 22.3537C43.5676 22.3537 43.0812 22.145 43.0812 21.8842C43.0812 21.6233 43.5735 21.4204 44.1785 21.4204C44.7836 21.4204 45.2818 21.6291 45.2818 21.8842Z" fill="#DA840D"/>
<path d="M52.4473 23.0212C52.4473 23.3922 51.7829 23.6936 50.9584 23.6936C50.1339 23.6936 49.4696 23.3922 49.4696 23.0212C49.4696 22.6501 50.1399 22.3545 50.9584 22.3545C51.777 22.3545 52.4473 22.6501 52.4473 23.0212Z" fill="#DA840D"/>
<path d="M57.7264 21.8842C57.7275 21.9776 57.7002 22.0691 57.6479 22.1472C57.5955 22.2254 57.5206 22.2864 57.4325 22.3227C57.3445 22.3589 57.2474 22.3687 57.1537 22.3508C57.0599 22.3329 56.9738 22.288 56.9062 22.222C56.8387 22.156 56.7928 22.0718 56.7744 21.9802C56.7561 21.8885 56.7661 21.7937 56.8032 21.7076C56.8403 21.6216 56.9028 21.5483 56.9827 21.4972C57.0626 21.446 57.1563 21.4193 57.2518 21.4204C57.3777 21.4204 57.4984 21.4693 57.5874 21.5563C57.6764 21.6433 57.7264 21.7612 57.7264 21.8842V21.8842Z" fill="#DA840D"/>
<path d="M56.7713 25.5531C56.7713 25.7792 56.3205 25.9647 55.757 25.9647C55.1935 25.9647 54.7427 25.7792 54.7427 25.5531C54.7427 25.327 55.1994 25.1357 55.757 25.1357C56.3146 25.1357 56.7713 25.3213 56.7713 25.5531Z" fill="#DA840D"/>
<path d="M64.7024 21.6813C64.7036 21.8157 64.6639 21.9474 64.5883 22.0597C64.5128 22.172 64.4048 22.2598 64.2781 22.312C64.1514 22.3643 64.0117 22.3785 63.8767 22.353C63.7417 22.3275 63.6175 22.2634 63.5198 22.1687C63.4222 22.0741 63.3555 21.9533 63.3282 21.8216C63.301 21.6898 63.3144 21.5532 63.3667 21.4289C63.4191 21.3046 63.508 21.1983 63.6222 21.1235C63.7365 21.0487 63.8709 21.0088 64.0084 21.0088C64.0993 21.008 64.1894 21.0249 64.2735 21.0583C64.3577 21.0918 64.4343 21.1412 64.4988 21.2037C64.5633 21.2662 64.6145 21.3406 64.6495 21.4226C64.6844 21.5046 64.7024 21.5925 64.7024 21.6813V21.6813Z" fill="#DA840D"/>
<path d="M68.4803 24.4182C68.4803 24.5283 68.1244 24.6211 67.6914 24.6211C67.2584 24.6211 66.9084 24.5283 66.9084 24.4182C66.9084 24.308 67.2584 24.2095 67.6914 24.2095C68.1244 24.2095 68.4803 24.3022 68.4803 24.4182Z" fill="#DA840D"/>
<path d="M70.9429 23.0486C70.9577 23.1094 70.9527 23.1732 70.9287 23.2312C70.9047 23.2891 70.8629 23.3383 70.809 23.372C70.7552 23.4057 70.6919 23.4222 70.628 23.4192C70.5641 23.4162 70.5028 23.3939 70.4524 23.3553C70.4021 23.3167 70.3653 23.2638 70.3471 23.2039C70.3289 23.144 70.3302 23.08 70.3509 23.0208C70.3715 22.9617 70.4105 22.9102 70.4623 22.8736C70.5142 22.8371 70.5764 22.8172 70.6404 22.8167C70.7116 22.81 70.7828 22.8303 70.8391 22.8735C70.8954 22.9167 70.9326 22.9794 70.9429 23.0486V23.0486Z" fill="#DA840D"/>
<path d="M68.4807 24.417C68.467 24.5427 68.4163 24.6619 68.3348 24.7601C68.2533 24.8583 68.1445 24.9313 68.0214 24.9704C67.8984 25.0095 67.7664 25.013 67.6414 24.9804C67.5164 24.9478 67.4037 24.8805 67.317 24.7867C67.2302 24.6929 67.1731 24.5766 67.1525 24.4518C67.1319 24.327 67.1487 24.199 67.2008 24.0833C67.253 23.9676 67.3383 23.8691 67.4465 23.7998C67.5546 23.7304 67.681 23.6931 67.8104 23.6924C67.9031 23.6968 67.9941 23.7191 68.078 23.758C68.1619 23.7968 68.2371 23.8515 68.2994 23.9188C68.3617 23.9861 68.4097 24.0648 68.4408 24.1502C68.4719 24.2357 68.4855 24.3264 68.4807 24.417V24.417Z" fill="#DA840D"/>
<path d="M72.2891 23.2522C72.2891 23.4957 71.9214 23.6928 71.4646 23.6928C71.0079 23.6928 70.6401 23.4957 70.6401 23.2522C70.6401 23.0087 71.0079 22.8174 71.4646 22.8174C71.9214 22.8174 72.2891 23.0145 72.2891 23.2522Z" fill="#DA840D"/>
<path d="M90.3742 23.8212C89.5438 16.6211 74.6672 10.8936 56.4334 10.8936C39.374 10.8936 25.2567 15.9081 22.8248 22.4414C22.263 23.3244 21.9594 24.3409 21.9469 25.3806C21.9469 32.8705 37.6657 40.3546 56.4334 40.3546C75.2011 40.3546 90.7894 33.398 90.7894 25.8965C90.7881 25.1851 90.6472 24.4806 90.3742 23.8212Z" fill="#C66720"/>
<path d="M92.4684 22.5222C92.4684 30.0121 76.192 36.9802 56.5999 36.9802C37.0077 36.9802 20.6127 29.4962 20.6127 22.0294C20.6127 14.5627 37.0077 9.85547 56.5999 9.85547C76.192 9.85547 92.4684 15.0323 92.4684 22.5222Z" fill="#E3AC8A"/>
<path d="M92.154 21.079C92.154 28.5689 76.7318 34.2269 57.1574 34.2269C37.583 34.2269 21.6863 28.1573 21.6863 20.6674C21.6863 13.1775 37.5653 7.10791 57.1574 7.10791C76.7496 7.10791 92.154 13.5891 92.154 21.079Z" fill="#DA840D"/>
<path d="M56.0899 29.8494C70.6253 29.8494 82.4086 25.3463 82.4086 19.7914C82.4086 14.2365 70.6253 9.7334 56.0899 9.7334C41.5545 9.7334 29.7712 14.2365 29.7712 19.7914C29.7712 25.3463 41.5545 29.8494 56.0899 29.8494Z" fill="#F0A508"/>
<path d="M38.3717 23.5011C38.3717 24.0808 37.7015 24.5909 36.877 24.5909C36.0525 24.5909 35.3822 24.104 35.3822 23.5011C35.3822 22.8982 36.0525 22.417 36.877 22.417C37.7015 22.417 38.3717 22.904 38.3717 23.5011Z" fill="#DA840D"/>
<path d="M35.3818 18.9385C35.3737 19.0982 35.3178 19.2521 35.2211 19.3811C35.1244 19.5101 34.9911 19.6085 34.8378 19.6642C34.6844 19.7199 34.5177 19.7304 34.3583 19.6944C34.1989 19.6584 34.0538 19.5776 33.9409 19.4618C33.8281 19.346 33.7524 19.2004 33.7234 19.0431C33.6943 18.8857 33.7131 18.7235 33.7775 18.5765C33.8418 18.4295 33.9489 18.3042 34.0854 18.216C34.2219 18.1279 34.3818 18.0808 34.5454 18.0806C34.6581 18.0828 34.7692 18.1068 34.8724 18.1513C34.9755 18.1957 35.0687 18.2596 35.1464 18.3394C35.2242 18.4191 35.285 18.5131 35.3254 18.616C35.3658 18.7188 35.385 18.8284 35.3818 18.9385V18.9385Z" fill="#DA840D"/>
<path d="M45.7865 24.8229C45.8031 25.1032 45.7332 25.382 45.5859 25.6231C45.4386 25.8643 45.2207 26.0566 44.9603 26.1754C44.6999 26.2941 44.4091 26.3337 44.1254 26.2891C43.8417 26.2445 43.5782 26.1177 43.3691 25.9251C43.1599 25.7326 43.0147 25.4831 42.9523 25.209C42.8898 24.9348 42.913 24.6487 43.0188 24.3876C43.1245 24.1265 43.3081 23.9024 43.5456 23.7444C43.7831 23.5863 44.0637 23.5016 44.351 23.5011C44.5341 23.4957 44.7164 23.5256 44.8877 23.5891C45.0589 23.6526 45.2157 23.7485 45.349 23.8713C45.4823 23.994 45.5896 24.1412 45.6646 24.3045C45.7397 24.4678 45.7811 24.6439 45.7865 24.8229Z" fill="#DA840D"/>
<path d="M42.6428 19.594C42.6428 19.9593 42.2335 20.2491 41.7293 20.2491C41.2251 20.2491 40.8218 19.9593 40.8218 19.594C40.8218 19.2288 41.2311 18.939 41.7293 18.939C42.2276 18.939 42.6428 19.2346 42.6428 19.594Z" fill="#DA840D"/>
<path d="M51.8125 22.7013C51.8341 22.8833 51.7987 23.0676 51.7107 23.2295C51.6228 23.3914 51.4866 23.5234 51.3202 23.608C51.1538 23.6925 50.9651 23.7257 50.7789 23.703C50.5928 23.6804 50.4181 23.6029 50.278 23.481C50.138 23.3592 50.0391 23.1985 49.9945 23.0205C49.95 22.8424 49.9618 22.6553 50.0285 22.484C50.0952 22.3127 50.2136 22.1652 50.368 22.0611C50.5224 21.9571 50.7055 21.9013 50.8931 21.9013C51.1235 21.8886 51.3496 21.9657 51.5219 22.1156C51.6942 22.2656 51.7987 22.4762 51.8125 22.7013V22.7013Z" fill="#DA840D"/>
<path d="M52.163 27.5309C52.163 27.9019 51.7241 28.2033 51.1784 28.2033C50.6327 28.2033 50.1937 27.9019 50.1937 27.5309C50.1937 27.1599 50.6327 26.8584 51.1784 26.8584C51.7241 26.8584 52.163 27.1599 52.163 27.5309Z" fill="#DA840D"/>
<path d="M48.2363 20.3363C48.226 20.47 48.1759 20.5979 48.0923 20.7043C48.0087 20.8107 47.8952 20.8909 47.7657 20.9352C47.6361 20.9795 47.4962 20.986 47.363 20.9538C47.2297 20.9215 47.109 20.8521 47.0156 20.7538C46.9221 20.6556 46.86 20.5328 46.8368 20.4006C46.8136 20.2684 46.8304 20.1325 46.885 20.0094C46.9397 19.8864 47.0298 19.7816 47.1445 19.7078C47.2591 19.6341 47.3932 19.5946 47.5305 19.5942C47.6268 19.5972 47.7216 19.6188 47.8094 19.6578C47.8971 19.6968 47.9761 19.7524 48.0417 19.8214C48.1073 19.8904 48.1583 19.9714 48.1917 20.0598C48.2252 20.1482 48.2403 20.2421 48.2363 20.3363Z" fill="#DA840D"/>
<path d="M58.4503 21.7501C58.4503 22.1211 58.0232 22.4168 57.4953 22.4168C56.9674 22.4168 56.5403 22.1211 56.5403 21.7501C56.5403 21.3791 56.9674 21.0776 57.4953 21.0776C58.0232 21.0776 58.4503 21.3791 58.4503 21.7501Z" fill="#DA840D"/>
<path d="M58.4503 25.2237C58.4503 25.444 58.0232 25.6237 57.4953 25.6237C56.9674 25.6237 56.5403 25.444 56.5403 25.2237C56.5403 25.0034 56.9674 24.8237 57.4953 24.8237C58.0232 24.8237 58.4503 25.0034 58.4503 25.2237Z" fill="#DA840D"/>
<path d="M64.9099 22.9619C64.9099 23.2634 64.5184 23.5011 64.0439 23.5011C63.5694 23.5011 63.1779 23.2634 63.1779 22.9619C63.1779 22.6605 63.5694 22.417 64.0439 22.417C64.5184 22.417 64.9099 22.6605 64.9099 22.9619Z" fill="#DA840D"/>
<path d="M63.8777 26.8351C63.9208 27.0167 63.905 27.2069 63.8325 27.3794C63.76 27.5519 63.6344 27.698 63.4732 27.7976C63.3119 27.8972 63.1229 27.9453 62.9324 27.9352C62.7419 27.9252 62.5594 27.8575 62.41 27.7415C62.2607 27.6255 62.1519 27.4669 62.0989 27.2879C62.0458 27.1088 62.0511 26.918 62.114 26.7419C62.1768 26.5659 62.2941 26.4133 62.4497 26.3054C62.6052 26.1974 62.7912 26.1394 62.982 26.1394C63.1947 26.1181 63.4075 26.1789 63.5748 26.3089C63.7422 26.4389 63.8509 26.6278 63.8777 26.8351V26.8351Z" fill="#DA840D"/>
<path d="M71.0664 25.7102C71.0294 25.8815 70.9436 26.0392 70.8188 26.1649C70.694 26.2905 70.5353 26.3791 70.3611 26.4203C70.187 26.4615 70.0044 26.4537 69.8346 26.3978C69.6648 26.3418 69.5146 26.24 69.4016 26.1042C69.2885 25.9683 69.217 25.8039 69.1956 25.63C69.1741 25.4562 69.2034 25.2799 69.2802 25.1216C69.3569 24.9633 69.4779 24.8295 69.6292 24.7357C69.7806 24.6419 69.956 24.5918 70.1352 24.5913C70.4091 24.622 70.66 24.7562 70.834 24.9653C71.008 25.1744 71.0914 25.4417 71.0664 25.7102V25.7102Z" fill="#DA840D"/>
<path d="M70.5444 20.6669C70.5444 20.893 70.2478 21.0785 69.8741 21.0785C69.5004 21.0785 69.2039 20.893 69.2039 20.6669C69.2039 20.4408 69.5004 20.2495 69.8741 20.2495C70.2478 20.2495 70.5444 20.435 70.5444 20.6669Z" fill="#DA840D"/>
<path d="M76.2455 21.8785C76.2455 22.7771 75.8363 23.5017 75.3321 23.5017C74.8279 23.5017 74.4246 22.7771 74.4246 21.8785C74.4246 20.98 74.8338 20.2495 75.3321 20.2495C75.8303 20.2495 76.2455 20.98 76.2455 21.8785Z" fill="#DA840D"/>
<path d="M78.5234 20.2321C78.521 20.3164 78.4933 20.3982 78.4437 20.4672C78.3941 20.5362 78.3247 20.5894 78.2443 20.6201C78.164 20.6508 78.0761 20.6576 77.9917 20.6398C77.9074 20.6219 77.8303 20.5802 77.7701 20.5198C77.7099 20.4593 77.6692 20.3829 77.6532 20.3C77.6372 20.2171 77.6466 20.1315 77.6801 20.0538C77.7137 19.976 77.7699 19.9097 77.8418 19.8631C77.9137 19.8164 77.9981 19.7915 78.0844 19.7915C78.1428 19.7923 78.2005 19.8043 78.2542 19.8268C78.3079 19.8494 78.3565 19.882 78.3973 19.9229C78.438 19.9639 78.4701 20.0122 78.4918 20.0653C78.5134 20.1183 78.5242 20.175 78.5234 20.2321V20.2321Z" fill="#DA840D"/>
<path d="M63.5632 18.84C63.5632 19.2574 63.0116 19.5936 62.3295 19.5936C61.6473 19.5936 61.0957 19.2574 61.0957 18.84C61.0957 18.4226 61.6473 18.0806 62.3354 18.0806C63.0235 18.0806 63.5632 18.4226 63.5632 18.84Z" fill="#DA840D"/>
<path d="M40.3352 14.934C40.3352 15.1891 39.9021 15.3977 39.3683 15.3977C38.8344 15.3977 38.3955 15.1891 38.3955 14.934C38.3955 14.6789 38.8285 14.4702 39.3683 14.4702C39.9081 14.4702 40.3352 14.6789 40.3352 14.934Z" fill="#DA840D"/>
<path d="M46.006 14.0063C46.006 14.2613 45.5137 14.47 44.9028 14.47C44.2918 14.47 43.8054 14.2613 43.8054 14.0063C43.8054 13.7512 44.2977 13.5425 44.9028 13.5425C45.5078 13.5425 46.006 13.7512 46.006 14.0063Z" fill="#DA840D"/>
<path d="M53.1714 15.142C53.1714 15.513 52.5071 15.8144 51.6826 15.8144C50.8581 15.8144 50.1937 15.513 50.1937 15.142C50.1937 14.7709 50.8581 14.4927 51.6826 14.4927C52.5071 14.4927 53.1714 14.7709 53.1714 15.142Z" fill="#DA840D"/>
<path d="M58.4501 14.0048C58.4513 14.0979 58.4241 14.1893 58.3721 14.2673C58.32 14.3452 58.2454 14.4063 58.1577 14.4427C58.07 14.4792 57.9732 14.4893 57.8796 14.4719C57.786 14.4544 57.6999 14.4101 57.6321 14.3447C57.5643 14.2793 57.518 14.1956 57.4989 14.1044C57.4799 14.0131 57.4891 13.9184 57.5253 13.8323C57.5614 13.7461 57.623 13.6725 57.7021 13.6206C57.7813 13.5688 57.8744 13.5411 57.9697 13.5411C58.0325 13.5403 58.0948 13.5517 58.1531 13.5747C58.2113 13.5976 58.2644 13.6317 58.3091 13.6748C58.3537 13.718 58.3892 13.7693 58.4135 13.826C58.4377 13.8826 58.4501 13.9434 58.4501 14.0048V14.0048Z" fill="#DA840D"/>
<path d="M57.495 17.6694C57.495 17.9013 57.0442 18.081 56.4807 18.081C55.9172 18.081 55.4664 17.9013 55.4664 17.6694C55.4664 17.4375 55.9232 17.2578 56.4807 17.2578C57.0383 17.2578 57.495 17.4433 57.495 17.6694Z" fill="#DA840D"/>
<path d="M65.4259 13.7961C65.4283 13.9307 65.3896 14.063 65.3148 14.176C65.24 14.2891 65.1324 14.3778 65.0059 14.4309C64.8793 14.4841 64.7394 14.4991 64.604 14.4743C64.4686 14.4495 64.3438 14.3858 64.2456 14.2914C64.1474 14.197 64.0801 14.0762 64.0523 13.9443C64.0246 13.8125 64.0376 13.6755 64.0898 13.5509C64.1419 13.4263 64.2308 13.3196 64.3452 13.2446C64.4596 13.1695 64.5942 13.1294 64.732 13.1294C64.8223 13.1287 64.9119 13.1453 64.9957 13.1784C65.0795 13.2115 65.1558 13.2604 65.2202 13.3223C65.2847 13.3842 65.336 13.4579 65.3713 13.5392C65.4066 13.6205 65.4252 13.7078 65.4259 13.7961V13.7961Z" fill="#DA840D"/>
<path d="M69.2044 16.5325C69.2044 16.6484 68.8485 16.7412 68.4154 16.7412C67.9824 16.7412 67.6324 16.6484 67.6324 16.5325C67.6324 16.4165 67.9824 16.3296 68.4154 16.3296C68.8485 16.3296 69.2044 16.4223 69.2044 16.5325Z" fill="#DA840D"/>
<path d="M71.6658 15.1658C71.6805 15.2266 71.6756 15.2904 71.6516 15.3483C71.6276 15.4063 71.5858 15.4555 71.5319 15.4892C71.478 15.5229 71.4148 15.5394 71.3509 15.5364C71.287 15.5334 71.2257 15.5111 71.1753 15.4725C71.125 15.4339 71.0882 15.381 71.07 15.3211C71.0518 15.2612 71.0531 15.1972 71.0738 15.138C71.0944 15.0788 71.1334 15.0274 71.1852 14.9908C71.2371 14.9543 71.2993 14.9344 71.3633 14.9339C71.4345 14.9272 71.5057 14.9475 71.562 14.9907C71.6183 15.0339 71.6554 15.0965 71.6658 15.1658V15.1658Z" fill="#DA840D"/>
<path d="M69.2042 16.5335C69.2129 16.6243 69.2022 16.7159 69.1727 16.8025C69.1431 16.889 69.0954 16.9685 69.0326 17.036C68.9698 17.1035 68.8932 17.1573 68.8079 17.1942C68.7225 17.2311 68.6302 17.2502 68.5369 17.2502C68.4435 17.2502 68.3512 17.2311 68.2659 17.1942C68.1805 17.1573 68.1039 17.1035 68.0411 17.036C67.9783 16.9685 67.9306 16.889 67.9011 16.8025C67.8715 16.7159 67.8608 16.6243 67.8695 16.5335C67.8608 16.4427 67.8715 16.3511 67.9011 16.2646C67.9306 16.1781 67.9783 16.0985 68.0411 16.0311C68.1039 15.9636 68.1805 15.9097 68.2659 15.8728C68.3512 15.8359 68.4435 15.8169 68.5369 15.8169C68.6302 15.8169 68.7225 15.8359 68.8079 15.8728C68.8932 15.9097 68.9698 15.9636 69.0326 16.0311C69.0954 16.0985 69.1431 16.1781 69.1727 16.2646C69.2022 16.3511 69.2129 16.4427 69.2042 16.5335V16.5335Z" fill="#DA840D"/>
<path d="M73.0066 15.3742C73.0066 15.6177 72.6448 15.8148 72.188 15.8148C71.7313 15.8148 71.3635 15.6177 71.3635 15.3742C71.3635 15.1307 71.7313 14.9336 72.188 14.9336C72.6448 14.9336 73.0066 15.1307 73.0066 15.3742Z" fill="#DA840D"/>
<path d="M92.3137 15.2998C92.3137 19.8679 86.2634 24.239 77.099 26.952C70.3888 28.8549 63.4319 29.7981 56.4451 29.752C49.167 29.752 43.1879 27.8796 37.1495 27.4332C27.0776 26.668 20.4579 19.4911 20.4579 14.7838C20.4579 7.29395 36.8588 2.60986 56.4451 2.60986C76.0313 2.60986 92.3137 7.80989 92.3137 15.2998Z" fill="#E3AC8A"/>
<path d="M91.8633 14.3075C91.8633 21.7974 75.9784 27.867 56.3862 27.867C36.794 27.867 20.915 21.7974 20.915 14.3075C20.915 6.81764 36.7762 0.748047 56.3862 0.748047C75.9962 0.748047 91.8633 6.81764 91.8633 14.3075Z" fill="#DA840D"/>
<path d="M82.1949 13.0262C82.1949 18.5799 70.4087 23.0842 55.8763 23.0842C41.3438 23.0842 29.5576 18.5799 29.5576 13.0262C29.5576 7.47257 41.3378 2.9624 55.8763 2.9624C70.4147 2.9624 82.1949 7.46677 82.1949 13.0262Z" fill="#F0A508"/>
<path d="M38.1583 16.7364C38.1583 17.3161 37.488 17.8205 36.6635 17.8205C35.839 17.8205 35.1687 17.3335 35.1687 16.7364C35.1687 16.1393 35.839 15.6523 36.6635 15.6523C37.488 15.6523 38.1583 16.1335 38.1583 16.7364Z" fill="#DA840D"/>
<path d="M35.1686 12.1744C35.1616 12.3344 35.1067 12.4889 35.0107 12.6187C34.9146 12.7485 34.7817 12.8478 34.6284 12.9044C34.4751 12.9609 34.3081 12.9722 34.1483 12.9369C33.9885 12.9015 33.8428 12.8211 33.7294 12.7055C33.6159 12.5899 33.5397 12.4443 33.5102 12.2868C33.4807 12.1292 33.4993 11.9667 33.5635 11.8193C33.6277 11.672 33.7348 11.5463 33.8715 11.458C34.0081 11.3696 34.1683 11.3224 34.3322 11.3223C34.4444 11.3245 34.555 11.3484 34.6578 11.3924C34.7605 11.4365 34.8534 11.4999 34.931 11.579C35.0087 11.6581 35.0697 11.7515 35.1104 11.8536C35.1512 11.9558 35.171 12.0648 35.1686 12.1744V12.1744Z" fill="#DA840D"/>
<path d="M45.5729 18.0524C45.5907 18.3329 45.5219 18.6122 45.3754 18.8541C45.2289 19.0959 45.0114 19.2892 44.7512 19.4088C44.491 19.5285 44.2 19.569 43.9159 19.5251C43.6319 19.4811 43.3679 19.3549 43.1581 19.1626C42.9484 18.9703 42.8026 18.7209 42.7396 18.4466C42.6766 18.1724 42.6993 17.886 42.8049 17.6245C42.9104 17.3631 43.0939 17.1386 43.3315 16.9803C43.569 16.822 43.8498 16.737 44.1374 16.7365C44.5062 16.7255 44.8643 16.8579 45.1334 17.1046C45.4024 17.3512 45.5605 17.6921 45.5729 18.0524V18.0524Z" fill="#DA840D"/>
<path d="M42.4295 12.8294C42.4295 13.1888 42.0202 13.4845 41.5161 13.4845C41.0119 13.4845 40.6085 13.1888 40.6085 12.8294C40.6085 12.47 41.0178 12.1743 41.522 12.1743C42.0262 12.1743 42.4295 12.4642 42.4295 12.8294Z" fill="#DA840D"/>
<path d="M51.6055 15.9353C51.6259 16.1162 51.5897 16.2988 51.5016 16.4591C51.4135 16.6194 51.2777 16.7497 51.1121 16.8329C50.9466 16.9162 50.7591 16.9483 50.5744 16.9251C50.3898 16.9019 50.2167 16.8245 50.078 16.7031C49.9394 16.5816 49.8417 16.4219 49.798 16.2451C49.7542 16.0683 49.7664 15.8826 49.833 15.7127C49.8995 15.5428 50.0173 15.3966 50.1707 15.2935C50.324 15.1904 50.5058 15.1352 50.692 15.1353C50.9214 15.1242 51.146 15.202 51.317 15.3518C51.488 15.5016 51.5917 15.7113 51.6055 15.9353Z" fill="#DA840D"/>
<path d="M51.9495 20.7585C51.9495 21.1295 51.5106 21.4309 50.9649 21.4309C50.4192 21.4309 49.9802 21.1295 49.9802 20.7585C49.9802 20.3874 50.4192 20.0918 50.9649 20.0918C51.5106 20.0918 51.9495 20.3932 51.9495 20.7585Z" fill="#DA840D"/>
<path d="M48.0462 13.5649C48.037 13.6989 47.9879 13.8275 47.9049 13.9347C47.8219 14.0419 47.7088 14.123 47.5792 14.1682C47.4497 14.2134 47.3095 14.2206 47.1759 14.189C47.0422 14.1573 46.9209 14.0882 46.8269 13.9902C46.7329 13.8921 46.6702 13.7693 46.6466 13.6369C46.623 13.5045 46.6395 13.3682 46.694 13.2449C46.7485 13.1215 46.8388 13.0164 46.9536 12.9424C47.0684 12.8685 47.2029 12.8289 47.3404 12.8286C47.4362 12.8316 47.5305 12.853 47.6178 12.8917C47.7052 12.9303 47.7839 12.9854 47.8494 13.0538C47.915 13.1221 47.9661 13.2025 47.9999 13.2902C48.0337 13.3779 48.0494 13.4712 48.0462 13.5649V13.5649Z" fill="#DA840D"/>
<path d="M58.2367 14.9791C58.2367 15.3501 57.8096 15.6516 57.2817 15.6516C56.7538 15.6516 56.3505 15.3501 56.3505 14.9791C56.3505 14.6081 56.7775 14.3066 57.3055 14.3066C57.8334 14.3066 58.2367 14.6081 58.2367 14.9791Z" fill="#DA840D"/>
<path d="M58.2367 18.4518C58.2367 18.6721 57.8096 18.8518 57.2817 18.8518C56.7538 18.8518 56.3505 18.6721 56.3505 18.4518C56.3505 18.2315 56.7775 18.0518 57.3055 18.0518C57.8334 18.0518 58.2367 18.2315 58.2367 18.4518Z" fill="#DA840D"/>
<path d="M64.6964 16.1915C64.6964 16.4929 64.3049 16.7364 63.8304 16.7364C63.3558 16.7364 62.9644 16.4929 62.9644 16.1915C62.9644 15.89 63.3558 15.6523 63.8304 15.6523C64.3049 15.6523 64.6964 15.8958 64.6964 16.1915Z" fill="#DA840D"/>
<path d="M63.6646 20.0638C63.6134 20.2563 63.4982 20.4267 63.3372 20.5483C63.1762 20.6699 62.9784 20.7359 62.7749 20.7359C62.5714 20.7359 62.3736 20.6699 62.2126 20.5483C62.0516 20.4267 61.9364 20.2563 61.8851 20.0638C61.9364 19.8713 62.0516 19.7009 62.2126 19.5792C62.3736 19.4576 62.5714 19.3916 62.7749 19.3916C62.9784 19.3916 63.1762 19.4576 63.3372 19.5792C63.4982 19.7009 63.6134 19.8713 63.6646 20.0638V20.0638Z" fill="#DA840D"/>
<path d="M70.8533 18.9448C70.8803 19.0792 70.8765 19.2177 70.8422 19.3505C70.8079 19.4833 70.744 19.6071 70.655 19.7128C70.5659 19.8186 70.454 19.9038 70.3273 19.9623C70.2006 20.0208 70.0622 20.0511 69.922 20.0511C69.7819 20.0511 69.6435 20.0208 69.5168 19.9623C69.3901 19.9038 69.2782 19.8186 69.1891 19.7128C69.1001 19.6071 69.0361 19.4833 69.0018 19.3505C68.9675 19.2177 68.9638 19.0792 68.9908 18.9448C68.959 18.8081 68.9591 18.6662 68.9911 18.5296C69.0232 18.393 69.0862 18.2652 69.1757 18.1557C69.2652 18.0462 69.3787 17.9578 69.5079 17.897C69.6371 17.8362 69.7786 17.8047 69.922 17.8047C70.0654 17.8047 70.207 17.8362 70.3362 17.897C70.4654 17.9578 70.5789 18.0462 70.6684 18.1557C70.7578 18.2652 70.8209 18.393 70.8529 18.5296C70.8849 18.6662 70.8851 18.8081 70.8533 18.9448V18.9448Z" fill="#DA840D"/>
<path d="M70.3311 13.9131C70.3311 14.1392 70.0346 14.3247 69.6609 14.3247C69.2872 14.3247 68.9906 14.1392 68.9906 13.9131C68.9906 13.687 69.2872 13.5015 69.6609 13.5015C70.0346 13.5015 70.3311 13.6696 70.3311 13.9131Z" fill="#DA840D"/>
<path d="M76.0316 15.1081C76.0316 16.0066 75.6223 16.7371 75.1181 16.7371C74.6139 16.7371 74.2106 16.0066 74.2106 15.1081C74.2106 14.2095 74.6139 13.4849 75.1181 13.4849C75.6223 13.4849 76.0316 14.2095 76.0316 15.1081Z" fill="#DA840D"/>
<path d="M78.297 13.4616C78.2959 13.5462 78.2691 13.6286 78.2202 13.6984C78.1713 13.7682 78.1023 13.8222 78.022 13.8538C77.9417 13.8854 77.8536 13.8931 77.7689 13.8759C77.6841 13.8587 77.6065 13.8174 77.5457 13.7571C77.4849 13.6969 77.4437 13.6205 77.4272 13.5374C77.4107 13.4544 77.4198 13.3684 77.4532 13.2904C77.4865 13.2123 77.5428 13.1457 77.6149 13.0988C77.6869 13.0519 77.7715 13.0269 77.8581 13.0269C77.9751 13.0284 78.0867 13.0749 78.1688 13.1562C78.251 13.2376 78.2971 13.3473 78.297 13.4616V13.4616Z" fill="#DA840D"/>
<path d="M63.3498 12.0695C63.3498 12.4869 62.7982 12.829 62.1101 12.829C61.4221 12.829 60.8763 12.4869 60.8763 12.0695C60.8763 11.6522 61.428 11.3159 62.1101 11.3159C62.7923 11.3159 63.3498 11.6522 63.3498 12.0695Z" fill="#DA840D"/>
<path d="M40.0981 8.16879C40.0981 8.42386 39.6651 8.63256 39.1253 8.63256C38.5855 8.63256 38.1584 8.42386 38.1584 8.16879C38.1584 7.91371 38.5915 7.69922 39.1253 7.69922C39.6591 7.69922 40.0981 7.90792 40.0981 8.16879Z" fill="#DA840D"/>
<path d="M45.7923 7.23477C45.7923 7.49564 45.2999 7.69854 44.689 7.69854C44.078 7.69854 43.5857 7.49564 43.5857 7.23477C43.5857 6.9739 44.0839 6.771 44.689 6.771C45.294 6.771 45.7923 6.9565 45.7923 7.23477Z" fill="#DA840D"/>
<path d="M52.9579 8.37169C52.9579 8.7427 52.2936 9.04415 51.4691 9.04415C50.6446 9.04415 49.9802 8.7427 49.9802 8.37169C49.9802 8.00067 50.6446 7.69922 51.4691 7.69922C52.2936 7.69922 52.9579 8.00067 52.9579 8.37169Z" fill="#DA840D"/>
<path d="M58.2364 7.23431C58.2376 7.32742 58.2104 7.41877 58.1583 7.49675C58.1063 7.57473 58.0316 7.63582 57.944 7.67225C57.8563 7.70868 57.7595 7.71881 57.6659 7.70135C57.5723 7.68389 57.4861 7.63963 57.4184 7.5742C57.3506 7.50877 57.3042 7.42511 57.2852 7.33387C57.2662 7.24263 57.2753 7.14792 57.3115 7.06178C57.3477 6.97564 57.4093 6.90196 57.4884 6.8501C57.5675 6.79824 57.6607 6.77055 57.7559 6.77054C57.8188 6.76978 57.8811 6.78121 57.9394 6.80417C57.9976 6.82713 58.0506 6.86117 58.0953 6.90431C58.14 6.94745 58.1755 6.99884 58.1997 7.05549C58.224 7.11214 58.2364 7.17292 58.2364 7.23431Z" fill="#DA840D"/>
<path d="M57.2813 10.9032C57.2813 11.1293 56.8246 11.3148 56.267 11.3148C55.7094 11.3148 55.2527 11.1293 55.2527 10.9032C55.2527 10.6771 55.7094 10.4858 56.267 10.4858C56.8246 10.4858 57.2813 10.6713 57.2813 10.9032Z" fill="#DA840D"/>
<path d="M65.2067 7.03254C65.2103 7.16623 65.1729 7.29791 65.0995 7.41076C65.0261 7.52361 64.9199 7.6125 64.7945 7.66608C64.6692 7.71965 64.5303 7.73548 64.3957 7.71153C64.261 7.68758 64.1368 7.62494 64.0388 7.53162C63.9407 7.43831 63.8734 7.31855 63.8454 7.18765C63.8174 7.05675 63.8299 6.92066 63.8814 6.79677C63.9329 6.67288 64.0211 6.56681 64.1346 6.49212C64.2481 6.41743 64.3818 6.37751 64.5187 6.37747C64.6986 6.37591 64.8718 6.44388 65.0007 6.56657C65.1295 6.68926 65.2036 6.85674 65.2067 7.03254V7.03254Z" fill="#DA840D"/>
<path d="M68.9905 9.76827C68.9905 9.87842 68.6346 9.97117 68.2016 9.97117C67.7686 9.97117 67.4127 9.87842 67.4127 9.76827C67.4127 9.65812 67.7686 9.55957 68.2016 9.55957C68.6346 9.55957 68.9905 9.65233 68.9905 9.76827Z" fill="#DA840D"/>
<path d="M71.4521 8.40012C71.4668 8.46095 71.4619 8.52476 71.4379 8.58271C71.4139 8.64066 71.3721 8.6899 71.3182 8.72359C71.2643 8.75729 71.2011 8.77378 71.1372 8.77079C71.0733 8.76779 71.0119 8.74546 70.9616 8.70688C70.9113 8.6683 70.8745 8.61538 70.8563 8.55545C70.8381 8.49552 70.8394 8.43154 70.86 8.37238C70.8807 8.31321 70.9196 8.26178 70.9715 8.22521C71.0234 8.18863 71.0856 8.16873 71.1496 8.16824C71.2208 8.16155 71.2919 8.1819 71.3482 8.22507C71.4046 8.26823 71.4417 8.33091 71.4521 8.40012V8.40012Z" fill="#DA840D"/>
<path d="M68.9909 9.76859C68.9772 9.89431 68.9265 10.0135 68.845 10.1117C68.7635 10.2099 68.6547 10.2829 68.5317 10.322C68.4086 10.3611 68.2766 10.3645 68.1516 10.3319C68.0267 10.2994 67.914 10.2321 67.8272 10.1383C67.7405 10.0445 67.6833 9.92819 67.6627 9.80336C67.6421 9.67854 67.6589 9.55056 67.7111 9.43485C67.7633 9.31915 67.8486 9.22068 67.9567 9.15131C68.0649 9.08195 68.1913 9.04466 68.3206 9.04395C68.4134 9.0484 68.5043 9.07069 68.5882 9.10954C68.6721 9.14839 68.7473 9.20304 68.8096 9.27035C68.8719 9.33766 68.9199 9.41632 68.951 9.50182C68.9822 9.58731 68.9957 9.67797 68.9909 9.76859V9.76859Z" fill="#DA840D"/>
<path d="M72.7926 8.60227C72.7926 8.84575 72.4248 9.04285 71.974 9.04285C71.5232 9.04285 71.1495 8.84575 71.1495 8.60227C71.1495 8.35879 71.5173 8.16748 71.974 8.16748C72.4308 8.16748 72.7926 8.35879 72.7926 8.60227Z" fill="#DA840D"/>
<path d="M61.7715 44.8299C61.6371 44.3292 61.3243 43.8917 60.8894 43.5963C60.4545 43.3009 59.9259 43.1668 59.3989 43.2183C55.8399 43.4676 55.5433 49.2937 56.7949 51.8386C57.1675 52.1202 57.6362 52.2519 58.1049 52.2066C58.5736 52.1613 59.0069 51.9426 59.3158 51.5951C60.4547 50.3487 60.8165 48.5458 61.2199 46.9574C61.4176 46.254 61.6015 45.5449 61.7715 44.8299Z" fill="#EEBE30"/>
<path d="M88.1919 14.5565C86.9544 14.0891 85.8132 13.4077 84.8228 12.5449C83.6392 11.4232 82.5483 10.2117 81.5604 8.92172C80.0834 7.14779 77.9361 6.45214 75.6821 6.19127C73.173 5.89561 70.5809 6.44054 68.054 6.31301C66.6989 6.27694 65.3709 5.93361 64.1748 5.3101C62.9884 4.64923 62.0572 3.57096 61.0429 2.63763C59.0558 0.898487 56.5348 0.898487 54.0257 0.504282C52.3637 0.217549 50.6827 0.0489903 48.9957 -6.85221e-05C47.2696 -0.0406484 44.2504 -0.0638369 43.0937 1.54197C41.8125 2.12168 41.3617 3.66372 41.0711 4.96228C40.9073 6.03376 40.6473 7.08905 40.294 8.11592C39.767 9.28376 38.9518 10.3056 37.9214 11.0898C35.6614 12.9275 32.8676 13.913 30.3111 15.1942C28.235 16.2319 25.6903 17.7044 24.5752 19.7855C23.9049 21.0319 23.982 23.1653 25.1684 24.087C26.6335 25.1885 27.7486 23.1131 28.063 22.0638C28.3536 21.1131 28.4604 20.145 29.2493 19.4319C30.3121 18.5302 31.5754 17.8831 32.9388 17.542C34.0836 17.229 35.3114 17.229 36.4385 16.887C37.7913 16.3893 39.0638 15.704 40.2169 14.8522C41.5693 13.971 42.8861 13.113 44.4936 12.7304C45.8282 12.429 47.8924 12.4754 48.9423 13.4725C49.5182 14.1541 50.0136 14.897 50.4193 15.687C50.9604 16.4238 51.677 17.0208 52.5072 17.4261C54.18 18.3594 56.0959 18.771 57.8457 19.6174C58.4308 19.9147 58.9351 20.344 59.3168 20.8696C59.3761 20.9566 59.4295 21.0435 59.4828 21.1363C59.5258 21.2019 59.5654 21.2696 59.6015 21.3392C61.5115 24.7827 59.1091 28.4291 59.1744 32.0639C59.1744 34.0233 60.6276 37.2291 63.0833 35.6581C63.2494 35.5537 63.4036 35.4378 63.5579 35.3219C63.8367 32.7827 64.0621 30.1798 64.9637 27.7856C65.8119 25.5595 66.9686 23.5015 66.844 21.0493C66.7728 19.6986 66.1144 18.458 65.9542 17.1247C65.7288 15.2696 67.4372 14.429 68.9734 14.0638C71.1654 13.4937 73.4888 13.6486 75.5813 14.5044C79.5199 16.087 82.6992 19.3508 87.0768 19.8899C88.8088 20.1044 91.3179 19.8377 92.006 17.9884C92.694 16.1391 89.4257 15.0725 88.1919 14.5565Z" fill="#EEBE30"/>
<path opacity="0.5" d="M64.091 16.9743C63.9113 16.3494 63.5795 15.7763 63.124 15.3038C62.6685 14.8314 62.1028 14.4737 61.4751 14.2613C60.5735 14.0294 59.1499 14.6149 59.2626 15.6816C59.2643 15.7029 59.2704 15.7237 59.2806 15.7427C59.2908 15.7616 59.3049 15.7783 59.322 15.7917C58.7288 17.0265 60.449 19.1541 61.0421 20.0584C61.4766 20.6374 61.7504 21.3164 61.837 22.0294C61.9378 22.9512 61.6353 23.8613 61.7243 24.7715C61.7599 25.1773 62.0742 26.9106 62.9106 26.215C63.8656 25.4265 63.9664 23.641 64.1622 22.5164C64.5568 20.6865 64.5325 18.794 64.091 16.9743V16.9743Z" fill="white"/>
<path opacity="0.5" d="M81.3404 10.9734C80.3706 9.40093 78.8244 8.24843 77.0163 7.75019C75.1893 7.23424 70.8058 6.67772 70.3432 9.29223C70.3393 9.34501 70.3528 9.39762 70.3816 9.44243C70.4104 9.48725 70.453 9.52194 70.5033 9.5415C70.6203 9.62487 70.7242 9.72447 70.8118 9.83715C70.8367 9.88446 70.8761 9.92297 70.9245 9.9473V9.9473C70.9724 9.96412 71.0248 9.96412 71.0728 9.9473C71.4114 10.2506 71.8175 10.4729 72.2591 10.5966C73.3465 10.832 74.4553 10.9601 75.5689 10.9792C77.1112 11.1241 77.9712 11.7734 79.0449 12.7821C79.638 13.3618 81.2633 14.5792 82.0997 13.6575C82.7403 13.0082 81.6904 11.5067 81.3404 10.9734Z" fill="white"/>
<path opacity="0.5" d="M28.6261 18.2554C28.3661 18.2237 28.1031 18.2237 27.8431 18.2554C27.8442 18.244 27.8425 18.2325 27.8383 18.2218C27.8342 18.2111 27.8275 18.2014 27.8189 18.1936C27.8104 18.1858 27.8001 18.18 27.7888 18.1766C27.7776 18.1733 27.7657 18.1725 27.7541 18.1743C27.3206 18.2418 26.909 18.4068 26.5518 18.6563C26.1947 18.9058 25.9016 19.233 25.6959 19.612C25.5535 19.9018 25.2747 20.9163 25.8857 20.9685C26.4966 21.0207 26.9771 20.3888 27.3211 20.0583C27.8198 19.5554 28.291 19.0271 28.7329 18.4757C28.746 18.4551 28.7536 18.4317 28.755 18.4074C28.7564 18.3832 28.7516 18.359 28.741 18.3371C28.7304 18.3152 28.7143 18.2962 28.6942 18.282C28.6741 18.2677 28.6507 18.2586 28.6261 18.2554Z" fill="white"/>
<path opacity="0.5" d="M100.173 51.6812C99.6478 51.5719 99.105 51.5667 98.5773 51.6662C98.0496 51.7656 97.5477 51.9675 97.1013 52.26C96.655 52.5524 96.2732 52.9295 95.9786 53.3688C95.6841 53.8081 95.4827 54.3007 95.3866 54.8174C95.383 54.836 95.3838 54.8551 95.3888 54.8734C95.3937 54.8916 95.4028 54.9086 95.4153 54.923C95.4278 54.9375 95.4434 54.949 95.461 54.9568C95.4786 54.9646 95.4977 54.9685 95.5171 54.9682C95.5198 55.0068 95.5198 55.0455 95.5171 55.0841C95.3095 55.9885 94.2121 56.4059 93.5181 56.7885C93.002 57.0667 92.4682 57.316 91.9344 57.5711C90.1549 58.4522 87.3551 59.5885 86.8035 61.9247C86.7947 61.9502 86.7939 61.9776 86.8013 62.0035C86.8087 62.0293 86.824 62.0524 86.845 62.0696C87.9127 62.7885 89.1405 61.716 89.9769 61.0436C91.6647 59.7365 93.6441 58.8368 95.7543 58.4175C98.0914 57.9189 102.451 58.0696 103.293 54.9392C103.804 52.9971 101.544 51.9189 100.173 51.6812Z" fill="white"/>
<path d="M61.9439 6.71866C61.7363 6.4346 61.2083 5.8259 60.8524 5.78532C60.6508 5.78532 60.5736 5.39112 60.3838 5.44909C60.194 5.50706 59.9034 5.65199 59.6424 5.44909C59.5548 5.3694 59.4617 5.29579 59.3636 5.2288C59.3091 5.19142 59.2467 5.16632 59.1811 5.15529C59.1155 5.14427 59.0481 5.14759 58.984 5.16503C58.8179 5.2288 58.7526 5.47228 58.551 5.31576C58.3493 5.15923 57.8688 5.39692 57.7502 5.6288C57.7102 5.6924 57.6783 5.76054 57.6553 5.8317C56.9494 5.93025 56.2376 6.99113 55.9707 7.48388C55.7211 7.95809 55.6045 8.4884 55.6327 9.02093C55.6608 9.55346 55.8327 10.0692 56.1308 10.5158C56.7774 11.5941 58.0942 11.739 59.2568 11.7738C59.7149 11.8257 60.179 11.7862 60.6211 11.6578C61.03 11.4825 61.3841 11.2045 61.6473 10.852C62.8217 9.43752 63.0471 8.20853 61.9439 6.71866Z" fill="#48264C"/>
<path d="M61.9437 6.71951C61.7413 6.44061 61.5019 6.18915 61.2319 5.97168C61.2567 6.92962 60.9401 7.86621 60.3364 8.62124C59.7326 9.37627 58.8792 9.90282 57.9221 10.1108C57.2471 10.2559 56.5457 10.234 55.8816 10.0471C55.9527 10.215 56.0359 10.3777 56.1307 10.534C56.7773 11.6123 58.0941 11.7572 59.2567 11.792C59.7148 11.8439 60.1789 11.8044 60.621 11.6761C61.0299 11.5008 61.3839 11.2227 61.6472 10.8703C62.8216 9.43836 63.047 8.20937 61.9437 6.71951Z" fill="#300D33"/>
<path d="M62.9875 64.4227C62.7968 63.944 62.4893 63.5182 62.0919 63.1821C62.0266 62.8227 61.9436 62.469 61.8665 62.1096C61.8603 62.0745 61.8462 62.0412 61.8251 62.0121C61.804 61.9831 61.7764 61.9591 61.7445 61.9418C61.7126 61.9245 61.6772 61.9145 61.6408 61.9125C61.6044 61.9104 61.568 61.9164 61.5343 61.9299C61.0004 62.1734 60.8818 61.8603 60.5141 61.5763C60.4552 61.5409 60.3874 61.5222 60.3183 61.5222C60.2492 61.5222 60.1814 61.5409 60.1226 61.5763C59.5294 61.9705 58.9007 61.0372 58.438 61.5763C58.1674 61.9826 57.8681 62.37 57.5423 62.7357C57.1572 62.9736 56.8028 63.2558 56.4865 63.5763C56.2592 63.7738 56.0597 63.9999 55.8933 64.2488C55.8933 64.2488 55.8933 64.2488 55.8933 64.2488C55.8263 64.3538 55.7649 64.4621 55.7095 64.5734C55.662 64.6778 55.6205 64.7879 55.5849 64.8923C55.5823 64.9037 55.5823 64.9156 55.5849 64.927C55.3448 65.6845 55.3594 66.4971 55.6264 67.2459C56.0772 68.585 57.5008 69.0604 58.7761 69.3676C59.2695 69.5335 59.7919 69.6005 60.3124 69.5647C60.8102 69.4649 61.2725 69.239 61.6529 68.9097C63.2901 67.6343 63.8358 66.3299 62.9875 64.4227Z" fill="#48264C"/>
<path d="M62.9879 64.4234C62.8363 64.0686 62.6368 63.7352 62.3947 63.4321C62.1854 64.4975 61.6033 65.4584 60.7483 66.1502C59.8933 66.8419 58.8187 67.2214 57.7088 67.2235C56.9235 67.225 56.1505 67.0336 55.4607 66.6669C55.4982 66.8634 55.5498 67.0572 55.6149 67.2466C56.0657 68.5858 57.4893 69.0612 58.7646 69.3684C59.2579 69.5342 59.7804 69.6013 60.3009 69.5655C60.7987 69.4657 61.261 69.2398 61.6414 68.9104C63.2904 67.6351 63.8361 66.3307 62.9879 64.4234Z" fill="#300D33"/>
<path d="M52.2634 5.70984C52.0795 5.35621 51.605 4.58519 51.2135 4.47505C51.0118 4.42287 51.0118 4.05766 50.8161 4.02287C50.7567 3.50113 50.5135 2.9562 49.8907 3.06635C49.7484 3.06635 49.3687 3.45475 49.2205 3.23446C49.1477 3.10431 49.0299 3.00364 48.8883 2.9504C48.5976 2.84026 48.3426 3.08953 48.1765 3.28084C47.8977 3.59968 47.5418 3.13011 47.18 3.28084C47.0068 3.38075 46.8656 3.52595 46.7723 3.70008C46.6791 3.8742 46.6374 4.07033 46.6521 4.26635C46.6521 4.30114 46.6521 4.32432 46.6521 4.35911C46.2044 4.69093 45.8053 5.08101 45.4657 5.51853C45.0986 6.00131 44.8689 6.57059 44.8001 7.16836C44.7314 7.76613 44.8259 8.37104 45.0743 8.92145C45.5962 10.2374 47.0436 10.6606 48.3307 10.8867C48.8164 11.0203 49.3235 11.0636 49.8255 11.0142C50.3147 10.8882 50.7623 10.6406 51.1245 10.2954C52.732 8.89826 53.2065 7.57072 52.2634 5.70984Z" fill="#48264C"/>
<path d="M52.2636 5.70988C52.0855 5.36385 51.8644 5.04064 51.6052 4.74756C51.4569 5.82693 50.9289 6.82223 50.1118 7.56267C49.2946 8.30311 48.2393 8.74254 47.1268 8.80555C46.3458 8.84507 45.567 8.69364 44.861 8.36497C44.9081 8.56223 44.9695 8.75596 45.0448 8.94468C45.5668 10.2606 47.0141 10.6838 48.3013 10.9099C48.798 11.0394 49.3154 11.0749 49.8257 11.0143C50.315 10.8883 50.7625 10.6406 51.1247 10.2954C52.7322 8.8983 53.2067 7.57076 52.2636 5.70988Z" fill="#300D33"/>
<path d="M75.3309 10.394C75.1471 9.9476 74.6429 8.96789 74.1921 8.80557C73.937 8.71861 73.9489 8.19107 73.6879 8.22585C73.332 8.26064 72.9939 8.35339 72.7151 8.02295C72.6268 7.89121 72.5297 7.76532 72.4244 7.64614C72.3668 7.57839 72.2941 7.52439 72.2118 7.48822C72.1296 7.45206 72.04 7.43469 71.9499 7.43744C71.7127 7.47802 71.5525 7.79107 71.3568 7.51281C71.078 7.14179 70.4433 7.42005 70.2179 7.69832C70.1482 7.77306 70.0865 7.85466 70.034 7.94179C69.0849 7.86643 67.8334 9.10122 67.3411 9.68093C66.8716 10.2557 66.5599 10.9379 66.4353 11.6632C66.3108 12.3885 66.3775 13.1328 66.6293 13.8259C67.1394 15.4781 68.818 16.0752 70.3128 16.4752C70.8827 16.6745 71.488 16.7593 72.0923 16.7245C72.6838 16.6074 73.2314 16.3348 73.676 15.936C75.669 14.336 76.3334 12.7534 75.3309 10.394Z" fill="#48264C"/>
<path d="M75.3317 10.3946C75.1523 9.95955 74.9171 9.54853 74.6317 9.17139C74.4004 10.4529 73.7173 11.6149 72.701 12.4556C71.6847 13.2964 70.3994 13.763 69.0679 13.7743C68.1452 13.7683 67.2399 13.5286 66.4402 13.0787C66.4799 13.3239 66.5374 13.566 66.6122 13.8033C67.1223 15.4555 68.801 16.0526 70.2957 16.4526C70.8657 16.6519 71.4709 16.7367 72.0752 16.7019C72.6667 16.5848 73.2143 16.3122 73.659 15.9134C75.6698 14.3366 76.3341 12.754 75.3317 10.3946Z" fill="#300D33"/>
<path d="M74.4598 59.4665C74.2284 58.9506 73.6175 57.8259 73.0777 57.6462C72.7693 57.5477 72.7693 56.9332 72.4846 56.968C72.0634 57.0143 71.6601 57.1245 71.2982 56.7477C71.1914 56.5939 71.0724 56.4485 70.9423 56.3129C70.8677 56.2331 70.7756 56.1709 70.6729 56.1307C70.5702 56.0906 70.4595 56.0736 70.3492 56.081C70.0645 56.1274 69.8746 56.4868 69.6196 56.1737C69.2755 55.7448 68.5222 56.0752 68.2494 56.394C68.1678 56.4843 68.0943 56.5813 68.0299 56.6839C66.891 56.6027 65.4022 58.052 64.815 58.7013C64.2606 59.3592 63.894 60.1485 63.7524 60.9894C63.6107 61.8303 63.699 62.6929 64.0083 63.4897C64.643 65.3912 66.6656 66.0579 68.4629 66.4985C69.1642 66.7324 69.9068 66.8251 70.6458 66.7709C71.3488 66.6328 72.0018 66.3147 72.5379 65.8492C74.8869 64.0057 75.658 62.1622 74.4598 59.4665Z" fill="#48264C"/>
<path d="M74.4601 59.4668C74.2404 58.9624 73.9532 58.4887 73.6059 58.0581C73.3079 59.5656 72.484 60.9254 71.2746 61.9054C70.0652 62.8855 68.5454 63.425 66.9744 63.4321C65.8683 63.4337 64.7793 63.1646 63.8069 62.6494C63.8541 62.9349 63.9255 63.2161 64.0204 63.49C64.6551 65.3915 66.6778 66.0582 68.4751 66.4987C69.1764 66.7327 69.9189 66.8254 70.6579 66.7712C71.361 66.6331 72.014 66.315 72.5501 65.8495C74.8872 64.006 75.6583 62.1625 74.4601 59.4668Z" fill="#300D33"/>
<path d="M47.6376 55.2934C47.6376 55.2934 49.2213 54.7137 50.1407 56.7601C51.0601 58.8064 51.3923 60.818 52.3117 61.7746C52.5644 61.9893 52.7636 62.2576 52.8941 62.559C53.0247 62.8604 53.0831 63.1869 53.065 63.5137C53.065 63.5137 50.4729 62.1282 49.8086 61.392C48.8228 60.3918 47.9789 59.2667 47.2995 58.047C46.5521 56.5745 46.0242 55.1948 46.0242 55.1948L47.6376 55.2934Z" fill="#5F825C"/>
<path d="M47.0143 54.9336C47.0143 54.9336 47.4118 53.3278 45.2348 52.6728C43.0579 52.0177 40.9641 51.9191 39.8964 51.1365C39.6464 50.9137 39.3473 50.7502 39.0222 50.6587C38.6972 50.5672 38.3549 50.5502 38.022 50.609C38.022 50.609 39.7244 52.9684 40.5489 53.5075C41.6804 54.3466 42.9211 55.0347 44.2383 55.5539C45.8161 56.1336 47.2813 56.4699 47.2813 56.4699L47.0143 54.9336Z" fill="#5F825C"/>
<path d="M46.7064 55.7171C46.7064 55.7171 49.6307 57.7577 49.5476 60.5346C49.4646 63.3114 49.4646 64.6969 47.7681 66.2447C46.0717 67.7926 42.8449 67.8795 41.1722 68.61C39.4994 69.3404 37.5005 70.0013 37.02 70.4071C36.5396 70.8129 35.5193 71.2245 34.0186 70.4071C32.5179 69.5897 31.6459 69.6766 31.9307 67.3868C32.3563 64.4399 33.0836 61.5423 34.1016 58.7374C34.9321 56.6157 35.6676 54.9809 38.0165 54.3316C40.2683 53.766 42.6476 53.937 44.7905 54.8186C46.2674 55.5548 46.7064 55.7171 46.7064 55.7171Z" fill="#ED6366"/>
<path d="M32.2798 65.1775C33.6073 65.6649 35.0139 65.9143 36.432 65.9137C42.2449 65.9137 46.9547 61.9195 46.9547 56.9977C46.9562 56.592 46.9244 56.1869 46.8597 55.7861C47.4885 56.2789 49.5942 58.105 49.523 60.4702C49.44 63.2413 49.44 64.6326 47.7436 66.1804C46.0471 67.7282 42.8203 67.8152 41.1476 68.5456C39.4749 69.2761 37.4759 69.937 36.9955 70.3428C36.515 70.7486 35.4948 71.1601 33.9941 70.3428C32.4934 69.5254 31.6214 69.6065 31.9061 67.3224C31.9951 66.7195 32.1197 65.9833 32.2798 65.1775Z" fill="#C73A54"/>
<path d="M48.0043 61.8028C48.4017 61.855 48.4966 61.1883 48.5263 60.7014C48.5565 60.5794 48.5565 60.4522 48.5263 60.3303V60.2897C48.5263 60.2434 48.4611 60.2318 48.4551 60.2897C48.4417 60.2908 48.4287 60.2951 48.4174 60.3022C48.406 60.3092 48.3966 60.3189 48.3899 60.3303C48.3187 60.4869 47.4527 61.7333 48.0043 61.8028Z" fill="#E7D8C8"/>
<path d="M47.1739 59.2873C47.1794 59.2945 47.1866 59.3004 47.1948 59.3044C47.2031 59.3084 47.2122 59.3105 47.2214 59.3105C47.2306 59.3105 47.2397 59.3084 47.2479 59.3044C47.2561 59.3004 47.2633 59.2945 47.2688 59.2873C47.3853 59.1945 47.4796 59.0779 47.5452 58.9457C47.6108 58.8136 47.646 58.669 47.6485 58.5221C47.6804 58.4425 47.6984 58.3582 47.7019 58.2728C47.703 58.2606 47.7009 58.2484 47.6956 58.2372C47.6904 58.2261 47.6823 58.2166 47.672 58.2095C47.6618 58.2025 47.6498 58.1982 47.6374 58.1971C47.6249 58.196 47.6124 58.1981 47.601 58.2032C47.601 58.2032 47.5298 58.2032 47.5358 58.2032C47.3658 58.3233 47.2392 58.4929 47.1742 58.6877C47.1092 58.8825 47.1091 59.0925 47.1739 59.2873Z" fill="#E7D8C8"/>
<path d="M45.46 57.9708C45.804 58.2374 45.9641 57.6287 46.0531 57.2288C46.1039 57.1077 46.1397 56.9813 46.1599 56.852C46.1613 56.8373 46.1579 56.8226 46.1502 56.8099C46.1425 56.7972 46.1309 56.7873 46.117 56.7815C46.1032 56.7757 46.0878 56.7743 46.0731 56.7776C46.0585 56.7809 46.0452 56.7887 46.0353 56.7998C45.8692 56.9911 45.1219 57.7273 45.46 57.9708Z" fill="#E7D8C8"/>
<path d="M45.2405 60.5567C45.2455 60.5628 45.2519 60.5677 45.2591 60.571C45.2662 60.5744 45.2741 60.5761 45.2821 60.5761C45.29 60.5761 45.2979 60.5744 45.3051 60.571C45.3123 60.5677 45.3186 60.5628 45.3236 60.5567C45.4369 60.449 45.5365 60.3284 45.6202 60.1973C45.8266 59.9711 45.9552 59.6872 45.9879 59.3858C45.9879 59.3394 45.9405 59.2814 45.8871 59.3046L45.7803 59.3742C45.4007 59.6466 44.9499 60.1741 45.2405 60.5567Z" fill="#E7D8C8"/>
<path d="M45.8333 63.1485C46.0527 63.2818 46.1832 62.9746 46.2544 62.6558C46.3514 62.493 46.4083 62.3104 46.4205 62.1224C46.4217 62.1102 46.4195 62.098 46.4143 62.0869C46.409 62.0757 46.4009 62.0662 46.3907 62.0591C46.3804 62.0521 46.3685 62.0478 46.356 62.0467C46.3436 62.0456 46.331 62.0477 46.3197 62.0529C46.3197 62.0529 46.2485 62.0529 46.2485 62.0529C46.2485 62.0529 46.2485 62.0529 46.2485 62.0934C46.0924 62.2501 45.9695 62.4352 45.8867 62.6384C45.8273 62.7717 45.6731 63.0616 45.8333 63.1485Z" fill="#E7D8C8"/>
<path d="M46.9548 64.5856C47.192 64.7363 47.4412 64.5218 47.5479 64.3131C47.6066 64.171 47.6503 64.0234 47.6784 63.8725C47.7491 63.7559 47.7917 63.6251 47.803 63.4899V63.4899C47.8172 63.4749 47.825 63.4553 47.825 63.4349C47.825 63.4145 47.8172 63.3948 47.803 63.3798V63.3392C47.803 63.2928 47.7259 63.2465 47.6784 63.287C47.4827 63.4262 46.5929 64.3479 46.9548 64.5856Z" fill="#E7D8C8"/>
<path d="M44.6536 65.3848C44.8553 65.6573 45.051 65.3848 45.1875 65.1182C45.2711 65.0456 45.3377 64.9562 45.3827 64.8561C45.4278 64.7561 45.4502 64.6477 45.4485 64.5384C45.4482 64.5282 45.4455 64.5181 45.4404 64.5091C45.4353 64.5001 45.4282 64.4925 45.4194 64.4868C45.4107 64.4811 45.4007 64.4775 45.3902 64.4764C45.3798 64.4753 45.3693 64.4767 45.3595 64.4804C45.0807 64.5848 44.4045 65.0486 44.6536 65.3848Z" fill="#E7D8C8"/>
<path d="M43.5377 62.0289C43.7096 61.8256 43.9092 61.6461 44.1308 61.4956C44.1429 61.4861 44.1576 61.4804 44.173 61.4792C44.1885 61.4781 44.2039 61.4814 44.2173 61.4889C44.2308 61.4964 44.2416 61.5077 44.2484 61.5213C44.2551 61.5349 44.2576 61.5502 44.2554 61.5651C44.2491 61.6514 44.227 61.7358 44.1901 61.8144V61.9014C44.16 62.1437 44.0568 62.3717 43.8936 62.5565C43.769 62.6956 43.4783 62.7652 43.3597 62.5565C43.2411 62.3478 43.4309 62.1275 43.5377 62.0289Z" fill="#E7D8C8"/>
<path d="M43.2058 59.9839C43.2532 60.1636 43.4905 60.1462 43.6091 60.0534C43.6884 59.9833 43.7529 59.8986 43.7989 59.8042C43.9091 59.6722 43.9754 59.5103 43.9887 59.3404C43.9893 59.3275 43.9867 59.3146 43.9811 59.3029C43.9755 59.2912 43.9672 59.2809 43.9567 59.273C43.9463 59.265 43.934 59.2596 43.921 59.2572C43.908 59.2549 43.8946 59.2556 43.8819 59.2593C43.7132 59.3242 43.5627 59.4275 43.443 59.5607C43.3362 59.6593 43.1583 59.8216 43.2058 59.9839Z" fill="#E7D8C8"/>
<path d="M44.2263 55.6534C44.246 55.6476 44.2673 55.6491 44.2859 55.6576C44.3045 55.6662 44.3192 55.6812 44.3272 55.6998C44.3718 55.8727 44.3642 56.0545 44.3053 56.2233C44.2463 56.392 44.1385 56.5404 43.995 56.6505C43.9838 56.6585 43.9709 56.6639 43.9573 56.6662C43.9436 56.6685 43.9296 56.6676 43.9164 56.6637C43.9031 56.6597 43.891 56.6528 43.881 56.6435C43.8709 56.6342 43.8633 56.6227 43.8586 56.61C43.8405 56.5693 43.8285 56.5264 43.823 56.4824C43.7687 56.32 43.7804 56.1435 43.8554 55.9893C43.9305 55.835 44.0632 55.7148 44.2263 55.6534Z" fill="#E7D8C8"/>
<path d="M42.1795 58.841C42.3574 58.9859 42.5057 58.841 42.6125 58.6091C42.748 58.4771 42.8478 58.3141 42.9027 58.135C42.9576 57.9558 42.9659 57.7661 42.9268 57.583C42.9188 57.5668 42.9061 57.5532 42.8903 57.544C42.8745 57.5347 42.8563 57.5301 42.8379 57.5308C42.5709 57.5656 42.3455 57.9308 42.2447 58.1105C42.1439 58.2903 41.9541 58.6671 42.1795 58.841Z" fill="#E7D8C8"/>
<path d="M42.1146 55.512C42.1491 55.4706 42.1868 55.4318 42.2273 55.396C42.2406 55.3869 42.2562 55.3814 42.2724 55.3798C42.2885 55.3783 42.3049 55.3808 42.3198 55.3872C42.3346 55.3936 42.3476 55.4037 42.3574 55.4164C42.3672 55.4291 42.3734 55.444 42.3756 55.4598C42.3923 55.5938 42.3775 55.7298 42.3322 55.8574C42.287 55.985 42.2126 56.1009 42.1146 56.1961C42.1157 56.2115 42.1157 56.227 42.1146 56.2424C42.0965 56.278 42.0694 56.3085 42.0359 56.3309C42.0023 56.3533 41.9634 56.3669 41.9229 56.3704C41.8824 56.3739 41.8417 56.3671 41.8046 56.3508C41.7676 56.3345 41.7354 56.3092 41.7112 56.2772C41.4562 56.0221 41.818 55.6511 42.1146 55.512Z" fill="#E7D8C8"/>
<path d="M40.0975 57.6354C40.216 57.395 40.4036 57.1936 40.6373 57.0557C40.6507 57.046 40.6669 57.0406 40.6836 57.0401C40.7003 57.0396 40.7168 57.044 40.7309 57.0527C40.7449 57.0615 40.756 57.0742 40.7626 57.0892C40.7692 57.1042 40.771 57.1208 40.7678 57.1368C40.7605 57.2447 40.7344 57.3506 40.6906 57.4499C40.6906 57.4847 40.6906 57.5195 40.6906 57.5484C40.6778 57.6767 40.65 57.8032 40.6076 57.9253C40.5695 58.0434 40.4868 58.1429 40.3763 58.2035C40.3681 58.218 40.356 58.2301 40.3414 58.2385C40.3268 58.2469 40.3102 58.2514 40.2932 58.2514C40.2763 58.2514 40.2596 58.2469 40.245 58.2385C40.2304 58.2301 40.2184 58.218 40.2102 58.2035V58.2035C39.9789 58.0818 40.05 57.7803 40.0975 57.6354Z" fill="#E7D8C8"/>
<path d="M39.6758 56.2319C39.6855 56.2381 39.6968 56.2415 39.7084 56.2415C39.72 56.2415 39.7313 56.2381 39.741 56.2319C39.8201 56.1581 39.8935 56.0787 39.9605 55.9942C40.1102 55.8719 40.2367 55.7247 40.3342 55.5594C40.3748 55.4869 40.3913 55.4039 40.3817 55.3218V55.2812C40.3817 55.2406 40.3817 55.2116 40.3223 55.229C40.3003 55.2028 40.272 55.1822 40.2399 55.1691C40.2079 55.1559 40.1731 55.1506 40.1385 55.1537C39.741 55.1594 39.3258 55.9478 39.6758 56.2319Z" fill="#E7D8C8"/>
<path d="M37.2804 56.957C37.399 57.1773 37.6778 56.957 37.7787 56.8353C37.9402 56.6527 38.0524 56.4335 38.1049 56.1976C38.1463 56.1186 38.1687 56.0313 38.1701 55.9426C38.172 55.9297 38.1708 55.9166 38.1668 55.9042C38.1627 55.8919 38.1559 55.8806 38.1468 55.8711C38.1377 55.8617 38.1265 55.8543 38.1142 55.8496C38.1018 55.8449 38.0885 55.843 38.0752 55.844C37.9367 55.8632 37.8051 55.9156 37.6923 55.9965C37.5795 56.0774 37.4889 56.1843 37.4287 56.3078C37.3278 56.4759 37.1736 56.7599 37.2804 56.957Z" fill="#E7D8C8"/>
<path d="M37.8676 59.2877C37.9387 59.4674 38.1286 59.3804 38.1997 59.2877C38.2709 59.1949 38.265 59.1659 38.2946 59.108C38.412 58.9825 38.4953 58.8302 38.5367 58.6651C38.5782 58.5 38.5765 58.3274 38.5319 58.163C38.5278 58.152 38.5211 58.142 38.5124 58.1339C38.5036 58.1258 38.4931 58.1198 38.4815 58.1165C38.47 58.1131 38.4578 58.1124 38.446 58.1144C38.4341 58.1165 38.4229 58.1212 38.4133 58.1282C38.2471 58.2757 38.1173 58.458 38.0337 58.6616C37.9625 58.8123 37.7845 59.079 37.8676 59.2877Z" fill="#E7D8C8"/>
<path d="M40.2813 60.2904C40.3447 59.999 40.5105 59.7385 40.7499 59.5541C40.7604 59.5431 40.7738 59.5352 40.7886 59.5312C40.8034 59.5272 40.8191 59.5274 40.8339 59.5316C40.8486 59.5358 40.8619 59.5439 40.8722 59.555C40.8825 59.5662 40.8895 59.5799 40.8923 59.5947C40.9022 59.7027 40.8881 59.8115 40.8507 59.9135C40.8359 60.0417 40.7855 60.1634 40.705 60.2656C40.6245 60.3678 40.517 60.4465 40.394 60.4933H40.3347C40.3202 60.4952 40.3055 60.4938 40.2916 60.4892C40.2778 60.4847 40.2652 60.477 40.2548 60.4669C40.2445 60.4568 40.2367 60.4446 40.232 60.431C40.2274 60.4175 40.2259 60.4031 40.2279 60.3889L40.2813 60.2904Z" fill="#E7D8C8"/>
<path d="M42.0138 60.9742C42.0261 60.9663 42.0403 60.9615 42.055 60.9603C42.0697 60.9591 42.0845 60.9614 42.098 60.9672C42.1115 60.9729 42.1234 60.9819 42.1325 60.9932C42.1416 61.0046 42.1477 61.0179 42.1502 61.0321V61.0321C42.1502 61.0321 42.1502 61.0321 42.1502 61.0727C42.1502 61.3974 41.9189 61.9191 41.557 61.9481C41.5472 61.9497 41.5372 61.9493 41.5275 61.9469C41.5179 61.9446 41.5089 61.9402 41.501 61.9342C41.4932 61.9282 41.4868 61.9207 41.4821 61.9121C41.4774 61.9035 41.4747 61.894 41.474 61.8843C41.4842 61.7018 41.5384 61.5241 41.6322 61.366C41.726 61.2078 41.8568 61.0735 42.0138 60.9742Z" fill="#E7D8C8"/>
<path d="M39.9792 62.0288C40.0534 61.9564 40.1372 61.8941 40.2283 61.8433C40.2757 61.8433 40.3588 61.8433 40.3588 61.8954C40.3469 62.1275 40.2501 62.3476 40.0859 62.5157C40.018 62.6228 39.9188 62.7075 39.8012 62.7591C39.7854 62.7649 39.768 62.7646 39.7525 62.7581C39.737 62.7516 39.7247 62.7395 39.7182 62.7244C39.7182 62.7244 39.7182 62.6838 39.7182 62.6606C39.7148 62.6453 39.7148 62.6295 39.7182 62.6142C39.6982 62.5024 39.7123 62.3873 39.7587 62.2832C39.8051 62.1791 39.8818 62.0906 39.9792 62.0288V62.0288Z" fill="#E7D8C8"/>
<path d="M38.4192 60.4006C38.4434 60.399 38.4674 60.4064 38.4861 60.4215C38.5049 60.4366 38.517 60.4582 38.52 60.4818C38.5289 60.5316 38.5289 60.5826 38.52 60.6325C38.5312 60.717 38.5232 60.8029 38.4965 60.8841C38.4699 60.9653 38.4252 61.0397 38.3658 61.1021C38.2867 61.2433 38.1643 61.3569 38.0158 61.4267C37.9802 61.4267 37.9387 61.4267 37.9209 61.3861C37.7904 61.0847 37.9921 60.3948 38.4192 60.4006Z" fill="#E7D8C8"/>
<path d="M35.7442 60.0358C35.7482 60.0478 35.7547 60.0589 35.7632 60.0684C35.7717 60.0779 35.7821 60.0856 35.7937 60.091C35.8054 60.0965 35.8181 60.0995 35.831 60.1C35.8439 60.1005 35.8568 60.0984 35.8688 60.0938C36.0526 60.0099 36.2013 59.8667 36.2898 59.6883C36.3784 59.5099 36.4015 59.3071 36.3552 59.1141C36.3496 59.102 36.3415 59.0913 36.3313 59.0826C36.3212 59.0739 36.3093 59.0674 36.2964 59.0636C36.2835 59.0597 36.2698 59.0586 36.2565 59.0603C36.2431 59.0621 36.2302 59.0665 36.2188 59.0735C36.0846 59.1657 35.9715 59.2842 35.8866 59.4213C35.8155 59.5058 35.7656 59.6054 35.7409 59.7121C35.7161 59.8188 35.7173 59.9296 35.7442 60.0358V60.0358Z" fill="#E7D8C8"/>
<path d="M36.005 62.273C36.0041 62.1538 36.0369 62.0366 36.0997 61.9344C36.1625 61.8321 36.2528 61.7487 36.3609 61.6933C36.3741 61.6877 36.3885 61.6853 36.4029 61.6863C36.4173 61.6872 36.4312 61.6916 36.4434 61.6991C36.4557 61.7065 36.4659 61.7167 36.4732 61.7288C36.4806 61.7409 36.4848 61.7546 36.4855 61.7687C36.5016 61.8839 36.4897 62.0013 36.4505 62.1111C36.4113 62.221 36.346 62.3201 36.2601 62.4006C36.2345 62.4353 36.2023 62.4648 36.1652 62.4875C36.1539 62.4935 36.1416 62.4972 36.1288 62.4984C36.1161 62.4996 36.1033 62.4982 36.0911 62.4944C36.0789 62.4906 36.0676 62.4845 36.0579 62.4763C36.0482 62.4682 36.0403 62.4582 36.0347 62.447V62.447C36.0319 62.4405 36.0305 62.4336 36.0305 62.4267C36.0305 62.4197 36.0319 62.4128 36.0347 62.4064C36.0186 62.3635 36.0086 62.3186 36.005 62.273Z" fill="#E7D8C8"/>
<path d="M41.4387 63.114C41.4493 63.1132 41.46 63.1145 41.47 63.118C41.4801 63.1214 41.4893 63.1268 41.4971 63.1339C41.5049 63.141 41.5111 63.1496 41.5153 63.1591C41.5196 63.1687 41.5217 63.179 41.5217 63.1894C41.521 63.3439 41.4755 63.4951 41.3905 63.6254C41.3055 63.7557 41.1844 63.8598 41.0413 63.9256C41.0219 63.9314 41.0013 63.9314 40.9819 63.9256H40.8989C40.8894 63.9273 40.8796 63.9269 40.8703 63.9245C40.8609 63.9221 40.8523 63.9177 40.8449 63.9116C40.8375 63.9055 40.8316 63.8978 40.8276 63.8892C40.8236 63.8806 40.8216 63.8713 40.8218 63.8618C40.8544 63.6974 40.9276 63.5433 41.0352 63.413C41.1427 63.2826 41.2812 63.18 41.4387 63.114Z" fill="#E7D8C8"/>
<path d="M42.0673 64.7302C42.0654 64.7457 42.0676 64.7614 42.0737 64.7759C42.0797 64.7903 42.0894 64.8031 42.1018 64.8129C42.1143 64.8227 42.129 64.8293 42.1448 64.8321C42.1605 64.8349 42.1767 64.8337 42.1918 64.8287H42.2334C42.2421 64.8344 42.2525 64.8375 42.263 64.8375C42.2736 64.8375 42.2839 64.8344 42.2927 64.8287L42.3342 64.7881C42.4494 64.7094 42.5471 64.6087 42.6215 64.4922C42.6959 64.3756 42.7455 64.2456 42.7672 64.1098C42.7694 64.0965 42.7679 64.0828 42.7628 64.0702C42.7578 64.0576 42.7494 64.0466 42.7384 64.0383C42.7275 64.03 42.7145 64.0248 42.7008 64.0231C42.6871 64.0214 42.6731 64.0233 42.6604 64.0287C42.4707 64.1149 42.3132 64.2568 42.2096 64.4345C42.1422 64.5226 42.0937 64.6232 42.0673 64.7302V64.7302Z" fill="#E7D8C8"/>
<path d="M41.7168 66.7722C41.792 66.6173 41.9014 66.4807 42.0371 66.3722C42.0948 66.3104 42.1583 66.2541 42.2269 66.2041C42.2462 66.1979 42.267 66.1979 42.2863 66.2041C42.2983 66.1946 42.313 66.1889 42.3285 66.1877C42.3439 66.1865 42.3593 66.1899 42.3728 66.1974C42.3862 66.2049 42.397 66.2162 42.4038 66.2298C42.4106 66.2434 42.413 66.2587 42.4108 66.2736C42.3879 66.4109 42.3247 66.5388 42.2289 66.6417C42.1331 66.7446 42.0088 66.8181 41.871 66.8533H41.8236C41.8111 66.8615 41.7964 66.8657 41.7814 66.8652C41.7664 66.8647 41.752 66.8595 41.7401 66.8505C41.7283 66.8415 41.7197 66.8291 41.7155 66.8151C41.7113 66.801 41.7118 66.786 41.7168 66.7722Z" fill="#E7D8C8"/>
<path d="M39.795 65.7745C39.8003 65.6905 39.8242 65.6086 39.8652 65.5345C39.9062 65.4604 39.9632 65.3959 40.0322 65.3455C40.1239 65.2532 40.2383 65.1853 40.3644 65.1484C40.4178 65.1484 40.489 65.1484 40.489 65.218C40.4797 65.3828 40.4173 65.5405 40.3107 65.6686C40.2042 65.7967 40.059 65.8885 39.8958 65.9311C39.8833 65.9327 39.8706 65.9319 39.8585 65.9287C39.8463 65.9254 39.835 65.9199 39.825 65.9123C39.8151 65.9048 39.8068 65.8954 39.8006 65.8847C39.7944 65.8739 39.7905 65.8621 39.789 65.8499C39.7832 65.8452 39.7787 65.8392 39.7757 65.8323C39.7728 65.8255 39.7715 65.8181 39.7721 65.8107C39.7727 65.8034 39.7751 65.7962 39.779 65.7899C39.783 65.7836 39.7885 65.7784 39.795 65.7745V65.7745Z" fill="#E7D8C8"/>
<path d="M38.4251 63.3975H38.4725C38.4916 63.3902 38.5122 63.3873 38.5327 63.3892C38.5531 63.3911 38.5728 63.3977 38.5901 63.4085C38.6074 63.4192 38.6219 63.4338 38.6324 63.451C38.6429 63.4682 38.6491 63.4877 38.6505 63.5077C38.6149 63.8033 38.3598 64.1859 38.0573 64.2033C38.0099 64.2033 37.9446 64.1685 37.9506 64.1164C37.9482 63.9641 37.992 63.8146 38.0765 63.6867C38.1609 63.5588 38.2822 63.4582 38.4251 63.3975V63.3975Z" fill="#E7D8C8"/>
<path d="M37.4641 66.0876C37.5844 65.9152 37.7564 65.7836 37.9564 65.7108C37.9719 65.7045 37.9888 65.7023 38.0054 65.7044C38.022 65.7066 38.0377 65.713 38.051 65.723C38.0642 65.733 38.0745 65.7462 38.0808 65.7614C38.0872 65.7766 38.0893 65.7931 38.0869 65.8093C37.9771 66.1471 37.7394 66.4311 37.4226 66.6035C37.4092 66.6141 37.3931 66.6209 37.3761 66.6232C37.3591 66.6256 37.3417 66.6234 37.3259 66.6168C37.31 66.6103 37.2963 66.5996 37.2862 66.5861C37.2761 66.5725 37.2699 66.5565 37.2683 66.5397C37.2625 66.4546 37.2772 66.3694 37.3112 66.2909C37.3452 66.2123 37.3975 66.1427 37.4641 66.0876V66.0876Z" fill="#E7D8C8"/>
<path d="M35.8983 64.2316C35.9026 64.1148 35.9363 64.0009 35.9962 63.8998C36.0562 63.7987 36.1407 63.7135 36.2423 63.6519C36.2897 63.6519 36.3787 63.6519 36.3965 63.6924C36.4183 63.8459 36.3946 64.0022 36.3284 64.1429C36.2622 64.2837 36.1562 64.4029 36.0228 64.4867C36.0059 64.4999 35.9854 64.5077 35.9638 64.5093C35.9423 64.5108 35.9208 64.5059 35.9021 64.4952C35.8835 64.4845 35.8686 64.4686 35.8595 64.4495C35.8503 64.4303 35.8473 64.4089 35.8508 64.3881C35.8633 64.335 35.8792 64.2828 35.8983 64.2316V64.2316Z" fill="#E7D8C8"/>
<path d="M34.4034 62.4295C34.4226 62.3605 34.4642 62.2995 34.522 62.2556L34.5576 62.215C34.5991 62.1629 34.7118 62.1803 34.7118 62.2556C34.7077 62.3822 34.6665 62.5049 34.5932 62.6092C34.5891 62.6856 34.5685 62.7602 34.5327 62.8282C34.4969 62.8961 34.4468 62.9559 34.3856 63.0034C34.3743 63.0105 34.3614 63.0146 34.348 63.0153C34.3346 63.016 34.3213 63.0133 34.3094 63.0075C34.2974 63.0016 34.2872 62.9928 34.2797 62.9819C34.2723 62.9711 34.2679 62.9585 34.2669 62.9455C34.2517 62.7634 34.2998 62.5816 34.4034 62.4295V62.4295Z" fill="#E7D8C8"/>
<path d="M35.8801 57.4215L35.9572 57.323C35.9987 57.2824 36.0936 57.323 36.0936 57.3635C36.1047 57.4791 36.0886 57.5957 36.0464 57.7042C36.0043 57.8127 35.9372 57.9104 35.8504 57.9896V57.9896V58.0244C35.8413 58.0329 35.8301 58.0389 35.8178 58.0418C35.8056 58.0447 35.7928 58.0443 35.7807 58.0408C35.7687 58.0373 35.7578 58.0307 35.7492 58.0217C35.7406 58.0127 35.7346 58.0016 35.7318 57.9896C35.7259 57.9531 35.7259 57.916 35.7318 57.8795C35.7077 57.7973 35.709 57.7101 35.7353 57.6287C35.7617 57.5472 35.812 57.4752 35.8801 57.4215V57.4215Z" fill="#E7D8C8"/>
<path d="M35.1684 66.9747C35.1746 66.9856 35.1836 66.9946 35.1946 67.0009C35.2055 67.0072 35.218 67.0106 35.2307 67.0106C35.2434 67.0106 35.2559 67.0072 35.2669 67.0009C35.2778 66.9946 35.2868 66.9856 35.293 66.9747L35.3404 66.9225C35.4606 66.8309 35.5593 66.7152 35.6299 66.5832C35.7005 66.4512 35.7413 66.306 35.7497 66.1573C35.7512 66.1411 35.748 66.1248 35.7406 66.1103C35.7331 66.0958 35.7216 66.0836 35.7074 66.0752C35.6932 66.0667 35.6768 66.0623 35.6602 66.0625C35.6436 66.0627 35.6273 66.0674 35.6133 66.0761C35.3582 66.2558 35.0557 66.6674 35.1684 66.9747Z" fill="#E7D8C8"/>
<path d="M33.751 65.7566C33.7655 65.6807 33.8051 65.6114 33.8637 65.5595C33.8865 65.5213 33.9144 65.4862 33.9467 65.4552C33.9555 65.4432 33.9671 65.4335 33.9805 65.4267C33.9939 65.42 34.0087 65.4165 34.0238 65.4165C34.0389 65.4165 34.0537 65.42 34.0671 65.4267C34.0805 65.4335 34.0921 65.4432 34.1009 65.4552C34.148 65.5826 34.148 65.722 34.1009 65.8494C34.0695 65.9803 33.9994 66.0992 33.8992 66.1914C33.8896 66.1984 33.8784 66.2032 33.8665 66.2052C33.8547 66.2073 33.8425 66.2066 33.831 66.2032C33.8194 66.1998 33.8089 66.1938 33.8001 66.1858C33.7914 66.1777 33.7847 66.1677 33.7806 66.1566C33.7461 66.0961 33.7256 66.0289 33.7205 65.9598C33.7154 65.8907 33.7258 65.8214 33.751 65.7566V65.7566Z" fill="#E7D8C8"/>
<path d="M33.9944 67.7338C34.0072 67.7244 34.0224 67.7185 34.0383 67.7168C34.0543 67.7151 34.0704 67.7177 34.085 67.7242C34.0996 67.7308 34.1121 67.741 34.1212 67.7539C34.1303 67.7669 34.1357 67.7819 34.1367 67.7976C34.1518 67.9373 34.1357 68.0786 34.0896 68.2117C34.0435 68.3448 33.9685 68.4665 33.8698 68.5686C33.8698 68.5686 33.8698 68.5686 33.8698 68.5686C33.8698 68.5686 33.8698 68.6034 33.8698 68.615C33.8639 68.6287 33.8541 68.6405 33.8414 68.6487C33.8287 68.657 33.8138 68.6614 33.7986 68.6614C33.7834 68.6614 33.7685 68.657 33.7558 68.6487C33.7432 68.6405 33.7333 68.6287 33.7274 68.615C33.6879 68.4582 33.6918 68.2939 33.7387 68.1391C33.7857 67.9842 33.8739 67.8444 33.9944 67.7338V67.7338Z" fill="#E7D8C8"/>
<path d="M36.1829 68.5856C36.2028 68.58 36.224 68.581 36.2433 68.5883C36.2625 68.5957 36.2788 68.6089 36.2897 68.6261C36.2961 68.6356 36.2995 68.6467 36.2995 68.658C36.2995 68.6694 36.2961 68.6804 36.2897 68.6899C36.2916 68.7034 36.2916 68.717 36.2897 68.7305C36.289 68.8435 36.2613 68.9547 36.2088 69.0554C36.1562 69.1561 36.0804 69.2433 35.9872 69.3102C35.9764 69.3184 35.9639 69.324 35.9505 69.3267C35.9372 69.3293 35.9234 69.329 35.9102 69.3256C35.897 69.3223 35.8848 69.316 35.8745 69.3073C35.8642 69.2986 35.8561 69.2877 35.8507 69.2754C35.848 69.264 35.848 69.2521 35.8507 69.2406V69.2406C35.8398 69.2417 35.8288 69.2403 35.8186 69.2365C35.8083 69.2327 35.7991 69.2266 35.7916 69.2187C35.7841 69.2109 35.7786 69.2014 35.7755 69.1912C35.7724 69.1809 35.7718 69.17 35.7736 69.1595C35.7888 69.0385 35.834 68.9229 35.9054 68.8229C35.9767 68.7228 36.072 68.6414 36.1829 68.5856V68.5856Z" fill="#E7D8C8"/>
<path d="M39.0059 67.1885C39.0183 67.1806 39.0324 67.1759 39.0471 67.1746C39.0618 67.1734 39.0766 67.1758 39.0902 67.1815C39.1037 67.1873 39.1155 67.1962 39.1247 67.2076C39.1338 67.2189 39.1399 67.2323 39.1424 67.2465C39.1482 67.4225 39.1014 67.5963 39.0076 67.7467C38.9138 67.8971 38.7772 68.0174 38.6144 68.0929C38.5858 68.1036 38.5541 68.1036 38.5255 68.0929L38.4543 68.1393C38.4437 68.143 38.4324 68.1441 38.4212 68.1427C38.4101 68.1413 38.3995 68.1373 38.3902 68.1311C38.381 68.1248 38.3733 68.1166 38.368 68.1069C38.3626 68.0973 38.3597 68.0865 38.3594 68.0755C38.3846 67.8872 38.4567 67.7079 38.5695 67.5532C38.6822 67.3986 38.8321 67.2733 39.0059 67.1885V67.1885Z" fill="#E7D8C8"/>
<path d="M43.8225 66.7877C43.8348 66.7607 43.8508 66.7353 43.87 66.7124C43.8605 66.6704 43.8605 66.6268 43.87 66.5848C43.9369 66.4587 44.0456 66.3585 44.1785 66.3008C44.2259 66.3008 44.2912 66.3008 44.309 66.3356C44.3325 66.4171 44.3325 66.5033 44.309 66.5848V66.5848C44.2902 66.6791 44.2359 66.763 44.1568 66.8199C44.0776 66.8768 43.9795 66.9026 43.8819 66.8921C43.861 66.8843 43.8436 66.8696 43.8327 66.8505C43.8219 66.8314 43.8183 66.8092 43.8225 66.7877V66.7877Z" fill="#E7D8C8"/>
</g>
<defs>
<clipPath id="clip0_1268_4218">
<rect width="114" height="78.6207" fill="white"/>
</clipPath>
</defs>
</svg>
