<svg width="34" height="34" fill="none" xmlns="http://www.w3.org/2000/svg"><g clip-path="url(#a)"><g clip-path="url(#b)"><path d="M15.04 3.419 13.235 5.21l19.352 19.204 1.806-1.792L15.04 3.42Z" fill="#858585"/><path d="m22.169 10.24-2.049 2.033 5.63 5.586 2.048-2.033-5.63-5.586Z" fill="#2C3E50"/><path d="m32.577 13.254-9.428 9.356 1.536 1.525 9.428-9.356-1.536-1.525Z" fill="#383838"/><path d="m32.582 13.252-9.428 9.356.768.763 9.428-9.356-.768-.763Z" fill="#1F1F1F"/><path d="m33.498 15.392-8.19 8.128 1.335 1.325 8.19-8.128-1.335-1.325Z" fill="#383838"/><path d="m33.495 15.394-8.19 8.127.7.695 8.19-8.127-.7-.695Z" fill="#1F1F1F"/><path d="m33.95 17.591-6.428 6.378 1.047 1.039 6.427-6.378-1.047-1.039Z" fill="#383838"/><path d="m33.952 17.593-6.427 6.378.525.52 6.427-6.377-.525-.521Z" fill="#1F1F1F"/><path d="m33.27 20.343-2.991 2.968.972.965 2.991-2.968-.972-.965Z" fill="#2B2B2B"/><path d="m33.047 21.826.34.337.72-.714-.34-.337a.501.501 0 0 0-.71 0 .496.496 0 0 0-.01.714Zm-2.017 2.002.335.336.72-.696-.34-.332a.501.501 0 0 0-.71 0 .494.494 0 0 0-.004.692Zm1.018-1.011.34.337.719-.714-.34-.337a.501.501 0 0 0-.71 0 .494.494 0 0 0-.009.714Z" fill="#0F0F0F"/><path d="m23.132 3.875-9.429 9.356 1.537 1.525L24.668 5.4l-1.536-1.525Z" fill="#383838"/><path d="m23.898 4.637-9.428 9.356.768.762L24.666 5.4l-.768-.762Z" fill="#1F1F1F"/><path d="m21.177 3.163-8.19 8.127 1.335 1.325 8.19-8.127-1.335-1.325Z" fill="#383838"/><path d="m21.812 3.795-8.19 8.128.7.695 8.19-8.128-.7-.695Z" fill="#1F1F1F"/><path d="M19.246 3 12.82 9.378l1.047 1.039 6.427-6.378L19.246 3Z" fill="#383838"/><path d="m19.773 3.52-6.427 6.377.525.521 6.427-6.377-.525-.521Z" fill="#1F1F1F"/><path d="m16.546 3.754-2.992 2.969.973.965 2.991-2.969-.972-.965Z" fill="#2B2B2B"/><path d="m16.042 4.938-.339-.336.706-.692.34.337a.503.503 0 0 1 0 .705.511.511 0 0 1-.707-.014ZM14.007 6.94l-.339-.337.72-.714.339.336a.494.494 0 0 1 0 .705.5.5 0 0 1-.72.01Zm1.023-1.01-.34-.337.72-.714.34.336a.503.503 0 0 1 0 .705.508.508 0 0 1-.554.117.508.508 0 0 1-.166-.107Z" fill="#0F0F0F"/><path d="M2.222 9.409.417 11.2l19.352 19.204 1.806-1.791L2.222 9.409Z" fill="#858585"/><path d="M9.35 16.227 7.3 18.26l5.63 5.586 2.048-2.032-5.63-5.587Z" fill="#2C3E50"/><path d="m19.758 19.242-9.428 9.356 1.536 1.524 9.428-9.356-1.536-1.524Z" fill="#383838"/><path d="m19.76 19.243-9.429 9.356.768.762 9.428-9.356-.768-.762Z" fill="#1F1F1F"/><path d="m20.68 21.382-8.19 8.128 1.335 1.325 8.19-8.128-1.335-1.325Z" fill="#383838"/><path d="m20.679 21.384-8.19 8.128.7.694 8.19-8.127-.7-.695Z" fill="#1F1F1F"/><path d="m21.131 23.581-6.427 6.378 1.047 1.039 6.427-6.378-1.047-1.039Z" fill="#383838"/><path d="m21.134 23.583-6.427 6.378.525.521 6.428-6.378-.526-.52Z" fill="#1F1F1F"/><path d="m20.451 26.342-2.992 2.969.973.964 2.991-2.968-.972-.965Z" fill="#2B2B2B"/><path d="m20.227 27.817.34.336.72-.714-.34-.332a.501.501 0 0 0-.71 0 .498.498 0 0 0-.12.546.496.496 0 0 0 .11.164Zm-2.017 2.019.34.332.701-.727-.335-.332a.505.505 0 0 0-.715 0 .501.501 0 0 0-.11.563.5.5 0 0 0 .12.164Zm1.041-1.028.34.336.719-.714-.34-.337a.499.499 0 0 0-.547-.108.499.499 0 0 0-.163.108.497.497 0 0 0-.12.55.495.495 0 0 0 .111.165Z" fill="#0F0F0F"/><path d="M10.31 9.87.88 19.228l1.537 1.524 9.428-9.356-1.536-1.524Z" fill="#383838"/><path d="m11.08 10.627-9.428 9.356.768.763 9.428-9.356-.768-.763Z" fill="#1F1F1F"/><path d="M8.354 9.154.164 17.28 1.5 18.606l8.19-8.127-1.335-1.325Z" fill="#383838"/><path d="M8.99 9.79.8 17.919l.7.695 8.19-8.128-.7-.694Z" fill="#1F1F1F"/><path d="M6.428 8.99.001 15.368l1.047 1.039 6.427-6.378L6.428 8.99Z" fill="#383838"/><path d="M6.95 9.51.523 15.888l.525.52 6.427-6.377-.525-.521Z" fill="#1F1F1F"/><path d="M3.728 9.744.736 12.713l.973.965L4.7 10.709l-.972-.965Z" fill="#2B2B2B"/><path d="m3.208 10.929-.339-.337.72-.714.34.336a.495.495 0 0 1 0 .705.5.5 0 0 1-.72.01ZM1.187 12.93l-.334-.332.72-.714.334.332a.5.5 0 0 1 0 .71.505.505 0 0 1-.72.004Zm1.023-1.01-.34-.337.72-.714.339.337a.496.496 0 0 1 0 .705.5.5 0 0 1-.72.009Z" fill="#0F0F0F"/></g></g><defs><clipPath id="a"><path fill="#fff" d="M0 0h34v34H0z"/></clipPath><clipPath id="b"><path fill="#fff" transform="translate(0 3)" d="M0 0h35v28H0z"/></clipPath></defs></svg>