<svg width="34" height="34" fill="none" xmlns="http://www.w3.org/2000/svg"><path d="M17.341 34C9.986 34 4 28 4 20.626c0-5.735 2.606-10.85 6.433-15.05C13.581 2.124 16.696.22 16.827.142c.69-.417 1.617.152 1.617.921v9.162l4.687-4.375a.995.995 0 0 1 1.424.068c1.782 2.014 3.2 4.14 4.215 6.321C34.433 24.398 26.627 34 17.342 34Z" fill="#FE4E33"/><path d="M28.77 12.239c-1.015-2.18-2.433-4.307-4.215-6.321a.995.995 0 0 0-1.424-.068l-4.687 4.374V1.063c0-.58-.525-1.045-1.08-1.062v34c9.276-.017 17.064-9.612 11.406-21.762Z" fill="#FE1600"/><path d="M17.341 34c-2.795 0-5.07-2.28-5.07-5.082 0-4.529 4.397-7.21 4.584-7.322a.994.994 0 0 1 1.058.023c.184.121 4.499 3.016 4.499 7.299 0 2.802-2.275 5.082-5.07 5.082Z" fill="#FEC356"/><path d="M22.412 28.917c0-4.283-4.316-7.177-4.5-7.298a.993.993 0 0 0-.547-.164V34c2.785-.012 5.047-2.287 5.047-5.082Z" fill="#FEB020"/></svg>