<svg width="34" height="34" fill="none" xmlns="http://www.w3.org/2000/svg"><path d="M.859 14.159c.142 2.332 5.963 4.383 15.817 4.383 10.194 0 15.732-1.546 15.817-4.383.085-2.838-5.424-4.889-15.59-4.86-8.519.027-15.675.617-16.044 4.86Z" fill="#F7D3B0"/><path d="M1.54 14.13c.143 2.08 5.708 3.906 15.136 3.906 9.74 0 15.05-1.377 15.136-3.905.085-2.529-5.197-4.383-14.909-4.327-8.178.028-15.022.562-15.362 4.327Z" fill="#E2BFA3"/><path d="M1.54 14.13c.114 1.658 3.692 3.175 9.996 3.71-.34-.226-.653-.478-.994-.731a15.45 15.45 0 0 1-4.486-5.844l-.256-.59c-2.499.618-4.089 1.685-4.26 3.456Z" fill="#CEAD97"/><path d="M8.611 16.547c-.113-.112-.255-.224-.34-.393-.086-.168-.114-.337-.142-.506a1.485 1.485 0 0 0-.966-1.04c-.114-.055-.256-.084-.34-.168-.086-.112-.086-.224-.086-.365-.057-.506-.426-.927-.909-1.096-.142-.056-.312-.084-.426-.168-.284-.197-.227-.618-.397-.928-.085-.168-.256-.28-.398-.42-.255-.198-.51-.422-.766-.619-.256-.225-.54-.421-.88-.478-.171-.028-.37 0-.512-.112-.142-.084-.17-.253-.255-.393-.313-.618-1.25-.787-1.79-.337-.539.449-.539 1.376 0 1.826-.369.309-.397.899-.198 1.32.199.422.596.759.994 1.04.085.084.199.14.255.253.086.168.057.337.057.505 0 .787.596 1.546 1.392 1.714l6.076 2.332c.284-.646.114-1.46-.369-1.967Z" fill="#6FB56B"/><path d="M7.191 12.137c-.34-.422-.653-.843-.851-1.32-.2-.478-.256-1.068-.057-1.546.057-.112.142-.253.142-.365.028-.169-.029-.31-.057-.478-.114-.562.114-1.152.54-1.517a1.624 1.624 0 0 1 1.59-.281c.34-.281.852-.337 1.25-.14.397.196.652.646.624 1.067.426-.112.852.169 1.079.534.227.365.255.815.284 1.236a2.056 2.056 0 0 1 1.647.73c.37.478.511 1.18.312 1.77.597.478 1.164 1.04 1.306 1.799.143.73-.34 1.63-1.107 1.657.426.029.625.59.426.984-.17.365-.596.59-.966.758a9.477 9.477 0 0 1-2.47.675c-.511.056-1.022.084-1.505-.085-1.05-.393-1.533-1.517-1.903-2.472-.369-.843-1.42-2.304-.284-3.006Z" fill="#81CC7A"/><path d="M22.015 9.86a1.236 1.236 0 0 1 1.334-.477c.057-.618.568-1.152 1.165-1.236.596-.084 1.249.28 1.505.843.397-.31 1.022.056 1.135.534.114.477-.142.983-.454 1.376.398.113.596.618.54 1.012-.057.393-.313.758-.568 1.123.54.394.624 1.209.312 1.77-.312.562-.994.9-1.647.928-.681.028-1.25-.253-1.874-.534-2.13 2.585-4.941-3.456-1.42-3.905-.255-.45-.312-1.012-.028-1.433Z" fill="#6FB56B"/><path d="M24.968 12.36a4.445 4.445 0 0 1 1.05-1.236c.313-.253.682-.421 1.051-.59.994-.478 2.215-.983 3.152-.421l.511.337c.398.197.88.14 1.335.14.454 0 .937.056 1.306.31.398.252.653.674.625 1.123-.029.225-.142.45-.142.703 0 .196.085.393.113.618.086.505-.255 1.095-.795 1.18-.17.028-.369 0-.568.028-.823.112-1.164 1.152-1.902 1.46-.227.085-.454.113-.682.17-.227.084-.454.196-.681.308-1.42.647-3.266.31-4.345-.814-.965-1.04-.681-2.248-.028-3.316Z" fill="#81CC7A"/><path d="M22.27 16.154c.085.028.142.056.227.028.085-.028.114-.14.142-.225.17-.506.795-.815 1.335-.646.113.028.227.084.34.084.171-.028.285-.169.427-.253a.947.947 0 0 1 1.164.056c.085.085.17.169.255.225.114.056.256.028.37.084.425.113.51.73.937.843.284-.45.965-.534 1.42-.225.454.31.624.871.596 1.405-.085 1.18-1.25 2.164-2.414 2.08-.54-.029-1.05-.282-1.59-.282-.511 0-.994.225-1.477.394-1.164.45-2.328.309-2.669-1.012-.227-.758-.54-2.894.937-2.556Z" fill="#6FB56B"/><path d="M23.264 9.86s-1.278 2.445 2.045 3.878c3.322 1.432 4.26-1.349 4.26-1.349L23.263 9.86Z" fill="#E24C24"/><path d="M29.51 12.444c.285-.672-.88-1.795-2.603-2.508-1.721-.712-3.348-.744-3.632-.071-.284.673.88 1.796 2.603 2.508 1.721.712 3.348.744 3.632.072Z" fill="#FF5A27"/><path d="M29.248 12.336c.248-.587-.83-1.591-2.406-2.244-1.577-.652-3.057-.706-3.305-.119-.248.587.83 1.592 2.406 2.245 1.577.652 3.057.705 3.305.118Z" fill="#FF8B78"/><path d="M25.45 10.281c-.142 0-.312.028-.34.169-.029.056-.029.112-.057.168-.029.057-.085.057-.114.113-.028.028 0 .084 0 .112.057.253.341.365.597.422.624.196 1.249.421 1.874.618.17.056.369.112.482 0 .114-.085.114-.253.057-.394-.057-.14-.17-.224-.284-.309-.34-.252-.71-.505-1.107-.646-.34-.112-.682-.253-1.108-.253Z" fill="#FF5A27"/><path d="M24.087 10.225c.114.028.228.084.341.112.028 0 .057 0 .057-.028.028 0 .028-.028.028-.056 0-.057-.028-.085-.085-.113-.028 0-.085-.028-.113-.028h.028c-.085-.028-.142-.028-.227-.056-.057-.028-.114 0-.114.056.029.028.029.113.085.113Zm.398-.225c.114.056.199-.112.085-.168-.113-.057-.199.112-.085.168Z" fill="#FFB164"/><path d="M24.485 10c.057.028.114.057.199.085h.085c.028 0 .057-.028.057-.057v-.084c0-.028-.029-.028-.057-.056a1.392 1.392 0 0 0-.199-.084h-.085c-.029 0-.057.028-.057.056v.084l.057.056Zm.738-.196v.056c0 .028 0 .028.029.056.028.028.028.056.085.085 0 0 .028 0 .028.028h.057s.028 0 .028-.028v-.085c0-.028-.028-.056-.028-.056l.028.028-.028-.028v.028s0-.028-.028-.028v.028-.028.028-.028s0-.028-.029-.028l-.028-.028h-.029c-.028 0-.056 0-.056.028 0-.056-.029-.028-.029-.028Zm.653.168c0 .028-.028.056-.028.112v.028s0 .028.028.028l.029.028h.028c.029 0 .057 0 .057-.028l.028-.028s.029-.028.029-.056.028-.056.028-.112v-.028s0-.029-.028-.029l-.029-.028h-.028c-.028 0-.057 0-.057.028l-.028.029c-.029.028-.029.028-.029.056Zm1.108.591c.028-.028.085-.028.113-.056 0 0 .029 0 .029-.029l.028-.028v-.084l-.028-.028h-.085c-.029.028-.085.028-.114.056 0 0-.028 0-.028.028l-.029.028v.085l.029.028h.085Zm.738.449c.057 0 .114.028.199.028.028 0 .057 0 .057-.028.028 0 .028-.028.028-.056s0-.056-.028-.056c-.029-.028-.029-.028-.057-.028-.057 0-.114-.028-.199-.028-.028 0-.057 0-.057.028-.028 0-.028.028-.028.056s0 .056.028.056c.029 0 .029.028.057.028Zm.511.478a.552.552 0 0 0 .284.083c.029 0 .057 0 .057-.028.029 0 .029-.028.029-.056s0-.056-.029-.056c-.028-.028-.028-.028-.057-.028h-.056.028c-.057-.028-.142-.056-.199-.084-.056-.028-.113 0-.113.056-.029.028 0 .084.056.112Zm.171.533c.085.056.142.112.227.169.028.028.057.028.057.028.028 0 .056-.028.056-.028.029-.028.029-.113-.028-.14-.085-.057-.142-.113-.227-.17-.029-.027-.057-.027-.057-.027-.028 0-.057.028-.057.028-.028.056-.028.112.029.14Zm-.511.141.085.168s0 .029.028.029l.029.028h.085c.028 0 .028-.028.057-.056v-.085l-.086-.168s0-.028-.028-.028l-.028-.029h-.086c-.028 0-.028.029-.056.057 0 .028-.029.056 0 .084Zm-.739 0v.028-.028.056-.028.084s0 .028.029.028l.028.028h.085c.029 0 .057-.028.057-.056s.028-.056.028-.084v-.084c0-.028-.028-.056-.028-.056s-.028 0-.028-.029h-.029c-.028 0-.056.029-.056.029v.028c-.086.056-.114.084-.086.084Zm-.994-.254v.057-.028c0 .028-.028.056-.028.056v.056c0 .028.028.056.057.056h.113l.029-.028c0-.028.028-.056.028-.056 0-.028.028-.056.028-.084 0-.028 0-.056-.028-.056l-.028-.028h-.029c-.028 0-.056 0-.056.028-.086-.028-.086 0-.086.028Zm-.681-.308v.028-.028c0 .028-.028.028-.028.028s.028 0 .028-.028c-.028.028-.028.056-.057.056h.029s-.029 0-.029.029c0 0-.028 0-.028.028l-.029.028v.084c0 .028.029.028.057.056h.085c.029 0 .029-.028.057-.028l.029-.028c.028-.028.028-.028.028-.056s.028-.028.028-.056v-.085a.06.06 0 0 0-.056-.056h-.086c0-.028-.028 0-.028.028Zm-.596-.59c-.029 0-.057.028-.086.028h.029c-.057 0-.085.028-.142.028-.029 0-.057.029-.057.029-.028.028-.028.056-.028.056 0 .028.028.056.028.056h.085c.085 0 .17-.028.256-.056.028 0 .028-.028.057-.056v-.085c0-.028-.029-.028-.057-.056-.029.056-.057.056-.085.056Zm-.767-.282c.028 0 .057-.027.085-.027 0 0 .028 0 .028-.028l.029-.028v-.085l-.029-.028h-.085c-.028 0-.057.028-.085.028 0 0-.028 0-.028.028l-.029.028v.085l.029.028h.085Z" fill="#FFB164"/><path opacity=".24" d="M23.605 12.136c.142.197.255.394.482.478.086.028.17.056.228-.028.028-.056 0-.14-.029-.197a1.034 1.034 0 0 1-.199-.393c-.056-.253-.113-.787-.51-.787-.427.028-.086.787.028.927Z" fill="#fff"/><path d="M13.297 14.103c-.284-.59-.313-1.32.085-1.855.34-.45.909-.702 1.448-.927-.71-.646-.88-1.742-.398-2.557.483-.814 1.562-1.264 2.528-1.067-.227-.703.369-1.49 1.164-1.658.767-.168 1.619.225 2.045.843.54-.309 1.334-.197 1.732.253.397.478.369 1.208-.085 1.63.766.646.852 1.854.17 2.584.426.337.653.843.568 1.349-.057.505-.398.955-.88 1.208.113.337.198.702.028 1.011-.199.366-.681.506-1.107.506-.426 0-.88-.084-1.307 0 .17.393-.17.843-.596 1.012-.426.168-.909.112-1.363.084a26.849 26.849 0 0 0-1.562-.14c-.284-.029-.596-.057-.823-.225-.284-.197-.37-.647-.625-.9-.37-.365-.767-.646-1.022-1.151Z" fill="#89E269"/><path d="m22.923 14.103-.057 1.011s.512 1.433 2.726 1.714c2.47.31 4.288-.477 4.317-1.938 0-.253-.313-.871-.313-.871l-6.701.056.028.028Z" fill="#59B24F"/><path d="M29.631 14.382c.05-.946-1.408-1.789-3.256-1.884-1.849-.094-3.387.595-3.436 1.54-.05.946 1.408 1.789 3.256 1.884 1.849.094 3.387-.595 3.436-1.54Z" fill="#84D17D"/><path d="M29.426 14.327c.028.73-1.335 1.376-3.067 1.32-1.704-.056-3.209-.843-3.237-1.573-.028-.73 1.477-1.461 3.18-1.405 1.733.084 3.096.927 3.124 1.658Z" fill="#B0EDA9"/><path d="M24.371 13.934a.747.747 0 0 1-.142-.169c0-.112.142-.168.256-.168.256-.028.483.028.71.112a.747.747 0 0 1-.17-.28c0-.029-.029-.057 0-.057.028-.056.085-.056.142-.028.255.112.51.253.766.421a1.71 1.71 0 0 1-.142-.337c0-.112.029-.253.142-.309.142-.084.313 0 .426.113.114.112.17.28.199.421a1.04 1.04 0 0 1 .767-.225c.056 0 .142.028.17.084.057.085-.028.17-.114.225.313-.084.682 0 .938.225.028.028.056.056.056.113 0 .028-.028.056-.028.056a.74.74 0 0 1-.455.252c-.17.029-.369.029-.539.029.17.056.34.14.511.252.028 0 .028.029.057.057 0 .028 0 .028-.029.056-.113.197-.369.253-.596.168-.227-.056-.397-.196-.596-.337.085.113.17.253.142.394-.028.14-.142.252-.284.224-.057-.028-.114-.056-.142-.112a1.267 1.267 0 0 1-.312-.478c0 .225-.2.422-.455.45-.057 0-.113 0-.17-.056a.172.172 0 0 1-.029-.197c.029-.056.086-.112.142-.168-.17.112-.369.196-.54.084a.154.154 0 0 1-.084-.14c0-.029.056-.057.085-.085.085-.056.284-.112.312-.197-.397-.112-.71-.168-.994-.393Z" fill="#C1FFB8"/><path d="m11.905 19.384 1.108.843s2.243.703 4.884-.927c2.982-1.826 4.033-3.961 2.357-5.141-.284-.197-1.363-.422-1.363-.422l-7.1 5.62.114.027Z" fill="#59B24F"/><path d="M16.747 18.581c2.253-1.291 3.575-3.198 2.954-4.258-.622-1.061-2.951-.874-5.204.418-2.252 1.291-3.574 3.198-2.953 4.259.621 1.06 2.95.873 5.203-.419Z" fill="#84D17D"/><path d="M19.09 14.13c.852.562.17 2.22-1.732 3.596-1.903 1.377-4.402 2.023-5.282 1.461-.852-.562-.114-2.36 1.76-3.737 1.875-1.376 4.402-1.882 5.254-1.32Z" fill="#B0EDA9"/><path d="M13.24 18.064c-.114.028-.256.028-.34-.028-.143-.084-.058-.253.056-.365.227-.225.54-.394.88-.534-.17 0-.369-.028-.51-.084-.03 0-.086-.029-.086-.056-.057-.057.057-.113.142-.141.398-.14.852-.253 1.278-.31-.199-.027-.37-.055-.511-.14-.142-.084-.227-.224-.2-.365.058-.168.313-.28.569-.28.255 0 .483.084.71.168.028-.31.227-.618.54-.815a.484.484 0 0 1 .283-.084c.142.028.17.168.142.28.227-.336.738-.561 1.25-.59.056 0 .142 0 .198.029.029.028.029.056.057.084.057.197-.028.421-.198.59a2.96 2.96 0 0 1-.54.478c.255-.113.54-.169.852-.225h.113c.029 0 .029.028.057.056.085.253-.113.506-.426.646-.312.14-.681.169-1.022.225.227 0 .454.056.596.197.142.112.114.337-.056.421a1.018 1.018 0 0 1-.285.056c-.312 0-.596-.028-.88-.112.256.197.284.506.029.73a.361.361 0 0 1-.256.113c-.114 0-.227-.056-.255-.14-.057-.085-.029-.17-.029-.253-.057.224-.17.477-.483.533a.275.275 0 0 1-.255-.056.085.085 0 0 1 0-.112c.028-.113.17-.337.113-.422-.567.197-.965.422-1.533.506Z" fill="#C1FFB8"/><path d="m13.382 7.668-1.022.45s-1.193 1.208-.483 3.484c.795 2.557 2.385 3.961 3.833 3.259.227-.112.71-.759.71-.759l-3.01-6.49-.028.056Z" fill="#59B24F"/><path d="M16.046 14.406c.97-.356 1.187-2.166.484-4.042-.704-1.877-2.06-3.11-3.031-2.754-.97.356-1.187 2.166-.484 4.043.704 1.877 2.06 3.11 3.031 2.753Z" fill="#84D17D"/><path d="M16.051 14.13c-.71.366-1.96-.646-2.67-2.331-.709-1.686-.595-3.569.114-3.934.71-.365 2.073.73 2.783 2.416s.483 3.484-.227 3.85Z" fill="#B0EDA9"/><path d="M14.177 8.99c.028-.085.028-.169.114-.225.113-.056.227.056.284.169.113.224.198.477.227.758.056-.112.113-.225.199-.309l.056-.056c.057 0 .085.056.085.14.029.31 0 .618-.085.956a.617.617 0 0 1 .256-.281c.113-.057.255-.085.369 0 .142.084.142.309.085.477-.057.169-.199.281-.312.394.255.112.483.337.568.618a.238.238 0 0 1 0 .196c-.057.085-.199.057-.284 0 .227.253.312.675.199 1.012 0 .056-.029.084-.086.112h-.085c-.199-.028-.34-.168-.454-.309a1.853 1.853 0 0 1-.256-.534c.029.197 0 .422-.028.618 0 .028 0 .057-.028.085h-.057c-.228-.028-.398-.253-.455-.506-.028-.253.029-.506.085-.759a.61.61 0 0 1-.312.338c-.142.056-.312-.029-.34-.169 0-.056 0-.14.028-.197.085-.196.17-.393.312-.534-.227.113-.511 0-.625-.224-.028-.056-.056-.14-.028-.197.028-.084.114-.112.199-.112s.142.028.227.056c-.17-.112-.37-.281-.34-.506 0-.056.056-.14.113-.14.028 0 .085 0 .113.028.086.056.256.225.341.225-.085-.394-.17-.731-.085-1.124Z" fill="#C1FFB8"/><path d="M8.81 15.508s.199 2.753 3.777 2.247c3.606-.505 2.925-3.371 2.925-3.371L8.81 15.508Z" fill="#E24C24"/><path d="M12.367 16.28c1.844-.287 3.246-1.103 3.132-1.824-.114-.72-1.702-1.072-3.545-.786-1.844.287-3.246 1.103-3.132 1.823.114.72 1.702 1.072 3.545.786Z" fill="#FF5A27"/><path d="M12.341 16.113c1.689-.262 2.977-.984 2.877-1.613-.1-.628-1.55-.925-3.238-.663-1.689.262-2.977.984-2.877 1.613.1.628 1.55.925 3.238.663Z" fill="#FF8B78"/><path d="M10.911 14.721c-.113.084-.227.197-.198.337 0 .056.057.113.057.169 0 .056-.029.112-.029.168 0 .028.029.085.057.113.199.168.483.112.738.056.653-.14 1.278-.31 1.931-.45.17-.028.37-.112.398-.253.056-.14-.029-.28-.17-.365a.657.657 0 0 0-.398-.112 3.903 3.903 0 0 0-1.278.028c-.398.028-.767.084-1.108.309Z" fill="#FF5A27"/><path d="m9.719 15.395.34-.084c.029 0 .029-.028.057-.056v-.085c-.028-.056-.085-.056-.114-.056-.028 0-.056.028-.113.028h.028c-.085.028-.142.028-.227.056-.057 0-.085.057-.085.113.028.056.057.084.114.084Zm.227-.421c.113-.028.085-.197-.029-.197-.142.028-.113.225.029.197Z" fill="#FFB164"/><path d="M9.946 14.974c.085 0 .142 0 .227-.028.028 0 .057-.028.057-.028 0-.028.028-.056.028-.056 0-.028-.028-.057-.028-.057-.029-.028-.057-.028-.057-.028-.085 0-.142 0-.227.028-.028 0-.057.029-.057.029 0 .028-.028.056-.028.056 0 .028.028.056.028.056 0 .028.029.028.057.028Zm.539-.534c0 .027.029.027.029.056 0 .028.028.028.057.028.028.028.085.028.113.056h.029s.028 0 .028-.028l.028-.028v-.057c0-.028 0-.028-.028-.056s-.028-.028-.057-.028h-.028.028s-.028 0-.028-.028h.028l-.028-.028.028.028-.028-.028v.028s0-.028-.029-.028l-.028-.028h-.057c-.028 0-.028.028-.057.056-.028.028-.028.056 0 .084Zm.597-.196c0 .028.028.056.028.112 0 0 0 .028.029.028l.028.029h.057c.028 0 .028-.029.056-.057v-.084c0-.028-.028-.056-.028-.112 0 0 0-.028-.028-.028l-.029-.028h-.056c-.029 0-.029.028-.057.056v.084Zm1.278-.084a.39.39 0 0 0 .085-.113s0-.028.028-.028v-.056s0-.028-.028-.028h-.114c-.028 0-.028.028-.028.028a.39.39 0 0 0-.085.112s0 .028-.029.028v.056s0 .028.029.028h.113l.029-.028Zm.88-.001.17-.084c.029 0 .029-.028.057-.057v-.084c0-.028-.028-.028-.057-.056h-.085l-.17.084c-.029 0-.029.028-.057.056v.085c0 .028.028.028.057.056h.085Zm.681.141a.848.848 0 0 0 .284-.057c.029 0 .029-.028.057-.056v-.084c0-.028-.028-.028-.057-.056h-.085c-.028 0-.028 0-.057.028h.029c-.057.028-.142.028-.227.028-.057 0-.086.056-.086.112.029.085.086.113.142.085Zm.426.393c.086 0 .2 0 .284.028.029 0 .057 0 .057-.028.029-.028.029-.028.029-.056 0-.057-.029-.113-.086-.113-.085 0-.198 0-.284-.028-.028 0-.056 0-.056.028-.029.028-.029.028-.029.056 0 .057.029.113.085.113Zm-.369.365.17.085s.029 0 .029.028h.028c.029 0 .057-.028.057-.028 0-.028.029-.057.029-.057 0-.028-.029-.056-.029-.056l-.17-.084s-.029 0-.029-.028h-.028c-.028 0-.057.028-.057.028 0 .028-.028.056-.028.056 0 .028 0 .056.028.056Zm-.624.393.028.028c-.028 0-.028 0-.028-.028a.087.087 0 0 1 .028.056v-.028.057s0 .028.028.028c0 0 .029 0 .029.028h.028c.028 0 .057-.028.057-.028 0-.028.028-.057.028-.057 0-.028 0-.056-.028-.084 0-.028-.028-.056-.057-.056-.028-.028-.028-.028-.057-.028h-.028s-.028 0-.028.028c-.029.028-.029.028-.029.056v.028c0-.028 0 0 .029 0Zm-.994.281c0 .028.028.028.028.056v-.028.112s0 .028.028.028c.029 0 .057.028.057.028.029 0 .057-.028.057-.028v-.14c0-.028-.028-.057-.028-.085 0-.028-.029-.028-.057-.056h-.057c-.028 0-.028.028-.057.056.029 0 .029.028.029.056Zm-.739.084v.029-.029.057-.056.056-.028s0 .028-.028.028c0 0 0 .028-.028.028v.028c0 .028.028.056.028.056.028 0 .057.028.057.028h.028c.029 0 .029-.028.029-.028.028-.028.028-.028.028-.056 0 0 0-.028.028-.028v-.113c0-.028-.028-.056-.028-.056-.028 0-.057-.028-.057-.028-.028 0-.057.028-.057.028v.085Zm-.823-.167c-.029.028-.029.056-.057.084l.028-.028c-.028.028-.085.056-.113.084-.029 0-.029.028-.029.056s0 .057.029.057c.028.028.028.028.057.028h.028c.028 0 .028 0 .057-.028a.66.66 0 0 0 .199-.197c0-.028.028-.056.028-.056 0-.028-.028-.056-.028-.056-.029 0-.057-.028-.057-.028-.085.056-.114.056-.142.084Zm-.795.139c.028-.028.028-.056.056-.056 0 0 0-.029.029-.029v-.056s0-.028-.029-.028h-.113c-.029 0-.029.028-.029.028-.028.028-.028.056-.056.056 0 0 0 .029-.029.029v.056s0 .028.029.028h.113l.029-.028Z" fill="#FFB164"/><path opacity=".24" d="M10.315 17.278c.199.084.426.197.653.169.085 0 .17-.056.17-.14 0-.057-.085-.113-.141-.141-.142-.056-.284-.113-.37-.225-.17-.169-.51-.618-.851-.421-.313.224.369.674.54.758Z" fill="#fff"/><path d="M16.392 13.54s1.732 2.136 4.402-.28c2.669-2.416.482-4.383.482-4.383l-4.884 4.664Z" fill="#E24C24"/><path d="M19.77 12.19c1.357-1.268 2.046-2.726 1.54-3.256-.507-.53-2.017.069-3.373 1.338-1.356 1.268-2.045 2.726-1.539 3.256.507.53 2.017-.069 3.373-1.337Z" fill="#FF5A27"/><path d="M19.654 12.068c1.242-1.162 1.89-2.478 1.45-2.94-.443-.463-1.808.104-3.05 1.266-1.242 1.162-1.891 2.479-1.45 2.941.442.462 1.807-.105 3.05-1.267Z" fill="#FF8B78"/><path d="M17.67 11.742c-.057.113-.085.281.028.394.029.028.085.056.142.112.029.056.029.113.057.14.028.029.057.057.114.057.255.028.454-.169.624-.365.455-.478.88-.956 1.335-1.461.114-.113.227-.281.199-.45-.029-.14-.2-.225-.341-.225a.683.683 0 0 0-.398.14c-.369.197-.738.422-1.05.731-.284.31-.54.562-.71.928Z" fill="#FF5A27"/><path d="M17.073 12.95c.086-.084.17-.169.228-.281 0-.028.028-.056 0-.056 0-.028-.029-.056-.057-.056-.057-.029-.085 0-.142.028-.029.028-.057.056-.057.084l.028-.028c-.056.056-.085.112-.142.168-.028.029-.028.085 0 .14.029.029.114.029.142 0Zm-.056-.449c.085-.084-.029-.224-.142-.14-.085.084.056.225.142.14Z" fill="#FFB164"/><path d="M17.017 12.5c.056-.056.113-.084.17-.14.028-.028.028-.056.028-.056 0-.028 0-.056-.028-.056-.028-.028-.028-.028-.057-.028-.028 0-.057 0-.057.028-.056.056-.113.084-.17.14-.028.028-.028.056-.028.056 0 .029 0 .057.028.057.028.028.028.028.057.028 0 0 .028-.028.057-.028Zm.142-.757c.028 0 .028.028.057.028h.056c.029 0 .086 0 .114-.028 0 0 .028 0 .028-.028l.029-.028v-.057l-.029-.028-.028-.028h-.085.028-.028.028-.028.028-.028.028-.057s-.028 0-.028.028l-.028.028c0 .028-.029.057 0 .057-.114.028-.086.056-.057.056Zm.369-.506c.028.028.057.056.085.056h.057s.028 0 .028-.028l.029-.028c0-.028.028-.056 0-.056v-.028c0-.028-.029-.028-.029-.028-.028-.028-.057-.057-.085-.057h-.057s-.028 0-.028.029l-.029.028c0 .028-.028.056 0 .056v.028c.029 0 .029.028.029.028Zm1.022-.787v-.168s0-.028-.028-.028l-.029-.028h-.056c-.029 0-.029 0-.057.028l-.029.028v.225s0 .028.029.028l.028.028h.057c.028 0 .028 0 .057-.028l.028-.028v-.057Zm.71-.477.085-.168c0-.029.029-.057 0-.057 0-.028-.028-.056-.057-.056-.028 0-.056-.028-.056 0-.029 0-.057.028-.057.056l-.085.169c0 .028-.029.056 0 .056a.06.06 0 0 0 .056.056c.029 0 .057.028.057 0 .029-.028.057-.028.057-.056Zm.653-.253a.756.756 0 0 0 .199-.225c0-.028.028-.056 0-.056 0-.028-.028-.056-.057-.056-.028 0-.057-.028-.057 0-.028 0-.056.028-.056.056s-.029.028-.029.056l.029-.028c-.057.056-.086.112-.142.14-.029.028-.029.113 0 .14.028 0 .056 0 .113-.027Zm.568.056c.085-.056.17-.084.227-.14.029 0 .029-.029.057-.057v-.056c-.028-.028-.085-.056-.113-.028-.085.056-.17.084-.228.14-.028 0-.028.029-.056.057v.056c0 .028.085.056.113.028Zm-.085.534h.227s.028 0 .028-.028c.029-.028.029-.028.029-.056s0-.056-.029-.056c-.028-.028-.028-.028-.056-.028h-.227s-.029 0-.029.028c-.028.028-.028.028-.028.056s0 .056.028.056c0 0 .029.028.057.028Zm-.284.674h.028-.028c.028 0 .057.028.057.028l-.029-.028.029.028h.057s.028 0 .028-.028c.028-.028.028-.028.028-.056 0-.029 0-.057-.028-.057l-.057-.056c-.028 0-.057-.028-.085-.028h-.057s-.028 0-.028.028l-.029.028v.056l.029.029c.028.028.057.056.085.056Zm-.653.786c.028 0 .028.029.057.029l-.029-.028.057.056.028.028h.029c.028 0 .057 0 .057-.028.028-.028.028-.028.028-.056v-.028c0-.029 0-.029-.028-.057l-.057-.056c-.029-.028-.057-.028-.085-.056-.029 0-.057-.028-.057 0 0 0-.029 0-.029.028l-.028.028c0 .028-.028.056 0 .056 0 .057.028.057.057.085Zm-.569.478s.03.027 0 0c.03.027.03 0 0 0l.03.027-.03-.027c.03.027.03.056.03.056v-.029.057s0 .028.028.028c.028.028.028.028.056.028.029 0 .057 0 .057-.028l.029-.028v-.142c0-.028 0-.028-.029-.056 0-.028-.028-.028-.028-.056-.029-.028-.029-.028-.057-.028s-.057 0-.057.028c-.028.028-.028.028-.028.056-.028.084 0 .084 0 .113Zm-.766.31v.112-.028c0 .056-.028.085-.028.14v.057c0 .028.028.028.057.056h.056l.029-.028.028-.028a.797.797 0 0 0 .057-.253c0-.028 0-.056-.028-.056-.029-.056-.057-.056-.086-.056-.028 0-.056 0-.056.028-.029 0-.029.028-.029.056Zm-.596.589v-.112s0-.028-.028-.028l-.029-.028h-.057c-.028 0-.028 0-.056.028l-.029.028v.168s0 .028.029.028l.028.028h.057c.028 0 .028 0 .057-.028l.028-.028v-.056Z" fill="#FFB164"/><path opacity=".24" d="M18.635 14.16c.227-.029.455-.085.653-.225.057-.057.114-.14.086-.225-.029-.056-.114-.056-.2-.028-.141.028-.283.056-.453.028-.256-.028-.796-.225-.938.14-.17.366.682.337.852.31Z" fill="#fff"/><path d="M19.658 16.688s.795 2.64 4.202 1.377c3.408-1.265 2.073-3.906 2.073-3.906l-6.275 2.529Z" fill="#E24C24"/><path d="M23.297 16.683c1.737-.674 2.927-1.771 2.658-2.45-.269-.68-1.895-.683-3.633-.009-1.737.675-2.927 1.772-2.658 2.45.27.68 1.896.683 3.633.009Z" fill="#FF5A27"/><path d="M23.235 16.525c1.591-.617 2.69-1.598 2.456-2.19-.235-.593-1.715-.572-3.306.046-1.592.617-2.692 1.598-2.457 2.19.235.593 1.716.572 3.307-.046Z" fill="#FF8B78"/><path d="M21.532 15.48c-.085.085-.199.225-.142.366.028.056.057.084.085.14 0 .056-.028.113 0 .169 0 .028.057.056.085.084.227.112.483.028.739-.084l1.788-.843c.143-.084.341-.169.341-.337 0-.14-.085-.281-.227-.31a.738.738 0 0 0-.426-.027c-.426.056-.852.112-1.25.309-.368.112-.71.253-.993.534Z" fill="#FF5A27"/><path d="M20.51 16.379c.113-.056.227-.112.312-.169.028 0 .028-.028.028-.056s0-.056-.028-.084c-.028-.056-.085-.056-.142-.028-.028.028-.057.028-.085.056h.028c-.057.028-.142.084-.199.113-.056.028-.085.084-.056.112.056.056.113.084.142.056Zm.113-.449c.114-.056.057-.225-.057-.169-.113.028-.057.225.057.169Z" fill="#FFB164"/><path d="M20.623 15.93c.057-.028.142-.028.199-.057.028 0 .057-.028.057-.056v-.084c0-.028-.029-.056-.057-.056h-.085c-.057.028-.142.028-.199.056-.028 0-.057.028-.057.056v.084c0 .029.029.057.057.057h.085Zm.427-.647c0 .028.027.028.056.028.028 0 .028.028.057.028.028.028.085.028.113.028h.029s.028 0 .028-.028c0 0 0-.028.029-.028v-.056c0-.028-.029-.028-.029-.028-.028-.028-.057-.028-.057-.028h-.028.028-.028.028s-.028 0-.028-.028h.028l-.028-.028.028.028-.028-.028h-.057s-.028 0-.028.028c-.029.028-.029.028-.029.056-.113.028-.113.056-.085.056Zm.539-.309c.028.028.028.056.056.085l.029.028h.057s.028 0 .028-.028c.028-.029.028-.029.028-.057v-.028c0-.028 0-.028-.028-.056s-.028-.056-.057-.084l-.028-.028h-.057s-.028 0-.028.028c-.029.028-.029.028-.029.056v.028c.029.028.029.028.029.056Zm1.249-.365c.028-.028.028-.085.057-.113v-.056s0-.028-.029-.028l-.028-.028h-.114l-.028.028c-.028.028-.028.084-.057.112v.057s0 .028.029.028l.028.028h.114l.028-.028Zm.824-.197a.618.618 0 0 0 .142-.113c.028-.028.028-.028.028-.056s0-.056-.028-.084c-.029-.028-.029-.028-.057-.028-.029 0-.057 0-.085.028a.618.618 0 0 0-.142.112c-.029.028-.029.028-.029.056 0 .029 0 .057.029.085.028.028.028.028.056.028.057 0 .086 0 .086-.028Zm.709.028c.086-.028.2-.084.284-.112.029 0 .029-.028.029-.056 0-.029 0-.057-.029-.085-.028-.028-.028-.028-.056-.028-.029 0-.057 0-.086.028-.028 0-.028.028-.056.028h.028c-.057.028-.142.057-.199.085-.057.028-.085.084-.057.112.029 0 .086.028.142.028Zm.512.253c.085-.029.198-.029.284-.057.028 0 .056-.028.056-.028 0-.028.029-.056.029-.056 0-.056-.057-.084-.114-.084-.085.028-.199.028-.284.056-.028 0-.057.028-.057.028 0 .028-.028.056-.028.056 0 .056.057.113.114.085Zm-.284.45c.056.028.113.028.198.056h.057c.029 0 .057-.028.057-.056v-.084c0-.028-.028-.056-.057-.056-.057-.029-.113-.029-.198-.057h-.057c-.029 0-.057.028-.057.056v.085c.028.028.028.056.057.056Zm-.539.533.027.028c0-.028 0-.028-.028-.028l.057.057v-.029.029s0 .028.028.028l.029.028h.057a.06.06 0 0 0 .056-.056v-.085c0-.028-.028-.056-.028-.056l-.057-.056c-.028-.028-.057-.028-.057-.028h-.028s-.029 0-.029.028-.028.056-.028.056v.084Zm-.881.479c0 .028.028.028.028.056v-.028c0 .028.029.056.029.056s0 .028.028.028l.028.028h.086a.06.06 0 0 0 .056-.056v-.084c0-.028-.028-.056-.028-.056-.028-.028-.028-.056-.057-.085-.028-.028-.028-.028-.057-.028h-.028s-.028 0-.028.028c-.029.029-.029.029-.029.057-.057.028-.057.056-.028.084Zm-.71.252v.028-.028.056c.028-.028.028-.028 0-.056v.056-.028s0 .029-.028.029v.056a.06.06 0 0 0 .056.056h.114l.028-.028c0-.028.029-.028.029-.056v-.085c0-.028 0-.028-.029-.056 0-.028-.028-.028-.056-.056h-.086a.06.06 0 0 0-.056.056c.028 0 .028.028.028.056Zm-.824 0c0 .028-.028.056-.056.084v-.028a.388.388 0 0 1-.086.112c-.028.028-.028.056-.028.056 0 .028.028.056.028.056.029 0 .057.029.057.029h.029c.028 0 .028-.029.028-.029a.61.61 0 0 0 .142-.224v-.085c0-.028-.029-.056-.057-.056h-.085c.057.028.028.056.028.085Zm-.766.308c0-.028.028-.056.028-.084v-.056s0-.028-.028-.028l-.029-.028h-.113l-.029.028c0 .028-.028.056-.028.084v.056s0 .028.028.028l.029.028h.113l.029-.028Z" fill="#FFB164"/><path opacity=".24" d="M21.503 18.093c.228.056.455.084.682.028.085-.028.17-.085.142-.169-.029-.056-.085-.084-.17-.112-.142-.028-.285-.056-.426-.14-.228-.141-.654-.506-.938-.226-.255.282.54.562.71.619Z" fill="#fff"/><path d="M4.21 12.08s-2.613.983-1.108 4.243c1.505 3.23 4.09 1.77 4.09 1.77L4.21 12.08Z" fill="#E24C24"/><path d="M7.126 18.103c.667-.312.559-1.918-.24-3.587-.798-1.668-1.986-2.768-2.652-2.456-.666.312-.559 1.918.24 3.587.799 1.669 1.986 2.769 2.652 2.456Z" fill="#FF5A27"/><path d="M7.005 17.85c.58-.273.459-1.733-.273-3.262-.731-1.528-1.796-2.547-2.377-2.274-.58.272-.459 1.732.273 3.26.731 1.53 1.796 2.548 2.377 2.275Z" fill="#FF8B78"/><path d="M5.573 13.85c-.114-.085-.256-.17-.37-.113-.056.028-.085.084-.141.084h-.17c-.03.028-.058.056-.086.085-.114.224.028.477.142.702.34.562.653 1.124.994 1.686.085.14.199.309.37.309.141 0 .255-.113.311-.253.057-.14.029-.281 0-.422-.085-.421-.198-.843-.397-1.208-.199-.28-.37-.618-.653-.87Z" fill="#FF5A27"/><path d="M4.579 12.894c.057.113.113.197.199.31 0 .027.028.027.056.027.029 0 .057 0 .057-.028.029-.028.029-.084 0-.14-.028-.028-.028-.056-.057-.084v.028c-.028-.056-.085-.14-.113-.197-.029-.056-.085-.056-.114-.056-.028.028-.056.084-.028.14Zm.454.084c.057.113.227.028.17-.084-.056-.113-.227-.028-.17.084Z" fill="#FFB164"/><path d="M5.033 12.978c.029.057.057.14.085.197 0 .028.029.028.057.056h.085c.029 0 .029-.028.057-.056v-.084c-.028-.056-.057-.14-.085-.197 0-.028-.028-.028-.057-.056H5.09c-.028 0-.028.028-.057.056v.084Zm.682.367s-.029.028-.029.056-.028.028-.028.056-.028.085 0 .113c0 0 0 .028.028.028l.029.028H5.8c.028 0 .028-.028.028-.028 0-.028.029-.056.029-.056v-.028.028-.028.028-.028.028s0-.028.028-.028l-.028.028.028-.028v-.057s0-.028-.028-.028c-.029-.028-.029-.028-.057-.028-.028-.084-.057-.084-.085-.056Zm.369.533c-.028.028-.057.028-.085.056l-.029.028v.056s0 .028.029.028c.028.028.028.028.057.028h.028c.028 0 .028 0 .057-.028.028-.028.057-.028.085-.056l.028-.028v-.056s0-.028-.028-.028c-.028-.028-.028-.028-.057-.028h-.028c-.029 0-.057 0-.057.028Zm.426 1.179c.028.028.085.028.113.056h.057s.029 0 .029-.028l.028-.028v-.112l-.028-.029c-.029-.028-.086-.028-.114-.056h-.057s-.028 0-.028.028l-.029.028v.113l.029.028Zm.255.815c.029.056.086.084.114.14.028.029.028.029.057.029.028 0 .057 0 .057-.029.028-.028.028-.028.028-.056s0-.056-.028-.056c-.029-.056-.086-.084-.114-.14-.028-.029-.028-.029-.057-.029-.028 0-.057 0-.057.028-.028.029-.028.029-.028.057s.028.056.028.056Zm.057.703c.029.084.085.169.142.253 0 .028.028.028.057.028.028 0 .057 0 .057-.028.028-.028.028-.028.028-.056s0-.056-.028-.056c0-.029-.029-.029-.029-.057v.028c-.028-.056-.085-.112-.085-.196-.028-.056-.085-.056-.113-.056-.057.028-.057.084-.029.14Zm-.255.505a.823.823 0 0 1 .057.281c0 .028.028.056.028.056.028 0 .057.028.057.028.057 0 .085-.056.085-.112-.028-.084-.057-.169-.057-.28 0-.029-.028-.057-.028-.057-.029 0-.057-.028-.057-.028-.057.028-.085.056-.085.112Zm-.483-.224c-.028.056-.028.112-.057.197v.056c0 .028.029.028.057.056h.085c.028 0 .028-.028.057-.056.028-.056.028-.113.057-.197v-.056c0-.028-.029-.028-.057-.056H6.14c-.029 0-.029.028-.057.056Zm-.54-.506-.028.027.028-.028-.056.057h.028-.028s-.029 0-.029.028l-.028.028v.056c0 .028.028.028.057.056h.085c.028 0 .057-.028.057-.056l.056-.056c0-.028.029-.056.029-.056s0-.028-.029-.028l-.028-.029c-.028 0-.057-.028-.057-.028h-.028l-.029.028Zm-.568-.842c-.028.028-.028.028-.056.028.028 0 .028 0 .056-.028a.351.351 0 0 0-.085.056s-.028 0-.028.028l-.029.028v.084c0 .028.029.028.057.057h.085c.029 0 .057-.028.057-.028.029-.029.057-.029.085-.057.029-.028.029-.028.029-.056v-.028s0-.028-.029-.028c-.028-.028-.028-.028-.056-.028-.029-.056-.057-.056-.086-.028Zm-.284-.674h-.028.028-.056.056-.056.028-.085c-.029 0-.029.028-.057.056v.112l.028.028c.029 0 .029 0 .057.028h.085c.029 0 .029 0 .057-.028.029 0 .029-.028.057-.056v-.084c0-.028-.028-.028-.057-.056 0-.028-.028-.028-.057 0Zm-.056-.844c-.029 0-.057-.028-.086-.028h.029a.392.392 0 0 1-.114-.084H4.38c-.028 0-.057.028-.057.028 0 .028-.028.056-.028.056v.028c0 .028.028.028.028.028a.62.62 0 0 0 .227.14h.086c.028 0 .028-.027.056-.055v-.085s-.028 0-.056-.028Zm-.369-.73c.028 0 .056.028.085.028h.057s.028 0 .028-.028l.028-.028v-.112l-.028-.028c-.028 0-.057-.029-.085-.029h-.057s-.028 0-.028.029l-.029.028v.112c0 .028 0 .028.029.028Z" fill="#FFB164"/><path opacity=".24" d="M2.932 13.99c-.028.225-.057.478.028.675.029.084.114.168.17.14.058-.028.086-.112.086-.168.028-.14.028-.31.114-.422.113-.225.454-.674.17-.927-.312-.253-.54.534-.568.702Z" fill="#fff"/><path d="M6.056 14.973c.369-.225.937-.14 1.192.197.313-.45 1.023-.534 1.477-.253.483.28.738.843.738 1.377.767-.253 1.59.309 2.045.983.085.112.142.225.255.31a.941.941 0 0 0 .483.111c1.363.169 2.556 1.293 2.811 2.641.085.422.057.871-.17 1.209-.199.28-.511.45-.795.59-.34.168-.682.365-1.08.393-1.107.084-1.845-1.124-2.839-1.573-.823-.366-1.789-.225-2.612-.59-.653-.281-1.278-.843-1.846-1.265-.483-.365-.795-.73-.966-1.292-.227-.703-.113-2.051.994-1.714-.17-.393-.057-.9.313-1.124Z" fill="#89E269"/><path d="M32.493 14.271h-.682c-.113 2.501-5.423 3.878-15.135 3.878-9.4 0-14.965-1.798-15.135-3.878H.859s-.256 3.203 1.562 7.08c2.726 5.816 6.503 6.884 6.503 6.884l7.695.14 7.696-.14s3.748-1.04 6.474-6.855c1.79-3.906 1.704-7.108 1.704-7.108Z" fill="#EDCEB9"/><path d="M24.428 29.5v-1.35l-7.752-.955-7.752 1.04v1.264s-.057.618 2.3 1.405c3.209 1.096 8.462.73 10.96 0 2.358-.703 2.244-1.405 2.244-1.405Z" fill="#EDCEB9"/><path d="M22.157 30.904c2.385-.702 2.3-1.405 2.3-1.405v-1.348l-3.55-.45h-.028c-.398.253-.795.45-.824.955-.028.534.256 1.18.029 1.686-.142.31-.511.422-.852.506-2.613.59-5.282.225-7.838-.393-.795-.197-1.618-.422-2.272-.871-.056-.029-.113-.085-.198-.113 0 0-.057.618 2.3 1.405 3.18 1.124 8.434.759 10.933.028Z" fill="#EABFAC"/><path opacity=".38" d="M4.664 19.217c-.17.421-.028.899.142 1.348.454 1.18 1.08 2.276 1.789 3.344.511.758 1.136 1.545 2.045 1.713.312.057.653.029.937-.112a.969.969 0 0 0 .51-.759c0-.337-.17-.618-.34-.899a7.782 7.782 0 0 1-.965-2.163c-.114-.506-.17-1.068-.426-1.517-.483-.843-3.18-2.332-3.692-.955Zm5.452 9.523c-.085 0-.142 0-.227.057-.142.084-.142.28-.085.421.085.14.227.225.34.281.569.281 1.193.45 1.847.562.255.056.51.084.738-.028.227-.084.397-.365.284-.59-.114-.197-.398-.253-.625-.253-.738-.084-1.533-.477-2.272-.45Z" fill="#fff"/><path d="M32.465 14.271h-.682c-.057 1.405-1.76 2.445-4.941 3.12a12.58 12.58 0 0 1-1.278 3.933c-2.243 4.186-4.345 5.366-6.9 6.209-3.18 1.067-6.9.814-6.9.814s3.748.843 6.73.843c2.981 0 5.764-.955 5.764-.955s3.748-1.04 6.474-6.855c1.818-3.906 1.733-7.108 1.733-7.108Z" fill="#EABFAC"/><path d="M32.493 14.047h-.681v.225c-.085 2.528-5.396 3.905-15.136 3.905-9.427 0-14.993-1.826-15.135-3.905 0-.085.028-.14.028-.225H.888c0 .084-.029.168-.029.253.142 2.304 5.964 4.355 15.817 4.355 10.195 0 15.732-1.546 15.817-4.383v-.225Z" fill="#FFDFCA"/><path d="m3.699 11.46-.142 1.096s.425 1.63 2.782 2.22c2.641.646 4.657.056 4.8-1.546.028-.252-.256-.983-.256-.983l-7.213-.843.029.056Z" fill="#59B24F"/><path d="M10.916 12.718c.197-1.005-1.252-2.13-3.238-2.512-1.986-.383-3.756.122-3.954 1.127-.198 1.005 1.252 2.13 3.238 2.513s3.756-.122 3.954-1.128Z" fill="#84D17D"/><path d="M10.684 12.556c-.057.787-1.562 1.321-3.408 1.04-1.845-.28-3.379-1.348-3.35-2.135.056-.787 1.703-1.377 3.55-1.096 1.817.281 3.237 1.405 3.208 2.191Z" fill="#B0EDA9"/><path d="M5.26 11.46c-.056-.056-.113-.112-.113-.196 0-.14.17-.169.284-.169.255.028.54.084.766.197a.946.946 0 0 1-.17-.338c0-.028-.028-.056 0-.084.028-.056.114-.028.17 0 .284.14.54.337.767.562a.613.613 0 0 1-.113-.365c0-.14.056-.253.17-.31.142-.055.34.029.454.17.114.14.142.309.17.477a.947.947 0 0 1 .824-.14c.057.028.142.056.17.112.057.112-.056.197-.141.253.34-.056.738.084.993.365a.212.212 0 0 1 .057.112c0 .028-.028.057-.028.057-.142.14-.313.196-.511.224-.2.028-.398-.028-.597-.056.2.085.37.197.54.337l.057.057c0 .028 0 .028-.029.056-.142.196-.426.224-.653.112-.227-.084-.426-.28-.596-.45.085.141.142.282.113.45-.028.14-.198.253-.34.197a.751.751 0 0 1-.17-.14 1.506 1.506 0 0 1-.285-.563.473.473 0 0 1-.51.422c-.058 0-.143-.028-.171-.084a.17.17 0 0 1 0-.225.48.48 0 0 1 .17-.169c-.199.085-.426.169-.596.028-.057-.056-.085-.112-.057-.168l.085-.085c.085-.056.341-.084.37-.168-.455-.084-.767-.225-1.08-.478Z" fill="#C1FFB8"/><path d="M16.165 15.282c.454-.196 1.022-.196 1.448.028.085.056.227.113.284.028.029-.028.029-.084.029-.14-.086-.534-.568-.955-1.136-.983-.398-.028-.795.168-1.165.365a6.75 6.75 0 0 0-.738.477c-.312.225-.625.478-.767.843-.113.253-.17.815.2.9.368.084.539-.45.737-.675.313-.365.682-.674 1.108-.843Z" fill="#0A0B0C"/><path d="M17.216 14.159c-.597-.085-1.193.084-1.733.365-.51.28-.965.674-1.42 1.067-.482.422-.454 1.237-.17 1.742.256.478.795.787 1.335.843.54.056 1.05-.168 1.533-.393.511-.253 1.023-.534 1.363-.984.37-.449.54-1.04.37-1.573-.142-.59-.682-.983-1.278-1.068Zm.198 1.545c-.142.28-.426.505-.71.674a5.632 5.632 0 0 1-.852.393c-.255.085-.51.169-.766.14-.256-.027-.54-.14-.653-.364-.54-.871.852-1.546 1.448-1.799.34-.14.71-.196 1.05-.112a.885.885 0 0 1 .37.169c.255.225.284.618.113.899Z" fill="#36383F"/><path d="M9.15 9.607c.455-.196 1.023-.196 1.45.029.084.056.226.112.283.028.029-.028.029-.085.029-.14-.086-.535-.568-.956-1.136-.984-.398-.028-.795.168-1.165.365-.255.14-.51.31-.738.478-.312.224-.625.477-.767.843-.113.252-.17.814.2.899.368.084.539-.45.737-.675.313-.365.682-.674 1.108-.843Z" fill="#0A0B0C"/><path d="M10.201 8.455c-.596-.084-1.192.085-1.732.366-.51.28-.965.674-1.42 1.067-.482.422-.454 1.236-.17 1.742.256.478.795.787 1.335.843.54.056 1.05-.168 1.533-.393.511-.253 1.023-.534 1.363-.984.37-.45.54-1.04.37-1.573-.143-.59-.682-.983-1.279-1.068Zm.2 1.574c-.143.28-.427.477-.71.646-.285.168-.569.28-.853.393-.255.085-.51.169-.766.14-.256-.027-.54-.14-.653-.364-.54-.871.852-1.546 1.448-1.799.34-.14.71-.196 1.05-.112a.884.884 0 0 1 .37.169c.255.224.284.618.113.927Z" fill="#36383F"/><path d="M29.34 11.35c.37.337.626.815.626 1.293 0 .112 0 .252.113.28a.218.218 0 0 0 .142-.056c.455-.309.625-.955.398-1.433-.17-.365-.511-.646-.852-.87a10.903 10.903 0 0 0-.767-.45c-.34-.169-.71-.337-1.107-.31-.284.029-.824.226-.739.59.086.366.654.282.938.366a2.46 2.46 0 0 1 1.249.59Z" fill="#0A0B0C"/><path d="M30.846 11.771c-.17-.562-.596-1.04-1.08-1.376-.482-.338-1.05-.562-1.59-.787-.567-.225-1.334.14-1.646.618-.313.45-.37 1.04-.17 1.545.198.506.624.871 1.05 1.208.454.338.937.647 1.505.787.54.113 1.193.028 1.59-.337.398-.421.511-1.068.34-1.658Zm-1.335.871c-.34 0-.653-.168-.908-.337a4.837 4.837 0 0 1-.739-.59c-.198-.168-.369-.365-.454-.618-.085-.253-.114-.534.028-.758.568-.843 1.79.056 2.272.505.284.253.483.534.568.9.028.14.028.28 0 .393-.085.337-.426.533-.767.505Z" fill="#36383F"/><path d="M18.408 13.372s1.193 2.922 4.629 2.08c3.436-.844 4.827-2.95 5.14-3.316.653-.787.624-1.939.624-1.939l-10.393 3.175Z" fill="#FFECD7"/><path d="M19.97 12.895c-.028 0 .88 1.994 2.499 1.685 3.209-.618 2.697-3.259 2.697-3.259l-5.196 1.574Z" fill="#FFDC31"/><path opacity=".52" d="M27.154 11.686c-.198.675-.88 1.068-1.363 1.546-.085.084-.198.224-.142.337.029.084.142.14.256.112.085 0 .17-.056.255-.112a5.786 5.786 0 0 0 1.051-.984c.34-.393.71-.814.767-1.348v-.169c-.085-.224-.398-.112-.54 0-.17.169-.227.394-.284.618Z" fill="#fff"/></svg>