<svg width="34" height="34" fill="none" xmlns="http://www.w3.org/2000/svg"><g clip-path="url(#a)"><path fill-rule="evenodd" clip-rule="evenodd" d="M1.307 32.39c0 .734.578 1.335 1.284 1.335h6.66l1.434-1.08 1.457 1.08H15.3l1.083-1.08 1.086 1.08h1.086l1.086-1.08 1.086 1.08h3.62c.707 0 1.285-.601 1.285-1.334v-1.786l-12.484-2.32-11.842 2.32v1.786Z" fill="#7E707D"/><path fill-rule="evenodd" clip-rule="evenodd" d="m17.52 5.666 7.56-1.997a.613.613 0 0 0 .609-.609V.61a.61.61 0 0 0-.61-.609H8.977a.612.612 0 0 0-.61.609v2.21l9.154 2.847Z" fill="#F5A96C"/><path fill-rule="evenodd" clip-rule="evenodd" d="m.609 6.488 8.052 2.57 8.053-2.57a.613.613 0 0 0 .609-.609V3.43a.611.611 0 0 0-.609-.61H.609A.61.61 0 0 0 0 3.43v2.45c0 .324.258.592.578.61h.03Z" fill="#FFBC85"/><path fill-rule="evenodd" clip-rule="evenodd" d="M26.922 28.672v1.933H8.169c-2.456-1.122-4.04-1.822-6.447-5.595a76.797 76.797 0 0 0-.087-9.307c-.19-2.739-.53-5.72-1.057-9.214h16.136a.609.609 0 0 0 .167-.023c.442.66 5.615 13.858 9.994 21.32.023.038.01.09.014.137a8.7 8.7 0 0 1 .033.749Z" fill="#FDE588"/><path fill-rule="evenodd" clip-rule="evenodd" d="M1.722 25.01a122.77 122.77 0 0 1-.415 5.595H8.17c-.677-2.903-3.147-5.594-6.448-5.594Z" fill="#FFBC85"/><path fill-rule="evenodd" clip-rule="evenodd" d="M34 25.852v2.071l-4.2 1.56-4.201-1.56a2.142 2.142 0 0 0-.014-.136v-.001c-.614-5.41-7.14-1.124-9.41-5.42-.557-1.052-.795-3.232-.654-6.193a45.546 45.546 0 0 1 .227-2.818l.06-.526c.23-1.928.584-4.064 1.073-6.342a.613.613 0 0 0 .442-.586V3.692h7.757a.599.599 0 0 0 .168-.023c-.742 3.458-1.173 6.582-1.33 9.162a37.818 37.818 0 0 0-.05 1.024c-.093 2.707.15 4.701.674 5.695C26.926 24.058 34 19.11 34 25.852Z" fill="#FDE588"/><path fill-rule="evenodd" clip-rule="evenodd" d="M23.449 33.726h.9c.705 0 1.283-.601 1.283-1.334v-1.787H23.45v3.121Z" fill="#6A5C69"/><path fill-rule="evenodd" clip-rule="evenodd" d="M22.64 3.692c-.787 3.681-1.224 6.982-1.352 9.65-.002.004-.002.01-.002.013h2.603c.128-2.676.566-5.99 1.36-9.686-.003 0-.005 0-.007.002a.647.647 0 0 1-.162.021h-2.44Zm-1.353 9.663c-.142 2.962.53 6.553 1.087 7.606 2.386 4.509 9.023-.006 9.023 6.74v.222H34V25.85c-.002-6.74-7.074-1.792-9.458-6.3-.453-.858-.696-2.463-.694-4.63 0-.494.014-1.016.04-1.565h-2.602Z" fill="#FDD76F"/><path d="M23.918 12.83a37.818 37.818 0 0 0-.05 1.025h-8.12c-.018 0-.035 0-.052-.003a.514.514 0 0 1 .052-1.023h8.141l.029.001Z" fill="#7E707D"/><path fill-rule="evenodd" clip-rule="evenodd" d="M25.632 28.672v1.934h-2.183l-.047-1.678c.12-3.622-7.14-1.035-9.41-5.335-.525-.994-.768-4.084-.675-6.918.006-.172.013-.343.021-.513h2.184c-.009.174-.015.345-.02.513-.093 2.702.149 4.694.673 5.687 2.27 4.3 8.796.01 9.41 5.424l.014.138c.021.233.033.48.033.748ZM16.88 6.466a68.632 68.632 0 0 0-1.132 6.876 47.003 47.003 0 0 0-.226 2.82h-2.184c.008-.169.018-.34.028-.513a48.4 48.4 0 0 1 .199-2.306 69.15 69.15 0 0 1 1.126-6.854h2.023a.609.609 0 0 0 .167-.023Z" fill="#FDD76F"/><path d="M15.55 15.65a33.172 33.172 0 0 0-.049 1.025H8.387c-.634 0-1.065.012-1.281.178-.23.178-.343.664-.343 1.487 0 .632-.258 1.116-.707 1.327-.12.056-.292.11-.511.11-.34 0-.795-.13-1.343-.585L1.72 17.113a81.794 81.794 0 0 0-.085-1.41l3.222 2.699c.392.325.67.379.763.336.056-.026.117-.162.117-.398 0-1.211.222-1.899.743-2.3.508-.391 1.187-.391 1.907-.391h7.163Z" fill="#7E707D"/><path fill-rule="evenodd" clip-rule="evenodd" d="M25.632 28.672v2.372h1.292l1.086-1.08 1.086 1.08h3.62c.706 0 1.284-.601 1.284-1.334v-1.786h-8.4c.02.233.032.48.032.748Z" fill="#7E707D"/><path d="M31.398 27.924v3.12h1.318c.706 0 1.284-.601 1.284-1.334v-1.786h-2.602Z" fill="#6A5C69"/></g><defs><clipPath id="a"><path fill="#fff" d="M0 0h34v34H0z"/></clipPath></defs></svg>