<svg width="34" height="34" fill="none" xmlns="http://www.w3.org/2000/svg"><g clip-path="url(#a)"><path d="m4 .944 2.807 31.204c.085.956 4.243 1.776 9.286 1.847 5.044.07 9.22-.633 9.33-1.589L29 1.29 4 .944Z" fill="url(#b)"/><path opacity=".64" d="M26.722 7.236c.034-.027.052-.052.052-.078 0-.434-4.61-.85-10.308-.928-5.698-.079-10.32.208-10.328.642 0 .027.017.053.05.08h-.082l2.34 24.445c.073.75 3.515 1.393 7.69 1.451 4.176.059 7.633-.49 7.724-1.238l2.945-24.367-.083-.007Z" fill="#fff"/><path d="M28.965 1.19C28.972.636 23.398.11 16.515.015 9.63-.08 4.046.291 4.039.845c-.007.553 5.568 1.079 12.45 1.174 6.884.096 12.469-.276 12.476-.83Z" fill="#7B6F72"/><path opacity=".51" d="M26.806 7.094c0 .392-4.656.646-10.39.568-5.736-.08-10.37-.463-10.366-.854.004-.392 4.655-.648 10.39-.568 5.735.08 10.373.461 10.366.854Z" fill="#fff"/><path d="M14.762 18.543c.062-.863.106-1.726.132-2.589.015-.478-.691-.513-.706-.03a62.26 62.26 0 0 1-.113 2.363l-1.748-.076.046-1.682c.013-.478-.693-.514-.707-.031-.04 1.452-.077 2.905-.113 4.358-.013.478.693.514.706.031l.052-1.93 1.713.075c-.06.77-.136 1.537-.225 2.302-.056.478.65.505.705.031.098-.831.178-1.664.242-2.499a.439.439 0 0 0 .016-.323Zm1.588 5.529c-.056 0-.512-.048-.684-.07.095-.078.182-.167.26-.264.067-.074.138-.144.204-.22.272-.32.475-.717.368-1.158-.191-.785-1.231-.836-1.42-.022-.113.466.565.696.678.228.123 0 .128.078.015.23a1.3 1.3 0 0 1-.216.284c-.1.11-.206.216-.3.333-.17.216-.339.485-.305.78.076.662.927.577 1.376.626.45.049.476-.692.025-.747Zm3.174-7.558a.342.342 0 0 0-.1-.23.306.306 0 0 0-.224-.088c-1.185-.016-1.786 1.842-1.817 2.858-.035 1.135.487 2.522 1.735 2.54 1.225.016 1.975-1.201 2.08-2.374.09-1.021-.625-2.52-1.674-2.706Zm.948 2.836c-.113.74-.632 1.602-1.45 1.487-.818-.115-.976-1.206-.926-1.897a3.16 3.16 0 0 1 .24-1.002c.1-.239.321-.716.595-.911.034.07.089.127.155.164a.35.35 0 0 0 .217.039c.382-.05.821.597.988.897.197.372.261.806.181 1.223Z" fill="#fff"/></g><defs><linearGradient id="b" x1="29" y1="34" x2="-4.405" y2="32.045" gradientUnits="userSpaceOnUse"><stop stop-color="#92A3FD"/><stop offset="1" stop-color="#9DCEFF"/></linearGradient><clipPath id="a"><path fill="#fff" transform="translate(4)" d="M0 0h25v34H0z"/></clipPath></defs></svg>