<svg width="170" height="36" viewBox="0 0 170 36" fill="none" xmlns="http://www.w3.org/2000/svg">
<path d="M18.684 5.728V10.66H8.388V15.988H16.092V20.776H8.388V31H2.232V5.728H18.684ZM25.0155 8.824C23.9355 8.824 23.0475 8.512 22.3515 7.888C21.6795 7.24 21.3435 6.448 21.3435 5.512C21.3435 4.552 21.6795 3.76 22.3515 3.136C23.0475 2.488 23.9355 2.164 25.0155 2.164C26.0715 2.164 26.9355 2.488 27.6075 3.136C28.3035 3.76 28.6515 4.552 28.6515 5.512C28.6515 6.448 28.3035 7.24 27.6075 7.888C26.9355 8.512 26.0715 8.824 25.0155 8.824ZM28.0755 10.912V31H21.9195V10.912H28.0755ZM43.7327 25.78V31H40.6007C38.3687 31 36.6287 30.46 35.3807 29.38C34.1327 28.276 33.5087 26.488 33.5087 24.016V16.024H31.0607V10.912H33.5087V6.016H39.6647V10.912H43.6967V16.024H39.6647V24.088C39.6647 24.688 39.8087 25.12 40.0967 25.384C40.3847 25.648 40.8647 25.78 41.5367 25.78H43.7327ZM59.4017 10.696C61.7537 10.696 63.6257 11.464 65.0177 13C66.4337 14.512 67.1417 16.6 67.1417 19.264V31H61.0217V20.092C61.0217 18.748 60.6737 17.704 59.9777 16.96C59.2817 16.216 58.3457 15.844 57.1697 15.844C55.9937 15.844 55.0577 16.216 54.3617 16.96C53.6657 17.704 53.3177 18.748 53.3177 20.092V31H47.1617V10.912H53.3177V13.576C53.9417 12.688 54.7817 11.992 55.8377 11.488C56.8937 10.96 58.0817 10.696 59.4017 10.696ZM90.3555 20.632C90.3555 21.208 90.3195 21.808 90.2475 22.432H76.3155C76.4115 23.68 76.8075 24.64 77.5035 25.312C78.2235 25.96 79.0995 26.284 80.1315 26.284C81.6675 26.284 82.7355 25.636 83.3355 24.34H89.8875C89.5515 25.66 88.9395 26.848 88.0515 27.904C87.1875 28.96 86.0955 29.788 84.7755 30.388C83.4555 30.988 81.9795 31.288 80.3475 31.288C78.3795 31.288 76.6275 30.868 75.0915 30.028C73.5555 29.188 72.3555 27.988 71.4915 26.428C70.6275 24.868 70.1955 23.044 70.1955 20.956C70.1955 18.868 70.6155 17.044 71.4555 15.484C72.3195 13.924 73.5195 12.724 75.0555 11.884C76.5915 11.044 78.3555 10.624 80.3475 10.624C82.2915 10.624 84.0195 11.032 85.5315 11.848C87.0435 12.664 88.2195 13.828 89.0595 15.34C89.9235 16.852 90.3555 18.616 90.3555 20.632ZM84.0555 19.012C84.0555 17.956 83.6955 17.116 82.9755 16.492C82.2555 15.868 81.3555 15.556 80.2755 15.556C79.2435 15.556 78.3675 15.856 77.6475 16.456C76.9515 17.056 76.5195 17.908 76.3515 19.012H84.0555ZM101.775 31.288C100.023 31.288 98.4631 30.988 97.0951 30.388C95.7271 29.788 94.6471 28.972 93.8551 27.94C93.0631 26.884 92.6191 25.708 92.5231 24.412H98.6071C98.6791 25.108 99.0031 25.672 99.5791 26.104C100.155 26.536 100.863 26.752 101.703 26.752C102.471 26.752 103.059 26.608 103.467 26.32C103.899 26.008 104.115 25.612 104.115 25.132C104.115 24.556 103.815 24.136 103.215 23.872C102.615 23.584 101.643 23.272 100.299 22.936C98.8591 22.6 97.6591 22.252 96.6991 21.892C95.7391 21.508 94.9111 20.92 94.2151 20.128C93.5191 19.312 93.1711 18.22 93.1711 16.852C93.1711 15.7 93.4831 14.656 94.1071 13.72C94.7551 12.76 95.6911 12.004 96.9151 11.452C98.1631 10.9 99.6391 10.624 101.343 10.624C103.863 10.624 105.843 11.248 107.283 12.496C108.747 13.744 109.587 15.4 109.803 17.464H104.115C104.019 16.768 103.707 16.216 103.179 15.808C102.675 15.4 102.003 15.196 101.163 15.196C100.443 15.196 99.8911 15.34 99.5071 15.628C99.1231 15.892 98.9311 16.264 98.9311 16.744C98.9311 17.32 99.2311 17.752 99.8311 18.04C100.455 18.328 101.415 18.616 102.711 18.904C104.199 19.288 105.411 19.672 106.347 20.056C107.283 20.416 108.099 21.016 108.795 21.856C109.515 22.672 109.887 23.776 109.911 25.168C109.911 26.344 109.575 27.4 108.903 28.336C108.255 29.248 107.307 29.968 106.059 30.496C104.835 31.024 103.407 31.288 101.775 31.288ZM121.849 31.288C120.097 31.288 118.537 30.988 117.169 30.388C115.801 29.788 114.721 28.972 113.929 27.94C113.137 26.884 112.693 25.708 112.597 24.412H118.681C118.753 25.108 119.077 25.672 119.653 26.104C120.229 26.536 120.937 26.752 121.777 26.752C122.545 26.752 123.133 26.608 123.541 26.32C123.973 26.008 124.189 25.612 124.189 25.132C124.189 24.556 123.889 24.136 123.289 23.872C122.689 23.584 121.717 23.272 120.373 22.936C118.933 22.6 117.733 22.252 116.773 21.892C115.813 21.508 114.985 20.92 114.289 20.128C113.593 19.312 113.245 18.22 113.245 16.852C113.245 15.7 113.557 14.656 114.181 13.72C114.829 12.76 115.765 12.004 116.989 11.452C118.237 10.9 119.713 10.624 121.417 10.624C123.937 10.624 125.917 11.248 127.357 12.496C128.821 13.744 129.661 15.4 129.877 17.464H124.189C124.093 16.768 123.781 16.216 123.253 15.808C122.749 15.4 122.077 15.196 121.237 15.196C120.517 15.196 119.965 15.34 119.581 15.628C119.197 15.892 119.005 16.264 119.005 16.744C119.005 17.32 119.305 17.752 119.905 18.04C120.529 18.328 121.489 18.616 122.785 18.904C124.273 19.288 125.485 19.672 126.421 20.056C127.357 20.416 128.173 21.016 128.869 21.856C129.589 22.672 129.961 23.776 129.985 25.168C129.985 26.344 129.649 27.4 128.977 28.336C128.329 29.248 127.381 29.968 126.133 30.496C124.909 31.024 123.481 31.288 121.849 31.288Z" fill="#8388CF"/>
<path d="M159.6 36L152.45 25.25L146.15 36H136.45L147.7 18.15L136.2 0.899999H146.15L153.2 11.5L159.4 0.899999H169.1L157.95 18.6L169.55 36H159.6Z" fill="white"/>
</svg>
