<svg width="185" height="95" viewBox="0 0 185 95" fill="none" xmlns="http://www.w3.org/2000/svg">
<path d="M2.952 78.642V82.98H7.776V84.24H2.952V88.668H8.316V90H1.314V77.31H8.316V78.642H2.952ZM14.2535 88.254L17.3135 80.118H19.0775L15.2075 90H13.2635L9.39347 80.118H11.1575L14.2535 88.254ZM29.7751 84.51C29.7751 84.858 29.7511 85.158 29.7031 85.41H21.8011C21.8371 86.538 22.1551 87.384 22.7551 87.948C23.3671 88.512 24.1111 88.794 24.9871 88.794C25.7791 88.794 26.4391 88.596 26.9671 88.2C27.5071 87.792 27.8371 87.252 27.9571 86.58H29.7031C29.5831 87.264 29.3131 87.876 28.8931 88.416C28.4851 88.956 27.9511 89.376 27.2911 89.676C26.6311 89.976 25.8871 90.126 25.0591 90.126C24.1111 90.126 23.2711 89.922 22.5391 89.514C21.8071 89.106 21.2311 88.524 20.8111 87.768C20.4031 87 20.1991 86.1 20.1991 85.068C20.1991 84.036 20.4031 83.136 20.8111 82.368C21.2311 81.6 21.8071 81.012 22.5391 80.604C23.2711 80.196 24.1111 79.992 25.0591 79.992C26.0191 79.992 26.8531 80.196 27.5611 80.604C28.2811 81.012 28.8271 81.558 29.1991 82.242C29.5831 82.926 29.7751 83.682 29.7751 84.51ZM28.1191 84.618C28.1551 83.886 28.0351 83.274 27.7591 82.782C27.4831 82.29 27.1051 81.924 26.6251 81.684C26.1451 81.444 25.6231 81.324 25.0591 81.324C24.1591 81.324 23.4031 81.606 22.7911 82.17C22.1791 82.722 21.8491 83.538 21.8011 84.618H28.1191ZM33.5555 82.116C33.8795 81.432 34.3535 80.904 34.9775 80.532C35.6015 80.148 36.3455 79.956 37.2095 79.956V81.738H36.7055C35.7815 81.738 35.0255 81.978 34.4375 82.458C33.8495 82.926 33.5555 83.706 33.5555 84.798V90H31.9175V80.118H33.5555V82.116ZM39.5097 80.118L42.7137 87.894L45.6837 80.118H47.5017L41.6337 94.68H39.7797L41.8317 89.838L37.6737 80.118H39.5097ZM54.4575 79.992C55.3335 79.992 56.1135 80.196 56.7975 80.604C57.4815 81.012 58.0155 81.6 58.3995 82.368C58.7955 83.136 58.9935 84.036 58.9935 85.068C58.9935 86.1 58.7955 87 58.3995 87.768C58.0155 88.524 57.4815 89.106 56.7975 89.514C56.1135 89.922 55.3335 90.126 54.4575 90.126C53.4975 90.126 52.6815 89.886 52.0095 89.406C51.3495 88.914 50.8935 88.272 50.6415 87.48V90H49.0035V76.68H50.6415V82.638C50.8935 81.846 51.3495 81.21 52.0095 80.73C52.6815 80.238 53.4975 79.992 54.4575 79.992ZM53.9895 81.45C53.3535 81.45 52.7775 81.6 52.2615 81.9C51.7455 82.188 51.3435 82.608 51.0555 83.16C50.7675 83.712 50.6235 84.348 50.6235 85.068C50.6235 85.788 50.7675 86.424 51.0555 86.976C51.3435 87.516 51.7455 87.936 52.2615 88.236C52.7775 88.536 53.3535 88.686 53.9895 88.686C55.0095 88.686 55.8195 88.368 56.4195 87.732C57.0315 87.084 57.3375 86.196 57.3375 85.068C57.3375 83.94 57.0315 83.058 56.4195 82.422C55.8195 81.774 55.0095 81.45 53.9895 81.45ZM65.6144 79.992C66.5624 79.992 67.4084 80.196 68.1524 80.604C68.9084 81.012 69.4964 81.6 69.9164 82.368C70.3484 83.136 70.5644 84.036 70.5644 85.068C70.5644 86.1 70.3484 87 69.9164 87.768C69.4964 88.524 68.9084 89.106 68.1524 89.514C67.4084 89.922 66.5624 90.126 65.6144 90.126C64.6664 90.126 63.8144 89.922 63.0584 89.514C62.3144 89.106 61.7264 88.524 61.2944 87.768C60.8624 87 60.6464 86.1 60.6464 85.068C60.6464 84.036 60.8624 83.136 61.2944 82.368C61.7264 81.6 62.3144 81.012 63.0584 80.604C63.8144 80.196 64.6664 79.992 65.6144 79.992ZM65.6144 81.432C65.0264 81.432 64.4804 81.564 63.9764 81.828C63.4844 82.092 63.0824 82.5 62.7704 83.052C62.4704 83.592 62.3204 84.264 62.3204 85.068C62.3204 85.86 62.4704 86.532 62.7704 87.084C63.0824 87.624 63.4844 88.026 63.9764 88.29C64.4804 88.554 65.0264 88.686 65.6144 88.686C66.2024 88.686 66.7424 88.554 67.2344 88.29C67.7384 88.026 68.1404 87.624 68.4404 87.084C68.7524 86.532 68.9084 85.86 68.9084 85.068C68.9084 84.264 68.7524 83.592 68.4404 83.052C68.1404 82.5 67.7384 82.092 67.2344 81.828C66.7424 81.564 66.2024 81.432 65.6144 81.432ZM76.7488 79.992C77.7088 79.992 78.5188 80.232 79.1788 80.712C79.8508 81.192 80.3188 81.834 80.5828 82.638V76.68H82.2208V90H80.5828V87.48C80.3188 88.284 79.8508 88.926 79.1788 89.406C78.5188 89.886 77.7088 90.126 76.7488 90.126C75.8728 90.126 75.0928 89.922 74.4088 89.514C73.7248 89.106 73.1848 88.524 72.7888 87.768C72.4048 87 72.2128 86.1 72.2128 85.068C72.2128 84.036 72.4048 83.136 72.7888 82.368C73.1848 81.6 73.7248 81.012 74.4088 80.604C75.0928 80.196 75.8728 79.992 76.7488 79.992ZM77.2168 81.45C76.2088 81.45 75.3988 81.774 74.7868 82.422C74.1868 83.058 73.8868 83.94 73.8868 85.068C73.8868 86.196 74.1868 87.084 74.7868 87.732C75.3988 88.368 76.2088 88.686 77.2168 88.686C77.8648 88.686 78.4408 88.536 78.9448 88.236C79.4608 87.936 79.8628 87.516 80.1508 86.976C80.4388 86.424 80.5828 85.788 80.5828 85.068C80.5828 84.348 80.4388 83.712 80.1508 83.16C79.8628 82.608 79.4608 82.188 78.9448 81.9C78.4408 81.6 77.8648 81.45 77.2168 81.45ZM85.5117 80.118L88.7157 87.894L91.6857 80.118H93.5037L87.6357 94.68H85.7817L87.8337 89.838L83.6757 80.118H85.5117ZM105.069 77.184C106.617 77.184 107.895 77.568 108.903 78.336C109.911 79.092 110.607 80.13 110.991 81.45H109.263C108.939 80.61 108.417 79.944 107.697 79.452C106.977 78.948 106.095 78.696 105.051 78.696C104.223 78.696 103.479 78.9 102.819 79.308C102.171 79.704 101.655 80.28 101.271 81.036C100.899 81.78 100.713 82.656 100.713 83.664C100.713 84.66 100.899 85.53 101.271 86.274C101.655 87.018 102.171 87.594 102.819 88.002C103.479 88.398 104.223 88.596 105.051 88.596C106.095 88.596 106.977 88.35 107.697 87.858C108.417 87.354 108.939 86.682 109.263 85.842H110.991C110.607 87.162 109.911 88.206 108.903 88.974C107.895 89.73 106.617 90.108 105.069 90.108C103.881 90.108 102.831 89.838 101.919 89.298C101.007 88.746 100.293 87.984 99.7767 87.012C99.2727 86.028 99.0207 84.912 99.0207 83.664C99.0207 82.404 99.2727 81.282 99.7767 80.298C100.293 79.314 101.007 78.552 101.919 78.012C102.831 77.46 103.881 77.184 105.069 77.184ZM117.231 79.992C118.191 79.992 119.001 80.232 119.661 80.712C120.333 81.192 120.801 81.834 121.065 82.638V80.118H122.703V90H121.065V87.48C120.801 88.284 120.333 88.926 119.661 89.406C119.001 89.886 118.191 90.126 117.231 90.126C116.355 90.126 115.575 89.922 114.891 89.514C114.207 89.106 113.667 88.524 113.271 87.768C112.887 87 112.695 86.1 112.695 85.068C112.695 84.036 112.887 83.136 113.271 82.368C113.667 81.6 114.207 81.012 114.891 80.604C115.575 80.196 116.355 79.992 117.231 79.992ZM117.699 81.45C116.691 81.45 115.881 81.774 115.269 82.422C114.669 83.058 114.369 83.94 114.369 85.068C114.369 86.196 114.669 87.084 115.269 87.732C115.881 88.368 116.691 88.686 117.699 88.686C118.347 88.686 118.923 88.536 119.427 88.236C119.943 87.936 120.345 87.516 120.633 86.976C120.921 86.424 121.065 85.788 121.065 85.068C121.065 84.348 120.921 83.712 120.633 83.16C120.345 82.608 119.943 82.188 119.427 81.9C118.923 81.6 118.347 81.45 117.699 81.45ZM130.512 79.956C131.664 79.956 132.594 80.328 133.302 81.072C134.01 81.804 134.364 82.866 134.364 84.258V90H132.726V84.402C132.726 83.418 132.474 82.662 131.97 82.134C131.466 81.606 130.782 81.342 129.918 81.342C129.018 81.342 128.298 81.636 127.758 82.224C127.218 82.8 126.948 83.646 126.948 84.762V90H125.31V80.118H126.948V82.458C127.2 81.654 127.644 81.036 128.28 80.604C128.928 80.172 129.672 79.956 130.512 79.956ZM149.1 77.31V78.642H145.518V90H143.88V78.642H140.298V77.31H149.1ZM152.366 82.116C152.69 81.432 153.164 80.904 153.788 80.532C154.412 80.148 155.156 79.956 156.02 79.956V81.738H155.516C154.592 81.738 153.836 81.978 153.248 82.458C152.66 82.926 152.366 83.706 152.366 84.798V90H150.728V80.118H152.366V82.116ZM161.686 79.992C162.646 79.992 163.456 80.232 164.116 80.712C164.788 81.192 165.256 81.834 165.52 82.638V80.118H167.158V90H165.52V87.48C165.256 88.284 164.788 88.926 164.116 89.406C163.456 89.886 162.646 90.126 161.686 90.126C160.81 90.126 160.03 89.922 159.346 89.514C158.662 89.106 158.122 88.524 157.726 87.768C157.342 87 157.15 86.1 157.15 85.068C157.15 84.036 157.342 83.136 157.726 82.368C158.122 81.6 158.662 81.012 159.346 80.604C160.03 80.196 160.81 79.992 161.686 79.992ZM162.154 81.45C161.146 81.45 160.336 81.774 159.724 82.422C159.124 83.058 158.824 83.94 158.824 85.068C158.824 86.196 159.124 87.084 159.724 87.732C160.336 88.368 161.146 88.686 162.154 88.686C162.802 88.686 163.378 88.536 163.882 88.236C164.398 87.936 164.8 87.516 165.088 86.976C165.376 86.424 165.52 85.788 165.52 85.068C165.52 84.348 165.376 83.712 165.088 83.16C164.8 82.608 164.398 82.188 163.882 81.9C163.378 81.6 162.802 81.45 162.154 81.45ZM169.477 77.22C169.477 76.92 169.579 76.68 169.783 76.5C169.987 76.308 170.257 76.212 170.593 76.212C170.929 76.212 171.199 76.308 171.403 76.5C171.607 76.68 171.709 76.92 171.709 77.22C171.709 77.52 171.607 77.766 171.403 77.958C171.199 78.138 170.929 78.228 170.593 78.228C170.257 78.228 169.987 78.138 169.783 77.958C169.579 77.766 169.477 77.52 169.477 77.22ZM171.403 80.118V90H169.765V80.118H171.403ZM179.239 79.956C180.391 79.956 181.321 80.328 182.029 81.072C182.737 81.804 183.091 82.866 183.091 84.258V90H181.453V84.402C181.453 83.418 181.201 82.662 180.697 82.134C180.193 81.606 179.509 81.342 178.645 81.342C177.745 81.342 177.025 81.636 176.485 82.224C175.945 82.8 175.675 83.646 175.675 84.762V90H174.037V80.118H175.675V82.458C175.927 81.654 176.371 81.036 177.007 80.604C177.655 80.172 178.399 79.956 179.239 79.956Z" fill="#7B6F72"/>
<path d="M29.684 29.728V34.66H19.388V39.988H27.092V44.776H19.388V55H13.232V29.728H29.684ZM36.0155 32.824C34.9355 32.824 34.0475 32.512 33.3515 31.888C32.6795 31.24 32.3435 30.448 32.3435 29.512C32.3435 28.552 32.6795 27.76 33.3515 27.136C34.0475 26.488 34.9355 26.164 36.0155 26.164C37.0715 26.164 37.9355 26.488 38.6075 27.136C39.3035 27.76 39.6515 28.552 39.6515 29.512C39.6515 30.448 39.3035 31.24 38.6075 31.888C37.9355 32.512 37.0715 32.824 36.0155 32.824ZM39.0755 34.912V55H32.9195V34.912H39.0755ZM54.7327 49.78V55H51.6007C49.3687 55 47.6287 54.46 46.3807 53.38C45.1327 52.276 44.5087 50.488 44.5087 48.016V40.024H42.0607V34.912H44.5087V30.016H50.6647V34.912H54.6967V40.024H50.6647V48.088C50.6647 48.688 50.8087 49.12 51.0967 49.384C51.3847 49.648 51.8647 49.78 52.5367 49.78H54.7327ZM70.4017 34.696C72.7537 34.696 74.6257 35.464 76.0177 37C77.4337 38.512 78.1417 40.6 78.1417 43.264V55H72.0217V44.092C72.0217 42.748 71.6737 41.704 70.9777 40.96C70.2817 40.216 69.3457 39.844 68.1697 39.844C66.9937 39.844 66.0577 40.216 65.3617 40.96C64.6657 41.704 64.3177 42.748 64.3177 44.092V55H58.1617V34.912H64.3177V37.576C64.9417 36.688 65.7817 35.992 66.8377 35.488C67.8937 34.96 69.0817 34.696 70.4017 34.696ZM101.355 44.632C101.355 45.208 101.32 45.808 101.248 46.432H87.3155C87.4115 47.68 87.8075 48.64 88.5035 49.312C89.2235 49.96 90.0995 50.284 91.1315 50.284C92.6675 50.284 93.7355 49.636 94.3355 48.34H100.888C100.552 49.66 99.9395 50.848 99.0515 51.904C98.1875 52.96 97.0955 53.788 95.7755 54.388C94.4555 54.988 92.9795 55.288 91.3475 55.288C89.3795 55.288 87.6275 54.868 86.0915 54.028C84.5555 53.188 83.3555 51.988 82.4915 50.428C81.6275 48.868 81.1955 47.044 81.1955 44.956C81.1955 42.868 81.6155 41.044 82.4555 39.484C83.3195 37.924 84.5195 36.724 86.0555 35.884C87.5915 35.044 89.3555 34.624 91.3475 34.624C93.2915 34.624 95.0195 35.032 96.5315 35.848C98.0435 36.664 99.2195 37.828 100.06 39.34C100.924 40.852 101.355 42.616 101.355 44.632ZM95.0555 43.012C95.0555 41.956 94.6955 41.116 93.9755 40.492C93.2555 39.868 92.3555 39.556 91.2755 39.556C90.2435 39.556 89.3675 39.856 88.6475 40.456C87.9515 41.056 87.5195 41.908 87.3515 43.012H95.0555ZM112.775 55.288C111.023 55.288 109.463 54.988 108.095 54.388C106.727 53.788 105.647 52.972 104.855 51.94C104.063 50.884 103.619 49.708 103.523 48.412H109.607C109.679 49.108 110.003 49.672 110.579 50.104C111.155 50.536 111.863 50.752 112.703 50.752C113.471 50.752 114.059 50.608 114.467 50.32C114.899 50.008 115.115 49.612 115.115 49.132C115.115 48.556 114.815 48.136 114.215 47.872C113.615 47.584 112.643 47.272 111.299 46.936C109.859 46.6 108.659 46.252 107.699 45.892C106.739 45.508 105.911 44.92 105.215 44.128C104.519 43.312 104.171 42.22 104.171 40.852C104.171 39.7 104.483 38.656 105.107 37.72C105.755 36.76 106.691 36.004 107.915 35.452C109.163 34.9 110.639 34.624 112.343 34.624C114.863 34.624 116.843 35.248 118.283 36.496C119.747 37.744 120.587 39.4 120.803 41.464H115.115C115.019 40.768 114.707 40.216 114.179 39.808C113.675 39.4 113.003 39.196 112.163 39.196C111.443 39.196 110.891 39.34 110.507 39.628C110.123 39.892 109.931 40.264 109.931 40.744C109.931 41.32 110.231 41.752 110.831 42.04C111.455 42.328 112.415 42.616 113.711 42.904C115.199 43.288 116.411 43.672 117.347 44.056C118.283 44.416 119.099 45.016 119.795 45.856C120.515 46.672 120.887 47.776 120.911 49.168C120.911 50.344 120.575 51.4 119.903 52.336C119.255 53.248 118.307 53.968 117.059 54.496C115.835 55.024 114.407 55.288 112.775 55.288ZM132.849 55.288C131.097 55.288 129.537 54.988 128.169 54.388C126.801 53.788 125.721 52.972 124.929 51.94C124.137 50.884 123.693 49.708 123.597 48.412H129.681C129.753 49.108 130.077 49.672 130.653 50.104C131.229 50.536 131.937 50.752 132.777 50.752C133.545 50.752 134.133 50.608 134.541 50.32C134.973 50.008 135.189 49.612 135.189 49.132C135.189 48.556 134.889 48.136 134.289 47.872C133.689 47.584 132.717 47.272 131.373 46.936C129.933 46.6 128.733 46.252 127.773 45.892C126.813 45.508 125.985 44.92 125.289 44.128C124.593 43.312 124.245 42.22 124.245 40.852C124.245 39.7 124.557 38.656 125.181 37.72C125.829 36.76 126.765 36.004 127.989 35.452C129.237 34.9 130.713 34.624 132.417 34.624C134.937 34.624 136.917 35.248 138.357 36.496C139.821 37.744 140.661 39.4 140.877 41.464H135.189C135.093 40.768 134.781 40.216 134.253 39.808C133.749 39.4 133.077 39.196 132.237 39.196C131.517 39.196 130.965 39.34 130.581 39.628C130.197 39.892 130.005 40.264 130.005 40.744C130.005 41.32 130.305 41.752 130.905 42.04C131.529 42.328 132.489 42.616 133.785 42.904C135.273 43.288 136.485 43.672 137.421 44.056C138.357 44.416 139.173 45.016 139.869 45.856C140.589 46.672 140.961 47.776 140.985 49.168C140.985 50.344 140.649 51.4 139.977 52.336C139.329 53.248 138.381 53.968 137.133 54.496C135.909 55.024 134.481 55.288 132.849 55.288Z" fill="#1D1617"/>
<path d="M167.12 55L159.97 44.25L153.67 55H143.97L155.22 37.15L143.72 19.9H153.67L160.72 30.5L166.92 19.9H176.62L165.47 37.6L177.07 55H167.12Z" fill="white"/>
</svg>
