<svg width="186" height="66" viewBox="0 0 186 66" fill="none" xmlns="http://www.w3.org/2000/svg">
<path d="M3.02399 49.786V53.98H7.59599V55.33H3.02399V59.65H8.13599V61H1.38599V48.436H8.13599V49.786H3.02399ZM14.2865 59.488L17.3465 51.136H19.0925L15.2225 61H13.3145L9.44451 51.136H11.2085L14.2865 59.488ZM29.7044 55.69C29.7044 56.002 29.6864 56.332 29.6504 56.68H21.7664C21.8264 57.652 22.1564 58.414 22.7564 58.966C23.3684 59.506 24.1064 59.776 24.9704 59.776C25.6784 59.776 26.2664 59.614 26.7344 59.29C27.2144 58.954 27.5504 58.51 27.7424 57.958H29.5064C29.2424 58.906 28.7144 59.68 27.9224 60.28C27.1304 60.868 26.1464 61.162 24.9704 61.162C24.0344 61.162 23.1944 60.952 22.4504 60.532C21.7184 60.112 21.1424 59.518 20.7224 58.75C20.3024 57.97 20.0924 57.07 20.0924 56.05C20.0924 55.03 20.2964 54.136 20.7044 53.368C21.1124 52.6 21.6824 52.012 22.4144 51.604C23.1584 51.184 24.0104 50.974 24.9704 50.974C25.9064 50.974 26.7344 51.178 27.4544 51.586C28.1744 51.994 28.7264 52.558 29.1104 53.278C29.5064 53.986 29.7044 54.79 29.7044 55.69ZM28.0124 55.348C28.0124 54.724 27.8744 54.19 27.5984 53.746C27.3224 53.29 26.9444 52.948 26.4644 52.72C25.9964 52.48 25.4744 52.36 24.8984 52.36C24.0704 52.36 23.3624 52.624 22.7744 53.152C22.1984 53.68 21.8684 54.412 21.7844 55.348H28.0124ZM33.5045 52.738C33.7925 52.174 34.2005 51.736 34.7285 51.424C35.2685 51.112 35.9225 50.956 36.6905 50.956V52.648H36.2585C34.4225 52.648 33.5045 53.644 33.5045 55.636V61H31.8665V51.136H33.5045V52.738ZM47.0773 51.136L41.1373 65.644H39.4453L41.3893 60.892L37.4113 51.136H39.2293L42.3253 59.128L45.3853 51.136H47.0773ZM50.3619 52.972C50.6979 52.384 51.1899 51.904 51.8379 51.532C52.4859 51.16 53.2239 50.974 54.0519 50.974C54.9399 50.974 55.7379 51.184 56.4459 51.604C57.1539 52.024 57.7119 52.618 58.1199 53.386C58.5279 54.142 58.7319 55.024 58.7319 56.032C58.7319 57.028 58.5279 57.916 58.1199 58.696C57.7119 59.476 57.1479 60.082 56.4279 60.514C55.7199 60.946 54.9279 61.162 54.0519 61.162C53.1999 61.162 52.4499 60.976 51.8019 60.604C51.1659 60.232 50.6859 59.758 50.3619 59.182V61H48.7239V47.68H50.3619V52.972ZM57.0579 56.032C57.0579 55.288 56.9079 54.64 56.6079 54.088C56.3079 53.536 55.8999 53.116 55.3839 52.828C54.8799 52.54 54.3219 52.396 53.7099 52.396C53.1099 52.396 52.5519 52.546 52.0359 52.846C51.5319 53.134 51.1239 53.56 50.8119 54.124C50.5119 54.676 50.3619 55.318 50.3619 56.05C50.3619 56.794 50.5119 57.448 50.8119 58.012C51.1239 58.564 51.5319 58.99 52.0359 59.29C52.5519 59.578 53.1099 59.722 53.7099 59.722C54.3219 59.722 54.8799 59.578 55.3839 59.29C55.8999 58.99 56.3079 58.564 56.6079 58.012C56.9079 57.448 57.0579 56.788 57.0579 56.032ZM65.19 61.162C64.266 61.162 63.426 60.952 62.67 60.532C61.926 60.112 61.338 59.518 60.906 58.75C60.486 57.97 60.276 57.07 60.276 56.05C60.276 55.042 60.492 54.154 60.924 53.386C61.368 52.606 61.968 52.012 62.724 51.604C63.48 51.184 64.326 50.974 65.262 50.974C66.198 50.974 67.044 51.184 67.8 51.604C68.556 52.012 69.15 52.6 69.582 53.368C70.026 54.136 70.248 55.03 70.248 56.05C70.248 57.07 70.02 57.97 69.564 58.75C69.12 59.518 68.514 60.112 67.746 60.532C66.978 60.952 66.126 61.162 65.19 61.162ZM65.19 59.722C65.778 59.722 66.33 59.584 66.846 59.308C67.362 59.032 67.776 58.618 68.088 58.066C68.412 57.514 68.574 56.842 68.574 56.05C68.574 55.258 68.418 54.586 68.106 54.034C67.794 53.482 67.386 53.074 66.882 52.81C66.378 52.534 65.832 52.396 65.244 52.396C64.644 52.396 64.092 52.534 63.588 52.81C63.096 53.074 62.7 53.482 62.4 54.034C62.1 54.586 61.95 55.258 61.95 56.05C61.95 56.854 62.094 57.532 62.382 58.084C62.682 58.636 63.078 59.05 63.57 59.326C64.062 59.59 64.602 59.722 65.19 59.722ZM71.7896 56.032C71.7896 55.024 71.9936 54.142 72.4016 53.386C72.8096 52.618 73.3676 52.024 74.0756 51.604C74.7956 51.184 75.5996 50.974 76.4876 50.974C77.2556 50.974 77.9696 51.154 78.6296 51.514C79.2896 51.862 79.7936 52.324 80.1416 52.9V47.68H81.7976V61H80.1416V59.146C79.8176 59.734 79.3376 60.22 78.7016 60.604C78.0656 60.976 77.3216 61.162 76.4696 61.162C75.5936 61.162 74.7956 60.946 74.0756 60.514C73.3676 60.082 72.8096 59.476 72.4016 58.696C71.9936 57.916 71.7896 57.028 71.7896 56.032ZM80.1416 56.05C80.1416 55.306 79.9916 54.658 79.6916 54.106C79.3916 53.554 78.9836 53.134 78.4676 52.846C77.9636 52.546 77.4056 52.396 76.7936 52.396C76.1816 52.396 75.6236 52.54 75.1196 52.828C74.6156 53.116 74.2136 53.536 73.9136 54.088C73.6136 54.64 73.4636 55.288 73.4636 56.032C73.4636 56.788 73.6136 57.448 73.9136 58.012C74.2136 58.564 74.6156 58.99 75.1196 59.29C75.6236 59.578 76.1816 59.722 76.7936 59.722C77.4056 59.722 77.9636 59.578 78.4676 59.29C78.9836 58.99 79.3916 58.564 79.6916 58.012C79.9916 57.448 80.1416 56.794 80.1416 56.05ZM93.0617 51.136L87.1217 65.644H85.4297L87.3737 60.892L83.3957 51.136H85.2137L88.3097 59.128L91.3697 51.136H93.0617ZM98.8951 54.718C98.8951 53.494 99.1711 52.396 99.7231 51.424C100.275 50.44 101.025 49.672 101.973 49.12C102.933 48.568 103.995 48.292 105.159 48.292C106.527 48.292 107.721 48.622 108.741 49.282C109.761 49.942 110.505 50.878 110.973 52.09H109.011C108.663 51.334 108.159 50.752 107.499 50.344C106.851 49.936 106.071 49.732 105.159 49.732C104.283 49.732 103.497 49.936 102.801 50.344C102.105 50.752 101.559 51.334 101.163 52.09C100.767 52.834 100.569 53.71 100.569 54.718C100.569 55.714 100.767 56.59 101.163 57.346C101.559 58.09 102.105 58.666 102.801 59.074C103.497 59.482 104.283 59.686 105.159 59.686C106.071 59.686 106.851 59.488 107.499 59.092C108.159 58.684 108.663 58.102 109.011 57.346H110.973C110.505 58.546 109.761 59.476 108.741 60.136C107.721 60.784 106.527 61.108 105.159 61.108C103.995 61.108 102.933 60.838 101.973 60.298C101.025 59.746 100.275 58.984 99.7231 58.012C99.1711 57.04 98.8951 55.942 98.8951 54.718ZM112.799 56.032C112.799 55.024 113.003 54.142 113.411 53.386C113.819 52.618 114.377 52.024 115.085 51.604C115.805 51.184 116.603 50.974 117.479 50.974C118.343 50.974 119.093 51.16 119.729 51.532C120.365 51.904 120.839 52.372 121.151 52.936V51.136H122.807V61H121.151V59.164C120.827 59.74 120.341 60.22 119.693 60.604C119.057 60.976 118.313 61.162 117.461 61.162C116.585 61.162 115.793 60.946 115.085 60.514C114.377 60.082 113.819 59.476 113.411 58.696C113.003 57.916 112.799 57.028 112.799 56.032ZM121.151 56.05C121.151 55.306 121.001 54.658 120.701 54.106C120.401 53.554 119.993 53.134 119.477 52.846C118.973 52.546 118.415 52.396 117.803 52.396C117.191 52.396 116.633 52.54 116.129 52.828C115.625 53.116 115.223 53.536 114.923 54.088C114.623 54.64 114.473 55.288 114.473 56.032C114.473 56.788 114.623 57.448 114.923 58.012C115.223 58.564 115.625 58.99 116.129 59.29C116.633 59.578 117.191 59.722 117.803 59.722C118.415 59.722 118.973 59.578 119.477 59.29C119.993 58.99 120.401 58.564 120.701 58.012C121.001 57.448 121.151 56.794 121.151 56.05ZM130.381 50.956C131.581 50.956 132.553 51.322 133.297 52.054C134.041 52.774 134.413 53.818 134.413 55.186V61H132.793V55.42C132.793 54.436 132.547 53.686 132.055 53.17C131.563 52.642 130.891 52.378 130.039 52.378C129.175 52.378 128.485 52.648 127.969 53.188C127.465 53.728 127.213 54.514 127.213 55.546V61H125.575V51.136H127.213V52.54C127.537 52.036 127.975 51.646 128.527 51.37C129.091 51.094 129.709 50.956 130.381 50.956ZM149.61 48.454V49.786H146.19V61H144.552V49.786H141.114V48.454H149.61ZM153.264 52.738C153.552 52.174 153.96 51.736 154.488 51.424C155.028 51.112 155.682 50.956 156.45 50.956V52.648H156.018C154.182 52.648 153.264 53.644 153.264 55.636V61H151.626V51.136H153.264V52.738ZM157.729 56.032C157.729 55.024 157.933 54.142 158.341 53.386C158.749 52.618 159.307 52.024 160.015 51.604C160.735 51.184 161.533 50.974 162.409 50.974C163.273 50.974 164.023 51.16 164.659 51.532C165.295 51.904 165.769 52.372 166.081 52.936V51.136H167.737V61H166.081V59.164C165.757 59.74 165.271 60.22 164.623 60.604C163.987 60.976 163.243 61.162 162.391 61.162C161.515 61.162 160.723 60.946 160.015 60.514C159.307 60.082 158.749 59.476 158.341 58.696C157.933 57.916 157.729 57.028 157.729 56.032ZM166.081 56.05C166.081 55.306 165.931 54.658 165.631 54.106C165.331 53.554 164.923 53.134 164.407 52.846C163.903 52.546 163.345 52.396 162.733 52.396C162.121 52.396 161.563 52.54 161.059 52.828C160.555 53.116 160.153 53.536 159.853 54.088C159.553 54.64 159.403 55.288 159.403 56.032C159.403 56.788 159.553 57.448 159.853 58.012C160.153 58.564 160.555 58.99 161.059 59.29C161.563 59.578 162.121 59.722 162.733 59.722C163.345 59.722 163.903 59.578 164.407 59.29C164.923 58.99 165.331 58.564 165.631 58.012C165.931 57.448 166.081 56.794 166.081 56.05ZM171.351 49.534C171.039 49.534 170.775 49.426 170.559 49.21C170.343 48.994 170.235 48.73 170.235 48.418C170.235 48.106 170.343 47.842 170.559 47.626C170.775 47.41 171.039 47.302 171.351 47.302C171.651 47.302 171.903 47.41 172.107 47.626C172.323 47.842 172.431 48.106 172.431 48.418C172.431 48.73 172.323 48.994 172.107 49.21C171.903 49.426 171.651 49.534 171.351 49.534ZM172.143 51.136V61H170.505V51.136H172.143ZM179.741 50.956C180.941 50.956 181.913 51.322 182.657 52.054C183.401 52.774 183.773 53.818 183.773 55.186V61H182.153V55.42C182.153 54.436 181.907 53.686 181.415 53.17C180.923 52.642 180.251 52.378 179.399 52.378C178.535 52.378 177.845 52.648 177.329 53.188C176.825 53.728 176.573 54.514 176.573 55.546V61H174.935V51.136H176.573V52.54C176.897 52.036 177.335 51.646 177.887 51.37C178.451 51.094 179.069 50.956 179.741 50.956Z" fill="#7B6F72"/>
<path d="M18.684 10.7279V15.6599H8.38799V20.9879H16.092V25.7759H8.38799V35.9999H2.23199V10.7279H18.684ZM25.0155 13.8239C23.9355 13.8239 23.0475 13.5119 22.3515 12.8879C21.6795 12.2399 21.3435 11.4479 21.3435 10.5119C21.3435 9.55194 21.6795 8.75994 22.3515 8.13594C23.0475 7.48794 23.9355 7.16394 25.0155 7.16394C26.0715 7.16394 26.9355 7.48794 27.6075 8.13594C28.3035 8.75994 28.6515 9.55194 28.6515 10.5119C28.6515 11.4479 28.3035 12.2399 27.6075 12.8879C26.9355 13.5119 26.0715 13.8239 25.0155 13.8239ZM28.0755 15.9119V35.9999H21.9195V15.9119H28.0755ZM43.7327 30.7799V35.9999H40.6007C38.3687 35.9999 36.6287 35.4599 35.3807 34.3799C34.1327 33.2759 33.5087 31.4879 33.5087 29.0159V21.0239H31.0607V15.9119H33.5087V11.0159H39.6647V15.9119H43.6967V21.0239H39.6647V29.0879C39.6647 29.6879 39.8087 30.1199 40.0967 30.3839C40.3847 30.6479 40.8647 30.7799 41.5367 30.7799H43.7327ZM59.4017 15.6959C61.7537 15.6959 63.6257 16.4639 65.0177 17.9999C66.4337 19.5119 67.1417 21.5999 67.1417 24.2639V35.9999H61.0217V25.0919C61.0217 23.7479 60.6737 22.7039 59.9777 21.9599C59.2817 21.2159 58.3457 20.8439 57.1697 20.8439C55.9937 20.8439 55.0577 21.2159 54.3617 21.9599C53.6657 22.7039 53.3177 23.7479 53.3177 25.0919V35.9999H47.1617V15.9119H53.3177V18.5759C53.9417 17.6879 54.7817 16.9919 55.8377 16.4879C56.8937 15.9599 58.0817 15.6959 59.4017 15.6959ZM90.3555 25.6319C90.3555 26.2079 90.3195 26.8079 90.2475 27.4319H76.3155C76.4115 28.6799 76.8075 29.6399 77.5035 30.3119C78.2235 30.9599 79.0995 31.2839 80.1315 31.2839C81.6675 31.2839 82.7355 30.6359 83.3355 29.3399H89.8875C89.5515 30.6599 88.9395 31.8479 88.0515 32.9039C87.1875 33.9599 86.0955 34.7879 84.7755 35.3879C83.4555 35.9879 81.9795 36.2879 80.3475 36.2879C78.3795 36.2879 76.6275 35.8679 75.0915 35.0279C73.5555 34.1879 72.3555 32.9879 71.4915 31.4279C70.6275 29.8679 70.1955 28.0439 70.1955 25.9559C70.1955 23.8679 70.6155 22.0439 71.4555 20.4839C72.3195 18.9239 73.5195 17.7239 75.0555 16.8839C76.5915 16.0439 78.3555 15.6239 80.3475 15.6239C82.2915 15.6239 84.0195 16.0319 85.5315 16.8479C87.0435 17.6639 88.2195 18.8279 89.0595 20.3399C89.9235 21.8519 90.3555 23.6159 90.3555 25.6319ZM84.0555 24.0119C84.0555 22.9559 83.6955 22.1159 82.9755 21.4919C82.2555 20.8679 81.3555 20.5559 80.2755 20.5559C79.2435 20.5559 78.3675 20.8559 77.6475 21.4559C76.9515 22.0559 76.5195 22.9079 76.3515 24.0119H84.0555ZM101.775 36.2879C100.023 36.2879 98.4631 35.9879 97.0951 35.3879C95.7271 34.7879 94.6471 33.9719 93.8551 32.9399C93.0631 31.8839 92.6191 30.7079 92.5231 29.4119H98.6071C98.6791 30.1079 99.0031 30.6719 99.5791 31.1039C100.155 31.5359 100.863 31.7519 101.703 31.7519C102.471 31.7519 103.059 31.6079 103.467 31.3199C103.899 31.0079 104.115 30.6119 104.115 30.1319C104.115 29.5559 103.815 29.1359 103.215 28.8719C102.615 28.5839 101.643 28.2719 100.299 27.9359C98.8591 27.5999 97.6591 27.2519 96.6991 26.8919C95.7391 26.5079 94.9111 25.9199 94.2151 25.1279C93.5191 24.3119 93.1711 23.2199 93.1711 21.8519C93.1711 20.6999 93.4831 19.6559 94.1071 18.7199C94.7551 17.7599 95.6911 17.0039 96.9151 16.4519C98.1631 15.8999 99.6391 15.6239 101.343 15.6239C103.863 15.6239 105.843 16.2479 107.283 17.4959C108.747 18.7439 109.587 20.3999 109.803 22.4639H104.115C104.019 21.7679 103.707 21.2159 103.179 20.8079C102.675 20.3999 102.003 20.1959 101.163 20.1959C100.443 20.1959 99.8911 20.3399 99.5071 20.6279C99.1231 20.8919 98.9311 21.2639 98.9311 21.7439C98.9311 22.3199 99.2311 22.7519 99.8311 23.0399C100.455 23.3279 101.415 23.6159 102.711 23.9039C104.199 24.2879 105.411 24.6719 106.347 25.0559C107.283 25.4159 108.099 26.0159 108.795 26.8559C109.515 27.6719 109.887 28.7759 109.911 30.1679C109.911 31.3439 109.575 32.3999 108.903 33.3359C108.255 34.2479 107.307 34.9679 106.059 35.4959C104.835 36.0239 103.407 36.2879 101.775 36.2879ZM121.849 36.2879C120.097 36.2879 118.537 35.9879 117.169 35.3879C115.801 34.7879 114.721 33.9719 113.929 32.9399C113.137 31.8839 112.693 30.7079 112.597 29.4119H118.681C118.753 30.1079 119.077 30.6719 119.653 31.1039C120.229 31.5359 120.937 31.7519 121.777 31.7519C122.545 31.7519 123.133 31.6079 123.541 31.3199C123.973 31.0079 124.189 30.6119 124.189 30.1319C124.189 29.5559 123.889 29.1359 123.289 28.8719C122.689 28.5839 121.717 28.2719 120.373 27.9359C118.933 27.5999 117.733 27.2519 116.773 26.8919C115.813 26.5079 114.985 25.9199 114.289 25.1279C113.593 24.3119 113.245 23.2199 113.245 21.8519C113.245 20.6999 113.557 19.6559 114.181 18.7199C114.829 17.7599 115.765 17.0039 116.989 16.4519C118.237 15.8999 119.713 15.6239 121.417 15.6239C123.937 15.6239 125.917 16.2479 127.357 17.4959C128.821 18.7439 129.661 20.3999 129.877 22.4639H124.189C124.093 21.7679 123.781 21.2159 123.253 20.8079C122.749 20.3999 122.077 20.1959 121.237 20.1959C120.517 20.1959 119.965 20.3399 119.581 20.6279C119.197 20.8919 119.005 21.2639 119.005 21.7439C119.005 22.3199 119.305 22.7519 119.905 23.0399C120.529 23.3279 121.489 23.6159 122.785 23.9039C124.273 24.2879 125.485 24.6719 126.421 25.0559C127.357 25.4159 128.173 26.0159 128.869 26.8559C129.589 27.6719 129.961 28.7759 129.985 30.1679C129.985 31.3439 129.649 32.3999 128.977 33.3359C128.329 34.2479 127.381 34.9679 126.133 35.4959C124.909 36.0239 123.481 36.2879 121.849 36.2879Z" fill="#1D1617"/>
<path d="M163.748 36L156.598 25.25L150.298 36H140.598L151.848 18.15L140.348 0.900024H150.298L157.348 11.5L163.548 0.900024H173.248L162.098 18.6L173.698 36H163.748Z" fill="white"/>
</svg>
