<svg width="24" height="24" viewBox="0 0 24 24" fill="none" xmlns="http://www.w3.org/2000/svg">
<path fill-rule="evenodd" clip-rule="evenodd" d="M3.53846 12C3.53846 7.32682 7.32682 3.53846 12 3.53846C16.6731 3.53846 20.4615 7.32682 20.4615 12C20.4615 16.6731 16.6731 20.4615 12 20.4615C7.32682 20.4615 3.53846 16.6731 3.53846 12ZM12 2C6.47715 2 2 6.47715 2 12C2 17.5229 6.47715 22 12 22C17.5229 22 22 17.5229 22 12C22 6.47715 17.5229 2 12 2ZM9.94872 8.15385C10.3735 8.15385 10.7179 8.49825 10.7179 8.92308V15.0769C10.7179 15.5017 10.3735 15.8462 9.94872 15.8462C9.52389 15.8462 9.17949 15.5017 9.17949 15.0769V8.92308C9.17949 8.49825 9.52389 8.15385 9.94872 8.15385ZM14.0513 8.15385C14.4761 8.15385 14.8205 8.49825 14.8205 8.92308V15.0769C14.8205 15.5017 14.4761 15.8462 14.0513 15.8462C13.6265 15.8462 13.2821 15.5017 13.2821 15.0769V8.92308C13.2821 8.49825 13.6265 8.15385 14.0513 8.15385Z" fill="#FCFCFF"/>
</svg>
