<svg width="48" height="48" viewBox="0 0 48 48" fill="none" xmlns="http://www.w3.org/2000/svg">
<path d="M27.2168 7.10157C27.0849 7.10136 26.9525 7.11102 26.8203 7.12891C26.2917 7.20045 25.7703 7.41856 25.3398 7.80078C25.3398 7.80144 25.3398 7.80209 25.3398 7.80274L16.1172 16H9.5C7.0325 16 5 18.0325 5 20.5V27.5C5 29.9675 7.0325 32 9.5 32H16.1172L25.3398 40.1973C26.2006 40.9625 27.4215 41.0751 28.3457 40.6602C29.2699 40.2452 30 39.2574 30 38.1055V9.89453C30 8.74307 29.272 7.75498 28.3477 7.33985C28.001 7.18417 27.6124 7.10218 27.2168 7.10157ZM38.7559 11.9805C38.4956 11.9794 38.2396 12.046 38.0129 12.1739C37.7862 12.3017 37.5967 12.4862 37.4629 12.7095C37.3292 12.9327 37.2558 13.1868 37.2499 13.447C37.2441 13.7072 37.306 13.9644 37.4297 14.1934C40.889 20.8181 40.889 27.1819 37.4297 33.8066C37.3348 33.9816 37.2757 34.1738 37.2558 34.3718C37.236 34.5699 37.2557 34.7699 37.3139 34.9603C37.3721 35.1506 37.4676 35.3275 37.5948 35.4806C37.7221 35.6337 37.8785 35.7599 38.055 35.8519C38.2315 35.9439 38.4246 35.9999 38.623 36.0165C38.8213 36.0332 39.021 36.0102 39.2104 35.9489C39.3998 35.8876 39.5751 35.7893 39.7261 35.6595C39.8771 35.5298 40.0007 35.3714 40.0898 35.1934C43.9306 27.8381 43.9306 20.1619 40.0898 12.8066C39.9654 12.5592 39.7749 12.3511 39.5395 12.2052C39.304 12.0594 39.0328 11.9816 38.7559 11.9805ZM34.1719 16.9961C33.9244 17.0067 33.6833 17.0784 33.4703 17.2048C33.2572 17.3312 33.0788 17.5085 32.9509 17.7207C32.8231 17.9328 32.7497 18.1734 32.7375 18.4208C32.7253 18.6683 32.7745 18.9149 32.8809 19.1387C34.3974 22.4571 34.3953 25.5598 32.873 28.8789C32.7896 29.0581 32.7423 29.2521 32.734 29.4496C32.7258 29.6471 32.7566 29.8443 32.8248 30.0299C32.893 30.2154 32.9972 30.3857 33.1314 30.5309C33.2656 30.676 33.4272 30.7932 33.6069 30.8757C33.7866 30.9582 33.9808 31.0044 34.1783 31.0116C34.3759 31.0187 34.5729 30.9868 34.7581 30.9176C34.9433 30.8484 35.113 30.7432 35.2574 30.6082C35.4018 30.4732 35.5181 30.311 35.5996 30.1309C37.4373 26.124 37.4408 21.8982 35.6094 17.8906C35.4877 17.6141 35.2854 17.3808 35.0289 17.2212C34.7724 17.0616 34.4737 16.9831 34.1719 16.9961Z" fill="#767881"/>
</svg>
