<svg width="114" height="79" fill="none" xmlns="http://www.w3.org/2000/svg"><g clip-path="url(#a)"><path fill-rule="evenodd" clip-rule="evenodd" d="M114 58.487c0 11.12-25.506 20.134-56.997 20.134S0 69.606 0 58.487s25.506-20.133 57.003-20.133S114 47.368 114 58.487Z" fill="#E2CAB3"/><path fill-rule="evenodd" clip-rule="evenodd" d="M114 56.267C114 67.386 88.494 76.4 57.003 76.4S0 67.386 0 56.267c0-11.12 25.506-20.134 57.003-20.134S114 45.148 114 56.267Z" fill="#fff"/><path fill-rule="evenodd" clip-rule="evenodd" d="M114 55.948C114 66.72 88.494 75.45 57.003 75.45S0 66.72 0 55.948c0-10.77 25.506-19.495 57.003-19.495S114 45.183 114 55.948Z" fill="#E7D8C8"/><path fill-rule="evenodd" clip-rule="evenodd" d="M111.472 55.948c0 7.687-21.828 13.913-48.752 13.913-26.923 0-48.758-6.226-48.758-13.913S35.791 42.035 62.72 42.035c26.93 0 48.752 6.232 48.752 13.913Z" fill="#E2CAB3"/><path d="M107.362 56.447c-1.038-4.754-6.092-6.766-10.084-7.084-2.461-.192-4.923.319-7.379.452a21.42 21.42 0 0 1-4.087-.162c-1.494-.203-2.924-.73-4.43-.853-2.616-.208-5.208.679-7.646 1.606-2.865 1.096-5.73 2.093-8.666 2.94a85.021 85.021 0 0 1-17.795 3.286 39.22 39.22 0 0 1-7.38-.04c-1.72-.209-3.416-.58-5.136-.777-3.013-.33-6.353.058-7.569 3.519a5.807 5.807 0 0 0-2.622.614c-1.227.516-2.87 1.432-3.505 2.76-1.323 2.776 2.966 3.866 4.555 4.162 1.513.278 3.037.377 4.556.533 2.111.22 3.808 1.2 5.593 2.394 4.502 3.01 10.511 3.206 15.636 2.859a39.354 39.354 0 0 0 8.334-1.525c2.865-.835 5.813-.33 8.708.15a14.43 14.43 0 0 0 7.474-.44c2.42-.84 4.52-2.377 6.59-3.919 2.414-1.797 5.16-1.907 8.001-2.133 2.801-.17 5.58-.587 8.305-1.247a37.721 37.721 0 0 0 6.649-2.318c1.815-.934 2.325-2.673 1.898-4.777Z" fill="#EEBE30"/><path d="M91.181 52.313c0 7.49-16.27 14.453-35.863 14.453-19.592 0-35.993-7.479-35.993-14.969 0-7.49 16.401-12.173 35.993-12.173 19.593 0 35.863 5.2 35.863 12.69Z" fill="#E3AC8A"/><path d="M90.79 50.87c0 7.49-15.88 13.559-35.472 13.559s-35.477-6.07-35.477-13.56 15.885-13.565 35.477-13.565c19.593 0 35.472 6.076 35.472 13.566Z" fill="#DA840D"/><path d="M81.121 49.583c0 5.56-11.78 10.058-26.318 10.058-14.539 0-26.331-4.499-26.331-10.058 0-5.56 11.798-10.058 26.33-10.058 14.533 0 26.32 4.533 26.32 10.058Z" fill="#F0A508"/><path d="M37.09 53.293c0 .58-.67 1.084-1.5 1.084s-1.495-.487-1.495-1.084c0-.597.67-1.084 1.495-1.084.824 0 1.5.486 1.5 1.084Zm-2.995-4.562a.806.806 0 0 1-.16.443.854.854 0 0 1-1.28.08.81.81 0 0 1-.164-.885.822.822 0 0 1 .308-.36.85.85 0 0 1 .46-.136.872.872 0 0 1 .6.259.833.833 0 0 1 .236.599Zm10.392 5.878c.019.282-.05.563-.196.806a1.43 1.43 0 0 1-.625.56 1.47 1.47 0 0 1-1.601-.244 1.402 1.402 0 0 1-.422-.719 1.378 1.378 0 0 1 .064-.826c.106-.263.29-.489.529-.648.238-.16.52-.245.81-.245a1.423 1.423 0 0 1 1 .366 1.363 1.363 0 0 1 .44.95Zm-3.132-5.223c0 .36-.41.655-.907.655-.499 0-.914-.295-.914-.655 0-.36.41-.655.914-.655s.907.29.907.655Zm9.171 3.108a.887.887 0 0 1-.102.528.916.916 0 0 1-.39.379.944.944 0 0 1-1.043-.127.886.886 0 0 1-.25-.997.908.908 0 0 1 .34-.423.941.941 0 0 1 .525-.16.89.89 0 0 1 .627.216.85.85 0 0 1 .293.584Zm.35 4.828c0 .371-.44.673-.985.673-.546 0-.985-.302-.985-.673 0-.37.445-.672.985-.672s.985.301.985.672Zm-3.927-7.194a.68.68 0 0 1-.146.37.721.721 0 0 1-1.083.038.683.683 0 0 1-.115-.751.696.696 0 0 1 .27-.297.718.718 0 0 1 .392-.102c.19.014.367.098.494.237a.71.71 0 0 1 .188.505Zm10.214 1.409c0 .371-.427.673-.955.673s-.955-.302-.955-.673c0-.37.427-.666.955-.666s.955.295.955.666Zm0 3.471c0 .22-.427.4-.955.4s-.955-.18-.955-.4c0-.22.427-.4.955-.4s.955.18.955.4Zm6.46-2.255c0 .296-.386.54-.866.54-.481 0-.86-.244-.86-.54 0-.295.385-.544.86-.544.474 0 .866.243.866.544Zm-1.033 3.874c.04.181.023.37-.05.54a.899.899 0 0 1-.361.41.93.93 0 0 1-1.055-.063.891.891 0 0 1-.305-.452.874.874 0 0 1 .018-.542.896.896 0 0 1 .335-.431.928.928 0 0 1 .528-.163.832.832 0 0 1 .591.174c.167.13.274.32.3.527Zm7.19-1.125a.928.928 0 0 1-.25.458.977.977 0 0 1-.992.234.956.956 0 0 1-.435-.297.923.923 0 0 1-.12-.99.94.94 0 0 1 .355-.387.971.971 0 0 1 .51-.143c.276.03.527.166.701.376.175.21.257.48.23.749Zm-.517-5.067c0 .232-.302.418-.676.418-.373 0-.67-.186-.67-.418 0-.231.302-.411.67-.411.368 0 .676.203.676.411Zm5.695 1.235c0 .898-.41 1.623-.907 1.623-.499 0-.914-.725-.914-1.623 0-.899.41-1.63.913-1.63.505 0 .908.731.908 1.63Zm2.284-1.653a.43.43 0 0 1-.13.308.45.45 0 0 1-.63 0 .43.43 0 0 1 0-.615.45.45 0 0 1 .628.002c.083.08.13.19.132.305Zm-14.96-1.384c0 .411-.557.753-1.24.753-.682 0-1.24-.342-1.24-.754 0-.411.552-.759 1.24-.759s1.24.342 1.24.76Zm-23.258-3.909c0 .256-.433.464-.967.464s-.967-.208-.967-.464c0-.255.433-.463.967-.463s.967.208.967.463Zm5.694-.932c0 .26-.493.47-1.098.47-.604 0-1.103-.21-1.103-.47 0-.261.492-.464 1.103-.464s1.098.209 1.098.464Zm7.166 1.141c0 .365-.664.667-1.489.667-.824 0-1.489-.302-1.489-.667 0-.365.67-.672 1.49-.672.818 0 1.488.301 1.488.672Zm5.28-1.141a.462.462 0 0 1-.079.263.478.478 0 0 1-.494.203.484.484 0 0 1-.247-.128.467.467 0 0 1-.103-.515.488.488 0 0 1 .449-.287.48.48 0 0 1 .335.136.458.458 0 0 1 .139.328Zm-.956 3.668c0 .227-.45.413-1.014.413-.564 0-1.009-.186-1.009-.412 0-.226.451-.412 1.009-.412.557 0 1.014.186 1.014.412Zm7.931-3.872a.668.668 0 0 1-.125.376.709.709 0 0 1-1.073.08.673.673 0 0 1-.129-.746.683.683 0 0 1 .266-.297.707.707 0 0 1 1.015.329.66.66 0 0 1 .046.258Zm3.779 2.737c0 .116-.35.209-.79.209-.438 0-.782-.093-.782-.209 0-.116.35-.208.783-.208.433 0 .789.092.789.208Zm2.46-1.368a.295.295 0 0 1-.135.324.314.314 0 0 1-.358-.02.294.294 0 0 1 .017-.483.313.313 0 0 1 .18-.053c.07-.007.14.014.196.057a.265.265 0 0 1 .1.175Z" fill="#DA840D"/><path d="M67.917 46.325a.647.647 0 0 1-.146.343.671.671 0 0 1-.693.22.673.673 0 0 1-.324-.194.65.65 0 0 1-.117-.703.659.659 0 0 1 .246-.283.681.681 0 0 1 .364-.108.719.719 0 0 1 .489.227.686.686 0 0 1 .181.498Zm3.808-1.16c0 .237-.368.434-.825.434-.456 0-.818-.197-.818-.434 0-.238.368-.44.819-.44.45 0 .824.196.824.44Z" fill="#DA840D"/><path d="M91.181 46.748c0 7.485-16.27 14.453-35.863 14.453-19.592 0-35.993-7.484-35.993-14.968s16.401-12.174 35.993-12.174c19.593 0 35.863 5.2 35.863 12.69Z" fill="#E3AC8A"/><path d="M90.79 45.3c0 7.49-15.88 13.56-35.472 13.56S19.842 52.79 19.842 45.3s15.885-13.56 35.477-13.56c19.593 0 35.472 6.07 35.472 13.56Z" fill="#DA840D"/><path d="M54.802 54.076c14.535 0 26.319-4.503 26.319-10.058S69.337 33.96 54.8 33.96c-14.535 0-26.318 4.503-26.318 10.058s11.784 10.058 26.319 10.058Z" fill="#F0A508"/><path d="M37.09 47.729c0 .58-.67 1.084-1.5 1.084s-1.495-.487-1.495-1.084c0-.597.67-1.084 1.495-1.084.824 0 1.5.48 1.5 1.084Zm-2.995-4.569a.806.806 0 0 1-.152.448.834.834 0 0 1-.38.29.855.855 0 0 1-.904-.191.8.8 0 0 1-.17-.888.823.823 0 0 1 .308-.363.85.85 0 0 1 .462-.137.864.864 0 0 1 .594.253.825.825 0 0 1 .242.588Zm10.392 5.883c.019.282-.05.563-.196.806a1.43 1.43 0 0 1-.625.56 1.47 1.47 0 0 1-1.601-.244 1.402 1.402 0 0 1-.422-.718 1.379 1.379 0 0 1 .064-.827c.106-.262.29-.488.529-.647.238-.16.52-.245.81-.246.369-.01.728.121.998.368.27.246.429.587.443.948Zm-3.132-5.223c0 .36-.41.656-.907.656-.499 0-.914-.296-.914-.655 0-.36.41-.661.914-.661s.907.319.907.66Zm9.171 3.138a.886.886 0 0 1-.102.528.915.915 0 0 1-.39.379.944.944 0 0 1-1.043-.127.886.886 0 0 1-.25-.997.907.907 0 0 1 .34-.423.94.94 0 0 1 .525-.16.89.89 0 0 1 .627.216.85.85 0 0 1 .293.584Zm.35 4.792c0 .372-.44.673-.985.673-.546 0-.985-.301-.985-.672 0-.371.445-.667.985-.667s.985.296.985.667Zm-3.927-7.194a.68.68 0 0 1-.143.372.721.721 0 0 1-1.084.044.683.683 0 0 1-.118-.752.695.695 0 0 1 .27-.298.718.718 0 0 1 .393-.102c.19.012.366.095.494.233a.704.704 0 0 1 .188.503Zm10.214 1.414c0 .372-.427.673-.955.673s-.955-.301-.955-.672c0-.371.427-.673.955-.673s.955.302.955.673Zm0 3.474c0 .22-.427.4-.955.4s-.955-.18-.955-.4c0-.22.427-.4.955-.4s.955.18.955.4Zm6.46-2.26c0 .301-.386.545-.866.545-.481 0-.86-.244-.86-.545 0-.302.385-.54.86-.54.474 0 .866.244.866.54Zm-1.033 3.871a.87.87 0 0 1-.047.54.898.898 0 0 1-.359.414.93.93 0 0 1-1.055-.06.874.874 0 0 1-.291-.993.895.895 0 0 1 .334-.433.929.929 0 0 1 .529-.164.826.826 0 0 1 .59.17.79.79 0 0 1 .3.526Zm7.19-1.125a.92.92 0 0 1-.248.455.97.97 0 0 1-1.417-.06.917.917 0 0 1-.122-.984.935.935 0 0 1 .35-.386.966.966 0 0 1 .505-.144c.274.03.525.165.7.374.173.21.257.476.232.745Zm-.517-5.043c0 .226-.302.412-.676.412-.373 0-.67-.186-.67-.412 0-.226.302-.411.67-.411.368 0 .676.162.676.411Zm5.695 1.212c0 .898-.41 1.629-.907 1.629-.499 0-.914-.73-.914-1.63 0-.898.41-1.622.913-1.622.505 0 .908.742.908 1.623Zm2.284-1.648a.436.436 0 0 1-.132.306.452.452 0 0 1-.724-.14.425.425 0 0 1 .097-.473.448.448 0 0 1 .485-.094c.081.033.15.088.2.16a.428.428 0 0 1 .074.241Zm-14.96-1.389c0 .417-.557.76-1.24.76-.682 0-1.24-.343-1.24-.76 0-.418.552-.754 1.24-.754s1.24.336 1.24.754Zm-23.258-3.908c0 .26-.433.47-.967.47s-.967-.21-.967-.47c0-.261.433-.464.967-.464s.967.209.967.464Zm5.694-.928c0 .255-.493.464-1.098.464-.604 0-1.103-.209-1.103-.464s.492-.464 1.103-.464 1.098.209 1.098.464Zm7.166 1.136c0 .371-.664.673-1.489.673-.824 0-1.489-.301-1.489-.673 0-.37.67-.672 1.49-.672.818 0 1.488.301 1.488.672Zm5.28-1.137a.462.462 0 0 1-.079.264.478.478 0 0 1-.494.203.484.484 0 0 1-.247-.129.467.467 0 0 1-.103-.514.488.488 0 0 1 .449-.287.48.48 0 0 1 .335.136.458.458 0 0 1 .139.327Zm-.956 3.671c0 .226-.45.411-1.014.411-.564 0-1.009-.185-1.009-.411 0-.226.451-.418 1.009-.418.557 0 1.014.186 1.014.418Zm7.931-3.873a.668.668 0 0 1-.116.38.691.691 0 0 1-.314.253.71.71 0 0 1-.761-.154.673.673 0 0 1-.138-.748.683.683 0 0 1 .266-.3.706.706 0 0 1 .392-.104.69.69 0 0 1 .477.202.658.658 0 0 1 .194.471Zm3.779 2.737c0 .11-.35.202-.79.202-.438 0-.782-.092-.782-.203 0-.11.35-.208.783-.208.433 0 .789.093.789.209Zm2.462-1.34a.295.295 0 0 1-.019.183.313.313 0 0 1-.581-.04.295.295 0 0 1 .123-.327.314.314 0 0 1 .18-.053.277.277 0 0 1 .198.06c.055.044.09.108.098.177Z" fill="#DA840D"/><path d="M67.917 40.76a.647.647 0 0 1-.146.343.686.686 0 0 1-1.018.027.65.65 0 0 1-.115-.704.66.66 0 0 1 .245-.284.682.682 0 0 1 .364-.107.717.717 0 0 1 .489.227.686.686 0 0 1 .181.498Zm3.808-1.166c0 .243-.368.44-.825.44-.456 0-.818-.197-.818-.44 0-.244.368-.44.819-.44.45 0 .824.196.824.44Z" fill="#DA840D"/><path d="M91.745 36.8c0 7.484-16.277 14.452-35.869 14.452S19.89 43.768 19.89 36.278s16.395-12.145 35.987-12.145c19.592 0 35.869 5.177 35.869 12.667Z" fill="#E3AC8A"/><path d="M91.347 35.363c0 7.49-15.885 13.56-35.477 13.56s-35.466-6.082-35.466-13.56c0-7.479 15.88-13.572 35.472-13.572s35.47 6.07 35.47 13.572Z" fill="#DA840D"/><path d="M81.685 34.07c0 5.553-11.787 10.058-26.32 10.058-14.532 0-26.3-4.505-26.3-10.058 0-5.554 11.768-10.064 26.3-10.064 14.533 0 26.32 4.504 26.32 10.064Z" fill="#F0A508"/><path d="M37.648 37.78c0 .58-.664 1.084-1.495 1.084-.83 0-1.495-.486-1.495-1.084 0-.597.67-1.084 1.525-1.084.854 0 1.465.482 1.465 1.084Zm-2.989-4.568a.806.806 0 0 1-.157.443.835.835 0 0 1-.38.285.854.854 0 0 1-.898-.193.8.8 0 0 1-.173-.882.821.821 0 0 1 .302-.364.85.85 0 0 1 .457-.142.87.87 0 0 1 .607.253.832.832 0 0 1 .242.6Zm10.421 5.884c.018.28-.051.56-.198.802a1.424 1.424 0 0 1-.624.555 1.466 1.466 0 0 1-1.593-.247 1.374 1.374 0 0 1-.353-1.538 1.41 1.41 0 0 1 .527-.644 1.46 1.46 0 0 1 .806-.244c.368-.01.726.122.995.368.27.247.428.588.44.948Zm-3.161-5.23c0 .365-.41.66-.914.66s-.907-.295-.907-.66c0-.365.409-.655.907-.655.498 0 .914.296.914.655Zm9.171 3.114a.886.886 0 0 1-.103.529.916.916 0 0 1-.39.378.944.944 0 0 1-1.042-.127.886.886 0 0 1-.25-.997.908.908 0 0 1 .34-.423.94.94 0 0 1 .525-.16.89.89 0 0 1 .627.216.85.85 0 0 1 .292.584Zm.349 4.824c0 .37-.439.672-.985.672s-.984-.301-.984-.672c0-.371.438-.644.984-.644s.985.278.985.644Zm-3.926-7.195a.682.682 0 0 1-.207.488.714.714 0 0 1-.998 0 .682.682 0 0 1 0-.976.714.714 0 0 1 .998 0c.132.13.207.305.207.488Zm10.213 1.415c0 .37-.427.672-.955.672s-.955-.301-.955-.672c0-.371.427-.661.955-.661s.955.29.955.66Zm0 3.471c0 .22-.427.4-.955.4s-.955-.18-.955-.4c0-.22.427-.4.955-.4s.955.18.955.4Zm6.46-2.26c0 .302-.386.545-.867.545-.48 0-.866-.243-.866-.545 0-.301.392-.539.866-.539.475 0 .867.244.867.54Zm-1.032 3.872a.88.88 0 0 1-.045.544.904.904 0 0 1-.36.418.935.935 0 0 1-1.063-.056.898.898 0 0 1-.31-.454.88.88 0 0 1 .014-.545.9.9 0 0 1 .336-.437.934.934 0 0 1 .532-.166.826.826 0 0 1 .594.168.79.79 0 0 1 .302.528ZM70.344 40a.929.929 0 0 1-.262.444.976.976 0 0 1-1.412-.09.922.922 0 0 1-.117-.978.94.94 0 0 1 .346-.386.972.972 0 0 1 .501-.15 1.073 1.073 0 0 1 .723.385 1.025 1.025 0 0 1 .22.775Zm-.516-5.06c0 .226-.303.411-.677.411-.373 0-.67-.185-.67-.412 0-.226.297-.411.67-.411.374 0 .677.185.677.411Zm5.694 1.211c0 .899-.41 1.629-.914 1.629s-.907-.73-.907-1.629.41-1.623.907-1.623c.499 0 .914.724.914 1.623Zm2.278-1.646a.422.422 0 0 1-.077.236.437.437 0 0 1-.451.178.442.442 0 0 1-.224-.119.426.426 0 0 1-.092-.467.432.432 0 0 1 .162-.191.447.447 0 0 1 .243-.072.45.45 0 0 1 .31.13.43.43 0 0 1 .129.305Zm-14.96-1.392c0 .417-.552.754-1.235.754-.682 0-1.24-.337-1.24-.754s.552-.754 1.24-.754c.689 0 1.234.337 1.234.754Zm-23.252-3.901c0 .255-.433.463-.967.463s-.973-.208-.973-.463.433-.47.973-.47.967.209.967.47Zm5.694-.934c0 .261-.492.464-1.103.464s-1.098-.203-1.098-.464c0-.26.492-.463 1.097-.463.606 0 1.104.208 1.104.463Zm7.165 1.137c0 .37-.664.672-1.489.672-.824 0-1.488-.301-1.488-.672 0-.371.67-.673 1.488-.673.819 0 1.49.302 1.49.673Zm5.28-1.138a.467.467 0 0 1-.157.298.487.487 0 0 1-.641 0 .466.466 0 0 1-.157-.298.466.466 0 0 1 .157-.297.487.487 0 0 1 .64 0 .466.466 0 0 1 .158.297Zm-.956 3.665c0 .232-.45.418-1.014.418-.563 0-1.014-.186-1.014-.418 0-.232.456-.411 1.014-.411s1.014.185 1.014.411Zm7.931-3.868a.667.667 0 0 1-.114.379.708.708 0 0 1-1.069.11.665.665 0 0 1 .102-1.045.706.706 0 0 1 .387-.116.695.695 0 0 1 .493.193.667.667 0 0 1 .201.48Zm3.778 2.738c0 .11-.356.203-.789.203-.433 0-.783-.093-.783-.203 0-.11.35-.209.783-.209.433 0 .79.122.79.209Zm2.462-1.368a.302.302 0 0 1-.11.158.313.313 0 0 1-.372 0 .301.301 0 0 1-.11-.158.3.3 0 0 1 .11-.158.313.313 0 0 1 .482.158Z" fill="#DA840D"/><path d="M68.48 30.811a.647.647 0 0 1-.145.343.685.685 0 0 1-1.018.027.649.649 0 0 1-.116-.704.66.66 0 0 1 .246-.283.68.68 0 0 1 .363-.108.721.721 0 0 1 .49.227.686.686 0 0 1 .18.498Zm3.81-1.165c0 .244-.369.44-.825.44-.457 0-.825-.196-.825-.44 0-.243.368-.435.825-.435.456 0 .824.192.824.435Z" fill="#DA840D"/><path d="M91.745 30.406c0 7.49-16.277 14.452-35.869 14.452S19.89 37.38 19.89 29.89s16.395-12.174 35.987-12.174c19.592 0 35.869 5.2 35.869 12.69Z" fill="#E3AC8A"/><path d="M91.347 28.986c0 7.484-15.885 13.56-35.477 13.56s-35.466-6.1-35.466-13.56c0-7.461 15.88-13.566 35.472-13.566s35.47 6.03 35.47 13.566Z" fill="#DA840D"/><path d="M81.685 27.675c0 5.554-11.787 10.058-26.32 10.058-14.532 0-26.3-4.504-26.3-10.058 0-5.553 11.768-10.064 26.3-10.064 14.533 0 26.32 4.505 26.32 10.064Z" fill="#F0A508"/><path d="M37.648 31.386c0 .58-.664 1.084-1.495 1.084-.83 0-1.495-.487-1.495-1.084 0-.597.67-1.084 1.495-1.084.825 0 1.495.487 1.495 1.084Zm-2.989-4.568a.806.806 0 0 1-.157.443.834.834 0 0 1-.38.286.855.855 0 0 1-.898-.194.8.8 0 0 1-.173-.882.82.82 0 0 1 .302-.364.85.85 0 0 1 .457-.141.872.872 0 0 1 .607.252.833.833 0 0 1 .242.6Zm8.968 7.199c.793 0 1.436-.59 1.436-1.316 0-.727-.643-1.316-1.436-1.316-.792 0-1.435.589-1.435 1.316 0 .727.643 1.316 1.435 1.316Zm-1.708-6.537c0 .359-.41.654-.914.654s-.907-.307-.907-.655c0-.348.409-.66.907-.66.498 0 .914.295.914.66Zm9.171 3.106a.886.886 0 0 1-.103.528.915.915 0 0 1-.39.379.945.945 0 0 1-1.042-.127.886.886 0 0 1-.25-.997.908.908 0 0 1 .34-.423.94.94 0 0 1 .525-.16.89.89 0 0 1 .627.216c.172.15.277.36.292.584Zm.349 4.822c0 .37-.439.672-.985.672s-.984-.301-.984-.672c0-.371.438-.667.984-.667s.985.302.985.667Zm-3.926-7.188a.68.68 0 0 1-.144.368.72.72 0 0 1-1.077.05.684.684 0 0 1-.13-.745.695.695 0 0 1 .259-.302.718.718 0 0 1 .386-.114c.194.008.377.09.51.23a.709.709 0 0 1 .196.513Zm10.213 1.409c0 .37-.427.672-.955.672s-.955-.301-.955-.672c0-.371.427-.644.955-.644s.955.273.955.644Zm0 3.473c0 .22-.427.4-.955.4s-.955-.18-.955-.4c0-.22.427-.4.955-.4s.955.18.955.4Zm6.46-2.261c0 .302-.386.545-.867.545-.48 0-.866-.243-.866-.545 0-.301.392-.539.866-.539.475 0 .867.244.867.54Zm-1.032 3.873a.88.88 0 0 1-.045.544.904.904 0 0 1-.36.419.935.935 0 0 1-1.063-.057.898.898 0 0 1-.31-.453.88.88 0 0 1 .014-.546.9.9 0 0 1 .336-.437.934.934 0 0 1 .532-.166.826.826 0 0 1 .594.168.79.79 0 0 1 .302.528Zm7.19-1.09a.928.928 0 0 1-.262.444.976.976 0 0 1-.986.209.955.955 0 0 1-.427-.299.922.922 0 0 1-.116-.979.941.941 0 0 1 .346-.385.97.97 0 0 1 .501-.15 1.066 1.066 0 0 1 .725.383 1.018 1.018 0 0 1 .219.777Zm-.516-5.079c0 .232-.303.418-.677.418-.373 0-.67-.186-.67-.418 0-.232.297-.411.67-.411.374 0 .677.185.677.411Zm5.694 1.212c0 .898-.41 1.629-.914 1.629s-.907-.73-.907-1.629.41-1.623.907-1.623c.499 0 .914.73.914 1.623ZM77.8 28.11a.422.422 0 0 1-.077.237.437.437 0 0 1-.451.178.442.442 0 0 1-.224-.119.426.426 0 0 1-.092-.467.446.446 0 0 1 .812.005.42.42 0 0 1 .032.167Zm-14.96-1.39c0 .417-.552.759-1.235.759-.682 0-1.24-.342-1.24-.76 0-.417.552-.753 1.24-.753.689 0 1.234.336 1.234.753Zm-23.252-3.902c0 .255-.433.464-.967.464s-.973-.209-.973-.464.433-.463.973-.463.967.208.967.463Zm5.694-.934c0 .261-.492.47-1.103.47s-1.098-.209-1.098-.47c0-.26.492-.464 1.097-.464.606 0 1.104.21 1.104.464Zm7.165 1.137c0 .371-.664.673-1.489.673-.824 0-1.488-.302-1.488-.673 0-.37.67-.666 1.488-.666.819 0 1.49.295 1.49.666Zm5.279-1.137a.462.462 0 0 1-.078.263.491.491 0 0 1-.742.075.467.467 0 0 1-.103-.514.489.489 0 0 1 .449-.287.48.48 0 0 1 .335.135.458.458 0 0 1 .14.328Zm-.955 3.669c0 .226-.45.412-1.014.412-.563 0-1.014-.186-1.014-.412 0-.226.456-.417 1.014-.417s1.014.185 1.014.417Zm7.931-3.872a.667.667 0 0 1-.114.379.708.708 0 0 1-1.069.109.665.665 0 0 1 .102-1.045.706.706 0 0 1 .652-.066.69.69 0 0 1 .377.365.66.66 0 0 1 .052.258Zm3.778 2.737c0 .11-.356.203-.789.203-.433 0-.783-.093-.783-.203 0-.11.35-.209.783-.209.433 0 .79.093.79.21Zm2.463-1.369a.295.295 0 0 1-.134.323.314.314 0 0 1-.357-.017.295.295 0 0 1 .01-.482.314.314 0 0 1 .178-.056.283.283 0 0 1 .2.056.271.271 0 0 1 .103.176Z" fill="#DA840D"/><path d="M68.48 24.417a.647.647 0 0 1-.145.343.685.685 0 0 1-1.018.027.649.649 0 0 1-.116-.704.659.659 0 0 1 .246-.283.68.68 0 0 1 .363-.108.717.717 0 0 1 .49.227.687.687 0 0 1 .18.498Zm3.81-1.165c0 .244-.369.44-.825.44-.457 0-.825-.196-.825-.44 0-.243.368-.435.825-.435.456 0 .824.198.824.435Z" fill="#DA840D"/><path d="M90.374 23.821c-.83-7.2-15.707-12.927-33.94-12.927-17.06 0-31.177 5.014-33.61 11.547a5.598 5.598 0 0 0-.877 2.94c0 7.49 15.719 14.974 34.486 14.974 18.768 0 34.356-6.957 34.356-14.458a5.45 5.45 0 0 0-.415-2.076Z" fill="#C66720"/><path d="M92.468 22.522c0 7.49-16.276 14.458-35.868 14.458-19.592 0-35.987-7.484-35.987-14.95 0-7.467 16.395-12.175 35.987-12.175 19.592 0 35.868 5.177 35.868 12.667Z" fill="#E3AC8A"/><path d="M92.154 21.079c0 7.49-15.422 13.148-34.997 13.148-19.574 0-35.47-6.07-35.47-13.56s15.878-13.56 35.47-13.56c19.593 0 34.997 6.482 34.997 13.972Z" fill="#DA840D"/><path d="M56.09 29.85c14.535 0 26.319-4.504 26.319-10.059S70.625 9.733 56.089 9.733c-14.535 0-26.318 4.503-26.318 10.058S41.554 29.85 56.09 29.85Z" fill="#F0A508"/><path d="M38.372 23.501c0 .58-.67 1.09-1.495 1.09-.825 0-1.495-.487-1.495-1.09 0-.603.67-1.084 1.495-1.084.825 0 1.495.487 1.495 1.084Zm-2.99-4.562a.806.806 0 0 1-.16.442.835.835 0 0 1-.384.283.855.855 0 0 1-.897-.202.8.8 0 0 1-.163-.885.822.822 0 0 1 .307-.361.85.85 0 0 1 .46-.135.869.869 0 0 1 .601.258.83.83 0 0 1 .236.6Zm10.404 5.884c.017.28-.053.559-.2.8a1.425 1.425 0 0 1-.626.552 1.466 1.466 0 0 1-1.59-.25 1.394 1.394 0 0 1-.418-.716 1.374 1.374 0 0 1 .067-.821c.105-.262.29-.486.527-.644.237-.158.518-.242.805-.243a1.424 1.424 0 0 1 .998.37 1.361 1.361 0 0 1 .438.952Zm-3.143-5.229c0 .365-.41.655-.914.655s-.907-.29-.907-.655c0-.365.41-.655.907-.655.499 0 .914.296.914.655Zm9.17 3.107a.887.887 0 0 1-.102.529.916.916 0 0 1-.39.378.944.944 0 0 1-1.043-.127.886.886 0 0 1-.25-.997.908.908 0 0 1 .34-.423.94.94 0 0 1 .525-.16.884.884 0 0 1 .629.215c.172.15.277.36.29.585Zm.35 4.829c0 .372-.439.673-.985.673-.545 0-.984-.301-.984-.672 0-.371.439-.673.984-.673.546 0 .985.302.985.673Zm-3.927-7.194a.68.68 0 0 1-.144.368.722.722 0 0 1-1.077.05.684.684 0 0 1-.13-.745.695.695 0 0 1 .26-.301.718.718 0 0 1 .386-.114.744.744 0 0 1 .51.227.71.71 0 0 1 .195.515ZM58.45 21.75c0 .371-.427.667-.955.667s-.955-.296-.955-.667c0-.37.427-.672.955-.672s.955.301.955.672Zm0 3.474c0 .22-.427.4-.955.4s-.955-.18-.955-.4c0-.22.427-.4.955-.4s.955.18.955.4Zm6.46-2.262c0 .301-.392.54-.866.54-.475 0-.866-.239-.866-.54 0-.302.391-.545.866-.545.474 0 .866.243.866.545Zm-1.032 3.873a.88.88 0 0 1-.045.544.904.904 0 0 1-.36.419.936.936 0 0 1-1.063-.056.898.898 0 0 1-.311-.454.879.879 0 0 1 .015-.546.9.9 0 0 1 .336-.437.933.933 0 0 1 .532-.166.832.832 0 0 1 .593.17c.167.13.276.319.303.526Zm7.188-1.125a.922.922 0 0 1-.247.455.97.97 0 0 1-.984.233.95.95 0 0 1-.433-.294.916.916 0 0 1-.122-.982.934.934 0 0 1 .35-.386.966.966 0 0 1 .505-.145c.274.031.525.165.699.374.174.21.257.477.232.745Zm-.522-5.043c0 .226-.296.411-.67.411-.374 0-.67-.185-.67-.411 0-.226.296-.418.67-.418.374 0 .67.186.67.418Zm5.702 1.211c0 .9-.41 1.624-.914 1.624s-.907-.725-.907-1.623c0-.899.409-1.63.907-1.63.498 0 .914.731.914 1.63Zm2.277-1.646a.423.423 0 0 1-.08.235.438.438 0 0 1-.451.173.443.443 0 0 1-.222-.12.426.426 0 0 1-.09-.466.446.446 0 0 1 .717-.13.437.437 0 0 1 .126.308Zm-14.96-1.392c0 .417-.551.754-1.233.754-.683 0-1.234-.337-1.234-.754s.551-.76 1.24-.76c.688 0 1.227.343 1.227.76Zm-23.228-3.906c0 .255-.433.464-.967.464s-.973-.209-.973-.464.433-.464.973-.464.967.209.967.464Zm5.671-.928c0 .255-.492.464-1.103.464s-1.098-.209-1.098-.464.493-.463 1.098-.463c.605 0 1.103.208 1.103.463Zm7.165 1.136c0 .371-.664.672-1.488.672-.825 0-1.49-.301-1.49-.672 0-.371.665-.65 1.49-.65.824 0 1.488.279 1.488.65Zm5.279-1.137a.462.462 0 0 1-.292.438.49.49 0 0 1-.526-.098.467.467 0 0 1-.107-.513.471.471 0 0 1 .177-.211.49.49 0 0 1 .451-.046.476.476 0 0 1 .26.251.455.455 0 0 1 .037.179Zm-.955 3.665c0 .231-.45.411-1.014.411-.564 0-1.015-.18-1.015-.412 0-.232.457-.411 1.015-.411.557 0 1.014.185 1.014.411Zm7.931-3.874a.667.667 0 0 1-.111.38.69.69 0 0 1-.31.255.709.709 0 0 1-.76-.14.664.664 0 0 1-.156-.74.68.68 0 0 1 .256-.306.705.705 0 0 1 .65-.067.69.69 0 0 1 .376.361.658.658 0 0 1 .055.257Zm3.778 2.736c0 .116-.355.21-.789.21-.433 0-.783-.094-.783-.21 0-.116.35-.202.783-.202.433 0 .79.092.79.203Zm2.462-1.366a.295.295 0 0 1-.134.323.314.314 0 0 1-.357-.017.295.295 0 0 1 .01-.482.314.314 0 0 1 .178-.056.283.283 0 0 1 .199.057.272.272 0 0 1 .104.175Z" fill="#DA840D"/><path d="M69.204 16.534a.643.643 0 0 1-.171.502.67.67 0 0 1-.496.214.683.683 0 0 1-.496-.214.652.652 0 0 1-.171-.503.641.641 0 0 1 .171-.502.67.67 0 0 1 .496-.214.683.683 0 0 1 .496.214.653.653 0 0 1 .171.503Zm3.803-1.16c0 .244-.362.44-.819.44-.457 0-.825-.196-.825-.44 0-.243.368-.44.825-.44.457 0 .819.197.819.44Z" fill="#DA840D"/><path d="M92.314 15.3c0 4.568-6.05 8.939-15.215 11.652a73.932 73.932 0 0 1-20.654 2.8c-7.278 0-13.257-1.872-19.295-2.319-10.072-.765-16.692-7.942-16.692-12.65 0-7.489 16.4-12.173 35.987-12.173 19.586 0 35.869 5.2 35.869 12.69Z" fill="#E3AC8A"/><path d="M91.863 14.307c0 7.49-15.885 13.56-35.477 13.56s-35.471-6.07-35.471-13.56S36.776.748 56.386.748c19.61 0 35.477 6.07 35.477 13.56Z" fill="#DA840D"/><path d="M82.195 13.026c0 5.554-11.786 10.058-26.319 10.058-14.532 0-26.318-4.504-26.318-10.058 0-5.553 11.78-10.064 26.318-10.064 14.539 0 26.319 4.505 26.319 10.064Z" fill="#F0A508"/><path d="M38.158 16.736c0 .58-.67 1.084-1.495 1.084-.824 0-1.494-.486-1.494-1.084 0-.597.67-1.084 1.495-1.084.824 0 1.494.482 1.494 1.084Zm-2.989-4.562a.806.806 0 0 1-.158.445.835.835 0 0 1-.383.285.856.856 0 0 1-.899-.198.8.8 0 0 1-.166-.886.822.822 0 0 1 .309-.362.85.85 0 0 1 .46-.136.871.871 0 0 1 .599.257.832.832 0 0 1 .238.595Zm10.404 5.878c.018.28-.051.56-.198.802a1.424 1.424 0 0 1-.624.555 1.465 1.465 0 0 1-1.593-.246 1.396 1.396 0 0 1-.418-.716 1.376 1.376 0 0 1 .065-.822 1.41 1.41 0 0 1 .526-.645c.238-.158.519-.243.806-.244.37-.01.727.122.996.369.27.246.427.587.44.947ZM42.43 12.83c0 .359-.41.655-.914.655s-.907-.296-.907-.656c0-.359.409-.655.913-.655s.907.29.907.655Zm9.175 3.105a.881.881 0 0 1-.103.524.91.91 0 0 1-.39.374.937.937 0 0 1-1.034-.13.879.879 0 0 1-.245-.99.902.902 0 0 1 .338-.42.934.934 0 0 1 .521-.158.884.884 0 0 1 .625.217c.171.15.275.36.288.583Zm.345 4.824c0 .37-.44.672-.985.672-.546 0-.985-.302-.985-.672 0-.372.44-.667.985-.667.546 0 .984.301.984.667Zm-3.904-7.194a.68.68 0 0 1-.141.37.721.721 0 0 1-1.078.056.684.684 0 0 1-.133-.746.694.694 0 0 1 .26-.303.718.718 0 0 1 .386-.113.742.742 0 0 1 .51.225.71.71 0 0 1 .196.51Zm10.191 1.415c0 .37-.427.672-.955.672s-.931-.302-.931-.673c0-.37.427-.672.955-.672.527 0 .93.301.93.672Zm0 3.472c0 .22-.427.4-.955.4s-.931-.18-.931-.4c0-.22.427-.4.955-.4.527 0 .93.18.93.4Zm6.459-2.26c0 .3-.391.544-.866.544-.474 0-.866-.243-.866-.544 0-.302.392-.54.866-.54.475 0 .866.244.866.54Zm-1.031 3.872a.897.897 0 0 1-.328.484.934.934 0 0 1-1.124 0 .897.897 0 0 1-.328-.484.898.898 0 0 1 .328-.485.934.934 0 0 1 1.124 0 .897.897 0 0 1 .328.485Zm7.188-1.119a.907.907 0 0 1-.198.768.947.947 0 0 1-.733.338.967.967 0 0 1-.733-.338.92.92 0 0 1-.198-.768.913.913 0 0 1 .185-.79.953.953 0 0 1 .746-.35.973.973 0 0 1 .746.35.925.925 0 0 1 .185.79Zm-.522-5.032c0 .226-.296.412-.67.412-.374 0-.67-.186-.67-.412 0-.226.296-.412.67-.412.374 0 .67.169.67.412Zm5.701 1.195c0 .899-.41 1.63-.914 1.63s-.907-.731-.907-1.63c0-.899.403-1.623.907-1.623s.914.725.914 1.623Zm2.265-1.646a.422.422 0 0 1-.077.236.448.448 0 0 1-.675.059.426.426 0 0 1-.092-.467.446.446 0 0 1 .716-.134.43.43 0 0 1 .128.306ZM63.35 12.07c0 .417-.552.759-1.24.759s-1.234-.342-1.234-.76c0-.417.552-.753 1.234-.753.682 0 1.24.336 1.24.753ZM40.098 8.169c0 .255-.433.464-.973.464s-.967-.21-.967-.464c0-.255.434-.47.967-.47.534 0 .973.209.973.47Zm5.694-.934c0 .26-.492.464-1.103.464s-1.103-.203-1.103-.464.498-.464 1.103-.464 1.103.186 1.103.464Zm7.166 1.137c0 .37-.664.672-1.489.672-.824 0-1.489-.301-1.489-.672 0-.371.665-.673 1.49-.673.824 0 1.488.302 1.488.673Zm5.278-1.138a.461.461 0 0 1-.078.263.49.49 0 0 1-.74.077.466.466 0 0 1-.106-.512.472.472 0 0 1 .176-.212.488.488 0 0 1 .451-.046.476.476 0 0 1 .26.251.453.453 0 0 1 .037.18Zm-.955 3.669c0 .226-.456.412-1.014.412s-1.014-.186-1.014-.412c0-.226.456-.417 1.014-.417s1.014.185 1.014.417Zm7.926-3.87a.66.66 0 0 1-.107.378.684.684 0 0 1-.305.255.702.702 0 0 1-.756-.134.668.668 0 0 1-.158-.735.676.676 0 0 1 .254-.305.7.7 0 0 1 .384-.115.69.69 0 0 1 .482.19.66.66 0 0 1 .206.466Zm3.783 2.735c0 .11-.355.203-.788.203-.433 0-.79-.093-.79-.203 0-.11.357-.208.79-.208.433 0 .788.092.788.208ZM71.452 8.4a.295.295 0 0 1-.134.324.314.314 0 0 1-.356-.017.301.301 0 0 1-.102-.335.313.313 0 0 1 .29-.204.283.283 0 0 1 .198.057.271.271 0 0 1 .104.175Z" fill="#DA840D"/><path d="M68.99 9.769a.647.647 0 0 1-.145.343.685.685 0 0 1-1.018.027.65.65 0 0 1-.116-.704.66.66 0 0 1 .246-.284.682.682 0 0 1 .364-.107.719.719 0 0 1 .489.226.686.686 0 0 1 .18.499Zm3.803-1.167c0 .244-.368.44-.819.44-.45 0-.825-.196-.825-.44 0-.243.368-.435.825-.435.457 0 .819.192.819.435Z" fill="#DA840D"/><path d="M61.772 44.83a2.175 2.175 0 0 0-.883-1.234 2.263 2.263 0 0 0-1.49-.378c-3.56.25-3.856 6.076-2.604 8.62a1.875 1.875 0 0 0 2.52-.243c1.14-1.246 1.502-3.05 1.905-4.638.198-.703.382-1.412.552-2.127Zm26.42-30.274a11.097 11.097 0 0 1-3.37-2.011 30.756 30.756 0 0 1-3.262-3.623c-1.477-1.774-3.624-2.47-5.878-2.73-2.509-.296-5.101.249-7.628.121a8.908 8.908 0 0 1-3.88-1.003c-1.186-.66-2.117-1.739-3.131-2.672C59.056.898 56.535.898 54.026.504A35.69 35.69 0 0 0 48.996 0c-1.726-.04-4.746-.064-5.902 1.542-1.282.58-1.732 2.122-2.023 3.42a18.1 18.1 0 0 1-.777 3.154 7.743 7.743 0 0 1-2.373 2.974c-2.26 1.838-5.053 2.823-7.61 4.104-2.076 1.038-4.62 2.51-5.736 4.591-.67 1.247-.593 3.38.593 4.302 1.466 1.102 2.58-.974 2.895-2.023.29-.95.397-1.919 1.186-2.632a9.126 9.126 0 0 1 3.69-1.89c1.145-.313 2.372-.313 3.5-.655a15.18 15.18 0 0 0 3.778-2.035c1.352-.881 2.67-1.739 4.277-2.122 1.334-.301 3.398-.255 4.448.742a11.745 11.745 0 0 1 1.477 2.215 5.68 5.68 0 0 0 2.088 1.74c1.673.932 3.589 1.344 5.339 2.19.585.298 1.09.727 1.47 1.253.06.087.113.174.167.266.043.066.082.134.119.203 1.91 3.444-.493 7.09-.428 10.725 0 1.96 1.454 5.165 3.91 3.594.165-.104.32-.22.474-.336.279-2.54.504-5.142 1.406-7.536.848-2.227 2.005-4.285 1.88-6.737-.071-1.35-.73-2.591-.89-3.924-.225-1.855 1.483-2.696 3.02-3.061a10.496 10.496 0 0 1 6.607.44c3.939 1.583 7.118 4.847 11.496 5.386 1.732.214 4.24-.052 4.929-1.902.688-1.849-2.58-2.915-3.814-3.431Z" fill="#EEBE30"/><path opacity=".5" d="M64.091 16.974a4.001 4.001 0 0 0-.967-1.67 4.127 4.127 0 0 0-1.649-1.043c-.901-.232-2.325.354-2.212 1.42a.155.155 0 0 0 .059.11c-.593 1.235 1.127 3.363 1.72 4.267.435.58.708 1.258.795 1.971.1.922-.202 1.832-.113 2.742.036.406.35 2.14 1.187 1.444.955-.788 1.055-2.574 1.251-3.699.395-1.83.37-3.722-.071-5.542Zm17.249-6.001a7.373 7.373 0 0 0-4.324-3.223c-1.827-.516-6.21-1.072-6.673 1.542a.244.244 0 0 0 .039.15c.028.045.071.08.121.1.117.083.221.182.309.295a.258.258 0 0 0 .112.11c.048.017.1.017.149 0a2.98 2.98 0 0 0 1.186.65c1.088.235 2.196.363 3.31.382 1.542.145 2.402.794 3.476 1.803.593.58 2.218 1.797 3.055.876.64-.65-.41-2.151-.76-2.685Zm-52.714 7.282a3.235 3.235 0 0 0-.783 0 .074.074 0 0 0-.024-.062.077.077 0 0 0-.065-.019 2.871 2.871 0 0 0-1.202.482c-.357.25-.65.577-.856.956-.143.29-.421 1.304.19 1.357.61.052 1.091-.58 1.435-.91.499-.504.97-1.032 1.412-1.583a.142.142 0 0 0-.039-.194.151.151 0 0 0-.068-.027Zm71.547 33.426a4.104 4.104 0 0 0-3.072.579 3.97 3.97 0 0 0-1.122 1.109 3.87 3.87 0 0 0-.592 1.448.123.123 0 0 0 .028.106.13.13 0 0 0 .102.045.83.83 0 0 1 0 .116c-.207.904-1.305 1.322-1.999 1.704-.516.279-1.05.528-1.584.783-1.78.881-4.579 2.018-5.13 4.354a.13.13 0 0 0 .041.145c1.068.718 2.296-.354 3.132-1.026a13.841 13.841 0 0 1 5.777-2.627c2.337-.498 6.697-.347 7.539-3.478.511-1.942-1.749-3.02-3.12-3.258Z" fill="#fff"/><path d="M61.944 6.719c-.208-.284-.736-.893-1.092-.934-.201 0-.278-.394-.468-.336-.19.058-.48.203-.742 0a2.558 2.558 0 0 0-.278-.22.457.457 0 0 0-.38-.064c-.166.064-.231.307-.433.15-.202-.156-.682.082-.8.314a.903.903 0 0 0-.096.203c-.706.098-1.417 1.16-1.684 1.652a2.962 2.962 0 0 0 .16 3.032c.646 1.078 1.963 1.223 3.126 1.258a3.49 3.49 0 0 0 1.364-.116 2.517 2.517 0 0 0 1.026-.806c1.175-1.414 1.4-2.643.297-4.133Z" fill="#48264C"/><path d="M61.944 6.72a3.908 3.908 0 0 0-.712-.748 4.072 4.072 0 0 1-.896 2.65 4.242 4.242 0 0 1-4.454 1.425c.07.168.154.33.249.487.646 1.078 1.963 1.223 3.126 1.258a3.49 3.49 0 0 0 1.364-.116 2.519 2.519 0 0 0 1.026-.806c1.175-1.432 1.4-2.66.297-4.15Z" fill="#300D33"/><path d="M62.987 64.423a3.155 3.155 0 0 0-.895-1.24c-.065-.36-.148-.714-.225-1.073a.236.236 0 0 0-.122-.168.246.246 0 0 0-.21-.012c-.535.243-.653-.07-1.02-.354a.38.38 0 0 0-.392 0c-.594.395-1.222-.539-1.685 0-.27.407-.57.794-.896 1.16-.385.238-.74.52-1.056.84a3.38 3.38 0 0 0-.593.673 3.517 3.517 0 0 0-.184.324 3.527 3.527 0 0 0-.124.32.078.078 0 0 0 0 .034 3.63 3.63 0 0 0 .041 2.319c.451 1.339 1.875 1.814 3.15 2.122a3.968 3.968 0 0 0 1.536.197c.498-.1.96-.326 1.34-.655 1.638-1.276 2.184-2.58 1.335-4.487Z" fill="#48264C"/><path d="M62.988 64.423a4.289 4.289 0 0 0-.593-.99 4.653 4.653 0 0 1-1.647 2.717 4.85 4.85 0 0 1-3.04 1.073 4.772 4.772 0 0 1-2.247-.556c.037.196.089.39.154.58.45 1.339 1.874 1.814 3.15 2.121a3.97 3.97 0 0 0 1.536.198c.498-.1.96-.326 1.34-.656 1.65-1.275 2.195-2.58 1.347-4.487Z" fill="#300D33"/><path d="M52.263 5.71c-.183-.354-.658-1.125-1.05-1.235-.201-.052-.201-.417-.397-.452-.06-.522-.303-1.067-.925-.957-.143 0-.522.389-.67.168a.637.637 0 0 0-.333-.284c-.29-.11-.545.14-.712.33-.278.32-.634-.15-.996 0-.173.1-.314.246-.408.42-.093.174-.135.37-.12.566v.093a6.097 6.097 0 0 0-1.186 1.16 3.334 3.334 0 0 0-.391 3.403c.521 1.315 1.969 1.739 3.256 1.965.485.133.992.177 1.494.127.49-.126.937-.373 1.3-.719 1.607-1.397 2.081-2.724 1.138-4.585Z" fill="#48264C"/><path d="M52.264 5.71c-.178-.346-.4-.67-.659-.962a4.656 4.656 0 0 1-1.493 2.815 4.855 4.855 0 0 1-2.985 1.243 4.797 4.797 0 0 1-2.266-.441c.047.197.108.391.184.58.522 1.316 1.97 1.739 3.256 1.965a4.12 4.12 0 0 0 1.525.104 2.94 2.94 0 0 0 1.299-.719c1.607-1.397 2.082-2.724 1.139-4.585Z" fill="#300D33"/><path d="M75.33 10.394c-.183-.446-.687-1.426-1.138-1.588-.255-.087-.243-.615-.504-.58-.356.035-.694.127-.973-.203a3.577 3.577 0 0 0-.29-.377.59.59 0 0 0-.475-.209c-.237.041-.398.354-.593.076-.279-.371-.914-.093-1.14.185-.069.075-.13.157-.183.244-.95-.076-2.2 1.16-2.693 1.739a4.278 4.278 0 0 0-.906 1.982 4.232 4.232 0 0 0 .194 2.163c.51 1.652 2.189 2.25 3.684 2.65.57.198 1.175.283 1.78.248a3.344 3.344 0 0 0 1.583-.788c1.993-1.6 2.657-3.183 1.655-5.542Z" fill="#48264C"/><path d="M75.332 10.395a5.505 5.505 0 0 0-.7-1.224 5.543 5.543 0 0 1-1.931 3.285 5.778 5.778 0 0 1-3.633 1.318 5.434 5.434 0 0 1-2.628-.695c.04.245.097.487.172.724.51 1.652 2.189 2.25 3.684 2.65.57.199 1.175.284 1.78.249a3.345 3.345 0 0 0 1.583-.789c2.01-1.576 2.675-3.159 1.673-5.518Z" fill="#300D33"/><path d="M74.46 59.467c-.232-.516-.842-1.641-1.382-1.82-.309-.1-.309-.714-.593-.679-.422.046-.825.156-1.187-.22a3.566 3.566 0 0 0-.356-.435.735.735 0 0 0-.593-.232c-.285.046-.474.406-.73.093-.344-.43-1.097-.099-1.37.22a2.09 2.09 0 0 0-.22.29c-1.138-.081-2.627 1.368-3.214 2.017a4.784 4.784 0 0 0-1.063 2.288 4.732 4.732 0 0 0 .256 2.5c.635 1.902 2.658 2.569 4.455 3.01a5.606 5.606 0 0 0 2.183.272 4.087 4.087 0 0 0 1.892-.922c2.349-1.843 3.12-3.687 1.922-6.383Z" fill="#48264C"/><path d="M74.46 59.467a6.166 6.166 0 0 0-.854-1.409 6.604 6.604 0 0 1-2.331 3.847 6.882 6.882 0 0 1-4.3 1.527 6.748 6.748 0 0 1-3.168-.783c.047.286.118.567.213.841.635 1.901 2.658 2.568 4.455 3.009a5.604 5.604 0 0 0 2.183.272 4.087 4.087 0 0 0 1.892-.921c2.337-1.844 3.108-3.687 1.91-6.383Z" fill="#300D33"/><path d="M47.638 55.293s1.583-.58 2.503 1.467c.92 2.046 1.251 4.058 2.17 5.015.253.214.453.483.583.784.13.301.19.628.171.955 0 0-2.592-1.386-3.256-2.122-.986-1-1.83-2.125-2.51-3.345a33.79 33.79 0 0 1-1.275-2.852l1.614.098Z" fill="#5F825C"/><path d="M47.014 54.934s.398-1.606-1.78-2.261c-2.176-.655-4.27-.754-5.338-1.537a2.216 2.216 0 0 0-.874-.477 2.25 2.25 0 0 0-1-.05s1.702 2.36 2.527 2.898a16.113 16.113 0 0 0 3.69 2.047c1.577.58 3.042.916 3.042.916l-.267-1.536Z" fill="#5F825C"/><path d="M46.706 55.717s2.925 2.04 2.842 4.818c-.083 2.776-.083 4.162-1.78 5.71-1.696 1.548-4.923 1.634-6.596 2.365-1.673.73-3.671 1.391-4.152 1.797-.48.406-1.5.818-3.001 0-1.501-.817-2.373-.73-2.088-3.02a43.631 43.631 0 0 1 2.17-8.65c.831-2.121 1.567-3.756 3.916-4.405a10.866 10.866 0 0 1 6.773.487c1.477.736 1.916.898 1.916.898Z" fill="#ED6366"/><path d="M32.28 65.177c1.327.488 2.734.737 4.152.737 5.813 0 10.523-3.995 10.523-8.916a7.43 7.43 0 0 0-.095-1.212c.629.493 2.734 2.319 2.663 4.684-.083 2.771-.083 4.163-1.78 5.71-1.696 1.548-4.923 1.635-6.595 2.366-1.673.73-3.672 1.391-4.153 1.797-.48.406-1.5.817-3 0-1.502-.818-2.374-.737-2.089-3.02.09-.603.214-1.34.374-2.145Z" fill="#C73A54"/><path d="M48.004 61.803c.398.052.493-.615.522-1.102a.771.771 0 0 0 0-.37v-.041c0-.047-.065-.058-.07 0a.084.084 0 0 0-.066.04c-.071.157-.937 1.403-.386 1.473Zm-.83-2.516a.059.059 0 0 0 .047.023.06.06 0 0 0 .048-.023 1.012 1.012 0 0 0 .38-.765.753.753 0 0 0 .053-.25.068.068 0 0 0-.03-.063.073.073 0 0 0-.071-.006h-.065a.97.97 0 0 0-.362.485.948.948 0 0 0 0 .6ZM45.46 57.97c.344.267.504-.341.593-.741a1.62 1.62 0 0 0 .107-.377.069.069 0 0 0-.01-.042.073.073 0 0 0-.115-.01c-.166.191-.913.927-.575 1.17Zm-.22 2.587a.053.053 0 0 0 .065.014 1.926 1.926 0 0 0 .315-.374c.207-.226.335-.51.368-.811 0-.047-.047-.105-.1-.081l-.108.07c-.38.272-.83.8-.54 1.182Zm.593 2.591c.22.134.35-.173.421-.492.097-.163.154-.346.166-.534a.068.068 0 0 0-.03-.063.073.073 0 0 0-.07-.006h-.072v.04a1.66 1.66 0 0 0-.361.545c-.06.134-.214.424-.054.51Zm1.122 1.438c.237.15.486-.064.593-.273.059-.142.102-.29.13-.44a.879.879 0 0 0 .125-.383.08.08 0 0 0 0-.11v-.04c0-.047-.077-.094-.125-.053-.195.14-1.085 1.06-.723 1.299Zm-2.301.799c.201.272.397 0 .533-.267a.76.76 0 0 0 .262-.58.063.063 0 0 0-.03-.051.066.066 0 0 0-.06-.007c-.278.105-.955.569-.705.905Zm-1.116-3.356c.172-.203.371-.383.593-.533a.078.078 0 0 1 .117.025c.007.014.01.03.007.044a.708.708 0 0 1-.065.25v.086c-.03.243-.133.47-.296.655-.125.14-.416.21-.534 0-.119-.208.07-.428.178-.527Zm-.332-2.045c.047.18.284.162.403.07a.801.801 0 0 0 .19-.25.824.824 0 0 0 .19-.464.078.078 0 0 0-.032-.067.083.083 0 0 0-.075-.014 1.14 1.14 0 0 0-.439.302c-.107.098-.285.26-.237.423Zm1.02-4.331a.086.086 0 0 1 .06.005.082.082 0 0 1 .041.042.903.903 0 0 1-.332.95.091.091 0 0 1-.114-.006.086.086 0 0 1-.022-.034.452.452 0 0 1-.036-.128.653.653 0 0 1 .032-.493.676.676 0 0 1 .371-.336Zm-2.046 3.188c.177.145.326 0 .432-.232a1.1 1.1 0 0 0 .314-1.026.096.096 0 0 0-.089-.052c-.266.035-.492.4-.592.58-.101.18-.29.556-.066.73Zm-.065-3.329c.034-.041.072-.08.112-.116a.097.097 0 0 1 .13.02c.01.013.016.028.019.044a.867.867 0 0 1-.261.736.325.325 0 0 1 0 .046.234.234 0 0 1-.192.128.242.242 0 0 1-.212-.093c-.255-.255.107-.626.404-.765Zm-2.018 2.123c.119-.24.307-.441.54-.58a.085.085 0 0 1 .094-.003.083.083 0 0 1 .032.037.08.08 0 0 1 .005.048.931.931 0 0 1-.077.313v.098a1.671 1.671 0 0 1-.083.377.49.49 0 0 1-.232.279.097.097 0 0 1-.166 0c-.231-.122-.16-.424-.113-.569Zm-.421-1.403a.06.06 0 0 0 .065 0c.08-.074.153-.153.22-.238.15-.122.276-.27.373-.435a.392.392 0 0 0 .048-.237v-.04c0-.041 0-.07-.06-.053a.212.212 0 0 0-.184-.075c-.397.005-.812.794-.462 1.078Zm-2.396.725c.119.22.398 0 .499-.122.161-.182.273-.401.326-.637a.569.569 0 0 0 .065-.255.085.085 0 0 0-.023-.072.09.09 0 0 0-.072-.027.86.86 0 0 0-.383.152.832.832 0 0 0-.263.312c-.101.168-.255.452-.149.649Zm.588 2.331c.07.18.26.092.332 0 .07-.093.065-.122.095-.18a1.007 1.007 0 0 0 .237-.945.076.076 0 0 0-.05-.046.079.079 0 0 0-.069.011 1.45 1.45 0 0 0-.38.534c-.07.15-.248.417-.165.626Zm2.413 1.002a1.28 1.28 0 0 1 .469-.736.084.084 0 0 1 .084-.022.08.08 0 0 1 .058.063.732.732 0 0 1-.041.319.698.698 0 0 1-.146.352.723.723 0 0 1-.311.227h-.06a.097.097 0 0 1-.08-.026.093.093 0 0 1-.026-.078l.053-.099Zm1.733.684a.09.09 0 0 1 .136.058v.04c0 .325-.231.847-.593.876a.073.073 0 0 1-.056-.014.07.07 0 0 1-.027-.05c.01-.182.064-.36.158-.518a1.17 1.17 0 0 1 .382-.392Zm-2.034 1.055c.073-.073.157-.135.248-.186.048 0 .13 0 .13.052a.958.958 0 0 1-.272.62.642.642 0 0 1-.285.244.067.067 0 0 1-.049 0 .064.064 0 0 1-.034-.035v-.063a.107.107 0 0 1 0-.047.567.567 0 0 1 .261-.585ZM38.42 60.4a.096.096 0 0 1 .066.022.09.09 0 0 1 .034.06.42.42 0 0 1 0 .15.567.567 0 0 1-.154.47.782.782 0 0 1-.35.325c-.036 0-.077 0-.095-.04-.13-.302.071-.992.498-.986Zm-2.676-.364a.093.093 0 0 0 .05.055.096.096 0 0 0 .075.003.874.874 0 0 0 .42-.406.846.846 0 0 0 .066-.574.092.092 0 0 0-.059-.05.096.096 0 0 0-.077.01 1.17 1.17 0 0 0-.332.347.695.695 0 0 0-.143.615Zm.261 2.237c0-.12.032-.236.095-.339a.658.658 0 0 1 .26-.24.091.091 0 0 1 .083.005.087.087 0 0 1 .043.07.721.721 0 0 1-.226.632.335.335 0 0 1-.095.086.097.097 0 0 1-.13-.04.051.051 0 0 1 0-.04.49.49 0 0 1-.03-.134Zm5.434.841a.077.077 0 0 1 .083.075.804.804 0 0 1-.131.436.83.83 0 0 1-.35.3.104.104 0 0 1-.06 0H40.9a.067.067 0 0 1-.054-.013.064.064 0 0 1-.023-.05 1.01 1.01 0 0 1 .213-.449c.108-.13.246-.233.404-.299Zm.628 1.616a.093.093 0 0 0 .077.102.096.096 0 0 0 .048-.003h.041a.054.054 0 0 0 .06 0l.041-.04a1.03 1.03 0 0 0 .433-.68.074.074 0 0 0-.029-.07.078.078 0 0 0-.078-.01 1 1 0 0 0-.45.406.804.804 0 0 0-.143.295Zm-.35 2.042a1.16 1.16 0 0 1 .32-.4 1.32 1.32 0 0 1 .19-.168.097.097 0 0 1 .06 0 .078.078 0 0 1 .086-.007.076.076 0 0 1 .03.033c.008.013.01.029.008.044a.712.712 0 0 1-.182.368.738.738 0 0 1-.358.211h-.047a.072.072 0 0 1-.084-.002.068.068 0 0 1-.023-.078Zm-1.922-.997a.57.57 0 0 1 .237-.43.775.775 0 0 1 .332-.197c.054 0 .125 0 .125.07a.772.772 0 0 1-.178.45.803.803 0 0 1-.415.263.098.098 0 0 1-.071-.019.093.093 0 0 1-.036-.062.046.046 0 0 1-.01-.06.048.048 0 0 1 .016-.016Zm-1.37-2.377h.047a.134.134 0 0 1 .118.01.13.13 0 0 1 .06.1c-.035.295-.29.678-.593.695-.047 0-.112-.035-.106-.087a.757.757 0 0 1 .126-.43.784.784 0 0 1 .348-.288Zm-.961 2.69c.12-.173.292-.304.492-.377a.098.098 0 0 1 .095.012.093.093 0 0 1 .036.086 1.4 1.4 0 0 1-.664.794.096.096 0 0 1-.097.014.094.094 0 0 1-.058-.077.534.534 0 0 1 .196-.452Zm-1.566-1.856a.701.701 0 0 1 .344-.58c.048 0 .137 0 .155.04a.795.795 0 0 1-.069.45.817.817 0 0 1-.305.345.109.109 0 0 1-.164-.037.103.103 0 0 1-.008-.062 1.3 1.3 0 0 1 .047-.156Zm-1.495-1.802a.33.33 0 0 1 .119-.174l.036-.041c.041-.052.154-.035.154.04a.651.651 0 0 1-.119.354.53.53 0 0 1-.207.394.078.078 0 0 1-.106-.021.075.075 0 0 1-.013-.036.798.798 0 0 1 .136-.517Zm1.477-5.008.077-.099c.042-.04.137 0 .137.04a.743.743 0 0 1-.244.627v.034a.072.072 0 0 1-.07.017.071.071 0 0 1-.048-.051.345.345 0 0 1 0-.11.425.425 0 0 1 .148-.459Zm-.712 9.553a.072.072 0 0 0 .125 0l.047-.053a1.049 1.049 0 0 0 .41-.765.086.086 0 0 0-.043-.082.09.09 0 0 0-.094.001c-.255.18-.557.591-.445.899Zm-1.417-1.218a.352.352 0 0 1 .113-.198.5.5 0 0 1 .117-.132.097.097 0 0 1 .12.028.568.568 0 0 1 0 .394.68.68 0 0 1-.202.342.077.077 0 0 1-.068.012.076.076 0 0 1-.05-.047.467.467 0 0 1-.03-.4Zm.243 1.977a.09.09 0 0 1 .127.02c.01.013.015.028.016.044a.952.952 0 0 1-.267.77v.047a.078.078 0 0 1-.142 0 .89.89 0 0 1 .266-.881Zm2.189.852a.097.097 0 0 1 .107.04.057.057 0 0 1 0 .064.712.712 0 0 1-.303.62.09.09 0 0 1-.136-.035.076.076 0 0 1 0-.034.071.071 0 0 1-.075-.05.07.07 0 0 1-.002-.032.76.76 0 0 1 .41-.574Zm2.823-1.397a.091.091 0 0 1 .084-.007.09.09 0 0 1 .035.026c.009.01.015.024.017.038a.89.89 0 0 1-.134.5.918.918 0 0 1-.394.347.127.127 0 0 1-.088 0l-.072.046a.073.073 0 0 1-.064-.008.07.07 0 0 1-.03-.055 1.14 1.14 0 0 1 .21-.523 1.18 1.18 0 0 1 .436-.364Zm4.816-.401a.33.33 0 0 1 .048-.076.29.29 0 0 1 0-.127.635.635 0 0 1 .309-.284c.047 0 .112 0 .13.035a.45.45 0 0 1 0 .249.382.382 0 0 1-.152.235.399.399 0 0 1-.275.072.092.092 0 0 1-.06-.104Z" fill="#E7D8C8"/></g><defs><clipPath id="a"><path fill="#fff" d="M0 0h114v78.621H0z"/></clipPath></defs></svg>