<svg width="133" height="77" fill="none" xmlns="http://www.w3.org/2000/svg"><g clip-path="url(#a)"><path d="M132.835 46.25c0 16.984-29.727 30.75-66.395 30.75C29.772 77 0 63.234 0 46.25c0-16.983 29.727-30.748 66.402-30.748 36.676 0 66.433 13.765 66.433 30.749Z" fill="#DADADA"/><path d="M133 44.857c0 16.992-29.727 30.758-66.403 30.758S.202 61.849.202 44.857c0-16.993 29.727-30.75 66.395-30.75 36.669 0 66.403 13.775 66.403 30.75Z" fill="#F4F4F4"/><path d="M111.687 41.533c0 11.583-20.263 20.973-45.284 20.973-25.021 0-45.284-9.39-45.284-20.973 0-11.582 20.263-20.973 45.284-20.973 25.02 0 45.284 9.391 45.284 20.973Z" fill="#EBEAEA"/><path d="M110.11 41.92c0 10.986-19.572 19.903-43.707 19.903-24.136 0-43.716-8.917-43.716-19.904 0-10.986 19.573-19.894 43.716-19.894 24.142 0 43.707 8.908 43.707 19.894Z" fill="#F4F4F4"/><path d="M66.403 16.282c17.179 0 33.321 3.016 45.449 8.487 5.839 2.63 10.409 5.682 13.584 9.075 3.174 3.393 4.788 6.936 4.788 10.522 0 3.586-1.614 7.18-4.788 10.565-3.175 3.385-7.745 6.445-13.614 9.119-12.128 5.47-28.27 8.487-45.449 8.487-17.178 0-33.329-3.016-45.456-8.487-5.81-2.674-10.41-5.69-13.554-9.075-3.145-3.385-4.78-6.944-4.78-10.565 0-3.622 1.605-7.181 4.78-10.522 3.174-3.34 7.745-6.444 13.584-9.075 12.127-5.524 28.27-8.531 45.456-8.531Zm0-1.096c-35.768 0-64.759 13.082-64.759 29.224 0 16.141 28.991 29.24 64.76 29.24 35.767 0 64.751-13.081 64.751-29.214s-28.992-29.25-64.752-29.25Z" fill="#006EC3"/><path d="M66.402 17.536c16.51 0 32.076 2.805 43.746 7.89 5.658 2.465 10.086 5.34 13.171 8.523 3.084 3.183 4.72 6.664 4.72 10.162 0 3.499-1.583 6.91-4.72 10.154-3.137 3.244-7.505 6.058-13.171 8.53-11.67 5.104-27.213 7.892-43.746 7.892s-32.075-2.814-43.76-7.891c-5.651-2.473-10.08-5.34-13.164-8.531-3.084-3.192-4.72-6.655-4.72-10.154 0-3.498 1.591-6.917 4.72-10.162 3.13-3.244 7.505-6.058 13.164-8.522 11.685-5.112 27.22-7.891 43.76-7.891Zm0-.553c-34.304 0-62.117 12.153-62.117 27.181s27.813 27.18 62.117 27.18c34.305 0 62.11-12.16 62.11-27.18s-27.813-27.18-62.11-27.18Z" fill="#006EC3"/><g style="mix-blend-mode:multiply" fill="#EBEAEA"><path d="m91.37 62.252-.937-1.84-5.08 1.2-.549 1.324L85.84 64.2c1.872.077 3.74-.253 5.508-.973.004-.294.024-.587.06-.877 0 0-.022-.097-.037-.097ZM72.301 12.415c.052.145.12.28.203.404h-.21c0-.132 0-.263.007-.404Z" style="mix-blend-mode:multiply"/><path d="M104.512 48.145a30.19 30.19 0 0 0-4.698-1.316l.42-.07c1.704-.306 1.704-2.297 2.574-1.587.436.351 1.269 1.43 2.252.57.983-.859.525-2.297.961-3.577.435-1.28 1.305-1.175 2.093-.763.788.412 1.501.403 2.252-1.482.75-1.885.045-2.753-.698-3.42-.743-.666-1.441-1.323-1.141-2.086l.09-.22.083-.236c.056-.177.101-.359.135-.544a2.23 2.23 0 0 0 0-.876 1.663 1.663 0 0 0-.075-.28 1.642 1.642 0 0 0-.233-.44c-.488-.648-1.201-.745-2.604 0l1.396-1.902c.147-1.034.22-2.081.217-3.13-2.306-.486-4.454-1.699-6.213-3.507a1.404 1.404 0 0 0-.083-.807l-.045-.149v-.131c0-.027 0 0 0 0v-.097a.206.206 0 0 1 0-.07h.045c.232-.074.46-.164.683-.272.192-.118.359-.286.488-.49.159-.242.271-.52.33-.816-.15.044-.3.07-.45.096a6.156 6.156 0 0 1-2.289-.245 14.768 14.768 0 0 0-2.44-.482c-1.763-.114-3.527-.132-5.253-.14-1.726-.01-3.752 0-5.598-.22s-3.565-.42-5.359-.552a131.453 131.453 0 0 0-10.507-.386c-3.984 0-7.977.14-11.955.307a99.78 99.78 0 0 0-12.007 1.096c-1.959.324-3.91.692-5.861 1.06-1.75.334-3.505.728-5.254.93-1.38.15-2.904.202-4.375.456a24.51 24.51 0 0 0-.263 3.376c-.308.122-.81.306-1.628.57l-.293.096c-2.146.693-3.535 3.34-2.394 5.006.795 1.035 0 2.359-1.936 3.508-1.937 1.148-2.897 3.34-2.184 4.962.713 1.622 2.184.64 2.056 1.92-.128 1.28-.42 1.965 1.096 3.096 1.516 1.13 1.388 1.91.375 3.822-1.013 1.912-.548 2.85.675 4.077.37.384.817.652 1.299.78.285.061.577.061.863 0l.24-.06c.148-.048.29-.119.42-.211l.045-.044a.671.671 0 0 0 .128-.105c.052-.053.09-.114.135-.167.503-.789 1.343-.877 2.349.044h.045a2.612 2.612 0 0 0-1.22.38c-.379.229-.71.55-.971.944-1.059 1.631.465 3.086 1.996 2.543 1.53-.544 1.966-.535 1.598.657a3.238 3.238 0 0 0 .113 2.289l.06.096.038.062.067.096a.38.38 0 0 0 .053.062l.06.078.127.114h.053l.105.07h.06l.12.062h.255c1.2.193 1.223-1.35 1.989-1.166.765.184.84 1.201.81 2.034-.03.833 1.359 2.35 2.687 1.911 1.328-.438 1.546 0 1.981.544.165.304.42.527.715.627.296.1.613.07.891-.083.158-.106.278-.185.36-.255a9.46 9.46 0 0 0 2.252.29 9.467 9.467 0 0 0 4.503-.877c.542.83 1.292 1.443 2.146 1.753h.203c.065.01.13.01.195 0 .077.01.155.01.233 0 2.289-.315 1.959-1.666 2.506-2.63.548-.964.916-.64 1.381-.096a.915.915 0 0 0 .646.365.874.874 0 0 0 .682-.26l5.029 1.13a11.766 11.766 0 0 1 2.251-3.313c.57.876 1.321 1.823 1.914 1.753 1.103-.158.75-2.034 1.779-1.841 1.028.193 1.005 2.394 2.07 2.27a13.65 13.65 0 0 1 3.123 0c.445.07.898 0 1.313-.2l.12-.071h.06l.188-.132.09-.07.09-.087.12-.114.098-.105.142-.158.068-.097.157-.219a.357.357 0 0 1 0-.07c.06-.087.115-.178.165-.272l.053-.105c.061-.11.116-.224.165-.342.326.12.66.205.998.254 2.2.31 4.424-.235 6.33-1.553 1.907-1.317 3.388-3.332 4.215-5.733a2.107 2.107 0 0 0 0 .649c.18 1.298 1.005.561 1.26 1.753.255 1.193-.893 2.263.826 3.087 1.718.824 2.251-1.263 3.685-1.131 1.433.131.93 2.437 2.867 2.744 1.936.307 4.21-2.438 4.21-2.438.046.422.191.82.421 1.15.229.33.533.58.877.718 2.139.588 3.28-.877 3.542-1.754.168-.986.599-1.885 1.231-2.569l.165-.131.135-.114.135-.105.143-.132.165-.166c.327-.375.581-.827.747-1.326a4.336 4.336 0 0 0 .214-1.568c.27-2.358-2.207-4.182-5.764-4.094ZM90.005 53.01c.053-.167.098-.325.143-.491a.918.918 0 0 1-.143.49Zm.713-5.094a4.164 4.164 0 0 0-.247-.93 3.562 3.562 0 0 0-.203-.43c.684.227 1.382.397 2.086.51a6.41 6.41 0 0 0-1.636.85Z" style="mix-blend-mode:multiply"/></g><path d="M37.299 40.192s-4.608-6.137 2.026-12.862c6.634-6.725 29.426-14.958 39.873-11.398 10.447 3.56 16.863 9.03 17.081 15.335.218 6.304-16.856 15.352-23.145 18.246-5.121 2.48-10.854 2.622-16.06.394-4.383-1.841-19.775-9.715-19.775-9.715Z" fill="#58991F"/><path d="M78.989 15.993c-10.447-3.508-33.247 4.726-39.873 11.398-6.627 6.672-2.027 12.863-2.027 12.863s15.393 7.89 19.775 9.714c5.207 2.228 10.94 2.087 16.06-.394 6.29-2.885 23.37-11.942 23.145-18.246-.225-6.304-6.626-11.793-17.08-15.335ZM40.413 35.212c-.189.027-.38.004-.56-.069a1.236 1.236 0 0 1-.476-.35 1.51 1.51 0 0 1-.297-.558 1.688 1.688 0 0 1-.056-.654c.046-.579.51-.877.931-1.035.676-.28 1.418-.166 2.101-.412h.045c.226 1.412-.315 3.017-1.688 3.078Zm21.239-9.189c-.36.623-1.029.658-1.584.92-.68.315-1.264.862-1.674 1.57a2.15 2.15 0 0 1-.54.658c-.57.377-.165-.728-.15-.956.068-.71-.195-1.455.053-2.148.091-.26.233-.494.414-.68a1.53 1.53 0 0 1 .629-.398c.467-.112.942-.17 1.418-.176a1.98 1.98 0 0 1 1.373.28.734.734 0 0 1 .187.452.765.765 0 0 1-.127.478Zm9.643 18.79c-1.153 1.045-2.55 1.656-4.007 1.753a5.884 5.884 0 0 1 .187-2.928c.188-.64.57-1.184.75-1.841.09-.351 0-.684 0-1.035 0-.35.263-.438.451-.666.188-.228.555-.57.81-.877.337-.487.763-.88 1.246-1.149 1.359-.64 1.891 1.29 1.981 2.526a5.583 5.583 0 0 1-.26 2.315 4.89 4.89 0 0 1-1.158 1.902Zm18.484-12.52a3.559 3.559 0 0 1-1.472 1.038 3.12 3.12 0 0 1-1.717.127 1.259 1.259 0 0 1-.676-.505 1.629 1.629 0 0 1-.277-.88c.039-.784.021-1.57-.053-2.35a3.551 3.551 0 0 1-.15-1.573c.068-.53.255-1.031.54-1.452.3-.36.683.553.788.78.256.535.556 1.053 1.126 1.097a3.153 3.153 0 0 1 2.124.5c1.126.894.593 2.288-.225 3.217h-.008Z" fill="#58991F" style="mix-blend-mode:multiply" opacity=".5"/><path d="M40.863 32.52a2.097 2.097 0 0 0-1.118.342c-.308.579-.473 1.394.135 1.797a1.413 1.413 0 0 0 1.426.07c.35-.203.626-.544.781-.963.155-.419.179-.888.067-1.325a5.761 5.761 0 0 0-1.29.08Z" fill="#58991F"/><path d="M42.289 45.321s-5.411 1.85-8.75 6.462c-1.337 1.14-2.582.254-3.648 1.877-1.066 1.622.465 3.086 1.996 2.55 1.531-.534 1.966-.543 1.591.65-.375 1.192-.09 2.858 1.118 3.051 1.209.193 1.224-1.35 1.99-1.166.765.184.84 1.201.802 2.034-.037.833 1.366 2.35 2.695 1.92 1.328-.43 1.546-.044 1.973.535.166.305.422.528.719.628.297.1.615.07.895-.084.585-.404.615-.325.525-1.412-.09-1.087 2.927-7.418 3.955-9.916 1.028-2.5 1.276-2.99 2.132-2.473.855.517 2.311-1.35.292-4.05-2.019-2.701-6.296-1.421-8.285-.606Z" fill="#97C740"/><path d="M50.582 45.944a4.876 4.876 0 0 0-.3-.35c-.398 1.043-1.291 1.437-2.14 1.972-1.327.824-2.768 1.254-4.142 1.92a66.028 66.028 0 0 0-3.94 2.105 6.622 6.622 0 0 0-2.251 1.753c-.514.807-.93 1.692-1.238 2.63-.393 1.186-1.136 2.169-2.094 2.771a5.674 5.674 0 0 1-.878.386c.105.208.25.386.422.518.173.132.37.216.576.245 1.2.193 1.223-1.35 1.989-1.166.765.184.84 1.2.803 2.034-.038.833 1.365 2.35 2.694 1.92 1.328-.43 1.546-.044 1.974.535.165.305.421.528.718.628.297.1.616.07.895-.085.585-.403.615-.324.525-1.411-.09-1.087 2.927-7.418 3.955-9.917 1.029-2.499 1.276-2.972 2.132-2.455.855.518 2.319-1.332.3-4.033Z" fill="#97C740" style="mix-blend-mode:multiply" opacity=".5"/><path d="M39.123 52.493s.457-.42 1.2-.964c.188-.15.39-.29.6-.439l.684-.464.75-.465c.255-.158.51-.307.75-.447l.796-.421c.255-.15.526-.263.75-.377l.751-.324.345-.15.323-.114 1.02-.333.383-.122-.367.175c-.24.105-.578.272-.983.438l-.323.14-.33.176-.75.36c-.256.122-.519.245-.751.394l-.75.43c-.271.131-.526.28-.751.438l-.75.438c-.481.298-.939.562-1.322.807l-.923.596-.352.228Z" fill="#68B42E" style="mix-blend-mode:multiply"/><path d="M42.222 36.729s0-7.26 8.39-10.004c1.318.116 2.575.693 3.608 1.655 1.033.961 1.795 2.263 2.187 3.737l-6.965 9.32-7.22-4.708Z" fill="#D8B523"/><path d="M50.613 26.725a13.624 13.624 0 0 0-4.233 2.21 9.741 9.741 0 0 1 4.503.315c.675.245 2.844 1.482 2.094 2.63-.443.684-1.201.99-1.726 1.587a22.638 22.638 0 0 0-2.252 3.165s-.067.114-.112.088c-1.88-1.368-4.038-2.122-6.252-2.183a8.719 8.719 0 0 0-.368 2.183l7.22 4.708 6.964-9.32c-.396-1.48-1.165-2.786-2.207-3.746-1.041-.96-2.307-1.531-3.631-1.637Z" fill="#D8B523" style="mix-blend-mode:multiply" opacity=".5"/><path d="M61.54 22.402s.817 3.761 1.973 5.585c1.156 1.824-1.156 5.585 2.724 9.83 2.312 2.305 3.295.569 3.753-1.062.458-1.63 1.155-.193 1.98-.096.826.096 1.562.386 2.252-1.447.69-1.833 2.387-.772 3.46-2.315s4.038-15.782-1.23-19.543c-5.27-3.762-16.226 1.823-14.913 9.048Z" fill="#68B42E"/><path d="M65.885 33.818c-.368-1.912-.225-3.946-1.021-5.735a2.645 2.645 0 0 0-.692-1.1c-.31-.29-.68-.479-1.072-.548h-.337c.211.542.462 1.061.75 1.552 1.156 1.833-1.156 5.585 2.724 9.829 1.156 1.157 1.982 1.297 2.582.947-1.45-1.19-2.49-2.942-2.934-4.945Z" fill="#68B42E" style="mix-blend-mode:multiply"/><path d="M76.466 13.354c-5.253-3.762-16.24 1.823-14.919 9.048.32 1.418.742 2.803 1.26 4.139a4.56 4.56 0 0 1 .841-2.201c.75-.877 1.336.657 1.456 1.324.218 1.2.21 2.455.353 3.682.165 1.394.54 2.894 1.704 3.578 1.41.824 3.001.675 4.502 1.236.886.333 1.922 1.035 1.982 2.192.268-.328.477-.716.615-1.14.66-1.833 2.387-.772 3.46-2.315s4.015-15.79-1.254-19.543Z" fill="#68B42E" style="mix-blend-mode:multiply"/><path d="M49.39 60.499s1.928 4.568 4.217 4.252c2.289-.316 1.959-1.683 2.507-2.63.547-.947.915-.65 1.38-.097.466.553 1.269.64 2.042-.877.773-1.516 2.424-8.443.405-10.609-2.019-2.165-10.634-3.366-12.616.728-1.98 4.095 2.064 9.233 2.064 9.233Z" fill="#68B42E"/><path d="M59.94 50.52c-2.018-2.165-10.633-3.366-12.615.728a5.881 5.881 0 0 0-.525 2.99c.23-.472.54-.885.912-1.212a3.227 3.227 0 0 1 1.25-.69 2.29 2.29 0 0 1 1.778.201c.511.422.97.924 1.366 1.49.307.36.708.589 1.14.65.431.06.868-.051 1.239-.316.488-.386.946-1.113 1.5-1.341 1.344-.553 1.674 1.753 1.434 2.858a4.685 4.685 0 0 1-.825 1.876c-.45.579-.998 1.061-1.404 1.675-.795 1.219-.525 2.832-1.313 4.024a3.717 3.717 0 0 1-1.2 1.132c.295.119.61.16.922.122 2.252-.324 1.96-1.683 2.507-2.63.548-.947.916-.649 1.38-.096.466.552 1.27.64 2.042-.877.773-1.517 2.432-8.418.413-10.583Z" fill="#3E9F32"/><path d="M31.22 24.857c-.773.378-1.575.672-2.394.877-2.147.692-3.535 3.34-2.394 5.006.795 1.026 0 2.359-1.936 3.507-1.937 1.149-2.905 3.332-2.184 4.954.72 1.622 2.183.64 2.056 1.912-.128 1.271-.42 1.964 1.096 3.095 1.516 1.13 1.38 1.92.375 3.831-1.006 1.912-.548 2.85.675 4.077 1.224 1.228 2.687.982 3.19.193.503-.789 1.35-.877 2.356.053 1.006.93 1.726 1.526 2.86.982.362-.133.681-.392.913-.743.233-.352.367-.778.385-1.221.173-.737.803-.833 1.643-.737.841.097 1.344-.49 1.299-1.815a2.252 2.252 0 0 0-.233-1.017 1.864 1.864 0 0 0-.645-.736s-2.372-5.103-.646-9.005c1.058-2.744.87-2.744.248-3.752a7.155 7.155 0 0 1-.615-2.964s-2.394-7.532-6.05-6.497Z" fill="#68B42E"/><path d="M39.16 48.873a2.254 2.254 0 0 0-.232-1.018 1.863 1.863 0 0 0-.645-.736s-2.372-5.103-.646-9.005c1.059-2.744.87-2.744.248-3.752a7.154 7.154 0 0 1-.615-2.964s-2.395-7.558-6.05-6.523a10.5 10.5 0 0 1-2.1.789c.23.917.407 1.852.532 2.797a17.939 17.939 0 0 1-.135 5.488c-.405 2.245-1.096 4.48-1.036 6.804.06 2.324 1.044 4.025 1.501 6.138a6.424 6.424 0 0 1 0 3.35c-.411 1.227-1.22 2.216-2.251 2.752.33.116.683.123 1.017.019.333-.104.636-.313.874-.606.503-.78 1.351-.877 2.357.053 1.005.929 1.726 1.525 2.859.982a1.88 1.88 0 0 0 .914-.744c.232-.35.366-.777.384-1.22.173-.737.803-.833 1.644-.737.84.096 1.426-.544 1.38-1.867Z" fill="#3E9F32"/><path d="M57.36 22.586a51.248 51.248 0 0 0-.256 5.033 4.65 4.65 0 0 1-.138 1.755 4.191 4.191 0 0 1-.77 1.515c-.472.754-2.026.807-2.844-.5-.818-1.306-1.899-2.332-4.57-2.218-2.672.114-3.318.053-3.618-1.56a11.844 11.844 0 0 1-.135-4.78c.3-2.366-3.362-6.952-2.589-8.907.773-1.956-1.666-2.315-.285-4.156.945-1.052 1.546-.553 2.364-.15.818.404 2.544.351 2.499-.5a2.472 2.472 0 0 1 .078-.863 2.25 2.25 0 0 1 .368-.755 1.88 1.88 0 0 1 .594-.521c.227-.125.473-.193.724-.201 1.335 0 2.063 1.753 2.018 3.069-.045 1.315 1.674 9.925 6.56 13.739Z" fill="#68B42E"/><path d="M55.483 31.372c.11-.286.205-.579.285-.877.15-.579.308-1.456-.188-1.885-.615-.535-1.418-.299-2.124-.272a7.868 7.868 0 0 1-3.174-.684 8.061 8.061 0 0 1-1.426-.675c-.39-.255-.653-.754-1.05-.973-1.231-.65-1.794.447-2.207 1.665.458.588 1.336.605 3.22.5 2.664-.149 3.752.877 4.562 2.219.237.376.56.668.93.842.372.173.778.222 1.172.14Z" fill="#68B42E"/><path d="M57.359 22.586c-4.886-3.814-6.59-12.433-6.552-13.74.037-1.306-.683-3.068-2.019-3.068a1.61 1.61 0 0 0-.72.196 1.873 1.873 0 0 0-.594.514 2.239 2.239 0 0 0-.37.747 2.47 2.47 0 0 0-.087.858c0 .534-.638.754-1.343.745.196.366.45.685.75.938.405.289.878.42 1.351.377.18-.03.365-.014.539.05.174.064.334.173.467.318.57.754-.165 1.824-.623 2.333-.953 1.06-1.869 1.964-2.132 3.507a6.064 6.064 0 0 1-.998 2.928 3.923 3.923 0 0 1-.405.421c.294.653.434 1.385.405 2.122a11.84 11.84 0 0 0 .173 4.778c.05.313.152.61.3.877.338-1.026.803-1.981 1.779-1.946.243.024.48.105.697.237.216.133.408.314.564.534.5.455 1.075.786 1.688.974a8.394 8.394 0 0 0 3.978.727c.563-.044 1.433-.061 1.756.623.188.53.188 1.126 0 1.657a9.882 9.882 0 0 1-.33.99c.227-.07.43-.223.578-.438.35-.432.612-.95.769-1.515a4.649 4.649 0 0 0 .139-1.755 51.26 51.26 0 0 1 .24-4.989Z" fill="#3E9F32"/><path d="M33.81 36.58c-1.356-2.263-2.293-4.832-2.75-7.542a23.112 23.112 0 0 1 .093-8.197c1.291-6.287 3.888-9.25 5.126-8.522 1.238.727 1.463.21 2.109-.798a1.89 1.89 0 0 1 .663-.574 1.61 1.61 0 0 1 1.606.078c.245.155.457.372.62.636.87 1.122 1.426 1.193 2.041.938.616-.254 2.665.403 2.38 2.534-.286 2.13 0 2.06.435 3.577s.75 4.586-1.299 6.752c-.803.719-.893 1.482-.923 2.884-.03 1.403-.563 3.358-3.19 3.323-1.725-.14-2.813.106-3.399 1.622-.585 1.517-.353 2.947-1.636 3.797-.953.614-1.876-.508-1.876-.508Z" fill="#97C740"/><path d="M46.11 18.71c-.406-1.516-.713-1.446-.436-3.577.278-2.13-1.756-2.78-2.379-2.533-.623.245-1.17.184-2.04-.939a1.944 1.944 0 0 0-1.116-.809c-.44-.111-.9-.042-1.301.195a5.76 5.76 0 0 1-.353 3.122c-1.396 3.884-3.963 6.962-5.351 10.88a17.563 17.563 0 0 0-.826 6.384c.05.52-.029 1.046-.225 1.517a17.638 17.638 0 0 0 1.726 3.63s.923 1.122 1.854.508c1.283-.877 1.05-2.27 1.636-3.796.586-1.526 1.674-1.754 3.4-1.622 2.626 0 3.152-1.912 3.19-3.323.037-1.412.12-2.166.922-2.885 2.012-2.166 1.719-5.234 1.299-6.751Z" fill="#97C740" style="mix-blend-mode:multiply" opacity=".5"/><g style="mix-blend-mode:multiply" fill="#68B42E"><path d="M33.269 35.545a8.337 8.337 0 0 1-.203-.754c-.045-.246-.12-.544-.165-.877 0-.167-.06-.36-.09-.552-.03-.193 0-.404-.06-.623-.06-.22 0-.438-.053-.675-.052-.237 0-.474 0-.719a15.923 15.923 0 0 1 0-1.57c0-.271 0-.552.06-.832.06-.281.068-.553.098-.877.03-.325.082-.57.135-.877.052-.307.105-.57.15-.877.135-.56.285-1.122.428-1.666l.525-1.56c.195-.491.398-.965.585-1.412.09-.22.203-.42.3-.631.098-.21.21-.395.3-.579.164-.347.347-.68.549-1l.457-.736.398-.64s-.127.245-.36.666l-.42.772c-.173.29-.323.64-.503 1.017l-.278.587a6.88 6.88 0 0 0-.278.65c-.18.446-.36.92-.555 1.402-.195.482-.322 1.105-.518 1.63-.195.527-.285 1.097-.412 1.65l-.158.832c-.053.28-.113.561-.143.877a7.3 7.3 0 0 0-.037.763c0 .245-.045.543-.068.815-.045.535-.052 1.052-.067 1.543v1.395c0 .219 0 .42.045.613s0 .377.06.553c.028.294.07.587.127.876.045.246.075.448.105.58l.046.236Z" style="mix-blend-mode:multiply"/><path d="M33.02 27.6c.011-.115.031-.23.06-.341.03-.134.065-.265.106-.395.047-.165.105-.326.172-.482.077-.19.162-.374.256-.552a5.84 5.84 0 0 1 .322-.596c.128-.185.248-.404.398-.588.15-.184.285-.386.443-.57.157-.184.308-.36.473-.535.165-.175.322-.333.487-.482.166-.149.323-.298.473-.42l.443-.351c.123-.103.25-.196.383-.281l.3-.202.263-.175-.233.228c-.158.131-.375.324-.63.561l-.413.377c-.143.14-.285.298-.443.447-.158.15-.308.325-.465.5-.158.175-.315.342-.458.526-.143.184-.3.368-.443.552-.142.184-.27.377-.405.562-.135.184-.24.368-.345.543a7.544 7.544 0 0 0-.638 1.342 3.14 3.14 0 0 0-.105.333Zm1.502-5.435a1.262 1.262 0 0 1-.098-.167 3.788 3.788 0 0 1-.203-.482 3.64 3.64 0 0 1-.082-.342.644.644 0 0 1-.045-.184 1.616 1.616 0 0 1 0-.202c0-.131 0-.271-.053-.42-.052-.15 0-.29 0-.43a4.445 4.445 0 0 1 0-.447c0-.14 0-.28.06-.412.06-.132.045-.263.06-.386s.068-.228.098-.342l.165-.482.068-.184c.005.067.005.134 0 .201 0 .123-.038.298-.068.509a3.841 3.841 0 0 0-.06.342v.377c0 .131 0 .271-.045.403s0 .28 0 .42v1.193c0 .053 0 .237.045.342.045.105.037.202.052.28.015.08.038.159.053.22s.053.193.053.193Z" style="mix-blend-mode:multiply"/></g><path d="M49.472 40.595a16.087 16.087 0 0 1 2.424-5.353c1.11-1.575 2.48-2.87 4.03-3.81 1.501-.876 1.636-.762 2.552-2.182.585-.832 1.347-1.47 2.21-1.848a4.547 4.547 0 0 1 2.705-.31c1.914.465 2.064 2.342 1.614 4.455-.45 2.113.082 2.507 1.238 4.384 1.156 1.876 1.771 4.813.66 6.593-1.11 1.78-1.073 1.754-1.155 3.087-.083 1.332-.75 1.753-1.936 2.025s-1.449.719-2.147 2.358c-.698 1.64-1.891 2.017-3.414 1.877-1.524-.14-1.321-2.017-2.56-.816-1.238 1.202-2.679 2.63-4.502 1.202-1.824-1.43-1.074-2.026-.864-2.894.21-.868-.825-.771-1.605-.666-1.111.14-.871-.675-.496-2.56.375-1.886.796-2.903 1.246-5.542Z" fill="#97C740"/><path d="M66.245 35.948c-1.156-1.876-1.689-2.262-1.238-4.384.405-1.902.315-3.612-1.104-4.278-.05.274-.135.537-.255.78a6.449 6.449 0 0 1-1.125 1.526 62.075 62.075 0 0 0-1.824 2.025c-2.466 3.016-4.437 6.534-5.816 10.381a27.333 27.333 0 0 0-.998 3.113c-.203.877-.293 1.753-.556 2.525-.326 1.07-.903 2.013-1.666 2.718-.438.389-.92.704-1.433.938.273.389.6.72.968.982 1.816 1.394 3.257 0 4.503-1.201 1.245-1.201 1.028.675 2.559.816 1.53.14 2.717-.237 3.415-1.877.698-1.64.953-2.07 2.146-2.358 1.193-.29 1.854-.676 1.936-2.026.083-1.35 0-1.297 1.156-3.086s.48-4.726-.668-6.594Z" fill="#97C740" style="mix-blend-mode:multiply" opacity=".5"/><path d="M88.459 36.141s-.09-2.446 1.696-2.192c1.403.105 1.703-.763 1.921-2.095.218-1.333 1.186-2.859 3.235-2.043 2.048.815 6.942 3.42 9.17 1.99 2.229-1.43 3.183-1.482 3.798-.666.615.815.263 1.885-.045 2.63-.308.745.39 1.43 1.133 2.087.743.658 1.441 1.534.698 3.42-.743 1.885-1.501 1.885-2.251 1.481-.751-.403-1.659-.508-2.094.763-.436 1.271.037 2.71-.968 3.569-1.006.859-1.839-.21-2.252-.562-.87-.71-.87 1.28-2.574 1.587-1.704.307-5.629.746-7.85.316s-4.143-.798-4.458-3.507c-.315-2.71 1.14-4.253.84-6.778Z" fill="#68B42E"/><path d="M109.367 35.834c-.75-.657-1.44-1.324-1.133-2.086.173-.329.286-.695.334-1.076a3.35 3.35 0 0 0-.056-1.143 4.833 4.833 0 0 0-1.719.877 7.587 7.587 0 0 0-1.966 2.499c-.368.79-.578 1.648-.885 2.472a3.033 3.033 0 0 1-.751 1.246 5.21 5.21 0 0 1-1.876.833 16.73 16.73 0 0 1-2.417.543 4.21 4.21 0 0 0-1.388.298 7.41 7.41 0 0 0-.84.684c-.602.42-1.272.69-1.967.79a7.565 7.565 0 0 0-2.311 1.14c-.75.464-2.327 1.542-2.695.078-.067-.316-.097-.658-.187-.956-.09-.298-.3-.754-.406-1.148a2.64 2.64 0 0 1 .323-1.701 3.92 3.92 0 0 0 .458-1.535 4.127 4.127 0 0 0-.39-1.57 8.904 8.904 0 0 0-.593-1.262l-.12-.175a3.447 3.447 0 0 0-.293 1.464c.3 2.525-1.178 3.98-.87 6.725.307 2.744 2.251 3.104 4.457 3.507 2.207.404 6.147 0 7.85-.315 1.704-.316 1.704-2.298 2.575-1.587.427.35 1.268 1.429 2.251.56.983-.867.533-2.288.968-3.568.435-1.28 1.306-1.175 2.094-.762.788.412 1.501.403 2.251-1.482.751-1.885.045-2.683-.698-3.35Z" fill="#3E9F32"/><path d="M65.292 58.42s1.666 3.411 2.777 3.254c1.11-.158.75-2.043 1.77-1.841 1.021.201 1.006 2.384 2.08 2.27 1.035-.12 2.078-.12 3.114 0 .908.123 2.35-.114 3.287-3.095.938-2.98 5.164-10.758 9.126-14.66 1.854-1.946 1.561-2.025 1.2-3.463-.36-1.438.143-1.306.586-2.096.443-.789.225-2.323-.75-3.735-.976-1.411-2.042-.394-3.002 0-.96.395-.84 0-1.501-.877-.66-.876-1.824-.394-3.197.518-1.374.912-1.501 2.104-2.74 1.28a2.053 2.053 0 0 0-.934-.387 1.947 1.947 0 0 0-.986.12 2.223 2.223 0 0 0-.847.604c-.24.272-.425.603-.542.97-.645 1.674.323 4.076-1.118 6.523-2.042 3.507-2.17 4.19-4.698 5.927-2.53 1.736-4.488 6.33-3.625 8.689Z" fill="#97C740"/><path d="M89.195 38.824c.45-.789.225-2.323-.751-3.735a1.784 1.784 0 0 0-.278-.324 44.776 44.776 0 0 0-5.148 3.507 34.914 34.914 0 0 0-3.264 2.937c-.48.491-.954.973-1.457 1.43a4.945 4.945 0 0 0-1.403 1.753c-.299.978-.87 1.812-1.62 2.367-.294.176-.616.28-.945.305a2.093 2.093 0 0 1-.97-.156 5.882 5.882 0 0 1-1.208-.64c-.808 1.49-1.943 2.701-3.287 3.507-2.537 1.754-4.435 6.33-3.61 8.69.262.521.55 1.025.863 1.507.566-1.012 1.395-1.786 2.364-2.21a2.51 2.51 0 0 1 1.295-.257 2.58 2.58 0 0 1 1.257.442c.315.29.593.763 1.035.78.443.018.819-.385 1.269-.412 1.373-.079 2.251 1.973 2.566 3.218.045.184.098.368.143.561.75-.263 1.614-1.017 2.251-3.007.939-2.972 5.164-10.758 9.126-14.66 1.854-1.947 1.561-2.026 1.201-3.463-.36-1.438.128-1.35.57-2.14Z" fill="#97C740" style="mix-blend-mode:multiply" opacity=".5"/><path d="M90.929 10.802a6.47 6.47 0 0 1 3.587-.824c1.771.245 1.606 1.157 1.5 1.876-.104.719.571.728 2.02.096 1.448-.63 2.386-.526 3.092.439.705.964.45 1.753-.083 2.788s-.578 1.832.45 2.218c.243.12.458.306.628.541.17.236.29.515.35.815.06.3.058.612-.005.912a2.082 2.082 0 0 1-.357.81c-.698 1.06-1.561.342-1.194 1.35.368 1.008-.33 1.35-.33 1.35l-9.846-4.138s-3.025-2.937.188-8.233Z" fill="#97C740"/><path d="M101.615 20.964a3.422 3.422 0 0 1-1.208-1 11.564 11.564 0 0 1-1.389-2.63c-.293-.71-.66-2.183-1.5-2.245-.841-.061-1.787.483-2.612.675-.63.14-1.674.483-2.252-.07-.698-.675-.293-2.016-.188-2.893a7.718 7.718 0 0 0-.097-2.578c-.5.148-.988.35-1.456.605-3.212 5.26-.203 8.233-.203 8.233l9.854 4.112s.706-.333.33-1.35c-.277-.78.173-.526.721-.86Z" fill="#97C740" style="mix-blend-mode:multiply"/><path d="m96.811 14.993-6.221 3.314a.305.305 0 0 1 0 .07c-.233 2.061.052 5.261 2.822 8.716 4.66 5.77 9.756 5.997 9.756 5.997l4.128-7.014c-8.458-1.789-10.485-11.083-10.485-11.083Z" fill="#F2D038"/><path d="M93.344 27.093c-2.769-3.437-3.054-6.655-2.821-8.716-.098.202-.428.877-1.141 2.245.375 11.916 13.794 13.906 13.794 13.906l-.105-1.438s-5.066-.228-9.727-5.997Z" fill="#6C8424"/><path d="m107.198 26.12-4.127 7.014.105 1.438 3.797-5.26a20.5 20.5 0 0 0 .225-3.192Z" fill="#E39042"/><path d="M73.757 16.606s3.888 1.044 3.843 2.797c-.045 1.754.3 3.148 3.144 4.139 2.844.99 4.593.877 6.754 2.98 2.162 2.105 3.753 1.754 4.398-2.156.646-3.91-.653-5.953-1.448-7.47-.796-1.517-.255-2.394.795-3.622 1.051-1.227.548-3.086-1.643-4.383-2.192-1.298-.653-1.807-1.651-3.613s-2.544-1.753-3.753-1.289c-1.208.465-1.598.062-1.5-1.63.097-1.693-1.254-2.552-2.597-2.36-1.344.194-1.771 1.614-2.252 2.105-.795.816-.698.465-1.696-.175s-2.694.052-2.544 2.797c.15 2.744-.255 2.858-.856 3.91-.6 1.052-1.5 2.57-.345 3.797 1.156 1.227-1.41 3.104 1.351 4.173Z" fill="#68B42E"/><path d="M89.863 25.199a32.985 32.985 0 0 1-5.028-7.207c-.923-1.64-1.906-3.788-3.67-4.253-1.178-.307-2.251-.596-3.062-1.753-1.343-1.85-1.103-4.753-.66-6.945A26.496 26.496 0 0 1 78.629.973c-.323.439-.548.877-.751 1.131-.796.816-.698.465-1.696-.175s-2.694.052-2.544 2.797c.15 2.744-.255 2.858-.856 3.91-.6 1.052-1.5 2.57-.345 3.797 1.156 1.227-1.41 3.069 1.35 4.138 0 0 3.888 1.044 3.843 2.797-.045 1.754.3 3.148 3.145 4.139 2.844.99 4.593.877 6.754 2.98 1.711 1.632 3.002 1.754 3.828-.07a12.119 12.119 0 0 1-1.494-1.218Z" fill="#3E9F32"/><g style="mix-blend-mode:multiply" fill="#68B42E"><path d="M76.684 10.127s.158.237.458.649c.399.565.83 1.098 1.29 1.595.302.332.643.61 1.014.825.405.228.84.403 1.298.605.458.201.938.394 1.419.649.12.052.232.131.352.192.12.068.235.144.346.228.118.078.234.163.345.255l.15.131.157.167c.363.452.683.949.953 1.482.27.508.518 1.034.751 1.534.233.5.443 1 .668 1.447.11.218.23.429.36.631.12.202.233.395.353.579.218.377.428.719.608 1.026.18.306.352.56.488.78l.42.675-.465-.649c-.143-.201-.323-.447-.518-.745l-.653-.99c-.113-.185-.24-.37-.368-.57-.127-.203-.263-.395-.383-.623a67.818 67.818 0 0 1-.705-1.438c-.24-.5-.48-1.009-.75-1.517a8.153 8.153 0 0 0-.931-1.412l-.135-.149-.15-.14c-.09-.079-.21-.158-.316-.237a2.795 2.795 0 0 0-.33-.22 3.435 3.435 0 0 0-.345-.192c-.458-.254-.938-.456-1.388-.658a11.542 11.542 0 0 1-1.306-.648 4.387 4.387 0 0 1-1.028-.877 9.395 9.395 0 0 1-.75-.92c-.204-.29-.376-.544-.511-.755l-.398-.71Z" style="mix-blend-mode:multiply"/><path d="M86.358 20.964s-.195 0-.465-.096l-.218-.062-.247-.061c-.165 0-.346-.088-.518-.14a11.84 11.84 0 0 1-.96-.369c-.256-.114-.436-.228-.436-.228.156.01.311.031.465.062.278.052.638.14.998.254l.526.184c.149.054.294.122.435.202.255.14.42.254.42.254ZM79.994 6.655c.004.173.02.346.045.517.056.443.144.88.263 1.307.07.297.155.59.255.876.045.15.105.298.165.447.06.15.12.307.187.456.135.307.3.614.458.921l.263.456c.09.149.188.29.285.438.195.298.405.553.615.877l.6.816c.204.263.354.56.526.815.152.248.292.506.42.772.114.217.21.446.286.684l.06.157a.844.844 0 0 0 0 .15c0 .096.045.183.06.262.013.128.013.258 0 .386a.628.628 0 0 1 0 .132.39.39 0 0 0 0-.14 2.072 2.072 0 0 0-.053-.36c0-.079-.052-.167-.082-.254l-.045-.14-.068-.15a8.377 8.377 0 0 0-.773-1.377l-.263-.376a4.224 4.224 0 0 0-.277-.395l-.616-.798c-.202-.271-.435-.552-.63-.877l-.285-.447c-.09-.166-.18-.315-.27-.473a12.03 12.03 0 0 1-.45-.956 4.588 4.588 0 0 1-.18-.473 11.659 11.659 0 0 1-.151-.474 8.95 8.95 0 0 1-.218-.877 8.776 8.776 0 0 1-.165-1.35c.004-.185.016-.37.038-.552Zm4 2.613v.263c0 .166.06.403.09.683.03.281.067.623.09.982.022.36.045.746.06 1.132.015.385 0 .762 0 1.122 0 .36 0 .701-.045.99-.045.29-.06.527-.075.693v.263-1.936c0-.351 0-.746-.038-1.123-.037-.377 0-.763 0-1.122V9.531c0-.176-.082-.263-.082-.263Z" style="mix-blend-mode:multiply"/></g><path d="M91.236 11.539c-.243-.876-.726-1.634-1.374-2.157a4.67 4.67 0 0 0-1.388-.614c-.953-.368-.87-1.438-.878-2.332 0-2.324-1.621-2.736-3.205-1.92-.06 0-.322.157-.202.122 1.23-.386 2.544-.42 3.002 1.272.232.815-.098 1.683.172 2.48.126.265.302.492.514.665.212.173.454.288.71.335a3.949 3.949 0 0 1 1.619.957 4.807 4.807 0 0 1 1.112 1.674c.09.175-.037-.333-.082-.482Z" fill="#89BD27" style="mix-blend-mode:screen"/><g style="mix-blend-mode:multiply" fill="#97C740"><path d="M61.657 30.407s-.18.228-.48.65c-.3.42-.75 1.016-1.201 1.753-.24.377-.51.771-.75 1.21l-.413.666-.413.71c-.293.474-.556.991-.84 1.508-.286.518-.534 1.052-.796 1.596a39.295 39.295 0 0 0-.75 1.63c-.113.281-.226.553-.33.825-.053.132-.113.263-.166.403-.053.14-.09.272-.143.404l-.27.798c-.045.122-.09.254-.142.377-.053.122-.068.263-.105.385-.075.255-.143.5-.21.737-.068.237-.143.465-.188.693-.098.447-.188.876-.27 1.227-.083.35-.105.702-.15.965l-.12.876s0-.306.075-.876c0-.264.044-.597.105-.974.06-.377.142-.798.232-1.253.04-.238.092-.472.158-.702.067-.245.127-.49.195-.754 0-.123.067-.254.105-.386l.12-.394.27-.807.135-.412c.06-.132.113-.272.165-.403.106-.281.218-.553.323-.877.225-.561.488-1.105.75-1.666.263-.561.541-1.07.819-1.596.277-.526.563-1.026.855-1.5.15-.236.285-.473.428-.71.143-.236.293-.438.428-.657.277-.42.555-.815.803-1.175.51-.728.96-1.297 1.283-1.7.323-.404.488-.57.488-.57Z" style="mix-blend-mode:multiply"/><path d="M57.937 35.878s0 .158-.09.421-.12.658-.188 1.123c-.045.228-.067.482-.105.754-.037.271-.052.552-.082.876-.03.325-.045.597-.053.877-.007.28 0 .623 0 .938v.939c0 .315 0 .605.06.876.06.272.06.57.09.877l.045.386.068.36c.045.227.067.447.112.63.046.185.076.351.106.483.06.272.09.42.09.42s-.053-.14-.136-.403l-.15-.464a12.648 12.648 0 0 1-.157-.623c-.053-.228-.06-.236-.083-.368-.022-.131-.052-.254-.067-.386-.045-.263-.105-.552-.135-.877-.03-.324-.068-.605-.083-.876-.015-.272 0-.632 0-.947v-.947c0-.307.06-.623.083-.92.06-.54.146-1.076.255-1.605.097-.465.21-.877.285-1.096.075-.22.135-.448.135-.448Zm.6-1.008-.24.105c-.15.07-.36.176-.6.316s-.533.316-.826.517c-.15.094-.3.199-.45.316l-.443.36c-.15.122-.292.254-.428.385-.135.132-.27.272-.397.404-.128.131-.24.271-.353.394-.11.117-.213.243-.308.377-.082.123-.18.22-.247.325-.068.105-.136.192-.18.263l-.166.227.136-.28.15-.29c.06-.113.135-.236.217-.368.085-.147.178-.287.278-.42.105-.132.21-.29.338-.43a5.08 5.08 0 0 1 .397-.43 4.17 4.17 0 0 1 .436-.403c.146-.13.299-.251.458-.36.157-.122.315-.21.472-.315.281-.17.572-.317.87-.439a4.68 4.68 0 0 1 .654-.219c.077-.017.154-.029.232-.035Z" style="mix-blend-mode:multiply"/></g><path d="M50.98 14.485s-2.333-6.235 1.824-8.909c1.501-.605 3.835.22 5.148-1.587 1.314-1.806 2.102-2.016 3.46-1.306a5.313 5.313 0 0 0 2.402.77 5.185 5.185 0 0 0 2.461-.446 4.62 4.62 0 0 1 2.608-.62 4.75 4.75 0 0 1 2.533.953c1.501 1.202 2.62 3.657 1.449 5.673-1.171 2.017-.819 2.841-.931 3.99-.113 1.148-.983 3.121-3.415 3.279-2.431.158-3.002.544-3.557 2.297-.555 1.754-1.448 6.138-4.856 5.953-3.407-.184-7.25-5.848-9.125-10.047Z" fill="#97C740"/><path d="M71.416 3.34a4.2 4.2 0 0 0-1.208-.71 9.43 9.43 0 0 1-1.501 1.14c-1.344.798-2.815 1.218-4.21 1.885-3.333 1.596-6.837 5.927-8.256 9.846-.848 2.368-.39 3.306-1.096 5.743 1.569 1.841 3.303 3.192 4.946 3.27 3.407.167 4.345-4.208 4.856-5.953.51-1.745 1.126-2.13 3.557-2.297 2.432-.167 3.317-2.13 3.415-3.28.097-1.148-.24-1.963.93-3.989 1.171-2.025.068-4.454-1.433-5.655Z" fill="#97C740" style="mix-blend-mode:multiply" opacity=".5"/><path d="m85.007 60.972-.578 1.298 1.028 1.262.353-1.008-.803-1.552Z" fill="#F5ACA2"/><path d="M85.458 63.532a13.174 13.174 0 0 0 5.516-.973c.052-1.219.075-.877.075-.877l-5.254.877-.337.973Z" fill="#EF7E8A"/><path d="m85.007 60.972.803 1.552 5.238-.885-.953-1.868-5.088 1.201Z" fill="#F39B99"/><path d="M90.058 47.557s3.534-3.91 14.154-.079c3.572-.096 6.004 1.754 6.004 4.13a4.306 4.306 0 0 1-.449 2.14c-.327.647-.811 1.165-1.39 1.49-.706.56-.968 1.7-1.231 2.569-.263.868-1.403 2.367-3.535 1.753-1.118-.298-1.305-1.867-1.305-1.867s-2.252 2.744-4.21 2.437c-1.96-.307-1.412-2.63-2.86-2.744-1.448-.114-1.974 1.955-3.692 1.131-1.719-.824-.556-1.868-.818-3.086-.263-1.22-1.081-.483-1.269-1.754-.187-1.271.676-1.526.226-2.043-.45-.517-.518-2.99.375-4.077Z" fill="#97C740"/><path d="M106.395 54.08a10.664 10.664 0 0 1-4.585-1.14c-1.501-.876-2.86-2.086-4.458-2.63a12.7 12.7 0 0 0-4.18-.806 10.889 10.889 0 0 0-3.813.605 2.815 2.815 0 0 0 .323 1.534c.45.517-.405.736-.225 2.043.18 1.306 1.005.57 1.268 1.753.263 1.184-.893 2.263.818 3.087 1.711.824 2.251-1.263 3.692-1.131 1.441.131.931 2.437 2.86 2.744 1.928.307 4.21-2.438 4.21-2.438s.188 1.57 1.306 1.868c2.131.588 3.279-.877 3.534-1.754.256-.876.526-2.007 1.231-2.569a4.366 4.366 0 0 0 1.299-1.376 10.838 10.838 0 0 1-3.28.21Z" fill="#97C740" style="mix-blend-mode:multiply" opacity=".5"/><g style="mix-blend-mode:multiply" fill="#97C740"><path d="M90.643 49.416h1.943l.946.08c.338 0 .69.078 1.05.14.361.061.751.149 1.112.228.36.079.75.193 1.14.306l.563.193.278.097.278.114c.36.149.75.29 1.058.465.327.153.645.332.953.534l.428.272.21.123.187.149.668.517.481.447c.255.263.412.404.412.404l-.442-.35c-.143-.115-.308-.264-.503-.413l-.691-.465-.187-.131-.203-.123-.443-.245c-.293-.176-.623-.325-.953-.483-.33-.157-.69-.298-1.05-.447l-.27-.114-.278-.087-.563-.185a25.96 25.96 0 0 0-1.118-.315 13.78 13.78 0 0 0-1.104-.246c-.352-.061-.698-.131-1.028-.175-.33-.044-.645-.088-.938-.123a28.665 28.665 0 0 0-1.403-.123l-.533-.044Z" style="mix-blend-mode:multiply"/><path d="m96.497 50.091.218-.157a4.65 4.65 0 0 1 .6-.342l.42-.185c.15-.052.308-.122.48-.166.173-.044.346-.105.519-.14.172-.035.367-.07.547-.106l.556-.052h.54a3.03 3.03 0 0 1 .495 0c.151.008.301.025.451.052.135 0 .262 0 .367.07l.286.07.247.07h-1.838c-.346 0-.706.053-1.059.106l-.54.088-.518.114a10.7 10.7 0 0 0-.9.263 7.478 7.478 0 0 0-.87.315Zm-3.437-.631a5.07 5.07 0 0 1 1.072.605c.188.123.376.29.57.447l.271.263c.09.084.175.175.255.272l.218.272.188.254.225.42c.031.054.059.11.082.167l-.12-.122c-.067-.097-.18-.21-.293-.351l-.21-.21-.24-.246c-.075-.079-.172-.149-.255-.237l-.27-.254-.278-.237-.263-.228-.48-.403-.473-.412Z" style="mix-blend-mode:multiply"/></g><g style="mix-blend-mode:multiply" fill="#68B42E"><path d="M55.94 16.123a.492.492 0 0 1 .038-.105c0-.097.075-.228.128-.404.12-.35.292-.876.548-1.429.12-.289.262-.596.42-.92.157-.325.338-.658.54-.982.203-.325.406-.675.63-1.009.226-.333.466-.666.751-.99a18.595 18.595 0 0 1 1.576-1.754c.27-.263.533-.5.796-.71.262-.21.51-.412.75-.588.24-.175.45-.333.653-.456l.51-.324.45-.254-.427.307c-.143.096-.3.228-.488.368-.188.14-.39.316-.615.49-.226.176-.466.395-.75.623-.286.228-.496.474-.751.737a17.462 17.462 0 0 0-1.501 1.753c-.248.307-.48.632-.75.956-.27.325-.444.649-.639.982a21.105 21.105 0 0 0-1.013 1.841 25.65 25.65 0 0 0-.623 1.368c-.067.176-.127.298-.165.386a.603.603 0 0 1-.045.105l-.022.01Z" style="mix-blend-mode:multiply"/><path d="M59.73 6.137s-.06.28-.142.693c-.053.21-.09.456-.15.71 0 .123-.045.263-.075.395-.03.131-.06.271-.083.403l-.067.43a4.159 4.159 0 0 0-.068.403c0 .254-.09.5-.112.71-.023.21-.053.386-.068.509a.642.642 0 0 0 0 .192v-.718a6.752 6.752 0 0 1 0-.737 3.88 3.88 0 0 1 .045-.403l.068-.43a12.4 12.4 0 0 1 .187-.807 7.56 7.56 0 0 1 .225-.692c.066-.226.146-.446.24-.658Z" style="mix-blend-mode:multiply"/></g><g style="mix-blend-mode:multiply" fill="#97C740"><path d="m75.588 47.434.233-.526c.157-.324.382-.789.683-1.324.15-.271.322-.552.502-.876.18-.325.383-.614.593-.93.21-.316.443-.631.683-.947.24-.315.48-.631.75-.938l.383-.456.406-.43c.262-.289.532-.552.795-.806s.533-.491.75-.71l.368-.316.36-.272c.233-.175.443-.333.639-.465l.502-.324.443-.272-.413.325-.487.36-.6.508-.354.29-.352.332c-.24.228-.503.465-.75.728-.248.263-.526.526-.751.815l-.39.439-.383.456c-.263.298-.503.614-.75.92-.248.307-.466.623-.691.877-.225.254-.42.605-.616.877-.195.272-.367.561-.532.824-.323.509-.578.947-.75 1.263-.173.315-.271.578-.271.578Z" style="mix-blend-mode:multiply"/><path d="m76.008 46.75.12-.14.353-.342.262-.193a2.88 2.88 0 0 1 .293-.202l.33-.192c.111-.066.227-.122.345-.167l.353-.158.353-.105.338-.088c.099-.024.199-.042.3-.052l.458-.044h.172l-.165.061-.435.15a2.122 2.122 0 0 0-.285.096l-.316.122-.345.132-.337.15c-.113.052-.233.096-.346.157l-.323.166a2.748 2.748 0 0 0-.307.158l-.27.15-.398.245-.15.096Zm1.066-2.174a6.56 6.56 0 0 1 0-.693c.014-.51.067-1.017.158-1.516.052-.264.097-.544.165-.79.057-.226.125-.448.203-.666.067-.193.135-.35.18-.465l.075-.166v.184c0 .114-.045.29-.09.49-.045.203-.075.44-.128.685l-.067.394-.068.395c-.052.263-.09.535-.142.789-.053.254-.083.482-.12.684l-.09.482-.076.193Z" style="mix-blend-mode:multiply"/></g><path d="M89.99 44.48s.173-.14.495-.369c.323-.228.75-.561 1.351-.92.6-.36 1.239-.763 1.966-1.158l1.149-.587c.39-.184.75-.377 1.193-.553.443-.175.81-.342 1.216-.482.405-.14.803-.298 1.2-.42.398-.123.75-.237 1.134-.325.382-.088.698-.184 1.02-.228l.871-.15.683-.07.585-.052-.585.105-.668.123-.856.202c-.322.061-.653.184-1.013.28-.36.097-.75.228-1.118.36-.368.131-.75.28-1.178.43-.428.148-.803.333-1.201.5-.398.166-.803.359-1.2.534-.399.175-.751.368-1.142.561-.39.193-.75.368-1.05.552-.3.185-.653.36-.946.527a31.24 31.24 0 0 0-1.388.815l-.518.324Zm6.416-4.104c.03-.07.065-.138.105-.202.096-.183.201-.358.316-.526.072-.113.15-.22.232-.324.083-.105.173-.237.278-.35l.315-.343c.11-.12.225-.235.345-.342l.36-.315c.118-.1.241-.19.368-.272l.345-.237c.105-.076.216-.141.33-.193l.503-.245.188-.08-.165.132-.458.342a2.025 2.025 0 0 0-.3.228 4.26 4.26 0 0 0-.323.263c-.105.097-.24.184-.352.29l-.346.315c-.117.1-.23.21-.337.325l-.323.324c-.103.096-.2.198-.293.307-.097.105-.195.193-.27.29-.075.096-.293.324-.375.438l-.143.175Z" fill="#68B42E" style="mix-blend-mode:multiply"/><path d="M76.61 23.857c-1.111-.955-1.562-2.516-.451-5.041l-.128-1.079s-2.716 3.665.578 6.12Z" fill="#E39042"/><path d="M72.797 32.081c-7.272-2.814-7.505-7.987-7.505-8.943a10.628 10.628 0 0 0 .48 4.919c2.252 7.014 14.402 8.093 19.1 3.612a238.58 238.58 0 0 0-.263-1.99c-1.508 1.236-6.281 4.516-11.812 2.402Z" fill="#6C8424"/><path d="M72.797 32.082c5.531 2.14 10.304-1.166 11.813-2.402-.3-2.333-.6-4.437-.6-4.437s-5.096.587-7.4-1.385c-3.295-2.456-.578-6.138-.578-6.138s-.99-.693-3.753-.535c-2.761.158-3.504-.36-3.504-.36-1.756 1.546-2.972 3.783-3.423 6.296-.06.973.173 6.146 7.445 8.96Z" fill="#F2D038"/><path d="M72.046 29.24c-1.613-.99-3.152-1.665-4.315-3.41a5.37 5.37 0 0 1-.777-1.796 5.826 5.826 0 0 1-.108-2.01c.187-1.48.998-2.305 1.598-3.506.128-.263 0-.535-.225-.246-.315.465-.75.763-1.066 1.263a9.433 9.433 0 0 0-.75 1.753 7.046 7.046 0 0 0-.06 3.963c.638 2.587 3.137 4.577 5.328 4.998.278.027.676-.824.375-1.008Zm1.937 1.158c-.338-.166-.75-.228-1.028-.57-.278-.342-.458.325-.36.527.113.242.288.437.5.558.213.12.452.161.685.117.135-.044.42-.527.203-.632Z" fill="#F2D038" style="mix-blend-mode:screen"/><path d="M83.086 44.129c-1.896.518-3.683 1.478-5.254 2.823-.044.044-.09.263 0 .184a19.982 19.982 0 0 1 5.254-2.726c.037-.035.135-.325 0-.281Zm2.056-.395c-.3 0-.6.053-.9.07-.106 0-.21.325-.098.316l.9-.08c.105-.008.21-.315.098-.306Zm-36.946 8.453a12.27 12.27 0 0 0-5.809.342c-.06 0-.172.21-.06.175 1.882-.39 3.8-.481 5.704-.272.12.009.3-.228.165-.245Zm2.034.517c-.285-.114-.578-.202-.856-.324-.105-.044-.308.21-.195.263.285.114.578.193.863.315.098.035.293-.201.188-.254Z" fill="#fff"/><g style="mix-blend-mode:multiply" fill="#68B42E"><path d="M31.024 29.065s-.097.193-.247.535c-.075.176-.165.386-.263.632-.097.245-.195.517-.308.824-.112.307-.217.631-.33.982-.112.35-.225.736-.322 1.13l-.158.597-.135.614c-.105.42-.165.877-.248 1.28-.082.403-.135.877-.195 1.289-.06.412-.09.877-.135 1.254-.045.377-.045.806-.075 1.183s0 .737 0 1.061v2.175l-.053-.535c0-.193-.045-.43-.067-.693a8.355 8.355 0 0 1-.045-.877v-1.078c0-.386 0-.78.045-1.193.045-.412.06-.876.113-1.27.052-.395.105-.878.18-1.316.075-.438.157-.877.27-1.28.052-.21.097-.421.15-.623.052-.201.112-.412.165-.605.105-.403.24-.771.36-1.122.12-.35.24-.684.368-.982.067-.15.12-.29.18-.43l.173-.377c.112-.236.217-.438.3-.605.165-.385.277-.57.277-.57Z" style="mix-blend-mode:multiply"/><path d="M29.787 32.055v.325c0 .201.037.482.067.824.03.342.068.745.12 1.175 0 .21.053.43.083.649.03.219.06.447.097.675.038.228.075.447.12.666.045.22.083.438.135.649.053.21.083.403.135.587.053.184.098.369.15.526.053.158.098.307.136.447.037.14.09.237.12.334.03.096.097.298.097.298l-.142-.272a6.407 6.407 0 0 1-.338-.745c-.068-.15-.12-.334-.188-.518a5.885 5.885 0 0 1-.18-.596 7.768 7.768 0 0 1-.157-.64c-.045-.22-.083-.456-.128-.684-.068-.456-.128-.92-.158-1.35-.03-.43 0-.877-.045-1.193-.045-.315 0-.63 0-.876l.076-.28Zm-1.037 4.218-.104.184c-.068.105-.158.28-.263.474-.105.192-.232.438-.367.683-.136.246-.128.255-.188.395-.072.13-.138.264-.195.403l-.18.412-.09.202c0 .07-.053.14-.075.202-.09.271-.21.517-.27.736a6.38 6.38 0 0 1-.166.535l-.067.21v-.219c0-.131.037-.333.075-.57.018-.128.045-.254.082-.377 0-.131.083-.263.12-.412.037-.149.088-.293.15-.43l.18-.42c.06-.15.136-.28.203-.421.068-.14.143-.263.218-.386.134-.223.28-.436.435-.64.105-.145.218-.283.338-.412.051-.055.107-.105.165-.15Z" style="mix-blend-mode:multiply"/></g><path d="M27.648 27.058c-.563.482-1.164.833-1.329 1.753-.337 1.938 1.922 2.868-.397 4.718-1.276 1.017-4.24 3.814-2.477 5.76.255.29.067 0-.098-.254-1.546-2.516 3.002-4.384 3.895-6.138a2.73 2.73 0 0 0 .338-.974 2.89 2.89 0 0 0-.037-1.051 5.06 5.06 0 0 0-.428-1.105c-.443-.877.105-1.648.608-2.358.045-.114.12-.518-.075-.351Z" fill="#89BD27" style="mix-blend-mode:screen"/><path d="m82.177 15.484-.863 1.684v.938l5.652 2.63 1.763-2.21-.293-1.753s-4.345-1.596-6.259-1.289ZM62.928 38.175a22.526 22.526 0 0 0-6.454.544l-.646 2.358.158 1.754 7.317.053-.083-2.017-.292-2.692Zm-19.4-18.561-3.257-.465a24.506 24.506 0 0 0-1.659 8.294l.525 2.026 1.877.184 2.889-8.522-.375-1.456v-.061Zm15.602-7.216.09 2.393.75.526c2.536-1.348 5.355-1.797 8.106-1.289l.278-.806.75-2.28a9.41 9.41 0 0 0-5.14-.702c-1.736.254-3.395.994-4.834 2.158Zm41.216 22.218-1.629-1.693s-7.422 0-8.075 7.488v.097l.203 1.227 2.566 1.044s.878-4.946 7.04-6.734l-.105-1.43Zm-5.178-2.806.27.412 2.612-.053.203-.49a17.942 17.942 0 0 0 1.05-8.357c-1.898-.052-3.136 0-3.136 0v.062l-.398.578s.51 4.866-.66 7.672l.06.176Z" fill="#E1CCBB" style="mix-blend-mode:multiply"/><path d="M88.399 15.87s-4.308-1.56-6.222-1.254l-.863 1.684 5.674 1.858L88.4 15.87Z" fill="#F39B99"/><path d="m81.314 16.3-.037.938 5.65 2.621.06-1.7-5.673-1.86Z" fill="#F5ACA2"/><path d="m88.398 15.87-1.41 2.288-.06 1.701 1.763-2.218-.293-1.771Z" fill="#EF7E8A"/><path d="M62.927 37.307a22.526 22.526 0 0 0-6.454.544l-.645 2.358 7.392-.175-.293-2.727Z" fill="#F39B99"/><path d="m55.828 40.21.157 1.788 7.325.053-.09-2.017-7.392.175Z" fill="#EF7E8A"/><path d="M43.528 18.816v-.07l-3.257-.465a24.536 24.536 0 0 0-1.659 8.303l2.071.465s1.471-5.954 2.845-8.233Z" fill="#F39B99"/><path d="m38.598 26.584.525 2.017 1.876.184-.33-1.736-2.071-.465Z" fill="#F5ACA2"/><path d="M43.528 18.816c-1.38 2.28-2.867 8.233-2.867 8.233l.33 1.754 2.905-8.523-.368-1.464Z" fill="#EF7E8A"/><path d="m59.13 11.53 1.036 1.753c1.213-.877 2.584-1.413 4.005-1.565a8.002 8.002 0 0 1 4.182.688l.751-2.28a9.435 9.435 0 0 0-5.134-.723c-1.736.244-3.396.974-4.84 2.127Z" fill="#F39B99"/><path d="m59.13 11.53.09 2.393.788.527.158-1.184-1.036-1.736Z" fill="#F5ACA2"/><path d="m60.166 13.266-.128 1.183c2.514-1.336 5.308-1.787 8.038-1.297l.277-.807a7.997 7.997 0 0 0-4.186-.667c-1.421.16-2.791.703-4.001 1.588Z" fill="#EF7E8A"/><path d="m100.347 33.748-1.629-1.692s-7.422 0-8.075 7.488v.096a8.205 8.205 0 0 1 2.416 1.131c0-2.288 2.65-5.857 7.288-7.023Z" fill="#F39B99"/><path d="m90.658 39.64.203 1.227 2.567 1.035-.368-1.131a8.213 8.213 0 0 0-2.402-1.131Z" fill="#F5ACA2"/><path d="m100.467 35.177-.12-1.43c-4.638 1.167-7.317 4.735-7.295 7.015l.375 1.131s.878-4.919 7.04-6.716Z" fill="#EF7E8A"/><path d="M96.579 26.76a15.54 15.54 0 0 0-.45-4.218l-.398.579s.51 4.866-.66 7.672c1.028.245 1.373-1.86 1.508-4.034Z" fill="#F5ACA2"/><path d="m95.438 31.354 2.612-.052s.075-.167.202-.491l-3.084.131.27.412Z" fill="#EF7E8A"/><path d="M99.303 22.454c-1.899-.052-3.137 0-3.137 0v.062a15.54 15.54 0 0 1 .45 4.217c-.135 2.166-.48 4.279-1.5 4.034l.097.149 3.085-.132a17.953 17.953 0 0 0 1.005-8.33Z" fill="#F39B99"/><path d="M46.267 52.292c-4.503 0-8.136 1.947-8.136 4.384a2.773 2.773 0 0 0 0 .35s1.148 6.743 8.166 6.813c7.017.07 8.007-5.015 8.097-7.014v-.193c0-2.393-3.64-4.34-8.127-4.34Zm10.664-34.809c-2.341-3.682-6.116-5.033-8.428-3.025-2.311 2.008-2.251 6.629.053 10.303 2.304 3.673 6.116 5.05 8.428 3.024 2.311-2.025 2.303-6.62-.053-10.302Zm-7.67 30.39h.068a25.365 25.365 0 0 0 1.913-5.2 6.806 6.806 0 0 0-.367-.815c-.93-1.815-3.828-5.989-10.447-5.348-1.989.192-6.92 1.99-8.533 5.672 0 .044-.045.097-.06.14-.315 2.5-.315 2.719-.315 2.719l3.054 5.357s5.449-4.13 14.687-2.525Zm40.871-1.552c-1.178-2.972-5.44-3.13-9.801-.763a15.64 15.64 0 0 0-3.955 3.025c-1.839-.877-5.404-1.824-10.59.114-2.179.72-4.127 2.178-5.596 4.192-1.47 2.013-2.395 4.49-2.659 7.119l.57 1.929 5.772 1.297c.978-2.186 2.54-3.94 4.448-4.995 1.908-1.055 4.059-1.355 6.126-.853.12-.254.233-.49.338-.728.355.981.925 1.835 1.654 2.474.73.64 1.59 1.041 2.496 1.165 4.503.667 10.236-2.525 11.302-10.521a5.57 5.57 0 0 0-.105-3.455Z" fill="#E1CCBB" style="mix-blend-mode:multiply"/><path d="M37.764 56.273s1.148 6.742 8.158 6.856c7.01.114 8.007-5.059 8.112-7.014l-16.27.158Z" fill="#BC2921"/><path d="M54.034 55.922c0 2.402-3.632 4.384-8.127 4.384-4.496 0-8.128-1.956-8.128-4.384 0-2.43 3.64-4.384 8.128-4.384 4.488 0 8.127 1.946 8.127 4.384Z" fill="#E83426"/><path d="M52.946 55.562c0 1.885-3.16 3.41-7.054 3.41-3.896 0-7.048-1.525-7.048-3.41 0-1.885 3.152-3.41 7.047-3.41 3.895 0 7.055 1.525 7.055 3.41Z" fill="#EE523B"/><path d="M48.78 55.238s2.658.324 2.598-.58c-.06-.902-3.002-2.165-7.325-1.48-4.323.683-6.26 2.936-2.777 3.743 3.482.807 8.308 1.403 9.456.175 1.148-1.227-.263-1.411-1.951-1.858Z" fill="#CA2C21"/><path d="M47.499 55.948s.81.368.75.763c-.06.394-1.463-1.026-.75-.763Zm.081-1.368s.84-.683 1.118-.412c.278.272-1.8 1.07-1.118.412Zm-1.35-.341s.502-.763.795-.553c.293.21-1.194 1.245-.796.553Zm-1.314-.045s.196-.614.42-.543c.226.07-.555 1.078-.42.543Zm-1.335.115s.113-.36.248-.316c.135.044-.3.631-.248.316Zm2.199 1.508s.375.464.225.666-.57-1.043-.225-.666Zm-1.862.053s.21.254.127.359c-.082.105-.315-.561-.127-.36Z" fill="#FFBE60"/><path d="M56.563 16.764c2.342 3.674 2.364 8.286.053 10.303-2.312 2.016-6.087.648-8.428-3.025-2.342-3.674-2.372-8.26-.053-10.303 2.32-2.043 6.087-.657 8.428 3.025Z" fill="#E83426"/><path d="M56.024 17.194c2.161 3.393 2.251 7.566.247 9.32-2.003 1.753-5.41.438-7.572-2.955-2.161-3.393-2.251-7.567-.248-9.32 2.004-1.754 5.411-.439 7.573 2.955Z" fill="#EE523B"/><path d="M51.19 17.738s-1.096-2.982-.75-3.288c.345-.307 3.474.876 5.14 4.234 1.666 3.358 1.284 5.945.9 6.445-.382.5-2.01-1.649-2.01-1.649s1.028 2.447.6 2.745c-.428.298-4.368.657-6.672-4.849-1.268-3.2-.6-9.741 2.792-3.639Z" fill="#CA2C21"/><path d="M53.21 23.796s0 .737-.263.78c-.263.044.232-1.411.263-.78Zm2.07-2.13s.488 0 .518.245c.03.245-.945-.228-.517-.245Zm-1.073-1.316s.533-.192.63.044c.098.237-1.08.158-.63-.044Zm-.757-1.683s.54-.193.63.044c.09.236-1.073.158-.63-.044Zm-.917-1.64s0-.658.226-.693c.225-.035-.188 1.245-.226.693Zm-1.328 4.463s-.593.22-.698 0c-.105-.22 1.186-.228.698 0Zm-.72-1.438s-.795.14-.886-.22c-.09-.359 1.554.053.886.22Zm-.353-1.482s-1.073-.149-1.17-.543c-.098-.395 2.07.622 1.17.543Zm2.162 4.226s-.338.632-.57.509c-.233-.123.81-1.035.57-.509Z" fill="#FFBE60"/><path d="M47.986 22.086c-.84-2.005-.998-4.308-.443-6.444.053-.184-.097-.132-.15 0a9.69 9.69 0 0 0 .36 6.795c.075.149.278-.21.233-.35Zm.555 1.026a2.333 2.333 0 0 1-.225-.324c-.075-.105-.24.175-.165.254a2.7 2.7 0 0 0 .255.342c.083.062.218-.201.135-.272Z" fill="#fff"/><path d="M73.788 55.58c1.546-3.683 2.514-6.138 2.957-7.322-1.501-.876-5.329-2.525-11.325-.289-2.18.72-4.128 2.178-5.597 4.192-1.47 2.013-2.395 4.49-2.658 7.119l5.778 2.095s2.394-8.25 10.845-5.795Z" fill="#F2D038"/><path d="m57.134 59.28.578 1.929 5.77 1.306-.54-1.113-5.808-2.122Z" fill="#CC752E"/><path d="m62.943 61.375.54 1.114s3.092-7.514 10.567-5.857l-.263-1.079c-8.45-2.428-10.844 5.822-10.844 5.822Z" fill="#E39042"/><path d="M76.744 48.224c-.443 1.166-1.41 3.638-2.957 7.32l.263 1.08c2.319-4.91 3.16-7.015 3.16-7.015s-.166-.386-.466-1.385Z" fill="#CC752E"/><path d="M70.2 47.476a9.792 9.792 0 0 1-1.967.044 9.628 9.628 0 0 0-2.086.517 11.669 11.669 0 0 0-3.602 2.148 17.394 17.394 0 0 0-2.694 2.972 12.178 12.178 0 0 0-2.02 3.832c-.12.465.233.509.413.123 1.179-2.598 2.869-4.83 4.931-6.515a11.736 11.736 0 0 1 3.618-1.876 10.661 10.661 0 0 1 2.416-.5c.32.013.638-.06.93-.21.136-.044.33-.667.06-.535Zm2.221-.016a5.254 5.254 0 0 0-1.05 0c-.196 0-.436.597-.196.606.362.04.727.04 1.088 0 .166-.018.398-.561.158-.605Z" fill="#F2D038" style="mix-blend-mode:screen"/><path d="m48.353 45.593 2.146-4.463c-.93-1.815-3.82-5.997-10.439-5.357-1.996.175-6.92 2.017-8.54 5.69l3.144 5.98s4.788-4.962 13.689-1.85Z" fill="#F2D038"/><path d="M31.52 41.463a1.243 1.243 0 0 0-.06.15c-.33 2.49-.33 2.7-.33 2.7l3.047 5.357.488-2.227-3.144-5.98Zm19.347.5a6.8 6.8 0 0 0-.367-.815l-2.147 4.445.533 1.49v.045h.075a25.526 25.526 0 0 0 1.906-5.165Z" fill="#CC752E"/><path d="M48.353 45.593c-8.9-3.112-13.68 1.85-13.68 1.85l-.489 2.227s5.471-4.12 14.702-2.525v-.044l-.533-1.508Z" fill="#E39042"/><path d="M48.33 39.315c-.69-1.271-2.056-1.753-3.219-2.27a9.797 9.797 0 0 0-4.96-.597c-2.672.263-5.539 1.456-7.28 3.91-.12.176-.105.632.135.369 2.153-2.168 4.895-3.374 7.737-3.402 2.747-.167 4.924 1.087 7.182 2.7.24.167.518-.49.406-.71Zm.938 1.018a1.61 1.61 0 0 0-.293-.395c-.12-.14-.39.342-.277.482.097.12.178.255.24.404.052.14.218 0 .255-.088a.43.43 0 0 0 .085-.19.468.468 0 0 0-.01-.213Z" fill="#F2D038" style="mix-blend-mode:screen"/><path d="M73.681 52.897s.33 6.014 4.856 6.68c4.525.667 10.244-2.524 11.302-10.52-2.244 3.41-16.158 3.84-16.158 3.84Z" fill="#BC2921"/><path d="M89.764 45.593c1.178 2.963-1.08 7.82-5.433 10.188-4.353 2.368-9.201 1.36-10.38-1.604-1.178-2.964 1.652-6.97 6.005-9.338 4.352-2.367 8.6-2.21 9.808.754Z" fill="#E83426"/><path d="M89.112 45.838c1.178 2.324-1.14 6.348-5.14 8.523-4 2.174-8.338 1.525-9.314-.93-.976-2.455 1.688-5.97 5.704-8.119 3.287-1.744 7.444-2.025 8.75.526Z" fill="#EE523B"/><path d="m82.958 47.925 5.253-1.91s2.312 1.367-1.553 5.339c-3.865 3.972-8.9 4.805-10.792 2.63-1.11-1.666.593-6.506 6.431-8.926 1.396-.464 3.123-.534 3.49 0 .368.535-2.83 2.867-2.83 2.867Z" fill="#CA2C21"/><path d="M79.55 51.187s-2.198 2.359-2.76 1.92c-.564-.438 1.853-1.525 2.76-1.92Zm2.853-3.674c.05-.751.313-1.462.75-2.016.255-.325.03 1.429-.75 2.016Zm-1.472.623c-.096-.489-.06-1 .106-1.464.277-.72.277.447-.106 1.464Zm-1.26-.299s.255.78 0 .947c-.255.167-.248-1.595 0-.947Zm-1.554 1.211s.45.508.3.745c-.15.237-.705-1.149-.3-.745Zm-.817 1.227s.427.28.36.5c-.068.22-.774-.701-.36-.5Zm3.121 3.7s-.24-.491-.09-.64c.15-.15.323 1.026.09.64Zm1.141-.491s-.502-.552-.345-.815c.158-.263.803 1.228.345.816Zm1.614-1.025s-.578-.439-.466-.728c.113-.29.984 1.06.466.728Zm1.674-1.5s-.856-.15-.856-.561c0-.412 1.599.64.856.561Zm1.673-1.929s-.99.298-1.148-.149c-.158-.447 1.981-.167 1.148.15Z" fill="#FFBE60"/><path d="M80.789 35.878c-.75.43-1.073 1.061-1.907 1.079-.427 0-1.148-.658-1.5-.676-.312-.03-.626.02-.919.147a2.122 2.122 0 0 0-.777.59c-1.502 1.526-.353 4.752-1.209 6.629-.105.219.053.315.165.105a5.773 5.773 0 0 0 .646-1.85c.292-1.552-.24-3.946 1.5-4.752.534-.255 1.502.377 2.094.368.593-.009 1.201-.728 1.75-1.202.104-.14.524-.657.157-.438ZM62.043 27.75a2.377 2.377 0 0 0-1.32.157 2.762 2.762 0 0 0-1.104.86c-.428.474-.75 1.035-1.216 1.5a8.225 8.225 0 0 1-2.454 1.517c-2.297 1.245-3.392 3.077-4.338 5.787-.157.43-.255.877-.105.552a23.104 23.104 0 0 1 2.011-3.656c.912-1.12 2.054-1.947 3.317-2.403a6.05 6.05 0 0 0 1.96-1.49c1.035-1.14 1.545-2.13 3.099-2.359.135-.017.352-.438.15-.464Z" fill="#97C740" style="mix-blend-mode:screen"/><path d="M77.615 26.891a.361.361 0 0 0-.172.069.439.439 0 0 0-.128.15.745.745 0 0 0-.158.43c0 .123 0 .29.15.298.263 0 .458-.447.458-.701 0-.106-.038-.246-.15-.246Zm4.757 1.727c-.263 0-.525.745-.248.745.278 0 .526-.745.248-.745ZM72.286 24.84c-.323 0-.66.938-.308.938.353 0 .66-.939.308-.939Zm4.391 5.593v-.052c-.075-.114-.195 0-.263 0a.745.745 0 0 0-.18.438.746.746 0 0 0 0 .29.17.17 0 0 0 .033.072.15.15 0 0 0 .06.044.116.116 0 0 0 .07.002.13.13 0 0 0 .062-.04.349.349 0 0 0 .09-.096.76.76 0 0 0 .195-.456c-.014-.061-.007-.175-.067-.202Zm3.624-10.696a.173.173 0 0 0-.09-.026.173.173 0 0 0-.09.026c-.157 0-.27.122-.353.272-.165.289-.075.762.278.692a.559.559 0 0 0 .212-.168.684.684 0 0 0 .126-.262c.075-.166.097-.438-.083-.534ZM75.7 13.292c-.044-.245-.3-.201-.412-.061a.495.495 0 0 0-.139.248.56.56 0 0 0 .011.295c.105.228.346 0 .406-.14v-.053a.42.42 0 0 0 .092-.128.482.482 0 0 0 .043-.16Zm18.11 8.145a.302.302 0 0 1-.128 0c-.157-.105-.308.246-.338.369-.03.122 0 .412.203.412s.353-.333.33-.544c-.022-.21-.007-.22-.067-.237Zm-24.946-.622c-.128 0-.255.377-.12.377s.255-.377.12-.377Zm-5.951-4.498v.052c-.06.088-.068.272 0 .22.067-.053.128-.097.135-.132a.338.338 0 0 0 0-.166c-.008-.114-.105-.018-.135.026Zm-3.468 3.069c-.135 0-.285.394-.127.394.157 0 .277-.394.127-.394Zm9.959 7.374c-.113 0-.225.324-.105.324.12 0 .225-.324.105-.324Zm8.091-20.623c-.098 0-.203.29-.09.29.112 0 .202-.29.09-.29Zm-22.882 5.691a.156.156 0 0 0-.068-.079s0-.061-.045-.07a.24.24 0 0 0-.15.002.276.276 0 0 0-.128.094.297.297 0 0 0-.068.149.324.324 0 0 0 .016.167c.105.245.33.114.42-.07a.221.221 0 0 0 .023-.193Zm-9.509 1.85a.215.215 0 0 0-.091-.077.182.182 0 0 0-.112-.01.298.298 0 0 0-.09.043l-.082.061c-.09.123-.188.395-.045.518 0 .061.075.14.127.131a.301.301 0 0 0 .169-.085.386.386 0 0 0 .101-.178v-.079a.405.405 0 0 0 .023-.324Zm-3.077 3.481a.36.36 0 0 0 .053-.176.112.112 0 0 0 0-.07.193.193 0 0 0-.007-.088.168.168 0 0 0-.044-.072.133.133 0 0 0-.07-.035.124.124 0 0 0-.074.011c-.113 0-.203.132-.218.263a.348.348 0 0 0 0 .29c.083.184.263.087.36-.08v-.043Zm-8.608 14.344a.242.242 0 0 0-.188-.025.28.28 0 0 0-.157.121.595.595 0 0 0-.203.369c-.06.341.3.447.51.324a.528.528 0 0 0 .152-.194.626.626 0 0 0 .058-.253.427.427 0 0 0-.044-.2.35.35 0 0 0-.128-.142Zm14.754 2.087a.258.258 0 0 0-.038-.104.212.212 0 0 0-.075-.071.177.177 0 0 0-.187.008.297.297 0 0 0-.112.132.356.356 0 0 0-.078.131.403.403 0 0 0-.02.158c0 .15.098.342.24.342a.298.298 0 0 0 .169-.093.385.385 0 0 0 .094-.188v-.078a.308.308 0 0 0 .007-.237Zm-3.685 4.279a.095.095 0 0 0-.06-.022.095.095 0 0 0-.06.022c-.075 0-.15.114-.172.184a.236.236 0 0 0 0 .237.146.146 0 0 0 .135 0c.172-.027.277-.299.157-.421ZM29.87 42.086h-.046a.364.364 0 0 0-.142.17.443.443 0 0 0-.03.233.24.24 0 0 0 .036.09.191.191 0 0 0 .067.063.165.165 0 0 0 .167-.004.103.103 0 0 0 .047-.02.125.125 0 0 0 .035-.041.4.4 0 0 0 .098-.132c.128-.193-.008-.473-.233-.359Zm-.324 5.261c0-.158-.135-.228-.255-.202a.307.307 0 0 0-.168.142.398.398 0 0 0-.05.235.22.22 0 0 0 .033.091.18.18 0 0 0 .066.062.15.15 0 0 0 .164-.013.278.278 0 0 0 .152-.115.361.361 0 0 0 .058-.2Zm-1.666-1.105c-.083 0-.158.114-.165.184a.258.258 0 0 0 0 .07.335.335 0 0 0 0 .193c0 .07.097.061.157 0a.203.203 0 0 0 .098-.105s.03-.272-.09-.342Zm8.323-5.717c-.113 0-.218.316-.105.316.112 0 .217-.316.105-.316Zm3.43.912-.053-.052-.045-.053h-.15a.377.377 0 0 0-.104.116.445.445 0 0 0-.054.156.223.223 0 0 0 .013.162.185.185 0 0 0 .049.06c.02.017.042.027.066.032.15 0 .24-.149.27-.298a.274.274 0 0 0 0-.079s.023-.026.008-.044Zm-6.386 7.707a.1.1 0 0 0 0-.079c-.18-.149-.36.158-.338.351 0 .132.06.237.195.167a.389.389 0 0 0 .133-.192.458.458 0 0 0 .01-.247Zm9.32-.263a.09.09 0 0 0-.068 0 .232.232 0 0 0-.112.03.274.274 0 0 0-.09.084.364.364 0 0 0-.075.17.395.395 0 0 0 .015.19c.052.114.135.114.232.087.098-.026.383-.543.098-.561Zm10.635 1.727c-.136-.193-.346.088-.323.28 0 .053 0 .15.052.15a.318.318 0 0 0 .233-.123.29.29 0 0 0 .038-.307Zm5.403-3.577a.12.12 0 0 0 0-.088.15.15 0 0 0-.035-.056.12.12 0 0 0-.054-.03.11.11 0 0 0-.06 0 .122.122 0 0 0-.053.034.374.374 0 0 0-.106.14.44.44 0 0 0-.037.184.264.264 0 0 0 0 .158c.143.202.33-.044.36-.228a.571.571 0 0 0-.015-.114Zm4-2.455c-.315 0-.375.754-.045.693.025.007.05.007.075 0 .24-.175.263-.701-.03-.693Zm-.795-12.67a.284.284 0 0 0 0-.096.078.078 0 0 0 .01-.04.078.078 0 0 0-.01-.039.323.323 0 0 0-.157-.069.305.305 0 0 0-.166.023.357.357 0 0 0-.139.11.439.439 0 0 0-.079.173.475.475 0 0 0 0 .43.292.292 0 0 0 .134.129.24.24 0 0 0 .174.01.428.428 0 0 0 .196-.19.539.539 0 0 0 .059-.292.332.332 0 0 0-.023-.149Zm-6.943 2.367v-.122a.202.202 0 0 0-.096.009.225.225 0 0 0-.085.054.271.271 0 0 0-.059.09.31.31 0 0 0-.022.11c0 .166.127.175.225.122.097-.052.105-.201.037-.263Zm9.269 20.439a.216.216 0 0 0-.107.022.253.253 0 0 0-.088.074.604.604 0 0 0-.175.25.707.707 0 0 0-.043.32.33.33 0 0 0 .108.186c.054.045.12.066.185.06a.444.444 0 0 0 .19-.102.541.541 0 0 0 .133-.188.456.456 0 0 0 .045-.376.4.4 0 0 0-.097-.16.32.32 0 0 0-.15-.086Zm-.684 2.998h-.045a.153.153 0 0 0-.112-.051.153.153 0 0 0-.113.052.402.402 0 0 0-.127.219.262.262 0 0 0-.014.147c.01.05.033.094.066.127a.18.18 0 0 0 .12.051.176.176 0 0 0 .12-.045c.12-.061.293-.342.105-.5Zm-3.413-1.227h-.083c-.097 0-.18.272-.09.263h.083c.045-.018.15-.254.09-.263Zm12.757-5.875s0-.052-.045-.052H72.7a.195.195 0 0 0-.114.007.224.224 0 0 0-.096.072.415.415 0 0 0-.098.201.111.111 0 0 1 0 .044.306.306 0 0 0 0 .158c.15.342.518 0 .496-.298a.278.278 0 0 0-.09-.132Zm7.979-8.688a.297.297 0 0 0-.163-.15.248.248 0 0 0-.205.018.258.258 0 0 0-.1.058.617.617 0 0 0-.14.512.25.25 0 0 0 .047.137.191.191 0 0 0 .11.073c.06.028.125.036.189.024a.333.333 0 0 0 .171-.094.529.529 0 0 0 .126-.272.576.576 0 0 0-.035-.306Zm4.78-2.63h-.045c-.052 0-.112.096-.127.148-.015.053-.045.28.082.29a.235.235 0 0 0 .137-.092.308.308 0 0 0 .058-.172.152.152 0 0 0-.013-.119.12.12 0 0 0-.04-.04.1.1 0 0 0-.052-.016Zm9.351 8.057c0-.114-.12-.176-.195-.22-.075-.043-.173 0-.233.185a.513.513 0 0 0-.12.315.294.294 0 0 0 .043.165c.03.048.073.083.122.098a.39.39 0 0 0 .308-.175.54.54 0 0 0 .075-.368Zm.045 7.68c0-.078-.128-.087-.188-.078a.195.195 0 0 0-.082.06.233.233 0 0 0-.135.071c-.165.175-.135.509.127.465a.316.316 0 0 0 .138-.062.382.382 0 0 0 .102-.123.45.45 0 0 0 .038-.333Zm3.738-11.88a.14.14 0 0 0-.106.053.451.451 0 0 0-.217.273.5.5 0 0 0 .025.338.423.423 0 0 0 .095.134c.188.14.398-.175.428-.36a.432.432 0 0 0-.04-.27.335.335 0 0 0-.185-.168Zm4.487-2.973a.27.27 0 0 0-.187 0 .627.627 0 0 0-.321.296.795.795 0 0 0-.084.467c0 .202.232.28.382.263a.503.503 0 0 0 .297-.16.657.657 0 0 0 .161-.33.493.493 0 0 0-.029-.328.416.416 0 0 0-.092-.13.344.344 0 0 0-.127-.078Zm-3.82-10.951c-.06-.096-.173-.184-.27-.114a.387.387 0 0 0-.151.145.477.477 0 0 0-.067.215.592.592 0 0 0-.006.25c.015.083.049.16.096.223a.217.217 0 0 0 .12.074c.046.01.093.002.135-.021a.526.526 0 0 0 .153-.176.623.623 0 0 0 .072-.236.48.48 0 0 0-.004-.191.44.44 0 0 0-.078-.169Zm3.633-.193a.173.173 0 0 0-.056-.055.143.143 0 0 0-.072-.02.143.143 0 0 0-.072.02.173.173 0 0 0-.056.056c-.165 0-.27.324-.202.5a.543.543 0 0 0 0 .113c.06.106.187 0 .24-.043a.58.58 0 0 0 .135-.307c.075-.097.113-.22.083-.263ZM87.61 32.371a.152.152 0 0 0-.15 0c-.067 0-.134.105-.15.158-.014.053 0 .307.12.35a.283.283 0 0 0 .212-.072.379.379 0 0 0 .119-.217c.045-.096-.03-.149-.15-.219Z" fill="#FFFBDC"/></g><defs><clipPath id="a"><path fill="#fff" d="M0 0h133v77H0z"/></clipPath></defs></svg>