<svg width="131" height="77" fill="none" xmlns="http://www.w3.org/2000/svg"><g clip-path="url(#a)"><path d="M65.377 76.994c36.107 0 65.378-10.898 65.378-24.34 0-13.443-29.271-24.341-65.378-24.341S0 39.211 0 52.653c0 13.443 29.27 24.341 65.377 24.341Z" fill="#E2CAB3"/><path fill-rule="evenodd" clip-rule="evenodd" d="M130.767 49.971c0 13.442-29.268 24.34-65.383 24.34C29.267 74.312 0 63.414 0 49.972c0-13.44 29.268-24.34 65.383-24.34 36.116 0 65.384 10.9 65.384 24.34Z" fill="#fff"/><path fill-rule="evenodd" clip-rule="evenodd" d="M130.767 49.57c0 13.016-29.268 23.572-65.383 23.572C29.267 73.142 0 62.605 0 49.571c0-13.035 29.268-23.578 65.383-23.578 36.116 0 65.384 10.575 65.384 23.578Z" fill="#E7D8C8"/><path fill-rule="evenodd" clip-rule="evenodd" d="M127.856 49.57c0 9.286-25.037 16.823-55.922 16.823-30.884 0-55.896-7.518-55.896-16.822 0-9.304 25.037-16.822 55.921-16.822s55.897 7.55 55.897 16.822Z" fill="#E2CAB3"/><path fill-rule="evenodd" clip-rule="evenodd" d="M102.948 27.468c-.493-.356.05-.7-.166-1.138a1.921 1.921 0 0 0-.858-.826c-1.042-.636-2.38-.763-3.546-1.004-1.549-.324-2.974-1.087-4.49-1.55-1.851-.573-3.751-.903-5.552-1.672-3.436-1.468-6.452-3.813-9.752-5.593a58.472 58.472 0 0 0-10.388-4.169c-2.88-.883-5.816-1.576-8.765-2.173-6.94-2.987-14.526-2.987-21.805-1.615-6.063 1.163-12.38 3.814-15.322 9.781-1.406 2.828-1.794 6.158-1.949 9.304a13.643 13.643 0 0 0 1.388 6.99c2.276 4.532 6.785 7.627 11.103 9.807 4.935 2.542 10.622 4.245 16.167 4.036 3.399-.121 7.143-.547 10.301-1.958 2.572-1.144 4.497-3.38 6.514-5.306a16.425 16.425 0 0 1 9.178-4.62c3.701-.503 7.525.635 11.226.832 3.226.197 6.421.432 9.635.782 1.881.203 4.022.298 5.675-.795a3.074 3.074 0 0 0 1.234-1.964 2.964 2.964 0 0 0-.05-1.372c-.16-.636-.617-1.271.148-1.62 1.986-.935 1.771-2.924.074-4.157Z" fill="#C66720"/><path fill-rule="evenodd" clip-rule="evenodd" d="M102.936 27.43c-.493-.357.049-.706-.167-1.139a1.951 1.951 0 0 0-.857-.826 8.14 8.14 0 0 0-2.646-.838c.043.133.092.273.123.413.127.446.144.918.05 1.372a3.078 3.078 0 0 1-1.234 1.958c-1.672 1.1-3.83 1.004-5.681.8-3.214-.35-6.409-.59-9.635-.781-3.7-.223-7.519-1.341-11.22-.84a16.425 16.425 0 0 0-9.178 4.621c-2.042 1.926-3.954 4.163-6.532 5.326-3.152 1.398-6.897 1.824-10.314 1.944-5.551.204-11.22-1.531-16.167-4.041-3.3-1.678-6.705-3.884-9.123-6.858a13.224 13.224 0 0 0 1.388 5.212c2.276 4.537 6.785 7.626 11.103 9.806 4.935 2.51 10.622 4.245 16.167 4.042 3.368-.121 7.118-.572 10.264-1.958 2.578-1.15 4.503-3.387 6.52-5.313a16.467 16.467 0 0 1 9.178-4.62c3.701-.496 7.526.636 11.227.839 3.225.19 6.42.432 9.634.782 1.85.203 4.022.298 5.675-.795a3.102 3.102 0 0 0 1.234-1.964 3.032 3.032 0 0 0-.05-1.372c-.16-.674-.616-1.271.142-1.62 2.023-.929 1.795-2.924.099-4.15Z" fill="#BB5200"/><path fill-rule="evenodd" clip-rule="evenodd" d="M57.982 15.97c-1.135-.374-2.301-.635-3.4-1.13-1.85-.82-3.626-1.774-5.55-2.479a17.736 17.736 0 0 0-7.402-.902c-4.004.095-8.204.985-11.56 3.158a8.528 8.528 0 0 0-.506.356 13.93 13.93 0 0 0-5.317 5.675c-.721 1.462-1.326 3.267-.727 4.881.536 1.405 2.424 1.589 3.62 1.799.136 0 .272.057.407.082.731.334 1.5.571 2.289.706 2.856 1.118 5.323 2.955 8 4.43 3.54 1.906 7.52 2.313 11.146.368a15.552 15.552 0 0 0 4.528-3.96c1.66-.87 3.105-2.12 4.225-3.654a13.252 13.252 0 0 1 2.887-3.107c.684-.528 1.727-1.316 1.795-2.295.166-2.364-2.696-3.374-4.435-3.927Z" fill="#DA840D"/><path fill-rule="evenodd" clip-rule="evenodd" d="M25.561 22.88c-.184.065-.353.17-.497.305-.145.135-.26.3-.342.482-.07.08-.13.167-.178.26a.914.914 0 0 0-.1.344.691.691 0 0 0 .081.667c.389.566 1.234-.101 1.912-.26l.278.082a.138.138 0 0 0 .108.001.144.144 0 0 0 .077-.077.156.156 0 0 0 .133-.021.163.163 0 0 0 .07-.119c.1-.89-.524-1.957-1.542-1.665Zm19.615 7.561a.978.978 0 0 0-.53-.527c-.944-.49-3.701 1.01-2.764 2.218a.88.88 0 0 0 .401.275.857.857 0 0 0 .481.017 3.43 3.43 0 0 0 1.549-.756c.367-.185.666-.489.851-.864l.062-.108a.25.25 0 0 0-.05-.255Zm11.776-11.897c-.495.09-.97.273-1.4.54a2.73 2.73 0 0 0-1.173 1.125c-.19.172-.327.394-.222.547a1.973 1.973 0 0 0-.154.241.255.255 0 0 0 .086.3c.189.124.398.212.617.26.163.08.335.138.512.171 1.234.23 3.214-.59 3.757-1.786.598-1.315-1.24-1.512-2.023-1.398ZM32.895 15.17c-.703-.388-1.758.356-2.3.743-.543.388-1.53 1.189-1.234 1.996a.839.839 0 0 0 .166.286c.129.17.305.295.505.357.2.063.414.06.612-.008.987-.228 4.059-2.39 2.251-3.374Zm2.19 9.247a.543.543 0 0 0-.142-.051 2.748 2.748 0 0 0-2.035.038 1.9 1.9 0 0 0-1.234.686.725.725 0 0 0-.215.521.745.745 0 0 0 .215.522c.154.584.9.96 1.696 1.01a2.354 2.354 0 0 0 2.523-.14c1.117-.82.08-2.18-.808-2.586ZM42.407 13.6c-1.073-.432-2.381.33-2.998 1.214a1.693 1.693 0 0 0-.105 1.824l.031.044c.027.038.056.074.086.108l.062.058a1.17 1.17 0 0 0 .765.33c.373.128.78.1 1.135-.076.307-.156.581-.372.808-.636.273-.17.525-.373.752-.603.778-.82.445-1.882-.536-2.263Zm-.272 9.018c-.512-2.014-1.782-2.542-3.657-2.434h-.253a.247.247 0 0 0-.18.045 3.54 3.54 0 0 0-.419.108.6.6 0 0 0-.518.108l-.13.133a.607.607 0 0 0-.306.12.634.634 0 0 0-.204.264c-.044.106-.06.221-.044.335.015.114.06.221.13.31.093.293.28.544.53.713.163.094.348.142.536.14.191.215.395.412.617.635l.043.057c.002.241.024.482.068.718-.003.298.015.595.056.89.044.216.136.418.268.591.133.173.303.313.497.407.096.106.2.206.308.298.136.174.313.307.515.388a1.2 1.2 0 0 0 1.217-.195 1.27 1.27 0 0 0 .377-.53c.765-.597.833-1.97.55-3.1Zm7.538-3.928c-.29-1.626-2.634-.762-2.757.465a3.305 3.305 0 0 0-.747 1.087.196.196 0 0 0 .006.142c.02.045.055.08.1.1a5.279 5.279 0 0 0 1.597.533c.1.026.203.026.302 0a1.6 1.6 0 0 0 .728-.19c.312-.244.55-.575.687-.953s.166-.788.084-1.183Zm3.269 5.924c-1.08-1.144-4.608-.292-4.755 1.462a.79.79 0 0 0-.097.895.76.76 0 0 0 .337.32.726.726 0 0 0 .456.056 8.131 8.131 0 0 0 1.172-.166c.272-.045.55-.028.815.051l.185.058.413.152a1.084 1.084 0 0 0 1.147-.038 2.172 2.172 0 0 0 .327-2.79Zm-20.577-4.322a2.077 2.077 0 0 0-1.85 0 1.115 1.115 0 0 0-.728.42 3.139 3.139 0 0 0-.66.667.292.292 0 0 0 .055.394c.888.794 2.467.134 3.084-.744a.29.29 0 0 0 .05-.222.775.775 0 0 0 .104-.216.228.228 0 0 0-.055-.299Z" fill="#BB5200"/><path fill-rule="evenodd" clip-rule="evenodd" d="M36.56 28.529c.098-.191-.142-.369-.303-.3-.444.198-.882.408-1.307.636a8.046 8.046 0 0 0-1.851-.203c-.13 0-.185.146-.185.26 0 .47.333.738.617 1.062a1.682 1.682 0 0 0-.9.75.24.24 0 0 0 .047.322c.031.025.068.04.107.046l.296.09c-.432.895-1.166 1.518-1.172 2.605 0 .242.364.375.438.102a2.984 2.984 0 0 1 1.134-1.71c.038.21.08.413.111.636.009.044.03.086.06.118a.227.227 0 0 0 .244.057.23.23 0 0 0 .104-.08c.296-.439.87-1.328 1.233-.388.017.043.045.08.082.106a.217.217 0 0 0 .25 0 .228.228 0 0 0 .082-.106c.061-.241.277-1.976.536-1.665a.22.22 0 0 0 .124.078.217.217 0 0 0 .144-.014.23.23 0 0 0 .107-.101.24.24 0 0 0 .026-.147c-.074-.769-.4-1.449-.025-2.154Z" fill="#5F825C"/><path fill-rule="evenodd" clip-rule="evenodd" d="M37.928 12.908c.112 0 .142-.147.124-.242-.08-.407-.383-.597-.666-.839.308-.16.55-.428.684-.756a.221.221 0 0 0-.093-.272.206.206 0 0 0-.098-.027l-.253-.038c.253-.82.808-1.443.666-2.37-.03-.21-.364-.28-.388-.039a2.573 2.573 0 0 1-.753 1.602c-.061-.178-.123-.35-.179-.528a.21.21 0 0 0-.066-.093.2.2 0 0 0-.297.055c-.204.413-.58 1.271-.994.477a.199.199 0 0 0-.085-.077.192.192 0 0 0-.214.035.204.204 0 0 0-.058.1c0 .215 0 1.728-.24 1.493a.194.194 0 0 0-.313.077.21.21 0 0 0-.009.126c.062.267.16.508.24.756a7.137 7.137 0 0 0-3.429-.59.177.177 0 0 0-.102.05.186.186 0 0 0-.035.218.18.18 0 0 0 .082.08c1.64.636.388.776 0 .929a4.33 4.33 0 0 0-1.234.775 7.586 7.586 0 0 0-1.573 1.983c-.11.178.154.375.309.26a9.154 9.154 0 0 1 1.665-1.023 1.01 1.01 0 0 1 .925 0c-.055.283-.084.57-.086.858a.227.227 0 0 0 .04.104.217.217 0 0 0 .19.091.213.213 0 0 0 .103-.036c.45-.407 1.647-1.741 2.165-.235a.22.22 0 0 0 .08.096.212.212 0 0 0 .315-.096c.093-.165.259-.388.4-.598.149.128.303.248.439.388a.213.213 0 0 0 .209.043.225.225 0 0 0 .143-.163c.061-.712.073-1.424.123-2.136.222-.14.45-.286.666-.438a6.77 6.77 0 0 0 1.597 0Zm15.649 9.234c-.178-.114-.357.12-.302.292.167.464.352.928.555 1.38a8.665 8.665 0 0 0-.29 1.868c0 .133.142.197.247.197.463 0 .728-.305 1.055-.572.108.393.346.734.672.966a.224.224 0 0 0 .316-.038.239.239 0 0 0 .048-.108c0-.102.068-.204.099-.299.845.483 1.419 1.271 2.467 1.322.235 0 .383-.356.117-.445a2.893 2.893 0 0 1-1.603-1.271l.616-.089a.22.22 0 0 0 .12-.051.23.23 0 0 0 .071-.245.228.228 0 0 0-.073-.11c-.407-.331-1.234-.96-.321-1.272a.223.223 0 0 0 .102-.084.234.234 0 0 0 0-.257.223.223 0 0 0-.102-.085c-.228-.076-1.906-.38-1.598-.635a.242.242 0 0 0 .072-.268.234.234 0 0 0-.089-.114.223.223 0 0 0-.137-.038c-.722.058-1.338.37-2.042-.044Z" fill="#8DB54F"/><path fill-rule="evenodd" clip-rule="evenodd" d="M114.976 47.76v-.363c0-.057 0-.14-.03-.21-.031-.07 0 0 0 0a9.95 9.95 0 0 0-1.45-3.336 21.091 21.091 0 0 0-5.416-5.662c-1.184-.884-2.418-1.71-3.602-2.587-1.351-.998-2.535-2.154-3.849-3.178-1.314-1.023-7.655-9.812-12.096-15.456-2.079-2.643-5.224-6.876-10.782-8.776-3.738-1.271-7.451-.254-11.38-1.061-2.906-.598-7.402-.788-9.771 1.27-3.442 1.691-5.99 4.843-7.963 7.907a14.698 14.698 0 0 0-1.925 4.22v.127l-.11.482c0 .134-.056.267-.08.407l-.075.464c0 .165-.037.324-.05.49-.012.165 0 .267-.036.4v.915c0 .21 0 .42.03.636a20.79 20.79 0 0 0 .426 3.253c-3.263 1.017-6.045 2.917-9.598 3.77-3.33.794-8.055 2.738-9.357 5.852-2.597 3.286-3.448 7.57-3.762 11.497a15.044 15.044 0 0 0 .382 5.033l.037.134c.05.178.099.35.154.527l.148.432.185.496c.068.165.148.33.222.496.074.165.117.28.191.413.15.31.314.61.494.902.123.204.253.4.382.604a23.528 23.528 0 0 0 6.169 6.482c2.418 1.704 12.817 9.775 32.21 1.367 5.009-2.167 13.01-8.084 13.139-8.084 11.664.388 15.322 1.404 19.121 1.22.089-.006.177-.006.266 0 7.161.235 9.492-.724 11.929-4.658l.068-.09a6.827 6.827 0 0 0 .826-1.213 8.316 8.316 0 0 0 1.635-.515l.092-.044c.167-.07.321-.153.475-.236.335-.182.653-.394.95-.635l.08-.064c.237-.193.457-.405.66-.635.226-.236.433-.491.617-.763.073-.11.139-.224.198-.343 0-.044.037-.082.055-.12.019-.039.068-.16.099-.242.018-.048.032-.096.043-.146.027-.07.048-.143.062-.216.013-.053.023-.106.031-.16l.037-.209v-.375a1.76 1.76 0 0 0 0-.178c-.074-.108-.074-.171-.081-.241Z" fill="#E2CAB3" style="mix-blend-mode:multiply"/><path fill-rule="evenodd" clip-rule="evenodd" d="M107.945 43.635c-.518-.374.055-.743-.173-1.207a2.063 2.063 0 0 0-.913-.877c-1.11-.636-2.529-.814-3.769-1.068-1.647-.343-3.164-1.156-4.774-1.652-1.974-.636-3.985-.96-5.897-1.773-3.67-1.557-6.877-4.074-10.381-5.917a62.506 62.506 0 0 0-11.035-4.449c-3.084-.94-6.168-1.671-9.32-2.313-7.359-3.178-15.42-3.178-23.162-1.703-6.446 1.214-13.157 4.016-16.315 10.372-1.468 3.031-1.85 6.545-2.06 9.895a14.444 14.444 0 0 0 1.48 7.416c2.43 4.824 7.198 8.11 11.788 10.423 5.255 2.67 11.288 4.506 17.178 4.29 3.615-.127 7.593-.585 10.943-2.079 2.738-1.22 4.786-3.597 6.933-5.643 2.668-2.653 6.08-4.372 9.752-4.913 3.935-.527 8.019.636 11.923.89 3.43.204 6.822.464 10.239.833 1.999.216 4.275.318 6.033-.845a3.3 3.3 0 0 0 1.332-2.085 3.168 3.168 0 0 0-.055-1.462c-.173-.712-.673-1.334.154-1.722 2.097-.985 1.881-3.101.099-4.41Z" fill="#C66720"/><path fill-rule="evenodd" clip-rule="evenodd" d="M107.945 43.59c-.525-.374.055-.743-.179-1.207a2.022 2.022 0 0 0-.907-.877 8.52 8.52 0 0 0-2.819-.883c.057.14.104.285.142.432.127.477.143.977.049 1.462a3.298 3.298 0 0 1-1.326 2.078c-1.758 1.163-4.034 1.061-6.032.845a195.127 195.127 0 0 0-10.24-.826c-3.929-.235-8.018-1.423-11.93-.89-3.668.543-7.08 2.26-9.751 4.907-2.147 2.046-4.188 4.448-6.927 5.65-3.35 1.493-7.328 1.944-10.943 2.078-5.89.216-11.929-1.627-17.178-4.297-3.522-1.779-7.143-4.124-9.734-7.283a13.892 13.892 0 0 0 1.419 5.536c2.467 4.823 7.217 8.09 11.812 10.422 5.25 2.67 11.288 4.513 17.179 4.297 3.614-.134 7.593-.585 10.942-2.085 2.739-1.22 4.78-3.597 6.927-5.643 2.672-2.651 6.086-4.368 9.758-4.907 3.93-.534 8.02.636 11.924.89 3.43.203 6.822.458 10.239.826 1.998.216 4.275.318 6.033-.845.343-.24.636-.549.864-.906.228-.358.384-.758.462-1.179a3.05 3.05 0 0 0-.05-1.455c-.172-.718-.672-1.34.155-1.728 2.091-.973 1.881-3.102.111-4.411Z" fill="#BB5200"/><path fill-rule="evenodd" clip-rule="evenodd" d="M60.16 31.414a36.024 36.024 0 0 1-3.615-1.2c-1.962-.871-3.85-1.876-5.867-2.632a18.793 18.793 0 0 0-7.895-.953c-4.262.095-8.734 1.042-12.3 3.336-.178.121-.357.242-.536.375a14.803 14.803 0 0 0-5.644 6.038c-.771 1.55-1.413 3.47-.783 5.186.56 1.506 2.578 1.703 3.873 1.906l.438.096c.775.358 1.592.61 2.43.75 2.986 1.175 5.601 3.12 8.476 4.683 3.762 2.053 8.018 2.46 11.843.394a16.632 16.632 0 0 0 4.817-4.207 13.211 13.211 0 0 0 4.485-3.877 14.009 14.009 0 0 1 3.084-3.304c.734-.56 1.85-1.398 1.912-2.44.154-2.486-2.887-3.547-4.719-4.15Z" fill="#DA840D"/><path fill-rule="evenodd" clip-rule="evenodd" d="M25.69 38.767a1.485 1.485 0 0 0-.528.32 1.536 1.536 0 0 0-.36.512c-.075.082-.14.174-.19.274-.058.115-.093.24-.106.368a.738.738 0 0 0 .087.712c.413.597 1.338-.114 2.03-.28.1.024.198.054.295.09a.156.156 0 0 0 .114-.003.163.163 0 0 0 .084-.08.174.174 0 0 0 .14-.028.182.182 0 0 0 .075-.125c.105-.94-.56-2.078-1.64-1.76ZM46.54 46.8a1.03 1.03 0 0 0-.568-.565c-1-.521-3.948 1.074-2.936 2.357a.93.93 0 0 0 .425.294.905.905 0 0 0 .513.018 3.556 3.556 0 0 0 1.671-.807c.393-.192.713-.514.907-.915.025-.037.047-.075.068-.115a.255.255 0 0 0-.08-.267Zm12.509-12.647a4.242 4.242 0 0 0-1.487.578 2.86 2.86 0 0 0-1.233 1.195c-.204.178-.346.42-.235.578a1.64 1.64 0 0 0-.166.255.274.274 0 0 0 .092.317c.202.139.428.234.666.28.172.087.355.146.543.178 1.308.248 3.411-.636 3.99-1.907.612-1.385-1.338-1.582-2.17-1.474Zm-25.562-3.59c-.746-.407-1.85.38-2.467.794-.617.413-1.628 1.271-1.338 2.123a.945.945 0 0 0 .172.305c.139.179.327.31.54.376.212.065.44.063.65-.008 1.099-.241 4.368-2.535 2.443-3.59Zm2.332 9.831a1.533 1.533 0 0 0-.154-.057 2.934 2.934 0 0 0-2.165.044 2.002 2.002 0 0 0-1.29.731.763.763 0 0 0-.23.553.78.78 0 0 0 .23.553c.161.635.957 1.017 1.796 1.074a2.528 2.528 0 0 0 2.689-.146c1.178-.87.062-2.32-.876-2.752Zm7.772-11.49c-1.141-.464-2.529.343-3.189 1.27a1.804 1.804 0 0 0-.105 1.907.228.228 0 0 1 0 .051.775.775 0 0 0 .093.108c.02.024.042.046.068.064a1.28 1.28 0 0 0 .814.355 1.57 1.57 0 0 0 1.233-.082c.326-.173.617-.408.858-.693.287-.18.554-.394.795-.635.827-.814.475-1.932-.567-2.345Zm-.29 9.577c-.537-2.141-1.887-2.688-3.886-2.58h-.265a.318.318 0 0 0-.191.045c-.16 0-.321.057-.475.095a.652.652 0 0 0-.556.12l-.141.14a.665.665 0 0 0-.304.148.713.713 0 0 0-.11.945c.103.304.3.563.562.738.173.099.369.151.567.152l.617.636.043.057c.007.256.031.51.074.763-.004.319.017.637.062.953.045.23.143.445.284.628.142.183.323.33.53.427.101.134.213.259.333.375.944.89 1.85.464 2.245-.356.846-.623.92-2.085.611-3.286Zm8.013-4.162c-.303-1.736-2.794-.814-2.93.489-.337.326-.605.72-.79 1.157a.209.209 0 0 0 .004.153.2.2 0 0 0 .107.107c.535.27 1.104.461 1.69.566.108.025.22.025.327 0 .269-.008.532-.078.771-.204.703-.4.956-1.506.82-2.269Zm3.472 6.284c-1.122-1.2-4.89-.311-5.051 1.551-.42.635-.18 1.404.74 1.366a9.216 9.216 0 0 0 1.234-.184c.29-.049.587-.03.87.057.063.026.13.045.197.057l.431.166a1.162 1.162 0 0 0 1.234-.045c.79-.553 1.018-2.262.345-2.968Zm-21.86-4.594a2.22 2.22 0 0 0-1.943 0c-.304.044-.58.202-.777.445-.265.2-.5.44-.697.712a.319.319 0 0 0 .062.42c.937.838 2.633.139 3.275-.795a.303.303 0 0 0 .05-.23.778.778 0 0 0 .11-.228.26.26 0 0 0-.08-.324Z" fill="#BB5200"/><path fill-rule="evenodd" clip-rule="evenodd" d="M37.38 44.76c.104-.197-.148-.388-.321-.312-.469.204-.938.426-1.394.636a8.234 8.234 0 0 0-1.937-.223c-.142 0-.197.16-.191.28 0 .502.345.782.617 1.125a1.795 1.795 0 0 0-.963.807.252.252 0 0 0 .054.34.236.236 0 0 0 .113.048c.105 0 .21.063.315.095-.457.947-1.234 1.614-1.234 2.765 0 .26.382.4.462.114.18-.742.62-1.389 1.234-1.818.037.217.087.439.117.636a.251.251 0 0 0 .061.13.233.233 0 0 0 .26.065.24.24 0 0 0 .111-.087c.32-.464.925-1.417 1.283-.413.018.045.05.084.089.11a.235.235 0 0 0 .267 0 .246.246 0 0 0 .088-.11c.062-.254.296-2.104.568-1.773a.234.234 0 0 0 .287.072.244.244 0 0 0 .114-.11.255.255 0 0 0 .024-.16c-.074-.743-.395-1.461-.024-2.217Z" fill="#5F825C"/><path fill-rule="evenodd" clip-rule="evenodd" d="M41.494 24.633c-.191-.114-.383.14-.315.318.173.495.37.979.58 1.462a9.396 9.396 0 0 0-.302 1.989c0 .14.148.21.259.21.438-.06.839-.287 1.123-.636.12.42.38.782.733 1.023a.237.237 0 0 0 .39-.152c0-.108.067-.216.104-.318.9.515 1.505 1.347 2.621 1.404.253 0 .408-.375.13-.47a3.096 3.096 0 0 1-1.702-1.322c.215 0 .425-.07.616-.095a.237.237 0 0 0 .128-.057.249.249 0 0 0 .074-.263.248.248 0 0 0-.078-.119c-.438-.35-1.333-1.017-.346-1.34a.243.243 0 0 0 .103-.092.253.253 0 0 0-.103-.36c-.246-.082-2.023-.407-1.696-.674a.255.255 0 0 0 .08-.287.246.246 0 0 0-.098-.121.235.235 0 0 0-.148-.036c-.728.089-1.438.38-2.153-.064Zm13.971 13.34c-.191-.114-.383.133-.32.318.178.495.37.978.585 1.461a9.017 9.017 0 0 0-.302 1.99c0 .14.148.203.259.21a1.769 1.769 0 0 0 1.123-.636c.123.417.382.779.734 1.023a.237.237 0 0 0 .236.039.24.24 0 0 0 .101-.075.253.253 0 0 0 .051-.117c0-.108.068-.216.105-.317.9.508 1.505 1.347 2.621 1.404.253 0 .408-.375.13-.477a3.04 3.04 0 0 1-1.702-1.321l.617-.09a.244.244 0 0 0 .122-.06.262.262 0 0 0 .001-.377c-.438-.35-1.333-1.018-.346-1.342a.242.242 0 0 0 .108-.091.253.253 0 0 0-.108-.366c-.246-.077-2.029-.4-1.696-.636a.254.254 0 0 0-.018-.409.235.235 0 0 0-.148-.036c-.728.026-1.438.35-2.153-.095Z" fill="#8DB54F"/><path fill-rule="evenodd" clip-rule="evenodd" d="M116.66 45.478c0-.057 0-.114.031-.172l.037-.247a1.888 1.888 0 0 0 0-.185v-1.061l-.037-.222c0-.058 0-.115-.037-.178-.037-.064-.031-.166-.049-.242a12.152 12.152 0 0 0-1.715-3.59 22.464 22.464 0 0 0-5.805-5.835c-1.233-.883-2.504-1.69-3.744-2.542-1.406-.991-2.664-2.167-4.04-3.177-1.468-1.113-8.346-10.245-13.194-16.149-2.27-2.77-5.736-7.207-11.306-8.834-3.744-1.093-7.254.382-11.14-.171-2.912-.477-7.279-.286-9.388 2.211-3.177 2.193-5.342 5.942-6.964 9.533a17.958 17.958 0 0 0-1.456 4.875v.152c0 .178-.043.356-.062.534l-.036.477v1.519c0 .343 0 .68.067 1.023l.093.712a24.722 24.722 0 0 0 2.541 8.261 15.197 15.197 0 0 0 5.65 6.076l.716.387c7.402 3.814 14.187 2.142 17.185 2.002a24.695 24.695 0 0 0 2.954-.394c.734-.127 1.524-.28 2.338-.425 2.905-.54 6.125-1.106 8.34-.884a5.49 5.49 0 0 1 1.424.318c6.169 2.498 7.464 7.804 13.682 10.168.363.14.746.267 1.141.388l.142.038h.037c2.825.814 6.322 1.068 9.011-.159l.333-.165.087-.044a6.608 6.608 0 0 0 2.942-3.12c.062-.134.111-.268.16-.401l-.018-.197.08-.28Z" fill="#E2CAB3" style="mix-blend-mode:multiply"/><path fill-rule="evenodd" clip-rule="evenodd" d="M117.067 38.017a23.086 23.086 0 0 0-5.964-5.993c-1.265-.902-2.573-1.735-3.843-2.637-1.444-1.017-2.739-2.23-4.145-3.299-1.512-1.143-8.574-10.524-13.57-16.587-2.314-2.84-5.873-7.404-11.597-9.075C74.105-.699 70.503.82 66.512.254c-2.979-.419-7.445-.222-9.604 2.326-3.263 2.25-5.49 6.101-7.155 9.788a16.651 16.651 0 0 0-1.573 8.801 25.558 25.558 0 0 0 2.702 9.197 15.535 15.535 0 0 0 5.798 6.24c7.89 4.449 15.21 2.6 18.381 2.453 3.541-.158 12.17-2.751 15.464-1.417 6.316 2.542 7.661 8.008 14.045 10.416 4.46 1.685 11.615 2.168 14.064-3.133 1.067-2.313-.315-5.008-1.567-6.908Z" fill="#C66720"/><path fill-rule="evenodd" clip-rule="evenodd" d="M118.634 44.925c-2.467 5.3-9.61 4.818-14.064 3.134-6.384-2.41-7.728-7.862-14.045-10.417-3.294-1.334-11.923 1.271-15.464 1.424-3.164.14-10.486 1.995-18.381-2.46a15.617 15.617 0 0 1-5.798-6.24 25.643 25.643 0 0 1-2.702-9.196 15.36 15.36 0 0 1 .068-3.814.163.163 0 0 1 0 .083v.591c0 .197.093.305.154.451a.274.274 0 0 1-.055.305c0 .077 0 .153.05.23 1.35 5.605 7.61 8.897 12.15 11.439a41.363 41.363 0 0 0 19.807 5.04c3.602.044 6.495-1.418 9.696-2.924a7.639 7.639 0 0 1 7.236.26c5.372 3.076 9.783 8.612 16.241 9.336 1.688.207 3.4.073 5.039-.394l.198-.057a4.782 4.782 0 0 1-.13 3.21Z" fill="#BB5200"/><path fill-rule="evenodd" clip-rule="evenodd" d="M104.379 30.035c-1.431-1.068-13.058-15.424-13.835-16.778-.777-1.354-3.399-1.907-4.065-3.241a7.996 7.996 0 0 0-2.114-2.885 7.695 7.695 0 0 0-3.13-1.634c-2.337-.673-4.712-.635-6.963-1.665a18.918 18.918 0 0 0-3.54-1.43 17.827 17.827 0 0 0-3.893-.356c-2.3 0-4.762-.19-7.032.223a4.783 4.783 0 0 0-2.973 1.906c-1.024.91-1.647 2.37-2.128 3.7-.931 2.573-1.906 5.407-1.85 8.223a9.538 9.538 0 0 0 1.06 3.85 9.253 9.253 0 0 0 2.53 3.039c2.048 1.614 4.755 1.741 7.05 2.72 1.345.572 2.313 1.684 3.504 2.542a7.813 7.813 0 0 0 3.33 1.271c2.671.439 5.435-.585 7.97-1.322 3.146-.909 6.298-1.875 9.524-.674 1.422.543 2.91.881 4.422 1.005 1.296.635 2.758 1.017 4.034 1.614 1.85.87 3.584 2.04 5.465 2.872l.617.49c.617.508 3.541 3.031 4.374 1.658 1.27-2.116-.994-4.099-2.357-5.128Z" fill="#DA840D"/><path fill-rule="evenodd" clip-rule="evenodd" d="M56.693 13.835a.604.604 0 0 0-.39.127.636.636 0 0 0-.227.35 1.51 1.51 0 0 0-.068.94.582.582 0 0 0 .04.425c.067.13.181.23.318.275 1.036.438 1.758 1.385 2.942 1.493a.545.545 0 0 0 .407-.167.579.579 0 0 0 .166-.418 3.512 3.512 0 0 0-1.06-2.11 3.324 3.324 0 0 0-2.128-.915ZM63.736 6.4a3.023 3.023 0 0 0-.711-1.086 2.927 2.927 0 0 0-1.09-.675 1.699 1.699 0 0 0-1.486.114.47.47 0 0 0-.358.166c-.284.314-.494.69-.617 1.1a.654.654 0 0 0 .113.56.619.619 0 0 0 .504.24 8.397 8.397 0 0 1 2.918.368.6.6 0 0 0 .58-.182.64.64 0 0 0 .148-.606Zm3.233 7.111h-.062a.462.462 0 0 0-.617.14c-1.4 1.633 1.925 2.809 2.628 3.769.37.502 1 .038 1.061-.433.191-1.461-1.511-3.641-3.01-3.476Zm9.345-4.334a5.059 5.059 0 0 0-1.678-2.148 1.365 1.365 0 0 0-.574-.335 1.336 1.336 0 0 0-.66-.02.93.93 0 0 0-.398.265.971.971 0 0 0-.219.433.717.717 0 0 0-.142.185 1.297 1.297 0 0 0 .224 1.627c.144.132.317.228.504.28.685.279 1.45.253 2.14.52a.6.6 0 0 0 .653-.139.641.641 0 0 0 .15-.668Zm3.651 9.215c-.475-1.194-1.795-2.542-3.12-2.453a.605.605 0 0 0-.386.12.636.636 0 0 0-.232.338 1.131 1.131 0 0 0-.052.687c.054.229.179.433.355.584l.067.095a5.076 5.076 0 0 0 2.659 1.532.6.6 0 0 0 .64-.214.645.645 0 0 0 .07-.689ZM64.415 20.7a.678.678 0 0 0-.401.14.712.712 0 0 0-.247.355.83.83 0 0 0 .122.727.764.764 0 0 0 .644.322c.616.527 1.11 1.2 1.77 1.684a.603.603 0 0 0 .828-.22.65.65 0 0 0 .09-.308 3.022 3.022 0 0 0-.906-1.898 2.856 2.856 0 0 0-1.9-.803Zm12.855 3.177a2.865 2.865 0 0 0-1.14-1.031 2.765 2.765 0 0 0-1.494-.278.607.607 0 0 0-.111-.057.6.6 0 0 0-.407.035.625.625 0 0 0-.296.289.74.74 0 0 0-.216.705c.018.087.05.17.092.248 0 .636.124 1.271.82 1.404.698.134 1.463-.362 2.221-.375a.602.602 0 0 0 .302-.087.626.626 0 0 0 .221-.229.65.65 0 0 0 .008-.624Zm7.075-13.48c-.321-.839-.784-1.748-1.795-1.544-1.147.228-1.147 1.5-.617 2.497a.509.509 0 0 0 .173.534 10.202 10.202 0 0 0 1.881 1.525.603.603 0 0 0 .835-.217.65.65 0 0 0 .09-.31 6.183 6.183 0 0 0-.567-2.485Zm4.003 8.91a3.047 3.047 0 0 0-1.376-1.385 1.303 1.303 0 0 0-1.017-.064.511.511 0 0 0-.438.19c-.35.281-.586.684-.666 1.132-.037.369.314.636.616.636a7.824 7.824 0 0 1 2.16.425c.58.236.937-.463.721-.934Zm-.364 4.252a1.993 1.993 0 0 0-1.375-.413 1.28 1.28 0 0 0-.771.305.54.54 0 0 0-.314.131.582.582 0 0 0-.156.643c.043.11.119.204.217.268.353.29.79.454 1.242.464a2.03 2.03 0 0 0 1.262-.407.638.638 0 0 0 .18-.522.65.65 0 0 0-.285-.47Zm7.18-.649a3.982 3.982 0 0 0-1.567-2.243.605.605 0 0 0-.882.212.65.65 0 0 0-.08.335 1.78 1.78 0 0 0 .58 1.411c.242.428.606.77 1.042.978.456.21 1.06-.088.907-.692Zm5.015 5.955a3.003 3.003 0 0 0-.537-1.03.487.487 0 0 0-.072-.269.466.466 0 0 0-.206-.181 3.893 3.893 0 0 0-.672-.286.78.78 0 0 0-.105-.064.648.648 0 0 0-.572.107.682.682 0 0 0-.273.529 2.37 2.37 0 0 0 .734 1.493c.26.224.56.394.882.502a.642.642 0 0 0 .63-.162.693.693 0 0 0 .191-.639Z" fill="#BB5200"/><path fill-rule="evenodd" clip-rule="evenodd" d="M72.52 9.813a17.064 17.064 0 0 0-2.516-2.06 3.893 3.893 0 0 0-1.974-.215c.238-.247.524-.44.839-.566a.558.558 0 0 0 .196-.207A.58.58 0 0 0 68.87 6a70.803 70.803 0 0 1-.34-1.068c.105-.432-.37-.934-.783-.636-.845.598-1.61 1.271-2.467 1.907a2.892 2.892 0 0 0-.684-1.001 2.79 2.79 0 0 0-1.025-.62.503.503 0 0 0-.445.087.53.53 0 0 0-.209.415c0 .75-1.492.572-2.078.833a.543.543 0 0 0-.271.4.568.568 0 0 0 .141.464l.136.108a2.88 2.88 0 0 0-1.518 1.316.572.572 0 0 0 .222.778.53.53 0 0 0 .284.06c.876 0 2.091-.635 3.084-.698a3.583 3.583 0 0 0-.814 1.03.578.578 0 0 0 .191.77.526.526 0 0 0 .272.08h.456c-1.19 1.539-2.01 2.905-1.684 5.155a.581.581 0 0 0 .17.28.554.554 0 0 0 .608.091.567.567 0 0 0 .24-.219 11.112 11.112 0 0 1 2.412-3.145l.24.362a.572.572 0 0 0 .271.234.552.552 0 0 0 .651-.174.595.595 0 0 0 .127-.34c.037-.311.043-.635.068-.947.025-.311.037-.49.062-.73.043-.09.08-.16.104-.223.08.055.176.082.272.076.223.108.413.277.55.489a1.4 1.4 0 0 1 .22.712c.031.108.09.205.173.28a.56.56 0 0 0 .61.09.573.573 0 0 0 .242-.217c.16-.731.66-.915 1.505-.566a.547.547 0 0 0 .765-.19 1.66 1.66 0 0 1 .686-.413c.258-.078.53-.091.794-.039a.556.556 0 0 0 .308-.097.58.58 0 0 0 .206-.254.6.6 0 0 0-.1-.627Z" fill="#8DB54F"/><path fill-rule="evenodd" clip-rule="evenodd" d="M65.112 8.606a5.89 5.89 0 0 0-.962 1.061c-.305.04-.604.113-.895.216a.073.073 0 0 0-.052.022.077.077 0 0 0 0 .108.073.073 0 0 0 .052.023c.246-.032.49-.083.728-.153-.492.8-.923 1.64-1.289 2.51-.237.11-.458.256-.654.432-.043.039 0 .121.056.083a3.38 3.38 0 0 1 .524-.356c-.148.33-.302.636-.462.96-.056.108.11.216.166.102.16-.325.308-.636.463-.966-.026.138-.026.28 0 .419.004.016.014.03.026.04a.073.073 0 0 0 .089 0 .076.076 0 0 0 .026-.04c0-.203-.043-.413 0-.636a.071.071 0 0 0 0-.07c.349-.75.734-1.482 1.154-2.192v.578c0 .191.191.14.197 0a6.233 6.233 0 0 0 0-.896c.272-.42.573-.82.9-1.195.032-.025-.024-.088-.067-.05Zm-.401-.598c-.314-.159-.617-.356-.95-.527a2.754 2.754 0 0 1 0-1.189l.173-.133a.833.833 0 0 0 .24-.197.052.052 0 0 0-.002-.058.048.048 0 0 0-.053-.018.612.612 0 0 0-.315.177 5.39 5.39 0 0 0 .1-.705c0-.102-.143-.114-.167 0a5.74 5.74 0 0 0-.204.89 3.516 3.516 0 0 0-.345-.458s-.037 0 0 0c.148.191.265.406.345.636-.04.319-.018.643.068.953a3.018 3.018 0 0 0-1.234-.381c0-.039 0-.077.05-.121a.104.104 0 0 0-.037-.108 5.055 5.055 0 0 0-.512-.204.109.109 0 0 0-.12.04.117.117 0 0 0 .058.183c.142.038.284.095.426.127v.083a1.88 1.88 0 0 0-.596.11.032.032 0 0 0-.009.023.03.03 0 0 0 .01.023.03.03 0 0 0 .02.009 2.46 2.46 0 0 1 .513-.045 2.209 2.209 0 0 1-.29.47s0 .051.043 0c.1-.1.193-.208.278-.323a1.11 1.11 0 0 0 .092-.166 6.51 6.51 0 0 1 2.32 1.004c.104.096.19-.05.098-.095Zm3.016-2.923c.056-.083-.061-.166-.13-.109-.18.16-.354.33-.517.509a.049.049 0 0 0-.045-.004.05.05 0 0 0-.03.036v.082c-.3.343-.572.71-.813 1.1 0-.197.074-.394.086-.598 0-.076-.105-.07-.117 0 0 .293-.118.579-.136.871a7.149 7.149 0 0 0-.345.686c0 .058.049.108.08.051.105-.184.228-.356.345-.534.282.003.56-.074.802-.222v-.076a.768.768 0 0 0-.333.057l-.32.063c.197-.273.412-.54.616-.807 0 .058.037.108.093.09.203-.058.555-.045.69-.217a.045.045 0 0 0 0-.076.7.7 0 0 0-.302 0l-.29.076v-.146c.204-.197.438-.515.666-.832Zm2.819 4.664a3.703 3.703 0 0 1-1.542-.045 3.81 3.81 0 0 0 .66-.063c.117 0 .087-.21 0-.21-.333 0-.672.07-1.005.108a.103.103 0 0 0-.08.045 7.825 7.825 0 0 1-.876-.344.558.558 0 0 0 .413-.044.063.063 0 0 0 .035-.057.063.063 0 0 0-.035-.057.6.6 0 0 0-.32-.058l-.519-.07a.072.072 0 0 0-.042.008.075.075 0 0 0-.032.03 3.21 3.21 0 0 0-1.233-.374c-.062 0-.08.101 0 .114.445.095.878.245 1.289.445.11.26.238.514.382.756.043.045.13 0 .105-.057-.068-.19-.136-.394-.216-.578.376.171.746.35 1.129.489.102.197.224.382.364.553.037.044.086 0 .068-.05-.056-.147-.13-.287-.198-.427a3.141 3.141 0 0 0 1.74.07.1.1 0 0 0 .05-.058.106.106 0 0 0-.027-.11.099.099 0 0 0-.072-.026.097.097 0 0 0-.038.01Zm-5.199.781a8.2 8.2 0 0 0 .197-.94c0-.05-.074-.07-.099 0a3.426 3.426 0 0 0-.314 1.106 3.58 3.58 0 0 0-.302.375c-.037.05.043.12.086.07l.185-.204v.464a1.834 1.834 0 0 0-.197.337c0 .05.067.089.086.038.034-.06.073-.118.117-.171.005.174.02.348.043.52 0 .058.093.045.093 0v-.444a.426.426 0 0 1 .055.12.078.078 0 0 0 .063.06.075.075 0 0 0 .077-.038.08.08 0 0 0 .009-.06c0-.14-.155-.222-.198-.355-.043-.134.037-.4.068-.598.033.088.056.18.068.274 0 .107.185.063.166-.045a1.226 1.226 0 0 0-.154-.445l-.05-.063Z" fill="#5F825C"/><path fill-rule="evenodd" clip-rule="evenodd" d="M72.97 29.985a10.373 10.373 0 0 0-.801-1.755 2.353 2.353 0 0 0-.975-.635c.184-.065.38-.09.574-.07a.333.333 0 0 0 .302-.34.344.344 0 0 0-.043-.162l.092-.636c.16-.197.037-.584-.246-.546-.617.082-1.166.248-1.758.343a1.717 1.717 0 0 0-.106-.688 1.677 1.677 0 0 0-.37-.583.3.3 0 0 0-.255-.073.299.299 0 0 0-.213.162c-.21.388-.925-.095-1.296-.12a.306.306 0 0 0-.24.138.33.33 0 0 0-.043.28l.043.09a1.646 1.646 0 0 0-1.123.28.327.327 0 0 0-.154.282.339.339 0 0 0 .154.283c.463.222 1.234.222 1.802.464a2.275 2.275 0 0 0-.685.318.328.328 0 0 0-.155.282.339.339 0 0 0 .155.283c.078.041.158.077.24.108-1.005.49-1.776.979-2.177 2.237a.346.346 0 0 0 .132.347.321.321 0 0 0 .361.01 6.192 6.192 0 0 1 2.036-.986c0 .083 0 .165.03.248.004.074.03.145.077.202a.319.319 0 0 0 .389.088.331.331 0 0 0 .152-.15c.098-.159.185-.324.271-.483a4.25 4.25 0 0 1 .222-.356l.105-.095c.028.05.072.09.123.114a.82.82 0 0 1 .105.832.346.346 0 0 0 .132.341.32.32 0 0 0 .355.015c.272-.336.58-.305.932.109a.326.326 0 0 0 .201.145.313.313 0 0 0 .243-.044.965.965 0 0 1 .888.159c.296.083.642-.178.525-.438Z" fill="#8DB54F"/><path fill-rule="evenodd" clip-rule="evenodd" d="M69.411 27.372a3.03 3.03 0 0 0-.758.3 2.063 2.063 0 0 0-.519-.128c-.049 0-.074.064 0 .083.135.047.274.086.414.114a9.976 9.976 0 0 0-1.314.966 1.368 1.368 0 0 0-.45.05v.058c.12-.027.241-.042.363-.045l-.48.375c-.056.045 0 .14.061.096l.487-.381a.776.776 0 0 0-.092.228.044.044 0 0 0 .016.02.042.042 0 0 0 .064-.02c.062-.101.08-.229.148-.33a.039.039 0 0 0 0-.045c.37-.292.74-.578 1.135-.832a4.77 4.77 0 0 1-.16.292.065.065 0 0 0 .004.04.063.063 0 0 0 .027.03.06.06 0 0 0 .073-.013c.09-.145.169-.298.235-.457.247-.15.505-.28.77-.388 0 0 .013-.019-.024-.013Zm2.548 2.047c-.29-.09-.56-.237-.796-.433.124.051.24.102.364.14.123.038.099-.082.037-.114-.173-.089-.37-.146-.549-.216a.06.06 0 0 0-.055 0 3.742 3.742 0 0 1-.364-.42.308.308 0 0 0 .222.09s.05 0 0-.058a.445.445 0 0 0-.154-.114l-.253-.178h-.05a2.004 2.004 0 0 0-.549-.528s-.061 0-.037.058c.208.17.397.363.562.578-.013.165-.013.33 0 .496h.067c.007 0 0-.235.031-.356.148.19.303.387.463.559.005.13.021.26.05.388 0 .031.049 0 .049 0v-.274c.247.247.553.42.888.502a.068.068 0 0 0 .096-.022.073.073 0 0 0-.022-.098Zm-2.911-.985a3.9 3.9 0 0 0 .345-.433c0-.031 0-.063-.043-.044a1.886 1.886 0 0 0-.444.496c-.087.031-.172.07-.253.114-.037 0 0 .07 0 .057l.148-.057c-.043.083-.086.159-.124.241a.758.758 0 0 0-.19.121s0 .064.036.045a.617.617 0 0 1 .105-.064 3.38 3.38 0 0 0-.11.286c-.032.09.036.051.049 0 .012-.05.08-.152.117-.229a.156.156 0 0 1 0 .077c0 .011.004.023.012.031a.042.042 0 0 0 .061 0 .045.045 0 0 0 .013-.031v-.242c0-.082.117-.197.185-.292a.728.728 0 0 1 0 .159c0 .063.074.089.099 0a.809.809 0 0 0 0-.274l-.006.039Z" fill="#5F825C"/><path fill-rule="evenodd" clip-rule="evenodd" d="M81.847 13.403a5.739 5.739 0 0 0-.5-1.106 1.476 1.476 0 0 0-.617-.406.871.871 0 0 1 .364-.045.199.199 0 0 0 .098-.034.214.214 0 0 0 .063-.284c0-.14.043-.273.061-.406.019-.134 0-.375-.154-.35-.376.057-.74.159-1.11.216a1.135 1.135 0 0 0-.303-.82.194.194 0 0 0-.302.058c-.13.241-.58-.064-.82-.077a.186.186 0 0 0-.15.086.2.2 0 0 0-.023.175.238.238 0 0 0 0 .057 1.006 1.006 0 0 0-.71.178.208.208 0 0 0-.095.178.208.208 0 0 0 .096.178c.296.14.795.146 1.14.292a1.482 1.482 0 0 0-.431.204.215.215 0 0 0 0 .362l.154.063c-.31.12-.59.31-.82.557-.23.246-.402.543-.506.867a.22.22 0 0 0 .088.215.205.205 0 0 0 .227.007c.389-.29.825-.505 1.289-.635v.159a.22.22 0 0 0 .052.121.208.208 0 0 0 .24.055.212.212 0 0 0 .096-.087 7.59 7.59 0 0 0 .173-.305c.056-.102.093-.153.142-.23l.068-.056a.156.156 0 0 0 .074.07.517.517 0 0 1 .068.527.222.222 0 0 0 .083.216.205.205 0 0 0 .225.013c.173-.216.37-.19.617.063a.21.21 0 0 0 .128.095.204.204 0 0 0 .156-.025.6.6 0 0 1 .555.102c.142.089.358-.083.284-.248Z" fill="#8DB54F"/><path fill-rule="evenodd" clip-rule="evenodd" d="M81.205 13.048a1.486 1.486 0 0 1-.5-.274l.229.09c.043 0 .062-.058 0-.077-.062-.019-.235-.089-.346-.133a.037.037 0 0 0-.037 0 2.367 2.367 0 0 1-.234-.26c.04.033.09.053.142.056 0 0 .03 0 0-.038a.378.378 0 0 0-.099-.076l-.16-.108a1.25 1.25 0 0 0-.346-.337s-.043 0 0 .038c.13.108.247.23.352.362v.318c0 .102.043 0 .043 0a1.433 1.433 0 0 0 0-.229c.099.121.191.242.296.35.004.084.016.167.037.248h.031v-.172c.156.155.35.263.561.312a.037.037 0 0 0 .05-.02.04.04 0 0 0 0-.029.038.038 0 0 0-.019-.021Zm-1.838-.623a3.05 3.05 0 0 0 .216-.28s0-.032-.031 0c-.11.086-.203.192-.278.311l-.16.077v.038l.093-.038c-.031.05-.056.101-.08.152a.47.47 0 0 0-.118.076v.032l.062-.044c0 .063-.05.127-.068.184-.019.057 0 0 0 0l.074-.146v.044h.055v-.146l.118-.19a.294.294 0 0 1 0 .101c0 .038.049.051.061 0a.4.4 0 0 0 0-.171h.056Z" fill="#5F825C"/><path fill-rule="evenodd" clip-rule="evenodd" d="M97.366 22.606a9.777 9.777 0 0 0-1.85-.852c-.42-.05-.845.011-1.234.178.107-.184.25-.344.42-.47a.358.358 0 0 0 .092-.335.359.359 0 0 0-.228-.256l-.358-.591c0-.28-.364-.509-.568-.267-.425.496-.783 1.036-1.19 1.544a1.793 1.793 0 0 0-.561-.498 1.74 1.74 0 0 0-.71-.22.321.321 0 0 0-.258.126.34.34 0 0 0-.063.287c.087.458-.82.578-1.135.826a.344.344 0 0 0-.103.283.352.352 0 0 0 .153.258l.098.05a1.83 1.83 0 0 0-.721 1.03.36.36 0 0 0 .078.337.338.338 0 0 0 .323.101c.524-.146 1.165-.711 1.776-.915-.155.227-.27.481-.34.75a.36.36 0 0 0 .081.341.338.338 0 0 0 .327.098c.086 0 .173-.051.271-.083-.487 1.112-.783 2.072-.252 3.381a.353.353 0 0 0 .328.156.346.346 0 0 0 .175-.072.36.36 0 0 0 .113-.154c.196-.809.53-1.575.987-2.262l.192.184a.342.342 0 0 0 .453.113.359.359 0 0 0 .164-.193.373.373 0 0 0 0-.257c0-.19-.062-.387-.1-.584a5.915 5.915 0 0 1-.067-.452.777.777 0 0 0 0-.152c.058.019.12.019.179 0 .156.03.3.106.415.218a.852.852 0 0 1 .232.417.353.353 0 0 0 .33.156.346.346 0 0 0 .173-.072.36.36 0 0 0 .114-.154c0-.464.265-.635.827-.578a.336.336 0 0 0 .373-.111.359.359 0 0 0 .065-.124 1.028 1.028 0 0 1 .826-.502.345.345 0 0 0 .217-.075.372.372 0 0 0 .11-.431.358.358 0 0 0-.154-.174Z" fill="#8DB54F"/><path fill-rule="evenodd" clip-rule="evenodd" d="M92.715 23.038a3.602 3.602 0 0 0-.42.794 2.31 2.31 0 0 0-.505.274.044.044 0 0 0-.02.023.046.046 0 0 0 0 .032.043.043 0 0 0 .05.027c.143-.057.281-.125.414-.203a11.436 11.436 0 0 0-.4 1.722 1.647 1.647 0 0 0-.334.363s0 .07.05.038a1.9 1.9 0 0 1 .258-.293c-.043.223-.086.439-.135.636 0 .076.098.114.117.038.05-.223.092-.439.136-.636a.584.584 0 0 0 .08.248c.03.051.086 0 .08 0-.006 0-.086-.241-.099-.375a.047.047 0 0 0 0-.038c.105-.502.21-1.004.358-1.493.03.12.05.235.074.356.025.12.136.05.123-.032a4.013 4.013 0 0 0-.123-.54c.098-.298.22-.587.364-.865l-.068-.076Zm-.333-.298c-.216-.045-.438-.109-.654-.166a1.844 1.844 0 0 1-.16-.724l.092-.108a.557.557 0 0 0 .111-.16.032.032 0 0 0 0-.018.031.031 0 0 0-.025-.023.03.03 0 0 0-.018.004.493.493 0 0 0-.166.158 2.62 2.62 0 0 0-.044-.438.055.055 0 0 0-.105 0c-.015.195-.015.39 0 .585a2.259 2.259 0 0 0-.277-.223c.093.108.247.197.302.33.023.2.086.393.185.566a1.798 1.798 0 0 0-.802-.038v-.082c0-.032 0-.051-.037-.058a3.1 3.1 0 0 0-.339-.044c-.092 0-.099.146 0 .146h.278a.125.125 0 0 1 0 .05 1.16 1.16 0 0 0-.327.147v.038a1.44 1.44 0 0 1 .302-.108 1.715 1.715 0 0 1-.105.33h.031a2.74 2.74 0 0 0 .123-.235.801.801 0 0 0 0-.12 4.16 4.16 0 0 1 1.555.241c.11.09.142-.038.08-.05Zm1.375-2.225c0-.058-.061-.09-.092-.045a3.987 3.987 0 0 0-.234.388h-.044v.114a5.933 5.933 0 0 0-.326.795 3.893 3.893 0 0 0-.038-.375c0-.045-.074 0-.067 0 0 .184 0 .368.049.546.05.178-.08.318-.111.47 0 .039.05.058.055 0 .007-.057.087-.254.13-.38a.857.857 0 0 0 .45-.261v-.038a.504.504 0 0 0-.197.088l-.185.09c.08-.198.172-.395.259-.585a.053.053 0 0 0 .008.02.05.05 0 0 0 .038.022.049.049 0 0 0 .022-.004c.117-.07.327-.114.388-.242v-.044a.394.394 0 0 0-.178.07l-.16.089v-.096c.055-.203.153-.406.233-.622Zm2.406 2.363a2.31 2.31 0 0 1-.937.223 3.55 3.55 0 0 0 .388-.146.063.063 0 0 0 .035-.034.066.066 0 0 0 .002-.049.064.064 0 0 0-.032-.036.06.06 0 0 0-.048-.002c-.21.06-.416.135-.617.223 0 0-.037 0-.037.038a3.69 3.69 0 0 1-.586-.07.345.345 0 0 0 .256-.105.045.045 0 0 0-.015-.06.557.557 0 0 0-.204 0c-.105 0-.216 0-.32.038a.08.08 0 0 0-.044.038 1.895 1.895 0 0 0-.802 0c-.037 0-.03.07 0 .07.282-.011.563.01.84.063.106.14.222.275.345.4.03 0 .08 0 .055-.057l-.216-.311c.253.05.506.095.753.12.09.103.192.195.302.274.031 0 .056 0 .037-.038-.018-.038-.123-.153-.185-.229.368.026.736-.056 1.061-.235.093-.05.03-.153-.03-.114ZM93.14 24.15a3.868 3.868 0 0 0 0-.597h-.067c-.038.238-.038.48 0 .718-.05.088-.093.18-.13.273 0 .038.043.064.068 0 .025-.063.05-.102.08-.152l.056.28a1.126 1.126 0 0 0-.068.234c0 .039.055.051.062 0a.52.52 0 0 1 .043-.127c.027.106.06.21.098.312h.056c-.012 0-.043-.185-.062-.274a.25.25 0 0 1 .05.064c.03.057.117 0 .086-.044-.03-.045-.124-.115-.173-.185-.05-.07-.037-.248-.05-.375a.71.71 0 0 1 .087.16c0 .063.117 0 .093-.058a.763.763 0 0 0-.228-.229Z" fill="#5F825C"/><path fill-rule="evenodd" clip-rule="evenodd" d="M90.797 61.747c0 1.945-4.404 3.451-9.777 3.369-5.372-.083-9.703-1.735-9.678-3.68.025-1.945 4.41-3.457 9.783-3.368 5.373.089 9.703 1.728 9.672 3.68Z" fill="#E2CAB3" style="mix-blend-mode:multiply"/><path fill-rule="evenodd" clip-rule="evenodd" d="m94.319 49.768-26.524-.299 2.714 9.736c.617 2.88 5.034 5.085 10.425 5.212 5.798.152 9.412-1.189 10.61-5.491l2.775-9.158Z" fill="#E7D8C8"/><path fill-rule="evenodd" clip-rule="evenodd" d="M94.448 48.79c-.043 4.06-6.057 7.276-13.434 7.2-7.377-.077-13.323-3.438-13.28-7.5.043-4.06 6.057-7.276 13.434-7.18 7.377.094 13.323 3.425 13.28 7.48Z" fill="#fff"/><path fill-rule="evenodd" clip-rule="evenodd" d="M93.986 48.618c-.037 3.813-5.842 6.857-12.954 6.78-7.112-.076-12.86-3.24-12.823-7.066.037-3.826 5.847-6.858 12.953-6.781 7.106.076 12.867 3.247 12.824 7.067Z" fill="#E2CAB3"/><path fill-rule="evenodd" clip-rule="evenodd" d="M93.005 49.946c-.031 3.076-5.41 5.51-12.016 5.44-6.606-.07-11.905-2.637-11.905-5.707S74.5 44.17 81.1 44.24c6.6.07 11.942 2.631 11.905 5.707Z" fill="#C73A54"/><path opacity=".1" fill-rule="evenodd" clip-rule="evenodd" d="M81.285 46.235c-4.509-.051-8.302 1.03-9.418 2.542 2.1-.631 4.283-.917 6.47-.846 4.75.051 8.586 1.272 8.574 2.778 0 1.309-3.053 2.364-7.05 2.542.45 0 .912.05 1.381.057 5.373.063 9.746-1.474 9.765-3.432.018-1.957-4.35-3.578-9.722-3.641Z" fill="#fff"/><path fill-rule="evenodd" clip-rule="evenodd" d="M70.466 49.933a1.191 1.191 0 0 0-.444.362s0 .051.037.038a1.9 1.9 0 0 0 .475-.317.059.059 0 0 0-.005-.066.055.055 0 0 0-.063-.017Zm.956.508a1.569 1.569 0 0 0-.555.553s0 .045.037.032c.234-.114.45-.267.666-.4.216-.134-.018-.267-.148-.184Zm.45-1.55a1.61 1.61 0 0 0-.29.394c0 .077.068.14.136.09.138-.09.259-.205.358-.337.093-.102-.092-.261-.204-.147Zm.988 1.029c0-.038-.062 0-.068 0-.037.204-.087.439.074.598.037.031.105 0 .098-.038-.037-.191-.08-.37-.105-.56Zm-.543 1.386c-.21.05-.26.241-.284.425 0 .077.11.108.135 0 .063-.13.137-.253.223-.368.03-.013-.025-.07-.074-.057Zm1.03.992a.718.718 0 0 0-.352.413c0 .044.05.089.087.044.11-.125.228-.243.351-.356a.072.072 0 0 0-.005-.085.067.067 0 0 0-.081-.016Zm-1.987-.261c0-.038-.092 0-.073.044.052.138.14.258.252.35.037 0 .087 0 .068-.051-.018-.051-.172-.223-.246-.343Zm3.492-1.03a5.71 5.71 0 0 0-.815.102.071.071 0 0 0-.065.012.075.075 0 0 0-.03.061.076.076 0 0 0 .061.075.071.071 0 0 0 .034-.002c.278 0 .617 0 .82-.184.044-.02.026-.064-.005-.064Zm.123-1.481a.675.675 0 0 0-.486.221.066.066 0 0 0 .016.09.062.062 0 0 0 .047.01.06.06 0 0 0 .022-.01c.164-.039.316-.117.444-.228a.06.06 0 0 0 0-.053.055.055 0 0 0-.043-.03Zm-1.185-1.15c-.135.083-.147.23-.178.375-.031.147.099.09.13 0a.83.83 0 0 0 .16-.343.071.071 0 0 0-.018-.03.066.066 0 0 0-.093-.002Zm2.11-.076a.067.067 0 0 0-.048.02.071.071 0 0 0 0 .1c.013.012.03.02.048.02h.284c.099 0 .136.057.21.063.074.007.05 0 .05-.038.042-.33-.383-.222-.544-.165Zm-.327-.744c-.12.002-.238.024-.351.064a.073.073 0 0 0-.052.022.077.077 0 0 0 0 .108.073.073 0 0 0 .052.022c.119-.018.235-.052.345-.102a.052.052 0 0 0 .04-.014.058.058 0 0 0 .005-.08.055.055 0 0 0-.039-.02Zm1.327 2.327c-.124-.14-.364-.096-.53-.185-.167-.089-.18.096-.087.153.092.057.438.216.617.095a.046.046 0 0 0 .01-.049.044.044 0 0 0-.01-.015Zm-.364 1.378a1.919 1.919 0 0 1-.302-.108c-.08-.05-.167.058-.087.108a.465.465 0 0 0 .383.108.056.056 0 0 0 .028-.019.058.058 0 0 0-.022-.089Zm-1.129 1.309a1.448 1.448 0 0 1-.438 0c-.086 0-.13.128-.037.147a.547.547 0 0 0 .506 0 .072.072 0 0 0 .045-.033.077.077 0 0 0 .01-.056.075.075 0 0 0-.031-.047.07.07 0 0 0-.055-.01Zm-.87 1.087a4.337 4.337 0 0 0-.425-.184c-.068-.038-.154 0-.099.09a.47.47 0 0 0 .229.172c.091.032.19.034.283.005a.042.042 0 0 0 .023-.013.046.046 0 0 0 .007-.05.044.044 0 0 0-.018-.02Zm2.622.216a3.76 3.76 0 0 0-.617.07c-.093 0-.111.12 0 .133.21.03.425-.006.617-.101.074-.032.05-.09 0-.102Zm-.093-1.182c-.185 0-.32.153-.512.191a.067.067 0 0 0-.048.02.071.071 0 0 0 0 .1c.013.012.03.02.048.02a.941.941 0 0 0 .55-.235c.06-.038 0-.102-.038-.096Zm2.664.89c-.35.095-.696.235-1.048.337-.086 0-.043.165.05.146.38-.022.743-.164 1.042-.407a.052.052 0 0 0-.018-.07.049.049 0 0 0-.025-.006Zm-1.116-1.087a.79.79 0 0 0-.339.363c-.037.082.093.146.148.076.101-.104.196-.215.284-.33.037-.051-.012-.153-.093-.109Zm-.277-1.62c-.21.125-.398.286-.555.477-.056.057.043.152.105.095.172-.159.431-.286.518-.508.012-.039-.031-.096-.068-.064Zm.271-1.938c-.228 0-.413.241-.573.38a.08.08 0 0 0-.025.108.074.074 0 0 0 .105.025c.203-.1.487-.215.555-.437a.064.064 0 0 0-.035-.07.06.06 0 0 0-.027-.006Zm-.777-.636a1.302 1.302 0 0 0-.382.311c-.068.077.061.166.135.096.119-.094.224-.203.315-.325a.06.06 0 0 0-.005-.066.055.055 0 0 0-.063-.016Zm.432-.89a1.542 1.542 0 0 0-.617.076.048.048 0 0 0-.035.015.052.052 0 0 0 0 .072c.01.01.022.015.035.015.197-.045.4-.07.617-.121v-.057Zm2.202.293c-.191 0-.383-.051-.574-.058-.03 0-.037.039 0 .039.191 0 .376.076.574.082a.03.03 0 0 0 .022-.01.033.033 0 0 0 .009-.022l-.003-.012a.033.033 0 0 0-.017-.017.03.03 0 0 0-.011-.002Zm-.075.705c-.147-.223-.567-.16-.795-.09-.105 0-.068.179.03.185.1.006.26 0 .39 0 .106.013.214.013.32 0a.075.075 0 0 0 .058-.065c.001-.01 0-.02-.002-.03Zm0 1.532a1.125 1.125 0 0 0-.715.114c-.105.038-.037.184.068.146.216-.07.444-.083.654-.159a.055.055 0 0 0 .02-.022.059.059 0 0 0-.003-.06.055.055 0 0 0-.023-.02Zm.02 1.487a2.94 2.94 0 0 0-.327.133c-.08.039 0 .166.055.127.11-.054.213-.12.308-.197.038-.012 0-.076-.037-.063Zm1.412 1.233a4.453 4.453 0 0 0-.617.406c-.092.05 0 .172.105.12a1.36 1.36 0 0 0 .617-.47c-.019-.038-.068-.076-.105-.057Zm1.166.979c-.23.076-.452.179-.66.305a.078.078 0 0 0 .014.127.07.07 0 0 0 .047.006c.23-.082.452-.189.66-.318a.072.072 0 0 0 .016-.086.066.066 0 0 0-.078-.035Zm2.702-.891c-.247.153-.457.369-.704.534-.08.057 0 .172.099.114.274-.135.513-.335.697-.584.025-.064-.043-.064-.093-.064Zm1.813-1.633a2.02 2.02 0 0 0-.24.54c-.038.096.129.16.166.058.108-.172.171-.368.185-.572-.025-.051-.08-.064-.111-.026ZM84 51.897a2.192 2.192 0 0 0-.309.483c-.037.076.093.152.142.076.12-.15.217-.317.29-.496a.076.076 0 0 0-.04-.075.072.072 0 0 0-.084.012Zm-1.524-1.467c-.136.118-.25.263-.333.425-.074.12.117.248.185.134.117-.149.196-.326.228-.515 0-.01-.001-.02-.006-.03a.049.049 0 0 0-.075-.016v.001Zm-.266-1.882a1.93 1.93 0 0 0-.27.578c-.056.114.135.184.19.07.125-.187.192-.409.192-.636-.007-.038-.075-.044-.112-.012Zm1.555.095a1.06 1.06 0 0 0-.315.184c-.117.09.05.248.148.14.082-.079.157-.166.222-.26.025-.038-.012-.077-.055-.064Zm1.245 1.061c-.209.083-.339.369-.413.553a.085.085 0 0 0 .01.05.078.078 0 0 0 .127.02c.123-.172.37-.356.35-.585a.056.056 0 0 0-.051-.042.056.056 0 0 0-.022.004Zm1.056 1.201-.155.121c-.092.076.05.204.124.108.038-.05.073-.103.105-.159a.053.053 0 0 0-.003-.073.05.05 0 0 0-.071.003Zm.407-1.798c-.031 0-.08 0-.087.038-.049.146 0 .311 0 .47 0 .16.204.146.21 0 .006-.146.087-.438-.123-.508Zm-3.954-1.443a2.651 2.651 0 0 0-.814-.089c-.093 0-.105.114 0 .134.265.073.54.105.814.095a.067.067 0 0 0 .048-.02.071.071 0 0 0 0-.1.067.067 0 0 0-.048-.02Zm-1.067 2.218c0-.082-.142-.089-.173 0a.686.686 0 0 0-.043.4c0 .052.11.096.148 0a.653.653 0 0 0 .068-.4Zm-1.049 2.867c0-.09-.166-.09-.166 0a.333.333 0 0 0 .11.305c.032 0 .093 0 .093-.038a.845.845 0 0 0-.037-.267Zm.327 1.188a.367.367 0 0 0-.271.14c-.068.063 0 .178.092.114a.95.95 0 0 0 .21-.21s-.006-.044-.03-.044Zm4.49-5.459c-.098-.12-.264-.153-.394-.235-.13-.083-.16.038-.105.101a.583.583 0 0 0 .463.223c.01 0 .02-.002.03-.007a.052.052 0 0 0 .007-.082Zm-1.48 1.786c-.145.18-.233.402-.253.636a.085.085 0 0 0 .009.05.08.08 0 0 0 .035.034.08.08 0 0 0 .048.008.08.08 0 0 0 .044-.023c.15-.176.235-.4.24-.635a.083.083 0 0 0-.042-.073.079.079 0 0 0-.08.003Z" fill="#ED6366"/><path opacity=".4" d="M72.502 48.433a1.44 1.44 0 0 0-.475.388s0 .057.043.038c.184-.085.355-.199.506-.337.037-.044-.019-.114-.074-.089Zm1.023.547c-.253.137-.466.34-.616.59 0 0 0 .052.043.039.247-.127.475-.292.71-.432.234-.14.005-.286-.137-.197Zm.494-1.665a1.5 1.5 0 0 0-.308.419.098.098 0 0 0 .037.101.09.09 0 0 0 .105 0 1.41 1.41 0 0 0 .382-.362c.092-.14-.105-.28-.216-.158Zm1.055 1.105c0-.01-.004-.02-.011-.026a.036.036 0 0 0-.052 0 .039.039 0 0 0-.011.026c-.037.216-.099.47.08.636.037.038.111 0 .099-.044-.031-.191-.08-.388-.105-.592Zm-.586 1.488c-.229.057-.278.254-.303.458 0 .076.118.114.142.038.064-.144.144-.278.24-.4.032-.045-.03-.115-.08-.096Zm1.104 1.061a.775.775 0 0 0-.376.445.054.054 0 0 0-.002.04.052.052 0 0 0 .026.03.05.05 0 0 0 .04.002.052.052 0 0 0 .028-.028c.111-.14.26-.248.376-.381.118-.133-.024-.146-.092-.108Zm-2.134-.273c0-.045-.093 0-.074.038.057.149.15.28.271.381.037 0 .093 0 .068-.057a2.845 2.845 0 0 0-.265-.362Zm3.75-1.125a6.73 6.73 0 0 0-.876.115.073.073 0 0 0-.052.022.077.077 0 0 0 0 .108.073.073 0 0 0 .052.022c.302 0 .666 0 .882-.197a.045.045 0 0 0-.006-.07Zm.136-1.576a.696.696 0 0 0-.506.222.071.071 0 0 0-.01.089.068.068 0 0 0 .038.028.066.066 0 0 0 .046-.002 1.02 1.02 0 0 0 .469-.248.052.052 0 0 0-.007-.082.047.047 0 0 0-.03-.007Zm-1.271-1.233c-.148.089-.16.248-.197.4-.038.153.104.095.141.032a.793.793 0 0 0 .167-.369c.006-.063-.062-.089-.111-.063Zm2.264-.102c-.099 0-.08.153 0 .146.1-.01.201-.01.302 0 .074 0 .148.057.222.064a.042.042 0 0 0 .052-.024.045.045 0 0 0 .004-.02c.037-.319-.414-.204-.58-.166Zm-.358-.775a1.299 1.299 0 0 0-.376.063.079.079 0 0 0-.057.024.084.084 0 0 0 0 .117.079.079 0 0 0 .057.025 1.206 1.206 0 0 0 .397-.128.064.064 0 0 0-.021-.101Zm1.425 2.491c-.13-.146-.389-.102-.567-.197-.18-.096-.192.108-.1.165.093.057.47.235.66.102.025-.013.025-.045.007-.07Zm-.389 1.487a2.027 2.027 0 0 1-.327-.12c-.086-.051-.178.063-.092.12a.5.5 0 0 0 .407.108c.062-.012.074-.082.012-.108Zm-1.209 1.405a1.986 1.986 0 0 1-.475 0c-.092 0-.136.133-.043.159a.603.603 0 0 0 .549 0 .079.079 0 0 0 .05-.035.083.083 0 0 0-.022-.112.077.077 0 0 0-.059-.012Zm-.937 1.162c-.13-.095-.309-.114-.457-.203-.148-.089-.16.039-.105.102a.48.48 0 0 0 .549.184.044.044 0 0 0 .034-.037.045.045 0 0 0-.021-.045Zm2.812.236a3.605 3.605 0 0 0-.616.07c-.1 0-.118.127 0 .14.233.042.474.004.684-.108.013-.02-.018-.096-.067-.102Zm-.111-1.271c-.197 0-.345.16-.549.204a.071.071 0 0 0-.065.012.076.076 0 0 0-.03.06.077.077 0 0 0 .03.061c.01.008.02.013.031.015a.073.073 0 0 0 .034-.002.953.953 0 0 0 .617-.255c.05-.012 0-.108-.068-.095Zm2.869.953c-.377.108-.74.248-1.117.362-.099 0-.05.178.05.16a2.013 2.013 0 0 0 1.116-.44c.03-.031-.006-.088-.05-.082Zm-1.197-1.17a.842.842 0 0 0-.358.395c-.043.088.093.158.154.082.062-.076.222-.222.309-.356.086-.133-.019-.165-.105-.12Zm-.302-1.734a2.389 2.389 0 0 0-.586.508c-.062.064.043.166.11.102.186-.165.463-.299.556-.54a.058.058 0 0 0-.016-.064.055.055 0 0 0-.064-.005Zm.296-2.047a1.23 1.23 0 0 0-.617.407.087.087 0 0 0-.022.117.08.08 0 0 0 .114.022c.216-.113.518-.234.617-.47a.062.062 0 0 0-.009-.085.058.058 0 0 0-.083.01Zm-.833-.743a1.242 1.242 0 0 0-.407.337c-.08.082.068.178.142.095.128-.098.242-.213.34-.343a.065.065 0 0 0-.01-.07.06.06 0 0 0-.066-.02Zm.462-.896a1.764 1.764 0 0 0-.653.082.055.055 0 0 0-.05.008.058.058 0 0 0-.018.073.055.055 0 0 0 .068.028c.21-.045.431-.077.617-.128.074-.063.074-.063.037-.063Zm2.363.286c-.203 0-.413-.058-.617-.064-.03 0-.037.038 0 .045.204 0 .401.082.617.082.043 0 .043-.063 0-.063Zm-.08.75c-.154-.235-.617-.166-.851-.096-.111 0-.074.197.03.204.105.006.278 0 .42 0 .115.012.23.012.346 0a.079.079 0 0 0 .05-.042.086.086 0 0 0 .005-.066Zm.006 1.646a1.251 1.251 0 0 0-.77.12c-.118.045-.038.204.067.165.234-.082.481-.095.703-.177a.055.055 0 0 0 .027-.021.058.058 0 0 0-.027-.087Zm.012 1.595a2.9 2.9 0 0 0-.345.146c-.093.038 0 .178.062.134.116-.058.225-.128.327-.21.061-.032 0-.082-.044-.07Zm1.518 1.322c-.235.127-.46.274-.672.438-.1.058 0 .185.11.134.248-.108.461-.284.617-.509.037-.038-.012-.076-.055-.063Zm1.252 1.055a3.774 3.774 0 0 0-.71.324.078.078 0 0 0-.037.045.08.08 0 0 0 .004.06.077.077 0 0 0 .044.039c.019.006.04.005.058-.004.245-.085.481-.198.703-.337a.07.07 0 0 0 .034-.041.073.073 0 0 0-.02-.076.067.067 0 0 0-.076-.01Zm2.887-.934c-.266.165-.494.4-.753.578-.086.057 0 .178.099.12.297-.146.555-.364.752-.635.037-.063-.043-.12-.098-.063Zm1.955-1.78c-.114.179-.2.373-.26.578-.036.115.136.178.186.07.05-.108.222-.406.191-.635a.07.07 0 0 0-.055-.042.068.068 0 0 0-.062.029Zm-3.756.845a2.51 2.51 0 0 0-.333.515c-.044.083.104.16.154.083.128-.161.232-.341.308-.534.025-.076-.068-.127-.13-.064Zm-1.635-1.576a1.593 1.593 0 0 0-.358.458c-.08.127.124.267.198.14.127-.157.212-.346.246-.547a.059.059 0 0 0-.006-.03.055.055 0 0 0-.05-.03.047.047 0 0 0-.03.01Zm-.265-2.021a1.932 1.932 0 0 0-.29.636c-.062.127.148.203.203.082.122-.189.192-.408.204-.635a.079.079 0 0 0 0-.048.076.076 0 0 0-.029-.038.072.072 0 0 0-.088.003Zm1.647.083a1.127 1.127 0 0 0-.334.203c-.13.096.05.267.155.146.088-.084.166-.177.234-.28.03-.018-.006-.07-.055-.07Zm1.332 1.163c-.222.083-.358.388-.438.591a.085.085 0 0 0-.002.06c.007.02.02.037.038.047a.08.08 0 0 0 .106-.03c.136-.191.4-.388.376-.636a.063.063 0 0 0-.034-.033.06.06 0 0 0-.046.001Zm1.135 1.284c-.06.038-.115.083-.166.133-.1.083.055.216.13.114a1.71 1.71 0 0 0 .116-.171.058.058 0 0 0-.009-.072.054.054 0 0 0-.07-.004Zm.438-1.926c-.037 0-.086 0-.093.038-.055.16 0 .337 0 .502 0 .166.222.16.222 0 0-.158.1-.463-.129-.54Zm-4.244-1.57a2.837 2.837 0 0 0-.87-.095c-.104 0-.11.12 0 .14.286.08.58.116.876.108a.073.073 0 0 0 .066-.05.078.078 0 0 0-.019-.083.073.073 0 0 0-.053-.02Zm-1.141 2.403c0-.09-.154-.096-.185 0a.653.653 0 0 0-.043.42c0 .063.11.107.154.037a.65.65 0 0 0 .074-.457Zm-1.123 3.094c0-.095-.184-.095-.184 0a.345.345 0 0 0 .123.324c.03 0 .099 0 .099-.044a1.254 1.254 0 0 0-.037-.28Zm.346 1.272c-.136 0-.191.064-.29.152-.099.09 0 .185.099.121a1.1 1.1 0 0 0 .228-.222.045.045 0 0 0-.02-.045.043.043 0 0 0-.017-.006Zm4.818-5.879a1.76 1.76 0 0 0-.426-.248c-.074-.044-.173.039-.111.108a.62.62 0 0 0 .5.236.055.055 0 0 0 .047-.036.058.058 0 0 0-.01-.06Zm-1.586 1.913c-.15.18-.244.4-.271.636 0 .082.086.159.142.076a1.06 1.06 0 0 0 .259-.68.089.089 0 0 0-.058-.047.083.083 0 0 0-.072.015Z" fill-rule="evenodd" clip-rule="evenodd" fill="#48264C"/></g><defs><clipPath id="a"><path fill="#fff" d="M0 0h130.755v77H0z"/></clipPath></defs></svg>