<svg width="288" height="288" fill="none" xmlns="http://www.w3.org/2000/svg"><g clip-path="url(#a)"><path d="m160.92 144 51.6-51.48A12.047 12.047 0 0 0 204 71.95a12.05 12.05 0 0 0-8.52 3.53L144 127.08l-51.48-51.6a12.05 12.05 0 1 0-17.04 17.04l51.6 51.48-51.6 51.48a12.01 12.01 0 0 0-3.55 8.52 12 12 0 0 0 3.55 8.52 11.994 11.994 0 0 0 13.135 2.627 11.992 11.992 0 0 0 3.905-2.627l51.48-51.6 51.48 51.6a12 12 0 0 0 17.04 0 12 12 0 0 0 0-17.04L160.92 144Z" fill="#767881"/></g><defs><clipPath id="a"><path fill="#fff" d="M0 0h288v288H0z"/></clipPath></defs></svg>