<svg width="45" height="36" viewBox="0 0 45 36" fill="none" xmlns="http://www.w3.org/2000/svg">
    <path d="M18.684 5.728V10.66H8.388V15.988H16.092V20.776H8.388V31H2.232V5.728H18.684ZM25.0155 8.824C23.9355 8.824 23.0475 8.512 22.3515 7.888C21.6795 7.24 21.3435 6.448 21.3435 5.512C21.3435 4.552 21.6795 3.76 22.3515 3.136C23.0475 2.488 23.9355 2.164 25.0155 2.164C26.0715 2.164 26.9355 2.488 27.6075 3.136C28.3035 3.76 28.6515 4.552 28.6515 5.512C28.6515 6.448 28.3035 7.24 27.6075 7.888C26.9355 8.512 26.0715 8.824 25.0155 8.824ZM28.0755 10.912V31H21.9195V10.912H28.0755ZM43.7327 25.78V31H40.6007C38.3687 31 36.6287 30.46 35.3807 29.38C34.1327 28.276 33.5087 26.488 33.5087 24.016V16.024H31.0607V10.912H33.5087V6.016H39.6647V10.912H43.6967V16.024H39.6647V24.088C39.6647 24.688 39.8087 25.12 40.0967 25.384C40.3847 25.648 40.8647 25.78 41.5367 25.78H43.7327Z" fill="url(#paint0_linear_1422_3106)"/>
    <defs>
        <linearGradient id="paint0_linear_1422_3106" x1="45" y1="36" x2="-14.7756" y2="30.2181" gradientUnits="userSpaceOnUse">
            <stop stop-color="#92A3FD"/>
            <stop offset="1" stop-color="#9DCEFF"/>
        </linearGradient>
    </defs>
</svg>
