<svg width="45" height="36" fill="none" xmlns="http://www.w3.org/2000/svg"><path d="M18.684 5.728v4.932H8.388v5.328h7.704v4.788H8.388V31H2.232V5.728h16.452Zm6.331 3.096c-1.08 0-1.968-.312-2.663-.936a3.174 3.174 0 0 1-1.009-2.376c0-.96.337-1.752 1.009-2.376.695-.648 1.584-.972 2.663-.972 1.056 0 1.92.324 2.593.972.695.624 1.043 1.416 1.043 2.376 0 .936-.348 1.728-1.043 2.376-.672.624-1.537.936-2.593.936Zm3.06 2.088V31H21.92V10.912h6.155ZM43.733 25.78V31H40.6c-2.232 0-3.972-.54-5.22-1.62-1.248-1.104-1.872-2.892-1.872-5.364v-7.992H31.06v-5.112h2.448V6.016h6.156v4.896h4.032v5.112h-4.032v8.064c0 .6.144 1.032.432 1.296.288.264.768.396 1.44.396h2.196Z" fill="url(#a)"/><defs><linearGradient id="a" x1="45" y1="36" x2="-14.776" y2="30.218" gradientUnits="userSpaceOnUse"><stop stop-color="#92A3FD"/><stop offset="1" stop-color="#9DCEFF"/></linearGradient></defs></svg>