<svg width="48" height="48" fill="none" xmlns="http://www.w3.org/2000/svg"><path d="M27.217 7.102c-.132 0-.264.009-.397.027a2.78 2.78 0 0 0-1.48.672v.002L16.117 16H9.5C7.032 16 5 18.032 5 20.5v7C5 29.968 7.032 32 9.5 32h6.617l9.223 8.197c.86.765 2.082.878 3.006.463.924-.415 1.654-1.403 1.654-2.554V9.895c0-1.152-.728-2.14-1.652-2.555a2.781 2.781 0 0 0-1.131-.238Zm11.539 4.878a1.499 1.499 0 0 0-1.326 2.213c3.459 6.625 3.459 12.989 0 19.614a1.5 1.5 0 1 0 2.66 1.386c3.84-7.355 3.84-15.031 0-22.386a1.5 1.5 0 0 0-1.334-.827Zm-4.584 5.016a1.5 1.5 0 0 0-1.291 2.143c1.516 3.318 1.514 6.42-.008 9.74a1.502 1.502 0 0 0 .734 1.997 1.5 1.5 0 0 0 1.993-.745c1.837-4.007 1.84-8.233.01-12.24a1.5 1.5 0 0 0-1.438-.895Z" fill="#2B2F3E"/></svg>