<svg width="106" height="72" fill="none" xmlns="http://www.w3.org/2000/svg"><path d="M42.251 27.63s2.159-17.424 1.671-23.787c-.25-3.264-1.84-4.002-4.27-3.816-2.43.186-16.329 7.523-16.329 7.523l1.98 4.747 11.56-3.611s-1.178 6.779-1.45 8.066c-.272 1.288-.84 3.022-1.293 4.576-.222.767-.532 1.76-.532 2.24.007 1.136 8.663 4.062 8.663 4.062Z" fill="#FFEDE5"/><path d="M36.862 8.686c1.612-.31 3.221-1.256 3.727-2.01a3.507 3.507 0 0 1-1.606 2.01c-.734.47-1.513.87-2.324 1.195l.203-1.195Z" fill="#F28F8F"/><path d="M64.13 27.32c-.24-.888-1.808-1.822-6.481-2.6-4.674-.78-8.925 0-8.95.548-.025.55 1.152 4.22 6.541 4.89 5.389.67 9.384-.89 8.89-2.839Z" fill="#3B2645"/><path d="M50.072 34.86s-3.046-19.62-2.608-23.625c.453-4.138 2.034-6.059 4.686-6.329 3.464 1.998 5.31 6.773 7.525 11.48 2.215 4.706 4.614 14.802 4.742 19.626.128 4.824-3.714 8.262-8.066 8.889-4.351.626-6.279-10.04-6.279-10.04Z" fill="#FFEDE5"/><path d="M54.859 19.5a7.415 7.415 0 0 1-2.674-4.474l4.357-1.507 2.94 2.429.087.19c.038.08.075.16.116.241.084.18.169.37.253.562.022.056.047.111.072.17.066.15.128.31.194.466l.065.161c.088.214.172.434.26.66.084.227.168.46.253.696.018.052.037.102.053.152l.225.651c0 .031.021.065.034.097.175.527.35 1.073.519 1.631l.028.09c.084.276.165.556.247.838 0 0-4.05-.577-7.03-3.053Z" fill="#F28F8F"/><path d="M51.232 5.073c1.656-.649 3.67.868 4.736 1.551 2.165 1.377 15.4 11.622 18.487 14.023.669.404 1.35.791 2.043 1.158l-3.636 5.646a6.15 6.15 0 0 0-1.371-2.172c-3.3-2.339-9.685-3.614-13.796-5.203-3.199-1.24-3.867-1.936-4.945-3.75-.825-1.437-3.802-10.18-1.518-11.253Z" fill="#FFEDE5"/><path d="m50.008 34.97-1.308-9.7s1.175 2.674 7.223 3.378c6.048.704 8.362-.31 8.21-1.328 0 0 1.58 6.075.968 10.021-.612 3.947-6.682 8.15-6.682 8.15l-8.41-10.52Z" fill="#3B2645"/><path opacity=".15" d="M52.684 36.297c-.556 0-1.078.034-1.562.065l6.723 8.399h1.562c1.743-1.375 5.239-4.465 5.695-7.412.45-2.895-.282-6.928-.703-8.876.24 2.24-4.805 7.678-11.715 7.824Z" fill="#000"/><path d="M82.962 13.596c-2.187-.403-3.202 1.163-4.008 2.457-.806 1.294-2.156 3.667-2.759 4.067-.602.4-.937 0-1.796.643-.859.642-1.487 1.861-1.221 2.305l.624 1.08a2.323 2.323 0 0 0-1.952.729c-.937.93-.45 1.085.078 1.613.528.527 1.768 2.91 3.012 3.558 0 0 3.348-.995 5.776-4.768 2.427-3.773 2.246-11.684 2.246-11.684Z" fill="#AB8DA8"/><path d="M75.63 30.548a.94.94 0 0 1-.763-.778.925.925 0 0 1 .022-.383c.37-1.163.926-2.26 1.647-3.248.84-1.185 2.414-3.413 2.68-4.632.265-1.22.837-4.635 1.771-6.066.934-1.43 1.893-2.255 3.124-1.793 1.23.463-2.655 9.618-3.796 11.17-1.14 1.55-4.685 5.73-4.685 5.73Z" fill="#3B2645"/><path d="M76.349 30.35c3.077-1.629 4.09-3.211 4.998-5.274.91-2.063 3.034-3.965 3.583-5.817.55-1.853.606-6.603-1.509-5.452-2.114 1.152-2.555 5.399-3.483 7.853-.928 2.454-6.607 10.294-3.59 8.69Zm-18.494 5.017c1.406-.214 4.108.363 6.56 3.763 2.633 3.651 3.124 10.024 1.471 10.548 0 0-3.83-.446-6.46-1.815-2.63-1.368-7.05-10.61-1.571-12.496Z" fill="#3B2645"/><path d="M102.777 65.77c-4.08-1.59-7.419-4.327-10.308-7.386-2.325-3.134-12.284-16.552-14.011-18.442-.625-.67-2.106-2.395-4.158-2.826-7.266-1.551-20.721-1.322-20.721-1.322l-5.173-.865-10.31 9.636c1.422 1.505 3.206 2.817 5.814 4.167 2.609 1.35 5.43 2.33 9.235 2.01 7.616-.639 12.183-2.777 16.26-3.723 1.18-.273 2.405-.524 3.333 1.4.928 1.923 1.003 2.888 3.749 4.932 3.52 2.625 9.334 5.56 11.87 8.687.418.767.667 1.613.731 2.482.241 3.298 3.028 2.65 5.274 4.083 1.224.782 2.133 1.731 3.608 2.054a9.312 9.312 0 0 0 4.061-.074c1.199-.283 2.918-1.142 3.508-2.302.775-1.546-1.587-2.054-2.762-2.51Z" fill="#FFEDE5"/><path d="M102.777 65.77c-4.08-1.59-7.419-4.327-10.308-7.386-2.325-3.134-12.284-16.552-14.011-18.442-.625-.67-2.106-2.395-4.158-2.826-7.266-1.551-20.721-1.322-20.721-1.322l-5.173-.865-10.31 9.636c1.422 1.505 3.206 2.817 5.814 4.167 2.609 1.35 5.43 2.33 9.235 2.01 7.616-.639 12.183-2.777 16.26-3.723 1.18-.273 2.405-.524 3.333 1.4.928 1.923 1.003 2.888 3.749 4.932 3.52 2.625 9.334 5.56 11.87 8.687.418.767.667 1.613.731 2.482.241 3.298 3.028 2.65 5.274 4.083 1.224.782 2.133 1.731 3.608 2.054a9.312 9.312 0 0 0 4.061-.074c1.199-.283 2.918-1.142 3.508-2.302.775-1.546-1.587-2.054-2.762-2.51Z" fill="#FFEDE5"/><path d="M76.25 51.788a8.278 8.278 0 0 1-1.724-2.942 16.126 16.126 0 0 0-1.074-2.64c-1.268-2.172-9.684.599-13.411 1.734-.21.31-1.084 1.242-1.396 2.017 4.514-.915 7.762-2.246 10.752-2.941 1.18-.273 2.405-.524 3.333 1.4.928 1.923 1.003 2.888 3.749 4.932 1.43 1.067 3.24 2.172 5.055 3.348-2.028-1.564-3.556-3.13-5.283-4.908Z" fill="#F28F8F"/><path d="M49.205 34.929s7.394.36 8.65.45c0 0-2.783.744.603 7.542 3.386 6.797 7.432 6.76 7.432 6.76-5.311 1.688-8.07 3.584-14.839 2.792-8.07-1.157-12.961-7.157-12.961-7.157l11.115-10.387Z" fill="#3B2645"/><path opacity=".15" d="M65.87 49.68a1.453 1.453 0 0 1-.184 0c-.602-.068-2.396-.459-4.404-2.584a43.068 43.068 0 0 1-4.845.99c-6.036.878-10.562-.18-17.307-3.751l-1.04.974a22.685 22.685 0 0 0 9.946 6.472c.235.071.475.143.719.208.228.059.46.118.69.17l.063.016c.212.05.43.093.65.137l.115.021c.256.05.512.093.775.13a26.15 26.15 0 0 0 2.364.178h1.066c.515 0 1.006-.041 1.477-.087.313-.032.62-.069.919-.112a19.481 19.481 0 0 0 2.958-.683 40.108 40.108 0 0 0 2.034-.682l.834-.31c.987-.36 2.024-.739 3.186-1.108l-.015.022Z" fill="#000"/><path d="M24.479 25.674c-3.005 1.037-5.845 2.849-3.437 8.15 3.437 7.658 19.013 16.159 27.01 17.964-4.061-6.102-.681-12.571 1.971-16.818l-.715-5.188s-2.4-1.145-6.373-4.194c-3.974-3.05-5.623-3.879-11.537-2.091-4.064 1.228-6.92 2.177-6.92 2.177Z" fill="#AB8DA8"/><path opacity=".05" d="M36.653 42.98c-8.179-4.654-10.75-8.8-13.958-12.78l-2.1 2.544c.057.165.12.332.188.506a.118.118 0 0 0 0 .028c.069.177.147.36.231.546 1.525 3.35 5.352 6.863 9.85 9.919.625.434 1.3.859 1.962 1.272l1.006.62a66.704 66.704 0 0 0 7.091 3.661 40.175 40.175 0 0 0 7.107 2.482 10.983 10.983 0 0 1-1.743-4.362c-2.843-.85-5.892-2.305-9.634-4.437Z" fill="#000"/><path d="M22.224 26.714s-10.088-5.355-11.684-6.078l8.828-5.147-1.874-4.83S4.374 15.29 1.874 16.62C.565 17.326 0 17.906 0 18.905 0 20.57 1.596 22.73 3.808 24.6c4.702 3.98 11.08 7.688 17.294 11.076 1.425 1.048 2.905 2.367 2.905 2.367 1.634.813 4.011-6.689-1.783-11.33Z" fill="#FFEDE5"/><path d="M31.667 8.102A5.986 5.986 0 0 0 28.37 4.92a6.043 6.043 0 0 0-4.595.064 5.983 5.983 0 0 0-3.204 3.272 5.926 5.926 0 0 0 .064 4.564c.04.1.09.19.138.283l-1.525 3.295-2.252-4.123c0-.325-.12-.639-.339-.88a1.321 1.321 0 0 0-.845-.427 1.23 1.23 0 0 0-.914.301 1.213 1.213 0 0 0-.41.866l1.72.149a2.152 2.152 0 0 0-.827 1.03c-.41 1.06 1.015 3.223 2.924 5.122 0 0 2.702 3.788 3.358 4.319.423.32.952.466 1.48.41l.163-7.447a6.037 6.037 0 0 0 6.905-.85 5.951 5.951 0 0 0 1.814-3.148 5.922 5.922 0 0 0-.36-3.609v-.01Z" fill="#3B2645"/><path d="M20.578 17.682c-.25.344-1.013-.093-1.616-.348-.602-.254-2.218-.264-2.28 1.446-.063 1.71 2.052 3.102 3.268 2.975 2.093-.214 1.874-1.508 1.874-1.508l3.074 6.76c3.558 1.937 10.18-1.11 6.207-3.024l-.878-2.008c.76-.202 1.494-.49 2.187-.859 1.25-.788 1.659-2.215 1.437-3.85-.353-2.622-.937-4.62-3.48-8.997C27.56 3.485 21.624 5.96 19.306 9.32c-2.318 3.36 1.271 8.362 1.271 8.362Z" fill="#FFEDE5"/><path d="M20.824 18.256c-.169.077-1.278-.71-1.874-.912-.81-.276-2.125-5.361-2.125-5.361s-1.074-.947-.484-2.653c.484-1.4 2.271-2.336 3.508-2.957 2.23-1.12 4.727-2.395 5.82-4.74.088-.187.213-.397.419-.4a.487.487 0 0 1 .331.173c.515.574.805 1.313.818 2.082 0 .071.022.161.094.183.072.022.125-.037.169-.09.227-.276.4-.592.509-.93.15-.463.937.713.993.874a4.036 4.036 0 0 1-.174 3.152c-.488.971-1.49 1.573-2.409 2.104-2.046 1.185-5.545 2.314-6.032 2.448-.663.183-.535.844-.16 2.634.344 1.582 1.163 4.13.597 4.393Z" fill="#3B2645"/><path d="M30.227 21.976s-3.655.766-4.955.67a3.792 3.792 0 0 1-2.086-.813 5.136 5.136 0 0 0 1.561 1.34c1.2.652 5.823-.387 5.823-.387l-.343-.81Z" fill="#F28F8F"/><path d="m24.516 12.53-1.087 1.178a.838.838 0 0 1-.04-1.163.786.786 0 0 1 .867-.187.81.81 0 0 1 .26.171Z" fill="#3B2645"/><path d="m28.019 18.55 1.608-.074a.78.78 0 0 1-.438.777.794.794 0 0 1-.305.079.847.847 0 0 1-.591-.218.835.835 0 0 1-.274-.564Z" fill="#F28F8F"/><path d="m31.133 10.658-1.562-.397a.776.776 0 0 1 .352-.504.788.788 0 0 1 .61-.095.842.842 0 0 1 .6.996Z" fill="#3B2645"/><path d="m27.8 13.087 1.065 3.807 1.874-1.13-2.94-2.677Z" fill="#F28F8F"/><path d="M24.836 14.793a.692.692 0 0 0 .434.64.703.703 0 0 0 .952-.509.69.69 0 0 0-.298-.712.703.703 0 0 0-1.036.314.69.69 0 0 0-.052.267Zm5.062-1.97a.67.67 0 0 0 .418.625.682.682 0 0 0 .74-.145.672.672 0 0 0-.483-1.15.68.68 0 0 0-.476.197.671.671 0 0 0-.199.473Zm58.784 52.39c-.266.18.147 1.315.387 1.595.501.483 1.12.83 1.796 1.005 1.23.374 2.38.971 3.39 1.762a11.162 11.162 0 0 0 4.248 2.119c1.843.406 3.974-.112 5.833-1.207 1.949-1.145 1.768-2.243 1.502-2.975l-17.156-2.3Z" fill="#3B2645"/><path d="M92.898 58.84c.625.658 4.024 3.996 6.633 4.846 2.077.676 4.779 1.322 5.963 2.578 1.231 1.31-.603 2.985-3.124 3.947-2.63.999-4.417.192-6.163-.68-1.228-.62-3.037-1.861-3.946-2.36-.909-.5-2.593-.774-3.295-1.515-.388-.41-.666-1.551-.835-2.553-.153-.931-.771-1.772-.456-1.822l.513.556c2.374.434 4.848-1.744 4.71-2.997Z" fill="#AB8DA8"/><path d="M10.54 20.637a16.041 16.041 0 0 1-4.788 1.66s2.652.66 5.807-1.155l-1.018-.505Z" fill="#F28F8F"/></svg>