<svg width="46" height="95" fill="none" xmlns="http://www.w3.org/2000/svg"><path d="M18.352 20.694s-2.526 2.927-11.89 6.693c1.25.945 7.315 6.669 7.743 7.187.979 1.175.263 2.138-.05 3.412a8.679 8.679 0 0 1-.905 2.664.518.518 0 0 1-.197.222c-.239.124-.502-.106-.634-.337a6.575 6.575 0 0 1-.469-2.697c-.222-2.228-2.37-2.467-4.016-3.478-4.813-2.936-9.051-5.337-7.669-8.437 1.613-3.585 10.763-10.87 13.314-11.175 2.551-.304 7.077 4.449 4.773 5.946Z" fill="#FFEDE5"/><path d="M17.159 6.632a1.587 1.587 0 0 1-.321-1.077 4.495 4.495 0 0 1 .403-2.837 2.28 2.28 0 0 1 2.592-.871A3.174 3.174 0 0 1 22.055.062a3.442 3.442 0 0 1 2.79.683c.362.352.753.673 1.168.962a1.153 1.153 0 0 0 1.399-.09c.176.36.214.772.107 1.159-.173.427-.634.641-.938.97-.353.55-.513 1.2-.453 1.85-.04.332-.138.655-.288.954a9.47 9.47 0 0 1-.453 1.127c-.065.106-.28.435-.353.14a31.552 31.552 0 0 1-1.26-.124c-1.431-.14-2.855-.296-4.278-.493-.593-.083-1.185-.165-1.761-.305a1.284 1.284 0 0 1-.576-.263Z" fill="#3B2645"/><path d="M25.264 6.386a.88.88 0 0 1 1.424.041c.683.88-.576 2.467-1.506 2.516a19.321 19.321 0 0 1 .082-2.557Z" fill="#E0855C"/><path d="M11.687 15.883a47.244 47.244 0 0 1 2.386 8.05c0 .264.082.51.115.757.222 1.644.823 9.777.889 11.052a1.555 1.555 0 0 0 0 .172c6.385 1.965 13.166.395 13.166.395l.049-.354c.197-1.578 1.028-8.116 1.58-13.765.28-2.878.494-5.534.51-7.187 0-.608-1.399-.592-2.37-.756a31.594 31.594 0 0 0-3.497-.354h-.362l-.058-.945-.148-.642-.107-1.702-.329.041a5.474 5.474 0 0 1-.625.05 5.639 5.639 0 0 1-.765-.042l-.354-.04-.478-.1a8.887 8.887 0 0 1-.748-.23 1.148 1.148 0 0 1-.214-.082h-.058l-.165-.074a5.635 5.635 0 0 1-.872-.468 4.46 4.46 0 0 1-.387-.264l-.065-.049a.772.772 0 0 1-.149-.115l-.057-.05v.223a24.3 24.3 0 0 1 .115 1.924v2.558a4.267 4.267 0 0 0-.46 0h-.042c-.67.01-1.337.065-2 .164a13.69 13.69 0 0 0-4.36 1.439.345.345 0 0 0-.14.394Z" fill="#FFEDE5"/><path d="M18.573 9.182a4.044 4.044 0 0 0 3.63 3.351 4.05 4.05 0 0 0 1.744-.227l-.107-1.702a6.654 6.654 0 0 1-5.267-1.422Z" fill="#E0855C"/><path d="M25.173 3.91c.46.51.46 1.645.47 2.83 0 3.7-1.136 4.818-3.037 4.933-1.901.115-3.843-.641-4.115-4.111-.148-1.719-.312-3.29.33-4.03.93-1.011 4.945-1.175 6.352.379Z" fill="#FFEDE5"/><path d="M18.74 7.141s-.527-1.545-1.465-.764c-.938.78.255 3.133 1.645 3.001.009 0 .247-1.702-.18-2.237Z" fill="#FFEDE5"/><path d="M17.677 7.084c.21.077.397.207.543.378.166.147.3.326.395.527a.066.066 0 0 1-.107.057 4.615 4.615 0 0 1-.313-.37.692.692 0 0 1-.28.206c-.082 0-.14-.074-.098-.148a.765.765 0 0 1 .222-.206 3.518 3.518 0 0 1-.428-.337.066.066 0 0 1 .066-.107Z" fill="#E0855C"/><path d="M24.021 6.607s.313.124.28-.444c-.033-.567-.255-.444-.255-.444s-.222 0-.197.436c.024.436.172.452.172.452Zm-3.241-.098s.32.123.287-.444c-.033-.568-.255-.444-.255-.444s-.222 0-.206.436c.017.435.173.452.173.452Z" fill="#3B2645"/><path d="M22.524 8.063c.164 0 .526.09.609-.083a4.441 4.441 0 0 0-.198-1.16 13.212 13.212 0 0 1-.32-1.537h.057a17.89 17.89 0 0 1 .653 2.848.074.074 0 0 1-.077.063h-.708c-.082.008-.098-.123-.016-.131Z" fill="#E0855C"/><path d="M23.726 4.88c.23-.115.658-.131.823.116a.066.066 0 0 1-.058.098c-.115 0-.214-.065-.329-.082a1.104 1.104 0 0 0-.362.05c-.115.008-.181-.14-.074-.182Zm-3.374.19c.14-.32.707-.337.938-.123.058.041 0 .131-.041.148a1.945 1.945 0 0 1-.436 0 1.252 1.252 0 0 0-.354.099c-.066-.009-.14-.074-.107-.124Z" fill="#3B2645"/><path d="M23.29 9.24a3.508 3.508 0 0 1-2.009-.412 1.646 1.646 0 0 0 1.02.979c.667.197.988-.568.988-.568Z" fill="#fff"/><path d="M22.203 39.557a39.395 39.395 0 0 1-.42 3.923c-.379 2.59-.971 5.534-1.646 8.395a260.574 260.574 0 0 1-3.226 12.63 80.78 80.78 0 0 1-1.555 12.77c-.255 1.325-.51 2.6-.765 3.775a161.362 161.362 0 0 1-1.736 7.195l-4.008-.765a77.91 77.91 0 0 1-.263-6.471c0-1.266 0-2.467.09-3.635.363-7.91 1.77-13.197 1.786-14.192.019-4.047.244-8.09.675-12.113 1.053-9.497 2.938-14.447 2.938-14.447 2.583-5.953 6.476-5.542 7.76-1.151.346 1.332.471 2.713.37 4.086Z" fill="#FFEDE5"/><path d="M34.957 82.307c0 1.645-.107 3.38-.247 5.172l-4.007.765s-.716-2.59-1.539-6.307a148.315 148.315 0 0 1-.93-4.473 81.074 81.074 0 0 1-1.588-12.96s-1.76-6.109-3.291-12.704c-.634-2.828-1.227-5.755-1.646-8.321a42.314 42.314 0 0 1-.412-3.922 12.51 12.51 0 0 1 .42-4.112c1.3-4.39 5.176-4.794 7.76 1.151 0 0 1.826 4.934 2.855 14.374.437 4.048.668 8.115.691 12.186 0 .987 1.391 6.192 1.77 13.98a56.07 56.07 0 0 1 .164 5.171ZM26.415 14.18s3.498-1.644 13.578-1.266c0 0-3.193-5.854-3.292-7.4 0 0-1.49 1.422-2.625.189-.823-.921-.74-2.04.823-2.952 1.564-.913 3.374-1.497 6.583 3.15 3.21 4.645 6.081 8.567 3.547 10.829-2.938 2.623-14.26 5.534-16.713 4.77-2.452-.766-4.616-6.941-1.9-7.32Z" fill="#FFEDE5"/><path d="M29.585 29.838c-.543-2.262-3.02-2.015-3.02-2.015.089-.794.111-1.595.066-2.393v-.288a32.081 32.081 0 0 0-.173-1.693c0-.1 0-.206-.041-.313a47.009 47.009 0 0 0-2-8.297c-.197-.608-.32-.962-.32-.962l-.149-2.508s.543-.189 1.761.707c.425.313.825.66 1.193 1.036 1.498 1.489 3.366 6.694 4.575 10.69.042.132.083.263.116.403.238.822.444 1.521.617 2.163 0 .148.074.288.107.42.19.73.329 1.298.378 1.644.305 1.957-2.559 3.667-3.11 1.406Zm-13.611 1.545c-.445-3.766-2.642-3.084-2.642-3.084-.082-.863-.082-1.702-.082-2.5v-1.841c.354-11.101 5.48-12.672 5.48-12.672v2.557s.206 8.166.543 13.322v.419c.066.962.149 1.792.214 2.467v.37c0 .115.058.386.09.526.61 2.475-3.159 4.235-3.603.436Z" fill="#AB8DA8"/><path d="M25.684 12.076a4.833 4.833 0 0 0-1.283 2.763c-.198-.608-.321-.962-.321-.962l-.132-2.508s.519-.189 1.736.707Z" fill="#826B80"/><path d="M19.553 30.389a2.963 2.963 0 0 1-1.563-.822c-.823-.823-1.02-2.13-1.983-2.911a4.725 4.725 0 0 0-2.757-.855v-.288a4.94 4.94 0 0 1 3.119 1.085 9.045 9.045 0 0 1 1.39 2.18 2.782 2.782 0 0 0 1.786 1.24c-.025.133-.008.256.008.37Zm-.255-2.805a3.569 3.569 0 0 1-.938-.567 14.81 14.81 0 0 0-2.847-2.105 7.874 7.874 0 0 0-2.263-.65v-.304a7.838 7.838 0 0 1 3.036.937c.687.403 1.324.883 1.901 1.431.332.312.696.587 1.086.822 0 .124.017.297.025.436Zm12.993-.806c-.476.158-.98.22-1.48.18-1.104-.09-2.75-1.331-4.181-1.529v-.287c.457.064.904.183 1.333.353.808.405 1.651.738 2.518.995a3.162 3.162 0 0 0 1.695-.131c.041.148.082.287.115.419Zm-.725-2.581a4.416 4.416 0 0 1-1.185-.057 20.781 20.781 0 0 0-3.143-.7 7.014 7.014 0 0 0-.823 0c0-.098 0-.205-.041-.312a6.762 6.762 0 0 1 2.115.058c.825.276 1.673.48 2.534.608.134.008.27.008.403 0 .066.132.107.263.14.403Z" fill="#E8CEE5"/><path d="M34.045 60.203a15.824 15.824 0 0 1-7.077 2.048c-1.012.085-2.03.102-3.044.05L21.8 45.073l-2.37 16.733c-4.164 1.488-9.932-.822-9.932-.822.88-18.987 5.76-26.659 5.76-26.659 5.58 1.81 13.281.05 13.281.05 3.9 5.32 5.505 25.828 5.505 25.828Z" fill="#3B2645"/><path d="M21.652 36.317a1.8 1.8 0 0 0-.666.822c-.272.683.099 1.43-.206 2.105-.23.485-.666.822-.823 1.34a2.38 2.38 0 0 0 0 1.398c0 .148.288.124.272 0a2.703 2.703 0 0 1 .346-1.833c.257-.288.47-.612.633-.962a1.75 1.75 0 0 0 .058-.716 2.573 2.573 0 0 1 .526-1.932c.05-.165-.04-.32-.14-.222Zm1.423 2.293a3.18 3.18 0 0 1-.124-2.17.068.068 0 0 0-.032-.09.068.068 0 0 0-.091.032 1.997 1.997 0 0 0-.354 1.349c.05.624.51 1.192.272 1.809-.379.962-.823 1.743-.107 2.705a.1.1 0 0 0 .12.015.099.099 0 0 0 .044-.114 2.342 2.342 0 0 1 .14-2.343 1.8 1.8 0 0 0 .28-.526c.058-.338-.008-.313-.148-.667Zm3.892 23.642a22.74 22.74 0 0 1-3.044.05L21.8 45.073a84.095 84.095 0 0 1 5.167 17.178Z" fill="#291B30"/><path d="M14.615 81.05c-.913 4.177-1.736 7.195-1.736 7.195l-4.007-.765a77.91 77.91 0 0 1-.264-6.471c1.992.286 4.012.3 6.007.04Zm20.342 1.258c0 1.644-.107 3.38-.247 5.172l-4.007.764s-.716-2.59-1.539-6.306a22.56 22.56 0 0 0 5.793.37Z" fill="#E8CEE5"/><path d="M13.398 92.282a.578.578 0 0 1 0 .124c-.131 1.85-1.645 1.57-3.884 1.644-1.793 0-2.74-.995-2.633-2.072.032-.326.148-.637.338-.904a8.737 8.737 0 0 0 1.217-3.092c2.206-2.648 4.452.304 4.452.304a16.38 16.38 0 0 1 .51 3.996Zm20.679 1.726c-2.296 0-3.86.263-3.892-1.727a1.214 1.214 0 0 1 0-.172 14.42 14.42 0 0 1 .518-3.865s2.247-2.952 4.452-.304a8.818 8.818 0 0 0 1.21 3.091c.11.155.198.324.263.502.411 1.209-.543 2.508-2.551 2.475Z" fill="#3B2645"/><path d="M11.778 89.371a3.005 3.005 0 0 0-2.674-.123.083.083 0 0 0-.004.13.09.09 0 0 0 .045.018c.403 0 .823-.082 1.21-.058.442.07.877.18 1.3.33a.165.165 0 0 0 .186-.208.165.165 0 0 0-.063-.089Zm-.281.888a4.117 4.117 0 0 0-2.641 0 .165.165 0 0 0 .041.304c.366.072.738.108 1.111.107a8.88 8.88 0 0 1 1.325.197c.378.041.535-.51.164-.608Zm22.621-1.004a2.9 2.9 0 0 0-2.469.28c-.222.148-.09.575.19.46a3.005 3.005 0 0 1 2.09-.18.296.296 0 0 0 .189-.56Zm.428 1.012a3.368 3.368 0 0 0-1.76-.09c-.363.066-.939.156-1.03.592a.164.164 0 0 0 .116.197c.354 0 .7-.189 1.028-.23a7.722 7.722 0 0 1 1.572.066c.33.016.33-.428.074-.535Z" fill="#291B30"/></svg>