<svg width="74" height="105" fill="none" xmlns="http://www.w3.org/2000/svg"><path d="M35.51 104.934a23.156 23.156 0 0 1-4.945-.526 19.587 19.587 0 0 1-7.832-3.542 19.651 19.651 0 0 1-5.57-6.561 34.954 34.954 0 0 1-2.373-7.515l-.116-.492c-1.665-7.114-3.763-14.636-7.634-21.433a95.534 95.534 0 0 0-1.965-3.24 42.625 42.625 0 0 1-4.02-7.572c-1.666-4.55-1.358-9.076.915-12.057a4.094 4.094 0 0 1 2.656-1.795 2.414 2.414 0 0 1 1.848.551 1.802 1.802 0 0 1 .674 1.311h-.541a1.28 1.28 0 0 0-.483-.91 1.92 1.92 0 0 0-1.432-.434 3.746 3.746 0 0 0-2.289 1.586C.247 45.152-.094 49.47 1.57 53.844a41.855 41.855 0 0 0 3.996 7.514c.658 1.06 1.34 2.155 1.973 3.257 3.88 6.846 6.002 14.41 7.667 21.566l.117.493a34.187 34.187 0 0 0 2.33 7.389 19.071 19.071 0 0 0 5.415 6.374 18.996 18.996 0 0 0 7.614 3.436 25.531 25.531 0 0 0 16.458-2.237 17.04 17.04 0 0 0 5.41-3.833 20.249 20.249 0 0 0 3.555-6.395c1.39-3.657 2.498-7.515 3.497-11.23 1.54-5.544 3.13-11.28 5.827-16.473.832-1.52 1.665-3.014 2.547-4.459a46.993 46.993 0 0 0 4.162-8.207c.958-2.722 1-5.01.134-6.68a4.33 4.33 0 0 0-2.956-2.17 2.856 2.856 0 0 0-2.497.592l-.358-.409a3.392 3.392 0 0 1 2.955-.735 4.88 4.88 0 0 1 3.33 2.505c.94 1.837.9 4.225-.108 7.097a46.307 46.307 0 0 1-4.229 8.3c-.833 1.444-1.748 2.93-2.497 4.433-2.664 5.143-4.246 10.854-5.778 16.364-1.04 3.741-2.114 7.607-3.521 11.28a20.697 20.697 0 0 1-3.646 6.571 17.643 17.643 0 0 1-5.586 3.958 27.519 27.519 0 0 1-11.871 2.789Z" fill="#AB8DA8"/><path d="M41.62 7.713c.431-.685.678-1.47.717-2.279a2.512 2.512 0 0 0-.642-2.02c-.208-.2-.466-.36-.657-.577-.192-.217-.283-.442-.441-.65a1.832 1.832 0 0 0-1.457-.719c-.575 0-1.182.267-1.665 0-.3-.15-.5-.45-.833-.618a1.494 1.494 0 0 0-1.015-.125c-.3.105-.616.153-.933.142-.45-.067-.757-.468-1.157-.693a1.578 1.578 0 0 0-2.23.943 1.274 1.274 0 0 0 0 .643c.09.51.44.919.466 1.428.024.51-.284.952 0 1.403.283.45.699.467.899.893.266.576 0 1.328.241 1.945.125.393.192.952.558 1.203.508.35 1.615.058 2.222 0l2.356-.192c1.04-.1 2.323 0 3.264-.518.113-.052.217-.122.308-.209Z" fill="#3B2645"/><path d="M33.63 7.346a.89.89 0 0 0-1.441 0c-.724.835.5 2.505 1.44 2.605a20.66 20.66 0 0 0 0-2.605Z" fill="#E0855C"/><path d="M45.325 21.33a39.84 39.84 0 0 1-.883 4.175 9.18 9.18 0 0 0-.141.752c-.033.242-.067.426-.108.734v.184c0 .2-.058.41-.084.635l-1.048 9.81c-6.519 1.795-13.32 0-13.32 0v-.367c-.108-1.11-.441-4.642-.774-8.625v-.084a1.655 1.655 0 0 0 0-.183 255.65 255.65 0 0 1-.383-5.127c-.2-2.93-.325-5.636-.3-7.314 0-.618 1.44-.55 2.423-.684.724-.1 1.465-.167 2.106-.2.641-.034 1.124-.05 1.448-.05h.367l.083-.97.225-2.354c.11.028.22.048.333.059.206.038.415.06.624.066h.774l.358-.041h.208c.234-.042.458-.092.666-.15.209-.06.275-.084.408-.126a6.735 6.735 0 0 0 1.715-.835l.075-.05.142-.109.1-.075v.217a27.654 27.654 0 0 0-.175 1.946c0 .484-.05.96-.067 1.37-.017.408-.15 1.001.142 1.21.104.058.216.1.333.125.456.072.919.103 1.381.092h.425c.355-.02.71-.02 1.066 0a1.852 1.852 0 0 1 1.331.56c.216.313.353.674.4 1.051l.1.685c.158 1.218.175 2.451.05 3.674Z" fill="#FFEDE5"/><path d="M40.305 10.344a4.123 4.123 0 0 1-2.06 2.845 4.096 4.096 0 0 1-3.5.21l.157-1.728a6.641 6.641 0 0 0 5.403-1.327Z" fill="#E0855C"/><path d="M33.796 4.841c-.483.501-.525 1.62-.558 2.856-.125 3.757.999 4.926 2.905 5.135 1.907.208 3.913-.535 4.32-4.008.209-1.745.425-3.34-.207-4.1-.908-1.118-4.995-1.419-6.46.117Z" fill="#FFEDE5"/><path d="M40.18 8.314s.583-1.553 1.508-.726c.923.827-.35 3.173-1.765 2.997.016 0-.175-1.736.258-2.27Z" fill="#FFEDE5"/><path d="M41.28 8.298a1.256 1.256 0 0 0-.566.367 1.567 1.567 0 0 0-.408.526c0 .059.058.1.1.059.117-.117.228-.24.333-.368a.75.75 0 0 0 .274.192c.084 0 .15-.075.117-.142a.7.7 0 0 0-.225-.217c.155-.1.303-.211.441-.334a.066.066 0 0 0-.066-.083Z" fill="#E0855C"/><path d="M34.877 7.613s-.325.117-.275-.459c.05-.576.275-.442.275-.442s.224 0 .191.45c-.033.451-.191.451-.191.451Zm3.272 0s-.317.117-.267-.459c.05-.576.267-.442.267-.442s.224 0 .191.45c-.033.451-.191.451-.191.451Zm-2.922-1.744a.714.714 0 0 0-.832.091.076.076 0 0 0 .03.1c.01.006.023.009.036.009.117 0 .217-.067.333-.075a.872.872 0 0 1 .358.058c.108.034.183-.133.075-.183Zm3.413.284c-.133-.334-.707-.36-.957-.159a.1.1 0 0 0-.028.124.1.1 0 0 0 .028.035c.15.012.3.012.45 0 .121.02.239.056.35.108a.096.096 0 0 0 .173-.036.096.096 0 0 0-.015-.072Z" fill="#3B2645"/><path d="M35.535 10.302a3.511 3.511 0 0 0 2.048-.35 1.736 1.736 0 0 1-1.024.96c-.724.2-1.024-.61-1.024-.61Z" fill="#fff"/><path d="M31.33 15.913c1.915 1.344 2.09 3.958 1.158 6.045-.633 1.394-1.807 2.371-2.498 3.69a23.92 23.92 0 0 1-2.497 3.616 256.06 256.06 0 0 1-4.787 5.91c-2.605 3.124-8.083 7.248-10.056 8.684-.45.334-.716.518-.716.518s-1.89-.994-1.39-2.83c0 0 7.492-7.983 8.6-9.61a69.714 69.714 0 0 0 3.33-6.53 186.39 186.39 0 0 1 3.987-7.33c.632-1.111 1.44-2.505 2.83-2.756a2.616 2.616 0 0 1 1.615.342c.147.074.29.157.425.251Z" fill="#FFEDE5"/><path d="M10.545 41.554c.205-.016.411-.016.616 0 0 0 1.798 1.002 1.49 2.304 0 0-.191.176-.49.443-.3.267-.625.584-1.017.985-.39.4-1.282 1.67-1.664 1.561a.5.5 0 0 1-.225-.167l-.774-.835c-.433-.484-1.158-1.302-.608-1.945-.4.242-1.332.835-1.79.551l-.191-.309s1.373-1.027 1.94-1.536a4.496 4.496 0 0 1 2.713-1.052Z" fill="#FFEDE5"/><path d="M33.604 28.704a1.03 1.03 0 0 0 0 .134h.058l-.058-.134Z" fill="#D6BED3"/><path d="M36.692 55.764c-.766 6.154-1.665 11.506-1.665 11.506.125 1.486.183 3.097.183 4.75 0 3.24-.216 6.68-.49 9.71-.35 3.866-.833 7.156-1.041 8.81v.208c.307 10.963-2.806 12.415-4.263 10.019-1.457-2.396 0-9.46 0-9.46a1.31 1.31 0 0 0 0-.192 80.641 80.641 0 0 1-1.223-9.927c-.5-8.066.357-13.584.258-14.586-1.74-17.534.69-27.203.69-27.203a9.863 9.863 0 0 1 2.007-3.815c1.773-1.92 3.904-1.436 5.244.91.141.24.27.489.383.743.546 1.348.856 2.78.916 4.233.133 3.632-.375 9.235-.999 14.294Z" fill="#FFEDE5"/><path d="M45.29 80.762a81.75 81.75 0 0 1-1.215 10.136l-.075.41s1.457 7.088 0 9.459c-1.456 2.372-4.536.986-4.262-9.869v-.142c-.233-1.57-.699-4.967-1.065-8.992-.283-3.056-.5-6.479-.5-9.718 0-1.67.067-3.273.192-4.768 0 0-.924-5.352-1.665-11.497-.625-5.068-1.14-10.67-.924-14.27a12.65 12.65 0 0 1 .924-4.232c.109-.262.237-.516.383-.76 1.54-2.68 4.104-2.914 5.994.109.54.876.966 1.819 1.265 2.805 0 0 2.43 9.644.69 27.202-.124.985.7 6.312.259 14.127Z" fill="#FFEDE5"/><path d="M10.344 46.972a1.731 1.731 0 0 0 1.34.602.882.882 0 0 0 .65-1.103 1.67 1.67 0 0 0-.458-.66c-1.257-1.252-2.547-2.504-3.854-3.665a1.53 1.53 0 0 0-.833-.484 1.264 1.264 0 0 0-1.249 1.06c0 .535.458.735.833 1.036 1.182 1.052 2.364 2.154 3.571 3.214Z" fill="#3B2645"/><path d="M10.161 45.493a.652.652 0 0 0 .125-.184.585.585 0 0 0-.108-.5c-.308-.51-.94-1.328-1.565-1.403a1.18 1.18 0 0 0-1.049.534 2.033 2.033 0 0 0-.233 1.87 2.42 2.42 0 0 0 1.057 1.32 1.046 1.046 0 0 0 1.357-.518c.125-.309.083-.685.283-.944a1.01 1.01 0 0 1 .133-.175Zm31.859-29.58c-1.923 1.344-2.098 3.957-1.157 6.045.624 1.394 1.798 2.37 2.497 3.69a25.216 25.216 0 0 0 2.498 3.615c2.064 2.63 4.037 5.01 4.787 5.912 2.613 3.139 8.091 7.247 10.064 8.683l.724.518s1.882-.994 1.382-2.83c0 0-7.492-7.983-8.6-9.61a67.725 67.725 0 0 1-3.33-6.53 167.259 167.259 0 0 0-3.995-7.33c-.633-1.111-1.432-2.506-2.83-2.756a2.625 2.625 0 0 0-1.615.342c-.148.073-.29.157-.425.25Z" fill="#FFEDE5"/><path d="M62.806 41.554a4.143 4.143 0 0 0-.624 0s-1.798 1.002-1.49 2.304c0 0 .2.175.49.443.292.267.634.584 1.017.985.382.4 1.29 1.67 1.664 1.561a.549.549 0 0 0 .225-.167l.766-.835c.441-.484 1.157-1.302.616-1.945.391.242 1.324.835 1.79.551l.158-.309s-1.374-1.027-1.948-1.536a4.462 4.462 0 0 0-2.664-1.052Z" fill="#FFEDE5"/><path d="M62.998 46.972a1.731 1.731 0 0 1-1.34.601.881.881 0 0 1-.69-.744.888.888 0 0 1 .024-.358 1.67 1.67 0 0 1 .466-.626 114.443 114.443 0 0 1 3.863-3.665c.217-.249.51-.419.832-.485a1.255 1.255 0 0 1 1.24 1.06c0 .535-.449.735-.832 1.036-1.174 1.019-2.356 2.12-3.563 3.181Z" fill="#3B2645"/><path d="M63.19 45.493a.545.545 0 0 1-.134-.184.618.618 0 0 1 .117-.5c.3-.51.932-1.328 1.556-1.403a1.18 1.18 0 0 1 1.05.534 2.008 2.008 0 0 1 .208 1.87 2.353 2.353 0 0 1-1.058 1.32 1.046 1.046 0 0 1-1.357-.518c-.116-.309-.075-.685-.283-.944l-.1-.175Z" fill="#FFEDE5"/><path d="M45.416 75.41v3.24c0 .685-.05 1.394-.083 2.12a27.74 27.74 0 0 1-6.61.994 134.83 134.83 0 0 1-.283-3.698c0-.568-.125-2.171-.133-2.388a89.04 89.04 0 0 1-.084-3.632c0-1.553.059-3.073.175-4.484v-.284c0-.092-.924-5.344-1.665-11.497-.083.651-.166 1.303-.25 1.929-.699 5.293-1.44 9.568-1.44 9.568.125 1.486.183 3.098.183 4.75 0 1.262 0 2.506-.091 3.825 0 .217-.167 3.006-.192 3.273-.058.893-.133 1.77-.208 2.613a77.413 77.413 0 0 1-3.454-.225c-.9-.075-2.032-.126-3.13-.284-.05-.752-.084-1.47-.109-2.17v-3.274c0-5.06.491-8.392.416-9.185-1.74-17.534.691-27.202.691-27.202a9.862 9.862 0 0 1 2.007-3.816c.713.11 1.413.295 2.09.551 1.028.27 2.09.39 3.154.36h.766c.924 0 1.848-.11 2.764-.134h.616a11.91 11.91 0 0 1 2.614.25c.514.886.91 1.834 1.182 2.822a55.265 55.265 0 0 1 1.182 9.577c.282 5.879.118 11.771-.491 17.625-.1.743.341 3.924.383 8.775Z" fill="#3B2645"/><path d="M33.629 90.747c.116 4.316-.292 7.155-.924 8.867-.966 2.647-2.498 2.613-3.33 1.185a3.961 3.961 0 0 1-.458-1.277c-.608-2.98.458-8.182.458-8.182a1.309 1.309 0 0 0 0-.192c.414.303.883.521 1.381.642a2.656 2.656 0 0 0 2.94-1.252l-.067.209ZM44.5 99.29a4.3 4.3 0 0 1-.5 1.51c-.898 1.47-2.447 1.461-3.404-1.386-.583-1.67-.958-4.45-.833-8.524a3.507 3.507 0 0 0 2.265.901 3.773 3.773 0 0 0 2.04-.835c.015.13.015.263 0 .393 0 0 .948 4.926.432 7.94Z" fill="#AB8DA8"/><path d="M32.372 93.311a2.716 2.716 0 0 0-2.79 0 .126.126 0 0 0 .084.209c.416 0 .833-.175 1.224-.167.458.039.91.129 1.349.267a.174.174 0 0 0 .191-.215.176.176 0 0 0-.058-.094Zm-.134 1.336a3.488 3.488 0 0 0-2.356-.426c-.275 0-.283.46 0 .434a4.25 4.25 0 0 1 1.174.05c.358.067.682.218 1.04.293a.19.19 0 0 0 .218-.116.193.193 0 0 0-.076-.235ZM43.26 93.31c-.633-.216-2.006-.3-2.498.285-.066.075 0 .234.092.225.391-.05.733-.208 1.14-.225.408-.017.833.092 1.216.067a.177.177 0 0 0 .2-.15.176.176 0 0 0-.15-.201Zm.308 1.412c-.69-.31-2.414-.535-2.764.4-.05.126.109.226.209.167a2.691 2.691 0 0 1 2.372-.125c.25.1.441-.334.183-.442Zm-7.126-37.021c.013-.65.097-1.297.25-1.928-.083.65-.166 1.302-.25 1.928ZM45.5 49.01c-1.124-6.772-10.406-7.09-10.406-7.09-.574-2.788 3.172-3.623 3.172-3.623l2.19-1.895a11.91 11.91 0 0 1 2.613.25 11.9 11.9 0 0 1 1.274 2.78A56.343 56.343 0 0 1 45.5 49.01Z" fill="#291B30"/><path d="M44.475 40.16c-7.492 3.531-15.633.292-15.633.292.59-1.67.15-10.187.108-11.806v-.084a1.655 1.655 0 0 0 0-.184c1.573-3.657 1.748-10.704 1.756-13.125a21.471 21.471 0 0 1 2.09-.2c.25 2.705 1.14 9.643 3.621 9.343 2.481-.3 3.663-6.48 4.096-9.185.456.077.92.108 1.382.092h.424c-.216 3.699 1.832 11.472 1.89 11.69v.183c0 .2-.058.41-.083.635v.142c-.525 4.708.35 12.206.35 12.206Z" fill="#AB8DA8"/></svg>