<svg width="64" height="102" fill="none" xmlns="http://www.w3.org/2000/svg"><path d="M33.224 41.931c-.063 1.245-.224 2.688-.457 4.282-.42 2.813-1.066 6.02-1.791 9.136-1.595 7.148-3.494 13.741-3.494 13.741a83.214 83.214 0 0 1-1.442 12.54c-.08.457-.161.896-.25 1.344-.27 1.442-.556 2.83-.825 4.111a167.264 167.264 0 0 1-1.899 7.838l-4.362-.753a81.095 81.095 0 0 1-.278-7.049c0-1.38 0-2.687.09-3.96 0-.662.072-1.307.117-1.925.51-7.542 1.79-12.54 1.79-13.534 0-5.043.332-9.441.735-13.195 1.129-10.345 3.127-15.738 3.127-15.738 2.821-6.485 7.049-6.037 8.446-1.262a13.72 13.72 0 0 1 .493 4.424Z" fill="#FFEDE5"/><path d="M47.097 88.5c0 1.792-.107 3.682-.269 5.635l-4.362.833s-.77-2.822-1.675-6.87a165.4 165.4 0 0 1-1.012-4.873c-.09-.493-.188-1.004-.278-1.505a83.968 83.968 0 0 1-1.45-12.63s-1.918-6.655-3.53-13.839c-.699-3.081-1.344-6.27-1.791-9.056a43.67 43.67 0 0 1-.457-4.282 13.695 13.695 0 0 1 .456-4.478c1.416-4.774 5.635-5.213 8.456 1.263 0 0 1.989 5.374 3.108 15.657.473 4.41.721 8.84.744 13.275 0 .994 1.29 5.894 1.791 13.329 0 .626.08 1.262.117 1.916.143 1.783.179 3.646.152 5.626Z" fill="#FFEDE5"/><path d="M46.892 80.994a70.759 70.759 0 0 1-7.399.725 83.949 83.949 0 0 1-1.442-12.63s-1.917-6.655-3.529-13.838c-.699-3.082-1.343-6.27-1.791-9.056-.421 2.812-1.066 6.019-1.792 9.136a242.323 242.323 0 0 1-3.457 13.758 83.215 83.215 0 0 1-1.442 12.54 208.206 208.206 0 0 1-7.408-.474c.51-7.542 1.791-12.54 1.791-13.534 0-5.043.332-9.441.735-13.195 1.128-10.345 3.126-15.738 3.126-15.738 2.822-6.485 7.05-6.037 8.447-1.263 1.075-3.645 3.789-4.765 6.27-2.203a11.746 11.746 0 0 1 2.185 3.466 44.703 44.703 0 0 1 1.38 5.025 95.367 95.367 0 0 1 1.764 10.678c.473 4.409.721 8.84.744 13.274.009.995 1.29 5.903 1.818 13.329Z" fill="#3B2645"/><path d="M42.6 43.758c-2.454-2.678-13.211-3.332-13.211-3.332l9.647-5.114a11.742 11.742 0 0 1 2.185 3.466 44.676 44.676 0 0 1 1.38 4.98Z" fill="#32203B"/><path d="M23.64 99.365a.615.615 0 0 1 0 .135c-.144 2.015-1.792 1.71-4.229 1.791-1.943 0-2.983-1.084-2.866-2.257a2.07 2.07 0 0 1 .376-.986 9.23 9.23 0 0 0 1.2-2.821 2.06 2.06 0 0 1 .726-1.147c1.532-1.236 3-.286 3.735.395.328.293.557.681.654 1.11.276 1.241.411 2.51.403 3.78Zm22.508 1.881c-2.499 0-4.2.287-4.245-1.88v-.189a15.437 15.437 0 0 1 .394-3.529c.103-.491.36-.937.734-1.272a2.687 2.687 0 0 1 3.458-.51 2.4 2.4 0 0 1 .967 1.406 8.886 8.886 0 0 0 1.182 2.687c.117.169.21.352.278.546.43 1.362-.582 2.777-2.768 2.741ZM37.262 7.284a1.89 1.89 0 0 0 .439-.985c.025-.58.13-1.152.313-1.702.162-.244.294-.505.394-.78a.896.896 0 0 0-.233-.824c-.152-.152-.367-.26-.438-.465a1.43 1.43 0 0 1 0-.395 1.165 1.165 0 0 0-.672-.895A4.157 4.157 0 0 0 35.909.87a2.535 2.535 0 0 1-1.102-.413 3.053 3.053 0 0 0-.438-.34 1.46 1.46 0 0 0-.94-.072 7.821 7.821 0 0 0-1.73.511c-.2.105-.414.18-.636.224-.331 0-.68-.063-1.012 0a1.79 1.79 0 0 0-1.11 1.021.968.968 0 0 1-.27.358 1.586 1.586 0 0 1-.465.153 1.353 1.353 0 0 0-.824.958c-.085.444-.085.9 0 1.344.016.438.064.876.143 1.307.896 3.583 1.156 2.59 1.156 2.59l2.687-.279c1.218-.134 2.427-.277 3.637-.447.483-.072.967-.17 1.45-.251.291.018.578-.071.807-.251Z" fill="#3B2645"/><path d="M28.43 6.952a.958.958 0 0 0-1.549 0c-.743.958.627 2.687 1.64 2.74a22.78 22.78 0 0 0-.09-2.74Z" fill="#E0855C"/><path d="M43.202 17.299a54.637 54.637 0 0 0-2.356 7.775c-.072.34-.126.672-.188.994-.063.323-.09.564-.126.824-.035.26 0 .367-.071.618-.278 2.688-.798 10.149-.896 11.42v.189c-6.96 2.14-14.332.439-14.332.439l-.053-.394c-.162-1.236-1.667-14.457-1.72-14.986-.314-3.144-.538-6.037-.556-7.838 0-.268.233-.42.582-.519.565-.161 1.362-.188 1.989-.296a28.678 28.678 0 0 1 3.53-.367h.286c.06-.003.12-.003.179 0h.215l.224-3.583h.35c.227.036.458.054.689.054.275.004.55-.011.824-.045l.385-.045c.188 0 .359-.062.529-.107.274-.063.544-.147.806-.25.08-.018.159-.045.233-.082h.071l.18-.08c.328-.143.646-.31.949-.502l.421-.286.072-.063c.057-.037.11-.08.16-.126l.1-.08v.242a20.1 20.1 0 0 0-.126 2.096v2.785h.502a.054.054 0 0 1 .062 0c.727.01 1.451.073 2.168.189a19.24 19.24 0 0 1 3.995.967c.197.08.34.152.466.215.125.063.52.68.457.842Z" fill="#FFEDE5"/><path d="M35.713 9.972a4.417 4.417 0 0 1-5.885 3.457l.117-1.854a7.229 7.229 0 0 0 5.768-1.603Z" fill="#E0855C"/><path d="M28.53 4.257c-.503.555-.511 1.791-.511 3.09 0 4.022 1.236 5.24 3.296 5.375 2.06.134 4.192-.699 4.479-4.479.17-1.872.349-3.583-.35-4.39-1.012-1.1-5.392-1.289-6.915.404Z" fill="#FFEDE5"/><path d="M35.534 7.776s.573-1.684 1.595-.833c1.02.851-.278 3.413-1.792 3.27-.009 0-.269-1.854.197-2.437Z" fill="#FFEDE5"/><path d="M36.69 7.714a1.36 1.36 0 0 0-.592.412c-.183.162-.33.36-.43.582 0 .063.072.099.116.063.045-.036.224-.278.34-.403a.77.77 0 0 0 .296.215.098.098 0 0 0 .117-.152.725.725 0 0 0-.242-.224c.165-.113.32-.24.466-.376a.072.072 0 0 0 .007-.085.072.072 0 0 0-.079-.032Z" fill="#E0855C"/><path d="M29.783 7.195s-.34.134-.314-.475c.027-.609.287-.492.287-.492s.242 0 .215.474c-.027.475-.188.493-.188.493Zm3.52-.108s-.34.135-.304-.484c.036-.618.277-.483.277-.483s.242 0 .224.474c-.018.475-.197.493-.197.493Z" fill="#3B2645"/><path d="M31.432 8.788c-.18 0-.583.09-.672-.098.024-.428.099-.852.224-1.263.145-.552.262-1.111.35-1.675h-.064a19.511 19.511 0 0 0-.738 3.094.08.08 0 0 0 .084.068h.77c.1.027.117-.117.046-.126Z" fill="#E0855C"/><path d="M30.473 5.34a3.851 3.851 0 0 0-.645 0 3.458 3.458 0 0 0-.672-.089.134.134 0 0 0-.098.224 1.585 1.585 0 0 0 1.45.197.17.17 0 0 0-.035-.331Zm3.779-.474c-.302.17-.633.279-.976.322-.224 0-.493-.045-.672.108a.107.107 0 0 0 0 .116c.35.51 1.496-.09 1.791-.448.01-.062-.08-.125-.143-.098Z" fill="#3B2645"/><path d="M32.749 9.837a4.03 4.03 0 0 0-1.138 0c-.26 0-.627-.045-.815.17.206.188.555.108.815.099.378.036.76.036 1.138 0a.134.134 0 1 0 0-.269Z" fill="#E0855C"/><path d="M63.418 56.478H.582a.582.582 0 1 1 0-1.165h62.836a.582.582 0 1 1 0 1.165Z" fill="#3B2645"/><path d="M2.57 58.896a.994.994 0 0 1-.994-.994v-4.04a.994.994 0 1 1 1.989 0v4.022a.985.985 0 0 1-.995 1.012Z" fill="#3B2645"/><path d="M4.559 62.416a.994.994 0 0 1-.995-.994V50.369a1.003 1.003 0 0 1 1.998 0v11.053a1.003 1.003 0 0 1-1.003.994Z" fill="#291B30"/><path d="M6.557 64.082a.986.986 0 0 1-.994-.995V49.033a.994.994 0 1 1 1.988 0v14.054a.994.994 0 0 1-.994.995Zm54.003-5.186a.994.994 0 0 0 .994-.994v-4.04a.994.994 0 1 0-1.988 0v4.022a.994.994 0 0 0 .994 1.012Z" fill="#3B2645"/><path d="M58.572 62.416a.994.994 0 0 0 .994-.994V50.369a1.003 1.003 0 0 0-1.998 0v11.053a1.003 1.003 0 0 0 1.004.994Z" fill="#291B30"/><path d="M56.574 64.082a.986.986 0 0 0 .995-.995V49.033a.994.994 0 1 0-1.989 0v14.054a.994.994 0 0 0 .994.995Z" fill="#3B2645"/><path d="M26.792 23.103a18.01 18.01 0 0 1-1.514 3.681c-.26.538-1.308 2.813-1.353 2.902-1.63 3.575-3.932 8.85-4.138 9.477-.51 2.025-1.603 13.804-1.612 13.804-1.12 1.684-3.252.895-3.252.895s0-.358-.098-.967c-.242-2.607-.816-9.934-.153-14.27.188-1.2.896-4.11 1.792-7.398.716-2.687 1.03-5.24 1.88-7.855a21.651 21.651 0 0 1 3.199-6.27 4.093 4.093 0 0 1 1.98-1.246c.33 0 .474.43.752.556a3.708 3.708 0 0 1 1.791 1.791 7.623 7.623 0 0 1 .726 4.9ZM14.708 55.071c0-.394.08-.797.09-1.191v-1.021a2.59 2.59 0 0 1 2.946-.466c.216.157.414.338.592.538.358.34.77.609 1.11.967a1.612 1.612 0 0 1 .484 1.334 1.792 1.792 0 0 0-1.11.556c-.332.412-.189.788-.35 1.245-.161.457-.555.502-.896.555-1.146.17-2.786.224-2.884-1.254-.025-.42-.02-.843.018-1.263Zm35.856-2.24c-.054.61-.099.968-.099.968s-2.132.815-3.26-.896c0 0-1.093-11.743-1.64-13.768-.089-.34-.787-1.997-1.665-4.003-.878-2.007-3.7-8.143-3.79-8.349a17.509 17.509 0 0 1-1.513-3.681 7.623 7.623 0 0 1 .69-4.98 3.78 3.78 0 0 1 1.791-1.792c.277-.14.586-.204.896-.188a.78.78 0 0 1 .287.054c.165.046.323.118.465.215.22.153.424.327.61.52a15.155 15.155 0 0 1 3.466 6.019c.895 2.687 1.424 5.58 2.105 8.169.896 3.287 1.594 6.198 1.791 7.398.681 4.38.099 11.708-.134 14.314Z" fill="#FFEDE5"/><path d="M50.644 55.08c0-.448-.053-.896-.062-1.2v-1.021a2.57 2.57 0 0 0-2.938-.466c-.217.16-.418.34-.6.537-.35.34-.77.61-1.102.968a1.586 1.586 0 0 0-.484 1.334c.41.109.812.25 1.2.421.332.34.08.645.08 1.04 0 .546.377.734.897.824l1.003.179c.532.128 1.091.08 1.594-.135a.666.666 0 0 0 .188-.161.644.644 0 0 0 .09-.215 5.877 5.877 0 0 0 .134-2.105Z" fill="#FFEDE5"/><path d="m40.844 25.073.502 14.018c-8.276 3.234-17.225.215-17.225.215l-.197-13.436-.269-.08c-.403-.126-.833-.26-1.271-.44-.251-.098-.511-.196-.77-.322a33.118 33.118 0 0 1-3.27-1.72 21.649 21.649 0 0 1 3.197-6.27 4.157 4.157 0 0 1 1.98-1.245c.564-.152 1.362-.188 1.989-.295a28.656 28.656 0 0 1 3.529-.368l3.251 8.062a70.09 70.09 0 0 0 3.664-8.124h.09a.053.053 0 0 1 .062 0c.726.01 1.45.072 2.168.188a19.42 19.42 0 0 1 4.004.985c.166.046.323.119.465.215.22.153.424.327.61.52a15.155 15.155 0 0 1 3.466 6.019c-1.078.494-2.181.93-3.305 1.308a60.99 60.99 0 0 1-2.67.77Z" fill="#AB8DA8"/><path d="M23.924 21.24v4.63l-.268-.08c-.403-.126-.833-.26-1.272-.44a42.59 42.59 0 0 0 1.54-4.11Zm-2.283 75.035c-.708-.395-2.033-.7-2.687-.153a.143.143 0 0 0 0 .144v.053c0 .072.098.09.152.063.054-.027 0 0 .063 0a1.04 1.04 0 0 1 .51-.161c.232-.01.464.01.69.063.42.123.853.198 1.29.223a.117.117 0 0 0-.018-.232Zm.457 1.263a2.25 2.25 0 0 0-1.415-.501 2.33 2.33 0 0 0-1.523.152c-.063.054-.099.188 0 .233.418.107.85.153 1.28.134.515.142 1.044.23 1.577.26a.161.161 0 0 0 .08-.278Zm24.112-1.747a2.687 2.687 0 0 0-3.054.323c-.09.116 0 .34.135.322.456 0 .895-.269 1.343-.314.448-.044.94.126 1.406.072.18-.018.34-.233.17-.403Zm.377 1.174a5.044 5.044 0 0 0-1.791-.098 1.504 1.504 0 0 0-1.183.358c-.125.161 0 .466.224.385.896-.313 1.908.153 2.795-.17a.25.25 0 0 0-.045-.475Z" fill="#27192E"/></svg>