<svg width="61" height="87" fill="none" xmlns="http://www.w3.org/2000/svg"><path d="M28.787 10.299a2.92 2.92 0 0 0 .76-.799 2.958 2.958 0 0 1 1.438-.965c.243-.086.503-.117.76-.092.404.113.796.263 1.171.45 1.042.364 2.175-.092 3.278-.145a4.562 4.562 0 0 1 3.041.935 1.718 1.718 0 0 1 .799 1.863 1.643 1.643 0 0 1-.487.608 4.284 4.284 0 0 1-1.33.76c-.449.112-.88.28-1.286.503-.329.245-.634.52-.912.821a4.365 4.365 0 0 1-2.555 1.164 6.732 6.732 0 0 1-2.822-.327 2.61 2.61 0 0 1-1.011-.518c-.426-.38-.654-.89-1.125-1.232-.472-.342-.951-.524-1.21-.988a1.148 1.148 0 0 1 .054-1.14c.35-.64.851-.594 1.437-.898Z" fill="#AB8DA8"/><path d="M37.213 5.751c.091-.22.19-.449.297-.67a3.391 3.391 0 0 0-.282-3.269A4.068 4.068 0 0 0 35.373.55a3.802 3.802 0 0 0-3.004-.152 1.012 1.012 0 0 1-.251.098.928.928 0 0 1-.35-.045 2.046 2.046 0 0 0-1.931.76 4.563 4.563 0 0 0-.92 1.985c-.036.434.013.87.144 1.285.067.39.174.773.32 1.14a2.654 2.654 0 0 0 1.802 1.02c.642.091 1.28.218 1.908.38a3.24 3.24 0 0 1 1.78 1.78c.388.661.639 1.84 1.346 2.235.38.185.817.212 1.217.076.532-.152 1.087-.578 1.041-1.133-.045-.555-.715-.89-1.262-1.064l-1.011-.373a.243.243 0 0 1-.092-.06c-.053-.062 0-.16 0-.229.449-.86.746-1.68 1.103-2.502Z" fill="#3B2645"/><path d="M29.76 4.952a.821.821 0 0 0-1.315-.069c-.7.76.342 2.327 1.194 2.434.087-.786.128-1.575.121-2.365Z" fill="#FBD3CB"/><path d="M41.555 14.716a44.532 44.532 0 0 0-2.753 7.247c-.06.238-.114.466-.16.684-.334 1.521-1.46 8.958-1.642 10.13v.151c-6.038 1.339-12.122-.608-12.122-.608v-.335c-.06-1.467-.342-7.55-.433-12.798-.046-2.677-.046-5.14.06-6.669 0-.563 1.332-.433 2.236-.517a26.117 26.117 0 0 1 3.217-.045.964.964 0 0 1 .152 0h.198l.122-.867.083-.578.228-1.56.297.062c.188.044.378.075.57.09.236.016.472.016.708 0h.334l.449-.052c.243-.038.479-.1.7-.152l.205-.061h.053l.16-.046c.287-.1.567-.222.836-.365l.38-.22.069-.039.137-.09.09-.07c0 .107 0 .153-.045.206-.083.494-.19 1.126-.25 1.757a30.95 30.95 0 0 0-.122 1.247 37.488 37.488 0 0 0-.076 1.118c.142.005.284.017.425.038h.054c.615.057 1.224.159 1.825.304 1.39.32 2.714.876 3.916 1.642a.327.327 0 0 1 .099.396Z" fill="#FFEDE5"/><path d="M35.716 7.987a3.75 3.75 0 0 1-5.217 2.517l.228-1.559a6.083 6.083 0 0 0 4.989-.958Z" fill="#FBD3CB"/><path d="M30.019 2.68c-.456.433-.54 1.452-.639 2.577-.274 3.407.692 4.517 2.426 4.799 1.734.28 3.59-.312 4.121-3.453.267-1.574.54-3.042 0-3.741-.806-1.057-4.494-1.514-5.908-.183Z" fill="#FFEDE5"/><path d="M35.708 6.131s.608-1.384 1.414-.593c.806.79-.471 2.867-1.749 2.646 0-.03-.099-1.55.335-2.053Z" fill="#FFEDE5"/><path d="M36.695 6.161c-.2.056-.383.16-.532.305a1.444 1.444 0 0 0-.395.463c0 .054.053.092.09.061.039-.03.206-.213.313-.32a.63.63 0 0 0 .243.206c.076 0 .137-.06.106-.129a.76.76 0 0 0-.197-.205c.149-.083.291-.177.425-.282a.061.061 0 0 0 .007-.067.06.06 0 0 0-.06-.032Z" fill="#FBD3CB"/><path d="M30.886 5.25s-.304.091-.228-.426c.076-.517.266-.396.266-.396s.205 0 .152.419c-.053.418-.19.403-.19.403Zm2.987.143s-.296.1-.228-.426c.069-.524.266-.387.266-.387s.206 0 .16.418c-.046.418-.198.395-.198.395Z" fill="#3B2645"/><path d="M32.155 6.701c-.144 0-.494.046-.555-.122a4.34 4.34 0 0 1 .266-1.049c.145-.487.29-.814.41-1.392 0 0-.037-.045-.045 0-.338.809-.61 1.643-.813 2.495a.076.076 0 0 0 .035.089c.01.006.021.009.033.01.213 0 .426.06.646.076.069.03.1-.092.023-.107Z" fill="#FBD3CB"/><path d="M31.29 3.675c-.206-.114-.601-.167-.761.046a.069.069 0 0 0 .053.099c.107 0 .198-.046.304-.046.113 0 .224.023.327.068.091.03.168-.114.076-.167Zm3.094.411c-.106-.305-.631-.358-.86-.183-.053.038 0 .122 0 .145.135.011.27.011.404 0 .11.024.218.062.32.114a.083.083 0 0 0 .128-.027.084.084 0 0 0 .008-.05Z" fill="#3B2645"/><path d="M31.365 7.728c.635.116 1.29.036 1.878-.228a1.573 1.573 0 0 1-.973.829c-.669.144-.905-.6-.905-.6Z" fill="#fff"/><path d="M24.103 58.024c-1.848 3.186-2.974 6.7-4.373 10.083a44.867 44.867 0 0 1-5.201 9.065c-1.202 1.703-3.361 3.984-3.232 6.266.125.802.163 1.615.114 2.426-.243 1.52-1.52.958-2.624.958H5.312c-1.52 0-3.528.35-5.019 0-.76-.183.168-1.05.434-1.179 1.118-.525 2.281-.897 3.437-1.4a7.688 7.688 0 0 0 2.798-1.953c.063-.07.121-.144.175-.22 1.149-1.522 3.643-8.738 4.958-12.472a56.58 56.58 0 0 1 .601-1.688c3.551-9.567 6.388-19.407 9.764-29.087.6-1.711 2.35-7.453 3.627-8.745 1.803-1.825 3.453 2.281 5.324 4.053.52.535.88 1.203 1.041 1.931 2.016 7.87-4.684 15.635-8.35 21.962Z" fill="#FFEDE5"/><path d="M48.878 86.419a.76.76 0 0 1-.471.137c-2.76.099-5.475 0-8.22 0a1.908 1.908 0 0 1-1.522-.632 2.029 2.029 0 0 1-.235-.958c0-.51-.084-1.003-.152-1.475a22.902 22.902 0 0 0-1.149-4.487 47.809 47.809 0 0 1-2.532-10.532c-.403-3.802-.517-7.604-1.422-11.33-.76-2.958-1.87-6.282-2.7-9.666-1.17-4.79-1.733-9.71.373-13.923.122-.244.251-.487.388-.76a3.376 3.376 0 0 1 4.79-1.423c1.27.631 1.993 1.993 2.48 3.331a24.037 24.037 0 0 1 1.004 3.795c.585 3.087.714 6.326.988 9.368.388 4.563.434 9.034.616 13.574.16 3.916.51 15.665.586 17.627a10.624 10.624 0 0 0 .387 3.232c.172.507.483.955.898 1.293a4.57 4.57 0 0 0 1.574.646c1.232.335 2.342.867 3.59 1.186.253.048.49.158.691.32a.487.487 0 0 1 .038.677ZM26.407 12.602c-1.422-1.064-4.814 0-6.19.449-2.015.616-4.03 1.384-6.137 1.452a1.421 1.421 0 0 1-.646-.083 1.574 1.574 0 0 1-.578-.563c-1.825-2.54-4.502-5.407-4.974-8.6a3.59 3.59 0 0 1 .115-1.59c.068-.228.144-.464.212-.7.115-.356.174-.728.175-1.102A1.574 1.574 0 0 0 7.472.344c-1.24-.426-3.042.662-2.913 1.947 0 .304.054.608.092.905.06.494.144.988.235 1.467.251 1.316.593 2.609.936 3.87.517 1.932 1.057 3.856 1.718 5.75.586 1.658 1.688 3.893 3.186 4.912a7.018 7.018 0 0 0 3.613.974c3.008.182 6.027.014 8.996-.502a5.955 5.955 0 0 0 2.281-.76c.973-.64.897-1.354 1.11-2.328.259-1.216.76-2.19.183-3.437a1.52 1.52 0 0 0-.502-.54ZM7.343 4.77v-.046a.099.099 0 0 1 0 .046Z" fill="#FFEDE5"/><path d="M7.882 5.257a7.498 7.498 0 0 0-2.996-.563c-.091-.48-.175-.973-.236-1.468l3.56-.258c-.07.236-.145.471-.214.7a3.59 3.59 0 0 0-.114 1.589Z" fill="#FBD3CB"/><path d="m9.616 1.546-6.228.525a1.44 1.44 0 0 0-2.867.258L.69 4.185a1.44 1.44 0 0 0 2.867-.259l6.22-.532a1.437 1.437 0 1 0 2.86-.251l-.16-1.833a1.437 1.437 0 0 0-2.86.259v-.023Z" fill="#3B2645"/><path d="M5.791 3.173a1.004 1.004 0 0 0 .449.814c.15.065.314.096.479.091.36.05.728.014 1.072-.106a1.52 1.52 0 0 0 .798-1.02c.09-.44.062-.897-.083-1.323a1.445 1.445 0 0 0-.449-.76 1.323 1.323 0 0 0-.471-.213 3.285 3.285 0 0 0-1.97.091c-.532.198-.76.517-.41.936a2.046 2.046 0 0 1 .585 1.49Zm28.441 9.992c-.593 1.248-.076 2.221.182 3.438.206.973.137 1.688 1.11 2.327a5.964 5.964 0 0 0 2.282.76 38.79 38.79 0 0 0 8.996.502 7.042 7.042 0 0 0 3.612-.943c1.52-1.019 2.6-3.255 3.179-4.912.661-1.894 1.209-3.803 1.726-5.75.342-1.262.677-2.554.935-3.87.092-.48.168-.973.236-1.468 0-.296.068-.6.091-.905.1-1.285-1.68-2.372-2.912-1.946a1.575 1.575 0 0 0-.913 1.52c.003.374.06.745.167 1.103.069.236.145.472.221.7.15.516.189 1.057.114 1.59-.471 3.193-3.148 6.083-4.973 8.6-.14.234-.34.428-.578.562a1.421 1.421 0 0 1-.647.084c-2.106-.068-4.121-.836-6.136-1.452-1.384-.426-4.768-1.521-6.198-.449a1.467 1.467 0 0 0-.494.51Zm19.543-8.44v.045-.045Z" fill="#FFEDE5"/><path d="M53.228 5.257a7.46 7.46 0 0 1 2.996-.563c.092-.48.168-.973.236-1.468l-3.566-.258c.068.236.144.471.22.7.15.515.189 1.057.114 1.589Z" fill="#FBD3CB"/><path d="m51.494 1.546 6.228.555a1.437 1.437 0 0 1 2.86.258l-.168 1.856a1.437 1.437 0 0 1-2.86-.259l-6.227-.562a1.436 1.436 0 0 1-2.118 1.217 1.437 1.437 0 0 1-.742-1.468l.16-1.833a1.44 1.44 0 0 1 2.867.259v-.023Z" fill="#3B2645"/><path d="M55.319 3.173a1.004 1.004 0 0 1-.449.814 1.148 1.148 0 0 1-.479.091c-.36.05-.728.014-1.072-.106a1.468 1.468 0 0 1-.799-1.02c-.09-.44-.061-.897.084-1.323a1.4 1.4 0 0 1 .449-.76c.141-.101.302-.174.471-.213a3.285 3.285 0 0 1 1.97.091c.532.198.76.517.41.936a2.016 2.016 0 0 0-.585 1.49Z" fill="#FFEDE5"/><path d="M41.905 79.506a.83.83 0 0 1-.19.205 2.193 2.193 0 0 1-.372.198 2.9 2.9 0 0 1-.86.205 3.727 3.727 0 0 1-.714 0h-2.282c-1.3-2.425-4.327-10.904-4.076-16.57.251-5.665-3.216-15.596-3.216-15.596v.099c-.76 2.562-8.19 17.178-9.514 20.197l-.083.198c-1.43 3.414-7.97 11.307-7.97 11.307-1.444.084-3.695-1.452-3.695-1.452s-.594-2.418.418-7.65c1.011-5.232 7.102-13.582 8.623-20.874 1.521-7.293 6.844-17.81 6.844-17.81 2.865.528 5.795.605 8.684.228h.236c.41-.053.76-.121 1.14-.182l.381-.076c.65-.127 1.293-.292 1.924-.494 3.095 4.38 3.84 12.022 3.84 14.646 0 2.623 1.095 18.669 1.095 21.718.023 2.874.83 10.152-.213 11.703Z" fill="#3B2645"/><path d="M41.904 79.507a.708.708 0 0 1-.19.205 2.183 2.183 0 0 1-.373.198c.327-7.81-1.17-15.582-1.787-23.376-.357-4.495-.083-9.042-.517-13.521-.403-4.091-2-7.604-4.137-11.011l.38-.076a20.28 20.28 0 0 1 4.153 10.06c.616 4.48.16 9.073.494 13.582.334 4.677.958 9.33 1.437 13.992.447 3.296.628 6.622.54 9.947Z" fill="#E8CEE5"/><path d="M30.202 47.978v.092c-.76 2.563-8.19 17.178-9.514 20.197 1.012-4.182 1.088-7.604 3.042-12.35 2.342-5.718 6.167-7.779 6.472-7.939Z" fill="#291B30"/><path d="M55.57 7.493s-.624 7.041-2.67 10.387c-2.045 3.346-13.186 2.076-13.186 2.076s-2.418 9.027-1.277 11.475c1.14 2.45-3.863 2.837-5.453 2.768-1.589-.068-10.068.114-10-1.467.069-1.582 1.24-2.145 1.133-4.365-.106-2.22-.19-8.426-.19-8.426s-7.155 1.635-11.657.631c-4.502-1.003-6.426-9.3-6.449-12.007l2.822-1.072s3.672 5.026 4.517 5.832c.844.806 8.745-1.52 10.859-1.483l6.289.114s.296 2.624 1.992 2.366c1.696-.26 2.935-2 2.935-2a9.33 9.33 0 0 1 4-.13l.228.046c.943.213 2.282.623 3.65.973 1.78.464 3.476.83 4.038.502 1.012-.593 5.68-6.844 5.68-6.844l2.738.624Z" fill="#AB8DA8"/><path d="M31.068 15.63c-.92-.107-.76 1.9-.76 2.372a5.14 5.14 0 0 1-.145 1.703c-.215.484-.456.957-.722 1.415a2.022 2.022 0 0 0-.137 1.688.122.122 0 0 0 .228-.061c-.205-1.346.814-2.16 1.057-3.377.13-.661-.304-3.27.51-3.52a.114.114 0 0 0-.03-.22Zm1.179.129a2.912 2.912 0 0 0-.357 2.372 5.132 5.132 0 0 1-.19 2.426 3.147 3.147 0 0 0-.213 1.52.084.084 0 0 0 .08.06.084.084 0 0 0 .08-.06c.114-.881.57-1.672.661-2.554.137-1.262-.532-2.41.13-3.627a.117.117 0 1 0-.19-.137Z" fill="#3B2645"/><path d="M18.14 20.8s5.385-2.821 6.023-4.152c.64-1.33-.19 3.597-.19 3.597l-5.832.555Zm21.294-8.57c.943.212 2.281.623 3.65.973a4.182 4.182 0 0 0-3.878 1.11c-1.575 1.627-5.324 1.171-5.727 1.126 2.57.266 5.468-2.677 5.955-3.21Z" fill="#826B80"/><path d="M11.427 85.887c-.244 1.52-1.521.958-2.624.958H5.328c-1.521 0-3.529.35-5.02 0-.76-.183.168-1.05.434-1.179 1.118-.525 2.282-.897 3.438-1.399a7.688 7.688 0 0 0 2.798-1.954h.16a1.52 1.52 0 0 1 1.718 1.254c.64.548 1.65-.121 2.457-.068.122.79.16 1.59.114 2.388Zm37.451.532a.76.76 0 0 1-.472.137c-2.76.098-5.475 0-8.22 0a1.91 1.91 0 0 1-1.52-.632 2.03 2.03 0 0 1-.237-.958c0-.51-.083-1.003-.152-1.475.83-.175 1.94.631 2.624.046a1.574 1.574 0 0 1 1.179-1.232c.172.506.482.954.897 1.292a4.56 4.56 0 0 0 1.574.647c1.232.334 2.342.867 3.59 1.186.253.048.49.157.691.32a.487.487 0 0 1 .046.669Z" fill="#3B2645"/></svg>