<svg width="52" height="100" fill="none" xmlns="http://www.w3.org/2000/svg"><path d="M49.246 8.806a.81.81 0 0 0 .81-.806V4.74a.802.802 0 0 0-.5-.744.813.813 0 0 0-1.058.436.804.804 0 0 0-.061.308V8a.804.804 0 0 0 .809.806Z" fill="#3B2645"/><path d="M47.626 11.654a.811.811 0 0 0 .81-.799v-8.96a.804.804 0 0 0-.81-.805.81.81 0 0 0-.81.806v8.959a.804.804 0 0 0 .81.799Z" fill="#291B30"/><path d="M41.851 9.466s0 .29-.043.785c-.139 2.112-.613 8.059-1.7 11.442-.305.944-1.26 3.173-2.383 5.7-1.648 3.79-3.66 8.145-4.426 10.07-.248.624-2.654-.56-3.296-.676-1.619-.312-1.816-3.187-1.29-5.605a7.74 7.74 0 0 1 .918-2.403l.139-.21.095-.139c.889-1.292 2.34-2.962 3.645-4.48a21.242 21.242 0 0 0 2.56-3.412c.728-1.546 3.069-10.803 3.069-10.803 1.101-1.19 2.712-.269 2.712-.269Z" fill="#FFEDE5"/><path d="M42.157 8.466c-.08.349-.146.683-.197.951-.095.494-.138.82-.138.82-.817.85-2.407 0-2.407 0a3.72 3.72 0 0 1-.291-.457 3.885 3.885 0 0 1-.496-2.483c.117-.66.233-2.178.233-2.178h.292c.306 0 .401.944.423 1.387a.983.983 0 0 1 0 .181.601.601 0 0 1 .095-.217.918.918 0 0 1 .81-.327h1.107c.171-.004.34.031.496.101a.408.408 0 0 1 .146.102c.489.494.058 1.605-.073 2.12Z" fill="#FFEDE5"/><path d="M42.157 8.465c-.08.349-.146.683-.197.951a2.179 2.179 0 0 0-.19-.246 3.48 3.48 0 0 0-1.115-.726c-.467-.247-1.75-.973-1.356-1.707a.568.568 0 0 1 .277-.217l.11-.037c.602-.09 1.212-.139 1.822-.145.197 0 .394-.065.59-.087a.481.481 0 0 1 .146.102c.474.486.044 1.597-.087 2.112Z" fill="#E0855C"/><path d="M31.023 22.144c.24-1.365.576-2.712 1.007-4.03a.883.883 0 0 0-.489-1.127.893.893 0 0 0-.445-.063 3.837 3.837 0 0 0-.904.276s.73-2.091-.299-2.781c-1.028-.69-2.552.632-3.142 1.62a.969.969 0 0 0-.306-1.264c-.73-.465-3.989 3.115-3.347 6.055.641 2.94.911 2.113.911 2.113s6.81-.421 7.014-.799Z" fill="#3B2645"/><path d="M23.828 21.673a.778.778 0 0 0-.985-.235.78.78 0 0 0-.277.235c-.634.726.445 2.178 1.262 2.265.048-.754.048-1.51 0-2.265Z" fill="#E0855C"/><path d="M35.588 30.458a42.29 42.29 0 0 0-2.29 7.043c-.044.232-.087.45-.124.66-.24 1.452-.97 8.61-1.086 9.736v.145c-5.71 1.569-11.666 0-11.666 0v-.319c-.131-1.394-.693-7.18-1.028-12.183-.175-2.556-.285-4.9-.255-6.36 0-.537 1.254-.48 2.114-.602a27.26 27.26 0 0 1 3.113-.218h.321l.073-.835.058-.56.139-1.495c.095 0 .19.036.284.044.183.033.369.053.554.058.226.018.453.018.678 0l.321-.037c.142-.014.284-.035.423-.065.234-.05.46-.116.671-.181l.19-.066h.05l.146-.058a5.682 5.682 0 0 0 1.138-.61l.066-.043.123-.095a.24.24 0 0 0 .088-.072v.203a19.48 19.48 0 0 0-.16 1.692c0 .414-.044.827-.059 1.19v1.068c.136-.008.273-.008.409 0a.044.044 0 0 1 .043 0c.595.027 1.187.095 1.772.203 1.344.24 2.637.71 3.82 1.387a.297.297 0 0 1 .074.37Z" fill="#FFEDE5"/><path d="M29.675 24.278a3.557 3.557 0 0 1-1.803 2.477 3.591 3.591 0 0 1-3.067.173l.138-1.495a5.857 5.857 0 0 0 4.732-1.155Z" fill="#E0855C"/><path d="M24.009 19.494c-.423.429-.453 1.409-.489 2.483-.11 3.26.875 4.284 2.545 4.458 1.67.175 3.426-.457 3.784-3.485.182-1.51.372-2.904-.175-3.565-.86-.972-4.419-1.227-5.665.11Z" fill="#FFEDE5"/><path d="M29.58 22.514s.517-1.35 1.32-.631c.802.718-.329 2.766-1.539 2.606 0 0-.175-1.51.219-1.975Z" fill="#FFEDE5"/><path d="M30.528 22.471a1.24 1.24 0 0 0-.496.32c-.149.127-.27.282-.357.457 0 .058.05.087.095.058.043-.03.182-.218.284-.32.062.08.142.145.233.19a.095.095 0 0 0 .11-.082.095.095 0 0 0-.008-.05.59.59 0 0 0-.197-.181 3.21 3.21 0 0 0 .387-.298.058.058 0 0 0-.051-.094Z" fill="#E0855C"/><path d="M24.921 21.898s-.284.109-.24-.392c.043-.501.24-.385.24-.385s.197 0 .168.392c-.03.392-.168.385-.168.385Zm2.873 0s-.284.109-.24-.392c.043-.501.24-.385.24-.385s.197 0 .168.392c-.03.392-.168.385-.168.385Z" fill="#3B2645"/><path d="M26.197 23.233c-.138 0-.466.058-.54-.094.03-.346.1-.688.212-1.017.135-.443.245-.894.328-1.35 0 0 0-.036-.05 0-.289.79-.515 1.6-.679 2.425a.073.073 0 0 0 .013.058.074.074 0 0 0 .053.03c.211 0 .416.043.627.043.102.029.124-.087.036-.095Z" fill="#E0855C"/><path d="M25.234 20.387c-.204-.11-.583-.131-.73.08a.057.057 0 0 0 .022.08.058.058 0 0 0 .03.007c.102 0 .19-.051.292-.059a.77.77 0 0 1 .313.051c.095.03.16-.116.073-.16Zm2.983.246c-.117-.29-.62-.32-.831-.138a.072.072 0 0 0-.041.066.072.072 0 0 0 .04.065c.125.044.256 0 .387 0 .106.017.21.049.306.095.095.029.16-.037.14-.088Z" fill="#3B2645"/><path d="M25.468 24.242a3.096 3.096 0 0 0 1.823-.32 1.534 1.534 0 0 1-.897.836c-.635.189-.926-.516-.926-.516Z" fill="#fff"/><path d="M24.294 36.787c-.627.116-3.507.436-4.018 0a4.657 4.657 0 0 1-.897-1.249 68.028 68.028 0 0 1-3.055-7.536c-.977-2.744-1.808-5.3-2.122-6.273-1.13-3.42-1.567-9.373-1.706-11.486-.036-.493-.05-.777-.05-.777s1.596-.9 2.734.284c0 0 2.377 9.264 3.076 10.81a16.801 16.801 0 0 0 2.064 2.817c1.349 1.612 3.011 3.5 4.032 4.945l.19.268.138.21a9.163 9.163 0 0 1 1.123 3.769c.19 2.004-.182 3.964-1.51 4.218Z" fill="#FFEDE5"/><path d="M15.18 9.75a3.72 3.72 0 0 1-.291.458s-1.582.871-2.392.036c0 0-.036-.225-.102-.573a30.241 30.241 0 0 0-.248-1.206c-.087-.348-.656-1.735-.364-1.982a.533.533 0 0 1 .233-.087l.977-.174c.562-.102 1.502-.254 1.728.45 0-.406 0-1.365.423-1.575h.306s.11 1.488.226 2.178a3.884 3.884 0 0 1-.496 2.476Zm4.126 39.584s-3.019 8.11-3.143 23.45c0 1.22-2.384 9.664-1.458 21.462l3.55.668s3.442-12.459 3.595-20.96c0 0 4.375-15.087 4.674-22.028.299-6.941-4.338-9.192-7.218-2.592Z" fill="#FFEDE5"/><path d="M18.753 98.473a.55.55 0 0 1 0 .109c-.117 1.633-1.459 1.379-3.442 1.408-1.582 0-2.428-.878-2.333-1.83.034-.287.139-.562.306-.798a7.77 7.77 0 0 0 1.072-2.73c1.954-2.338 3.944.268 3.944.268.297 1.168.449 2.368.453 3.573Z" fill="#3B2645"/><path d="M33.066 49.334s3.018 8.11 3.135 23.45c0 1.22 2.391 9.664 1.458 21.462l-3.55.668s-3.435-12.459-3.595-20.96c0 0-4.375-15.087-4.674-22.028-.299-6.941 4.346-9.192 7.226-2.592Z" fill="#FFEDE5"/><path d="M37.075 99.99c-2.034 0-3.42.232-3.456-1.517v-.153c.002-1.155.156-2.305.46-3.42 0 0 1.997-2.606 3.944-.268.181.97.547 1.897 1.08 2.73.094.136.17.285.225.443.372 1.074-.474 2.214-2.253 2.185Z" fill="#3B2645"/><path d="M37.723 27.394c-1.648 3.79-3.653 8.146-4.425 10.07-.044.232-.088.45-.125.66-.24 1.453-.97 8.611-1.086 9.737-1.976.602-5.993 1.314-11.666-.174-.131-1.394-.693-7.18-1.028-12.183a68.028 68.028 0 0 1-3.055-7.537c1.363-.856 3.274-2.388 3.995-4.588 1.35 1.612 3.012 3.5 4.033 4.944h.145c0 .08 0 .174.044.269a11.87 11.87 0 0 0 1.262 3.979 1.28 1.28 0 0 0 .933.653c.729 0 1.422-.915 1.976-2.018.415-.845.769-1.719 1.057-2.614l.051-.138a.044.044 0 0 1 .044 0c.89-1.293 2.34-2.962 3.645-4.48.693.988 2.356 2.962 4.2 3.42Z" fill="#AB8DA8"/><path d="M36.36 65.865a11.336 11.336 0 0 1-6.226 1.227 6.497 6.497 0 0 1-2.188-.58l-1.75-9.73-1.698 9.73c-3.69 1.328-8.75-1.097-8.75-1.097 1.611-15.733 4.615-18.093 4.615-18.093 4.951 1.605 11.769.051 11.769.051 3.492 4.669 4.229 18.492 4.229 18.492Z" fill="#3B2645"/><path d="M12.46 9.634h-.066a30.41 30.41 0 0 0-.248-1.205c-.087-.349-.649-1.728-.364-1.982a.57.57 0 0 1 .233-.087l.977-.175a2.563 2.563 0 0 1 1.262 0 1.085 1.085 0 0 1 .627 1.038c0 1.307-2.078 2.23-2.421 2.41Z" fill="#E0855C"/><path d="M51.578 6.846H.422A.482.482 0 0 1 0 6.37a.478.478 0 0 1 .422-.475h51.156A.482.482 0 0 1 52 6.37a.478.478 0 0 1-.422.476Z" fill="#3B2645"/><path d="M2.048 8.807A.818.818 0 0 1 1.231 8V4.74a.811.811 0 0 1 .817-.813.818.818 0 0 1 .817.813V8a.803.803 0 0 1-.505.746.812.812 0 0 1-.312.06Z" fill="#3B2645"/><path d="M3.667 11.654a.804.804 0 0 1-.802-.799v-8.96a.804.804 0 0 1 .81-.805.811.811 0 0 1 .809.806v8.959a.803.803 0 0 1-.506.74.814.814 0 0 1-.31.059Z" fill="#291B30"/><path d="M5.285 13.032a.811.811 0 0 1-.81-.806V.806A.804.804 0 0 1 5.286 0a.811.811 0 0 1 .81.806v11.399a.803.803 0 0 1-.495.764.812.812 0 0 1-.315.063Zm40.723 0a.811.811 0 0 0 .81-.806V.806a.804.804 0 0 0-.81-.806.811.811 0 0 0-.81.806v11.399a.804.804 0 0 0 .81.827Z" fill="#3B2645"/><path d="M12.475 7.4a.516.516 0 0 0 .131.188c.087.057.188.09.292.094.324.03.65.014.97-.05a1.24 1.24 0 0 0 .765-.407 1.028 1.028 0 0 0 .095-1.016 1.75 1.75 0 0 0-1.24-1.024c-.452-.102-1.596-.058-1.779.5-.095.277.175.553.306.77.132.218.329.64.46.944Zm29.034 0a.457.457 0 0 1-.139.188.556.556 0 0 1-.291.094 3.31 3.31 0 0 1-.963-.05 1.278 1.278 0 0 1-.794-.407 1.015 1.015 0 0 1-.088-1.016 1.751 1.751 0 0 1 1.232-1.024c.46-.102 1.604-.058 1.787.5.094.277-.175.553-.307.77-.13.218-.277.64-.437.944Z" fill="#FFEDE5"/><path d="M30.135 67.093a6.496 6.496 0 0 1-2.188-.58l-1.75-9.73s2.188 3.115 3.938 10.31ZM18.738 98.58c-.117 1.634-1.458 1.38-3.441 1.409-1.583 0-2.429-.879-2.334-1.83.375.356.838.607 1.342.726.597.119 1.209.15 1.815.095a16.96 16.96 0 0 0 2.618-.4Zm18.337 1.41c-2.034 0-3.42.231-3.456-1.518v-.153a4.094 4.094 0 0 0 3.901.501c.64-.27 1.246-.61 1.808-1.016.372 1.074-.474 2.214-2.253 2.185Z" fill="#291B30"/><path d="M17.687 95.8c-.554-.675-1.888-.631-2.588-.254a.217.217 0 0 0 .168.392 3.131 3.131 0 0 1 1.13-.13 7.82 7.82 0 0 1 1.079.355.22.22 0 0 0 .272-.237.217.217 0 0 0-.06-.126Zm-.321.777a4.55 4.55 0 0 0-1.327-.196c-.4-.048-.804.01-1.174.167a.131.131 0 0 0-.057.191.131.131 0 0 0 .057.048 5.03 5.03 0 0 0 1.145.073c.43 0 .838.123 1.268.152.292.03.307-.355.088-.435Zm20.088-.988c-.277-.835-1.91-.4-2.486-.218-.234.066-.204.45.058.436.401 0 .795-.138 1.196-.167.21-.018.423.002.627.058.13.07.275.113.423.123a.189.189 0 0 0 .182-.232Zm-.189.698c-.416-.377-1.32-.254-1.823-.152-.248.05-.846.298-.518.631a.102.102 0 0 0 .124 0c.204-.196.73-.16.999-.166.375.058.756.058 1.13 0a.203.203 0 0 0 .088-.313Z" fill="#AB8DA8"/><path d="M23.805 40.244a.542.542 0 0 0 0 .117h.05l-.05-.117Z" fill="#D6BED3"/></svg>