<svg width="82" height="100" fill="none" xmlns="http://www.w3.org/2000/svg"><path d="M81.433 79.574c-.072 1.34-.317 4.09-2.168 4.09h-.092a1.933 1.933 0 0 1-.664-.184 1.861 1.861 0 0 1-.276-.153 3.303 3.303 0 0 1-1.187-2.965 3.935 3.935 0 0 0-.102-1.023 3.544 3.544 0 0 0-.122-.47.323.323 0 0 1 0-.092 6.548 6.548 0 0 0-.225-.46 1.808 1.808 0 0 0-.143-.236.092.092 0 0 0 0-.06.654.654 0 0 0-.103-.134 2.824 2.824 0 0 0-.368-.409l-.061-.061c-.154-.133-.297-.266-.44-.379-.542-.46-1.022-.777-.961-1.36.082-1.37 1.022-3.139 2.321-2.75 0 0 .327-1.636-.573-2.045-.572-.286 0-.44.348-.47.593-.051 1.186.184 1.82.133.04-.037.08-.07.123-.103a2.68 2.68 0 0 1 .757 0h.06a1.717 1.717 0 0 1 1.228 1.023c.177.52.266 1.066.266 1.615.102 2.22.685 4.254.562 6.493Z" fill="#3B2645"/><path d="M77.619 76.58c-.082.214-.256.306-.44.429a5.466 5.466 0 0 0-.603.49 3.223 3.223 0 0 0-.297.358 2.83 2.83 0 0 0-.368-.409l-.061-.061c.069-.097.144-.189.225-.276.306-.338.91-.961 1.4-.808a.225.225 0 0 1 .144.276Zm.47 1.185c-.4.38-.835.722-1.299 1.022a6.53 6.53 0 0 0-.225-.46 2.37 2.37 0 0 1 1.38-.808.173.173 0 0 1 .144.246Zm3.343 1.809c-.071 1.34-.317 4.09-2.168 4.09h-.092a1.935 1.935 0 0 1-.664-.184c2.73-1.022 2.127-4.621 1.871-7.157a20.172 20.172 0 0 0-.95-5.88 1.697 1.697 0 0 1 1.175 1.023c.177.52.267 1.066.266 1.615.102 2.22.685 4.254.562 6.493Z" fill="#E8CEE5"/><path d="M26.411 25.237s-.276 1.217-.736 3.068a78.738 78.738 0 0 1-3.742 11.564c-.422.998-.96 1.942-1.606 2.812-2.873 3.64-14.427-4.693-15.9-5.777a.593.593 0 0 0-.337-.123c-.818 0-4.09-.173-4.019-2.433.062-2.464 1.76-5.563 5.47-2.045 2.291 2.157 10.38 4.836 10.38 4.836l2.627-17.035a1.165 1.165 0 0 1 1.953-.665 176.87 176.87 0 0 1 5.91 5.798Z" fill="#FFEDE5"/><path d="M25.664 28.265a78.728 78.728 0 0 1-3.732 11.606c-.051-4.908-.163-11.667-.163-11.667a4.183 4.183 0 0 1 3.895.061Z" fill="#E0855C"/><path d="M34.878 55.157c-2.137 1.513-4.52 2.975-6.892 4.417a95.228 95.228 0 0 0-3.241 2.045 99.32 99.32 0 0 0-8.691 6.483c1.196 1.431 2.443 4.724 3.568 8.466 2.26 7.526 4.09 16.903 4.09 16.903-2.045 1.87-3.773 1.022-3.773 1.022-1.605-3.068-5.061-9.704-7.975-15.808-2.73-5.675-4.98-10.961-4.755-12.638.225-1.677 4.642-6.524 9.203-11.187 5.112-5.112 10.347-10.04 10.347-10.04a33.613 33.613 0 0 1 6.616-5.481c2.444-1.442 5.113-2.27 7.158-.92a6.053 6.053 0 0 1 2.239 2.985c.075.177.14.358.194.542 1.565 4.98-2.485 9.274-8.088 13.21Z" fill="#FFEDE5"/><path d="M76.28 75.434c-5.624.266-11.463.91-16.197 1.278-4.09.327-7.321.47-8.875 0-3.068-.88-7.966-8.057-11.248-13.293-1.932-3.128-3.323-5.572-3.323-5.572s-.808-1.023-1.79-2.69c-2.586-4.325-6.36-12.597 1.023-14.836 3.17-.961 5.317-.245 7.025 1.626 2.29 2.505 3.793 7.075 5.93 12.546l5.88 14.612a23.04 23.04 0 0 1 5.266-.481 87.167 87.167 0 0 1 16.667 2.27c1.758 2.188-.358 4.54-.358 4.54Z" fill="#FFEDE5"/><path d="M24.274 9.256a140.738 140.738 0 0 0 6.432-1.922c1.247-.409 2.617-.43 3.067-1.871a4.09 4.09 0 0 0-.623-3.528A4.96 4.96 0 0 0 30.327.176a8.108 8.108 0 0 0-3.364 0 5.726 5.726 0 0 0-3.998 2.434 5.583 5.583 0 0 0-.552 3.16c.086.95.41 1.865.94 2.658.072.113.553 1.094.798 1.023.072-.041.113-.184.123-.195Z" fill="#3B2645"/><path d="M23.702 7.548a1.094 1.094 0 0 0-1.728.368c-.645 1.227 1.257 2.904 2.392 2.75a25.273 25.273 0 0 0-.664-3.118Z" fill="#E0855C"/><path d="M42.413 16.158a64.415 64.415 0 0 0-1.073 10.317v.93c.133 2.138 1.227 12.21 1.431 13.794v.205c-6.881 3.579-14.836 3.425-15.849 3.415h-.112a4.132 4.132 0 0 0-.133-.43c-.613-1.85-2.986-9.468-4.898-16.186 0-.102-.061-.194-.092-.307-1.022-3.456-2.464-6.135-2.853-8.108-.143-.747 2.209-1.605 3.354-2.045.164-.072.338-.123.522-.184.9-.317 1.83-.583 2.576-.777l1.544-.358-.48-4.09h.409a7.34 7.34 0 0 0 1.697-.296l.43-.134.562-.235c.3-.126.59-.273.87-.44.062-.027.124-.058.183-.092a.062.062 0 0 0 .062 0l.194-.122c.343-.226.665-.483.961-.767.164-.154.307-.286.42-.41l.07-.081a.96.96 0 0 0 .144-.164.588.588 0 0 0 .102-.122v.286c0 .675.143 1.524.286 2.372a41 41 0 0 0 .266 1.657c.164.859.297 1.482.297 1.482.185-.045.373-.079.562-.102h.368a18.692 18.692 0 0 1 2.178-.194h.89c1.618.025 3.224.29 4.765.787a.44.44 0 0 1 .347.399Z" fill="#FFEDE5"/><path d="M32.546 9.43a5.052 5.052 0 0 1-5.91 5.113l-.245-2.116a8.182 8.182 0 0 0 6.155-2.996Z" fill="#E0855C"/><path d="M23.261 4.501c-.45.726-.204 2.045.061 3.569.818 4.53 2.454 5.644 4.806 5.399 2.352-.246 4.56-1.637 4.162-5.91-.194-2.138-.338-4.09-1.288-4.858-1.422-1.104-6.37-.409-7.74 1.8Z" fill="#FFEDE5"/><path d="M31.851 7.048s.297-2.045 1.616-1.268c1.319.777.389 3.895-1.35 4.09 0-.062-.675-2.096-.266-2.822Z" fill="#FFEDE5"/><path d="M25.277 7.538s-.358.235-.45-.47c-.092-.706.214-.604.214-.604s.266-.061.348.49c.082.553-.112.584-.112.584Zm3.936-.838s-.358.226-.45-.47c-.092-.695.215-.603.215-.603s.266-.061.348.49c.081.553-.113.584-.113.584Z" fill="#3B2645"/><path d="M27.433 9c-.194 0-.624.225-.767 0a5.817 5.817 0 0 1 0-1.462c.055-.65.072-1.302.051-1.953h-.071a21.984 21.984 0 0 0-.236 3.61.093.093 0 0 0 .032.086.093.093 0 0 0 .091.016c.287-.062.583-.062.87-.123.132-.02.132-.184.03-.174Z" fill="#E0855C"/><path d="M25.255 5.36c-.317-.081-.838 0-1.022.328a.082.082 0 0 0 .102.112c.133 0 .246-.133.378-.174.149-.03.302-.03.45 0a.14.14 0 0 0 .092-.265Zm4.163-.532a.828.828 0 0 0-1.186.051.123.123 0 0 0 .035.163.122.122 0 0 0 .057.021c.18-.022.358-.06.531-.112.15-.02.301-.02.45 0 .082.051.174-.051.113-.123Z" fill="#3B2645"/><path d="M28.67 9.727c-.439.225-.674.562-1.196.654a1.534 1.534 0 0 1-.777 0c-.143 0-.143-.071-.286-.061a.071.071 0 0 0-.064.06.085.085 0 0 0 .003.032c.122.44.818.368 1.155.317a1.657 1.657 0 0 0 1.278-.86c.031-.08-.04-.173-.112-.142Z" fill="#E0855C"/><path d="M50.44 58.398c-.306.225-.592.44-.889.634-.296.194-.47.327-.705.48a25.564 25.564 0 0 1-8.876 3.907 188.551 188.551 0 0 1-3.333-5.573s-.808-1.022-1.79-2.69c-2.136 1.514-4.519 2.976-6.891 4.418a95.378 95.378 0 0 0-3.241 2.045 42.753 42.753 0 0 1-2.649-1.728 29.309 29.309 0 0 1-5.644-5.03A544.972 544.972 0 0 1 26.77 44.819a33.61 33.61 0 0 1 6.615-5.48 18.25 18.25 0 0 1 7.158-.92 6.053 6.053 0 0 1 2.229 2.985c.075.177.14.358.194.542 2.29 2.505 3.794 7.076 5.93 12.546.543 1.37 1.034 2.659 1.545 3.906Z" fill="#3B2645"/><path d="M23.691 93.471c-2.045 1.871-3.773 1.022-3.773 1.022-1.605-3.067-5.061-9.703-7.976-15.807a36.364 36.364 0 0 0 7.68-2.107c2.26 7.516 4.07 16.892 4.07 16.892Z" fill="#AB8DA8"/><path d="M24.765 94.84a.893.893 0 0 1 0 .287 1.84 1.84 0 0 1-.665 1.145c-.447.324-.94.579-1.462.757-2.045.828-3.794 2.045-5.961 2.587-1.289.337-3.957.95-4.55-.808a.674.674 0 0 1 0-.092 2.048 2.048 0 0 1 0-.542c.01-.152.034-.303.071-.45.194-.675.798-1.513 2.454-2.045.33-.1.646-.242.94-.42.139-.076.272-.162.4-.255l.081-.072c.152-.12.292-.253.42-.398l.133-.154.05-.061.144-.225c.081-.124.153-.254.215-.389.112-.235.194-.429.265-.603.256-.654.43-1.186 1.023-1.33 1.33-.347 3.292 0 3.343 1.35 0 0 1.657-.194 1.79-1.186.092-.634.43-.143.562.184.225.553.194 1.187.44 1.76 0 .081.072.142.102.224.123.224.21.465.256.716a.174.174 0 0 1-.051.02Z" fill="#3B2645"/><path d="M76.279 75.433c-5.624.266-11.462.91-16.197 1.278.343-1.68.47-3.399.379-5.112a11.916 11.916 0 0 0-.43-3.006 87.15 87.15 0 0 1 16.667 2.27c1.698 2.219-.419 4.57-.419 4.57Z" fill="#AB8DA8"/><path d="M17.495 96.508c-.45-.47-.859-.972-1.329-1.432l-.153-.143a3.2 3.2 0 0 0 .419-.399c.061.061.112.123.174.174.47.438.891.924 1.257 1.452.154.235-.163.562-.368.348Zm1.196-1.361a.214.214 0 0 1-.162.291.216.216 0 0 1-.124-.015 8.814 8.814 0 0 1-1.268-1.023 3.748 3.748 0 0 0-.378-.286 3.06 3.06 0 0 0 .215-.388c.151.059.293.142.419.245a3.23 3.23 0 0 1 1.298 1.176Zm6.064-.019a1.84 1.84 0 0 1-.665 1.145 5.51 5.51 0 0 1-1.462.757c-2.045.828-3.793 2.045-5.961 2.587-1.289.337-3.957.951-4.55-.808a.673.673 0 0 1 0-.092 2.04 2.04 0 0 1 0-.542c2.566 1.728 5.03.153 7.638-.685 1.902-.624 3.824-.992 5-2.362Z" fill="#E8CEE5"/><path d="M49.551 59.033c-.235.174-.47.327-.705.48-2.495-6.002-4.755-12.178-8.068-17.7-.174-.285.225-.592.43-.306 2.045 2.812 3.302 6.288 4.744 9.448 1.227 2.638 2.474 5.348 3.6 8.078Zm-14.674-3.876c-2.137 1.514-4.52 2.976-6.892 4.418a95.384 95.384 0 0 0-3.241 2.044 42.795 42.795 0 0 1-2.648-1.727c7.32-4.172 12.638-4.725 12.781-4.735Z" fill="#32203B"/><path d="M42.772 41.405c-6.882 3.579-14.837 3.446-15.85 3.415h-.112l-.133-.399c-.613-1.85-2.986-9.468-4.898-16.186 1.023-3.436 1.023-8.763.93-10.614.9-.317 1.831-.583 2.578-.777.05 1.8.531 6.288 3.987 6.411 4.09.143 4.878-5.644 5.02-8.18a18.669 18.669 0 0 1 2.179-.194h.89a16.177 16.177 0 0 0 .173 5.112A15.215 15.215 0 0 0 41.36 27.5c.062 1.084.358 4.151.665 7.157.307 3.006.747 6.749.747 6.749Z" fill="#AB8DA8"/><path d="M41.37 27.497c0 1.023.348 4.09.655 7.158a24.366 24.366 0 0 1-4.5-14.622 15.214 15.214 0 0 0 3.835 7.464h.01Z" fill="#291B30"/><path d="M6.687 33.49c-.399 1.442-1.115 2.74-1.544 4.151-.225.737.818 1.023 1.237.573a10.726 10.726 0 0 0 2.045-4.427c.256-1.074-1.442-1.36-1.738-.297Zm18.037-18.845c.245.338.5.644.756.961.098.11.187.225.266.348 1.554 2.168 1.82 4.662 2.597 7.065l.276-.429c-.224-.94-.419-1.881-.674-2.802a8.875 8.875 0 0 1 1.707-3.936 15.768 15.768 0 0 0 1.871-2.23c.462-.858.73-1.807.788-2.78a8.29 8.29 0 0 1 .542-2.772.92.92 0 0 0 .081-.235.644.644 0 0 0-.265-.542.45.45 0 0 0-.225-.102.215.215 0 0 0-.215.112.429.429 0 0 0 0 .164 9.558 9.558 0 0 1-.102 1.79c-.062.623-.092 1.257-.164 1.891a6.33 6.33 0 0 1-1.912 3.814 7.639 7.639 0 0 0-2.25 4.356 11.13 11.13 0 0 0-1.022-2.464c-.603-1.023-1.421-1.923-2.045-2.925a6.594 6.594 0 0 1-.93-2.29 4.09 4.09 0 0 1-.174-1.156c0-.388.184-1.165-.062-1.492-.378-.512-.521.081-.47.44.123.776.112 1.564.276 2.33a7.852 7.852 0 0 0 1.155 2.598l.195.286Z" fill="#AB8DA8"/><path d="M33.129 34.4c-.634.736-.511 2.045-.491 2.904.1.749.145 1.504.133 2.26a2.22 2.22 0 0 1-.828 1.697 1.72 1.72 0 0 1-.634.153 1.397 1.397 0 0 1-.583 0 1.534 1.534 0 0 1-.675-.552c-.716-.9-.573-1.697-.624-2.771a3.294 3.294 0 0 0-1.094-2.413c-1.871-1.963-.89-3.64-.327-5.839.726-2.842 1.023-6.493-.225-9.202.264 1.764.41 3.543.44 5.327a23.915 23.915 0 0 1-1.156 5.675 4.211 4.211 0 0 0 0 3.231c.227.378.506.722.828 1.023 1.023 1.022 1.023 1.983 1.136 3.384.112 1.401 1.605 3.395 3.251 2.219a2.648 2.648 0 0 0 .87-2.27c0-.736-.154-1.462-.195-2.198a6.311 6.311 0 0 1 .082-1.861.943.943 0 0 1 .163-.338c.157-.17.366-.281.593-.317a.757.757 0 0 1 .368-.061c.163.018.314.09.43.204.284.335.515.71.685 1.115 0 .092.072.286.174.327.102.041.266-.051.235-.184-.256-1.022-1.36-2.883-2.556-1.513Z" fill="#AB8DA8"/><path d="m37.103 34.892-2.306 1.126a1.104 1.104 0 0 0-.508 1.477l2.814 5.761c.267.548.929.775 1.477.508l2.306-1.127c.548-.267.775-.928.508-1.477L38.58 35.4a1.104 1.104 0 0 0-1.477-.508Z" fill="#E8CEE5"/><path d="M41.657 15.678a1.022 1.022 0 0 1 .91.256c2.045 1.932 11.83 11.605 12.7 15.818.91 4.407-12.444 7.792-14.162 8.18a.532.532 0 0 0-.297.184c-.511.593-2.658 2.894-4.304 1.462-1.647-1.431-3.068-4.765 1.87-5.348 3.017-.357 10.032-4.693 10.032-4.693l-8.426-6.452s-2.74-8.436 1.677-9.407Z" fill="#FFEDE5"/></svg>