<svg width="75" height="91" fill="none" xmlns="http://www.w3.org/2000/svg"><path d="M30.164 5.184S30.925 0 36.76 0s8.665 6.63 9.982 10.521c1.317 3.89 4.713 7.555 9.138 9.72 4.425 2.166 7.769 4.496 7.203 9.403 0 0 9.467 7.39-8.572 8.756-18.039 1.365-26.899-9.957-25.808-15.787 1.09-5.83-5.948-13.734 1.461-17.43Z" fill="#3B2645"/><path d="M41.082 17.625s-.823 7.965 2.675 8.663c0 0 1.451 14.299-6.709 14.299s-7.327-13.868-7.327-13.868 3.478-.913 3.2-8.601c-.277-7.688 8.274-5.84 8.16-.493Z" fill="#FFEDE5"/><path d="M38.653 18.332c.69-2.617-2.86-3.15-5.248-3.223-.34.77-.535 1.766-.494 3.008.052 1.088 0 2.186-.134 3.274 1.359.103 5.043.093 5.876-3.059Zm-6.726-2.443c.736-.253.95-1.57.477-2.942-.473-1.373-1.454-2.28-2.19-2.028-.736.252-.95 1.57-.477 2.942s1.454 2.28 2.19 2.028Zm12.257-2.039c.473-1.373.26-2.69-.477-2.943-.736-.252-1.717.655-2.19 2.028-.472 1.372-.259 2.69.477 2.942.737.253 1.717-.655 2.19-2.028Z" fill="#E0855C"/><path d="M30.606 6.468s-.566 13.745 5.958 13.775c5.073.021 6.524-6.148 6.607-13.097.082-6.95-12.483-6.015-12.565-.678Z" fill="#FFEDE5"/><path d="M37.079 16.216c-1.091 0-2.048-.657-2.058-.667-.052-.03-.062-.092-.021-.144.03-.051.093-.061.144-.02.02.01 1.873 1.272 3.242.195.04-.031.113-.031.144.02.03.052.03.113-.021.144a2.317 2.317 0 0 1-1.43.472Zm-4.239-5.685s.854.544 2.295.103c0-.01-1.225 1.242-2.295-.103Zm8.19.113s-.855.544-2.296.102c0 0 1.225 1.252 2.295-.102Zm-8.684-1.786s1.08-1.19 2.655-.821c.802.184.494-.8-.957-.74-1.451.062-1.698 1.56-1.698 1.56Zm9.26 0s-1.08-1.19-2.655-.821c-.803.184-.494-.8.957-.74 1.45.062 1.698 1.56 1.698 1.56Zm-4.776 5.06c-.308 0-.967-.226-1.193-.451-.082-.083-.113-.165-.103-.247.02-.123.113-.513.247-1.006.175-.708.401-1.58.474-2.012.072-.41 0-.841-.196-1.21-.03-.052-.01-.114.041-.145.052-.03.113-.01.144.042.216.41.299.882.216 1.344-.072.442-.298 1.324-.473 2.033-.124.472-.227.882-.237.985 0 .01.01.03.041.072.217.215.896.42 1.091.39.257-.041.793-.287.978-.503a.11.11 0 0 1 .144-.01.11.11 0 0 1 .01.143c-.226.247-.803.524-1.101.565-.041.01-.062.01-.082.01Z" fill="#472938"/><path d="M30.697 9.987s.412-3.275 1.43-4.476c0 0 1.709-.76 4.426.852 2.716 1.612 4.62 2.967 7.141 2.566 0 0 .237-7.811-6.277-7.39-6.514.42-7.852 3.818-6.72 8.448Z" fill="#3B2645"/><path d="M73.744 58.25c-.103-.164-.412.114-.412.114s-.319-.36-1.183-.103c-.865.257-3.427 2.453-3.427 2.453-1.153-.02-3.036 1.109-3.036 1.109s-1.42-.585-2.706-2.515c-1.286-1.93-2.686-2.874-2.686-2.874s-3.015-12.092-5.053-19.636c-2.068.872-4.754 4.31-6.668 7.082.041 1.304.083 2.135.083 2.135s6.709 17.758 7.573 18.292c.865.534 10.733 1.724 10.836 1.652.103-.072 1.009.165 1.379 0 .37-.164.823.103 1.276-.205.453-.308 1.235.164 1.554-.133.319-.298.875-.175 1.245-.35.37-.174 2.439-3.089 2.48-3.613.041-.523-1.152-3.243-1.255-3.407Z" fill="#FFEDE5"/><path d="M50.303 40.339s3.51 5.974.73 11.855l-2.386-6.2 1.656-5.655Z" fill="#E0855C"/><path d="M55.232 36.779c-.731-2.71-1.338-4.835-1.637-5.604-1.131-2.957-3.22-3.09-3.22-3.09-2.059.03-1.956 11.034-1.812 15.776 1.914-2.77 4.6-6.2 6.669-7.082Z" fill="#AB8DA8"/><path d="M58.01 57.06c-.042 0-.083-.03-.104-.072-.01-.051.02-.113.072-.123l2.017-.534c.052-.01.113.02.124.072.01.051-.02.113-.072.123l-2.017.534h-.02Zm9.981 6.992a.103.103 0 0 1-.103-.103c-.051-1.252-1.533-1.303-1.595-1.303a.103.103 0 0 1-.103-.103c0-.062.052-.103.103-.103.02 0 1.73.062 1.79 1.499.021.062-.03.113-.092.113.01 0 .01 0 0 0Z" fill="#472938"/><path d="M67.54 64.984c-.01 0-.03 0-.041-.01-.052-.021-.072-.083-.052-.134.124-.267 1.235-2.669 1.698-2.977.381-.256.844-.174 1.03-.01.123.103.082.205.071.236-.051.113-.648 1.591-.946 2.35-.021.052-.083.083-.134.062-.052-.02-.082-.082-.062-.133.031-.093.834-2.084.947-2.34a.334.334 0 0 0-.175-.083.787.787 0 0 0-.618.103c-.35.236-1.296 2.166-1.636 2.895-.01.02-.04.04-.082.04Z" fill="#472938"/><path d="M70.79 64.215c-.061 0-.103-.04-.103-.102 0-.02 0-.02.289-1.037.236-.831.617-2.186.658-2.402-.062-.062-.35-.185-.545-.123-.155.051-.628.75-.978 1.365-.03.051-.092.062-.144.041-.051-.03-.062-.092-.041-.144.185-.318.803-1.365 1.09-1.467.248-.082.567.03.71.133.073.051.114.113.114.164 0 .062-.144.585-.669 2.474-.134.483-.268.944-.278.996a.103.103 0 0 1-.103.102Z" fill="#472938"/><path d="M72.242 64.001h-.02c-.052-.01-.093-.072-.083-.123.36-1.601.885-4.044.895-4.311-.041-.062-.226-.164-.545-.164-.175 0-.618.585-.916 1.129-.031.051-.093.072-.144.04-.052-.03-.072-.092-.041-.143.164-.287.72-1.232 1.1-1.232.36 0 .66.123.742.298.02.041.072.154-.896 4.424 0 .051-.04.082-.092.082Z" fill="#472938"/><path d="M73.014 59.503c-.041 0-.082-.03-.103-.072-.165-.523.32-1.108.34-1.129.04-.041.103-.051.144-.01.04.04.051.102.01.143 0 .01-.432.524-.298.945.02.051-.01.113-.072.133 0-.01-.01-.01-.021-.01Zm-.545 3.5a.079.079 0 0 1-.052-.02c-.051-.031-.061-.093-.03-.144l.843-1.273-.247-1.54c-.01-.05.031-.112.083-.112.051-.01.113.03.113.082l.267 1.622-.885 1.344c-.03.02-.061.041-.092.041Z" fill="#472938"/><path d="M1.104 59.967c.092-.164.411.092.411.092s.309-.37 1.184-.144c.874.226 3.519 2.31 3.519 2.31 1.142-.062 3.087.985 3.087.985s1.4-.646 2.614-2.627c1.214-1.981 2.572-2.987 2.572-2.987s2.522-12.195 4.26-19.831c2.1.79 4.92 4.116 6.947 6.805.01 1.304.01 2.135.01 2.135s-5.989 18.004-6.833 18.579c-.844.575-10.66 2.145-10.753 2.084-.093-.062-.998.205-1.38.05-.38-.153-.812.144-1.286-.153-.473-.298-1.224.205-1.564-.072-.34-.277-.874-.144-1.265-.298-.391-.154-2.563-2.987-2.624-3.51-.062-.524 1.008-3.254 1.1-3.418Z" fill="#FFEDE5"/><path d="M23.814 41.142s-3.262 6.117-.257 11.876l2.13-6.293-1.873-5.583Z" fill="#E0855C"/><path d="M18.74 37.774c.618-2.73 1.143-4.876 1.41-5.666 1.009-2.997 3.097-3.223 3.097-3.223 2.058-.051 2.388 10.952 2.44 15.694-2.028-2.679-4.848-6.004-6.947-6.805Z" fill="#AB8DA8"/><path d="M16.776 58.148h-.02l-2.038-.452a.112.112 0 0 1-.083-.123c.01-.051.072-.092.124-.082l2.037.452c.052.01.093.071.083.123-.01.051-.062.082-.103.082ZM7.07 65.53a.103.103 0 0 1-.102-.103c.01-1.447 1.708-1.57 1.729-1.57a.12.12 0 0 1 .113.092.112.112 0 0 1-.093.113c-.062 0-1.533.113-1.533 1.365-.01.061-.052.103-.113.103Z" fill="#472938"/><path d="M7.576 66.443a.108.108 0 0 1-.092-.051c-.36-.708-1.39-2.607-1.75-2.833a.824.824 0 0 0-.627-.082.425.425 0 0 0-.165.092c.123.257.998 2.217 1.04 2.31.02.051 0 .112-.052.133-.052.02-.113 0-.134-.051-.34-.75-.988-2.207-1.04-2.32-.04-.072-.01-.164.062-.236.175-.164.638-.267 1.03-.03.483.286 1.687 2.647 1.82 2.914.021.052.011.113-.04.134-.02.02-.041.02-.052.02Z" fill="#472938"/><path d="M4.283 65.797a.1.1 0 0 1-.103-.082c-.01-.051-.144-.462-.298-.944-.618-1.9-.782-2.433-.782-2.494 0-.062.03-.113.103-.165.144-.113.452-.236.71-.164.298.082.957 1.109 1.152 1.417a.11.11 0 0 1-.03.143.11.11 0 0 1-.145-.03c-.38-.606-.885-1.284-1.029-1.325-.206-.061-.484.083-.545.144.051.185.494 1.58.771 2.423.31.954.31.954.31.975 0 .051-.052.102-.114.102.01 0 .01 0 0 0Z" fill="#472938"/><path d="M2.832 65.652c-.041 0-.083-.03-.103-.072-1.132-4.24-1.08-4.352-1.07-4.393.072-.185.36-.318.73-.329h.01c.381 0 .968.914 1.143 1.191a.11.11 0 0 1-.031.144.11.11 0 0 1-.144-.031c-.32-.523-.782-1.098-.957-1.098-.309.01-.494.123-.535.184.02.267.648 2.69 1.07 4.27.01.052-.02.113-.072.124-.03 0-.041.01-.041.01Z" fill="#472938"/><path d="M1.886 61.197h-.031c-.052-.01-.093-.072-.072-.123.113-.431-.33-.924-.34-.934-.041-.041-.03-.103.01-.144.042-.041.103-.03.145.01.02.02.524.585.38 1.119a.099.099 0 0 1-.092.072Zm.681 3.461a.094.094 0 0 1-.083-.041l-.936-1.304.195-1.632a.12.12 0 0 1 .114-.092.12.12 0 0 1 .092.113l-.185 1.55.895 1.242a.11.11 0 0 1-.02.143c-.031.021-.052.02-.072.02Z" fill="#472938"/><path d="m43.745 26.288 6.627 1.796s-.802 10.686.566 12.893c1.369 2.207.607 7.226-1.05 9.72 0 0-2.654 8.52-1.934 10.521.72 2.002 3.139 6.426 3.139 6.426s-10.795 5.46-26.416.605c0 0 3.098-6.507 2.614-9.002-.484-2.494-3.828-9.443-3.787-12.728.041-3.284 1.09-12.05-.443-17.593l6.628-2.207s.113 13.016 7.656 13.016c7.543 0 6.4-13.447 6.4-13.447Z" fill="#AB8DA8"/><path d="M49.902 50.697s-.823 1.643-6.05 2.33c0 0 5.032.38 4.527 3.398l1.523-5.728Zm-25.676-.463s1.234 2.31 6.822 2.833c0 0-6.123-.923-4.98 2.423l-1.842-5.256Z" fill="#3B2645"/><path d="M23.536 47.094c-.051 0-.103-.041-.103-.092-.01-.175-.02-.329-.01-.483.01-.739.072-1.745.134-2.915.093-1.601.206-3.593.237-5.635 0-.062.04-.103.103-.103.061 0 .103.051.103.103-.031 2.042-.145 4.044-.237 5.645a66.97 66.97 0 0 0-.134 2.915c0 .144 0 .298.01.462 0 .041-.04.093-.103.103Zm27.404-6.015a.123.123 0 0 1-.092-.051c-.453-.73-.72-2.402-.792-4.968 0-.062.04-.103.103-.103.051 0 .102.041.102.103.072 2.535.33 4.177.762 4.865a.11.11 0 0 1-.03.144c-.011 0-.032.01-.052.01Z" fill="#472938"/><path d="M25.04 67.488s5.813 2.207 12.615 1.97c6.802-.235 20.417-5.142 26.776-4.136 6.36 1.006 5.948 3.706 5.732 4.948-.216 1.242-13.419 19.872-25.016 19.872H27.375S5.54 76.418 4.83 72.456c-.71-3.962-.196-6.333 5.896-6.446 6.092-.113 12.678.944 14.314 1.478Z" fill="#3B2645"/><path d="M37.429 73.534s8.685-3.603 15.94-4.845c0 0 4.671 7.227 3.303 13.334-.01 0-16.62-3.634-19.243-8.489Z" fill="#FFEDE5"/><path d="M37.429 73.535s21.013 2.74 19.232 8.489c-1.78 5.748-19.232-8.489-19.232-8.489Z" fill="#E0855C"/><path d="M46.874 83.932s-21.537 1.848-26.26 2.813c-4.724.965-9.509.533-12.431 1.55-2.923 1.016-4.538 1.796-4.888 1.837-.35.04-1.153-4.486.319-6.087 0 0-.453-1.632 1.605-2.895 2.058-1.262 5.474.4 6.74 0s2.171-.77 3.52-.482c1.348.287 4.64 1.098 4.64 1.098s16.96-10.747 26.755 2.166Z" fill="#FFEDE5"/><path d="m20.13 81.767 12.79 3.47 13.955-1.304s-6.36-6.528-15.137-5.923c-8.778.606-11.608 3.757-11.608 3.757Z" fill="#E0855C"/><path d="M24.586 68.865s6.606 1.335 16.156 6.323c9.55 4.989 17.452 2.946 20.24 3.911 2.79.965 8.079.215 8.943.965.865.75 1.43 2.063.916 2.628 0 0 2.305 5.276 2.089 5.625-.216.349-1.019.318-1.4.236-.38-.083-3.735-1.745-7.594-2.433-3.859-.688-14.499-2.166-22.978-2.597-8.48-.431-20.828-1.283-20.828-1.283s.288-10.377 4.456-13.375Z" fill="#FFEDE5"/><path d="M70.142 82.906c-.329 0-.771-.061-1.337-.256-.052-.02-.083-.082-.062-.134.02-.051.082-.082.133-.061 1.276.451 1.894.143 1.904.143.052-.03.113-.01.134.041.03.052.01.113-.041.134-.01 0-.247.133-.73.133ZM4.653 84.364c-.72 0-1.07-.225-1.091-.236-.052-.03-.062-.092-.031-.143.03-.052.093-.062.144-.031 0 0 .37.226 1.09.195.752-.02 1.565-.39 1.575-.39.052-.02.114 0 .134.051.02.052 0 .113-.051.134-.031.02-.865.38-1.647.41-.041.01-.082.01-.123.01Z" fill="#472938"/></svg>