<svg width="79" height="96" fill="none" xmlns="http://www.w3.org/2000/svg"><path d="m30.174 26.248-5.063 1.619s-1.54 5.945-1.06 7.005c.48 1.06 3.189 1.864 4.474 1.226 1.286-.638 5.642-4.807 5.642-4.807l-3.993-5.043Z" fill="#FFEDE5"/><path d="M34.814 20.51s-3.238 3.668-4.641 5.738l3.61 5.642 3.778-3.395s-.627-9.389-2.747-7.986Z" fill="#AB8DA8"/><path d="M29.594 26.434v5.652l1.629-4.2-1.05-1.638-.58.186Z" fill="#E0855C"/><path d="M29.35 23.159c.441.108.579-.197.942.382.363.58 1.128 2.845.922 3.189-.206.343-2.492 2.55-2.659 2.55-.167 0-.589-.617-.5-.833 0 0-.54.323-.893.265 0 0-.785.412-1.1.333-.313-.078-2.148-2.786-1.716-3.502.431-.716.706-.344.961-.628.255-.285.687-.756 1.207-.707.52.05.756-.755 1.511-.637.756.117.344-.658 1.325-.412Z" fill="#FFEDE5"/><path d="M28.044 28.545a.103.103 0 0 1-.088-.05.086.086 0 0 1 .04-.127c.01 0 .892-.47 1.128-.814l.02-.02c.01 0 .51-.451.677-.794l-.854-1.933c-.02-.05 0-.108.049-.128.049-.02.108 0 .128.05l.883 2.01-.02.04c-.147.373-.658.834-.736.902-.275.383-1.158.844-1.197.864 0-.01-.01 0-.03 0Zm-.892.263c-.04 0-.069-.02-.088-.06l-1.09-2.216c-.02-.05 0-.108.05-.128.048-.02.107 0 .127.05l1.09 2.216c.019.05 0 .108-.05.128-.01.01-.02.01-.04.01Z" fill="#472938"/><path d="M28.624 28.2c-.04 0-.069-.02-.088-.06l-1.02-2.197c-.02-.05 0-.108.048-.128.05-.02.108 0 .128.05l1.02 2.197c.02.049 0 .108-.049.127-.01.01-.03.01-.039.01Z" fill="#472938"/><path d="M28.544 29.378c-.157 0-.334-.245-.402-.343a1.307 1.307 0 0 1-.197-.422c-.186.088-.51.226-.775.206-.157.079-.824.402-1.138.324-.177-.04-.5-.471-.677-.726-.03-.05-.02-.108.02-.138.039-.029.108-.02.137.02.304.442.51.628.56.648.205.049.735-.177 1.03-.324l.029-.01h.03c.323.05.824-.255.833-.255l.256-.147-.108.275c-.01.029-.01.127.088.313.118.216.255.354.314.383.245-.137 1.845-1.648 2.414-2.256-.53.127-1.04-.098-1.06-.108-.049-.02-.069-.079-.049-.128.02-.049.078-.069.128-.049.01 0 .647.285 1.187 0 .069-.04.118-.02.137.01.03.02.05.069.03.118-.07.176-2.552 2.61-2.787 2.61Z" fill="#472938"/><path d="m45.912 14.612 4.916 3.09v6.407s-5.112 10.635-4.916 14.471l-11.706 2.188s-2.806-11.263.608-20.27l5.22-3.669 5.878-2.217Z" fill="#AB8DA8"/><path d="m50.827 24.119-3.837-.579 2.15 4.346 1.687-3.767Z" fill="#32203B"/><path d="m44.636 10.678 1.275 3.934a9.742 9.742 0 0 0-3.59 2.423c-1.679 1.786-2.326 3.473-3.337 3.473-1.01 0 1.06-3.67 1.06-3.67l-.265-3.433 4.857-2.727Z" fill="#FFEDE5"/><path d="M39.905 15.15s2.247-.333 3.395-3.561l-3.532 1.815.137 1.746Z" fill="#E0855C"/><path d="M38.239 2.643s-2.169 10.576-1.04 11.302c1.128.726 5.583.098 7.24-2.845 1.66-2.944-.421-8.457-6.2-8.457Z" fill="#FFEDE5"/><path d="M37.542 6.4S35.5 9.04 35.707 9.295c.206.255 1.325.618 1.325.618l.51-3.513Z" fill="#FFEDE5"/><path d="M43.665 9.5s-1.02-.51-.363-2.736c0 0-1.325-2.345-2.188-2.728-.864-.382-3.062-.5-3.062-.5s-.441-3.09.295-3.414c.736-.324 7.545-.138 8.83 2.266.432.814.158 1.305.158 1.305s.726.961.598 1.785c-.127.824-2.13 3.876-2.13 3.876l-2.138.147Z" fill="#3B2645"/><path d="M45.701 10.305c.682-.682.875-1.595.43-2.04-.444-.444-1.358-.251-2.04.43-.682.683-.874 1.596-.43 2.04.445.445 1.358.252 2.04-.43Z" fill="#FFEDE5"/><path d="M38.062 11.61c-.462 0-.874-.127-.903-.137a.098.098 0 0 1-.06-.128.098.098 0 0 1 .129-.059c.01 0 1.344.432 1.805-.274.03-.05.088-.06.137-.03.05.03.06.089.03.138-.265.382-.717.49-1.139.49Zm6.124-1.659c-.03 0-.069-.02-.079-.049-.03-.049-.02-.108.03-.137l.795-.5c.049-.03.107-.02.137.029.03.05.02.108-.03.137l-.794.5c-.02.01-.04.02-.06.02Z" fill="#472938"/><path d="M38.895 6.41a.377.377 0 0 1 .284.451l-.059.265a.377.377 0 0 1-.735-.167l.058-.265a.373.373 0 0 1 .452-.284Zm-.411-1.03s1.295-.088 1.628.971c0 0-.039-1.108-.853-1.275-.815-.167-1.08.255-.775.304Z" fill="#3B2645"/><path d="M47.658 15.711c-4.405-.745-1.481 8.546-1.481 8.546l6.593 1.991 2.444-7.505c-3.837-1.687-7.556-3.031-7.556-3.031Z" fill="#AB8DA8"/><path d="M53.801 37.666s-2.325.815-2.551 1.178c-.226.363-.01 1.648-.01 1.648a5.326 5.326 0 0 0-.579 1.246c-.196.657.294.46.873 1.128.58.667 1.05.5 1.384.804.334.305 1.01.206 1.276.334.264.128.765.56 1.07.54.303-.02 1.02-1.06 1.608-2.365.589-1.305.481-2.364.746-3.934.265-1.57 6.456-11.665 5.73-14.402-.363-1.364-4.307-3.404-8.144-5.102l-2.443 7.506 3.493 1.06-2.453 10.36Z" fill="#FFEDE5"/><path d="M57.304 27.68h-.03l-1.05-.285c-.049-.01-.088-.068-.068-.117.01-.05.068-.079.117-.07l1.05.285c.05.01.088.07.069.118 0 .04-.04.069-.088.069Z" fill="#472938"/><path d="m65.281 62.832 3.817-1.913s-.088-.745.677-1.589.196-2.796-.52-3.11c-.716-.314-1.07-.098-1.688-1.109l-5.524 2.394 3.238 5.327Z" fill="#FFEDE5"/><path d="M69.245 56.22c.717.314 1.276 2.267.52 3.11-.755.844-.677 1.59-.677 1.59 3.268.441 6.339 5.229 6.918 5.769.579.54 2.924.157 2.993-.246.068-.402-5.024-13.833-5.495-14.127-.471-.295-5.946 2.796-5.946 2.796.618 1.01.971.794 1.687 1.108Z" fill="#AB8DA8"/><path d="M78.998 66.444c.059-.403-5.024-13.834-5.495-14.128-.117-.078-.55.059-1.118.304 1.354 2.688 4.808 11.95 5.661 14.245.51-.098.923-.255.952-.421Z" fill="#E5E5E5"/><path d="M35.855 48.646s8.752 22.958 12.441 23.262c3.69.304 18.663-9.752 18.663-9.752l-2.787-5.582-12.647 4.17-3.15-14.413-12.52 2.315Z" fill="#3B2645"/><path opacity=".5" d="m48.375 46.34-12.52 2.306s2.247 5.887 4.935 11.734l8.625-9.232-1.04-4.807Z" fill="#3B2645"/><path d="m12.856 81.757-1.688 3.914s.55.52.51 1.649c-.039 1.128 1.649 2.266 2.404 2.04.756-.225.883-.618 2.012-.235l2.688-5.396-5.926-1.972Z" fill="#FFEDE5"/><path d="M12.266 83.12s2.315 2.424 5.347 2.934l1.158-2.325-5.917-1.982-.588 1.374Z" fill="#E0855C"/><path d="M45.912 38.59s5.122 5.935 2.453 10.645c-2.67 4.709-18.575 13.362-19.654 16.02-1.08 2.66-1.688 5.73-3.895 9.42-2.208 3.688-5.73 10.193-5.73 10.193s-5.329-.206-7.065-2.512c0 0 8.595-21.75 10.646-24.566 2.05-2.816 11.725-14.746 11.725-14.746l-.196-2.266 11.716-2.188Z" fill="#3B2645"/><path d="M16.662 84.093h-.02c-.02-.01-.04-.04-.02-.069.099-.206 9.567-20.377 11.461-22.731.697-.873 2.747-2.924 5.112-5.298 4.053-4.062 9.086-9.114 9.763-10.664 1.06-2.414.354-5.809.344-5.848-.01-.03.01-.049.039-.059.03-.01.05.01.059.04.01.03.716 3.463-.353 5.906-.687 1.56-5.73 6.622-9.783 10.694-2.365 2.374-4.406 4.414-5.103 5.288-1.883 2.344-11.352 22.506-11.44 22.712-.02.02-.04.03-.06.03Z" fill="#fff"/><path d="M15.317 83.789h-.02c-.02-.01-.039-.04-.02-.069.099-.206 9.92-20.985 11.059-22.731.579-.893 4.033-4.543 7.369-8.065 3.297-3.483 6.712-7.093 7.369-8.055 1.315-1.923 1.04-5.042 1.04-5.072 0-.03.02-.049.05-.049.029 0 .048.02.048.05 0 .029.285 3.188-1.06 5.14-.667.971-4.081 4.582-7.378 8.074-3.337 3.522-6.78 7.172-7.36 8.055-1.128 1.746-10.96 22.516-11.058 22.722 0-.01-.02 0-.04 0Z" fill="#fff"/><path d="M14.072 89.37c-.746.216-2.444-.912-2.404-2.04.039-1.128-.51-1.648-.51-1.648-2.787 1.766-8.214.078-9.008.039-.795-.04-2.345 1.766-2.13 2.11.216.343 12.746 7.347 13.306 7.279.559-.069 2.747-5.965 2.747-5.965-1.118-.393-1.246.01-2.002.226Z" fill="#AB8DA8"/><path d="M.03 87.83c.207.343 12.747 7.348 13.306 7.28.137-.02.383-.393.657-.953-2.767-1.187-11.382-6.053-13.501-7.26-.334.393-.55.785-.461.932Z" fill="#E5E5E5"/><path opacity=".5" d="M34.393 43.044s5.819-.725 5.76-.706c-.06.02-5.838-.255-5.838-.255l.078.962Z" fill="#3B2645"/></svg>