<svg width="62" height="97" fill="none" xmlns="http://www.w3.org/2000/svg"><path d="M25.863 97c9.796 0 17.738-.2 17.738-.445 0-.246-7.942-.446-17.738-.446-9.797 0-17.739.2-17.739.446 0 .245 7.942.445 17.739.445Z" fill="#3B2645"/><path d="M25.907 96.555c11.745 0 21.266-9.505 21.266-21.23s-9.521-21.23-21.266-21.23c-11.745 0-21.266 9.505-21.266 21.23s9.52 21.23 21.266 21.23Z" fill="#FA9E97"/><path d="M22.19 90.158c-1.674 0-3.347-.19-5.003-.59-5.861-1.39-10.81-5.096-13.93-10.447C.137 73.779-.777 67.438.67 61.27c1.447-6.17 5.093-11.42 10.267-14.8 5.174-3.379 11.252-4.469 17.114-3.079 5.862 1.39 10.81 5.096 13.93 10.447 3.121 5.342 4.035 11.683 2.587 17.85-1.447 6.17-5.101 11.42-10.266 14.8-3.71 2.416-7.88 3.67-12.113 3.67Zm.886-47.166c-10.249 0-19.674 7.422-22.243 18.324C-.606 67.438.308 73.725 3.402 79.03c3.093 5.305 8.005 8.984 13.821 10.365 1.647.39 3.311.582 4.966.582 4.198 0 8.331-1.236 12.013-3.643 5.129-3.352 8.747-8.567 10.195-14.69 1.438-6.122.524-12.409-2.57-17.714-3.093-5.305-8.005-8.984-13.821-10.365a21.345 21.345 0 0 0-4.93-.572Z" fill="#fff"/><path d="M15.061 79.202c-1.981 0-3.79-.5-5.337-1.517-3.211-2.107-4.894-6.15-4.722-11.392.172-5.232 2.153-11.028 5.59-16.324 3.438-5.296 7.915-9.466 12.62-11.737 4.703-2.271 9.072-2.362 12.283-.264 3.211 2.108 4.894 6.15 4.722 11.392-.172 5.233-2.153 11.029-5.59 16.325-3.438 5.296-7.915 9.466-12.619 11.737-2.442 1.19-4.794 1.78-6.947 1.78Zm-4.405-29.197.054.037c-3.428 5.278-5.4 11.055-5.572 16.251-.163 5.197 1.492 9.194 4.658 11.274 6.559 4.297 17.648-1.072 24.713-11.955 7.065-10.883 7.472-23.238.914-27.525-6.558-4.297-17.648 1.072-24.713 11.955l-.054-.037Z" fill="#fff"/><path d="M13.17 71.054c-1.302 0-2.37-.39-2.993-1.208-.832-1.072-.805-2.707.081-4.597.878-1.88 2.479-3.788 4.532-5.387l.036.046-.036-.046c4.242-3.306 9.082-4.197 10.782-1.99 1.701 2.208-.37 6.687-4.613 9.993-2.677 2.063-5.581 3.19-7.788 3.19Zm1.692-11.1c-2.035 1.58-3.627 3.478-4.495 5.34-.86 1.845-.896 3.434-.09 4.47 1.655 2.153 6.413 1.245 10.61-2.017 4.197-3.26 6.25-7.667 4.586-9.81-1.665-2.145-6.422-1.245-10.61 2.016Z" fill="#fff"/><path opacity=".3" d="M43.926 64.052a20.035 20.035 0 0 1 1.149 6.768c0 11.219-9.055 20.303-20.217 20.303-10.421 0-18.996-7.912-20.1-18.078a21.266 21.266 0 0 0-.117 2.28c0 11.72 9.525 21.23 21.266 21.23 11.741 0 21.266-9.502 21.266-21.22a21.07 21.07 0 0 0-3.247-11.283Z" fill="#543753"/><path d="M39.449 16.758s-1.565 1.008-3.049 3.452c-1.483 2.444-3.066 4.742-3.066 4.742s-.58-4.951-.308-5.605c.271-.654 1.248-2.099 1.474-2.59.227-.49 1.303-1.19 1.312-1.47.01-.282-.108-1.164-.154-1.19-.045-.028-.588.172-.669.463-.063.208-.109.39-.109.39s-.732.409-.859.418c-.127.01-.724-.309-.733-.363-.009-.055.498-1.236.652-1.3.154-.063 1.004.6 1.167.6.162 0 .506-.218.524-.345.018-.127-1.058-1.236-1.149-1.245-.09-.009-1.013-.172-1.14-.081-.126.09-.813.69-.813.69v-2.48c0-.418-.09-1.708-.28-1.799a1.216 1.216 0 0 0-.598-.063c-.09.027-.145.6-.145.6s-.479-.073-.606.027c-.126.1-.389 4.006-.389 4.042 0 .036-.678-.79-.76-.945-.08-.154-.361-1.099-.488-1.135-.127-.037-.488-.064-.534.027-.045.09.245 1.454.263 1.608.018.154.877 1.99.922 2.271.046.282.226 2.644.28 3.125.055.482-.551 6.141-.687 8.503-.135 2.362-.018 4.479.127 4.697.145.218 1.33.99 1.963.672.633-.318 2.379-1.69 4.043-3.289 1.665-1.598 3.628-3.697 3.628-3.697l.18-8.73Z" fill="#FFEDE5"/><path d="M33.325 24.943s.163 1.272.226 2.417c0 0 .353-1.081.181-3.016l-.407.6Z" fill="#DE835C"/><path d="M30.412 14.832c-.01 0-.018 0-.027-.009a.044.044 0 0 1 0-.063c.271-.31 1.818-1.29 1.881-1.336a.048.048 0 0 1 .064.019.048.048 0 0 1-.019.063c-.018.01-1.6 1.018-1.863 1.317-.01.01-.027.01-.036.01Zm1.185-1.745s-.009 0 0 0c-.027 0-.045-.018-.045-.045s.109-2.444.082-2.88c-.027-.409-.154-.527-.154-.527a.056.056 0 0 1-.01-.063.055.055 0 0 1 .064-.01c.018.01.154.146.181.591.027.445-.081 2.798-.081 2.898 0 .018-.018.036-.037.036Zm.28 3.789c-.009 0-.009-.01 0 0-.036-.01-.045-.027-.045-.055.19-1.071 1.375-1.825 1.42-1.853a.048.048 0 0 1 .063.018c.01.019.01.046-.018.064-.009.01-1.203.763-1.384 1.799 0 .009-.018.027-.036.027Z" fill="#472938"/><path d="M40.453 95.783c.036.19.46.817 2.605 1.008 2.143.19 4.767-.59 6.06-.736 1.086-.118 2.47-.527 2.886-.663a.177.177 0 0 0 .126-.173c0-.127-.009-.336-.018-.59-1.755.027-4.233.681-7.21 1.09-2.242.309-3.753-.282-4.413-.636a3.623 3.623 0 0 0-.036.7Z" fill="#3B2645"/><path d="M51.841 90.45c-.787.072-1.113.726-1.492.944-.38.218-1.502.31-1.403-1.117.1-1.426-.995-1.853-.995-1.853-.298.009-1.103 1.608-2.47 3.334-1.365 1.726-4.64 2.634-4.784 2.689-.082.027-.145.327-.19.636.66.345 2.17.944 4.414.636 2.967-.41 5.455-1.063 7.21-1.09-.028-.936-.082-2.535-.172-3.216-.055-.264-.082-.61-.118-.963Z" fill="#AB8DA8"/><path d="M48.946 90.287c-.09 1.426 1.023 1.335 1.403 1.117.38-.218.714-.872 1.492-.945a94.026 94.026 0 0 1-.127-1.898l-3.772-.127c.01 0 1.095.436 1.004 1.853Z" fill="#FFEDE5"/><path d="M44.803 93.811c1.774-.163 4.143-3.215 4.143-3.215a1.77 1.77 0 0 1 0-.31c.09-1.425-.995-1.852-.995-1.852-.298.009-1.103 1.608-2.469 3.334-.525.672-1.348 1.217-2.153 1.635.416.327.94.472 1.474.408ZM34.12 95.238c.154.481 1.14.654 3.32.654 2.18 0 3.22-3.888 4.107-4.679.887-.78 2.723-3.47 2.723-3.933 0-.136-.272-.472-.66-.89-.39.835-1.258 2.516-2.533 3.724-1.059 1.009-1.104 4.397-3.736 5.024-1.23.29-2.38-.037-3.248-.463-.036.19-.018.381.028.563Z" fill="#3B2645"/><path d="M40.914 83.782c-.931 1-.633 2.217-.678 2.707-.045.49-1.719.618-1.981.51-.262-.11-.543-.519-1.067-.51a.952.952 0 0 0-.778.427 100.83 100.83 0 0 1-.489 4.615c-.18 1.354-.959 1.699-1.348 1.971-.27.182-.452.718-.488 1.181.868.427 2.017.754 3.247.464 2.642-.618 2.678-4.016 3.736-5.024 1.276-1.208 2.144-2.88 2.533-3.725-.94-1.017-2.569-2.48-2.687-2.616Z" fill="#AB8DA8"/><path d="M37.178 86.48c.533-.01.805.4 1.067.509.262.109 1.936-.018 1.981-.509.045-.49-.253-1.708.678-2.707-.162-.2-.723-1.245-.723-1.245l-3.718 1.844c.063.436.018 1.418-.072 2.535a.994.994 0 0 1 .787-.427Z" fill="#FFEDE5"/><path d="M36.78 92.585c1.32-.481 1.465-5.596 1.465-5.596-.262-.109-.543-.517-1.067-.508a.952.952 0 0 0-.778.427c-.136 1.735-.38 3.797-.489 4.614-.045.418-.19.818-.416 1.172a2.67 2.67 0 0 0 1.285-.109Zm15.613-56.55s4.776 8.122 4.776 12.237-4.107 17.878-4.18 19.73c-.072 1.854 1.385 5.906.924 9.994-.462 4.088-2.199 10.556-2.199 10.556s-2.333.354-3.772-.128c0 0-.063-12.154-.913-17.124-.85-4.969-1.51-15.497-1.51-15.497s-8.73 9.475-9.01 11.046c-.28 1.572 1.32 2.607 2.08 7.35.76 4.741 1.601 8.339 1.601 8.339s-1.718 2.035-3.718 1.844c0 0-7.444-16.833-7.019-19.032.425-2.198 9.037-18.386 9.353-20.303.317-1.917.543-4.352.941-6.85l12.646-2.162Z" fill="#3B2645"/><path d="M46.476 41.495c3.022-.51 5.419-2.326 6.875-3.725a47.987 47.987 0 0 0-.959-1.726l-12.655 2.153a57.61 57.61 0 0 0-.244 1.68c1.167.89 3.537 2.199 6.983 1.617Z" fill="#3B2645"/><path opacity=".5" d="M45.527 55.803v-3.815s-1.14-2.271-1.248-4.17l.262 5.596-2.478 6.26 3.464-3.87Z" fill="#543753"/><path d="M39.748 33.055c.262 1.3 0 5.142 0 5.142s.633 1.426 4.034 1.99c3.402.563 8.612-4.152 8.612-4.152-.489-1.108-.57-2.38-.534-3.361-7.59-1.172-12.112.381-12.112.381Z" fill="#FFEDE5"/><path d="M52.059 35.017a8.872 8.872 0 0 1-.199-2.344 37.494 37.494 0 0 0-2.605-.318l.208 1.836 2.596.826Z" fill="#DE835C"/><path d="M44.18 23.435c4.795-.436 6.25-4.533 6.685-6.822l-1.284-.364-6.26-.636-1.836.473c-.968 3.352-1.475 7.721 2.695 7.349Zm10.284-5.832-1.917-.527c-1.213 10.483 1.067 10.202 1.067 10.202l.633-1.663.217-8.012Z" fill="#FFEDE5"/><path d="M52.022 31.093c1.62-1.453 1.592-3.816 1.592-3.816s-2.288.282-1.067-10.201l-1.682-.463c-.444 2.289-1.9 6.395-6.685 6.822-4.17.372-3.664-3.997-2.687-7.34l-1.89.49s-2.198 7.204-2.262 9.811c-.045 1.672.95 3.934 1.683 5.342 4.912-2.098 12.998-.645 12.998-.645Z" fill="#AB8DA8"/><path d="M51.86 32.674a10.35 10.35 0 0 1 .171-1.59s-8.087-1.453-13.008.645c.407.79.724 1.317.724 1.317s4.523-1.544 12.112-.372Z" fill="#3B2645"/><path d="M52.548 17.066s.886 4.96-2.37 10.793l-.371 3.96.316 9.04s-1.447.39-2.216.39c-.769 0-1.845.354-1.845.354l-.154-1.462-.814.018s-.235-2.97.778-5.405 1.502-3.907 1.664-6.414c.163-2.507-.398-5.868 1.457-10.983l3.555-.29Z" fill="#fff"/><path d="m54.257 25.616-.542-2.062-.091 3.715.633-1.653ZM43.764 39.633c.095 0 .171-.118.171-.263 0-.146-.076-.264-.171-.264-.095 0-.172.118-.172.264 0 .145.077.263.172.263Z" fill="#DE835C"/><path d="M43.628 12.761s.036 3.743-1.972 8.72c-2.008 4.98-2.171 6.732-1.7 11.565.47 4.833-.688 8.694-.688 8.694s-5.355 1.117-7.48-1.78c0 0 2.622-6.069 3.798-13.318 1.176-7.25 4.017-10.075 4.017-10.075s.542-1.562 1.773-1.399c0 .019.995-2.47 2.252-2.407Z" fill="#fff"/><path d="M36.934 36.934c-.027 0-.045-.018-.045-.046-.362-6.758 1.592-12.9 2.641-16.197l.072-.218c.01-.027.037-.036.055-.027.027.009.036.036.027.054l-.072.218c-1.05 3.298-2.995 9.42-2.633 16.161 0 .037-.018.055-.045.055Zm3.139-17.814h-.01c-.026-.01-.035-.037-.026-.055.75-2.589 1.293-3.879 1.302-3.888.01-.027.036-.036.064-.027.027.009.036.036.027.063-.01.01-.552 1.3-1.294 3.88-.027.009-.045.027-.063.027Zm-3.293 5.587h-.008c-.028-.009-.037-.027-.037-.054.787-3.062 2.804-8.03 2.823-8.085.009-.027.036-.037.063-.027.027.009.036.036.027.063-.018.046-2.035 5.015-2.822 8.067 0 .018-.018.036-.045.036Zm9.136 15.489c-.027 0-.045-.018-.045-.045 0-.028-.018-3.062.57-4.47.01-.027.036-.036.063-.027.028.009.037.036.028.063-.58 1.39-.561 4.406-.561 4.434-.01.027-.027.045-.055.045Zm.941-.517c-.027 0-.045-.019-.045-.046s-.1-2.562.443-4.47c.543-1.889.688-5.114.688-5.141 0-.027.018-.045.045-.045s.045.018.045.045c0 .036-.145 3.261-.688 5.169-.542 1.89-.443 4.415-.443 4.433 0 .027-.018.055-.045.055Zm1.846-4.07c-.01 0-.01 0 0 0-.037-.01-.046-.027-.046-.055.353-1.853.073-5.668.073-5.714 0-.027.018-.045.045-.045s.045.018.045.045c0 .037.28 3.87-.072 5.733-.01.018-.027.036-.045.036Zm.668-7.323c-.036-.009-.045-.027-.045-.054.01-.037.57-3.507 1.113-5.106.009-.027.036-.036.054-.027.027.01.036.036.027.055-.534 1.59-1.103 5.05-1.103 5.087 0 .027-.019.045-.046.045Zm-.668-.381c-.019 0-.037-.018-.046-.036 0-.018-.298-1.554.09-4.324 0-.028.028-.046.055-.037.027 0 .045.027.036.055-.38 2.761-.09 4.278-.09 4.297 0 .018-.018.045-.045.045Z" fill="#472938"/><path d="m49.526 9.872.055 6.377h-6.323l.606-5.686 5.662-.69Z" fill="#FFEDE5"/><path d="M43.862 10.563s.923 6.04 5.69 2.498l-.027-3.189-5.663.69Zm-1.016-.968c.409-.117.551-.876.319-1.697-.233-.82-.752-1.39-1.16-1.273-.41.116-.552.876-.32 1.696.233.82.753 1.391 1.161 1.274Z" fill="#DE835C"/><path d="M49.535 10.472s-.018 1.554-.09 2.59c0 0-.742 2.352-.407 4.541.335 2.19.226 3.807-.299 4.588l.588-.282s3.012.037 2.976-4.37c0 0 1.52-2.47-.76-5.368-2.28-2.898-.995-4.479-.995-4.479s-.94.473-1.013 2.78Z" fill="#3B2645"/><path d="M50.53 7.684s-.924.481-1.005 2.788c0 0-.018 1.554-.09 2.59a27.82 27.82 0 0 0 .922-2.944c-.515-1.59.172-2.434.172-2.434Z" fill="#3B2645"/><path d="M50.909 8.186c.245-.817.115-1.579-.292-1.702-.406-.123-.935.439-1.18 1.255-.246.817-.115 1.579.291 1.702.407.123.935-.439 1.18-1.255Z" fill="#FFEDE5"/><path d="M42.325 3.65s-.163 4.723.461 6.704c.624 1.98 2.18 3.234 3.202 3.234 1.022 0 3.013-.745 3.79-3.925.778-3.18.688-7.167-2.65-8.212C43.79.407 42.325 2.596 42.325 3.65Z" fill="#FFEDE5"/><path d="M50.159 7.065s-.181-1.28-.869-1.98c-.687-.7-2.098-1.172-1.836-2.29 0 0-.905.537-2.533.537s-2.75 1.271-2.587 3.434l-.208-.146s-.778-3.07.172-4.56c.959-1.49 3.22-2.435 5.047-1.917 1.828.518 3.881 1.744 3.7 4.143a15.85 15.85 0 0 1-.326 2.262c0-.01-.524.072-.56.517Z" fill="#3B2645"/><path d="M43.782 7.438a.27.27 0 0 1-.271-.254l-.009-.163a.27.27 0 0 1 .253-.273.27.27 0 0 1 .272.254l.009.164c0 .145-.109.272-.254.272Zm4.043.136a.254.254 0 0 1-.217-.3l.027-.164a.253.253 0 0 1 .299-.218.254.254 0 0 1 .217.3l-.027.163a.269.269 0 0 1-.299.219ZM42.84 6.33s.245-.272.815-.282c.57-.009.75.046.787-.136.036-.181-1.185-.645-1.601.418Zm5.944-.082s-.272-.255-.887-.227c-.615.027-.796.09-.841-.082-.045-.173 1.248-.727 1.728.309Z" fill="#472938"/><path d="m47.173 10.262-2.388-.081s.127 1.644 1.194 1.617c1.068-.028 1.194-1.536 1.194-1.536Z" fill="#fff"/><path d="M45.835 9.545c-.154 0-.299-.036-.416-.09a.363.363 0 0 1-.181-.21c-.054-.208.054-.717.18-1.353l.046-.2c.208-1.026-.353-1.308-.38-1.317-.027-.01-.036-.046-.027-.073.01-.027.045-.036.072-.027.028.009.66.327.435 1.435l-.046.2c-.126.6-.226 1.127-.18 1.308.018.055.054.1.126.146.172.09.443.109.697.027.027-.01.063.009.072.036.01.027-.009.064-.036.073a1.643 1.643 0 0 1-.362.045Z" fill="#472938"/><path d="M54.464 17.604s1.89.09 2.831 2.797c.941 2.698 3.917 10.547 4.035 11.992.117 1.444-.326 2.607-2.38 3.034-1.745.363-6.376-.99-6.756-1.027-.38-.036-1.457-.063-1.819-.69-.361-.627-.56-1.69-.56-1.69s-.95-.363-1.113-.363c-.163 0-1.311.073-1.42-.1-.109-.173-.109-.5-.072-.654 0 0-.2-.363-.136-.581 0 0-.208-.527-.19-.645.018-.119.579-.464.696-.491.118-.027 1.475-.082 1.475-.082s-.407-.5-.48-.517c-.072-.019-1.04.018-1.04.018l-.018.245s-.262-.227-.307-.354c-.046-.128.036-.5.144-.545.109-.046 1.393-.473 1.782-.337.39.137 1.628.9 1.791 1.154.163.255 1.077 2.807 1.366 2.998.29.19 1.773.4 4.143-.109l-3.374-8.567 1.402-5.486Z" fill="#FFEDE5"/></svg>