<svg width="18" height="18" fill="none" xmlns="http://www.w3.org/2000/svg"><g clip-path="url(#a)"><path d="M9 18c-3.895 0-7.064-3.176-7.064-7.08 0-3.037 1.38-5.744 3.406-7.968C7.008 1.124 8.657.117 8.727.075c.365-.221.856.08.856.487v4.85l2.481-2.315a.527.527 0 0 1 .754.036c.943 1.066 1.694 2.192 2.232 3.346C18.048 12.917 13.915 18 9 18Z" fill="#FE4E33"/><path d="M15.05 6.48c-.538-1.155-1.289-2.28-2.232-3.347a.527.527 0 0 0-.754-.036L9.583 5.413V.563c0-.307-.278-.554-.572-.563v18c4.91-.008 9.034-5.088 6.039-11.52Z" fill="#FE1600"/><path d="M9 18a2.69 2.69 0 0 1-2.685-2.69c0-2.398 2.328-3.818 2.427-3.877a.527.527 0 0 1 .56.012c.097.064 2.381 1.597 2.381 3.864A2.69 2.69 0 0 1 9 18Z" fill="#FEC356"/><path d="M11.683 15.309c0-2.268-2.284-3.8-2.381-3.864a.526.526 0 0 0-.29-.087V18a2.69 2.69 0 0 0 2.671-2.69Z" fill="#FEB020"/></g><defs><clipPath id="a"><path fill="#fff" d="M0 0h18v18H0z"/></clipPath></defs></svg>