<svg width="18" height="18" fill="none" xmlns="http://www.w3.org/2000/svg"><g clip-path="url(#a)"><path d="M12.76 4.932c-.748-.74-1.708-1.062-2.857-.962-2.393.211-3.84 3.176-4.42 4.664.047.39.088.783.121 1.175a.29.29 0 0 0 .147-.177c.01-.03.578-1.914 1.673-3.381.338-.452.86-.733 1.424-.73.43.002.906.1 1.313.36 2.438 1.55 3.783 6.02 3.797 6.065a.292.292 0 0 0 .571-.06c.015-.199.343-4.87-1.768-6.954Z" fill="#FFC850"/><path d="M5.448 11.571a.292.292 0 0 1-.292-.282 23.204 23.204 0 0 1 .446-4.955C6.31 2.914 7.792.801 9.886.221c1.702-.47 3.275-.185 4.43.805 1.364 1.168 1.958 3.161 1.673 5.61a.292.292 0 0 1-.57.05c-.945-3.172-4.414-5.316-6.727-4.998a.856.856 0 0 0-.512.257c-2.63 2.823-2.443 9.246-2.44 9.324a.292.292 0 0 1-.282.302h-.01Z" fill="#FFC850"/><path d="M3.79.525c-.376 1.262-1.045 4.329-.388 8.708l1.17 5.553 1.168-2.923C4.32 7.601 4.065 2.38 4.02.553 4.016.418 3.829.396 3.79.524Z" fill="#D4F582"/><path d="M7.188 9.179C5.163 9.592 4.864 14.2 4.864 14.2l1.168 3.507s.816-6.714 1.68-6.867c.848-.151 4.47 2.647 6.063 3.918.108.087.25-.054.165-.163-1.372-1.747-4.806-5.815-6.752-5.417Z" fill="#AFD755"/><path d="M1.942 4.017c-.012 2.159.198 7.802 2.385 13.605a.588.588 0 0 0 .55.378h1.327a.29.29 0 0 0 .269-.403C4.215 12.111 2.7 6.194 2.171 3.99c-.032-.135-.23-.11-.23.027Z" fill="#BEE86E"/><path d="M15.911 6.801c-.101-3.032-1.16-5.567-3.413-6.115-1.825-.444-3.495.414-4.201 1.158a.883.883 0 0 1 .395-.156c2.313-.318 5.782 1.826 6.727 4.999a.29.29 0 0 0 .492.114Z" fill="#FFDC64"/><path d="M10.507 4.54c-1.282-.026-2.155.566-2.883 1.487a1.744 1.744 0 0 1 1.224-.506c.43.002.906.1 1.313.36 2.438 1.55 3.783 6.02 3.796 6.065a.292.292 0 0 0 .312.208.29.29 0 0 0 .224-.154c-.132-6.73-3.073-7.442-3.986-7.46Z" fill="#FFDC64"/></g><defs><clipPath id="a"><path fill="#fff" d="M0 0h18v18H0z"/></clipPath></defs></svg>