<svg width="18" height="18" fill="none" xmlns="http://www.w3.org/2000/svg"><g clip-path="url(#a)"><path d="M.267 11.503c0 .072 0 .143.003.214.128 5.464 9.73 5.464 9.86 0l.002-.214c0-3.432-1.94-6.476-4.932-8.371C2.208 5.027.267 8.07.267 11.503Z" fill="#FFCA5E"/><path d="M5.202 15.815c-2.433 0-4.865-1.366-4.93-4.098a8.56 8.56 0 0 1-.002-.214c0-3.433 1.94-6.476 4.932-8.372-1.496 1.896-2.467 4.94-2.467 8.372 0 .071 0 .143.002.214.032 2.732 1.248 4.098 2.465 4.098Z" fill="#E8A328"/><path d="M5.467 11.523c0 .089.001.178.003.266.16 6.794 12.1 6.794 12.26 0 .002-.088.003-.177.003-.266 0-4.267-2.413-8.052-6.133-10.408-3.72 2.356-6.133 6.14-6.133 10.408Z" fill="#FFCA5E"/><path d="M11.6 16.885c-3.025 0-6.05-1.699-6.13-5.096a10.997 10.997 0 0 1-.003-.266c0-4.267 2.413-8.052 6.133-10.408-2.094 2.356-3.452 6.14-3.452 10.408 0 .09 0 .178.002.266.044 3.397 1.747 5.096 3.45 5.096Z" fill="#E8A328"/><path d="M15.813 10.56a.776.776 0 1 0 0-1.552.776.776 0 0 0 0 1.551Zm-.741 3.007a1.331 1.331 0 1 0 0-2.663 1.331 1.331 0 0 0 0 2.663Z" fill="#FFCE76"/><path d="M16.078 5.124a.267.267 0 1 0-.45.29c1.202 1.86 1.837 3.972 1.837 6.11 0 .086 0 .173-.003.26-.078 3.32-3.093 4.833-5.862 4.833s-5.784-1.513-5.862-4.834a11.06 11.06 0 0 1-.003-.26c0-2.037.549-3.983 1.633-5.783 1.009-1.676 2.47-3.163 4.232-4.307a13.8 13.8 0 0 1 3.379 3.069.267.267 0 1 0 .421-.33A14.375 14.375 0 0 0 11.743.89a.267.267 0 0 0-.286 0c-1.59 1.008-2.953 2.284-3.988 3.727a11.938 11.938 0 0 0-2.126-1.71.267.267 0 0 0-.286 0c-1.532.97-2.802 2.249-3.674 3.697a9.513 9.513 0 0 0-1.38 5.12c.018.765.212 1.463.577 2.073a.267.267 0 1 0 .459-.275 3.645 3.645 0 0 1-.502-1.81 8.071 8.071 0 0 1-.002-.208c0-1.629.439-3.185 1.306-4.624.802-1.333 1.961-2.516 3.359-3.43a11.34 11.34 0 0 1 1.96 1.617c-.086.131-.17.264-.25.399a11.762 11.762 0 0 0-1.707 6.33c.033 1.411.554 2.629 1.515 3.56a6.154 6.154 0 0 1-2.457.121c-1.014-.156-1.896-.55-2.549-1.14a.267.267 0 0 0-.358.396c.973.879 2.394 1.353 3.848 1.353.673 0 1.354-.102 2-.313l.07.053c1.152.856 2.69 1.327 4.328 1.327 1.639 0 3.176-.471 4.328-1.327 1.314-.975 2.03-2.368 2.069-4.03.002-.09.003-.181.003-.272 0-2.24-.665-4.453-1.922-6.4Z" fill="#232E1F"/></g><defs><clipPath id="a"><path fill="#fff" d="M0 0h18v18H0z"/></clipPath></defs></svg>