<svg width="18" height="18" fill="none" xmlns="http://www.w3.org/2000/svg"><path d="M13.5 4.781v8.438a1.125 1.125 0 0 1-1.125 1.125H9.562a2.25 2.25 0 0 1-2.25-2.25v-.097a1.125 1.125 0 0 0-.329-.795l-1.028-1.029a1.126 1.126 0 0 1-.33-.795V5.906A3.375 3.375 0 0 1 9 2.531h2.25a2.25 2.25 0 0 1 2.25 2.25Z" fill="#FC9495"/><path d="M9 3.656h2.25a1.125 1.125 0 0 1 1.125 1.125v7.875a.563.563 0 0 1-.563.563h-2.25a1.125 1.125 0 0 1-1.124-1.125v-.66a1.125 1.125 0 0 0-.33-.795L7.08 9.611a1.125 1.125 0 0 1-.33-.796V5.906A2.25 2.25 0 0 1 9 3.656Z" fill="#E74444"/><path d="M10.406 6.469a.844.844 0 1 0 0-1.688.844.844 0 0 0 0 1.688Z" fill="#FAE8D8"/><path d="m5.906 14.906-1.687-.562-1.688.562.844-1.969v-.843h1.688v.844l.843 1.968Z" fill="#606669"/><path d="M4.219 1.688s3.375 1.125 3.375 3.937c0 2.611-.728 4.495-2.182 5.877a1.123 1.123 0 0 0-.35.814v.621H3.375v-.62a1.123 1.123 0 0 0-.35-.815C1.572 10.12.845 8.236.845 5.625c0-2.813 3.375-3.938 3.375-3.938Z" fill="#99A2A7"/><path d="M4.5 5.625h1.688v.844a.844.844 0 1 1-1.688 0v-.844Z" fill="#606669"/><path d="M17.156 13.781c0-.844-.843-1.969-2.812-1.969-1.969 0-1.969 1.97-1.969 1.97s0 1.968 1.969 1.968 2.812-1.125 2.812-1.969Z" fill="#DEB89A"/><path d="M11.813 11.531c-.844 0-1.97.844-1.97 2.813 0 1.969 1.97 1.969 1.97 1.969s1.968 0 1.968-1.97c0-1.968-1.125-2.812-1.969-2.812Z" fill="#F5CBAA"/><path d="M2.813 4.781v6.51C1.5 9.93.844 8.104.844 5.624c0-.285.035-.568.107-.844h1.862Z" fill="#606669"/><path d="M7.594 5.625H.844c0-2.813 3.375-3.938 3.375-3.938s3.375 1.125 3.375 3.938Z" fill="#757C80"/><path d="M3.938 4.219a.563.563 0 1 0 0-1.125.563.563 0 0 0 0 1.125Z" fill="#606669"/><path d="M10.406 6.75a1.125 1.125 0 1 0 0-2.25 1.125 1.125 0 0 0 0 2.25Zm0-1.688a.563.563 0 1 1 0 1.126.563.563 0 0 1 0-1.125Z" fill="#000"/><path d="M16.67 12.266c-.396-.335-1.121-.735-2.326-.735a2.76 2.76 0 0 0-.563.056V4.78a2.534 2.534 0 0 0-2.531-2.53H9a3.65 3.65 0 0 0-2.22.752 5.48 5.48 0 0 0-.705-.625 6.902 6.902 0 0 0-1.767-.956.282.282 0 0 0-.178 0 6.902 6.902 0 0 0-1.768.956c-1.177.883-1.8 2.006-1.8 3.248 0 2.641.743 4.63 2.27 6.08a.845.845 0 0 1 .262.611v.564l-.821 1.915a.281.281 0 0 0 .347.378l1.599-.533 1.598.533a.28.28 0 0 0 .348-.377l-.821-1.916v-.564a.846.846 0 0 1 .262-.61c.254-.242.49-.502.704-.78l.474.475a.85.85 0 0 1 .247.596v.097a2.534 2.534 0 0 0 2.532 2.531h.013c.091.97.65 1.455 1.126 1.693.347.17.725.263 1.11.276a2.737 2.737 0 0 0 1.11-.276 2.08 2.08 0 0 0 .577-.42c.272.091.558.136.845.133 1.205 0 1.93-.4 2.326-.734.488-.413.767-.965.767-1.516 0-.55-.28-1.103-.767-1.515ZM9 2.813h2.25a1.971 1.971 0 0 1 1.969 1.968v7.005a1.869 1.869 0 0 0-.072.04 2.22 2.22 0 0 0-.49-.357V4.782a1.408 1.408 0 0 0-1.407-1.406H9a2.54 2.54 0 0 0-1.559.537 4.054 4.054 0 0 0-.301-.477A3.086 3.086 0 0 1 9 2.813Zm-.693 7.627L7.278 9.412a.84.84 0 0 1-.058-.065c.439-1.063.655-2.298.655-3.722 0-.4-.066-.798-.198-1.176.363-.328.834-.51 1.323-.511h2.25a.845.845 0 0 1 .844.843v6.494a1.679 1.679 0 0 0-.281-.025c-.55 0-1.103.28-1.516.768-.226.272-.4.584-.515.92h-.22a.844.844 0 0 1-.843-.844v-.66a1.396 1.396 0 0 0-.412-.993Zm-5.62-7.604c.471-.35.986-.636 1.532-.85a6.538 6.538 0 0 1 1.518.84c.953.715 1.478 1.56 1.563 2.518H1.138c.085-.953.605-1.796 1.55-2.508Zm2.094 3.07h1.125v.563a.563.563 0 1 1-1.125 0v-.563Zm-3.653 0h1.403v4.625a6.262 6.262 0 0 1-.878-1.605c-.329-.877-.501-1.867-.525-3.02Zm3.18 8.17a.282.282 0 0 0-.178 0l-1.094.365.524-1.222h1.317l.524 1.222-1.093-.364Zm.91-2.778a1.41 1.41 0 0 0-.437 1.018v.34H3.656v-.34a1.41 1.41 0 0 0-.437-1.018 6.518 6.518 0 0 1-.125-.123V5.906h1.125v.563a1.125 1.125 0 0 0 2.25 0v-.563h.84c-.024 1.153-.196 2.143-.524 3.02a6.201 6.201 0 0 1-1.567 2.372Zm2.376.796v-.097a1.396 1.396 0 0 0-.412-.994l-.543-.543c.118-.182.227-.37.327-.565l.943.943a.85.85 0 0 1 .247.597v.659A1.408 1.408 0 0 0 9.562 13.5h.073a4.494 4.494 0 0 0-.065.563h-.008a1.971 1.971 0 0 1-1.968-1.97Zm5.093 3.713a2.19 2.19 0 0 1-.874.224c-.07 0-1.688-.019-1.688-1.687 0-1.844 1.035-2.531 1.688-2.531.652 0 1.687.687 1.687 2.53 0 .695-.274 1.187-.813 1.464Zm1.657-.338c-.17 0-.34-.018-.506-.057a2.41 2.41 0 0 0 .225-1.068c0-.987-.268-1.651-.549-2.077a1.86 1.86 0 0 1 .83-.173c1.844 0 2.531 1.035 2.531 1.687 0 .653-.687 1.688-2.531 1.688Z" fill="#000"/><path d="M3.938 4.5a.844.844 0 1 0 0-1.687.844.844 0 0 0 0 1.687Zm0-1.125a.281.281 0 1 1 0 .562.281.281 0 0 1 0-.562Z" fill="#000"/></svg>