<svg width="18" height="18" fill="none" xmlns="http://www.w3.org/2000/svg"><path clip-rule="evenodd" d="M7.194 11.405c2.766 0 5.131.42 5.131 2.094 0 1.675-2.349 2.106-5.131 2.106-2.768 0-5.132-.415-5.132-2.09 0-1.676 2.348-2.11 5.132-2.11Zm0-2.39a3.29 3.29 0 1 1 3.288-3.289 3.277 3.277 0 0 1-3.265 3.289h-.023Z" stroke="#7B6F72" stroke-width="1.2" stroke-linecap="round" stroke-linejoin="round"/><path d="M12.362 8.161a2.476 2.476 0 0 0 2.128-2.446c0-1.23-.896-2.25-2.071-2.442m1.528 7.777c1.163.172 1.975.58 1.975 1.42 0 .579-.383.954-1 1.188" stroke="#7B6F72" stroke-width="1.2" stroke-linecap="round" stroke-linejoin="round"/></svg>