<svg width="18" height="18" fill="none" xmlns="http://www.w3.org/2000/svg"><path d="M8.62 2.092H5.814c-2.306 0-3.752 1.632-3.752 3.944v6.235c0 2.312 1.439 3.945 3.752 3.945h6.618c2.314 0 3.753-1.633 3.753-3.945v-3.02" stroke="#7B6F72" stroke-width="1.5" stroke-linecap="round" stroke-linejoin="round"/><path clip-rule="evenodd" d="m6.621 8.19 5.605-5.604a1.789 1.789 0 0 1 2.528 0l.913.913c.698.698.698 1.83 0 2.528l-5.632 5.632a1.63 1.63 0 0 1-1.151.477h-2.81l.07-2.835c.011-.417.181-.815.477-1.11Z" stroke="#7B6F72" stroke-width="1.5" stroke-linecap="round" stroke-linejoin="round"/><path d="m11.374 3.452 3.425 3.424" stroke="#7B6F72" stroke-width="1.5" stroke-linecap="round" stroke-linejoin="round"/></svg>