<svg width="71" height="28" fill="none" xmlns="http://www.w3.org/2000/svg"><path d="m36.646 10.403 3.33-.215c.076.544.216.95.444 1.24.367.457.873.685 1.544.685.494 0 .887-.114 1.153-.355a1.02 1.02 0 0 0 .405-.81c0-.304-.14-.596-.38-.786-.253-.227-.848-.455-1.785-.658-1.533-.342-2.634-.798-3.28-1.38a2.75 2.75 0 0 1-.988-2.19c0-.583.178-1.166.507-1.647.38-.544.899-.975 1.52-1.216.67-.29 1.607-.443 2.785-.443 1.444 0 2.545.266 3.305.81.76.532 1.216 1.393 1.355 2.571l-3.292.19c-.089-.506-.266-.874-.557-1.114-.292-.24-.672-.355-1.166-.355-.405 0-.709.089-.911.253a.768.768 0 0 0-.304.634c0 .19.101.367.253.48.165.153.557.292 1.178.419 1.532.329 2.621.658 3.292 1 .671.342 1.152.76 1.444 1.254.304.506.456 1.089.443 1.684 0 .709-.203 1.418-.608 2.013-.418.62-1 1.102-1.684 1.393-.722.317-1.634.481-2.723.481-1.924 0-3.254-.367-4.001-1.114-.747-.747-1.19-1.684-1.279-2.824ZM1.304 14.151V2.831h5.838c1.076 0 1.912.088 2.482.278a2.623 2.623 0 0 1 1.38 1.039 3.15 3.15 0 0 1 .532 1.836 3.029 3.029 0 0 1-1.507 2.735 3.87 3.87 0 0 1-1.229.443c.317.089.634.24.912.418.215.177.393.38.557.595a3.9 3.9 0 0 1 .494.71l1.697 3.279H8.484L6.61 10.682c-.24-.444-.443-.735-.633-.874a1.503 1.503 0 0 0-.861-.266h-.304v4.597H1.304v.012Zm3.508-6.736h1.481c.317-.026.62-.076.925-.152a.887.887 0 0 0 .57-.355 1.126 1.126 0 0 0-.127-1.494c-.228-.19-.671-.291-1.304-.291H4.812v2.292ZM.506 23.85l3.33-.215c.077.544.216.95.444 1.24.354.457.874.697 1.545.697.494 0 .886-.114 1.152-.354a1.04 1.04 0 0 0 .405-.81c0-.305-.139-.596-.38-.786-.253-.228-.848-.456-1.798-.658-1.532-.342-2.634-.798-3.28-1.38a2.75 2.75 0 0 1-.987-2.191c0-.583.177-1.165.506-1.646a3.33 3.33 0 0 1 1.52-1.216c.671-.291 1.608-.443 2.786-.443 1.443 0 2.545.266 3.305.81.76.545 1.203 1.393 1.342 2.57l-3.292.19c-.089-.506-.266-.873-.557-1.114-.28-.24-.672-.354-1.165-.342-.406 0-.71.09-.912.266a.736.736 0 0 0-.304.633c0 .19.101.368.253.482.165.152.557.29 1.178.418 1.532.329 2.621.658 3.292 1 .671.342 1.152.76 1.444 1.254.304.506.456 1.088.456 1.671a3.64 3.64 0 0 1-.608 2c-.418.621-1 1.102-1.684 1.394-.722.316-1.634.48-2.723.48-1.925 0-3.254-.366-4.001-1.113-.747-.76-1.165-1.697-1.267-2.837Z" fill="#000"/><path d="m17.348 22.965 3.064.924a5.718 5.718 0 0 1-.975 2.153c-.43.57-1 1.013-1.646 1.304-.658.291-1.494.443-2.507.443-1.228 0-2.241-.177-3.014-.532-.785-.354-1.456-.987-2.026-1.886-.57-.9-.848-2.052-.848-3.457 0-1.875.494-3.318 1.494-4.318 1-1 2.406-1.507 4.23-1.507 1.43 0 2.545.291 3.368.86.81.583 1.418 1.47 1.823 2.66l-3.09.684a2.746 2.746 0 0 0-.341-.76 2.01 2.01 0 0 0-.722-.62 2.048 2.048 0 0 0-.95-.216c-.798 0-1.406.317-1.824.963-.316.468-.48 1.215-.48 2.228 0 1.254.19 2.115.57 2.583.38.469.91.697 1.607.697.671 0 1.178-.19 1.52-.557.342-.393.595-.937.747-1.646Zm7.155-6.686h3.494v3.963h3.825V16.28h3.52V27.6h-3.52v-4.584h-3.825V27.6h-3.494V16.28Z" fill="#000"/><path d="M34.86 21.94c0-1.85.52-3.293 1.546-4.319 1.025-1.026 2.469-1.545 4.305-1.545 1.887 0 3.33.507 4.356 1.52 1.026 1.013 1.532 2.431 1.532 4.254 0 1.33-.228 2.406-.671 3.255a4.744 4.744 0 0 1-1.925 1.975c-.848.469-1.9.71-3.153.71-1.279 0-2.33-.203-3.166-.608a4.826 4.826 0 0 1-2.038-1.925c-.52-.887-.785-1.988-.785-3.318Zm3.495.012c0 1.14.216 1.962.634 2.469.418.494 1 .747 1.735.747.747 0 1.33-.24 1.747-.734.418-.494.62-1.368.62-2.634 0-1.064-.215-1.849-.645-2.33-.43-.494-1.013-.735-1.748-.735a2.144 2.144 0 0 0-1.697.748c-.43.493-.645 1.316-.645 2.469Zm11.828-.013c0-1.849.519-3.292 1.544-4.318 1.026-1.026 2.47-1.545 4.306-1.545 1.887 0 3.343.507 4.356 1.52s1.532 2.431 1.532 4.254c0 1.33-.228 2.406-.671 3.255a4.744 4.744 0 0 1-1.925 1.975c-.848.469-1.9.71-3.153.71-1.279 0-2.33-.203-3.166-.608a4.826 4.826 0 0 1-2.038-1.925c-.52-.887-.785-1.988-.785-3.318Zm3.495.013c0 1.14.215 1.962.633 2.469.417.494 1 .747 1.734.747.748 0 1.33-.24 1.748-.734.418-.494.62-1.368.62-2.634 0-1.064-.215-1.849-.645-2.33-.43-.494-1.013-.735-1.748-.735a2.127 2.127 0 0 0-1.697.748c-.43.493-.645 1.316-.645 2.469Z" fill="#000"/><path d="M61.554 16.279h3.495v8.534h5.457V27.6h-8.965V16.28h.013ZM50.195 9.555l1.267-.887 1.557 2.216c.266.355.469.735.62 1.153.09.316.064.658-.063.962-.164.38-.43.696-.785.924-.418.292-.772.456-1.076.507-.292.05-.595 0-.874-.127a2.115 2.115 0 0 1-.772-.646l1.089-1.013c.088.14.202.266.329.368.088.063.19.101.304.101a.4.4 0 0 0 .24-.089.419.419 0 0 0 .203-.38 1.272 1.272 0 0 0-.266-.595l-1.773-2.494Zm3.8 1.405 1.151-.911c.127.152.292.266.469.329a.81.81 0 0 0 .734-.14.77.77 0 0 0 .33-.417.444.444 0 0 0-.279-.558c-.038-.012-.076-.025-.114-.025-.152-.013-.418.05-.81.215-.646.266-1.153.368-1.533.33a1.222 1.222 0 0 1-.911-.545 1.365 1.365 0 0 1-.24-.722c0-.29.075-.582.24-.823.24-.342.532-.633.886-.86.532-.368 1-.545 1.406-.545.405 0 .785.19 1.14.582l-1.14.9a.683.683 0 0 0-.95-.127l-.038.038a.622.622 0 0 0-.266.329.33.33 0 0 0 .05.304.284.284 0 0 0 .216.114c.101.012.279-.038.532-.152.633-.266 1.114-.418 1.443-.469.279-.05.57-.025.836.089.24.101.443.278.583.494.177.253.278.557.29.873.013.33-.075.646-.252.925-.228.342-.52.633-.861.86-.697.482-1.267.685-1.723.609a1.86 1.86 0 0 1-1.19-.697Z" fill="#000"/><path d="m50.195 9.555 1.267-.887 1.557 2.216c.266.355.469.735.62 1.153.09.316.064.658-.063.962-.164.38-.43.696-.785.924-.418.292-.772.456-1.076.507-.292.05-.595 0-.874-.127a2.115 2.115 0 0 1-.772-.646l1.089-1.013c.088.14.202.266.329.368.088.063.19.101.304.101a.4.4 0 0 0 .24-.089.419.419 0 0 0 .203-.38 1.272 1.272 0 0 0-.266-.595l-1.773-2.494Zm3.8 1.405 1.151-.911c.127.152.292.266.469.329a.81.81 0 0 0 .734-.14.77.77 0 0 0 .33-.417.444.444 0 0 0-.279-.558c-.038-.012-.076-.025-.114-.025-.152-.013-.418.05-.81.215-.646.266-1.153.368-1.533.33a1.222 1.222 0 0 1-.911-.545 1.365 1.365 0 0 1-.24-.722c0-.29.075-.582.24-.823.24-.342.532-.633.886-.86.532-.368 1-.545 1.406-.545.405 0 .785.19 1.14.582l-1.14.9a.683.683 0 0 0-.95-.127l-.038.038a.622.622 0 0 0-.266.329.33.33 0 0 0 .05.304.284.284 0 0 0 .216.114c.101.012.279-.038.532-.152.633-.266 1.114-.418 1.443-.469.279-.05.57-.025.836.089.24.101.443.278.583.494.177.253.278.557.29.873.013.33-.075.646-.252.925-.228.342-.52.633-.861.86-.697.482-1.267.685-1.723.609a1.86 1.86 0 0 1-1.19-.697Z" fill="#000"/></svg>