<svg width="34" height="34" viewBox="0 0 34 34" fill="none" xmlns="http://www.w3.org/2000/svg">
<g clip-path="url(#clip0_1204_4187)">
<path d="M29.4265 9.02441H12.8043C12.4011 9.02441 12.0143 9.18828 11.7292 9.47998C11.4441 9.77167 11.2839 10.1673 11.2839 10.5798V27.5852C11.2839 27.9977 11.4441 28.3933 11.7292 28.685C12.0143 28.9767 12.4011 29.1406 12.8043 29.1406H24.3047L28.931 33.0377V29.1406H29.4144C29.8176 29.1406 30.2043 28.9767 30.4894 28.685C30.7745 28.3933 30.9347 27.9977 30.9347 27.5852V10.5798C30.9347 10.1694 30.7762 9.77566 30.4937 9.48432C30.2112 9.19299 29.8276 9.02768 29.4265 9.02441V9.02441Z" fill="white"/>
<path d="M12.988 9.02446H29.4966C29.8812 9.02446 30.2501 9.18077 30.5221 9.45902C30.794 9.73726 30.9468 10.1146 30.9468 10.5081V15.3177C30.9468 15.3328 30.941 15.3473 30.9305 15.3579C30.9201 15.3686 30.906 15.3746 30.8912 15.3746H11.3396C11.3248 15.3746 11.3107 15.3686 11.3002 15.3579C11.2898 15.3473 11.284 15.3328 11.284 15.3177V10.7653C11.2827 10.5361 11.3259 10.309 11.4111 10.097C11.4963 9.88502 11.6218 9.69248 11.7803 9.53053C11.9389 9.36858 12.1272 9.24046 12.3346 9.15358C12.5419 9.06671 12.764 9.02282 12.988 9.02446V9.02446Z" fill="#FF725E"/>
<path d="M19.7653 18.3711V25.2108H18.2184V19.6421H16.8817V18.3711H19.7653Z" fill="#263238"/>
<path d="M26.1708 18.3711V19.3973L23.6812 25.2108H21.9893L24.387 19.6619H22.1802V20.7821H20.8049V18.3711H26.1708Z" fill="#263238"/>
<path d="M23.8624 12.6219C23.8624 12.6565 22.5113 12.6862 20.8459 12.6862C19.1806 12.6862 17.827 12.6615 17.827 12.6219C17.827 12.5823 19.1782 12.5576 20.8459 12.5576C22.5137 12.5576 23.8624 12.5922 23.8624 12.6219Z" fill="#263238"/>
<path d="M29.4266 9.02458C29.4266 9.02458 29.4604 9.02458 29.5305 9.02458C29.6318 9.02899 29.7323 9.04475 29.8302 9.07156C30.023 9.12297 30.204 9.21276 30.3629 9.33581C30.5217 9.45886 30.6553 9.61275 30.756 9.78867C30.9041 10.0477 30.9779 10.3443 30.9687 10.6443C30.9687 10.9682 30.9687 11.3243 30.9687 11.7051C30.9687 12.4717 30.9687 13.3495 30.9687 14.3312C30.9687 16.3094 30.9687 18.6808 30.9687 21.4059C30.9687 22.7684 30.9687 24.2174 30.9687 25.7407C30.9687 26.124 30.9687 26.5097 30.9687 26.9004V27.4889C30.9758 27.6932 30.9488 27.8973 30.8889 28.0923C30.7586 28.4948 30.4779 28.8281 30.1082 29.0196C29.9357 29.1114 29.748 29.1693 29.5547 29.1902C29.3444 29.1902 29.1486 29.1902 28.9431 29.1902L28.9987 29.1333C28.9987 30.3697 28.9987 31.6778 28.9987 33.028V33.1566L28.9021 33.075L24.2661 29.1902L24.3048 29.2051H12.785C12.5161 29.2015 12.2524 29.1279 12.019 28.9912C11.7856 28.8544 11.59 28.6591 11.4508 28.4237C11.3593 28.271 11.2931 28.1039 11.255 27.9291C11.226 27.7535 11.2146 27.5754 11.2212 27.3974V24.304C11.2212 21.5987 11.2212 18.9899 11.2212 16.5048C11.2212 15.2601 11.2212 14.0493 11.2212 12.8722C11.2212 12.2837 11.2212 11.7067 11.2212 11.1413C11.2104 10.8549 11.2201 10.5681 11.2502 10.2832C11.3053 9.99834 11.4338 9.73369 11.6224 9.51666C11.8077 9.30475 12.0445 9.1469 12.3089 9.0592C12.5685 8.98681 12.8382 8.96005 13.1065 8.98007H17.5346L26.236 9.00232H28.6023H29.2163C29.3565 9.00232 29.4266 9.00232 29.4266 9.00232H29.2163H28.6023H26.236L17.5346 9.02211H14.651H13.1186C12.8617 9.00284 12.6035 9.02791 12.3548 9.09629C12.1076 9.18012 11.886 9.32841 11.7119 9.52656C11.5363 9.72888 11.4169 9.97565 11.3662 10.2412C11.3385 10.5197 11.3305 10.7998 11.3421 11.0795V12.8104C11.3421 13.9875 11.3421 15.1983 11.3421 16.443C11.3421 18.9158 11.3421 21.5369 11.3421 24.2422V27.3851C11.3359 27.5506 11.3465 27.7163 11.3735 27.8796C11.4074 28.0437 11.4679 28.2008 11.5523 28.3445C11.7237 28.6351 11.9874 28.8568 12.2992 28.9726C12.6245 29.0657 12.9635 29.0975 13.2999 29.0666H24.3217L24.3386 29.0814L28.9625 32.981L28.8658 33.0255C28.8658 31.6754 28.8658 30.3598 28.8658 29.1309V29.074H28.9238C29.1244 29.074 29.3323 29.074 29.5281 29.074C29.8162 29.0517 30.0914 28.9429 30.3193 28.7612C30.5472 28.5796 30.7176 28.3331 30.8091 28.0527C30.8677 27.8694 30.8939 27.6768 30.8865 27.484V26.8955C30.8865 26.5048 30.8865 26.119 30.8865 25.7357C30.8865 24.2125 30.8865 22.7684 30.8865 21.4009C30.8865 18.6808 30.8865 16.2946 30.8986 14.3262C30.8986 13.3371 30.8986 12.4667 30.8986 11.7001C30.8986 10.9336 30.9952 10.2585 30.7004 9.80351C30.505 9.45186 30.1819 9.19327 29.8012 9.08393C29.6783 9.05276 29.5529 9.0329 29.4266 9.02458V9.02458Z" fill="#263238"/>
<path d="M24.0485 7.05371H24.0074C23.6657 7.05371 23.3887 7.33713 23.3887 7.68675V10.9632C23.3887 11.3128 23.6657 11.5962 24.0074 11.5962H24.0485C24.3903 11.5962 24.6673 11.3128 24.6673 10.9632V7.68675C24.6673 7.33713 24.3903 7.05371 24.0485 7.05371Z" fill="#E0E0E0"/>
<path d="M24.0507 11.5963C24.1823 11.5774 24.307 11.5246 24.4132 11.443C24.5319 11.3435 24.6081 11.2007 24.6259 11.0449C24.6259 10.8643 24.6259 10.6393 24.6259 10.4019C24.6259 9.90737 24.6259 9.34357 24.6259 8.71548C24.6259 8.39649 24.6259 8.06266 24.6259 7.72636C24.6299 7.64532 24.617 7.56434 24.5881 7.48877C24.5592 7.4132 24.515 7.34477 24.4583 7.28798C24.4017 7.23119 24.3339 7.18734 24.2595 7.15933C24.185 7.13131 24.1056 7.11978 24.0265 7.12547C23.9468 7.12529 23.868 7.14264 23.7954 7.17635C23.7229 7.21005 23.6583 7.25932 23.6059 7.32082C23.5551 7.38228 23.5169 7.45359 23.4937 7.5305C23.4704 7.6074 23.4626 7.68832 23.4706 7.7684C23.4706 8.11459 23.4706 8.44842 23.4706 8.75752C23.4706 9.38808 23.4706 9.9593 23.4706 10.4464C23.4706 10.5651 23.4706 10.6789 23.4706 10.7877C23.4618 10.8864 23.4618 10.9857 23.4706 11.0844C23.5 11.2392 23.5865 11.3765 23.7123 11.4677C23.8247 11.5419 23.9535 11.5861 24.0869 11.5963C24.0518 11.6037 24.0157 11.6037 23.9806 11.5963C23.8757 11.5911 23.774 11.5579 23.6857 11.4998C23.543 11.4057 23.4416 11.2585 23.4029 11.0894C23.3874 10.9863 23.3818 10.882 23.386 10.7778C23.386 10.669 23.386 10.5552 23.386 10.4365C23.386 9.94199 23.386 9.37819 23.3715 8.74763C23.3715 8.43111 23.3715 8.09728 23.3715 7.75851C23.3629 7.66316 23.3731 7.56702 23.4013 7.47573C23.4295 7.38444 23.4752 7.29983 23.5358 7.22686C23.5991 7.15002 23.6779 7.08812 23.7667 7.04543C23.8556 7.00274 23.9525 6.98027 24.0507 6.97958C24.1477 6.97414 24.2447 6.98961 24.3354 7.02496C24.4262 7.06032 24.5087 7.11478 24.5776 7.18482C24.6348 7.25974 24.6768 7.34554 24.7013 7.43723C24.7258 7.52893 24.7322 7.62469 24.7202 7.71894C24.7202 8.06266 24.7202 8.39649 24.7202 8.70806C24.7202 9.33615 24.7202 9.90737 24.7057 10.3945C24.7057 10.6418 24.7057 10.847 24.6888 11.0473C24.6767 11.1324 24.648 11.2141 24.6044 11.2876C24.5608 11.3611 24.5032 11.4249 24.435 11.4751C24.352 11.5397 24.2534 11.5799 24.1498 11.5913C24.1174 11.5996 24.0837 11.6013 24.0507 11.5963V11.5963Z" fill="#263238"/>
<path d="M18.0472 7.05371H18.0061C17.6644 7.05371 17.3873 7.33713 17.3873 7.68675V10.9632C17.3873 11.3128 17.6644 11.5962 18.0061 11.5962H18.0472C18.3889 11.5962 18.666 11.3128 18.666 10.9632V7.68675C18.666 7.33713 18.3889 7.05371 18.0472 7.05371Z" fill="#E0E0E0"/>
<path d="M18.0468 11.5964C18.1793 11.5781 18.305 11.5253 18.4118 11.4431C18.5304 11.3436 18.6067 11.2008 18.6245 11.045C18.6245 10.8644 18.6245 10.6394 18.6245 10.402C18.6245 9.90747 18.6245 9.34367 18.61 8.71558C18.61 8.39659 18.61 8.06276 18.61 7.72646C18.6139 7.64542 18.6011 7.56444 18.5722 7.48887C18.5433 7.41331 18.499 7.34487 18.4424 7.28808C18.3857 7.23129 18.3179 7.18744 18.2435 7.15943C18.1691 7.13141 18.0897 7.11988 18.0106 7.12557C17.9308 7.12507 17.8519 7.14227 17.7793 7.176C17.7067 7.20972 17.6421 7.25917 17.59 7.32092C17.5388 7.38226 17.5003 7.45349 17.4766 7.53038C17.453 7.60728 17.4446 7.68826 17.4522 7.7685C17.4522 8.11469 17.4522 8.44852 17.4522 8.75762C17.4522 9.38818 17.4522 9.9594 17.4377 10.4465C17.4377 10.5652 17.4377 10.679 17.4377 10.7878C17.4289 10.8865 17.4289 10.9858 17.4377 11.0845C17.4661 11.2397 17.5529 11.3773 17.6794 11.4678C17.7909 11.5421 17.9189 11.5864 18.0516 11.5964C18.0516 11.5964 18.0178 11.5964 17.9453 11.5964C17.8412 11.5911 17.7403 11.5579 17.6528 11.4999C17.5094 11.4066 17.4078 11.2591 17.37 11.0895C17.3549 10.9864 17.3485 10.8821 17.3507 10.7779C17.3507 10.6691 17.3507 10.5553 17.3507 10.4366C17.3507 9.94209 17.3507 9.37829 17.3507 8.74773C17.3507 8.43121 17.3507 8.09738 17.3507 7.75861C17.3365 7.56593 17.3963 7.37519 17.5175 7.22696C17.5806 7.14999 17.6594 7.08801 17.7483 7.0453C17.8372 7.0026 17.9341 6.98021 18.0323 6.97968C18.129 6.97397 18.2257 6.98931 18.3161 7.0247C18.4065 7.06008 18.4886 7.11469 18.5568 7.18492C18.623 7.25389 18.6747 7.33596 18.7088 7.42611C18.7429 7.51625 18.7586 7.61257 18.755 7.70915C18.755 8.05287 18.755 8.3867 18.755 8.69827C18.755 9.32636 18.755 9.89758 18.755 10.3847C18.755 10.632 18.755 10.8372 18.7381 11.0375C18.7149 11.2068 18.6282 11.3603 18.4964 11.4653C18.4132 11.5295 18.3147 11.5696 18.2112 11.5815C18.1593 11.6042 18.1017 11.6094 18.0468 11.5964V11.5964Z" fill="#263238"/>
<g opacity="0.3">
<path opacity="0.3" d="M16.6543 9.21484C16.7349 10.0202 16.6596 10.834 16.4326 11.6096C16.2057 12.3851 15.8316 13.1074 15.3317 13.735C14.8318 14.3626 14.2159 14.8833 13.5192 15.2673C12.8226 15.6513 12.0588 15.8911 11.2715 15.973L11.5132 12.5927L14.5079 9.26183L16.6543 9.21484Z" fill="black"/>
</g>
<path d="M11.9132 14.5694C14.9318 13.7908 16.7619 10.6562 16.0009 7.56809C15.2399 4.47994 12.1759 2.60764 9.15736 3.3862C6.1388 4.16475 4.30869 7.29934 5.0697 10.3875C5.83072 13.4756 8.89466 15.3479 11.9132 14.5694Z" fill="white"/>
<path d="M10.5307 15.3643C9.33355 15.3635 8.16183 15.0106 7.15521 14.3477C6.14859 13.6847 5.3495 12.7396 4.85318 11.625C4.35687 10.5105 4.18424 9.27343 4.35589 8.06131C4.52753 6.84919 5.0362 5.71311 5.82128 4.78846C6.60637 3.86381 7.63475 3.18959 8.78389 2.84613C9.93303 2.50267 11.1545 2.50446 12.3026 2.85129C13.4508 3.19812 14.4773 3.87536 15.2598 4.80231C16.0423 5.72926 16.5478 6.86682 16.716 8.07944V8.07944C16.9465 9.75603 16.5176 11.4577 15.5235 12.8113C14.5294 14.1649 13.0512 15.0599 11.413 15.3C11.1208 15.3433 10.8259 15.3648 10.5307 15.3643V15.3643ZM10.5452 3.83366C10.3026 3.83338 10.0603 3.85073 9.82011 3.88559C8.83615 4.03017 7.91618 4.46993 7.17646 5.14927C6.43673 5.82862 5.91046 6.71706 5.66416 7.70232C5.41785 8.68757 5.46257 9.72541 5.79265 10.6847C6.12274 11.6439 6.72338 12.4816 7.51866 13.0917C8.31394 13.7018 9.26816 14.0571 10.2607 14.1125C11.2533 14.168 12.2397 13.9211 13.0952 13.4033C13.9507 12.8854 14.6369 12.1196 15.0671 11.2028C15.4973 10.2861 15.6523 9.25938 15.5123 8.25254V8.25254C15.342 7.02809 14.7462 5.90741 13.8339 5.09585C12.9217 4.28429 11.7541 3.83619 10.5452 3.83366V3.83366Z" fill="#455A64"/>
<path d="M10.5447 3.83366C10.572 3.82976 10.5996 3.82976 10.6269 3.83366C10.6801 3.83366 10.7598 3.83366 10.8686 3.83366C11.1766 3.8479 11.4826 3.89262 11.7823 3.96719C12.2573 4.0873 12.7125 4.27809 13.1334 4.53346C13.6942 4.87158 14.1864 5.31646 14.5836 5.84404C15.0635 6.48542 15.389 7.23345 15.5335 8.02752C15.5705 8.24525 15.5963 8.4648 15.6109 8.68528C15.617 8.79812 15.617 8.91121 15.6109 9.02405C15.6109 9.1378 15.6109 9.25402 15.6109 9.36777C15.5724 9.84336 15.475 10.312 15.3208 10.7624C15.1417 11.2306 14.9036 11.6728 14.6126 12.078C14.3036 12.4938 13.94 12.864 13.5322 13.1783C12.6577 13.8317 11.6022 14.1825 10.5194 14.1799C9.43651 14.1772 8.38272 13.8212 7.51129 13.1635C7.10281 12.849 6.73916 12.4778 6.43086 12.0606C6.14642 11.6523 5.91563 11.2075 5.74441 10.7377C5.59184 10.2879 5.496 9.8201 5.4592 9.34552C5.39494 8.38343 5.59381 7.42205 6.03352 6.56908C6.47324 5.71611 7.13642 5.00525 7.94878 4.51615C8.5262 4.17157 9.16591 3.95033 9.82926 3.8658L10.2184 3.84355L10.4601 3.83118C10.4874 3.82841 10.515 3.82841 10.5423 3.83118H10.4601L10.2184 3.85344L9.83168 3.88806C9.6794 3.91279 9.50779 3.94741 9.31442 3.99686C8.21846 4.2835 7.25026 4.94269 6.56863 5.86629C6.09941 6.497 5.78074 7.23116 5.63806 8.01021C5.55851 8.44202 5.53494 8.88267 5.56797 9.32079C5.60493 9.78546 5.69997 10.2434 5.85076 10.6833C6.01905 11.1413 6.2458 11.5745 6.52513 11.9716C6.82732 12.378 7.18274 12.74 7.58138 13.0473C8.43211 13.6872 9.45982 14.0336 10.5158 14.0362C11.5717 14.0389 12.6011 13.6977 13.4549 13.0621C13.8547 12.7564 14.211 12.3952 14.5135 11.9889C14.7943 11.5928 15.0227 11.1604 15.1927 10.7031C15.3469 10.2646 15.4445 9.80738 15.4828 9.34304C15.4973 9.23177 15.4828 9.11802 15.4828 9.00674C15.4888 8.89638 15.4888 8.78575 15.4828 8.67539C15.461 8.45531 15.4514 8.24018 15.4103 8.02999C15.2723 7.25018 14.9577 6.51426 14.4918 5.88113C13.8092 4.95942 12.8454 4.29716 11.7532 3.99933C11.4569 3.92023 11.1545 3.86728 10.8493 3.84108C10.6559 3.8386 10.5447 3.8386 10.5447 3.83366Z" fill="#263238"/>
<path d="M10.5304 15.3642C10.5304 15.3642 10.5643 15.3642 10.632 15.3642L10.9268 15.3419C11.0574 15.3295 11.2169 15.3147 11.4103 15.285L12.0556 15.149C12.635 14.9885 13.191 14.7499 13.7089 14.4393C14.3875 14.0153 14.9834 13.4661 15.4661 12.8196C16.0438 12.0312 16.4366 11.1175 16.6142 10.149C16.6422 10.0186 16.6615 9.88644 16.6722 9.75338C16.6722 9.61985 16.7012 9.48632 16.7133 9.34784C16.7254 9.20937 16.7133 9.07584 16.7133 8.93489V8.72717L16.694 8.51699C16.6566 7.9384 16.5394 7.36813 16.3459 6.82312C15.9114 5.60511 15.1224 4.55265 14.0851 3.80762C13.0479 3.0626 11.8123 2.66083 10.545 2.65646C9.27397 2.65217 8.03263 3.04903 6.99018 3.79291C5.94773 4.53679 5.1549 5.5915 4.71981 6.81323C4.33866 7.88041 4.24924 9.03373 4.46119 10.149C4.5511 10.6517 4.6996 11.1415 4.90351 11.608C5.0019 11.8265 5.11163 12.0394 5.23223 12.246L5.41109 12.5452L5.61171 12.8196C6.08872 13.4668 6.68281 14.0141 7.36167 14.4319C7.87786 14.7459 8.4343 14.9848 9.01495 15.1416C9.22621 15.2003 9.44097 15.2449 9.65789 15.2751C9.8177 15.3045 9.97915 15.3235 10.1413 15.332L10.4386 15.3543C10.4724 15.3516 10.5063 15.3516 10.5401 15.3543H10.4386H10.1413C9.97926 15.3506 9.81769 15.3349 9.65789 15.3073C9.4392 15.283 9.22264 15.2417 9.01011 15.1836C8.42154 15.0347 7.85672 14.8007 7.33266 14.4888C6.63638 14.0721 6.02502 13.5222 5.53195 12.8691L5.32891 12.5922L5.14522 12.2905C5.02102 12.0776 4.90806 11.858 4.80683 11.6327C4.59804 11.1585 4.44548 10.6604 4.35242 10.149C4.13654 9.01688 4.22509 7.84601 4.60863 6.7613C5.0517 5.51753 5.85858 4.44362 6.91947 3.68569C7.98036 2.92776 9.24374 2.52262 10.5377 2.5254C11.8322 2.52651 13.095 2.9353 14.1545 3.69625C15.214 4.4572 16.0188 5.5334 16.4595 6.77861C16.6562 7.33562 16.7742 7.91847 16.81 8.50957L16.8269 8.72223V8.93489C16.8269 9.07584 16.8269 9.21679 16.8269 9.35526C16.8269 9.49374 16.7882 9.62727 16.7882 9.76327C16.7779 9.89898 16.7577 10.0337 16.7278 10.1663C16.5385 11.1497 16.1289 12.0749 15.5314 12.8691C15.039 13.5213 14.4315 14.0732 13.7403 14.4962C13.2139 14.8038 12.6498 15.0383 12.0629 15.1935L11.4103 15.3172C11.25 15.3405 11.0886 15.3554 10.9268 15.3617C10.7963 15.3617 10.6851 15.3617 10.6295 15.3617L10.5304 15.3642Z" fill="#263238"/>
<path d="M13.3957 1.03005L12.8807 1.875L16.1926 3.98766L16.7076 3.1427L13.3957 1.03005Z" fill="#455A64"/>
<path d="M16.1862 4.01186C16.1862 4.01186 16.2297 3.92284 16.3143 3.76458L16.6696 3.14144L16.6817 3.19337C15.9324 2.73096 14.7215 1.98912 13.3655 1.11128L13.4525 1.09149L13.4356 1.11869L13.3848 1.19782L13.3196 1.30663L13.1891 1.51929L12.9473 1.93472L12.9208 1.8457C13.8465 2.44411 14.6562 2.97824 15.2411 3.36894L15.9324 3.83135C16.0944 3.94263 16.1741 4.00445 16.1741 4.01186C16.0892 3.97421 16.0082 3.92781 15.9324 3.87339L15.2411 3.45054C14.6465 3.08457 13.8054 2.56033 12.8507 1.9545L12.7975 1.91988L12.8313 1.86795L13.073 1.45005L13.2132 1.24728L13.2785 1.14095L13.3123 1.08655L13.3292 1.04946V1.03462L13.4308 1C14.7892 1.86795 15.988 2.64688 16.7228 3.13402L16.7542 3.15628L16.7349 3.18842C16.5609 3.45796 16.4231 3.66815 16.3312 3.80662C16.2895 3.8797 16.241 3.94844 16.1862 4.01186Z" fill="#263238"/>
<path d="M5.43427 2.41824L2.72656 5.57031L3.45643 6.22653L6.16414 3.07446L5.43427 2.41824Z" fill="#455A64"/>
<path d="M3.45784 6.22508C3.45784 6.22508 3.53035 6.12617 3.66087 5.96296L4.21921 5.28294C4.70263 4.71173 5.35524 3.92291 6.1142 3.0327V3.12172L5.38908 2.46643H5.47851L5.45434 2.48374L5.42775 2.52083L5.37699 2.58018L5.27306 2.70135L5.06761 2.94863L4.67121 3.40115L3.92917 4.25426L2.75447 5.59452V5.54011C2.96476 5.74041 3.13637 5.90609 3.27172 6.03467C3.33833 6.095 3.40129 6.15941 3.46025 6.22755C3.38653 6.18212 3.31696 6.12998 3.25239 6.07177C3.12428 5.96543 2.93333 5.80718 2.69404 5.59699L2.66504 5.57226L2.68921 5.54259L3.8349 4.18008L4.56002 3.31707L4.97576 2.85466C5.04102 2.77553 5.11111 2.6964 5.17879 2.60738L5.28273 2.48621L5.33348 2.42439L5.36007 2.39472L5.37457 2.37988H5.46401C5.70571 2.60738 5.94742 2.82746 6.18913 3.03765L6.23505 3.07968L6.19396 3.12667C5.42775 4.02182 4.73647 4.80817 4.24339 5.36207L3.66571 6.00747C3.60116 6.0846 3.53172 6.15729 3.45784 6.22508V6.22508Z" fill="#263238"/>
<path d="M8.0769 9.48204L8.5579 8.54485L10.2764 9.34109L12.1255 5.89648L12.9908 6.40341L10.5955 10.7481L8.0769 9.48204Z" fill="#455A64"/>
<path d="M10.5981 10.7551L8.06982 9.48411L8.55324 8.54198L10.2669 9.33327L12.1233 5.88867L12.9934 6.39807L10.5981 10.7551ZM8.08674 9.47917L10.5957 10.7403L12.9861 6.40549L12.1305 5.91093L10.279 9.34811L8.57016 8.55434L8.08674 9.47917Z" fill="#263238"/>
<path d="M7.17763 16.0966C7.08627 16.0679 6.99799 16.0298 6.91417 15.9829C6.81311 15.9348 6.71467 15.8811 6.61929 15.8221C6.48943 15.7466 6.36357 15.664 6.24222 15.5749C5.92121 15.3548 5.61955 15.1066 5.34066 14.833C4.99971 14.4986 4.69055 14.1318 4.41734 13.7376C4.15313 13.3427 3.92497 12.9239 3.73572 12.4863C3.58235 12.1249 3.45865 11.7511 3.36591 11.3686C3.32876 11.2219 3.29891 11.0734 3.27648 10.9235C3.25411 10.8117 3.23877 10.6986 3.23056 10.5848C3.21606 10.4882 3.2112 10.3905 3.21605 10.293C3.24022 10.293 3.2789 10.7035 3.45776 11.3439C3.56011 11.7186 3.69021 12.0848 3.84691 12.4394C4.0428 12.8707 4.27405 13.2843 4.53819 13.6758C4.80431 14.0626 5.10186 14.4257 5.42767 14.7613C5.70051 15.03 5.99214 15.2779 6.30023 15.5031C6.82232 15.8963 7.18971 16.0843 7.17763 16.0966Z" fill="#263238"/>
<path d="M4.32564 14.7781C4.17113 14.6379 4.03541 14.4774 3.92199 14.3008C3.62791 13.8915 3.37142 13.4553 3.15578 12.9977C2.94043 12.5389 2.76805 12.0604 2.64095 11.5684C2.57522 11.3687 2.53699 11.1607 2.52734 10.9502C2.60442 11.1437 2.6698 11.3419 2.72313 11.5437C2.87298 12.0212 3.05385 12.4879 3.26455 12.9408C3.47863 13.3923 3.72083 13.8292 3.98967 14.2489C4.11389 14.4169 4.22616 14.5937 4.32564 14.7781V14.7781Z" fill="#263238"/>
<path d="M29.4265 9.02441H12.8043C12.4011 9.02441 12.0143 9.18828 11.7292 9.47998C11.4441 9.77167 11.2839 10.1673 11.2839 10.5798V27.5852C11.2839 27.9977 11.4441 28.3933 11.7292 28.685C12.0143 28.9767 12.4011 29.1406 12.8043 29.1406H24.3047L28.931 33.0377V29.1406H29.4144C29.8176 29.1406 30.2043 28.9767 30.4894 28.685C30.7745 28.3933 30.9347 27.9977 30.9347 27.5852V10.5798C30.9347 10.1694 30.7762 9.77566 30.4937 9.48432C30.2112 9.19299 29.8276 9.02768 29.4265 9.02441V9.02441Z" fill="white"/>
<path d="M12.988 9.02446H29.4966C29.8812 9.02446 30.2501 9.18077 30.5221 9.45902C30.794 9.73726 30.9468 10.1146 30.9468 10.5081V15.3177C30.9468 15.3328 30.941 15.3473 30.9305 15.3579C30.9201 15.3686 30.906 15.3746 30.8912 15.3746H11.3396C11.3248 15.3746 11.3107 15.3686 11.3002 15.3579C11.2898 15.3473 11.284 15.3328 11.284 15.3177V10.7653C11.2827 10.5361 11.3259 10.309 11.4111 10.097C11.4963 9.88502 11.6218 9.69248 11.7803 9.53053C11.9389 9.36858 12.1272 9.24046 12.3346 9.15358C12.5419 9.06671 12.764 9.02282 12.988 9.02446V9.02446Z" fill="#FF725E"/>
<path d="M19.7653 18.3711V25.2108H18.2184V19.6421H16.8817V18.3711H19.7653Z" fill="#263238"/>
<path d="M26.1708 18.3711V19.3973L23.6812 25.2108H21.9893L24.387 19.6619H22.1802V20.7821H20.8049V18.3711H26.1708Z" fill="#263238"/>
<path d="M23.8624 12.6219C23.8624 12.6565 22.5113 12.6862 20.8459 12.6862C19.1806 12.6862 17.827 12.6615 17.827 12.6219C17.827 12.5823 19.1782 12.5576 20.8459 12.5576C22.5137 12.5576 23.8624 12.5922 23.8624 12.6219Z" fill="#263238"/>
<path d="M29.4266 9.02458C29.4266 9.02458 29.4604 9.02458 29.5305 9.02458C29.6318 9.02899 29.7323 9.04475 29.8302 9.07156C30.023 9.12297 30.204 9.21276 30.3629 9.33581C30.5217 9.45886 30.6553 9.61275 30.756 9.78867C30.9041 10.0477 30.9779 10.3443 30.9687 10.6443C30.9687 10.9682 30.9687 11.3243 30.9687 11.7051C30.9687 12.4717 30.9687 13.3495 30.9687 14.3312C30.9687 16.3094 30.9687 18.6808 30.9687 21.4059C30.9687 22.7684 30.9687 24.2174 30.9687 25.7407C30.9687 26.124 30.9687 26.5097 30.9687 26.9004V27.4889C30.9758 27.6932 30.9488 27.8973 30.8889 28.0923C30.7586 28.4948 30.4779 28.8281 30.1082 29.0196C29.9357 29.1114 29.748 29.1693 29.5547 29.1902C29.3444 29.1902 29.1486 29.1902 28.9431 29.1902L28.9987 29.1333C28.9987 30.3697 28.9987 31.6778 28.9987 33.028V33.1566L28.9021 33.075L24.2661 29.1902L24.3048 29.2051H12.785C12.5161 29.2015 12.2524 29.1279 12.019 28.9912C11.7856 28.8544 11.59 28.6591 11.4508 28.4237C11.3593 28.271 11.2931 28.1039 11.255 27.9291C11.226 27.7535 11.2146 27.5754 11.2212 27.3974V24.304C11.2212 21.5987 11.2212 18.9899 11.2212 16.5048C11.2212 15.2601 11.2212 14.0493 11.2212 12.8722C11.2212 12.2837 11.2212 11.7067 11.2212 11.1413C11.2104 10.8549 11.2201 10.5681 11.2502 10.2832C11.3053 9.99834 11.4338 9.73369 11.6224 9.51666C11.8077 9.30475 12.0445 9.1469 12.3089 9.0592C12.5685 8.98681 12.8382 8.96005 13.1065 8.98007H17.5346L26.236 9.00232H28.6023H29.2163C29.3565 9.00232 29.4266 9.00232 29.4266 9.00232H29.2163H28.6023H26.236L17.5346 9.02211H14.651H13.1186C12.8617 9.00284 12.6035 9.02791 12.3548 9.09629C12.1076 9.18012 11.886 9.32841 11.7119 9.52656C11.5363 9.72888 11.4169 9.97565 11.3662 10.2412C11.3385 10.5197 11.3305 10.7998 11.3421 11.0795V12.8104C11.3421 13.9875 11.3421 15.1983 11.3421 16.443C11.3421 18.9158 11.3421 21.5369 11.3421 24.2422V27.3851C11.3359 27.5506 11.3465 27.7163 11.3735 27.8796C11.4074 28.0437 11.4679 28.2008 11.5523 28.3445C11.7237 28.6351 11.9874 28.8568 12.2992 28.9726C12.6245 29.0657 12.9635 29.0975 13.2999 29.0666H24.3217L24.3386 29.0814L28.9625 32.981L28.8658 33.0255C28.8658 31.6754 28.8658 30.3598 28.8658 29.1309V29.074H28.9238C29.1244 29.074 29.3323 29.074 29.5281 29.074C29.8162 29.0517 30.0914 28.9429 30.3193 28.7612C30.5472 28.5796 30.7176 28.3331 30.8091 28.0527C30.8677 27.8694 30.8939 27.6768 30.8865 27.484V26.8955C30.8865 26.5048 30.8865 26.119 30.8865 25.7357C30.8865 24.2125 30.8865 22.7684 30.8865 21.4009C30.8865 18.6808 30.8865 16.2946 30.8986 14.3262C30.8986 13.3371 30.8986 12.4667 30.8986 11.7001C30.8986 10.9336 30.9952 10.2585 30.7004 9.80351C30.505 9.45186 30.1819 9.19327 29.8012 9.08393C29.6783 9.05276 29.5529 9.0329 29.4266 9.02458V9.02458Z" fill="#263238"/>
<path d="M24.0485 7.05371H24.0074C23.6657 7.05371 23.3887 7.33713 23.3887 7.68675V10.9632C23.3887 11.3128 23.6657 11.5962 24.0074 11.5962H24.0485C24.3903 11.5962 24.6673 11.3128 24.6673 10.9632V7.68675C24.6673 7.33713 24.3903 7.05371 24.0485 7.05371Z" fill="#E0E0E0"/>
<path d="M24.0507 11.5963C24.1823 11.5774 24.307 11.5246 24.4132 11.443C24.5319 11.3435 24.6081 11.2007 24.6259 11.0449C24.6259 10.8643 24.6259 10.6393 24.6259 10.4019C24.6259 9.90737 24.6259 9.34357 24.6259 8.71548C24.6259 8.39649 24.6259 8.06266 24.6259 7.72636C24.6299 7.64532 24.617 7.56434 24.5881 7.48877C24.5592 7.4132 24.515 7.34477 24.4583 7.28798C24.4017 7.23119 24.3339 7.18734 24.2595 7.15933C24.185 7.13131 24.1056 7.11978 24.0265 7.12547C23.9468 7.12529 23.868 7.14264 23.7954 7.17635C23.7229 7.21005 23.6583 7.25932 23.6059 7.32082C23.5551 7.38228 23.5169 7.45359 23.4937 7.5305C23.4704 7.6074 23.4626 7.68832 23.4706 7.7684C23.4706 8.11459 23.4706 8.44842 23.4706 8.75752C23.4706 9.38808 23.4706 9.9593 23.4706 10.4464C23.4706 10.5651 23.4706 10.6789 23.4706 10.7877C23.4618 10.8864 23.4618 10.9857 23.4706 11.0844C23.5 11.2392 23.5865 11.3765 23.7123 11.4677C23.8247 11.5419 23.9535 11.5861 24.0869 11.5963C24.0518 11.6037 24.0157 11.6037 23.9806 11.5963C23.8757 11.5911 23.774 11.5579 23.6857 11.4998C23.543 11.4057 23.4416 11.2585 23.4029 11.0894C23.3874 10.9863 23.3818 10.882 23.386 10.7778C23.386 10.669 23.386 10.5552 23.386 10.4365C23.386 9.94199 23.386 9.37819 23.3715 8.74763C23.3715 8.43111 23.3715 8.09728 23.3715 7.75851C23.3629 7.66316 23.3731 7.56702 23.4013 7.47573C23.4295 7.38444 23.4752 7.29983 23.5358 7.22686C23.5991 7.15002 23.6779 7.08812 23.7667 7.04543C23.8556 7.00274 23.9525 6.98027 24.0507 6.97958C24.1477 6.97414 24.2447 6.98961 24.3354 7.02496C24.4262 7.06032 24.5087 7.11478 24.5776 7.18482C24.6348 7.25974 24.6768 7.34554 24.7013 7.43723C24.7258 7.52893 24.7322 7.62469 24.7202 7.71894C24.7202 8.06266 24.7202 8.39649 24.7202 8.70806C24.7202 9.33615 24.7202 9.90737 24.7057 10.3945C24.7057 10.6418 24.7057 10.847 24.6888 11.0473C24.6767 11.1324 24.648 11.2141 24.6044 11.2876C24.5608 11.3611 24.5032 11.4249 24.435 11.4751C24.352 11.5397 24.2534 11.5799 24.1498 11.5913C24.1174 11.5996 24.0837 11.6013 24.0507 11.5963V11.5963Z" fill="#263238"/>
<path d="M18.0472 7.05371H18.0061C17.6644 7.05371 17.3873 7.33713 17.3873 7.68675V10.9632C17.3873 11.3128 17.6644 11.5962 18.0061 11.5962H18.0472C18.3889 11.5962 18.666 11.3128 18.666 10.9632V7.68675C18.666 7.33713 18.3889 7.05371 18.0472 7.05371Z" fill="#E0E0E0"/>
<path d="M18.0468 11.5964C18.1793 11.5781 18.305 11.5253 18.4118 11.4431C18.5304 11.3436 18.6067 11.2008 18.6245 11.045C18.6245 10.8644 18.6245 10.6394 18.6245 10.402C18.6245 9.90747 18.6245 9.34367 18.61 8.71558C18.61 8.39659 18.61 8.06276 18.61 7.72646C18.6139 7.64542 18.6011 7.56444 18.5722 7.48887C18.5433 7.41331 18.499 7.34487 18.4424 7.28808C18.3857 7.23129 18.3179 7.18744 18.2435 7.15943C18.1691 7.13141 18.0897 7.11988 18.0106 7.12557C17.9308 7.12507 17.8519 7.14227 17.7793 7.176C17.7067 7.20972 17.6421 7.25917 17.59 7.32092C17.5388 7.38226 17.5003 7.45349 17.4766 7.53038C17.453 7.60728 17.4446 7.68826 17.4522 7.7685C17.4522 8.11469 17.4522 8.44852 17.4522 8.75762C17.4522 9.38818 17.4522 9.9594 17.4377 10.4465C17.4377 10.5652 17.4377 10.679 17.4377 10.7878C17.4289 10.8865 17.4289 10.9858 17.4377 11.0845C17.4661 11.2397 17.5529 11.3773 17.6794 11.4678C17.7909 11.5421 17.9189 11.5864 18.0516 11.5964C18.0516 11.5964 18.0178 11.5964 17.9453 11.5964C17.8412 11.5911 17.7403 11.5579 17.6528 11.4999C17.5094 11.4066 17.4078 11.2591 17.37 11.0895C17.3549 10.9864 17.3485 10.8821 17.3507 10.7779C17.3507 10.6691 17.3507 10.5553 17.3507 10.4366C17.3507 9.94209 17.3507 9.37829 17.3507 8.74773C17.3507 8.43121 17.3507 8.09738 17.3507 7.75861C17.3365 7.56593 17.3963 7.37519 17.5175 7.22696C17.5806 7.14999 17.6594 7.08801 17.7483 7.0453C17.8372 7.0026 17.9341 6.98021 18.0323 6.97968C18.129 6.97397 18.2257 6.98931 18.3161 7.0247C18.4065 7.06008 18.4886 7.11469 18.5568 7.18492C18.623 7.25389 18.6747 7.33596 18.7088 7.42611C18.7429 7.51625 18.7586 7.61257 18.755 7.70915C18.755 8.05287 18.755 8.3867 18.755 8.69827C18.755 9.32636 18.755 9.89758 18.755 10.3847C18.755 10.632 18.755 10.8372 18.7381 11.0375C18.7149 11.2068 18.6282 11.3603 18.4964 11.4653C18.4132 11.5295 18.3147 11.5696 18.2112 11.5815C18.1593 11.6042 18.1017 11.6094 18.0468 11.5964V11.5964Z" fill="#263238"/>
<g opacity="0.3">
<path opacity="0.3" d="M16.6543 9.21484C16.7349 10.0202 16.6596 10.834 16.4326 11.6096C16.2057 12.3851 15.8316 13.1074 15.3317 13.735C14.8318 14.3626 14.2159 14.8833 13.5192 15.2673C12.8226 15.6513 12.0588 15.8911 11.2715 15.973L11.5132 12.5927L14.5079 9.26183L16.6543 9.21484Z" fill="black"/>
</g>
<path d="M11.9132 14.5694C14.9318 13.7908 16.7619 10.6562 16.0009 7.56809C15.2399 4.47994 12.1759 2.60764 9.15736 3.3862C6.1388 4.16475 4.30869 7.29934 5.0697 10.3875C5.83072 13.4756 8.89466 15.3479 11.9132 14.5694Z" fill="white"/>
<path d="M10.5307 15.3643C9.33355 15.3635 8.16183 15.0106 7.15521 14.3477C6.14859 13.6847 5.3495 12.7396 4.85318 11.625C4.35687 10.5105 4.18424 9.27343 4.35589 8.06131C4.52753 6.84919 5.0362 5.71311 5.82128 4.78846C6.60637 3.86381 7.63475 3.18959 8.78389 2.84613C9.93303 2.50267 11.1545 2.50446 12.3026 2.85129C13.4508 3.19812 14.4773 3.87536 15.2598 4.80231C16.0423 5.72926 16.5478 6.86682 16.716 8.07944V8.07944C16.9465 9.75603 16.5176 11.4577 15.5235 12.8113C14.5294 14.1649 13.0512 15.0599 11.413 15.3C11.1208 15.3433 10.8259 15.3648 10.5307 15.3643V15.3643ZM10.5452 3.83366C10.3026 3.83338 10.0603 3.85073 9.82011 3.88559C8.83615 4.03017 7.91618 4.46993 7.17646 5.14927C6.43673 5.82862 5.91046 6.71706 5.66416 7.70232C5.41785 8.68757 5.46257 9.72541 5.79265 10.6847C6.12274 11.6439 6.72338 12.4816 7.51866 13.0917C8.31394 13.7018 9.26816 14.0571 10.2607 14.1125C11.2533 14.168 12.2397 13.9211 13.0952 13.4033C13.9507 12.8854 14.6369 12.1196 15.0671 11.2028C15.4973 10.2861 15.6523 9.25938 15.5123 8.25254V8.25254C15.342 7.02809 14.7462 5.90741 13.8339 5.09585C12.9217 4.28429 11.7541 3.83619 10.5452 3.83366V3.83366Z" fill="#455A64"/>
<path d="M10.5447 3.83366C10.572 3.82976 10.5996 3.82976 10.6269 3.83366C10.6801 3.83366 10.7598 3.83366 10.8686 3.83366C11.1766 3.8479 11.4826 3.89262 11.7823 3.96719C12.2573 4.0873 12.7125 4.27809 13.1334 4.53346C13.6942 4.87158 14.1864 5.31646 14.5836 5.84404C15.0635 6.48542 15.389 7.23345 15.5335 8.02752C15.5705 8.24525 15.5963 8.4648 15.6109 8.68528C15.617 8.79812 15.617 8.91121 15.6109 9.02405C15.6109 9.1378 15.6109 9.25402 15.6109 9.36777C15.5724 9.84336 15.475 10.312 15.3208 10.7624C15.1417 11.2306 14.9036 11.6728 14.6126 12.078C14.3036 12.4938 13.94 12.864 13.5322 13.1783C12.6577 13.8317 11.6022 14.1825 10.5194 14.1799C9.43651 14.1772 8.38272 13.8212 7.51129 13.1635C7.10281 12.849 6.73916 12.4778 6.43086 12.0606C6.14642 11.6523 5.91563 11.2075 5.74441 10.7377C5.59184 10.2879 5.496 9.8201 5.4592 9.34552C5.39494 8.38343 5.59381 7.42205 6.03352 6.56908C6.47324 5.71611 7.13642 5.00525 7.94878 4.51615C8.5262 4.17157 9.16591 3.95033 9.82926 3.8658L10.2184 3.84355L10.4601 3.83118C10.4874 3.82841 10.515 3.82841 10.5423 3.83118H10.4601L10.2184 3.85344L9.83168 3.88806C9.6794 3.91279 9.50779 3.94741 9.31442 3.99686C8.21846 4.2835 7.25026 4.94269 6.56863 5.86629C6.09941 6.497 5.78074 7.23116 5.63806 8.01021C5.55851 8.44202 5.53494 8.88267 5.56797 9.32079C5.60493 9.78546 5.69997 10.2434 5.85076 10.6833C6.01905 11.1413 6.2458 11.5745 6.52513 11.9716C6.82732 12.378 7.18274 12.74 7.58138 13.0473C8.43211 13.6872 9.45982 14.0336 10.5158 14.0362C11.5717 14.0389 12.6011 13.6977 13.4549 13.0621C13.8547 12.7564 14.211 12.3952 14.5135 11.9889C14.7943 11.5928 15.0227 11.1604 15.1927 10.7031C15.3469 10.2646 15.4445 9.80738 15.4828 9.34304C15.4973 9.23177 15.4828 9.11802 15.4828 9.00674C15.4888 8.89638 15.4888 8.78575 15.4828 8.67539C15.461 8.45531 15.4514 8.24018 15.4103 8.02999C15.2723 7.25018 14.9577 6.51426 14.4918 5.88113C13.8092 4.95942 12.8454 4.29716 11.7532 3.99933C11.4569 3.92023 11.1545 3.86728 10.8493 3.84108C10.6559 3.8386 10.5447 3.8386 10.5447 3.83366Z" fill="#263238"/>
<path d="M10.5304 15.3642C10.5304 15.3642 10.5643 15.3642 10.632 15.3642L10.9268 15.3419C11.0574 15.3295 11.2169 15.3147 11.4103 15.285L12.0556 15.149C12.635 14.9885 13.191 14.7499 13.7089 14.4393C14.3875 14.0153 14.9834 13.4661 15.4661 12.8196C16.0438 12.0312 16.4366 11.1175 16.6142 10.149C16.6422 10.0186 16.6615 9.88644 16.6722 9.75338C16.6722 9.61985 16.7012 9.48632 16.7133 9.34784C16.7254 9.20937 16.7133 9.07584 16.7133 8.93489V8.72717L16.694 8.51699C16.6566 7.9384 16.5394 7.36813 16.3459 6.82312C15.9114 5.60511 15.1224 4.55265 14.0851 3.80762C13.0479 3.0626 11.8123 2.66083 10.545 2.65646C9.27397 2.65217 8.03263 3.04903 6.99018 3.79291C5.94773 4.53679 5.1549 5.5915 4.71981 6.81323C4.33866 7.88041 4.24924 9.03373 4.46119 10.149C4.5511 10.6517 4.6996 11.1415 4.90351 11.608C5.0019 11.8265 5.11163 12.0394 5.23223 12.246L5.41109 12.5452L5.61171 12.8196C6.08872 13.4668 6.68281 14.0141 7.36167 14.4319C7.87786 14.7459 8.4343 14.9848 9.01495 15.1416C9.22621 15.2003 9.44097 15.2449 9.65789 15.2751C9.8177 15.3045 9.97915 15.3235 10.1413 15.332L10.4386 15.3543C10.4724 15.3516 10.5063 15.3516 10.5401 15.3543H10.4386H10.1413C9.97926 15.3506 9.81769 15.3349 9.65789 15.3073C9.4392 15.283 9.22264 15.2417 9.01011 15.1836C8.42154 15.0347 7.85672 14.8007 7.33266 14.4888C6.63638 14.0721 6.02502 13.5222 5.53195 12.8691L5.32891 12.5922L5.14522 12.2905C5.02102 12.0776 4.90806 11.858 4.80683 11.6327C4.59804 11.1585 4.44548 10.6604 4.35242 10.149C4.13654 9.01688 4.22509 7.84601 4.60863 6.7613C5.0517 5.51753 5.85858 4.44362 6.91947 3.68569C7.98036 2.92776 9.24374 2.52262 10.5377 2.5254C11.8322 2.52651 13.095 2.9353 14.1545 3.69625C15.214 4.4572 16.0188 5.5334 16.4595 6.77861C16.6562 7.33562 16.7742 7.91847 16.81 8.50957L16.8269 8.72223V8.93489C16.8269 9.07584 16.8269 9.21679 16.8269 9.35526C16.8269 9.49374 16.7882 9.62727 16.7882 9.76327C16.7779 9.89898 16.7577 10.0337 16.7278 10.1663C16.5385 11.1497 16.1289 12.0749 15.5314 12.8691C15.039 13.5213 14.4315 14.0732 13.7403 14.4962C13.2139 14.8038 12.6498 15.0383 12.0629 15.1935L11.4103 15.3172C11.25 15.3405 11.0886 15.3554 10.9268 15.3617C10.7963 15.3617 10.6851 15.3617 10.6295 15.3617L10.5304 15.3642Z" fill="#263238"/>
<path d="M13.3957 1.03005L12.8807 1.875L16.1926 3.98766L16.7076 3.1427L13.3957 1.03005Z" fill="#455A64"/>
<path d="M16.1862 4.01186C16.1862 4.01186 16.2297 3.92284 16.3143 3.76458L16.6696 3.14144L16.6817 3.19337C15.9324 2.73096 14.7215 1.98912 13.3655 1.11128L13.4525 1.09149L13.4356 1.11869L13.3848 1.19782L13.3196 1.30663L13.1891 1.51929L12.9473 1.93472L12.9208 1.8457C13.8465 2.44411 14.6562 2.97824 15.2411 3.36894L15.9324 3.83135C16.0944 3.94263 16.1741 4.00445 16.1741 4.01186C16.0892 3.97421 16.0082 3.92781 15.9324 3.87339L15.2411 3.45054C14.6465 3.08457 13.8054 2.56033 12.8507 1.9545L12.7975 1.91988L12.8313 1.86795L13.073 1.45005L13.2132 1.24728L13.2785 1.14095L13.3123 1.08655L13.3292 1.04946V1.03462L13.4308 1C14.7892 1.86795 15.988 2.64688 16.7228 3.13402L16.7542 3.15628L16.7349 3.18842C16.5609 3.45796 16.4231 3.66815 16.3312 3.80662C16.2895 3.8797 16.241 3.94844 16.1862 4.01186Z" fill="#263238"/>
<path d="M5.43427 2.41824L2.72656 5.57031L3.45643 6.22653L6.16414 3.07446L5.43427 2.41824Z" fill="#455A64"/>
<path d="M3.45784 6.22508C3.45784 6.22508 3.53035 6.12617 3.66087 5.96296L4.21921 5.28294C4.70263 4.71173 5.35524 3.92291 6.1142 3.0327V3.12172L5.38908 2.46643H5.47851L5.45434 2.48374L5.42775 2.52083L5.37699 2.58018L5.27306 2.70135L5.06761 2.94863L4.67121 3.40115L3.92917 4.25426L2.75447 5.59452V5.54011C2.96476 5.74041 3.13637 5.90609 3.27172 6.03467C3.33833 6.095 3.40129 6.15941 3.46025 6.22755C3.38653 6.18212 3.31696 6.12998 3.25239 6.07177C3.12428 5.96543 2.93333 5.80718 2.69404 5.59699L2.66504 5.57226L2.68921 5.54259L3.8349 4.18008L4.56002 3.31707L4.97576 2.85466C5.04102 2.77553 5.11111 2.6964 5.17879 2.60738L5.28273 2.48621L5.33348 2.42439L5.36007 2.39472L5.37457 2.37988H5.46401C5.70571 2.60738 5.94742 2.82746 6.18913 3.03765L6.23505 3.07968L6.19396 3.12667C5.42775 4.02182 4.73647 4.80817 4.24339 5.36207L3.66571 6.00747C3.60116 6.0846 3.53172 6.15729 3.45784 6.22508V6.22508Z" fill="#263238"/>
<path d="M8.0769 9.48204L8.5579 8.54485L10.2764 9.34109L12.1255 5.89648L12.9908 6.40341L10.5955 10.7481L8.0769 9.48204Z" fill="#455A64"/>
<path d="M10.5981 10.7551L8.06982 9.48411L8.55324 8.54198L10.2669 9.33327L12.1233 5.88867L12.9934 6.39807L10.5981 10.7551ZM8.08674 9.47917L10.5957 10.7403L12.9861 6.40549L12.1305 5.91093L10.279 9.34811L8.57016 8.55434L8.08674 9.47917Z" fill="#263238"/>
<path d="M7.17763 16.0966C7.08627 16.0679 6.99799 16.0298 6.91417 15.9829C6.81311 15.9348 6.71467 15.8811 6.61929 15.8221C6.48943 15.7466 6.36357 15.664 6.24222 15.5749C5.92121 15.3548 5.61955 15.1066 5.34066 14.833C4.99971 14.4986 4.69055 14.1318 4.41734 13.7376C4.15313 13.3427 3.92497 12.9239 3.73572 12.4863C3.58235 12.1249 3.45865 11.7511 3.36591 11.3686C3.32876 11.2219 3.29891 11.0734 3.27648 10.9235C3.25411 10.8117 3.23877 10.6986 3.23056 10.5848C3.21606 10.4882 3.2112 10.3905 3.21605 10.293C3.24022 10.293 3.2789 10.7035 3.45776 11.3439C3.56011 11.7186 3.69021 12.0848 3.84691 12.4394C4.0428 12.8707 4.27405 13.2843 4.53819 13.6758C4.80431 14.0626 5.10186 14.4257 5.42767 14.7613C5.70051 15.03 5.99214 15.2779 6.30023 15.5031C6.82232 15.8963 7.18971 16.0843 7.17763 16.0966Z" fill="#263238"/>
<path d="M4.32564 14.7781C4.17113 14.6379 4.03541 14.4774 3.92199 14.3008C3.62791 13.8915 3.37142 13.4553 3.15578 12.9977C2.94043 12.5389 2.76805 12.0604 2.64095 11.5684C2.57522 11.3687 2.53699 11.1607 2.52734 10.9502C2.60442 11.1437 2.6698 11.3419 2.72313 11.5437C2.87298 12.0212 3.05385 12.4879 3.26455 12.9408C3.47863 13.3923 3.72083 13.8292 3.98967 14.2489C4.11389 14.4169 4.22616 14.5937 4.32564 14.7781V14.7781Z" fill="#263238"/>
</g>
<defs>
<clipPath id="clip0_1204_4187">
<rect width="29" height="32.1636" fill="white" transform="translate(2 1)"/>
</clipPath>
</defs>
</svg>
