<svg width="34" height="34" viewBox="0 0 34 34" fill="none" xmlns="http://www.w3.org/2000/svg">
<g clip-path="url(#clip0_1202_3382)">
<g clip-path="url(#clip1_1202_3382)">
<path d="M15.0403 3.41853L13.235 5.20996L32.5874 24.4139L34.3926 22.6225L15.0403 3.41853Z" fill="#858585"/>
<path d="M22.1687 10.2398L20.1204 12.2725L25.7501 17.859L27.7984 15.8264L22.1687 10.2398Z" fill="#2C3E50"/>
<path d="M32.577 13.2544L23.1488 22.6104L24.6851 24.1348L34.1133 14.7789L32.577 13.2544Z" fill="#383838"/>
<path d="M32.5818 13.2524L23.1536 22.6084L23.9217 23.3706L33.3499 14.0147L32.5818 13.2524Z" fill="#1F1F1F"/>
<path d="M33.4979 15.3922L25.3077 23.5195L26.6431 24.8446L34.8332 16.7172L33.4979 15.3922Z" fill="#383838"/>
<path d="M33.4947 15.3941L25.3046 23.5215L26.0046 24.2162L34.1948 16.0888L33.4947 15.3941Z" fill="#1F1F1F"/>
<path d="M33.9494 17.591L27.5223 23.9688L28.5692 25.0076L34.9962 18.6298L33.9494 17.591Z" fill="#383838"/>
<path d="M33.9524 17.593L27.5254 23.9707L28.0504 24.4917L34.4775 18.114L33.9524 17.593Z" fill="#1F1F1F"/>
<path d="M33.2702 20.343L30.2787 23.3115L31.251 24.2764L34.2425 21.3078L33.2702 20.343Z" fill="#2B2B2B"/>
<path d="M33.0474 21.8261L33.3866 22.1627L34.1062 21.4486L33.767 21.112C33.7205 21.0654 33.6652 21.0284 33.6042 21.0031C33.5433 20.9778 33.4779 20.9648 33.4118 20.9648C33.3457 20.9648 33.2803 20.9778 33.2193 21.0031C33.1583 21.0284 33.103 21.0654 33.0566 21.112V21.112C33.0076 21.1576 32.9684 21.2126 32.9413 21.2736C32.9142 21.3346 32.8998 21.4004 32.899 21.4671C32.8981 21.5338 32.9108 21.5999 32.9363 21.6616C32.9618 21.7233 32.9996 21.7792 33.0474 21.8261V21.8261Z" fill="#0F0F0F"/>
<path d="M31.0307 23.8278L31.3653 24.1644L32.0849 23.4684L31.7457 23.1364C31.6992 23.0898 31.6439 23.0528 31.5829 23.0275C31.522 23.0023 31.4566 22.9893 31.3905 22.9893C31.3244 22.9893 31.259 23.0023 31.198 23.0275C31.137 23.0528 31.0817 23.0898 31.0353 23.1364V23.1364C30.9439 23.2284 30.8923 23.3521 30.8915 23.4812C30.8906 23.6103 30.9406 23.7346 31.0307 23.8278V23.8278Z" fill="#0F0F0F"/>
<path d="M32.0482 22.8173L32.3874 23.1539L33.107 22.4398L32.7679 22.1032C32.7214 22.0566 32.6661 22.0196 32.6051 21.9943C32.5441 21.9691 32.4787 21.9561 32.4126 21.9561C32.3466 21.9561 32.2811 21.9691 32.2202 21.9943C32.1592 22.0196 32.1039 22.0566 32.0574 22.1032V22.1032C32.0084 22.1488 31.9692 22.2038 31.9422 22.2648C31.9151 22.3259 31.9007 22.3917 31.8998 22.4583C31.899 22.525 31.9117 22.5911 31.9372 22.6528C31.9627 22.7145 32.0005 22.7705 32.0482 22.8173V22.8173Z" fill="#0F0F0F"/>
<path d="M23.1317 3.87549L13.7035 13.2314L15.2398 14.7559L24.668 5.39997L23.1317 3.87549Z" fill="#383838"/>
<path d="M23.8982 4.63721L14.47 13.9932L15.2381 14.7554L24.6663 5.39945L23.8982 4.63721Z" fill="#1F1F1F"/>
<path d="M21.1769 3.16267L12.9867 11.29L14.322 12.6151L22.5122 4.48775L21.1769 3.16267Z" fill="#383838"/>
<path d="M21.812 3.79549L13.6218 11.9229L14.3219 12.6176L22.5121 4.49019L21.812 3.79549Z" fill="#1F1F1F"/>
<path d="M19.2462 3.00018L12.8192 9.37793L13.8661 10.4168L20.2931 4.03902L19.2462 3.00018Z" fill="#383838"/>
<path d="M19.7728 3.51972L13.3458 9.89746L13.8709 10.4185L20.2979 4.04074L19.7728 3.51972Z" fill="#1F1F1F"/>
<path d="M16.5459 3.7541L13.5544 6.72266L14.5268 7.68752L17.5183 4.71896L16.5459 3.7541Z" fill="#2B2B2B"/>
<path d="M16.0424 4.9381L15.7032 4.60151L16.4091 3.91016L16.7483 4.24674C16.841 4.34103 16.8928 4.46753 16.8928 4.59924C16.8928 4.73095 16.841 4.85745 16.7483 4.95174V4.95174C16.6517 5.04054 16.5242 5.08873 16.3926 5.08618C16.261 5.08364 16.1354 5.03056 16.0424 4.9381V4.9381Z" fill="#0F0F0F"/>
<path d="M14.0074 6.93935L13.6682 6.60277L14.3878 5.88867L14.727 6.22525C14.774 6.27136 14.8113 6.32626 14.8367 6.38676C14.8622 6.44727 14.8753 6.51219 14.8753 6.57776C14.8753 6.64332 14.8622 6.70824 14.8367 6.76875C14.8113 6.82926 14.774 6.88415 14.727 6.93026V6.93026C14.681 6.97886 14.6256 7.01776 14.5641 7.04463C14.5027 7.0715 14.4363 7.08579 14.3692 7.08664C14.302 7.08749 14.2353 7.07488 14.1732 7.04957C14.111 7.02427 14.0546 6.98678 14.0074 6.93935V6.93935Z" fill="#0F0F0F"/>
<path d="M15.0295 5.92959L14.6903 5.59301L15.4099 4.87891L15.7491 5.21549C15.8418 5.30978 15.8936 5.43628 15.8936 5.56799C15.8936 5.6997 15.8418 5.8262 15.7491 5.92049V5.92049C15.7025 5.96799 15.6469 6.00591 15.5854 6.03207C15.524 6.05824 15.458 6.07214 15.3912 6.07298C15.3244 6.07383 15.258 6.0616 15.196 6.03699C15.1339 6.01239 15.0773 5.97589 15.0295 5.92959V5.92959Z" fill="#0F0F0F"/>
<path d="M2.22226 9.40877L0.416992 11.2002L19.7694 30.4042L21.5746 28.6128L2.22226 9.40877Z" fill="#858585"/>
<path d="M9.34938 16.2271L7.30103 18.2598L12.9307 23.8463L14.9791 21.8137L9.34938 16.2271Z" fill="#2C3E50"/>
<path d="M19.7577 19.2417L10.3295 28.5977L11.8657 30.1221L21.294 20.7662L19.7577 19.2417Z" fill="#383838"/>
<path d="M19.7593 19.2427L10.3311 28.5986L11.0992 29.3609L20.5274 20.0049L19.7593 19.2427Z" fill="#1F1F1F"/>
<path d="M20.6799 21.3824L12.4897 29.5098L13.8251 30.8348L22.0152 22.7075L20.6799 21.3824Z" fill="#383838"/>
<path d="M20.6787 21.3844L12.4885 29.5117L13.1886 30.2064L21.3788 22.0791L20.6787 21.3844Z" fill="#1F1F1F"/>
<path d="M21.1314 23.5812L14.7043 29.959L15.7512 30.9978L22.1782 24.6201L21.1314 23.5812Z" fill="#383838"/>
<path d="M21.1344 23.5832L14.7074 29.9609L15.2325 30.482L21.6595 24.1042L21.1344 23.5832Z" fill="#1F1F1F"/>
<path d="M20.451 26.342L17.4595 29.3105L18.4318 30.2754L21.4233 27.3068L20.451 26.342Z" fill="#2B2B2B"/>
<path d="M20.2273 27.8167L20.5665 28.1532L21.2861 27.4391L20.9469 27.1071C20.9004 27.0605 20.8451 27.0235 20.7841 26.9982C20.7232 26.973 20.6577 26.96 20.5917 26.96C20.5256 26.96 20.4602 26.973 20.3992 26.9982C20.3382 27.0235 20.2829 27.0605 20.2364 27.1071C20.1882 27.1527 20.1496 27.2074 20.1229 27.268C20.0962 27.3286 20.0821 27.3939 20.0812 27.46C20.0804 27.5261 20.0928 27.5917 20.1179 27.653C20.143 27.7142 20.1802 27.7699 20.2273 27.8167V27.8167Z" fill="#0F0F0F"/>
<path d="M18.2105 29.8362L18.5497 30.1683L19.251 29.4405L18.9164 29.1085C18.8695 29.0617 18.8138 29.0246 18.7525 28.9993C18.6911 28.974 18.6253 28.9609 18.5589 28.9609C18.4924 28.9609 18.4266 28.974 18.3653 28.9993C18.3039 29.0246 18.2482 29.0617 18.2013 29.1085V29.1085C18.152 29.1559 18.1129 29.2128 18.0865 29.2757C18.0601 29.3386 18.0469 29.4062 18.0478 29.4743C18.0486 29.5425 18.0635 29.6097 18.0915 29.6719C18.1195 29.7342 18.16 29.7901 18.2105 29.8362V29.8362Z" fill="#0F0F0F"/>
<path d="M19.251 28.8075L19.5902 29.1441L20.3098 28.43L19.9706 28.0934C19.9242 28.0468 19.8688 28.0098 19.8079 27.9846C19.7469 27.9593 19.6815 27.9463 19.6154 27.9463C19.5493 27.9463 19.4839 27.9593 19.4229 27.9846C19.362 28.0098 19.3066 28.0468 19.2602 28.0934C19.2112 28.1391 19.172 28.1941 19.1449 28.2551C19.1178 28.3161 19.1034 28.3819 19.1026 28.4486C19.1017 28.5152 19.1144 28.5814 19.1399 28.6431C19.1654 28.7047 19.2032 28.7607 19.251 28.8075V28.8075Z" fill="#0F0F0F"/>
<path d="M10.3091 9.87061L0.880859 19.2266L2.41712 20.751L11.8454 11.3951L10.3091 9.87061Z" fill="#383838"/>
<path d="M11.0802 10.6274L1.65198 19.9834L2.42011 20.7456L11.8484 11.3897L11.0802 10.6274Z" fill="#1F1F1F"/>
<path d="M8.35422 9.15389L0.164062 17.2812L1.49938 18.6063L9.68954 10.479L8.35422 9.15389Z" fill="#383838"/>
<path d="M8.98948 9.7906L0.799316 17.918L1.49939 18.6127L9.68955 10.4853L8.98948 9.7906Z" fill="#1F1F1F"/>
<path d="M6.42824 8.99042L0.0012207 15.3682L1.04808 16.407L7.47511 10.0293L6.42824 8.99042Z" fill="#383838"/>
<path d="M6.95022 9.50995L0.523193 15.8877L1.04824 16.4087L7.47527 10.031L6.95022 9.50995Z" fill="#1F1F1F"/>
<path d="M3.72795 9.74433L0.73645 12.7129L1.70877 13.6778L4.70027 10.7092L3.72795 9.74433Z" fill="#2B2B2B"/>
<path d="M3.20845 10.9286L2.86926 10.592L3.58888 9.87793L3.92806 10.2145C3.97504 10.2606 4.01234 10.3155 4.03779 10.376C4.06325 10.4365 4.07635 10.5014 4.07635 10.567C4.07635 10.6326 4.06325 10.6975 4.03779 10.758C4.01234 10.8185 3.97504 10.8734 3.92806 10.9195C3.88207 10.9681 3.82668 11.007 3.76519 11.0339C3.7037 11.0608 3.63738 11.075 3.5702 11.0759C3.50302 11.0767 3.43636 11.0641 3.3742 11.0388C3.31204 11.0135 3.25567 10.976 3.20845 10.9286V10.9286Z" fill="#0F0F0F"/>
<path d="M1.18714 12.9299L0.852539 12.5979L1.57216 11.8838L1.90676 12.2158C1.95387 12.2623 1.99127 12.3176 2.01678 12.3785C2.0423 12.4394 2.05543 12.5047 2.05543 12.5706C2.05543 12.6365 2.0423 12.7018 2.01678 12.7627C1.99127 12.8236 1.95387 12.8789 1.90676 12.9254V12.9254C1.86013 12.9731 1.80438 13.0112 1.74276 13.0373C1.68115 13.0634 1.61491 13.0771 1.54791 13.0775C1.48091 13.0779 1.4145 13.0651 1.35255 13.0397C1.29061 13.0144 1.23438 12.9771 1.18714 12.9299V12.9299Z" fill="#0F0F0F"/>
<path d="M2.2093 11.9198L1.87012 11.5832L2.58973 10.8691L2.92892 11.2057C2.9759 11.2518 3.01319 11.3067 3.03865 11.3672C3.0641 11.4277 3.07721 11.4927 3.07721 11.5582C3.07721 11.6238 3.0641 11.6887 3.03865 11.7492C3.01319 11.8097 2.9759 11.8646 2.92892 11.9107V11.9107C2.88293 11.9593 2.82753 11.9982 2.76605 12.0251C2.70456 12.052 2.63824 12.0663 2.57106 12.0671C2.50388 12.068 2.43721 12.0554 2.37506 12.03C2.3129 12.0047 2.25652 11.9673 2.2093 11.9198V11.9198Z" fill="#0F0F0F"/>
</g>
</g>
<defs>
<clipPath id="clip0_1202_3382">
<rect width="34" height="34" fill="white"/>
</clipPath>
<clipPath id="clip1_1202_3382">
<rect width="35" height="28" fill="white" transform="translate(0 3)"/>
</clipPath>
</defs>
</svg>
