<svg width="34" height="34" viewBox="0 0 34 34" fill="none" xmlns="http://www.w3.org/2000/svg">
<path d="M17.3415 34C9.985 34 4 28.0004 4 20.626C4 14.8908 6.60644 9.77681 10.4333 5.57688C13.5808 2.12256 16.6958 0.220421 16.8268 0.141198C17.5173 -0.276497 18.444 0.292604 18.444 1.06225V10.224L23.1313 5.84921C23.5382 5.46944 24.1823 5.49573 24.5553 5.91748C26.3368 7.93125 27.7549 10.0578 28.7702 12.2381C34.4329 24.3987 26.6268 34 17.3415 34Z" fill="#FE4E33"/>
<path d="M28.7701 12.2385C27.7548 10.0581 26.3367 7.93161 24.5552 5.91784C24.1822 5.49603 23.5381 5.4698 23.1312 5.84957L18.4439 10.2244V1.06261C18.4439 0.483152 17.9187 0.0175781 17.3645 0.000976562V34.0001C26.6396 33.9842 34.4281 24.3889 28.7701 12.2385Z" fill="#FE1600"/>
<path d="M17.3415 34.0002C14.5458 34.0002 12.2714 31.7202 12.2714 28.9178C12.2714 24.3894 16.668 21.708 16.8551 21.5961C17.1832 21.4 17.5939 21.4091 17.9129 21.6193C18.0966 21.7404 22.4116 24.6346 22.4116 28.9178C22.4116 31.7202 20.1372 34.0002 17.3415 34.0002Z" fill="#FEC356"/>
<path d="M22.4115 28.9173C22.4115 24.6342 18.0965 21.74 17.9129 21.6188C17.7467 21.5093 17.5558 21.4549 17.3645 21.4551V33.9992C20.1495 33.9866 22.4115 31.712 22.4115 28.9173Z" fill="#FEB020"/>
</svg>
