<svg width="34" height="34" viewBox="0 0 34 34" fill="none" xmlns="http://www.w3.org/2000/svg">
<path d="M0.859009 14.1587C1.00099 16.4906 6.82231 18.5416 16.6759 18.5416C26.8703 18.5416 32.4077 16.9964 32.4929 14.1587C32.5781 11.321 27.0691 9.27004 16.9031 9.29814C8.38412 9.32623 1.22817 9.91624 0.859009 14.1587Z" fill="#F7D3B0"/>
<path d="M1.54065 14.1307C1.68263 16.2098 7.24838 18.036 16.6761 18.036C26.4161 18.036 31.7263 16.6593 31.8115 14.1307C31.8967 11.6021 26.6149 9.74779 16.9032 9.80398C8.72501 9.83207 1.88141 10.3659 1.54065 14.1307Z" fill="#E2BFA3"/>
<path d="M1.54065 14.1306C1.65424 15.7882 5.23222 17.3054 11.5363 17.8392C11.1955 17.6144 10.8832 17.3616 10.5424 17.1087C8.61142 15.5635 7.0496 13.5406 6.05572 11.2648C5.97053 11.0681 5.88534 10.8715 5.80015 10.6748C3.30124 11.2929 1.71103 12.3605 1.54065 14.1306Z" fill="#CEAD97"/>
<path d="M8.61129 16.5474C8.4977 16.435 8.35572 16.3227 8.27053 16.1541C8.18534 15.9855 8.15694 15.8169 8.12854 15.6484C8.01496 15.1707 7.6458 14.7774 7.16306 14.6088C7.04947 14.5526 6.90749 14.5245 6.8223 14.4403C6.73711 14.3279 6.73711 14.2155 6.73711 14.075C6.68031 13.5693 6.31116 13.1478 5.82841 12.9793C5.68643 12.9231 5.51605 12.895 5.40246 12.8107C5.1185 12.614 5.17529 12.1926 5.00491 11.8835C4.91972 11.715 4.74934 11.6026 4.60736 11.4621C4.35179 11.2654 4.09622 11.0407 3.84065 10.844C3.58508 10.6192 3.30111 10.4226 2.96035 10.3664C2.78997 10.3383 2.5912 10.3664 2.44921 10.254C2.30723 10.1697 2.27883 10.0011 2.19364 9.86065C1.88128 9.24255 0.944189 9.07398 0.404652 9.52351C-0.134884 9.97304 -0.134884 10.9002 0.404652 11.3497C0.0354958 11.6588 0.00709918 12.2488 0.205876 12.6702C0.404652 13.0917 0.802206 13.4288 1.19976 13.7098C1.28495 13.7941 1.39854 13.8502 1.45533 13.9626C1.54052 14.1312 1.51212 14.2998 1.51212 14.4683C1.51212 15.255 2.10845 16.0136 2.90356 16.1822L8.98044 18.5141C9.26441 17.8679 9.09403 17.0531 8.61129 16.5474Z" fill="#6FB56B"/>
<path d="M7.19144 12.1367C6.85068 11.7153 6.53832 11.2938 6.33954 10.8162C6.14076 10.3386 6.08397 9.74858 6.28275 9.27095C6.33954 9.15857 6.42473 9.01809 6.42473 8.90571C6.45313 8.73713 6.39633 8.59666 6.36794 8.42808C6.25435 7.86617 6.48152 7.27616 6.90747 6.91091C7.33342 6.54567 7.95815 6.43329 8.49769 6.62996C8.83845 6.349 9.34959 6.29281 9.74714 6.48948C10.1447 6.68615 10.4003 7.13568 10.3719 7.55712C10.7978 7.44473 11.2238 7.72569 11.4509 8.09093C11.6781 8.45618 11.7065 8.90571 11.7349 9.32714C12.3596 9.29905 12.9844 9.58 13.3819 10.0576C13.7511 10.5353 13.8931 11.2376 13.6943 11.8277C14.2906 12.3053 14.8585 12.8672 15.0005 13.6258C15.1425 14.3563 14.6598 15.2553 13.8931 15.2834C14.319 15.3115 14.5178 15.8734 14.319 16.2668C14.1486 16.632 13.7227 16.8568 13.3535 17.0254C12.5584 17.3625 11.7349 17.5873 10.883 17.6997C10.3719 17.7558 9.86073 17.7839 9.37798 17.6154C8.32731 17.222 7.84456 16.0982 7.47541 15.1429C7.10625 14.3001 6.05557 12.8391 7.19144 12.1367Z" fill="#81CC7A"/>
<path d="M22.0146 9.86067C22.2986 9.43924 22.8665 9.24257 23.3493 9.38305C23.4061 8.76494 23.9172 8.23112 24.5135 8.14684C25.1099 8.06255 25.763 8.42779 26.0186 8.98971C26.4161 8.68065 27.0408 9.0459 27.1544 9.52352C27.268 10.0012 27.0124 10.5069 26.7001 10.9002C27.0976 11.0126 27.2964 11.5183 27.2396 11.9117C27.1828 12.305 26.9272 12.6702 26.6717 13.0355C27.2112 13.4288 27.2964 14.2436 26.984 14.8055C26.6717 15.3674 25.9902 15.7046 25.337 15.7327C24.6555 15.7608 24.0876 15.4798 23.4629 15.1989C21.3331 17.7837 18.5218 11.7431 22.043 11.2936C21.7875 10.844 21.7307 10.2821 22.0146 9.86067Z" fill="#6FB56B"/>
<path d="M24.9677 12.3603C25.2517 11.8827 25.5925 11.4613 26.0184 11.1241C26.3308 10.8713 26.6999 10.7027 27.0691 10.5341C28.063 10.0565 29.284 9.55077 30.2211 10.1127C30.3915 10.2251 30.5619 10.3375 30.7322 10.4498C31.1298 10.6465 31.6125 10.5903 32.0669 10.5903C32.5212 10.5903 33.004 10.6465 33.3731 10.8994C33.7707 11.1522 34.0263 11.5737 33.9979 12.0232C33.9695 12.248 33.8559 12.4727 33.8559 12.7256C33.8559 12.9223 33.9411 13.1189 33.9695 13.3437C34.0547 13.8494 33.7139 14.4394 33.1744 14.5237C33.004 14.5518 32.8052 14.5237 32.6064 14.5518C31.7829 14.6642 31.4422 15.7037 30.7039 16.0128C30.4767 16.0971 30.2495 16.1252 30.0223 16.1814C29.7952 16.2656 29.568 16.378 29.3408 16.4904C27.921 17.1366 26.0752 16.7995 24.9961 15.6756C24.0306 14.6361 24.3146 13.428 24.9677 12.3603Z" fill="#81CC7A"/>
<path d="M22.2701 16.1535C22.3553 16.1816 22.4121 16.2097 22.4972 16.1816C22.5824 16.1535 22.6108 16.0411 22.6392 15.9569C22.8096 15.4511 23.4343 15.1421 23.9739 15.3107C24.0875 15.3388 24.201 15.3949 24.3146 15.3949C24.485 15.3668 24.5986 15.2264 24.7406 15.1421C25.0813 14.8892 25.5925 14.9173 25.9048 15.1983C25.99 15.2826 26.0752 15.3668 26.1604 15.423C26.274 15.4792 26.416 15.4511 26.5296 15.5073C26.9555 15.6197 27.0407 16.2378 27.4667 16.3502C27.7506 15.9007 28.4321 15.8164 28.8865 16.1254C29.3408 16.4345 29.5112 16.9964 29.4828 17.5302C29.3976 18.7102 28.2334 19.6936 27.0691 19.6093C26.5296 19.5812 26.0184 19.3283 25.4789 19.3283C24.9677 19.3283 24.485 19.5531 24.0023 19.7217C22.838 20.1712 21.6737 20.0307 21.333 18.7102C21.1058 17.9517 20.7934 15.8164 22.2701 16.1535Z" fill="#6FB56B"/>
<path d="M23.264 9.86035C23.264 9.86035 21.9862 12.3047 25.3086 13.7376C28.631 15.1704 29.5681 12.389 29.5681 12.389L23.264 9.86035Z" fill="#E24C24"/>
<path d="M29.5102 12.4445C29.7946 11.7716 28.6293 10.6487 26.9075 9.9363C25.1856 9.22392 23.5593 9.19187 23.2749 9.86472C22.9905 10.5376 24.1558 11.6605 25.8777 12.3729C27.5995 13.0853 29.2258 13.1173 29.5102 12.4445Z" fill="#FF5A27"/>
<path d="M29.2482 12.3363C29.4962 11.7494 28.4188 10.7446 26.8417 10.0921C25.2645 9.43957 23.7849 9.38642 23.5368 9.97337C23.2887 10.5603 24.3662 11.5651 25.9433 12.2176C27.5205 12.8701 29.0001 12.9233 29.2482 12.3363Z" fill="#FF8B78"/>
<path d="M25.4504 10.2812C25.3084 10.2812 25.138 10.3093 25.1096 10.4498C25.0812 10.506 25.0812 10.5622 25.0528 10.6184C25.0244 10.6746 24.9677 10.6746 24.9393 10.7308C24.9109 10.7589 24.9393 10.8151 24.9393 10.8432C24.996 11.096 25.28 11.2084 25.5356 11.2646C26.1603 11.4613 26.785 11.686 27.4098 11.8827C27.5801 11.9389 27.7789 11.9951 27.8925 11.8827C28.0061 11.7984 28.0061 11.6298 27.9493 11.4894C27.8925 11.3489 27.7789 11.2646 27.6653 11.1803C27.3246 10.9275 26.9554 10.6746 26.5579 10.5341C26.2171 10.4217 25.8763 10.2812 25.4504 10.2812Z" fill="#FF5A27"/>
<path d="M24.0874 10.2245C24.201 10.2526 24.3146 10.3088 24.4281 10.3369C24.4565 10.3369 24.4849 10.3369 24.4849 10.3088C24.5133 10.3088 24.5133 10.2807 24.5133 10.2526C24.5133 10.1964 24.4849 10.1683 24.4281 10.1402C24.3997 10.1402 24.343 10.1121 24.3146 10.1121H24.343C24.2578 10.084 24.201 10.084 24.1158 10.0559C24.059 10.0278 24.0022 10.0559 24.0022 10.1121C24.0306 10.1402 24.0306 10.2245 24.0874 10.2245Z" fill="#FFB164"/>
<path d="M24.485 10.0002C24.5986 10.0564 24.6838 9.88781 24.5702 9.83162C24.4566 9.77543 24.3714 9.944 24.485 10.0002Z" fill="#FFB164"/>
<path d="M24.4849 10.0004C24.5417 10.0285 24.5985 10.0566 24.6837 10.0847C24.7121 10.0847 24.7405 10.0847 24.7689 10.0847C24.7973 10.0847 24.8257 10.0566 24.8257 10.0285C24.8257 10.0004 24.8257 9.97228 24.8257 9.94419C24.8257 9.91609 24.7973 9.91609 24.7689 9.888C24.7121 9.8599 24.6553 9.83181 24.5701 9.80371C24.5417 9.80371 24.5133 9.80371 24.4849 9.80371C24.4565 9.80371 24.4281 9.83181 24.4281 9.8599C24.4281 9.888 24.4281 9.91609 24.4281 9.94419C24.4565 9.97228 24.4565 9.97228 24.4849 10.0004Z" fill="#FFB164"/>
<path d="M25.2233 9.8039C25.2233 9.83199 25.2233 9.83199 25.2233 9.86009C25.2233 9.88819 25.2233 9.88819 25.2517 9.91628C25.2801 9.94438 25.2801 9.97247 25.3369 10.0006C25.3369 10.0006 25.3652 10.0006 25.3652 10.0287H25.3936H25.422C25.422 10.0287 25.4504 10.0287 25.4504 10.0006V9.97247C25.4504 9.94438 25.4504 9.94438 25.4504 9.91628C25.4504 9.88819 25.422 9.86009 25.422 9.86009C25.422 9.86009 25.422 9.86009 25.4504 9.88819L25.422 9.86009C25.422 9.86009 25.422 9.86009 25.422 9.88819C25.422 9.88819 25.422 9.86009 25.3936 9.86009V9.88819V9.86009V9.88819V9.86009C25.3936 9.86009 25.3936 9.83199 25.3652 9.83199L25.3369 9.8039H25.3085C25.2801 9.8039 25.2517 9.8039 25.2517 9.83199C25.2517 9.7758 25.2233 9.8039 25.2233 9.8039Z" fill="#FFB164"/>
<path d="M25.8763 9.97176C25.8763 9.99985 25.8479 10.0279 25.8479 10.0841V10.1122C25.8479 10.1122 25.8479 10.1403 25.8763 10.1403L25.9047 10.1684H25.9331C25.9615 10.1684 25.9899 10.1684 25.9899 10.1403C25.9899 10.1403 25.9899 10.1403 26.0183 10.1122C26.0183 10.1122 26.0467 10.0841 26.0467 10.056C26.0467 10.0279 26.0751 9.99985 26.0751 9.94366V9.91557C26.0751 9.91557 26.0751 9.88747 26.0467 9.88747L26.0183 9.85938H25.9899C25.9615 9.85938 25.9331 9.85938 25.9331 9.88747C25.9331 9.88747 25.9331 9.88747 25.9047 9.91557C25.8763 9.94366 25.8763 9.94366 25.8763 9.97176Z" fill="#FFB164"/>
<path d="M26.9839 10.5627C27.0123 10.5346 27.0691 10.5346 27.0975 10.5065C27.0975 10.5065 27.1259 10.5065 27.1259 10.4784L27.1543 10.4503V10.4222V10.3941C27.1543 10.3941 27.1543 10.3941 27.1543 10.366L27.1259 10.3379H27.0975C27.0691 10.3379 27.0691 10.3379 27.0407 10.3379C27.0123 10.366 26.9556 10.366 26.9272 10.3941C26.9272 10.3941 26.8988 10.3941 26.8988 10.4222L26.8704 10.4503V10.4784V10.5065C26.8704 10.5065 26.8704 10.5065 26.8704 10.5346L26.8988 10.5627H26.9272C26.9556 10.5627 26.9839 10.5627 26.9839 10.5627Z" fill="#FFB164"/>
<path d="M27.7222 11.0123C27.7789 11.0123 27.8357 11.0404 27.9209 11.0404C27.9493 11.0404 27.9777 11.0404 27.9777 11.0123C28.0061 11.0123 28.0061 10.9842 28.0061 10.9561C28.0061 10.928 28.0061 10.8999 27.9777 10.8999C27.9493 10.8718 27.9493 10.8718 27.9209 10.8718C27.8641 10.8718 27.8073 10.8438 27.7222 10.8438C27.6938 10.8438 27.6654 10.8437 27.6654 10.8718C27.637 10.8718 27.637 10.8999 27.637 10.928C27.637 10.9561 27.637 10.9842 27.6654 10.9842C27.6938 10.9842 27.6938 11.0123 27.7222 11.0123Z" fill="#FFB164"/>
<path d="M28.2335 11.4892C28.3187 11.5454 28.4322 11.5735 28.5174 11.5735C28.5458 11.5735 28.5742 11.5735 28.5742 11.5454C28.6026 11.5454 28.6026 11.5173 28.6026 11.4892C28.6026 11.4611 28.6026 11.433 28.5742 11.433C28.5458 11.4049 28.5458 11.4049 28.5174 11.4049C28.489 11.4049 28.489 11.4049 28.4606 11.4049H28.489C28.4322 11.3768 28.347 11.3487 28.2903 11.3206C28.2335 11.2925 28.1767 11.3206 28.1767 11.3768C28.1483 11.4049 28.1767 11.4611 28.2335 11.4892Z" fill="#FFB164"/>
<path d="M28.4037 12.0231C28.4889 12.0793 28.5457 12.1354 28.6309 12.1916C28.6593 12.2197 28.6877 12.2197 28.6877 12.2197C28.7161 12.2197 28.7445 12.1916 28.7445 12.1916C28.7729 12.1635 28.7729 12.0793 28.7161 12.0512C28.6309 11.995 28.5741 11.9388 28.4889 11.8826C28.4605 11.8545 28.4321 11.8545 28.4321 11.8545C28.4037 11.8545 28.3753 11.8826 28.3753 11.8826C28.3469 11.9388 28.3469 11.995 28.4037 12.0231Z" fill="#FFB164"/>
<path d="M27.8926 12.1639C27.921 12.2201 27.9494 12.2763 27.9778 12.3325C27.9778 12.3325 27.9778 12.3606 28.0062 12.3606L28.0346 12.3887C28.063 12.3887 28.0914 12.3887 28.1198 12.3887C28.1482 12.3887 28.1482 12.3606 28.1766 12.3325C28.1766 12.3044 28.1766 12.2763 28.1766 12.2482C28.1482 12.192 28.1198 12.1358 28.0914 12.0796C28.0914 12.0796 28.0914 12.0515 28.063 12.0515L28.0346 12.0234C28.0062 12.0234 27.9778 12.0234 27.9494 12.0234C27.921 12.0234 27.921 12.0515 27.8926 12.0796C27.8926 12.1077 27.8642 12.1358 27.8926 12.1639Z" fill="#FFB164"/>
<path d="M27.1543 12.1639V12.192C27.1543 12.192 27.1543 12.192 27.1543 12.1639C27.1543 12.192 27.1543 12.2201 27.1543 12.2201V12.192C27.1543 12.192 27.1543 12.192 27.1543 12.2201V12.2482V12.2763C27.1543 12.2763 27.1543 12.3044 27.1827 12.3044L27.2111 12.3325C27.2395 12.3325 27.2679 12.3325 27.2963 12.3325C27.3247 12.3325 27.3531 12.3044 27.3531 12.2763C27.3531 12.2482 27.3815 12.2201 27.3815 12.192C27.3815 12.1639 27.3815 12.1358 27.3815 12.1077C27.3815 12.0796 27.3531 12.0515 27.3531 12.0515C27.3531 12.0515 27.3247 12.0515 27.3247 12.0234H27.2963C27.2679 12.0234 27.2395 12.0515 27.2395 12.0515V12.0796C27.1543 12.1358 27.1259 12.1639 27.1543 12.1639Z" fill="#FFB164"/>
<path d="M26.1604 11.9107C26.1604 11.9388 26.1604 11.9388 26.1604 11.9669V11.9388C26.1604 11.9669 26.132 11.995 26.132 11.995V12.0231V12.0512C26.132 12.0793 26.1604 12.1074 26.1888 12.1074C26.2171 12.1074 26.2455 12.1074 26.2739 12.1074C26.2739 12.1074 26.2739 12.1074 26.3023 12.1074L26.3307 12.0793C26.3307 12.0512 26.3591 12.0231 26.3591 12.0231C26.3591 11.995 26.3875 11.9669 26.3875 11.9388C26.3875 11.9107 26.3875 11.8826 26.3591 11.8826L26.3307 11.8545H26.3023C26.2739 11.8545 26.2455 11.8545 26.2455 11.8826C26.1604 11.8545 26.1604 11.8826 26.1604 11.9107Z" fill="#FFB164"/>
<path d="M25.4789 11.6022V11.6303V11.6022C25.4789 11.6303 25.4505 11.6303 25.4505 11.6303C25.4505 11.6303 25.4789 11.6303 25.4789 11.6022C25.4505 11.6303 25.4505 11.6584 25.4222 11.6584C25.4222 11.6584 25.4222 11.6584 25.4505 11.6584C25.4505 11.6584 25.4222 11.6584 25.4222 11.6865C25.4222 11.6865 25.3938 11.6865 25.3938 11.7146L25.3654 11.7427C25.3654 11.7708 25.3654 11.7989 25.3654 11.827C25.3654 11.8551 25.3938 11.8551 25.4222 11.8832H25.4505C25.4789 11.8832 25.4789 11.8832 25.5073 11.8832C25.5357 11.8832 25.5357 11.8551 25.5641 11.8551L25.5925 11.827C25.6209 11.7989 25.6209 11.7989 25.6209 11.7708C25.6209 11.7427 25.6493 11.7427 25.6493 11.7146C25.6493 11.6865 25.6493 11.6584 25.6493 11.6303C25.6493 11.6022 25.6209 11.5741 25.5925 11.5741C25.5641 11.5741 25.5357 11.5741 25.5073 11.5741C25.5073 11.546 25.4789 11.5741 25.4789 11.6022Z" fill="#FFB164"/>
<path d="M24.8826 11.0122C24.8542 11.0122 24.8258 11.0403 24.7974 11.0403H24.8258C24.769 11.0403 24.7406 11.0684 24.6838 11.0684C24.6554 11.0684 24.627 11.0965 24.627 11.0965C24.5986 11.1246 24.5986 11.1527 24.5986 11.1527C24.5986 11.1808 24.627 11.2089 24.627 11.2089H24.6554C24.6838 11.2089 24.6838 11.2089 24.7122 11.2089C24.7974 11.2089 24.8826 11.1808 24.9678 11.1527C24.9962 11.1527 24.9962 11.1246 25.0246 11.0965C25.0246 11.0684 25.0246 11.0403 25.0246 11.0122C25.0246 10.9842 24.9962 10.9842 24.9678 10.9561C24.9394 11.0122 24.911 11.0122 24.8826 11.0122Z" fill="#FFB164"/>
<path d="M24.1158 10.7308C24.1442 10.7308 24.1726 10.7028 24.201 10.7028C24.201 10.7028 24.2294 10.7028 24.2294 10.6747L24.2578 10.6466V10.6185V10.5904C24.2578 10.5904 24.2578 10.5904 24.2578 10.5623L24.2294 10.5342H24.201C24.1726 10.5342 24.1726 10.5342 24.1442 10.5342C24.1158 10.5342 24.0874 10.5623 24.059 10.5623C24.059 10.5623 24.0306 10.5623 24.0306 10.5904L24.0022 10.6185V10.6466V10.6747C24.0022 10.6747 24.0022 10.6747 24.0022 10.7028L24.0306 10.7308H24.059C24.0874 10.7308 24.0874 10.7308 24.1158 10.7308Z" fill="#FFB164"/>
<path opacity="0.24" d="M23.6048 12.1361C23.7467 12.3328 23.8603 12.5295 24.0875 12.6138C24.1727 12.6419 24.2579 12.67 24.3147 12.5857C24.3431 12.5295 24.3147 12.4452 24.2863 12.389C24.2011 12.2766 24.1159 12.1361 24.0875 11.9957C24.0307 11.7428 23.9739 11.209 23.5764 11.209C23.1504 11.2371 23.4912 11.9957 23.6048 12.1361Z" fill="white"/>
<path d="M13.2967 14.1026C13.0127 13.5126 12.9843 12.7821 13.3819 12.2483C13.7226 11.7988 14.2906 11.5459 14.8301 11.3211C14.1202 10.6749 13.9498 9.57921 14.4325 8.76443C14.9153 7.94966 15.9944 7.50013 16.9598 7.6968C16.7327 6.9944 17.329 6.20773 18.1241 6.03915C18.8908 5.87058 19.7427 6.26392 20.1687 6.88202C20.7082 6.57297 21.5033 6.68535 21.9009 7.13488C22.2984 7.61251 22.27 8.343 21.8157 8.76443C22.5824 9.41063 22.6676 10.6187 21.986 11.3492C22.412 11.6864 22.6392 12.1921 22.554 12.6978C22.4972 13.2035 22.1564 13.6531 21.6737 13.9059C21.7873 14.2431 21.8725 14.6083 21.7021 14.9174C21.5033 15.2826 21.0206 15.4231 20.5946 15.4231C20.1687 15.4231 19.7143 15.3388 19.2884 15.4231C19.4587 15.8164 19.118 16.266 18.692 16.4346C18.2661 16.6031 17.7833 16.5469 17.329 16.5188C16.8179 16.4626 16.3067 16.4065 15.7672 16.3784C15.4832 16.3503 15.1709 16.3222 14.9437 16.1536C14.6597 15.9569 14.5745 15.5074 14.319 15.2545C13.9498 14.8893 13.5522 14.6083 13.2967 14.1026Z" fill="#89E269"/>
<path d="M22.9231 14.1028L22.8663 15.1143C22.8663 15.1143 23.3775 16.5472 25.5924 16.8281C28.0629 17.1372 29.8803 16.3505 29.9087 14.8895C29.9087 14.6367 29.5963 14.0186 29.5963 14.0186L22.8947 14.0747L22.9231 14.1028Z" fill="#59B24F"/>
<path d="M29.6315 14.3817C29.681 13.4364 28.2229 12.5932 26.3747 12.4984C24.5265 12.4036 22.9881 13.0931 22.9386 14.0384C22.889 14.9837 24.3471 15.8268 26.1953 15.9216C28.0435 16.0164 29.5819 15.327 29.6315 14.3817Z" fill="#84D17D"/>
<path d="M29.426 14.3267C29.4544 15.0572 28.0914 15.7034 26.3592 15.6472C24.6554 15.591 23.1504 14.8043 23.122 14.0738C23.0936 13.3434 24.5986 12.6129 26.3024 12.6691C28.0346 12.7533 29.3976 13.5962 29.426 14.3267Z" fill="#B0EDA9"/>
<path d="M24.3714 13.934C24.3146 13.8778 24.2578 13.8216 24.2294 13.7654C24.2294 13.653 24.3714 13.5968 24.4849 13.5968C24.7405 13.5687 24.9677 13.6249 25.1949 13.7092C25.1097 13.6249 25.0529 13.5125 25.0245 13.4283C25.0245 13.4002 24.9961 13.3721 25.0245 13.3721C25.0529 13.3159 25.1097 13.3159 25.1665 13.344C25.422 13.4564 25.6776 13.5968 25.9332 13.7654C25.8764 13.653 25.8196 13.5406 25.7912 13.4283C25.7912 13.3159 25.8196 13.1754 25.9332 13.1192C26.0752 13.0349 26.2455 13.1192 26.3591 13.2316C26.4727 13.344 26.5295 13.5125 26.5579 13.653C26.7567 13.4844 27.0406 13.4002 27.3246 13.4283C27.3814 13.4283 27.4666 13.4564 27.495 13.5125C27.5518 13.5968 27.4666 13.6811 27.3814 13.7373C27.6938 13.653 28.0629 13.7373 28.3185 13.9621C28.3469 13.9902 28.3753 14.0183 28.3753 14.0745C28.3753 14.1026 28.3469 14.1306 28.3469 14.1306C28.2333 14.2711 28.0629 14.3554 27.8925 14.3835C27.7222 14.4116 27.5234 14.4116 27.353 14.4116C27.5234 14.4678 27.6938 14.5521 27.8641 14.6645C27.8925 14.6645 27.8925 14.6926 27.9209 14.7207C27.9209 14.7488 27.9209 14.7488 27.8925 14.7768C27.779 14.9735 27.5234 15.0297 27.2962 14.9454C27.069 14.8892 26.8987 14.7488 26.6999 14.6083C26.7851 14.7207 26.8703 14.8611 26.8419 15.0016C26.8135 15.1421 26.6999 15.2545 26.5579 15.2264C26.5011 15.1983 26.4443 15.1702 26.4159 15.114C26.2739 14.9735 26.1603 14.8049 26.1036 14.6364C26.1036 14.8611 25.9048 15.0578 25.6492 15.0859C25.5924 15.0859 25.5356 15.0859 25.4788 15.0297C25.422 14.9735 25.422 14.8892 25.4504 14.833C25.4788 14.7768 25.5356 14.7207 25.5924 14.6645C25.422 14.7768 25.2233 14.8611 25.0529 14.7488C24.9961 14.7207 24.9677 14.6645 24.9677 14.6083C24.9677 14.5802 25.0245 14.5521 25.0529 14.524C25.1381 14.4678 25.3368 14.4116 25.3652 14.3273C24.9677 14.2149 24.6553 14.1587 24.3714 13.934Z" fill="#C1FFB8"/>
<path d="M11.9055 19.3845L13.0129 20.2274C13.0129 20.2274 15.2563 20.9298 17.8971 19.3003C20.8788 17.474 21.9295 15.3388 20.2541 14.1587C19.9701 13.9621 18.891 13.7373 18.891 13.7373L11.7919 19.3564L11.9055 19.3845Z" fill="#59B24F"/>
<path d="M16.7471 18.5814C18.9996 17.2899 20.3219 15.3831 19.7007 14.3225C19.0795 13.2619 16.7499 13.4491 14.4975 14.7406C12.245 16.0321 10.9227 17.9389 11.5439 18.9995C12.1651 20.0601 14.4947 19.8729 16.7471 18.5814Z" fill="#84D17D"/>
<path d="M19.0898 14.1298C19.9417 14.6917 19.2602 16.3494 17.3576 17.7261C15.455 19.1028 12.9561 19.749 12.0758 19.1871C11.2239 18.6251 11.9622 16.827 13.8364 15.4503C15.7106 14.0736 18.2379 13.5679 19.0898 14.1298Z" fill="#B0EDA9"/>
<path d="M13.24 18.0641C13.1264 18.0922 12.9844 18.0922 12.8992 18.036C12.7572 17.9517 12.8424 17.7831 12.956 17.6707C13.1832 17.446 13.4955 17.2774 13.8363 17.1369C13.6659 17.1369 13.4671 17.1088 13.3252 17.0526C13.2968 17.0526 13.24 17.0245 13.24 16.9965C13.1832 16.9403 13.2968 16.8841 13.3819 16.856C13.7795 16.7155 14.2338 16.6031 14.6598 16.5469C14.461 16.5188 14.2906 16.4907 14.1487 16.4064C14.0067 16.3222 13.9215 16.1817 13.9499 16.0412C14.0067 15.8726 14.2622 15.7602 14.5178 15.7602C14.7734 15.7602 15.0006 15.8445 15.2277 15.9288C15.2561 15.6198 15.4549 15.3107 15.7673 15.114C15.8525 15.0579 15.9376 15.0298 16.0512 15.0298C16.1932 15.0579 16.2216 15.1983 16.1932 15.3107C16.4204 14.9736 16.9315 14.7488 17.4427 14.7207C17.4995 14.7207 17.5847 14.7207 17.6414 14.7488C17.6698 14.7769 17.6698 14.805 17.6982 14.8331C17.755 15.0298 17.6698 15.2545 17.4995 15.4231C17.3575 15.5917 17.1587 15.7602 16.9599 15.9007C17.2155 15.7883 17.4995 15.7321 17.8118 15.676C17.8402 15.676 17.897 15.676 17.9254 15.676C17.9538 15.676 17.9538 15.7041 17.9822 15.7321C18.0674 15.985 17.8686 16.2379 17.5563 16.3783C17.2439 16.5188 16.8747 16.5469 16.534 16.6031C16.7612 16.6031 16.9883 16.6593 17.1303 16.7998C17.2723 16.9122 17.2439 17.1369 17.0735 17.2212C16.9883 17.2493 16.8747 17.2774 16.7895 17.2774C16.4772 17.2774 16.1932 17.2493 15.9093 17.165C16.1648 17.3617 16.1932 17.6707 15.9376 17.8955C15.8809 17.9517 15.7957 18.0079 15.6821 18.0079C15.5685 18.0079 15.4549 17.9517 15.4265 17.8674C15.3697 17.7831 15.3981 17.6988 15.3981 17.6146C15.3413 17.8393 15.2277 18.0922 14.9154 18.1484C14.8302 18.1765 14.7166 18.1484 14.6598 18.0922C14.6314 18.0641 14.6314 18.0079 14.6598 17.9798C14.6882 17.8674 14.8302 17.6427 14.7734 17.5584C14.2055 17.755 13.8079 17.9798 13.24 18.0641Z" fill="#C1FFB8"/>
<path d="M13.3818 7.6685L12.3596 8.11803C12.3596 8.11803 11.1669 9.32614 11.8768 11.6019C12.6719 14.1586 14.2621 15.5634 15.7104 14.861C15.9375 14.7486 16.4203 14.1024 16.4203 14.1024L13.4102 7.6123L13.3818 7.6685Z" fill="#59B24F"/>
<path d="M16.0461 14.4065C17.0165 14.0504 17.233 12.2403 16.5296 10.3636C15.8262 8.48681 14.4692 7.25405 13.4987 7.61014C12.5282 7.96622 12.3117 9.7763 13.0151 11.6531C13.7186 13.5298 15.0756 14.7626 16.0461 14.4065Z" fill="#84D17D"/>
<path d="M16.0512 14.1305C15.3412 14.4958 14.0918 13.4843 13.3819 11.7986C12.672 10.1129 12.7855 8.23045 13.4955 7.86521C14.2054 7.49997 15.5684 8.5957 16.2783 10.2814C16.9882 11.9672 16.7611 13.7653 16.0512 14.1305Z" fill="#B0EDA9"/>
<path d="M14.177 8.98971C14.2054 8.90542 14.2054 8.82114 14.2906 8.76495C14.4042 8.70875 14.5177 8.82114 14.5745 8.93352C14.6881 9.15829 14.7733 9.41115 14.8017 9.6921C14.8585 9.57972 14.9153 9.46734 15.0005 9.38305C15.0289 9.35496 15.0289 9.35496 15.0573 9.32686C15.1141 9.32686 15.1425 9.38305 15.1425 9.46734C15.1709 9.77639 15.1425 10.0854 15.0573 10.4226C15.1141 10.3102 15.1993 10.1978 15.3129 10.1416C15.4264 10.0854 15.5684 10.0573 15.682 10.1416C15.824 10.2259 15.824 10.4507 15.7672 10.6193C15.7104 10.7878 15.5684 10.9002 15.4548 11.0126C15.7104 11.125 15.9376 11.3497 16.0228 11.6307C16.0512 11.6869 16.0512 11.7712 16.0228 11.8274C15.966 11.9117 15.824 11.8836 15.7388 11.8274C15.966 12.0802 16.0512 12.5017 15.9376 12.8388C15.9376 12.895 15.9092 12.9231 15.8524 12.9512C15.824 12.9512 15.7956 12.9512 15.7672 12.9512C15.5684 12.9231 15.4264 12.7826 15.3129 12.6421C15.1993 12.4736 15.1141 12.305 15.0573 12.1083C15.0857 12.305 15.0573 12.5298 15.0289 12.7264C15.0289 12.7545 15.0289 12.7826 15.0005 12.8107C14.9721 12.8107 14.9721 12.8107 14.9437 12.8107C14.7165 12.7826 14.5461 12.5579 14.4893 12.305C14.461 12.0521 14.5177 11.7993 14.5745 11.5464C14.5177 11.6869 14.4042 11.8274 14.2622 11.8836C14.1202 11.9398 13.9498 11.8555 13.9214 11.715C13.9214 11.6588 13.9214 11.5745 13.9498 11.5183C14.035 11.3217 14.1202 11.125 14.2622 10.9845C14.035 11.0969 13.751 10.9845 13.6374 10.7597C13.6091 10.7035 13.5807 10.6193 13.6091 10.5631C13.6374 10.4788 13.7226 10.4507 13.8078 10.4507C13.893 10.4507 13.9498 10.4788 14.035 10.5069C13.8646 10.3945 13.6658 10.2259 13.6942 10.0012C13.6942 9.94496 13.751 9.86068 13.8078 9.86068C13.8362 9.86068 13.893 9.86068 13.9214 9.88877C14.0066 9.94496 14.177 10.1135 14.2622 10.1135C14.177 9.7202 14.0918 9.38305 14.177 8.98971Z" fill="#C1FFB8"/>
<path d="M8.81006 15.5076C8.81006 15.5076 9.00884 18.261 12.5868 17.7553C16.1932 17.2495 15.5117 14.3838 15.5117 14.3838L8.81006 15.5076Z" fill="#E24C24"/>
<path d="M12.3674 16.2793C14.2111 15.9931 15.6131 15.177 15.4989 14.4565C15.3846 13.7361 13.7974 13.384 11.9537 13.6703C10.11 13.9565 8.70798 14.7725 8.82223 15.493C8.93648 16.2135 10.5237 16.5655 12.3674 16.2793Z" fill="#FF5A27"/>
<path d="M12.3411 16.1128C14.0298 15.8507 15.3181 15.1286 15.2184 14.5002C15.1187 13.8717 13.6689 13.5747 11.9801 13.8368C10.2914 14.099 9.00316 14.821 9.10282 15.4495C9.20249 16.078 10.6523 16.375 12.3411 16.1128Z" fill="#FF8B78"/>
<path d="M10.9114 14.721C10.7979 14.8053 10.6843 14.9177 10.7127 15.0582C10.7127 15.1144 10.7695 15.1706 10.7695 15.2268C10.7695 15.283 10.7411 15.3391 10.7411 15.3953C10.7411 15.4234 10.7695 15.4796 10.7979 15.5077C10.9966 15.6763 11.2806 15.6201 11.5362 15.5639C12.1893 15.4234 12.814 15.2549 13.4671 15.1144C13.6375 15.0863 13.8363 15.002 13.8647 14.8615C13.9215 14.721 13.8363 14.5806 13.6943 14.4963C13.5807 14.412 13.4387 14.3839 13.2968 14.3839C12.8708 14.3277 12.4449 14.3277 12.0189 14.412C11.6214 14.4401 11.2522 14.4963 10.9114 14.721Z" fill="#FF5A27"/>
<path d="M9.71857 15.3952C9.83215 15.3671 9.94574 15.339 10.0593 15.3109C10.0877 15.3109 10.0877 15.2828 10.1161 15.2547C10.1161 15.2266 10.1161 15.1985 10.1161 15.1704C10.0877 15.1143 10.0309 15.1143 10.0025 15.1143C9.97414 15.1143 9.94574 15.1424 9.88895 15.1424H9.91734C9.83215 15.1704 9.77536 15.1704 9.69017 15.1985C9.63338 15.1985 9.60498 15.2547 9.60498 15.3109C9.63338 15.3671 9.66177 15.3952 9.71857 15.3952Z" fill="#FFB164"/>
<path d="M9.94584 14.974C10.0594 14.9459 10.031 14.7773 9.91744 14.7773C9.77546 14.8054 9.80386 15.0021 9.94584 14.974Z" fill="#FFB164"/>
<path d="M9.94591 14.974C10.0311 14.974 10.0879 14.974 10.1731 14.9459C10.2015 14.9459 10.2299 14.9178 10.2299 14.9178C10.2299 14.8897 10.2583 14.8616 10.2583 14.8616C10.2583 14.8335 10.2299 14.8054 10.2299 14.8054C10.2015 14.7773 10.1731 14.7773 10.1731 14.7773C10.0879 14.7773 10.0311 14.7773 9.94591 14.8054C9.91751 14.8054 9.88912 14.8335 9.88912 14.8335C9.88912 14.8616 9.86072 14.8897 9.86072 14.8897C9.86072 14.9178 9.88912 14.9459 9.88912 14.9459C9.88912 14.974 9.91751 14.974 9.94591 14.974Z" fill="#FFB164"/>
<path d="M10.4854 14.4393C10.4854 14.4674 10.5138 14.4674 10.5138 14.4955C10.5138 14.5236 10.5422 14.5236 10.5706 14.5236C10.599 14.5517 10.6558 14.5517 10.6842 14.5798H10.7126C10.7126 14.5798 10.741 14.5798 10.741 14.5517L10.7694 14.5236V14.4955V14.4674C10.7694 14.4393 10.7694 14.4393 10.741 14.4112C10.7126 14.3831 10.7126 14.3831 10.6842 14.3831C10.6842 14.3831 10.6842 14.3831 10.6558 14.3831H10.6842C10.6842 14.3831 10.6558 14.3831 10.6558 14.355C10.6558 14.355 10.6558 14.355 10.6842 14.355L10.6558 14.3269C10.6558 14.3269 10.6558 14.3269 10.6842 14.355L10.6558 14.3269C10.6558 14.3269 10.6558 14.3269 10.6558 14.355C10.6558 14.355 10.6558 14.3269 10.6274 14.3269L10.599 14.2988H10.5706H10.5422C10.5138 14.2988 10.5138 14.3269 10.4854 14.355C10.457 14.3831 10.457 14.4112 10.4854 14.4393Z" fill="#FFB164"/>
<path d="M11.0817 14.244C11.0817 14.2721 11.1101 14.3002 11.1101 14.3564C11.1101 14.3564 11.1101 14.3845 11.1385 14.3845L11.1669 14.4126H11.1953H11.2236C11.252 14.4126 11.252 14.3845 11.2804 14.3564V14.3283C11.2804 14.3002 11.2804 14.3002 11.2804 14.2721C11.2804 14.244 11.252 14.2159 11.252 14.1597C11.252 14.1597 11.252 14.1316 11.2236 14.1316L11.1953 14.1035H11.1669H11.1385C11.1101 14.1035 11.1101 14.1316 11.0817 14.1597V14.1878C11.0817 14.2159 11.0817 14.2159 11.0817 14.244Z" fill="#FFB164"/>
<path d="M12.3596 14.1593C12.388 14.1312 12.4164 14.1031 12.4448 14.047C12.4448 14.047 12.4448 14.0189 12.4732 14.0189V13.9908V13.9627C12.4732 13.9627 12.4732 13.9346 12.4448 13.9346C12.4448 13.9346 12.4448 13.9346 12.4164 13.9346C12.388 13.9346 12.388 13.9346 12.3596 13.9346H12.3312C12.3028 13.9346 12.3028 13.9627 12.3028 13.9627C12.2744 13.9908 12.246 14.0189 12.2176 14.075C12.2176 14.075 12.2176 14.1031 12.1892 14.1031V14.1312V14.1593C12.1892 14.1593 12.1892 14.1874 12.2176 14.1874C12.2176 14.1874 12.2176 14.1874 12.246 14.1874C12.2744 14.1874 12.2744 14.1874 12.3028 14.1874H12.3312L12.3596 14.1593Z" fill="#FFB164"/>
<path d="M13.24 14.1589C13.2968 14.1308 13.3536 14.1027 13.4104 14.0746C13.4388 14.0746 13.4388 14.0465 13.4672 14.0184C13.4672 13.9903 13.4672 13.9622 13.4672 13.9341C13.4672 13.906 13.4388 13.906 13.4104 13.8779C13.382 13.8779 13.3536 13.8779 13.3252 13.8779C13.2684 13.906 13.2116 13.9341 13.1548 13.9622C13.1264 13.9622 13.1264 13.9903 13.098 14.0184C13.098 14.0465 13.098 14.0746 13.098 14.1027C13.098 14.1308 13.1264 14.1308 13.1548 14.1589C13.1832 14.1589 13.2116 14.1589 13.24 14.1589Z" fill="#FFB164"/>
<path d="M13.9214 14.2997C14.035 14.2997 14.1202 14.2716 14.2054 14.2435C14.2338 14.2435 14.2338 14.2154 14.2622 14.1874C14.2622 14.1593 14.2622 14.1312 14.2622 14.1031C14.2622 14.075 14.2338 14.075 14.2054 14.0469C14.177 14.0469 14.1486 14.0469 14.1202 14.0469C14.0918 14.0469 14.0918 14.0469 14.0634 14.075H14.0918C14.035 14.1031 13.9498 14.1031 13.8646 14.1031C13.8078 14.1031 13.7794 14.1593 13.7794 14.2154C13.8078 14.2997 13.8646 14.3278 13.9214 14.2997Z" fill="#FFB164"/>
<path d="M14.3474 14.6928C14.4326 14.6928 14.5462 14.6928 14.6314 14.7209C14.6598 14.7209 14.6882 14.7209 14.6882 14.6928C14.7166 14.6647 14.7166 14.6647 14.7166 14.6366C14.7166 14.5804 14.6882 14.5242 14.6314 14.5242C14.5462 14.5242 14.4326 14.5242 14.3474 14.4961C14.319 14.4961 14.2906 14.4961 14.2906 14.5242C14.2622 14.5523 14.2622 14.5523 14.2622 14.5804C14.2622 14.6366 14.2906 14.6928 14.3474 14.6928Z" fill="#FFB164"/>
<path d="M13.9782 15.0584C14.035 15.0865 14.0918 15.1146 14.1486 15.1427C14.1486 15.1427 14.177 15.1427 14.177 15.1708H14.2054C14.2338 15.1708 14.2622 15.1427 14.2622 15.1427C14.2622 15.1146 14.2906 15.0865 14.2906 15.0865C14.2906 15.0584 14.2622 15.0304 14.2622 15.0304C14.2054 15.0023 14.1486 14.9742 14.0918 14.9461C14.0918 14.9461 14.0634 14.9461 14.0634 14.918H14.035C14.0066 14.918 13.9782 14.9461 13.9782 14.9461C13.9782 14.9742 13.9498 15.0023 13.9498 15.0023C13.9498 15.0304 13.9498 15.0584 13.9782 15.0584Z" fill="#FFB164"/>
<path d="M13.3535 15.4512L13.3819 15.4793C13.3535 15.4793 13.3535 15.4793 13.3535 15.4512C13.3819 15.4793 13.3819 15.5074 13.3819 15.5074V15.4793C13.3819 15.4793 13.3819 15.4793 13.3819 15.5074V15.5355C13.3819 15.5355 13.3819 15.5636 13.4103 15.5636C13.4103 15.5636 13.4387 15.5636 13.4387 15.5917H13.4671C13.4955 15.5917 13.5238 15.5636 13.5238 15.5636C13.5238 15.5355 13.5522 15.5074 13.5522 15.5074C13.5522 15.4793 13.5522 15.4512 13.5238 15.4232C13.5238 15.3951 13.4955 15.367 13.4671 15.367C13.4387 15.3389 13.4387 15.3389 13.4103 15.3389H13.3819C13.3819 15.3389 13.3535 15.3389 13.3535 15.367C13.3251 15.3951 13.3251 15.3951 13.3251 15.4232V15.4512C13.3251 15.4232 13.3251 15.4512 13.3535 15.4512Z" fill="#FFB164"/>
<path d="M12.3596 15.7315C12.3596 15.7596 12.388 15.7596 12.388 15.7877V15.7596C12.388 15.7877 12.388 15.8158 12.388 15.8439V15.872C12.388 15.872 12.388 15.9001 12.4164 15.9001C12.4448 15.9001 12.4732 15.9282 12.4732 15.9282C12.5016 15.9282 12.53 15.9001 12.53 15.9001C12.53 15.9001 12.53 15.9001 12.53 15.872C12.53 15.8439 12.53 15.8439 12.53 15.8158C12.53 15.7877 12.53 15.7596 12.53 15.7596C12.53 15.7315 12.5016 15.7034 12.5016 15.6753C12.5016 15.6472 12.4732 15.6472 12.4448 15.6191H12.4164H12.388C12.3596 15.6191 12.3596 15.6472 12.3312 15.6753C12.3596 15.6753 12.3596 15.7034 12.3596 15.7315Z" fill="#FFB164"/>
<path d="M11.6214 15.8165V15.8446C11.6214 15.8446 11.6214 15.8446 11.6214 15.8165C11.6214 15.8446 11.6214 15.8446 11.6214 15.8727C11.6214 15.8727 11.6214 15.8727 11.6214 15.8165C11.6214 15.8446 11.6214 15.8727 11.6214 15.8727C11.6214 15.8727 11.6214 15.8727 11.6214 15.8446C11.6214 15.8446 11.6214 15.8727 11.593 15.8727C11.593 15.8727 11.593 15.9008 11.5646 15.9008V15.9289C11.5646 15.957 11.593 15.9851 11.593 15.9851C11.6214 15.9851 11.6498 16.0132 11.6498 16.0132H11.6782C11.7066 16.0132 11.7066 15.9851 11.7066 15.9851C11.735 15.957 11.735 15.957 11.735 15.9289C11.735 15.9289 11.735 15.9008 11.7634 15.9008C11.7634 15.8727 11.7634 15.8727 11.7634 15.8446C11.7634 15.8165 11.7634 15.7884 11.7634 15.7884C11.7634 15.7603 11.735 15.7322 11.735 15.7322C11.7066 15.7322 11.6782 15.7041 11.6782 15.7041C11.6498 15.7041 11.6214 15.7322 11.6214 15.7322C11.6214 15.7884 11.6214 15.8165 11.6214 15.8165Z" fill="#FFB164"/>
<path d="M10.7978 15.6487C10.7694 15.6768 10.7694 15.7049 10.741 15.733C10.741 15.733 10.741 15.733 10.7694 15.7049C10.741 15.733 10.6842 15.7611 10.6558 15.7892C10.6274 15.7892 10.6274 15.8173 10.6274 15.8454C10.6274 15.8735 10.6274 15.9016 10.6558 15.9016C10.6842 15.9297 10.6842 15.9297 10.7126 15.9297H10.741C10.7694 15.9297 10.7694 15.9297 10.7978 15.9016C10.883 15.8454 10.9398 15.7892 10.9966 15.7049C10.9966 15.6768 11.025 15.6487 11.025 15.6487C11.025 15.6206 10.9966 15.5925 10.9966 15.5925C10.9682 15.5925 10.9398 15.5645 10.9398 15.5645C10.8546 15.6206 10.8262 15.6206 10.7978 15.6487Z" fill="#FFB164"/>
<path d="M10.0027 15.7877C10.0311 15.7596 10.0311 15.7315 10.0594 15.7315C10.0594 15.7315 10.0594 15.7034 10.0878 15.7034V15.6753V15.6472C10.0878 15.6472 10.0878 15.6191 10.0594 15.6191C10.0594 15.6191 10.0594 15.6191 10.0311 15.6191C10.0027 15.6191 10.0027 15.6191 9.97426 15.6191H9.94586C9.91747 15.6191 9.91746 15.6472 9.91746 15.6472C9.88907 15.6753 9.88907 15.7034 9.86067 15.7034C9.86067 15.7034 9.86067 15.7315 9.83228 15.7315V15.7596V15.7877C9.83228 15.7877 9.83227 15.8158 9.86067 15.8158C9.86067 15.8158 9.86067 15.8158 9.88907 15.8158C9.91747 15.8158 9.91747 15.8158 9.94586 15.8158H9.97426C9.97426 15.8158 9.97426 15.8158 10.0027 15.7877Z" fill="#FFB164"/>
<path opacity="0.24" d="M10.3151 17.2781C10.5139 17.3624 10.741 17.4748 10.9682 17.4467C11.0534 17.4467 11.1386 17.3905 11.1386 17.3062C11.1386 17.25 11.0534 17.1939 10.9966 17.1658C10.8546 17.1096 10.7127 17.0534 10.6275 16.941C10.4571 16.7724 10.1163 16.3229 9.77556 16.5196C9.4632 16.7443 10.1447 17.1939 10.3151 17.2781Z" fill="white"/>
<path d="M16.3921 13.5408C16.3921 13.5408 18.1243 15.6761 20.7936 13.2599C23.4629 10.8437 21.2763 8.87695 21.2763 8.87695L16.3921 13.5408Z" fill="#E24C24"/>
<path d="M19.7708 12.1907C21.127 10.9221 21.8159 9.46413 21.3096 8.93415C20.8032 8.40418 19.2932 9.00291 17.937 10.2715C16.5808 11.54 15.8918 12.998 16.3982 13.528C16.9046 14.0579 18.4146 13.4592 19.7708 12.1907Z" fill="#FF5A27"/>
<path d="M19.6537 12.0684C20.896 10.9064 21.5449 9.58969 21.1032 9.12737C20.6614 8.66505 19.2963 9.23221 18.054 10.3942C16.8117 11.5561 16.1628 12.8728 16.6045 13.3351C17.0463 13.7975 18.4114 13.2303 19.6537 12.0684Z" fill="#FF8B78"/>
<path d="M17.6698 11.7425C17.613 11.8548 17.5846 12.0234 17.6982 12.1358C17.7266 12.1639 17.7834 12.192 17.8402 12.2482C17.8686 12.3044 17.8686 12.3606 17.897 12.3887C17.9254 12.4168 17.9538 12.4449 18.0106 12.4449C18.2661 12.4729 18.4649 12.2763 18.6353 12.0796C19.0896 11.602 19.5156 11.1244 19.9699 10.6186C20.0835 10.5062 20.1971 10.3377 20.1687 10.1691C20.1403 10.0286 19.9699 9.94434 19.828 9.94434C19.686 9.94434 19.544 10.0005 19.4304 10.0848C19.0613 10.2815 18.6921 10.5062 18.3797 10.8153C18.0958 11.1244 17.8402 11.3772 17.6698 11.7425Z" fill="#FF5A27"/>
<path d="M17.0734 12.9499C17.1586 12.8656 17.2438 12.7813 17.3006 12.6689C17.3006 12.6408 17.329 12.6128 17.3006 12.6128C17.3006 12.5847 17.2722 12.5566 17.2438 12.5566C17.187 12.5285 17.1586 12.5566 17.1018 12.5847C17.0734 12.6128 17.045 12.6408 17.045 12.6689C17.045 12.6689 17.045 12.6689 17.0734 12.6408C17.0166 12.697 16.9882 12.7532 16.9315 12.8094C16.9031 12.8375 16.9031 12.8937 16.9315 12.9499C16.9599 12.978 17.045 12.978 17.0734 12.9499Z" fill="#FFB164"/>
<path d="M17.0166 12.5014C17.1018 12.4171 16.9882 12.2767 16.8747 12.361C16.7895 12.4452 16.9314 12.5857 17.0166 12.5014Z" fill="#FFB164"/>
<path d="M17.0166 12.5007C17.0734 12.4445 17.1302 12.4164 17.187 12.3602C17.2154 12.3321 17.2154 12.304 17.2154 12.304C17.2154 12.2759 17.2154 12.2478 17.187 12.2478C17.1586 12.2197 17.1586 12.2197 17.1302 12.2197C17.1018 12.2197 17.0734 12.2197 17.0734 12.2478C17.0166 12.304 16.9598 12.3321 16.903 12.3883C16.8746 12.4164 16.8746 12.4445 16.8746 12.4445C16.8746 12.4726 16.8746 12.5007 16.903 12.5007C16.9314 12.5288 16.9314 12.5288 16.9598 12.5288C16.9598 12.5288 16.9882 12.5007 17.0166 12.5007Z" fill="#FFB164"/>
<path d="M17.1588 11.7428C17.1872 11.7428 17.1872 11.7709 17.2156 11.7709C17.244 11.7709 17.244 11.7709 17.2724 11.7709C17.3008 11.7709 17.3576 11.7709 17.386 11.7428C17.386 11.7428 17.4144 11.7428 17.4144 11.7147L17.4428 11.6866V11.6585V11.6304C17.4428 11.6304 17.4428 11.6304 17.4144 11.6023L17.386 11.5742C17.3576 11.5742 17.3292 11.5742 17.3292 11.5742C17.3292 11.5742 17.3292 11.5742 17.3008 11.5742H17.3292H17.3008H17.3292H17.3008H17.3292H17.3008H17.3292H17.3008H17.2724C17.2724 11.5742 17.244 11.5742 17.244 11.6023L17.2156 11.6304C17.2156 11.6585 17.1872 11.6866 17.2156 11.6866C17.102 11.7147 17.1304 11.7428 17.1588 11.7428Z" fill="#FFB164"/>
<path d="M17.5278 11.2369C17.5562 11.265 17.5846 11.2931 17.613 11.2931H17.6414H17.6698C17.6698 11.2931 17.6982 11.2931 17.6982 11.265L17.7266 11.2369C17.7266 11.2088 17.755 11.1807 17.7266 11.1807V11.1526C17.7266 11.1246 17.6982 11.1246 17.6982 11.1246C17.6698 11.0965 17.6414 11.0684 17.613 11.0684H17.5846H17.5562C17.5562 11.0684 17.5278 11.0684 17.5278 11.0965L17.4994 11.1246C17.4994 11.1526 17.471 11.1807 17.4994 11.1807V11.2088C17.5278 11.2088 17.5278 11.2369 17.5278 11.2369Z" fill="#FFB164"/>
<path d="M18.5502 10.4504C18.5502 10.3942 18.5502 10.3661 18.5502 10.3099V10.2818C18.5502 10.2818 18.5502 10.2537 18.5218 10.2537L18.4934 10.2256H18.465H18.4366C18.4082 10.2256 18.4082 10.2256 18.3798 10.2537C18.3798 10.2537 18.3798 10.2537 18.3514 10.2818C18.3514 10.3099 18.3514 10.3099 18.3514 10.338C18.3514 10.3942 18.3514 10.4223 18.3514 10.4784V10.5065C18.3514 10.5065 18.3514 10.5346 18.3798 10.5346L18.4082 10.5627H18.4366H18.465C18.4934 10.5627 18.4934 10.5627 18.5218 10.5346C18.5218 10.5346 18.5218 10.5346 18.5502 10.5065C18.5502 10.5065 18.5502 10.4784 18.5502 10.4504Z" fill="#FFB164"/>
<path d="M19.26 9.97313C19.2884 9.91694 19.3168 9.86075 19.3452 9.80456C19.3452 9.77646 19.3736 9.74837 19.3452 9.74837C19.3452 9.72027 19.3168 9.69217 19.2884 9.69217C19.26 9.69217 19.2316 9.66408 19.2316 9.69217C19.2032 9.69217 19.1748 9.72027 19.1748 9.74837C19.1464 9.80456 19.118 9.86075 19.0896 9.91694C19.0896 9.94504 19.0613 9.97313 19.0896 9.97313C19.0896 10.0012 19.118 10.0293 19.1464 10.0293C19.1748 10.0293 19.2032 10.0574 19.2032 10.0293C19.2316 10.0012 19.26 10.0012 19.26 9.97313Z" fill="#FFB164"/>
<path d="M19.9132 9.71975C19.9984 9.66356 20.0552 9.57927 20.112 9.49499C20.112 9.46689 20.1404 9.4388 20.112 9.4388C20.112 9.4107 20.0836 9.3826 20.0552 9.3826C20.0268 9.3826 19.9984 9.35451 19.9984 9.3826C19.97 9.3826 19.9416 9.4107 19.9416 9.4388C19.9416 9.46689 19.9132 9.46689 19.9132 9.49499C19.9132 9.49499 19.9132 9.49499 19.9416 9.46689C19.8848 9.52308 19.8564 9.57927 19.7996 9.60737C19.7712 9.63547 19.7712 9.71975 19.7996 9.74785C19.828 9.74785 19.8564 9.74785 19.9132 9.71975Z" fill="#FFB164"/>
<path d="M20.4813 9.77599C20.5665 9.7198 20.6516 9.69171 20.7084 9.63551C20.7368 9.63551 20.7368 9.60742 20.7652 9.57932C20.7652 9.55123 20.7652 9.52313 20.7652 9.52313C20.7368 9.49504 20.68 9.46694 20.6516 9.49504C20.5665 9.55123 20.4813 9.57932 20.4245 9.63551C20.3961 9.63551 20.3961 9.66361 20.3677 9.69171C20.3677 9.7198 20.3677 9.7479 20.3677 9.7479C20.3677 9.77599 20.4529 9.80409 20.4813 9.77599Z" fill="#FFB164"/>
<path d="M20.396 10.3102C20.4528 10.3102 20.538 10.3102 20.5948 10.3102H20.6232C20.6232 10.3102 20.6515 10.3102 20.6515 10.2821C20.6799 10.254 20.6799 10.254 20.6799 10.2259C20.6799 10.1978 20.6799 10.1697 20.6515 10.1697C20.6232 10.1416 20.6232 10.1416 20.5948 10.1416C20.538 10.1416 20.4528 10.1416 20.396 10.1416H20.3676C20.3676 10.1416 20.3392 10.1416 20.3392 10.1697C20.3108 10.1978 20.3108 10.1978 20.3108 10.2259C20.3108 10.254 20.3108 10.2821 20.3392 10.2821C20.3392 10.2821 20.3676 10.3102 20.396 10.3102Z" fill="#FFB164"/>
<path d="M20.112 10.9838H20.1404H20.112C20.1404 10.9838 20.1688 11.0119 20.1688 11.0119C20.1688 11.0119 20.1688 11.0119 20.1404 10.9838L20.1688 11.0119H20.1972H20.2256C20.2256 11.0119 20.254 11.0119 20.254 10.9838C20.2824 10.9557 20.2824 10.9557 20.2824 10.9276C20.2824 10.8995 20.2824 10.8714 20.254 10.8714C20.2256 10.8433 20.2256 10.8433 20.1972 10.8152C20.1688 10.8152 20.1404 10.7871 20.112 10.7871C20.0836 10.7871 20.0552 10.7871 20.0552 10.7871C20.0552 10.7871 20.0268 10.7871 20.0268 10.8152L19.9984 10.8433C19.9984 10.8714 19.9984 10.8995 19.9984 10.8995C19.9984 10.8995 19.9984 10.8995 20.0268 10.9276C20.0552 10.9557 20.0836 10.9838 20.112 10.9838Z" fill="#FFB164"/>
<path d="M19.4588 11.7707C19.4872 11.7707 19.4872 11.7988 19.5156 11.7988C19.5156 11.7988 19.5156 11.7988 19.4872 11.7707C19.5156 11.7988 19.5156 11.7988 19.544 11.8269L19.5724 11.855H19.6008C19.6292 11.855 19.6576 11.855 19.6576 11.8269C19.686 11.7988 19.686 11.7988 19.686 11.7707V11.7426C19.686 11.7145 19.686 11.7145 19.6576 11.6864C19.6292 11.6583 19.6292 11.6583 19.6008 11.6302C19.5724 11.6021 19.544 11.6021 19.5156 11.574C19.4872 11.574 19.4588 11.5459 19.4588 11.574C19.4588 11.574 19.4304 11.574 19.4304 11.6021L19.402 11.6302C19.402 11.6583 19.3736 11.6864 19.402 11.6864C19.402 11.7426 19.4304 11.7426 19.4588 11.7707Z" fill="#FFB164"/>
<path d="M18.8909 12.2475C18.8909 12.2475 18.9193 12.2755 18.8909 12.2475C18.9193 12.2755 18.9193 12.2475 18.8909 12.2475C18.9193 12.2755 18.9193 12.2755 18.9193 12.2755C18.9193 12.2755 18.9193 12.2755 18.8909 12.2475C18.9193 12.2755 18.9193 12.3036 18.9193 12.3036V12.2755V12.3036V12.3317C18.9193 12.3317 18.9193 12.3598 18.9477 12.3598C18.9761 12.3879 18.9761 12.3879 19.0045 12.3879C19.0329 12.3879 19.0613 12.3879 19.0613 12.3598C19.0613 12.3598 19.0613 12.3598 19.0897 12.3317C19.0897 12.3036 19.0897 12.3036 19.0897 12.2755C19.0897 12.2475 19.0897 12.2475 19.0897 12.2194V12.1913C19.0897 12.1632 19.0897 12.1632 19.0613 12.1351C19.0613 12.107 19.0329 12.107 19.0329 12.0789C19.0045 12.0508 19.0045 12.0508 18.9761 12.0508C18.9477 12.0508 18.9193 12.0508 18.9193 12.0789C18.8909 12.107 18.8909 12.107 18.8909 12.1351C18.8625 12.2194 18.8909 12.2194 18.8909 12.2475Z" fill="#FFB164"/>
<path d="M18.1242 12.5579C18.1242 12.586 18.1242 12.6141 18.1242 12.6703V12.6422C18.1242 12.6984 18.0958 12.7265 18.0958 12.7827C18.0958 12.8108 18.0958 12.8389 18.0958 12.8389C18.0958 12.867 18.1242 12.867 18.1526 12.8951C18.181 12.8951 18.2094 12.8951 18.2094 12.8951C18.2094 12.8951 18.2094 12.8951 18.2378 12.867L18.2662 12.8389C18.2946 12.7546 18.323 12.6703 18.323 12.586C18.323 12.5579 18.323 12.5298 18.2946 12.5298C18.2662 12.4736 18.2378 12.4736 18.2094 12.4736C18.181 12.4736 18.1526 12.4736 18.1526 12.5017C18.1242 12.5017 18.1242 12.5298 18.1242 12.5579Z" fill="#FFB164"/>
<path d="M17.528 13.1471C17.528 13.119 17.528 13.0909 17.528 13.0628V13.0347C17.528 13.0347 17.528 13.0066 17.4996 13.0066L17.4712 12.9785H17.4428H17.4144C17.386 12.9785 17.386 12.9785 17.3576 13.0066C17.3576 13.0066 17.3576 13.0066 17.3292 13.0347C17.3292 13.0628 17.3292 13.0628 17.3292 13.0909C17.3292 13.119 17.3292 13.1471 17.3292 13.1752V13.2033C17.3292 13.2033 17.3292 13.2314 17.3576 13.2314L17.386 13.2595H17.4144H17.4428C17.4712 13.2595 17.4712 13.2595 17.4996 13.2314C17.4996 13.2314 17.4996 13.2314 17.528 13.2033C17.528 13.1752 17.528 13.1471 17.528 13.1471Z" fill="#FFB164"/>
<path opacity="0.24" d="M18.6353 14.1594C18.8625 14.1313 19.0896 14.0751 19.2884 13.9346C19.3452 13.8784 19.402 13.7941 19.3736 13.7098C19.3452 13.6536 19.26 13.6536 19.1748 13.6817C19.0328 13.7098 18.8909 13.7379 18.7205 13.7098C18.4649 13.6817 17.9254 13.4851 17.7834 13.8503C17.613 14.2155 18.4649 14.1874 18.6353 14.1594Z" fill="white"/>
<path d="M19.6576 16.6878C19.6576 16.6878 20.4527 19.3288 23.8603 18.0645C27.2679 16.8002 25.9332 14.1592 25.9332 14.1592L19.6576 16.6878Z" fill="#E24C24"/>
<path d="M23.297 16.6828C25.0344 16.0085 26.2245 14.9115 25.9553 14.2326C25.6861 13.5537 24.0595 13.55 22.3222 14.2243C20.5849 14.8987 19.3947 15.9957 19.6639 16.6746C19.9331 17.3535 21.5597 17.3572 23.297 16.6828Z" fill="#FF5A27"/>
<path d="M23.2349 16.5253C24.8262 15.9076 25.9259 14.9268 25.6911 14.3346C25.4562 13.7423 23.9759 13.763 22.3845 14.3806C20.7932 14.9983 19.6935 15.9791 19.9284 16.5713C20.1632 17.1636 21.6436 17.1429 23.2349 16.5253Z" fill="#FF8B78"/>
<path d="M21.5318 15.4805C21.4466 15.5648 21.333 15.7052 21.3898 15.8457C21.4182 15.9019 21.4466 15.93 21.475 15.9862C21.475 16.0424 21.4466 16.0986 21.475 16.1548C21.475 16.1829 21.5318 16.211 21.5602 16.239C21.7874 16.3514 22.0429 16.2671 22.2985 16.1548C22.8948 15.8738 23.4912 15.5928 24.0875 15.3119C24.2295 15.2276 24.4282 15.1433 24.4282 14.9747C24.4282 14.8343 24.3431 14.6938 24.2011 14.6657C24.0591 14.6095 23.9171 14.6095 23.7751 14.6376C23.3492 14.6938 22.9232 14.75 22.5257 14.9466C22.1565 15.059 21.8157 15.1995 21.5318 15.4805Z" fill="#FF5A27"/>
<path d="M20.5096 16.379C20.6232 16.3228 20.7367 16.2667 20.8219 16.2105C20.8503 16.2105 20.8503 16.1824 20.8503 16.1543C20.8503 16.1262 20.8503 16.0981 20.8219 16.07C20.7935 16.0138 20.7367 16.0138 20.68 16.0419C20.6516 16.07 20.6232 16.07 20.5948 16.0981H20.6232C20.5664 16.1262 20.4812 16.1824 20.4244 16.2105C20.3676 16.2386 20.3392 16.2948 20.3676 16.3228C20.4244 16.379 20.4812 16.4071 20.5096 16.379Z" fill="#FFB164"/>
<path d="M20.623 15.9299C20.7366 15.8737 20.6798 15.7051 20.5662 15.7613C20.4526 15.7894 20.5094 15.9861 20.623 15.9299Z" fill="#FFB164"/>
<path d="M20.6232 15.9296C20.68 15.9015 20.7652 15.9015 20.822 15.8734C20.8504 15.8734 20.8788 15.8453 20.8788 15.8172C20.8788 15.7891 20.8788 15.761 20.8788 15.7329C20.8788 15.7049 20.8504 15.6768 20.822 15.6768C20.7936 15.6768 20.7652 15.6768 20.7368 15.6768C20.68 15.7049 20.5948 15.7049 20.538 15.7329C20.5096 15.7329 20.4812 15.761 20.4812 15.7891C20.4812 15.8172 20.4812 15.8453 20.4812 15.8734C20.4812 15.9015 20.5096 15.9296 20.538 15.9296C20.5948 15.9296 20.5948 15.9296 20.6232 15.9296Z" fill="#FFB164"/>
<path d="M21.0491 15.2831C21.0491 15.3112 21.0775 15.3112 21.1059 15.3112C21.1343 15.3112 21.1343 15.3392 21.1627 15.3392C21.1911 15.3673 21.2479 15.3673 21.2763 15.3673H21.3047C21.3047 15.3673 21.3331 15.3673 21.3331 15.3392C21.3331 15.3392 21.3331 15.3112 21.3615 15.3112V15.2831V15.255C21.3615 15.2269 21.3331 15.2269 21.3331 15.2269C21.3047 15.1988 21.2763 15.1988 21.2763 15.1988C21.2763 15.1988 21.2763 15.1988 21.2479 15.1988H21.2763H21.2479H21.2763C21.2763 15.1988 21.2479 15.1988 21.2479 15.1707C21.2479 15.1707 21.2479 15.1707 21.2763 15.1707L21.2479 15.1426C21.2479 15.1426 21.2479 15.1426 21.2763 15.1707L21.2479 15.1426H21.2195H21.1911C21.1911 15.1426 21.1627 15.1426 21.1627 15.1707C21.1343 15.1988 21.1343 15.1988 21.1343 15.2269C21.0207 15.255 21.0207 15.2831 21.0491 15.2831Z" fill="#FFB164"/>
<path d="M21.5886 14.9742C21.617 15.0023 21.617 15.0304 21.6454 15.0585L21.6738 15.0866H21.7022H21.7306C21.7306 15.0866 21.759 15.0866 21.759 15.0585C21.7874 15.0304 21.7874 15.0304 21.7874 15.0023V14.9742C21.7874 14.9461 21.7874 14.9461 21.759 14.918C21.7306 14.89 21.7306 14.8619 21.7022 14.8338L21.6738 14.8057H21.6454H21.617C21.617 14.8057 21.5886 14.8057 21.5886 14.8338C21.5602 14.8619 21.5602 14.8619 21.5602 14.89V14.918C21.5886 14.9461 21.5886 14.9461 21.5886 14.9742Z" fill="#FFB164"/>
<path d="M22.8379 14.6086C22.8663 14.5805 22.8663 14.5243 22.8947 14.4962V14.4681V14.44C22.8947 14.44 22.8947 14.4119 22.8663 14.4119L22.8379 14.3838H22.8095C22.7811 14.3838 22.7811 14.3838 22.7527 14.3838H22.7244L22.696 14.4119C22.6676 14.44 22.6676 14.4962 22.6392 14.5243V14.5524V14.5805C22.6392 14.5805 22.6392 14.6086 22.6676 14.6086L22.696 14.6367H22.7244C22.7527 14.6367 22.7527 14.6367 22.7811 14.6367H22.8095C22.8095 14.6367 22.8095 14.6367 22.8379 14.6086Z" fill="#FFB164"/>
<path d="M23.6616 14.4118C23.7184 14.3837 23.7752 14.3275 23.8036 14.2994C23.832 14.2713 23.832 14.2713 23.832 14.2432C23.832 14.2151 23.832 14.1871 23.8036 14.159C23.7752 14.1309 23.7752 14.1309 23.7468 14.1309C23.7184 14.1309 23.69 14.1309 23.6616 14.159C23.6048 14.1871 23.548 14.2432 23.5196 14.2713C23.4912 14.2994 23.4912 14.2994 23.4912 14.3275C23.4912 14.3556 23.4912 14.3837 23.5196 14.4118C23.548 14.4399 23.548 14.4399 23.5764 14.4399C23.6332 14.4399 23.6616 14.4399 23.6616 14.4118Z" fill="#FFB164"/>
<path d="M24.3714 14.4401C24.4566 14.412 24.5702 14.3559 24.6554 14.3278C24.6838 14.3278 24.6838 14.2997 24.6838 14.2716C24.6838 14.2435 24.6838 14.2154 24.6554 14.1873C24.627 14.1592 24.627 14.1592 24.5986 14.1592C24.5702 14.1592 24.5418 14.1592 24.5134 14.1873C24.485 14.1873 24.485 14.2154 24.4566 14.2154H24.485C24.4282 14.2435 24.343 14.2716 24.2862 14.2997C24.2294 14.3278 24.201 14.3839 24.2294 14.412C24.2578 14.412 24.3146 14.4401 24.3714 14.4401Z" fill="#FFB164"/>
<path d="M24.8826 14.6925C24.9678 14.6644 25.0814 14.6644 25.1666 14.6363C25.195 14.6363 25.2234 14.6083 25.2234 14.6083C25.2234 14.5802 25.2518 14.5521 25.2518 14.5521C25.2518 14.4959 25.195 14.4678 25.1382 14.4678C25.053 14.4959 24.9394 14.4959 24.8542 14.524C24.8258 14.524 24.7974 14.5521 24.7974 14.5521C24.7974 14.5802 24.769 14.6083 24.769 14.6083C24.769 14.6644 24.8258 14.7206 24.8826 14.6925Z" fill="#FFB164"/>
<path d="M24.5987 15.143C24.6555 15.1711 24.7122 15.1711 24.7974 15.1991H24.8258H24.8542C24.8826 15.1991 24.911 15.1711 24.911 15.143C24.911 15.1149 24.911 15.0868 24.911 15.0587C24.911 15.0306 24.8826 15.0025 24.8542 15.0025C24.7974 14.9744 24.7406 14.9744 24.6555 14.9463H24.6271H24.5987C24.5703 14.9463 24.5419 14.9744 24.5419 15.0025C24.5419 15.0306 24.5419 15.0587 24.5419 15.0868C24.5703 15.1149 24.5703 15.143 24.5987 15.143Z" fill="#FFB164"/>
<path d="M24.0591 15.6764L24.0875 15.7045C24.0875 15.6764 24.0875 15.6764 24.0591 15.6764C24.0875 15.7045 24.0875 15.7045 24.1159 15.7326V15.7045C24.1159 15.7045 24.1159 15.7045 24.1159 15.7326C24.1159 15.7326 24.1159 15.7607 24.1443 15.7607L24.1727 15.7888H24.2011H24.2295C24.2579 15.7888 24.2863 15.7607 24.2863 15.7326C24.2863 15.7045 24.2863 15.6764 24.2863 15.6483C24.2863 15.6202 24.2579 15.5921 24.2579 15.5921C24.2295 15.564 24.2295 15.564 24.2011 15.5359C24.1727 15.5078 24.1443 15.5078 24.1443 15.5078H24.1159C24.1159 15.5078 24.0875 15.5078 24.0875 15.5359C24.0875 15.564 24.0591 15.5921 24.0591 15.5921V15.6202C24.0591 15.6483 24.0591 15.6483 24.0591 15.6764Z" fill="#FFB164"/>
<path d="M23.1788 16.1549C23.1788 16.183 23.2072 16.183 23.2072 16.2111V16.183C23.2072 16.2111 23.2356 16.2392 23.2356 16.2392C23.2356 16.2392 23.2356 16.2673 23.264 16.2673L23.2924 16.2954C23.3208 16.2954 23.3492 16.2954 23.3776 16.2954C23.406 16.2954 23.4344 16.2673 23.4344 16.2392V16.2111C23.4344 16.183 23.4344 16.183 23.4344 16.1549C23.4344 16.1268 23.406 16.0987 23.406 16.0987C23.3776 16.0706 23.3776 16.0425 23.3492 16.0144C23.3208 15.9863 23.3208 15.9863 23.2924 15.9863H23.264C23.264 15.9863 23.2356 15.9863 23.2356 16.0144C23.2072 16.0425 23.2072 16.0425 23.2072 16.0706C23.1504 16.0987 23.1504 16.1268 23.1788 16.1549Z" fill="#FFB164"/>
<path d="M22.4689 16.4073V16.4354C22.4689 16.4073 22.4689 16.4073 22.4689 16.4073C22.4689 16.4354 22.4689 16.4354 22.4689 16.4635C22.4973 16.4354 22.4973 16.4354 22.4689 16.4073C22.4689 16.4354 22.4689 16.4635 22.4689 16.4635V16.4354C22.4689 16.4354 22.4689 16.4635 22.4406 16.4635V16.4916V16.5197C22.4406 16.5478 22.4689 16.5759 22.4973 16.5759C22.5257 16.5759 22.5541 16.5759 22.5825 16.5759H22.6109L22.6393 16.5478C22.6393 16.5197 22.6677 16.5197 22.6677 16.4916V16.4635C22.6677 16.4354 22.6677 16.4354 22.6677 16.4073C22.6677 16.3792 22.6677 16.3792 22.6393 16.3511C22.6393 16.323 22.6109 16.323 22.5825 16.2949C22.5541 16.2949 22.5257 16.2949 22.4973 16.2949C22.4689 16.2949 22.4406 16.323 22.4406 16.3511C22.4689 16.3511 22.4689 16.3792 22.4689 16.4073Z" fill="#FFB164"/>
<path d="M21.6454 16.4066C21.6454 16.4346 21.617 16.4627 21.5886 16.4908C21.5886 16.4908 21.5886 16.4908 21.5886 16.4627C21.5602 16.5189 21.5318 16.547 21.5034 16.5751C21.475 16.6032 21.475 16.6313 21.475 16.6313C21.475 16.6594 21.5034 16.6875 21.5034 16.6875C21.5318 16.6875 21.5602 16.7156 21.5602 16.7156H21.5886C21.617 16.7156 21.617 16.6875 21.617 16.6875C21.6738 16.6313 21.7305 16.547 21.7589 16.4627C21.7589 16.4346 21.7589 16.4066 21.7589 16.3785C21.7589 16.3504 21.7305 16.3223 21.7021 16.3223C21.6738 16.3223 21.6454 16.3223 21.617 16.3223C21.6738 16.3504 21.6454 16.3785 21.6454 16.4066Z" fill="#FFB164"/>
<path d="M20.8787 16.7152C20.8787 16.6871 20.9071 16.659 20.9071 16.6309V16.6028V16.5747C20.9071 16.5747 20.9071 16.5466 20.8787 16.5466L20.8503 16.5186H20.8219C20.7935 16.5186 20.7935 16.5186 20.7651 16.5186H20.7367L20.7083 16.5466C20.7083 16.5747 20.6799 16.6028 20.6799 16.6309V16.659V16.6871C20.6799 16.6871 20.6799 16.7152 20.7083 16.7152L20.7367 16.7433H20.7651C20.7935 16.7433 20.7935 16.7433 20.8219 16.7433H20.8503C20.8503 16.7433 20.8503 16.7433 20.8787 16.7152Z" fill="#FFB164"/>
<path opacity="0.24" d="M21.5034 18.0926C21.7306 18.1488 21.9577 18.1769 22.1849 18.1207C22.2701 18.0926 22.3553 18.0364 22.3269 17.9522C22.2985 17.896 22.2417 17.8679 22.1565 17.8398C22.0145 17.8117 21.8725 17.7836 21.7306 17.6993C21.5034 17.5588 21.0774 17.1936 20.7935 17.4745C20.5379 17.7555 21.333 18.0364 21.5034 18.0926Z" fill="white"/>
<path d="M4.2097 12.0801C4.2097 12.0801 1.5972 13.0634 3.10223 16.3225C4.60725 19.5535 7.19135 18.0926 7.19135 18.0926L4.2097 12.0801Z" fill="#E24C24"/>
<path d="M7.12631 18.1033C7.79251 17.7912 7.68503 16.1853 6.88626 14.5164C6.0875 12.8475 4.89991 11.7477 4.23372 12.0598C3.56752 12.372 3.675 13.9779 4.47376 15.6468C5.27253 17.3156 6.46012 18.4155 7.12631 18.1033Z" fill="#FF5A27"/>
<path d="M7.00476 17.8493C7.58591 17.577 7.46391 16.117 6.73226 14.5884C6.00062 13.0598 4.93639 12.0413 4.35524 12.3136C3.77409 12.5859 3.89609 14.0458 4.62774 15.5745C5.35939 17.1031 6.42361 18.1216 7.00476 17.8493Z" fill="#FF8B78"/>
<path d="M5.57275 13.8493C5.45916 13.765 5.31718 13.6808 5.20359 13.7369C5.1468 13.765 5.1184 13.8212 5.06161 13.8212C5.00482 13.8212 4.94802 13.8212 4.89123 13.8212C4.86283 13.8493 4.83444 13.8774 4.80604 13.9055C4.69245 14.1303 4.83444 14.3831 4.94802 14.6079C5.28878 15.1698 5.60115 15.7317 5.94191 16.2937C6.0271 16.4341 6.14068 16.6027 6.31106 16.6027C6.45305 16.6027 6.56663 16.4903 6.62343 16.3498C6.68022 16.2094 6.65182 16.0689 6.62343 15.9284C6.53824 15.507 6.42465 15.0855 6.22587 14.7203C6.0271 14.4393 5.85672 14.1022 5.57275 13.8493Z" fill="#FF5A27"/>
<path d="M4.5789 12.8944C4.63569 13.0068 4.69249 13.0911 4.77768 13.2034C4.77768 13.2315 4.80607 13.2315 4.83447 13.2315C4.86287 13.2315 4.89126 13.2315 4.89126 13.2034C4.91966 13.1753 4.91966 13.1192 4.89126 13.063C4.86287 13.0349 4.86287 13.0068 4.83447 12.9787C4.83447 12.9787 4.83447 12.9787 4.83447 13.0068C4.80607 12.9506 4.74928 12.8663 4.72088 12.8101C4.69249 12.7539 4.63569 12.7539 4.6073 12.7539C4.5789 12.782 4.5505 12.8382 4.5789 12.8944Z" fill="#FFB164"/>
<path d="M5.03328 12.9782C5.09007 13.0906 5.26046 13.0063 5.20366 12.8939C5.14687 12.7815 4.97649 12.8658 5.03328 12.9782Z" fill="#FFB164"/>
<path d="M5.0332 12.9784C5.0616 13.0346 5.09 13.1188 5.11839 13.175C5.11839 13.2031 5.14679 13.2031 5.17519 13.2312C5.20358 13.2312 5.23198 13.2312 5.26038 13.2312C5.28877 13.2312 5.28877 13.2031 5.31717 13.175C5.31717 13.1469 5.31717 13.1188 5.31717 13.0908C5.28877 13.0346 5.26038 12.9503 5.23198 12.8941C5.23198 12.866 5.20358 12.866 5.17519 12.8379C5.14679 12.8379 5.11839 12.8379 5.09 12.8379C5.0616 12.8379 5.0616 12.866 5.0332 12.8941C5.0332 12.9222 5.0332 12.9503 5.0332 12.9784Z" fill="#FFB164"/>
<path d="M5.7148 13.3449C5.7148 13.3449 5.6864 13.373 5.6864 13.4011C5.6864 13.4292 5.65801 13.4292 5.65801 13.4573C5.65801 13.4854 5.62961 13.5416 5.65801 13.5697C5.65801 13.5697 5.65801 13.5978 5.6864 13.5978L5.7148 13.6259H5.7432H5.77159H5.79999C5.82839 13.6259 5.82839 13.5978 5.82839 13.5978C5.82839 13.5697 5.85678 13.5416 5.85678 13.5416C5.85678 13.5416 5.85678 13.5416 5.85678 13.5135V13.5416V13.5135V13.5416V13.5135V13.5416C5.85678 13.5416 5.85678 13.5135 5.88518 13.5135C5.88518 13.5135 5.88518 13.5135 5.85678 13.5416L5.88518 13.5135V13.4854V13.4573C5.88518 13.4573 5.88518 13.4292 5.85678 13.4292C5.82839 13.4011 5.82839 13.4011 5.79999 13.4011C5.77159 13.3168 5.7432 13.3168 5.7148 13.3449Z" fill="#FFB164"/>
<path d="M6.08392 13.8777C6.05553 13.9058 6.02713 13.9058 5.99873 13.9339L5.97034 13.962V13.9901V14.0182C5.97034 14.0182 5.97034 14.0463 5.99873 14.0463C6.02713 14.0744 6.02713 14.0744 6.05553 14.0744H6.08392C6.11232 14.0744 6.11232 14.0744 6.14072 14.0463C6.16911 14.0182 6.19751 14.0182 6.22591 13.9901L6.2543 13.962V13.9339V13.9058C6.2543 13.9058 6.2543 13.8777 6.22591 13.8777C6.19751 13.8496 6.19751 13.8496 6.16911 13.8496H6.14072C6.11232 13.8496 6.08392 13.8496 6.08392 13.8777Z" fill="#FFB164"/>
<path d="M6.50984 15.057C6.53824 15.0851 6.59503 15.0851 6.62343 15.1132H6.65183H6.68022C6.68022 15.1132 6.70862 15.1132 6.70862 15.0851L6.73702 15.057V15.0289C6.73702 15.0008 6.73702 15.0008 6.73702 14.9727C6.73702 14.9727 6.73702 14.9727 6.73702 14.9446L6.70862 14.9165C6.68022 14.8884 6.62343 14.8884 6.59503 14.8604H6.56664H6.53824C6.53824 14.8604 6.50984 14.8604 6.50984 14.8884L6.48145 14.9165V14.9446C6.48145 14.9727 6.48145 14.9727 6.48145 15.0008C6.48145 15.0008 6.48145 15.0008 6.48145 15.0289C6.48145 15.0289 6.50984 15.057 6.50984 15.057Z" fill="#FFB164"/>
<path d="M6.76534 15.8719C6.79373 15.9281 6.85052 15.9562 6.87892 16.0124C6.90732 16.0405 6.90732 16.0405 6.93571 16.0405C6.96411 16.0405 6.99251 16.0405 6.99251 16.0124C7.0209 15.9843 7.0209 15.9843 7.0209 15.9562C7.0209 15.9281 7.0209 15.9 6.99251 15.9C6.96411 15.8438 6.90732 15.8157 6.87892 15.7595C6.85052 15.7314 6.85052 15.7314 6.82213 15.7314C6.79373 15.7314 6.76534 15.7314 6.76534 15.7595C6.73694 15.7876 6.73694 15.7876 6.73694 15.8157C6.73694 15.8438 6.76534 15.8719 6.76534 15.8719Z" fill="#FFB164"/>
<path d="M6.82212 16.575C6.85052 16.6593 6.90731 16.7436 6.9641 16.8279C6.9641 16.856 6.9925 16.856 7.0209 16.856C7.04929 16.856 7.07769 16.856 7.07769 16.8279C7.10608 16.7998 7.10608 16.7998 7.10608 16.7717C7.10608 16.7436 7.10608 16.7155 7.07769 16.7155C7.07769 16.6874 7.04929 16.6874 7.04929 16.6593C7.04929 16.6593 7.04929 16.6593 7.04929 16.6874C7.0209 16.6312 6.9641 16.575 6.9641 16.4908C6.93571 16.4346 6.87891 16.4346 6.85052 16.4346C6.79372 16.4627 6.79372 16.5189 6.82212 16.575Z" fill="#FFB164"/>
<path d="M6.56677 17.0802C6.59517 17.1644 6.62357 17.2487 6.62357 17.3611C6.62357 17.3892 6.65196 17.4173 6.65196 17.4173C6.68036 17.4173 6.70876 17.4454 6.70876 17.4454C6.76555 17.4454 6.79394 17.3892 6.79394 17.333C6.76555 17.2487 6.73715 17.1644 6.73715 17.0521C6.73715 17.024 6.70876 16.9959 6.70876 16.9959C6.68036 16.9959 6.65196 16.9678 6.65196 16.9678C6.59517 16.9959 6.56677 17.024 6.56677 17.0802Z" fill="#FFB164"/>
<path d="M6.08389 16.856C6.0555 16.9122 6.0555 16.9684 6.0271 17.0527V17.0808V17.1089C6.0271 17.137 6.0555 17.137 6.08389 17.165C6.11229 17.165 6.14069 17.165 6.16908 17.165C6.19748 17.165 6.19748 17.137 6.22588 17.1089C6.25427 17.0527 6.25427 16.9965 6.28267 16.9122V16.8841V16.856C6.28267 16.8279 6.25427 16.8279 6.22588 16.7998C6.19748 16.7998 6.16908 16.7998 6.14069 16.7998C6.11229 16.7998 6.11229 16.8279 6.08389 16.856Z" fill="#FFB164"/>
<path d="M5.54437 16.3494L5.51598 16.3775C5.51598 16.3775 5.51598 16.3775 5.54437 16.3494C5.51598 16.3775 5.51598 16.3775 5.48758 16.4056C5.48758 16.4056 5.48758 16.4056 5.51598 16.4056C5.51598 16.4056 5.51598 16.4056 5.48758 16.4056C5.48758 16.4056 5.45918 16.4056 5.45918 16.4337L5.43079 16.4618V16.4899V16.518C5.43079 16.5461 5.45918 16.5461 5.48758 16.5741C5.51598 16.5741 5.54437 16.5741 5.57277 16.5741C5.60117 16.5741 5.62956 16.5461 5.62956 16.518C5.65796 16.4899 5.65796 16.4899 5.68636 16.4618C5.68636 16.4337 5.71475 16.4056 5.71475 16.4056C5.71475 16.4056 5.71475 16.3775 5.68636 16.3775L5.65796 16.3494C5.62956 16.3494 5.60117 16.3213 5.60117 16.3213H5.57277C5.57277 16.3213 5.54437 16.3494 5.54437 16.3494Z" fill="#FFB164"/>
<path d="M4.97646 15.5077C4.94806 15.5358 4.94806 15.5358 4.91966 15.5358C4.94806 15.5358 4.94806 15.5358 4.97646 15.5077C4.91966 15.5358 4.89127 15.5639 4.89127 15.5639C4.89127 15.5639 4.86287 15.5639 4.86287 15.592L4.83447 15.6201C4.83447 15.6482 4.83447 15.6763 4.83447 15.7044C4.83447 15.7325 4.86287 15.7325 4.89127 15.7606H4.91966C4.94806 15.7606 4.94806 15.7606 4.97646 15.7606C5.00485 15.7606 5.03325 15.7325 5.03325 15.7325C5.06165 15.7044 5.09004 15.7044 5.11844 15.6763C5.14684 15.6482 5.14684 15.6482 5.14684 15.6201V15.592C5.14684 15.592 5.14684 15.5639 5.11844 15.5639C5.09004 15.5358 5.09004 15.5358 5.06165 15.5358C5.03325 15.4796 5.00485 15.4796 4.97646 15.5077Z" fill="#FFB164"/>
<path d="M4.69247 14.8336H4.66408C4.66408 14.8336 4.69247 14.8336 4.69247 14.8336C4.66408 14.8336 4.66408 14.8336 4.63568 14.8336C4.66408 14.8336 4.66408 14.8336 4.69247 14.8336C4.66408 14.8336 4.63568 14.8336 4.63568 14.8336H4.66408H4.63568H4.60728H4.57889C4.55049 14.8336 4.55049 14.8617 4.52209 14.8898C4.52209 14.9179 4.52209 14.946 4.52209 14.974C4.52209 14.974 4.52209 14.974 4.52209 15.0021L4.55049 15.0302C4.57889 15.0302 4.57889 15.0302 4.60728 15.0583H4.63568C4.66408 15.0583 4.66408 15.0583 4.69247 15.0583C4.72087 15.0583 4.72087 15.0583 4.74927 15.0302C4.77766 15.0302 4.77766 15.0021 4.80606 14.974C4.80606 14.946 4.80606 14.9179 4.80606 14.8898C4.80606 14.8617 4.77766 14.8617 4.74927 14.8336C4.74927 14.8055 4.72087 14.8055 4.69247 14.8336Z" fill="#FFB164"/>
<path d="M4.63568 13.9903C4.60729 13.9903 4.57889 13.9622 4.55049 13.9622H4.57889C4.5221 13.9341 4.4937 13.906 4.4653 13.8779C4.43691 13.8779 4.40851 13.8779 4.38011 13.8779C4.35172 13.8779 4.32332 13.906 4.32332 13.906C4.32332 13.9341 4.29492 13.9622 4.29492 13.9622V13.9903C4.29492 14.0184 4.32332 14.0184 4.32332 14.0184C4.38011 14.0746 4.4653 14.1308 4.55049 14.1589C4.57889 14.1589 4.60729 14.1589 4.63568 14.1589C4.66408 14.1589 4.66408 14.1308 4.69248 14.1027C4.69248 14.0746 4.69248 14.0465 4.69248 14.0184C4.69248 14.0184 4.66408 14.0184 4.63568 13.9903Z" fill="#FFB164"/>
<path d="M4.26668 13.2601C4.29507 13.2601 4.32347 13.2882 4.35187 13.2882H4.38026H4.40866C4.40866 13.2882 4.43706 13.2882 4.43706 13.2601L4.46545 13.2321V13.204C4.46545 13.1759 4.46545 13.1759 4.46545 13.1478C4.46545 13.1478 4.46545 13.1478 4.46545 13.1197L4.43706 13.0916C4.40866 13.0916 4.38026 13.0635 4.35187 13.0635H4.32347H4.29507C4.29507 13.0635 4.26668 13.0635 4.26668 13.0916L4.23828 13.1197V13.1478C4.23828 13.1759 4.23828 13.1759 4.23828 13.204C4.23828 13.204 4.23828 13.204 4.23828 13.2321C4.23828 13.2601 4.23828 13.2601 4.26668 13.2601Z" fill="#FFB164"/>
<path opacity="0.24" d="M2.93196 13.9903C2.90356 14.2151 2.87517 14.468 2.96036 14.6646C2.98875 14.7489 3.07394 14.8332 3.13074 14.8051C3.18753 14.777 3.21593 14.6927 3.21593 14.6365C3.24432 14.4961 3.24432 14.3275 3.32951 14.2151C3.4431 13.9903 3.78386 13.5408 3.49989 13.2879C3.18753 13.0351 2.96036 13.8218 2.93196 13.9903Z" fill="white"/>
<path d="M6.05562 14.9732C6.42477 14.7484 6.99271 14.8327 7.24828 15.1698C7.56064 14.7203 8.27056 14.636 8.7249 14.917C9.20765 15.1979 9.46322 15.7598 9.46322 16.2937C10.2299 16.0408 11.0534 16.6027 11.5078 17.277C11.593 17.3894 11.6498 17.5018 11.7633 17.5861C11.9053 17.6704 12.0757 17.6984 12.2461 17.6984C13.6091 17.867 14.8018 18.9908 15.0574 20.3394C15.1425 20.7609 15.1142 21.2104 14.887 21.5476C14.6882 21.8285 14.3758 21.9971 14.0919 22.1376C13.7511 22.3061 13.4104 22.5028 13.0128 22.5309C11.9053 22.6152 11.167 21.4071 10.1731 20.9575C9.34963 20.5923 8.38414 20.7328 7.56064 20.3675C6.90752 20.0866 6.28279 19.5247 5.71486 19.1032C5.23211 18.738 4.91975 18.3727 4.74937 17.8108C4.5222 17.1084 4.63578 15.7598 5.74325 16.097C5.57287 15.7037 5.68646 15.1979 6.05562 14.9732Z" fill="#89E269"/>
<path d="M32.4929 14.2715H31.8114C31.6978 16.772 26.3876 18.1487 16.6759 18.1487C7.27664 18.1487 1.71089 16.3506 1.54051 14.2715H0.858994C0.858994 14.2715 0.603424 17.4744 2.42081 21.3516C5.14689 27.1674 8.92365 28.235 8.92365 28.235L16.6191 28.3755L24.3146 28.235C24.3146 28.235 28.063 27.1955 30.7891 21.3797C32.5781 17.4744 32.4929 14.2715 32.4929 14.2715Z" fill="#EDCEB9"/>
<path d="M24.4283 29.4992V28.1506L16.676 27.1953L8.9237 28.2349V29.4992C8.9237 29.4992 8.86691 30.1173 11.2238 30.9039C14.4327 31.9997 19.686 31.6344 22.1849 30.9039C24.5419 30.2015 24.4283 29.4992 24.4283 29.4992Z" fill="#EDCEB9"/>
<path d="M22.1565 30.9041C24.5419 30.2017 24.4567 29.4993 24.4567 29.4993V28.1507L20.9071 27.7012C20.9071 27.7012 20.9071 27.7012 20.8787 27.7012C20.4811 27.954 20.0836 28.1507 20.0552 28.6564C20.0268 29.1902 20.3108 29.8364 20.0836 30.3422C19.9416 30.6512 19.5725 30.7636 19.2317 30.8479C16.6192 31.4379 13.9499 31.0727 11.3942 30.4545C10.5991 30.2579 9.7756 30.0331 9.12248 29.5836C9.06569 29.5555 9.00889 29.4993 8.9237 29.4712C8.9237 29.4712 8.86691 30.0893 11.2238 30.876C14.4043 31.9998 19.6576 31.6346 22.1565 30.9041Z" fill="#EABFAC"/>
<path opacity="0.38" d="M4.66407 19.2166C4.49369 19.6381 4.63567 20.1157 4.80605 20.5652C5.2604 21.7452 5.88513 22.841 6.59504 23.9086C7.10618 24.6672 7.73091 25.4539 8.6396 25.6224C8.95197 25.6786 9.29273 25.6505 9.57669 25.5101C9.86066 25.3696 10.0594 25.0605 10.0878 24.7515C10.0878 24.4143 9.91745 24.1334 9.74707 23.8524C9.32112 23.1781 8.98036 22.4476 8.78159 21.6891C8.668 21.1833 8.61121 20.6214 8.35564 20.1719C7.87289 19.329 5.17521 17.8399 4.66407 19.2166Z" fill="white"/>
<path opacity="0.38" d="M10.1163 28.7407C10.0311 28.7407 9.97429 28.7407 9.8891 28.7969C9.74712 28.8812 9.74712 29.0778 9.80391 29.2183C9.8891 29.3588 10.0311 29.4431 10.1447 29.4993C10.7126 29.7802 11.3373 29.9488 11.9905 30.0612C12.246 30.1174 12.5016 30.1455 12.7288 30.0331C12.9559 29.9488 13.1263 29.6678 13.0127 29.4431C12.8992 29.2464 12.6152 29.1902 12.388 29.1902C11.6497 29.1059 10.8546 28.7126 10.1163 28.7407Z" fill="white"/>
<path d="M32.4645 14.2715H31.783C31.7262 15.6763 30.0224 16.7158 26.8419 17.3901C26.6716 18.542 26.3024 19.8906 25.5641 21.3235C23.3207 25.5098 21.2194 26.6898 18.6637 27.5326C15.4833 28.6003 11.7633 28.3474 11.7633 28.3474C11.7633 28.3474 15.5117 29.1903 18.4933 29.1903C21.475 29.1903 24.2578 28.235 24.2578 28.235C24.2578 28.235 28.0062 27.1955 30.7323 21.3797C32.5497 17.4744 32.4645 14.2715 32.4645 14.2715Z" fill="#EABFAC"/>
<path d="M32.4934 14.0469H31.8119C31.8119 14.1312 31.8119 14.1874 31.8119 14.2716C31.7267 16.8003 26.4165 18.1769 16.6764 18.1769C7.24874 18.1769 1.683 16.3507 1.54102 14.2716C1.54102 14.1874 1.56941 14.1312 1.56941 14.0469H0.887894C0.887894 14.1312 0.859497 14.2154 0.859497 14.2997C1.00148 16.6036 6.82279 18.6546 16.6764 18.6546C26.8708 18.6546 32.4082 17.1093 32.4934 14.2716C32.4934 14.1874 32.4934 14.1031 32.4934 14.0469Z" fill="#FFDFCA"/>
<path d="M3.6985 11.4605L3.55652 12.5562C3.55652 12.5562 3.98247 14.1858 6.33939 14.7758C8.98028 15.422 10.9964 14.832 11.1384 13.2305C11.1668 12.9777 10.8829 12.2472 10.8829 12.2472L3.67011 11.4043L3.6985 11.4605Z" fill="#59B24F"/>
<path d="M10.9157 12.7183C11.1135 11.7131 9.66393 10.5881 7.67804 10.2055C5.69216 9.82302 3.92193 10.3279 3.72412 11.3331C3.52632 12.3384 4.97585 13.4634 6.96173 13.8459C8.94762 14.2285 10.7179 13.7236 10.9157 12.7183Z" fill="#84D17D"/>
<path d="M10.6841 12.5565C10.6273 13.3432 9.12227 13.877 7.27649 13.5961C5.4307 13.3151 3.89728 12.2475 3.92568 11.4608C3.98247 10.6741 5.62948 10.0841 7.47526 10.3651C9.29265 10.646 10.7125 11.7698 10.6841 12.5565Z" fill="#B0EDA9"/>
<path d="M5.26032 11.4602C5.20352 11.404 5.14673 11.3478 5.14673 11.2636C5.14673 11.1231 5.31711 11.095 5.4307 11.095C5.68627 11.1231 5.97023 11.1793 6.19741 11.2917C6.11222 11.1793 6.05542 11.0669 6.02703 10.9545C6.02703 10.9264 5.99863 10.8983 6.02703 10.8702C6.05542 10.814 6.14061 10.8421 6.19741 10.8702C6.48137 11.0107 6.73694 11.2074 6.96411 11.4321C6.87892 11.3197 6.85053 11.1793 6.85053 11.0669C6.85053 10.9264 6.90732 10.814 7.02091 10.7578C7.16289 10.7016 7.36167 10.7859 7.47525 10.9264C7.58884 11.0669 7.61724 11.2355 7.64563 11.404C7.87281 11.2355 8.18517 11.1793 8.46914 11.2636C8.52593 11.2917 8.61112 11.3197 8.63952 11.3759C8.69631 11.4883 8.58272 11.5726 8.49753 11.6288C8.83829 11.5726 9.23585 11.7131 9.49142 11.994C9.51981 12.0221 9.54821 12.0783 9.54821 12.1064C9.54821 12.1345 9.51981 12.1626 9.51981 12.1626C9.37783 12.3031 9.20745 12.3593 9.00867 12.3874C8.8099 12.4155 8.61112 12.3593 8.41234 12.3312C8.61112 12.4155 8.7815 12.5279 8.95188 12.6683C8.98028 12.6964 8.98028 12.6964 9.00867 12.7245C9.00867 12.7526 9.00867 12.7526 8.98028 12.7807C8.83829 12.9774 8.55433 13.0055 8.32715 12.8931C8.09998 12.8088 7.9012 12.6121 7.73082 12.4436C7.81601 12.5841 7.87281 12.7245 7.84441 12.8931C7.81601 13.0336 7.64563 13.146 7.50365 13.0898C7.44686 13.0617 7.39006 13.0055 7.33327 12.9493C7.19129 12.7807 7.1061 12.5841 7.0493 12.3874C7.02091 12.6402 6.79373 12.8369 6.53816 12.8088C6.48137 12.8088 6.39618 12.7807 6.36778 12.7245C6.31099 12.6683 6.31099 12.556 6.36778 12.4998C6.39618 12.4436 6.45297 12.3874 6.53816 12.3312C6.33939 12.4155 6.11221 12.4998 5.94183 12.3593C5.88504 12.3031 5.85665 12.2469 5.88504 12.1907C5.91344 12.1626 5.94183 12.1345 5.97023 12.1064C6.05542 12.0502 6.31099 12.0221 6.33939 11.9379C5.88504 11.8536 5.57268 11.7131 5.26032 11.4602Z" fill="#C1FFB8"/>
<path d="M16.1649 15.2822C16.6193 15.0856 17.1872 15.0856 17.6132 15.3103C17.6984 15.3665 17.8403 15.4227 17.8971 15.3384C17.9255 15.3103 17.9255 15.2541 17.9255 15.198C17.8403 14.6641 17.3576 14.2427 16.7897 14.2146C16.3921 14.1865 15.9946 14.3832 15.6254 14.5798C15.3698 14.7203 15.1143 14.8889 14.8871 15.0575C14.5747 15.2822 14.2624 15.5351 14.1204 15.9003C14.0068 16.1532 13.95 16.7151 14.3192 16.7994C14.6883 16.8837 14.8587 16.3499 15.0575 16.1251C15.3698 15.7599 15.739 15.4508 16.1649 15.2822Z" fill="#0A0B0C"/>
<path d="M17.2156 14.1585C16.6193 14.0742 16.0229 14.2428 15.4834 14.5237C14.9722 14.8047 14.5179 15.198 14.0636 15.5914C13.5808 16.0128 13.6092 16.8276 13.8932 17.3333C14.1487 17.8109 14.6883 18.12 15.2278 18.1762C15.7674 18.2324 16.2785 18.0076 16.7612 17.7828C17.2724 17.53 17.7835 17.249 18.1243 16.7995C18.4934 16.35 18.6638 15.7599 18.4934 15.2261C18.3515 14.6361 17.8119 14.2428 17.2156 14.1585ZM17.4144 15.7038C17.2724 15.9847 16.9884 16.2095 16.7044 16.378C16.4205 16.5466 16.1365 16.659 15.8525 16.7714C15.597 16.8557 15.3414 16.94 15.0858 16.9119C14.8303 16.8838 14.5463 16.7714 14.4327 16.5466C13.8932 15.6757 15.2846 15.0014 15.8809 14.7485C16.2217 14.608 16.5909 14.5518 16.9316 14.6361C17.0736 14.6642 17.1872 14.7204 17.3008 14.8047C17.5563 15.0295 17.5847 15.4228 17.4144 15.7038Z" fill="#36383F"/>
<path d="M9.15091 9.60744C9.60525 9.41077 10.1732 9.41077 10.5991 9.63553C10.6843 9.69172 10.8263 9.74792 10.8831 9.66363C10.9115 9.63553 10.9115 9.57934 10.9115 9.52315C10.8263 8.98933 10.3436 8.5679 9.77563 8.5398C9.37808 8.51171 8.98053 8.70838 8.61137 8.90504C8.3558 9.04552 8.10023 9.2141 7.87306 9.38267C7.56069 9.60744 7.24833 9.8603 7.10635 10.2255C6.99276 10.4784 6.93597 11.0403 7.30512 11.1246C7.67428 11.2089 7.84466 10.6751 8.04344 10.4503C8.3558 10.0851 8.72496 9.77601 9.15091 9.60744Z" fill="#0A0B0C"/>
<path d="M10.2015 8.45537C9.60521 8.37108 9.00888 8.53965 8.46935 8.82061C7.95821 9.10157 7.50386 9.49491 7.04951 9.88825C6.56677 10.3097 6.59517 11.1245 6.87913 11.6302C7.1347 12.1078 7.67424 12.4169 8.21378 12.473C8.75331 12.5292 9.26445 12.3045 9.7472 12.0797C10.2583 11.8268 10.7695 11.5459 11.1102 11.0964C11.4794 10.6468 11.6498 10.0568 11.4794 9.523C11.3374 8.93299 10.7979 8.53965 10.2015 8.45537ZM10.4003 10.0287C10.2583 10.3097 9.97437 10.5064 9.6904 10.6749C9.40644 10.8435 9.12247 10.9559 8.8385 11.0683C8.58293 11.1526 8.32736 11.2368 8.07179 11.2087C7.81622 11.1806 7.53226 11.0683 7.41867 10.8435C6.87913 9.97253 8.27057 9.29824 8.8669 9.04538C9.20766 8.9049 9.57682 8.84871 9.91758 8.93299C10.0596 8.96109 10.1731 9.01728 10.2867 9.10157C10.5423 9.32633 10.5707 9.71967 10.4003 10.0287Z" fill="#36383F"/>
<path d="M29.3409 11.3501C29.7101 11.6873 29.9657 12.1649 29.9657 12.6425C29.9657 12.7549 29.9657 12.8954 30.0793 12.9235C30.136 12.9235 30.1928 12.8954 30.2212 12.8673C30.6756 12.5582 30.846 11.912 30.6188 11.4344C30.4484 11.0691 30.1076 10.7882 29.7669 10.5634C29.5113 10.3949 29.2558 10.2544 29.0002 10.1139C28.6594 9.94532 28.2903 9.77675 27.8927 9.80484C27.6087 9.83294 27.0692 10.0296 27.1544 10.3949C27.2396 10.7601 27.8075 10.6758 28.0915 10.7601C28.5742 10.8444 29.0002 11.0411 29.3409 11.3501Z" fill="#0A0B0C"/>
<path d="M30.8459 11.7714C30.6755 11.2095 30.2496 10.7318 29.7668 10.3947C29.2841 10.0575 28.7162 9.83278 28.1766 9.60801C27.6087 9.38325 26.842 9.74849 26.5296 10.2261C26.2173 10.6756 26.1605 11.2657 26.3592 11.7714C26.558 12.2771 26.984 12.6423 27.4099 12.9795C27.8643 13.3166 28.347 13.6257 28.9149 13.7662C29.4545 13.8786 30.1076 13.7943 30.5052 13.429C30.9027 13.0076 31.0163 12.3614 30.8459 11.7714ZM29.5113 12.6423C29.1705 12.6423 28.8581 12.4738 28.6026 12.3052C28.347 12.1366 28.0914 11.94 27.8643 11.7152C27.6655 11.5466 27.4951 11.3499 27.4099 11.0971C27.3247 10.8442 27.2963 10.5633 27.4383 10.3385C28.0062 9.49563 29.2273 10.3947 29.71 10.8442C29.994 11.0971 30.1928 11.378 30.278 11.7433C30.3064 11.8838 30.3064 12.0242 30.278 12.1366C30.1928 12.4738 29.852 12.6704 29.5113 12.6423Z" fill="#36383F"/>
<path d="M18.4082 13.3721C18.4082 13.3721 19.6009 16.294 23.0369 15.4512C26.4729 14.6083 27.8643 12.5011 28.1767 12.1359C28.8298 11.3492 28.8014 10.1973 28.8014 10.1973L18.4082 13.3721Z" fill="#FFECD7"/>
<path d="M19.9699 12.8946C19.9415 12.8946 20.8502 14.8894 22.4688 14.5804C25.6776 13.9623 25.1665 11.3213 25.1665 11.3213L19.9699 12.8946Z" fill="#FFDC31"/>
<path opacity="0.52" d="M27.1543 11.6864C26.9556 12.3606 26.274 12.754 25.7913 13.2316C25.7061 13.3159 25.5925 13.4564 25.6493 13.5688C25.6777 13.653 25.7913 13.7092 25.9049 13.6811C25.9901 13.6811 26.0753 13.625 26.1605 13.5688C26.558 13.2878 26.8988 12.9507 27.2111 12.5854C27.5519 12.1921 27.9211 11.7706 27.9778 11.2368C27.9778 11.1806 27.9778 11.1244 27.9778 11.0682C27.8927 10.8435 27.5803 10.9559 27.4383 11.0682C27.2679 11.2368 27.2111 11.4616 27.1543 11.6864Z" fill="white"/>
</svg>
