<svg width="34" height="34" viewBox="0 0 34 34" fill="none" xmlns="http://www.w3.org/2000/svg">
<g clip-path="url(#clip0_1253_3048)">
<path fill-rule="evenodd" clip-rule="evenodd" d="M1.30713 32.3909C1.30713 33.1239 1.885 33.7251 2.59089 33.7251H9.25011L10.6852 32.6449L12.1415 33.7251H15.3005L16.3845 32.6449L17.4704 33.7251H18.5564L19.6423 32.6449L20.7282 33.7251H24.3487C25.0546 33.7251 25.6325 33.1239 25.6325 32.3909V31.0431V30.6048L13.1486 28.2842L1.30713 30.6048V32.3909Z" fill="#7E707D"/>
<path fill-rule="evenodd" clip-rule="evenodd" d="M17.5202 5.66638L25.0796 3.66908C25.1378 3.66908 25.194 3.65938 25.2483 3.64584C25.5023 3.57213 25.6885 3.33559 25.6885 3.0602V0.608945C25.6885 0.273461 25.4151 0 25.0797 0H8.97647C8.64099 0 8.3656 0.273461 8.3656 0.608945V2.81968L17.5202 5.66638Z" fill="#F5A96C"/>
<path fill-rule="evenodd" clip-rule="evenodd" d="M0.608879 6.48842L8.66143 9.05888L16.714 6.48842C16.7702 6.48842 16.8284 6.48065 16.8807 6.46518C17.1347 6.39147 17.3229 6.15685 17.3229 5.87954V3.66874V3.42828C17.3229 3.0928 17.0475 2.81934 16.714 2.81934H8.36573H0.608879C0.273395 2.81934 0 3.0928 0 3.42828V5.87954C0 6.2034 0.257922 6.47102 0.577867 6.48849H0.608879V6.48842Z" fill="#FFBC85"/>
<path fill-rule="evenodd" clip-rule="evenodd" d="M26.9215 28.6718V30.6051H8.1695C5.71287 29.4832 4.12987 28.7833 1.72178 25.0105C1.85108 22.3856 1.86203 19.8531 1.72046 17.1132C1.70883 16.8902 1.69648 16.6658 1.6828 16.4394C1.66773 16.1958 1.65199 15.9502 1.63492 15.7026C1.44474 12.9641 1.10407 9.98349 0.578003 6.48906H16.714C16.7722 6.48906 16.8282 6.48083 16.8809 6.46582C17.3229 7.1253 22.4961 20.3237 26.875 27.7859C26.8976 27.8243 26.8846 27.8769 26.8887 27.9235C26.9099 28.156 26.9215 28.4043 26.9215 28.6718V28.6718Z" fill="#FDE588"/>
<path fill-rule="evenodd" clip-rule="evenodd" d="M1.7221 25.0107C1.63484 26.8026 1.49327 28.6352 1.30713 30.6055H8.16995C7.4932 27.7024 5.02263 25.0107 1.7221 25.0107V25.0107Z" fill="#FFBC85"/>
<path fill-rule="evenodd" clip-rule="evenodd" d="M33.9999 25.8517V27.9232L29.7995 29.4832L25.599 27.9232C25.5956 27.8767 25.5915 27.8322 25.5853 27.787C25.5853 27.7856 25.5853 27.7856 25.5853 27.7856C24.971 22.3751 18.4453 26.6624 16.1748 22.3668C15.6179 21.314 15.3798 19.1344 15.5215 16.1729C15.5571 15.445 15.6138 14.6706 15.6959 13.8524C15.7123 13.6883 15.7295 13.5226 15.7479 13.3551C15.767 13.1813 15.7869 13.0062 15.8074 12.829C16.0373 10.9012 16.3923 8.76543 16.8807 6.4867C17.1346 6.41279 17.3227 6.17817 17.3227 5.90112V3.69219H25.0797C25.1379 3.69219 25.1939 3.68468 25.248 3.66895C24.5064 7.12712 24.0747 10.2507 23.9174 12.8305C23.9065 13.0077 23.8969 13.1828 23.8887 13.3552C23.8805 13.5248 23.8736 13.691 23.8681 13.8553C23.7751 16.5623 24.0173 18.5564 24.542 19.5497C26.9256 24.0579 33.9999 19.1091 33.9999 25.8517Z" fill="#FDE588"/>
<path fill-rule="evenodd" clip-rule="evenodd" d="M23.4486 33.7258H24.3484C25.0543 33.7258 25.6322 33.1246 25.6322 32.3915V31.0437V30.6055H23.4486V31.0437V33.7258Z" fill="#6A5C69"/>
<path fill-rule="evenodd" clip-rule="evenodd" d="M22.6401 3.69225C21.8527 7.37295 21.4164 10.6735 21.2884 13.3419C21.2865 13.3458 21.2865 13.3516 21.2865 13.3555H23.8889C24.0169 10.6793 24.4551 7.36512 25.2483 3.66895C25.2464 3.66895 25.2444 3.66895 25.2424 3.67087C25.1901 3.68442 25.1358 3.69219 25.0796 3.69219H22.6401V3.69225Z" fill="#FDD76F"/>
<path fill-rule="evenodd" clip-rule="evenodd" d="M21.2865 13.3555C21.1449 16.3167 21.8178 19.9082 22.3743 20.9612C24.7596 25.47 31.3974 20.9554 31.3974 27.7001V27.9231H33.9998V25.852V25.8501C33.9979 19.1092 26.9257 24.0582 24.5423 19.5494C24.0886 18.6923 23.8461 17.0866 23.8481 14.9205C23.8481 14.4259 23.8617 13.9043 23.8888 13.3555H21.2865Z" fill="#FDD76F"/>
<path d="M23.9178 12.8304C23.9069 13.0076 23.8973 13.1827 23.8891 13.3551C23.8809 13.5248 23.874 13.691 23.8686 13.8552H15.7483C15.7305 13.8552 15.7134 13.8545 15.6963 13.8525C15.4377 13.8265 15.2352 13.6076 15.2352 13.3422C15.2352 13.0583 15.4651 12.8291 15.7483 12.8291H23.8892C23.8987 12.8291 23.9083 12.8291 23.9178 12.8304V12.8304Z" fill="#7E707D"/>
<path fill-rule="evenodd" clip-rule="evenodd" d="M25.632 28.6723V30.6056H23.449L23.4025 28.9282C23.5222 25.3058 16.2619 27.8931 13.9913 23.5935C13.4666 22.5988 13.2245 19.5087 13.3175 16.6752C13.3229 16.5028 13.3298 16.3317 13.338 16.1621H15.5216C15.5134 16.3359 15.5066 16.5069 15.5011 16.6752C15.4087 19.3774 15.6509 21.3688 16.1749 22.3621C18.4455 26.6611 24.9712 22.3717 25.5855 27.7864L25.5992 27.9239C25.6203 28.1565 25.632 28.4048 25.632 28.6723V28.6723Z" fill="#FDD76F"/>
<path fill-rule="evenodd" clip-rule="evenodd" d="M16.8809 6.46582C16.3473 8.95732 15.9731 11.2751 15.748 13.3425C15.6591 14.1517 15.5934 14.9227 15.5497 15.6499C15.5387 15.823 15.5298 15.9934 15.5216 16.1617H13.338C13.3462 15.9934 13.3558 15.8223 13.366 15.6486C13.4105 14.9214 13.4755 14.1518 13.5645 13.3425C13.7895 11.2827 14.1616 8.97106 14.6912 6.48913H16.7141C16.7721 6.48906 16.8283 6.48089 16.8809 6.46582V6.46582Z" fill="#FDD76F"/>
<path d="M15.5496 15.6498C15.5386 15.8228 15.5297 15.9932 15.5216 16.1615C15.5133 16.3353 15.5065 16.5063 15.501 16.6746H8.38701C7.75283 16.6746 7.32185 16.6869 7.1057 16.8531C6.87514 17.031 6.76298 17.5174 6.76298 18.3397C6.76298 18.9718 6.50506 19.4561 6.05562 19.6668C5.93589 19.7229 5.76416 19.777 5.54462 19.777C5.20462 19.777 4.75034 19.647 4.20242 19.1921L1.72042 17.113C1.7088 16.8901 1.69645 16.6657 1.68277 16.4392C1.66769 16.1956 1.65195 15.9501 1.63489 15.7024L4.85705 18.4019C5.24905 18.7268 5.52749 18.7809 5.61986 18.7378C5.67597 18.7118 5.73687 18.5757 5.73687 18.3397C5.73687 17.1288 5.9592 16.4413 6.47982 16.0405C6.98809 15.6485 7.66743 15.6485 8.38708 15.6485H15.5216C15.5311 15.6484 15.54 15.6484 15.5496 15.6498V15.6498Z" fill="#7E707D"/>
<path fill-rule="evenodd" clip-rule="evenodd" d="M25.6323 28.6724V30.6058V31.0441H26.9238L28.0098 29.964L29.0957 31.0441H32.7162C33.4221 31.0441 34 30.4429 34 29.7099V27.9238H25.5994C25.6207 28.1566 25.6323 28.4048 25.6323 28.6724V28.6724Z" fill="#7E707D"/>
<path d="M31.3976 27.9239V31.0441H32.7162C33.4221 31.0441 34 30.4429 34 29.7099V27.9238H31.3976V27.9239Z" fill="#6A5C69"/>
</g>
<defs>
<clipPath id="clip0_1253_3048">
<rect width="34" height="34" fill="white"/>
</clipPath>
</defs>
</svg>
