<svg width="34" height="34" viewBox="0 0 34 34" fill="none" xmlns="http://www.w3.org/2000/svg">
<g clip-path="url(#clip0_1202_3682)">
<path d="M4 0.944336L6.80651 32.1481C6.89235 33.1037 11.0496 33.9243 16.0934 33.9947C21.1372 34.0652 25.3137 33.3617 25.4232 32.4061L29 1.28953L4 0.944336Z" fill="url(#paint0_linear_1202_3682)"/>
<g opacity="0.64">
<path opacity="0.64" d="M26.7221 7.23556C26.7559 7.20928 26.774 7.1842 26.774 7.15792C26.774 6.72434 22.1639 6.30867 16.4661 6.22984C10.7684 6.151 6.14585 6.43767 6.13795 6.87245C6.13795 6.89873 6.15489 6.92501 6.18764 6.95128H6.10632L8.4464 31.3969C8.51868 32.147 11.961 32.7896 16.1364 32.8481C20.3117 32.9067 23.7687 32.3572 23.8602 31.6095L26.8045 7.24273L26.7221 7.23556Z" fill="white"/>
</g>
<path d="M28.9648 1.18972C28.9717 0.636294 23.3975 0.110407 16.5145 0.0151122C9.63144 -0.0801824 4.04611 0.291202 4.03926 0.844623C4.03241 1.39804 9.60664 1.92393 16.4896 2.01923C23.3727 2.11452 28.958 1.74314 28.9648 1.18972Z" fill="#7B6F72"/>
<g opacity="0.51">
<path opacity="0.51" d="M26.8056 7.09428C26.8056 7.48606 22.1503 7.74048 16.4153 7.66165C10.6803 7.58281 6.04529 7.1994 6.04981 6.80762C6.05433 6.41584 10.7051 6.16023 16.4401 6.24025C22.1751 6.32028 26.8135 6.70131 26.8056 7.09428Z" fill="white"/>
</g>
<path d="M14.7619 18.5426C14.8244 17.6802 14.8684 16.8174 14.894 15.9542C14.9087 15.4764 14.2028 15.4406 14.1881 15.9232C14.1648 16.7115 14.1272 17.4994 14.0752 18.287L12.3269 18.2105C12.3427 17.6491 12.3582 17.0885 12.3732 16.5287C12.3856 16.051 11.6798 16.0151 11.6662 16.4977C11.6263 17.9501 11.5887 19.403 11.5533 20.8562C11.5397 21.334 12.2456 21.3698 12.2592 20.8873C12.2765 20.2447 12.2938 19.6013 12.3111 18.9571L14.0244 19.0323C13.9634 19.8015 13.8881 20.5688 13.7985 21.334C13.7432 21.8118 14.449 21.8393 14.5044 21.3651C14.6015 20.5337 14.6821 19.7008 14.7461 18.8663C14.7689 18.8162 14.7821 18.7617 14.7848 18.7061C14.7875 18.6505 14.7797 18.5949 14.7619 18.5426V18.5426Z" fill="white"/>
<path d="M16.3509 24.0721C16.2944 24.0721 15.8381 24.0243 15.6665 24.0028C15.7615 23.9241 15.8485 23.8353 15.9262 23.7376C15.9928 23.6636 16.064 23.5943 16.1295 23.5179C16.4017 23.1978 16.605 22.8012 16.4977 22.3604C16.3068 21.5745 15.2667 21.5243 15.078 22.3378C14.9651 22.8036 15.6427 23.0341 15.7557 22.5659C15.8788 22.5659 15.8844 22.6435 15.7715 22.7952C15.7121 22.9002 15.6391 22.9959 15.5546 23.0795C15.4553 23.1906 15.3491 23.2957 15.2554 23.4128C15.0848 23.629 14.9165 23.8977 14.9504 24.1939C15.0261 24.8545 15.8765 24.7697 16.326 24.8186C16.7755 24.8676 16.8015 24.127 16.3509 24.0721Z" fill="white"/>
<path d="M19.5245 16.5144C19.521 16.4268 19.485 16.3443 19.4244 16.2846C19.3637 16.2249 19.2832 16.1929 19.2004 16.1955C18.0146 16.1799 17.4137 18.0385 17.3832 19.0538C17.3482 20.1885 17.87 21.5764 19.118 21.5932C20.3433 21.6099 21.0933 20.3928 21.1972 19.2198C21.2875 18.1985 20.5726 16.6995 19.5245 16.5144ZM20.4721 19.35C20.3592 20.0894 19.8396 20.9518 19.022 20.8371C18.2043 20.7224 18.0462 19.6307 18.0959 18.9403C18.1213 18.5943 18.2023 18.2554 18.3353 17.9382C18.4358 17.6993 18.6572 17.2215 18.9305 17.0268C18.9652 17.0972 19.0197 17.1545 19.0864 17.1908C19.1531 17.2272 19.2288 17.2408 19.3032 17.2299C19.6849 17.1809 20.1242 17.8271 20.2914 18.1269C20.4884 18.4985 20.5525 18.9326 20.4721 19.35Z" fill="white"/>
</g>
<defs>
<linearGradient id="paint0_linear_1202_3682" x1="29" y1="33.9996" x2="-4.40493" y2="32.0446" gradientUnits="userSpaceOnUse">
<stop stop-color="#92A3FD"/>
<stop offset="1" stop-color="#9DCEFF"/>
</linearGradient>
<clipPath id="clip0_1202_3682">
<rect width="25" height="34" fill="white" transform="translate(4)"/>
</clipPath>
</defs>
</svg>
