<svg xmlns="http://www.w3.org/2000/svg" viewBox="0 0 468 468" width="58" height="58"><path d="M297.537 0c-13.162 9.003-26.133 22.219-25.783 39.21-24.542-7.567-46.307-7.51-70.71.046C198.665 24.059 186.03 2.688 170.32.857a63.7 63.7 0 0 0-18.658 59.077c-22.22 17.35-36.027 41.607-36.027 68.455 0 52.747 53.274 95.506 118.992 95.506s118.992-42.76 118.992-95.506c.001-25.326-12.287-48.346-32.332-65.44C325.99 38.843 316.78 15.082 297.537 0zM44.46 115.234l-.272 31.346 49.965.434.274-31.344-49.967-.436zm330.922 0v31.344h48.437v-31.344h-48.437zM157.754 243.682c-14.107 17.13-22.58 39.073-22.58 62.996v160.898h44.494V375.6h31.346v91.976h44.99V375.6h31.344v91.976h46.732V306.678c.001-23.924-8.471-45.867-22.578-62.996-45.66 27.738-108.09 27.737-153.748 0zM45.438 276.648v160.014c0 17.28 14.06 31.338 31.343 31.338h34.139v-31.346l-34.139.008V276.648H45.437z"/></svg>