<svg width="186" height="66" fill="none" xmlns="http://www.w3.org/2000/svg"><path d="M3.024 49.786v4.194h4.572v1.35H3.024v4.32h5.112V61h-6.75V48.436h6.75v1.35H3.024Zm11.263 9.702 3.06-8.352h1.745L15.223 61h-1.907l-3.87-9.864h1.764l3.078 8.352Zm15.417-3.798c0 .312-.018.642-.054.99h-7.884c.06.972.39 1.734.99 2.286.612.54 1.35.81 2.214.81.708 0 1.296-.162 1.764-.486.48-.336.816-.78 1.008-1.332h1.764a4.284 4.284 0 0 1-1.584 2.322c-.792.588-1.776.882-2.952.882-.936 0-1.776-.21-2.52-.63a4.492 4.492 0 0 1-1.728-1.782c-.42-.78-.63-1.68-.63-2.7 0-1.02.204-1.914.612-2.682a4.254 4.254 0 0 1 1.71-1.764c.744-.42 1.596-.63 2.556-.63.936 0 1.764.204 2.484.612.72.408 1.272.972 1.656 1.692.396.708.594 1.512.594 2.412Zm-1.692-.342c0-.624-.138-1.158-.414-1.602a2.605 2.605 0 0 0-1.134-1.026c-.468-.24-.99-.36-1.566-.36-.828 0-1.536.264-2.124.792-.576.528-.906 1.26-.99 2.196h6.228Zm5.492-2.61a3.16 3.16 0 0 1 1.224-1.314c.54-.312 1.194-.468 1.962-.468v1.692h-.431c-1.837 0-2.755.996-2.755 2.988V61h-1.637v-9.864h1.637v1.602Zm13.573-1.602-5.94 14.508h-1.692l1.944-4.752-3.978-9.756h1.818l3.096 7.992 3.06-7.992h1.692Zm3.285 1.836c.336-.588.828-1.068 1.476-1.44.648-.372 1.386-.558 2.214-.558.888 0 1.686.21 2.394.63a4.446 4.446 0 0 1 1.674 1.782c.408.756.612 1.638.612 2.646 0 .996-.204 1.884-.612 2.664a4.504 4.504 0 0 1-1.692 1.818c-.708.432-1.5.648-2.376.648-.852 0-1.602-.186-2.25-.558-.636-.372-1.116-.846-1.44-1.422V61h-1.638V47.68h1.638v5.292Zm6.696 3.06c0-.744-.15-1.392-.45-1.944a3.098 3.098 0 0 0-1.224-1.26 3.314 3.314 0 0 0-1.674-.432c-.6 0-1.158.15-1.674.45-.504.288-.912.714-1.224 1.278-.3.552-.45 1.194-.45 1.926 0 .744.15 1.398.45 1.962.312.552.72.978 1.224 1.278a3.379 3.379 0 0 0 1.674.432c.612 0 1.17-.144 1.674-.432.516-.3.924-.726 1.224-1.278.3-.564.45-1.224.45-1.98Zm8.132 5.13c-.924 0-1.764-.21-2.52-.63a4.58 4.58 0 0 1-1.764-1.782c-.42-.78-.63-1.68-.63-2.7 0-1.008.216-1.896.648-2.664a4.51 4.51 0 0 1 1.8-1.782c.756-.42 1.602-.63 2.538-.63.936 0 1.782.21 2.538.63.756.408 1.35.996 1.782 1.764.444.768.666 1.662.666 2.682s-.228 1.92-.684 2.7a4.634 4.634 0 0 1-1.818 1.782c-.768.42-1.62.63-2.556.63Zm0-1.44c.588 0 1.14-.138 1.656-.414.516-.276.93-.69 1.242-1.242.324-.552.486-1.224.486-2.016s-.156-1.464-.468-2.016c-.312-.552-.72-.96-1.224-1.224a3.356 3.356 0 0 0-1.638-.414c-.6 0-1.152.138-1.656.414-.492.264-.888.672-1.188 1.224-.3.552-.45 1.224-.45 2.016 0 .804.144 1.482.432 2.034.3.552.696.966 1.188 1.242a3.372 3.372 0 0 0 1.62.396Zm6.6-3.69c0-1.008.204-1.89.612-2.646a4.446 4.446 0 0 1 1.674-1.782c.72-.42 1.524-.63 2.412-.63.768 0 1.482.18 2.142.54.66.348 1.164.81 1.512 1.386v-5.22h1.656V61h-1.656v-1.854c-.324.588-.804 1.074-1.44 1.458-.636.372-1.38.558-2.232.558a4.564 4.564 0 0 1-2.394-.648c-.708-.432-1.266-1.038-1.674-1.818-.408-.78-.612-1.668-.612-2.664Zm8.352.018c0-.744-.15-1.392-.45-1.944a3.098 3.098 0 0 0-1.224-1.26 3.211 3.211 0 0 0-1.674-.45c-.612 0-1.17.144-1.674.432a3.134 3.134 0 0 0-1.206 1.26c-.3.552-.45 1.2-.45 1.944 0 .756.15 1.416.45 1.98.3.552.702.978 1.206 1.278a3.314 3.314 0 0 0 1.674.432c.612 0 1.17-.144 1.674-.432.516-.3.924-.726 1.224-1.278.3-.564.45-1.218.45-1.962Zm12.92-4.914-5.94 14.508H85.43l1.944-4.752-3.978-9.756h1.818l3.096 7.992 3.06-7.992h1.692Zm5.833 3.582c0-1.224.276-2.322.828-3.294a6.016 6.016 0 0 1 2.25-2.304c.96-.552 2.022-.828 3.186-.828 1.368 0 2.562.33 3.582.99 1.02.66 1.764 1.596 2.232 2.808h-1.962c-.348-.756-.852-1.338-1.512-1.746-.648-.408-1.428-.612-2.34-.612-.876 0-1.662.204-2.358.612-.696.408-1.242.99-1.638 1.746-.396.744-.594 1.62-.594 2.628 0 .996.198 1.872.594 2.628.396.744.942 1.32 1.638 1.728.696.408 1.482.612 2.358.612.912 0 1.692-.198 2.34-.594.66-.408 1.164-.99 1.512-1.746h1.962c-.468 1.2-1.212 2.13-2.232 2.79-1.02.648-2.214.972-3.582.972-1.164 0-2.226-.27-3.186-.81a6.052 6.052 0 0 1-2.25-2.286c-.552-.972-.828-2.07-.828-3.294Zm13.904 1.314c0-1.008.204-1.89.612-2.646a4.446 4.446 0 0 1 1.674-1.782c.72-.42 1.518-.63 2.394-.63.864 0 1.614.186 2.25.558.636.372 1.11.84 1.422 1.404v-1.8h1.656V61h-1.656v-1.836c-.324.576-.81 1.056-1.458 1.44-.636.372-1.38.558-2.232.558-.876 0-1.668-.216-2.376-.648-.708-.432-1.266-1.038-1.674-1.818-.408-.78-.612-1.668-.612-2.664Zm8.352.018c0-.744-.15-1.392-.45-1.944a3.098 3.098 0 0 0-1.224-1.26 3.211 3.211 0 0 0-1.674-.45c-.612 0-1.17.144-1.674.432a3.134 3.134 0 0 0-1.206 1.26c-.3.552-.45 1.2-.45 1.944 0 .756.15 1.416.45 1.98.3.552.702.978 1.206 1.278a3.314 3.314 0 0 0 1.674.432c.612 0 1.17-.144 1.674-.432.516-.3.924-.726 1.224-1.278.3-.564.45-1.218.45-1.962Zm9.23-5.094c1.2 0 2.172.366 2.916 1.098.744.72 1.116 1.764 1.116 3.132V61h-1.62v-5.58c0-.984-.246-1.734-.738-2.25-.492-.528-1.164-.792-2.016-.792-.864 0-1.554.27-2.07.81-.504.54-.756 1.326-.756 2.358V61h-1.638v-9.864h1.638v1.404a3.266 3.266 0 0 1 1.314-1.17 4.16 4.16 0 0 1 1.854-.414Zm19.229-2.502v1.332h-3.42V61h-1.638V49.786h-3.438v-1.332h8.496Zm3.654 4.284a3.16 3.16 0 0 1 1.224-1.314c.54-.312 1.194-.468 1.962-.468v1.692h-.432c-1.836 0-2.754.996-2.754 2.988V61h-1.638v-9.864h1.638v1.602Zm4.465 3.294c0-1.008.204-1.89.612-2.646a4.446 4.446 0 0 1 1.674-1.782c.72-.42 1.518-.63 2.394-.63.864 0 1.614.186 2.25.558.636.372 1.11.84 1.422 1.404v-1.8h1.656V61h-1.656v-1.836c-.324.576-.81 1.056-1.458 1.44-.636.372-1.38.558-2.232.558-.876 0-1.668-.216-2.376-.648-.708-.432-1.266-1.038-1.674-1.818-.408-.78-.612-1.668-.612-2.664Zm8.352.018c0-.744-.15-1.392-.45-1.944a3.098 3.098 0 0 0-1.224-1.26 3.211 3.211 0 0 0-1.674-.45c-.612 0-1.17.144-1.674.432a3.134 3.134 0 0 0-1.206 1.26c-.3.552-.45 1.2-.45 1.944 0 .756.15 1.416.45 1.98.3.552.702.978 1.206 1.278a3.314 3.314 0 0 0 1.674.432c.612 0 1.17-.144 1.674-.432.516-.3.924-.726 1.224-1.278.3-.564.45-1.218.45-1.962Zm5.27-6.516c-.312 0-.576-.108-.792-.324a1.077 1.077 0 0 1-.324-.792c0-.312.108-.576.324-.792.216-.216.48-.324.792-.324.3 0 .552.108.756.324.216.216.324.48.324.792 0 .312-.108.576-.324.792a.998.998 0 0 1-.756.324Zm.792 1.602V61h-1.638v-9.864h1.638Zm7.598-.18c1.2 0 2.172.366 2.916 1.098.744.72 1.116 1.764 1.116 3.132V61h-1.62v-5.58c0-.984-.246-1.734-.738-2.25-.492-.528-1.164-.792-2.016-.792-.864 0-1.554.27-2.07.81-.504.54-.756 1.326-.756 2.358V61h-1.638v-9.864h1.638v1.404a3.266 3.266 0 0 1 1.314-1.17 4.16 4.16 0 0 1 1.854-.414Z" fill="#7B6F72"/><path d="M18.684 10.728v4.932H8.388v5.328h7.704v4.788H8.388V36H2.232V10.728h16.452Zm6.331 3.096c-1.08 0-1.968-.312-2.663-.936a3.174 3.174 0 0 1-1.009-2.376c0-.96.337-1.752 1.009-2.376.695-.648 1.584-.972 2.663-.972 1.056 0 1.92.324 2.593.972.695.624 1.043 1.416 1.043 2.376 0 .936-.348 1.728-1.043 2.376-.672.624-1.537.936-2.593.936Zm3.06 2.088V36H21.92V15.912h6.155ZM43.733 30.78V36H40.6c-2.232 0-3.972-.54-5.22-1.62-1.248-1.104-1.872-2.892-1.872-5.364v-7.992H31.06v-5.112h2.448v-4.896h6.156v4.896h4.032v5.112h-4.032v8.064c0 .6.144 1.032.432 1.296.288.264.768.396 1.44.396h2.196Zm15.669-15.084c2.352 0 4.224.768 5.616 2.304 1.416 1.512 2.124 3.6 2.124 6.264V36h-6.12V25.092c0-1.344-.348-2.388-1.044-3.132-.696-.744-1.632-1.116-2.808-1.116s-2.112.372-2.808 1.116c-.696.744-1.044 1.788-1.044 3.132V36h-6.156V15.912h6.156v2.664c.624-.888 1.464-1.584 2.52-2.088 1.056-.528 2.244-.792 3.564-.792Zm30.954 9.936c0 .576-.036 1.176-.108 1.8H76.315c.097 1.248.493 2.208 1.189 2.88.72.648 1.596.972 2.627.972 1.537 0 2.605-.648 3.204-1.944h6.553a8.874 8.874 0 0 1-1.837 3.564c-.864 1.056-1.956 1.884-3.276 2.484-1.32.6-2.796.9-4.428.9-1.968 0-3.72-.42-5.255-1.26-1.537-.84-2.736-2.04-3.6-3.6-.865-1.56-1.297-3.384-1.297-5.472 0-2.088.42-3.912 1.26-5.472.865-1.56 2.064-2.76 3.6-3.6 1.536-.84 3.3-1.26 5.292-1.26 1.945 0 3.672.408 5.184 1.224a8.672 8.672 0 0 1 3.528 3.492c.865 1.512 1.297 3.276 1.297 5.292Zm-6.3-1.62c0-1.056-.36-1.896-1.08-2.52-.72-.624-1.62-.936-2.7-.936-1.032 0-1.908.3-2.629.9-.696.6-1.128 1.452-1.296 2.556h7.704Zm17.719 12.276c-1.752 0-3.312-.3-4.68-.9-1.368-.6-2.448-1.416-3.24-2.448a6.58 6.58 0 0 1-1.332-3.528h6.084c.072.696.396 1.26.972 1.692.576.432 1.284.648 2.124.648.768 0 1.356-.144 1.764-.432.432-.312.648-.708.648-1.188 0-.576-.3-.996-.9-1.26-.6-.288-1.572-.6-2.916-.936-1.44-.336-2.64-.684-3.6-1.044a6.464 6.464 0 0 1-2.484-1.764c-.696-.816-1.044-1.908-1.044-3.276 0-1.152.312-2.196.936-3.132.648-.96 1.584-1.716 2.808-2.268 1.248-.552 2.724-.828 4.428-.828 2.52 0 4.5.624 5.94 1.872 1.464 1.248 2.304 2.904 2.52 4.968h-5.688c-.096-.696-.408-1.248-.936-1.656-.504-.408-1.176-.612-2.016-.612-.72 0-1.272.144-1.656.432-.384.264-.576.636-.576 1.116 0 .576.3 1.008.9 1.296.624.288 1.584.576 2.88.864 1.488.384 2.7.768 3.636 1.152.936.36 1.752.96 2.448 1.8.72.816 1.092 1.92 1.116 3.312a5.3 5.3 0 0 1-1.008 3.168c-.648.912-1.596 1.632-2.844 2.16-1.224.528-2.652.792-4.284.792Zm20.074 0c-1.752 0-3.312-.3-4.68-.9-1.368-.6-2.448-1.416-3.24-2.448a6.58 6.58 0 0 1-1.332-3.528h6.084c.072.696.396 1.26.972 1.692.576.432 1.284.648 2.124.648.768 0 1.356-.144 1.764-.432.432-.312.648-.708.648-1.188 0-.576-.3-.996-.9-1.26-.6-.288-1.572-.6-2.916-.936-1.44-.336-2.64-.684-3.6-1.044a6.464 6.464 0 0 1-2.484-1.764c-.696-.816-1.044-1.908-1.044-3.276 0-1.152.312-2.196.936-3.132.648-.96 1.584-1.716 2.808-2.268 1.248-.552 2.724-.828 4.428-.828 2.52 0 4.5.624 5.94 1.872 1.464 1.248 2.304 2.904 2.52 4.968h-5.688c-.096-.696-.408-1.248-.936-1.656-.504-.408-1.176-.612-2.016-.612-.72 0-1.272.144-1.656.432-.384.264-.576.636-.576 1.116 0 .576.3 1.008.9 1.296.624.288 1.584.576 2.88.864 1.488.384 2.7.768 3.636 1.152.936.36 1.752.96 2.448 1.8.72.816 1.092 1.92 1.116 3.312a5.3 5.3 0 0 1-1.008 3.168c-.648.912-1.596 1.632-2.844 2.16-1.224.528-2.652.792-4.284.792Z" fill="#1D1617"/><path d="m163.748 36-7.15-10.75-6.3 10.75h-9.7l11.25-17.85L140.348.9h9.95l7.05 10.6 6.2-10.6h9.7l-11.15 17.7 11.6 17.4h-9.95Z" fill="#fff"/></svg>