<svg width="375" height="406" viewBox="0 0 375 406" fill="none" xmlns="http://www.w3.org/2000/svg">
<g clip-path="url(#clip0_1044_4563)">
<path d="M238.936 322.019C246.356 316.906 255.243 314.168 267.944 316.337C281.802 318.677 294.983 324.627 309.01 325.237C332.259 326.267 353.512 309.587 363.39 289.181C385.005 244.091 355.488 186.889 326.77 151.654C297.519 115.83 258.031 86.6557 216.491 67.3569C186.822 53.492 156.156 41.3141 124.954 31.856C106.069 26.1167 50.563 6.04227 38.8096 32.8002C35.2714 40.8606 37.5339 50.7339 40.2419 58.8919C44.187 71.319 47.1138 81.1704 45.9394 94.5113C43.8977 117.06 37.2301 137.407 44.9815 159.843C53.1953 183.312 70.068 202.63 80.4161 225.143C88.6059 242.836 92.3731 262.095 94.3716 281.319C96.2447 299.359 94.2817 316.36 103.97 332.279C115.126 350.573 135.662 363.014 156.219 366.765C173.809 369.914 193.244 366.037 207.078 354.47C219.564 343.506 227.495 329.897 238.936 322.019Z" fill="white"/>
<path d="M193.267 91.549L198.133 130.211L152.867 132.581V103.969L193.267 91.549Z" fill="#FFEDE5"/>
<path d="M152.867 122.832C152.867 122.832 181.167 136.888 189.167 92.8177L152.867 103.969V122.832Z" fill="#E0855C"/>
<path d="M145.818 84.9229C149.079 83.9381 150.279 78.3456 148.498 72.4318C146.718 66.5179 142.631 62.5221 139.371 63.5069C136.11 64.4917 134.91 70.0842 136.69 75.9981C138.471 81.912 142.557 85.9078 145.818 84.9229Z" fill="#E0855C"/>
<path d="M140.767 57.4948C140.767 57.4948 141.633 118.459 168.067 120.395C194.5 122.331 196.6 73.1864 196.767 57.4948C196.933 41.8031 180.233 37.2959 165.3 37.4628C150.367 37.6297 141.467 45.3087 140.767 57.4948Z" fill="#FFEDE5"/>
<path d="M195.633 71.1164C195.633 71.1164 188.9 61.7682 189.133 50.5169C189.133 50.5169 166.267 61.5011 151.1 52.8206C151.1 52.8206 142.033 58.4629 141.633 70.3486L138.533 63.8716C138.533 63.8716 136.867 50.3834 137.8 47.2117C138.367 45.3086 139.7 43.7061 141.467 42.838C141.467 42.838 133.767 25.7775 152.567 19C152.567 19 152.633 23.1066 160.133 22.539C167.633 21.9714 202.367 19.8681 199.6 38.431C199.567 38.3976 207.3 50.5169 195.633 71.1164Z" fill="#3B2645"/>
<path d="M203.474 72.7612C205.109 66.8053 203.773 61.2437 200.489 60.3391C197.205 59.4344 193.218 63.5293 191.582 69.4852C189.946 75.4411 191.283 81.0027 194.566 81.9073C197.85 82.812 201.838 78.7171 203.474 72.7612Z" fill="#FFEDE5"/>
<path d="M195.633 75.223C195.6 75.223 195.533 75.223 195.5 75.1896C195.333 75.1228 195.267 74.9225 195.333 74.7556L198.267 68.6792C198.333 68.5123 198.533 68.4455 198.7 68.5123C198.867 68.5791 198.933 68.7794 198.867 68.9463L195.933 75.0227C195.867 75.1562 195.767 75.223 195.633 75.223Z" fill="#472938"/>
<path d="M167.033 91.6158C165.4 91.6158 162.233 90.7477 161.5 89.4122C161 88.4774 162 83.2357 163.933 74.4551C164.267 72.8859 164.567 71.6506 164.667 71.0497C165.067 68.8461 163.833 68.2452 163.767 68.2452C163.6 68.1784 163.533 67.9781 163.6 67.8112C163.667 67.6442 163.867 67.5775 164.033 67.6442C164.1 67.6776 165.8 68.4455 165.3 71.1832C165.2 71.7842 164.933 73.0195 164.567 74.622C163.667 78.6952 161.567 88.2437 162.067 89.1118C162.667 90.2135 166.4 91.2151 167.5 90.9146C168.6 90.6142 170.767 89.0116 170.8 89.0116C170.933 88.9114 171.167 88.9448 171.267 89.0784C171.367 89.2119 171.333 89.4456 171.2 89.5458C171.1 89.6126 168.9 91.2151 167.7 91.549C167.5 91.5824 167.3 91.6158 167.033 91.6158Z" fill="#472938"/>
<path d="M167.7 101.431C164.7 101.431 162.367 100.697 162.333 100.697C162.167 100.63 162.067 100.463 162.133 100.263C162.2 100.096 162.367 99.9959 162.567 100.063C162.667 100.096 174 103.602 178.267 94.7542C178.333 94.5872 178.533 94.5205 178.7 94.5872C178.867 94.654 178.933 94.8543 178.867 95.0213C176.3 100.263 171.467 101.431 167.7 101.431Z" fill="#472938"/>
<path d="M180.067 69.2134C181.133 69.2134 182 70.0814 182 71.1498V72.5854C182 73.6538 181.133 74.5219 180.067 74.5219C179 74.5219 178.133 73.6538 178.133 72.5854V71.1498C178.133 70.0814 178.967 69.2134 180.067 69.2134Z" fill="#472938"/>
<path d="M154.033 70.5489C155.1 70.4488 156.033 71.2167 156.133 72.285L156.267 73.7207C156.367 74.789 155.6 75.7239 154.533 75.824C153.467 75.9242 152.533 75.1563 152.433 74.0879L152.3 72.6523C152.2 71.5839 152.967 70.6491 154.033 70.5489Z" fill="#472938"/>
<path d="M186.7 63.0369C184.367 61.7014 181.6 61.5011 179.1 62.4693C174.933 64.1387 173.7 63.0035 173.433 62.4359C173.167 61.8684 175.967 59.0973 181.567 59.331C185.4 59.4645 186.7 63.0369 186.7 63.0369Z" fill="#472938"/>
<path d="M145.9 66.1085C147.967 64.4058 150.7 63.7714 153.3 64.3056C157.7 65.2738 158.7 63.9718 158.867 63.3708C159.033 62.7699 155.833 60.4996 150.333 61.6013C146.6 62.4026 145.9 66.1085 145.9 66.1085Z" fill="#472938"/>
<path d="M250.667 149.809L228.833 141.662C171.867 159.524 147.233 145.569 137.7 135.92C137.7 135.92 103.133 140.794 98.5334 144.6C93.9334 148.406 107.067 264.625 107.733 290.066C108.167 306.291 106.133 329.862 104.6 344.753C129.8 361.346 159.333 370.861 191.867 370.861C211.633 370.861 231.3 364.217 249.733 353.099C246.633 327.191 240.167 273.072 239.9 265.293C239.567 255.043 250.667 149.809 250.667 149.809Z" fill="#AB8DA8"/>
<path d="M152.867 132.581L137.7 135.92C147.233 145.569 171.867 159.524 228.867 141.696L198.133 130.211L152.867 132.581Z" fill="#FFEDE5"/>
<path d="M241.3 244.493C241.3 244.493 226.533 173.413 217.033 145.034C215.7 141.028 214.467 137.89 213.4 135.92L200.633 131.146C200.633 131.146 202.467 138.023 204.867 147.739C209.333 165.667 215.8 193.211 216.6 204.83H148.233V133.583L136.567 135.92C136.567 135.92 136.567 136.02 136.533 136.187C135.6 141.796 118.5 240.687 105.8 262.689C105.8 262.689 107.567 284.557 107.7 290.066C108.133 306.291 106.1 329.862 104.567 344.753C129.767 361.346 159.3 370.861 191.833 370.861C211.6 370.861 231.267 364.217 249.7 353.099C246.6 327.191 240.133 273.072 239.867 265.293C239.833 262.856 240.4 255.01 241.3 244.493Z" fill="#3B2645"/>
<path d="M105.333 256.913L116.6 208.235L102.233 221.757L105.333 256.913Z" fill="#543753"/>
<path d="M182.467 312.401C173.433 312.401 165.8 309.129 159.767 302.719C149.967 292.269 146.1 275.108 144.6 262.555C142.967 248.967 143.633 237.715 143.667 237.615L143.7 237.315H221.267L221.3 237.615C221.3 237.715 222 249 220.367 262.555C218.867 275.108 215 292.269 205.2 302.719C199.133 309.129 191.5 312.401 182.467 312.401ZM144.3 237.949C144.2 239.852 143.8 250.235 145.267 262.488C146.767 274.941 150.6 291.935 160.267 302.252C166.167 308.528 173.633 311.733 182.467 311.733C191.3 311.733 198.767 308.528 204.667 302.252C214.333 291.935 218.167 274.941 219.667 262.488C221.133 250.235 220.733 239.852 220.633 237.949H144.3V237.949Z" fill="white"/>
<path d="M98.4999 144.6C98.4999 144.6 85.2666 155.317 54.7666 217.483L96.4999 253.407L120.5 209.637C120.5 209.637 110.167 142.764 98.4999 144.6Z" fill="#AB8DA8"/>
<path d="M105 340.68C105 340.68 123.367 349.193 126.233 348.025C129.1 346.856 125.567 322.684 124.667 322.417C123.767 322.15 107.8 309.897 104.6 310.665C102.367 311.199 100.3 318.377 100.3 318.377L66.1333 292.369L91.8333 249.401L54.7667 217.483C54.7667 217.483 43.2333 237.782 34 256.779C49.5333 293.705 73.8667 324.487 104.6 344.753L105 340.68Z" fill="#FFEDE5"/>
<path d="M54.7666 217.483L91.8333 249.401L88.1999 255.477L54.7666 217.483Z" fill="#E0855C"/>
<path d="M250.667 149.809C256.6 151.879 297.1 203.795 297.1 203.795L252.767 237.582C252.767 237.582 236.333 214.946 234.767 203.795C233.2 192.644 238.667 145.635 250.667 149.809Z" fill="#AB8DA8"/>
<path d="M297.133 203.828C297.133 203.828 340.433 265.059 342.267 278.38C344.1 291.701 338.633 306.258 302.367 306.024C266.1 305.791 234.667 302.018 226.433 303.587C218.2 305.156 199.833 306.191 196.7 305.29C193.567 304.388 182.733 278.38 183.267 274.841C183.8 271.302 189.267 269.232 189.267 269.232C189.267 269.232 187.733 266.895 188.167 264.658C188.6 262.421 207.6 267.062 211.767 267.53C215.933 267.997 225.033 278.313 227.367 278.848C229.7 279.382 286.567 270.668 286.567 270.668L254.8 236.046L297.133 203.828Z" fill="#FFEDE5"/>
<path d="M297.133 203.828L254.8 236.046L259.733 241.455L297.133 203.828Z" fill="#E0855C"/>
<path d="M286.567 270.668L308.1 266.895C308.1 266.895 297.8 266.361 296.1 245.661L286.567 270.668Z" fill="#E0855C"/>
<path d="M296.067 237.615H193.566C192.933 248.299 193.9 257.28 195.466 264.558C201.433 265.46 209.3 267.229 211.8 267.53C215.966 267.997 225.066 278.347 227.4 278.848C229.733 279.348 286.567 270.668 286.567 270.668C297.767 265.56 296.067 237.615 296.067 237.615Z" fill="#E3DCF7"/>
<path d="M217.433 268.331C210.767 265.059 195.467 264.592 195.467 264.592C201.433 265.493 209.3 267.263 211.8 267.563C215.967 268.03 225.067 278.38 227.4 278.881C228.433 279.115 239.7 277.579 252.167 275.81C233.233 277.746 224.067 271.569 217.433 268.331Z" fill="#3B2645"/>
<path d="M193.567 237.615C193.567 237.615 185.567 230.304 187.033 227.432C188.5 224.561 194.767 229.97 194.767 229.97C194.767 229.97 189.4 216.214 193.367 214.812C197.333 213.41 210.7 229.168 210.7 229.168C210.7 229.168 207.667 214.612 209.467 214.011C211.267 213.41 221.733 227.065 221.733 227.065C221.733 227.065 225.9 209.671 230.233 209.604C234.567 209.537 231.467 229.502 231.467 229.502C231.467 229.502 236.167 214.178 239.733 215.213C243.3 216.248 243.633 232.641 243.633 232.641C243.633 232.641 244.267 220.087 246.833 219.587C249.4 219.086 252.767 237.615 252.767 237.615H193.567Z" fill="#679E97"/>
<path d="M256.233 237.615C256.233 237.615 261.467 220.354 264 220.121C266.533 219.887 266.7 234.377 266.7 234.377C266.7 234.377 271.833 217.383 273.4 216.949C274.967 216.515 276 228.267 276 228.267C276 228.267 284.2 216.482 286.1 216.916C288 217.35 285.5 228.267 285.5 228.267C285.5 228.267 293.333 217.116 298.467 218.785C303.6 220.455 296.133 237.582 296.133 237.582L256.233 237.615Z" fill="#679E97"/>
<path d="M296.067 237.615C296.067 237.615 307.633 226.831 304.6 224.461C301.567 222.091 287.633 231.038 287.633 231.038C287.633 231.038 299.033 216.181 298.5 211.741C297.967 207.3 276.333 235.512 276.333 235.512C276.333 235.512 285.7 215.38 283.367 214.311C281.033 213.243 271.4 235.979 271.4 235.979C271.4 235.979 274.267 223.393 271.4 223.459C268.533 223.526 264.567 236.614 264.567 236.614C264.567 236.614 260.6 222.725 257.9 222.191C255.2 221.657 255.567 230.103 255.567 230.103C255.567 230.103 253.133 223.56 250.7 223.927C248.267 224.294 251.133 232.975 251.133 232.975C251.133 232.975 243.667 220.622 239.467 220.421C235.267 220.221 233.233 233.442 233.233 233.442C233.233 233.442 234.633 220.722 231.833 220.388C229.033 220.054 227.067 234.143 227.067 234.143C227.067 234.143 225.667 214.111 220.1 213.577C214.533 213.043 218.867 228.901 218.867 228.901C218.867 228.901 209.833 222.625 207.633 223.927C205.433 225.229 210.767 237.615 210.767 237.615H296.067Z" fill="#85CCC6"/>
<path d="M243.4 222.591C243.367 222.591 243.367 222.591 243.4 222.591C243.2 222.558 243.067 222.424 243.067 222.224L246.533 187.035C246.567 186.868 246.7 186.701 246.9 186.734C247.067 186.768 247.233 186.901 247.2 187.101L243.733 222.291C243.7 222.458 243.567 222.591 243.4 222.591Z" fill="#472938"/>
</g>
<defs>
<clipPath id="clip0_1044_4563">
<rect width="375" height="406" fill="white"/>
</clipPath>
</defs>
</svg>
