<svg width="376" height="406" viewBox="0 0 376 406" fill="none" xmlns="http://www.w3.org/2000/svg">
<g clip-path="url(#clip0_1035_3316)">
<path d="M251.974 6.16506C185.085 -16.3879 141.339 42.5146 137.635 100.536C135.748 129.668 140.585 160.05 143.794 189.936C146.678 217.054 151.726 252.652 134.033 271.883C126.173 280.327 114.022 278.446 103.801 282.376C74.5366 293.606 79.2214 337.651 97.9374 364.729C103.801 430.383 200.565 414.496 245.032 396.587C349.53 354.485 414.768 209.589 340.709 85.7552C320.874 52.3065 288.376 18.3462 251.974 6.16506Z" fill="white"/>
<path d="M146.182 321.785C125.982 372.602 131.749 406.935 131.749 406.935C150.916 410.439 170.382 411.874 189.849 411.24C214.516 410.439 237.316 402.765 257.982 391.12C258.682 362.892 249.049 337.701 242.182 323.387C198.016 344.775 159.482 328.792 146.182 321.785Z" fill="#AB8DA8"/>
<path d="M152.116 308.105C149.949 312.777 147.949 317.348 146.216 321.785C159.482 328.792 198.049 344.808 242.182 323.387C238.416 315.546 235.449 310.975 235.449 310.975C235.449 310.975 179.282 249.848 152.116 308.105Z" fill="#FEF9EF"/>
<path d="M195.982 410.872V393.289L211.249 382.678L201.149 396.792L202.182 410.372L195.982 410.872Z" fill="#543753"/>
<path d="M123.416 197.998C123.416 197.998 121.882 198.565 121.616 214.113C121.349 229.662 120.182 260.592 120.182 260.592C120.182 260.592 106.082 247.479 105.049 240.873C104.016 234.266 104.449 228.327 103.749 224.69C103.049 221.054 102.916 211.111 103.216 209.242C103.516 207.374 98.7822 207.073 97.4822 209.843C96.1822 212.612 95.7489 221.821 95.0822 222.155C94.4155 222.488 86.7822 223.189 86.0489 224.857C85.3155 226.526 86.6155 229.562 85.4822 232.098C84.3489 234.634 85.5822 236.435 85.4822 238.37C85.3822 240.306 84.9155 241.04 85.7822 243.976C86.6489 246.912 86.8155 249.381 88.2155 249.848L89.6155 250.316L94.5155 251.984C94.5155 251.984 115.516 299.33 125.916 300.364C136.316 301.399 141.749 293.124 143.049 286.451C144.349 279.778 151.316 239.805 151.316 239.805L123.416 197.998Z" fill="#FFEDE5"/>
<path d="M135.216 230.896L146.749 265.964L151.316 239.772L135.216 230.896Z" fill="#E0855C"/>
<path d="M120.182 260.559C120.182 260.559 129.982 268.8 133.215 275.574C133.215 275.574 127.982 261.693 120.382 255.254L120.182 260.559Z" fill="#E0855C"/>
<path d="M91.2488 249.648C91.2488 249.648 101.482 249.381 102.315 248.747C103.149 248.113 103.182 245.11 102.749 244.743C102.749 244.743 103.582 240.372 102.815 239.238C102.815 239.238 103.115 236.001 102.782 234.1C102.782 234.1 104.482 243.842 104.282 245.377C104.082 246.912 104.882 249.515 100.282 250.282C95.6821 251.05 91.2488 249.648 91.2488 249.648Z" fill="#E0855C"/>
<path d="M102.816 239.305C102.782 239.305 102.782 239.305 102.749 239.305C102.582 239.271 102.449 239.104 102.482 238.938C102.916 236.235 102.216 230.997 102.216 230.963V230.896V230.83C102.516 229.662 103.149 226.359 102.282 225.358C101.516 224.457 94.1156 224.223 89.6156 224.29C89.4489 224.29 89.2822 224.157 89.2822 223.956C89.2822 223.756 89.4156 223.623 89.6156 223.623C91.6156 223.589 101.582 223.523 102.782 224.924C103.982 226.325 103.049 230.229 102.882 230.93C102.949 231.564 103.549 236.368 103.116 239.038C103.116 239.205 102.949 239.305 102.816 239.305Z" fill="#472938"/>
<path d="M102.549 231.23C102.549 231.23 102.516 231.23 102.549 231.23L91.8155 230.73C91.6155 230.73 91.4822 230.563 91.4822 230.396C91.4822 230.196 91.6155 230.062 91.8155 230.062L102.549 230.563C102.749 230.563 102.882 230.73 102.882 230.896C102.882 231.097 102.716 231.23 102.549 231.23Z" fill="#472938"/>
<path d="M102.716 245.077H92.149C91.949 245.077 91.8157 244.944 91.8157 244.743C91.8157 244.543 91.949 244.41 92.149 244.41H102.716C102.916 244.41 103.049 244.543 103.049 244.743C103.049 244.944 102.916 245.077 102.716 245.077Z" fill="#472938"/>
<path d="M102.915 237.803H90.7821C90.5821 237.803 90.4487 237.67 90.4487 237.47C90.4487 237.269 90.5821 237.136 90.7821 237.136H102.915C103.115 237.136 103.249 237.269 103.249 237.47C103.249 237.67 103.115 237.803 102.915 237.803Z" fill="#472938"/>
<path d="M283.849 181.748L304.049 180.981C304.915 180.948 305.649 181.615 305.682 182.482L307.249 224.19C307.282 225.057 306.615 225.791 305.749 225.825L285.549 226.592C284.682 226.626 283.949 225.958 283.916 225.091L282.349 183.383C282.316 182.482 282.982 181.782 283.849 181.748Z" fill="#3B2645"/>
<path d="M285.482 225.224C285.349 225.224 285.249 225.124 285.249 224.991L283.682 183.283C283.682 183.216 283.716 183.15 283.749 183.116C283.782 183.083 283.849 183.05 283.916 183.05L304.116 182.282C304.249 182.282 304.349 182.382 304.349 182.516L305.916 224.223C305.916 224.357 305.816 224.457 305.682 224.457L285.482 225.224Z" fill="#FEF9EF"/>
<path d="M221.216 176.577C221.216 176.577 242.416 178.712 246.349 195.929C250.282 213.146 257.549 254.052 257.549 254.052C257.549 254.052 273.016 229.262 274.249 225.324C275.482 221.387 279.482 208.074 279.349 203.536C279.216 198.999 283.649 202.235 283.649 207.64L284.316 225.525C284.349 226.125 284.849 226.592 285.449 226.559H285.482L305.949 225.024C306.649 224.991 307.149 224.39 307.116 223.689V223.456C307.116 223.456 305.649 220.42 306.082 219.018C306.516 217.617 310.016 217.483 310.416 217.817C310.816 218.151 312.982 222.321 312.916 223.456C312.849 224.59 310.316 228.127 308.649 228.661C306.982 229.195 290.382 233.199 286.982 238.337C283.582 243.475 268.716 288.486 256.649 291.956C244.582 295.426 232.816 262.694 230.049 253.118C227.282 243.542 221.216 176.577 221.216 176.577Z" fill="#FFEDE5"/>
<path d="M226.549 229.662C227.849 240.706 229.149 249.982 230.049 253.085C231.349 257.556 234.615 267.132 238.982 275.674L240.315 212.779L226.549 229.662Z" fill="#E0855C"/>
<path d="M306.549 205.939C306.549 205.939 313.782 209.642 313.649 211.21C313.516 212.779 312.149 215.581 310.749 215.448C309.349 215.314 306.716 213.913 305.982 212.278C305.249 210.643 304.882 205.405 306.549 205.939Z" fill="#FFEDE5"/>
<path d="M306.915 211.377C306.915 211.377 314.149 215.081 314.015 216.649C313.882 218.217 312.515 221.02 311.115 220.887C309.715 220.753 307.082 219.352 306.349 217.717C305.615 216.082 305.249 210.844 306.915 211.377Z" fill="#FFEDE5"/>
<path d="M306.915 199.332C306.915 199.332 314.149 203.036 314.015 204.604C313.882 206.172 312.515 208.975 311.115 208.842C309.715 208.708 307.082 207.307 306.349 205.672C305.615 204.037 305.249 198.765 306.915 199.332Z" fill="#FFEDE5"/>
<path d="M251.015 267.299C250.949 267.299 250.915 267.299 250.849 267.265C250.682 267.199 250.615 266.965 250.715 266.832L257.249 253.919C257.315 253.752 257.549 253.685 257.682 253.786C257.849 253.852 257.915 254.086 257.815 254.219L251.282 267.132C251.249 267.232 251.149 267.299 251.015 267.299Z" fill="#472938"/>
<path d="M157.382 285.617C157.415 296.461 152.115 308.072 152.115 308.072C152.115 308.072 188.815 328.692 235.415 310.941C235.415 310.941 229.715 296.26 230.449 280.912C192.782 273.905 157.382 285.617 157.382 285.617Z" fill="#FFEDE5"/>
<path d="M123.416 197.998C120.682 202.102 131.216 222.522 141.282 243.175C150.449 222.655 145.082 197.731 141.982 187.02C134.882 189.756 126.182 193.793 123.416 197.998Z" fill="#FFEDE5"/>
<path d="M230.449 280.945C230.516 279.344 230.682 277.742 230.916 276.141C231.049 275.173 231.216 274.139 231.382 273.038C201.482 264.863 165.882 274.205 155.849 277.175C156.816 280.478 157.382 283.348 157.382 285.617C157.382 285.617 192.782 273.905 230.449 280.945Z" fill="#FEF9EF"/>
<path d="M141.282 244.276C141.149 244.276 141.049 244.209 140.982 244.076L133.549 228.06C133.482 227.893 133.549 227.693 133.716 227.627C133.882 227.56 134.082 227.627 134.149 227.793L141.582 243.809C141.649 243.976 141.582 244.176 141.416 244.243C141.382 244.276 141.316 244.276 141.282 244.276Z" fill="#472938"/>
<path d="M198.282 314.979C198.798 314.979 199.216 314.56 199.216 314.044C199.216 313.528 198.798 313.11 198.282 313.11C197.767 313.11 197.349 313.528 197.349 314.044C197.349 314.56 197.767 314.979 198.282 314.979Z" fill="#E0855C"/>
<path d="M238.715 214.747C238.715 214.514 238.715 214.28 238.715 214.08C238.715 213.98 238.715 213.846 238.715 213.746C238.715 213.479 238.715 213.246 238.682 212.979C238.682 212.912 238.682 212.845 238.682 212.745C238.682 212.412 238.649 212.111 238.649 211.811V211.611C238.649 211.377 238.615 211.11 238.615 210.877C238.615 210.777 238.615 210.677 238.582 210.577C238.582 210.376 238.549 210.176 238.549 210.009L238.515 209.676C238.515 209.509 238.482 209.309 238.449 209.142C238.449 209.042 238.415 208.942 238.415 208.808C238.382 208.608 238.382 208.441 238.349 208.241C238.349 208.141 238.315 208.074 238.315 207.974C238.282 207.707 238.249 207.44 238.182 207.173C235.582 191.358 221.182 176.543 221.182 176.543C221.182 176.543 226.782 198.798 228.582 201.401C235.149 210.944 238.815 216.682 238.349 224.29C238.382 223.89 238.415 223.523 238.449 223.122C238.449 223.022 238.449 222.922 238.449 222.822C238.482 222.522 238.482 222.221 238.515 221.954C238.515 221.854 238.515 221.721 238.549 221.621C238.549 221.354 238.582 221.087 238.582 220.787L238.615 220.453C238.615 220.153 238.649 219.886 238.649 219.619C238.649 219.519 238.649 219.452 238.649 219.352C238.682 218.618 238.715 217.884 238.715 217.15C238.715 217.05 238.715 216.983 238.715 216.883C238.715 216.616 238.715 216.349 238.715 216.082V215.748C238.715 215.515 238.715 215.281 238.715 215.048V214.747Z" fill="#FFEDE5"/>
<path d="M228.582 201.434C226.782 198.832 221.216 176.577 221.216 176.577H216.982L152.116 183.517C152.116 183.517 147.549 184.851 141.982 186.987C145.049 197.697 150.449 222.655 141.282 243.142C147.316 255.554 153.149 268.033 155.816 277.175C165.849 274.172 201.449 264.863 231.349 273.038C233.316 260.425 237.116 240.339 238.349 224.323C238.816 216.716 235.149 210.977 228.582 201.434Z" fill="#AB8DA8"/>
<path d="M162.982 259.558C161.382 259.558 159.716 259.357 157.949 258.924C157.782 258.89 157.649 258.69 157.716 258.523C157.749 258.356 157.949 258.223 158.116 258.29C164.449 259.891 169.582 258.056 174.982 256.154C180.116 254.319 185.416 252.451 192.216 253.218C205.949 254.753 228.316 251.049 228.549 251.016C228.749 250.983 228.916 251.116 228.949 251.283C228.982 251.45 228.849 251.65 228.682 251.683C228.449 251.717 205.982 255.454 192.182 253.919C185.549 253.185 180.316 255.02 175.249 256.822C171.182 258.19 167.316 259.558 162.982 259.558Z" fill="#472938"/>
<path d="M214.249 87.623C214.249 87.623 231.649 89.358 226.416 112.514C221.182 135.67 226.349 134.636 230.882 146.881C235.416 159.126 211.716 151.018 211.716 151.018C211.716 151.018 223.782 169.103 159.649 161.295C106.749 154.855 142.049 127.262 142.049 127.262C142.049 127.262 126.149 129.364 145.182 112.547C158.582 100.702 165.716 57.1598 214.249 87.623Z" fill="#3B2645"/>
<path d="M202.716 151.686C202.716 151.686 197.349 170.537 204.716 174.041C210.382 176.744 216.982 176.577 216.982 176.577C216.982 176.577 214.716 226.559 186.716 227.093C158.716 227.627 152.116 183.517 152.116 183.517C152.116 183.517 163.516 179.513 166.916 171.672C170.316 163.831 170.482 152.853 170.482 152.853L202.716 151.686Z" fill="#FFEDE5"/>
<path d="M216.167 137.433C219.021 132.486 218.956 127.102 216.022 125.406C213.089 123.711 208.398 126.347 205.544 131.294C202.691 136.241 202.755 141.626 205.689 143.321C208.622 145.016 213.314 142.38 216.167 137.433Z" fill="#E0855C"/>
<path d="M209.182 137.805C209.082 137.805 209.016 137.772 208.949 137.705C208.816 137.572 208.816 137.372 208.949 137.238L213.982 132.5C214.116 132.367 214.316 132.367 214.449 132.5C214.582 132.634 214.582 132.834 214.449 132.967L209.416 137.705C209.349 137.805 209.282 137.805 209.182 137.805Z" fill="#472938"/>
<path d="M163.72 139.561C167.016 138.781 168.624 133.642 167.31 128.083C165.996 122.524 162.259 118.65 158.963 119.431C155.666 120.211 154.059 125.35 155.373 130.909C156.687 136.468 160.424 140.342 163.72 139.561Z" fill="#FFEDE5"/>
<path d="M201.049 167.768C200.049 161.028 202.716 151.652 202.716 151.652L170.449 152.853C170.449 152.853 170.416 155.289 170.016 158.692C170.016 158.726 186.116 178.245 201.049 167.768Z" fill="#E0855C"/>
<path d="M162.849 132.734C162.749 132.734 162.649 132.667 162.582 132.567L159.382 127.662C159.282 127.495 159.316 127.295 159.482 127.195C159.649 127.095 159.849 127.128 159.949 127.295L163.149 132.2C163.249 132.367 163.216 132.567 163.049 132.667C162.982 132.734 162.916 132.734 162.849 132.734Z" fill="#472938"/>
<path d="M164.982 97.5327C164.982 97.5327 153.516 159.493 180.449 165.933C207.382 172.373 216.982 114.583 216.282 102.571C215.582 90.5592 168.982 86.9223 164.982 97.5327Z" fill="#FFEDE5"/>
<path d="M200.816 125.86C201.683 126.027 202.249 126.861 202.116 127.729L201.949 128.697C201.783 129.564 200.949 130.131 200.083 129.998C199.216 129.831 198.649 128.997 198.783 128.129L198.949 127.162C199.116 126.294 199.949 125.694 200.816 125.86Z" fill="#472938"/>
<path d="M175.716 123.058C176.616 123.058 177.316 123.758 177.316 124.659V125.627C177.316 126.494 176.616 127.228 175.716 127.228C174.849 127.228 174.116 126.528 174.116 125.627V124.659C174.116 123.758 174.816 123.058 175.716 123.058Z" fill="#472938"/>
<path d="M206.682 124.192C206.682 124.192 205.482 122.39 202.016 121.79C198.549 121.189 197.449 121.389 197.416 120.288C197.382 119.187 205.149 117.486 206.682 124.192Z" fill="#472938"/>
<path d="M170.682 119.621C170.682 119.621 172.416 118.32 175.882 118.887C179.349 119.487 180.316 120.021 180.716 118.987C181.116 117.953 174.349 113.782 170.682 119.621Z" fill="#472938"/>
<path d="M177.282 143.244L191.682 144.879C191.682 144.879 189.449 154.622 183.082 153.487C176.749 152.386 177.282 143.244 177.282 143.244Z" fill="white"/>
<path d="M186.816 140.842C185.816 140.842 184.716 140.575 183.716 140.108C183.549 140.041 183.482 139.841 183.549 139.674C183.616 139.507 183.816 139.44 183.982 139.507C185.449 140.208 187.082 140.375 188.182 139.941C188.649 139.774 188.949 139.507 189.082 139.207C189.516 138.172 189.349 134.969 189.149 131.266L189.082 129.964C188.716 123.124 192.816 121.823 192.982 121.756C193.149 121.69 193.349 121.79 193.382 121.99C193.449 122.157 193.349 122.357 193.149 122.39C192.982 122.424 189.382 123.625 189.716 129.931L189.782 131.232C189.982 135.169 190.182 138.306 189.649 139.474C189.449 139.941 189.016 140.341 188.382 140.575C187.982 140.775 187.416 140.842 186.816 140.842Z" fill="#472938"/>
<path d="M211.716 132C211.716 132 213.882 115.283 206.682 106.141C206.682 106.141 200.582 117.686 190.582 113.682C190.582 113.682 176.849 125.593 162.849 122.123C148.849 118.653 153.816 85.8879 174.116 84.4865C194.416 83.0851 235.716 91.2598 211.716 132Z" fill="#3B2645"/>
</g>
<defs>
<clipPath id="clip0_1035_3316">
<rect width="375" height="406" fill="white" transform="translate(0.813965)"/>
</clipPath>
</defs>
</svg>
