<svg width="375" height="406" viewBox="0 0 375 406" fill="none" xmlns="http://www.w3.org/2000/svg">
<path d="M69.5981 85.1144C103.249 74.7315 138.217 92.28 172.014 85.1144C215.906 75.7552 206.982 14.1893 248.972 6C339.829 8.48603 357.386 136.151 347.584 204.298C345.097 221.115 339.976 234.715 325.93 245.537C282.477 278.586 224.977 258.844 176.549 275.662C154.896 283.266 142.313 299.059 137.339 320.995C131.779 345.417 131.633 374.518 109.833 391.043C75.0115 417.365 36.9713 380.66 29.5096 345.709C14.2935 305.64 41.0679 272.444 58.186 238.81C86.4234 187.334 -10.4326 109.828 69.5981 85.1144Z" fill="white"/>
<path d="M206.559 9.31312C205.477 4.10105 199.884 -0.180296 194.832 0.00584943C184.909 0.37814 178.955 9.87156 171.017 14.8975C162.718 20.1096 154.959 24.9493 145.217 26.9969C136.918 28.8584 128.438 28.8584 120.139 26.6246C109.133 23.6463 99.7514 16.9451 88.2046 16.3866C77.5599 16.0143 68.1782 28.1138 71.7866 38.7241C82.0704 69.4381 126.814 75.5809 153.516 68.135C166.506 64.4121 180.759 57.1525 190.141 47.1006C198.982 37.9795 209.265 22.9017 206.559 9.31312Z" fill="white"/>
<path d="M163.708 87.791C163.708 87.791 166.175 71 185.075 71C203.975 71 213.142 92.4791 217.408 105.081C221.675 117.682 232.675 129.552 247.008 136.568C261.342 143.583 272.175 151.131 270.342 167.024C270.342 167.024 301.008 190.964 242.575 195.386C184.142 199.808 155.442 163.134 158.975 144.248C162.508 125.363 139.708 99.7607 163.708 87.791Z" fill="#3B2645"/>
<path d="M199.075 128.089C199.075 128.089 196.408 153.891 207.742 156.152C207.742 156.152 212.442 202.468 186.008 202.468C159.575 202.468 162.275 157.548 162.275 157.548C162.275 157.548 173.542 154.589 172.642 129.685C171.742 104.781 199.442 110.766 199.075 128.089Z" fill="#FFEDE5"/>
<path d="M191.208 130.383C193.442 121.905 181.942 120.176 174.208 119.943C173.108 122.437 172.475 125.662 172.608 129.685C172.775 133.21 172.608 136.767 172.175 140.292C176.575 140.624 188.508 140.591 191.208 130.383Z" fill="#E0855C"/>
<path d="M169.425 122.471C171.81 121.653 172.502 117.386 170.969 112.941C169.437 108.495 166.262 105.554 163.877 106.372C161.491 107.19 160.8 111.457 162.332 115.902C163.864 120.348 167.04 123.289 169.425 122.471Z" fill="#E0855C"/>
<path d="M209.125 115.863C210.657 111.417 209.965 107.15 207.58 106.332C205.195 105.514 202.02 108.455 200.487 112.901C198.955 117.347 199.647 121.614 202.032 122.431C204.417 123.249 207.593 120.308 209.125 115.863Z" fill="#E0855C"/>
<path d="M165.142 91.9471C165.142 91.9471 163.308 136.468 184.442 136.568C200.875 136.634 205.575 116.651 205.842 94.1416C206.108 71.6317 165.408 74.6574 165.142 91.9471Z" fill="#FFEDE5"/>
<path d="M186.108 123.534C182.575 123.534 179.475 121.406 179.442 121.373C179.275 121.273 179.242 121.074 179.375 120.907C179.475 120.741 179.675 120.708 179.842 120.841C179.908 120.874 185.908 124.964 190.342 121.473C190.475 121.373 190.708 121.373 190.808 121.539C190.908 121.705 190.908 121.905 190.742 122.005C189.242 123.135 187.642 123.534 186.108 123.534Z" fill="#472938"/>
<path d="M172.375 105.114C172.375 105.114 175.142 106.876 179.808 105.446C179.808 105.413 175.842 109.47 172.375 105.114Z" fill="#472938"/>
<path d="M198.908 105.48C198.908 105.48 196.142 107.242 191.475 105.812C191.475 105.812 195.442 109.869 198.908 105.48Z" fill="#472938"/>
<path d="M170.775 99.6942C170.775 99.6942 174.275 95.8373 179.375 97.0343C181.975 97.6328 180.975 94.4408 176.275 94.6403C171.575 94.8398 170.775 99.6942 170.775 99.6942Z" fill="#472938"/>
<path d="M200.775 99.6942C200.775 99.6942 197.275 95.8373 192.175 97.0343C189.575 97.6328 190.575 94.4408 195.275 94.6403C199.975 94.8398 200.775 99.6942 200.775 99.6942Z" fill="#472938"/>
<path d="M185.308 116.086C184.308 116.086 182.175 115.355 181.442 114.623C181.175 114.357 181.075 114.091 181.108 113.825C181.175 113.426 181.475 112.163 181.908 110.567C182.475 108.273 183.208 105.446 183.442 104.05C183.675 102.72 183.442 101.323 182.808 100.126C182.708 99.9602 182.775 99.7607 182.942 99.661C183.108 99.5612 183.308 99.6277 183.408 99.794C184.108 101.124 184.375 102.653 184.108 104.15C183.875 105.579 183.142 108.439 182.575 110.733C182.175 112.263 181.842 113.593 181.808 113.925C181.808 113.958 181.842 114.025 181.942 114.158C182.642 114.856 184.842 115.521 185.475 115.421C186.308 115.288 188.042 114.49 188.642 113.792C188.775 113.659 188.975 113.659 189.108 113.759C189.242 113.892 189.242 114.091 189.142 114.224C188.408 115.022 186.542 115.92 185.575 116.053C185.442 116.086 185.375 116.086 185.308 116.086Z" fill="#472938"/>
<path d="M165.442 103.352C165.442 103.352 166.775 92.7451 170.075 88.8549C170.075 88.8549 175.608 86.3945 184.408 91.6146C193.208 96.8348 199.375 101.224 207.542 99.927C207.542 99.927 208.308 74.6242 187.208 75.9874C166.108 77.3506 161.775 88.3562 165.442 103.352Z" fill="#3B2645"/>
<path d="M304.875 259.69C304.542 259.158 303.542 260.056 303.542 260.056C303.542 260.056 302.508 258.892 299.708 259.724C296.908 260.555 288.608 267.67 288.608 267.67C284.875 267.604 278.775 271.261 278.775 271.261C278.775 271.261 274.175 269.366 270.008 263.115C265.842 256.864 261.308 253.805 261.308 253.805C261.308 253.805 251.542 214.637 244.942 190.199C238.242 193.025 229.542 204.164 223.342 213.141C223.475 217.364 223.608 220.057 223.608 220.057C223.608 220.057 245.342 277.579 248.142 279.308C250.942 281.037 282.908 284.893 283.242 284.661C283.575 284.428 286.508 285.193 287.708 284.661C288.908 284.129 290.375 284.993 291.842 283.996C293.308 282.998 295.842 284.528 296.875 283.563C297.908 282.599 299.708 282.998 300.908 282.433C302.108 281.868 308.808 272.425 308.942 270.729C309.075 269.033 305.208 260.222 304.875 259.69Z" fill="#FFEDE5"/>
<path d="M228.942 201.67C228.942 201.67 240.308 221.021 231.308 240.073L223.575 219.991L228.942 201.67Z" fill="#E0855C"/>
<path d="M244.908 190.133C242.542 181.355 240.575 174.472 239.608 171.978C235.942 162.403 229.175 161.97 229.175 161.97C222.508 162.07 222.842 197.713 223.308 213.075C229.508 204.097 238.208 192.992 244.908 190.133Z" fill="#AB8DA8"/>
<path d="M253.908 255.833C253.775 255.833 253.642 255.734 253.575 255.601C253.542 255.434 253.642 255.235 253.808 255.202L260.342 253.473C260.508 253.439 260.708 253.539 260.742 253.705C260.775 253.872 260.675 254.071 260.508 254.104L253.975 255.833C253.975 255.833 253.942 255.833 253.908 255.833Z" fill="#472938"/>
<path d="M286.242 278.476C286.075 278.476 285.908 278.343 285.908 278.144C285.742 274.087 280.942 273.921 280.742 273.921C280.542 273.921 280.408 273.755 280.408 273.589C280.408 273.389 280.575 273.256 280.742 273.256C280.808 273.256 286.342 273.456 286.542 278.111C286.608 278.31 286.442 278.476 286.242 278.476C286.275 278.476 286.275 278.476 286.242 278.476Z" fill="#472938"/>
<path d="M284.775 281.502C284.742 281.502 284.675 281.502 284.642 281.469C284.475 281.402 284.408 281.203 284.475 281.037C284.875 280.172 288.475 272.392 289.975 271.394C291.208 270.563 292.708 270.829 293.308 271.361C293.708 271.693 293.575 272.026 293.542 272.126C293.375 272.491 291.442 277.279 290.475 279.74C290.408 279.906 290.208 280.006 290.042 279.939C289.875 279.873 289.775 279.673 289.842 279.507C289.942 279.208 292.542 272.757 292.908 271.926C292.842 271.86 292.675 271.727 292.342 271.66C292.075 271.594 291.208 271.427 290.342 271.993C289.208 272.757 286.142 279.008 285.042 281.369C285.008 281.436 284.908 281.502 284.775 281.502Z" fill="#472938"/>
<path d="M295.308 279.008C295.108 279.008 294.975 278.875 294.975 278.676C294.975 278.609 294.975 278.609 295.908 275.318C296.675 272.624 297.908 268.236 298.042 267.537C297.842 267.338 296.908 266.939 296.275 267.138C295.775 267.305 294.242 269.565 293.108 271.56C293.008 271.727 292.808 271.76 292.642 271.693C292.475 271.594 292.442 271.394 292.508 271.228C293.108 270.197 295.108 266.806 296.042 266.473C296.842 266.207 297.875 266.573 298.342 266.906C298.575 267.072 298.708 267.271 298.708 267.438C298.708 267.637 298.242 269.333 296.542 275.451C296.108 277.013 295.675 278.51 295.642 278.676C295.642 278.875 295.475 279.008 295.308 279.008Z" fill="#472938"/>
<path d="M300.008 278.31C299.975 278.31 299.975 278.31 299.942 278.31C299.775 278.277 299.642 278.077 299.675 277.911C300.842 272.724 302.542 264.811 302.575 263.946C302.442 263.747 301.842 263.414 300.808 263.414C300.242 263.414 298.808 265.31 297.842 267.072C297.742 267.238 297.542 267.304 297.375 267.205C297.208 267.105 297.142 266.905 297.242 266.739C297.775 265.808 299.575 262.749 300.808 262.749C301.975 262.749 302.942 263.148 303.208 263.714C303.275 263.847 303.442 264.212 300.308 278.044C300.308 278.21 300.175 278.31 300.008 278.31Z" fill="#472938"/>
<path d="M302.508 263.747C302.375 263.747 302.242 263.647 302.175 263.514C301.642 261.818 303.208 259.923 303.275 259.857C303.408 259.724 303.608 259.69 303.742 259.823C303.875 259.956 303.908 260.156 303.775 260.289C303.775 260.322 302.375 261.985 302.808 263.348C302.875 263.514 302.775 263.714 302.575 263.78C302.575 263.747 302.542 263.747 302.508 263.747Z" fill="#472938"/>
<path d="M300.742 275.085C300.675 275.085 300.608 275.052 300.575 275.018C300.408 274.919 300.375 274.719 300.475 274.553L303.208 270.43L302.408 265.443C302.375 265.276 302.508 265.077 302.675 265.077C302.842 265.044 303.042 265.177 303.042 265.343L303.908 270.596L301.042 274.952C300.942 275.018 300.842 275.085 300.742 275.085Z" fill="#472938"/>
<path d="M69.575 265.243C69.875 264.711 70.9083 265.542 70.9083 265.542C70.9083 265.542 71.9083 264.345 74.7417 265.077C77.575 265.808 86.1417 272.558 86.1417 272.558C89.8417 272.358 96.1417 275.75 96.1417 275.75C96.1417 275.75 100.675 273.655 104.608 267.238C108.542 260.821 112.942 257.562 112.942 257.562C112.942 257.562 121.108 218.062 126.742 193.325C133.542 195.885 142.675 206.658 149.242 215.369C149.275 219.592 149.275 222.285 149.275 222.285C149.275 222.285 129.875 280.604 127.142 282.466C124.408 284.328 92.6083 289.415 92.3083 289.216C92.0083 289.016 89.075 289.881 87.8417 289.382C86.6083 288.883 85.2083 289.848 83.675 288.883C82.1417 287.919 79.7083 289.548 78.6083 288.651C77.5083 287.753 75.775 288.185 74.5083 287.686C73.2417 287.188 66.2083 278.011 66.0083 276.315C65.8083 274.619 69.275 265.775 69.575 265.243Z" fill="#FFEDE5"/>
<path d="M143.142 204.264C143.142 204.264 132.575 224.08 142.308 242.733L149.208 222.351L143.142 204.264Z" fill="#E0855C"/>
<path d="M126.708 193.358C128.708 184.513 130.408 177.564 131.275 175.004C134.542 165.295 141.308 164.564 141.308 164.564C147.975 164.398 149.042 200.041 149.208 215.402C142.642 206.724 133.508 195.951 126.708 193.358Z" fill="#AB8DA8"/>
<path d="M120.342 259.358C120.308 259.358 120.308 259.358 120.275 259.358L113.675 257.895C113.508 257.862 113.375 257.662 113.408 257.496C113.442 257.33 113.642 257.197 113.808 257.23L120.408 258.693C120.575 258.726 120.708 258.926 120.675 259.092C120.642 259.258 120.475 259.358 120.342 259.358Z" fill="#472938"/>
<path d="M88.9083 283.264C88.7083 283.264 88.575 283.098 88.575 282.932C88.6083 278.244 94.1083 277.845 94.175 277.845C94.3416 277.845 94.5083 277.978 94.5416 278.144C94.5416 278.343 94.4083 278.476 94.2416 278.51C94.0416 278.51 89.275 278.875 89.275 282.932C89.2416 283.131 89.1083 283.264 88.9083 283.264Z" fill="#472938"/>
<path d="M90.5417 286.223C90.4083 286.223 90.3083 286.157 90.2417 286.057C89.075 283.763 85.7417 277.612 84.575 276.88C83.675 276.348 82.8083 276.548 82.5417 276.614C82.2417 276.714 82.075 276.847 82.0084 276.914C82.4084 277.745 85.2417 284.095 85.375 284.395C85.4417 284.561 85.375 284.76 85.2083 284.827C85.0417 284.893 84.8417 284.827 84.775 284.661C83.675 282.233 81.575 277.512 81.4084 277.146C81.275 276.914 81.375 276.614 81.6084 276.382C82.175 275.85 83.675 275.517 84.9417 276.282C86.5083 277.213 90.4083 284.86 90.8417 285.725C90.9083 285.891 90.875 286.09 90.7083 286.157C90.6417 286.223 90.575 286.223 90.5417 286.223Z" fill="#472938"/>
<path d="M79.8751 284.129C79.7084 284.129 79.5751 284.029 79.5417 283.863C79.5084 283.696 79.0751 282.367 78.5751 280.804C76.5751 274.653 76.0417 272.924 76.0417 272.724C76.0417 272.525 76.1417 272.358 76.3751 272.192C76.8417 271.826 77.8417 271.427 78.6751 271.66C79.6417 271.926 81.7751 275.251 82.4084 276.249C82.5084 276.415 82.4417 276.614 82.3084 276.714C82.1417 276.814 81.9417 276.747 81.8417 276.614C80.6084 274.653 78.9751 272.458 78.5084 272.325C77.8417 272.126 76.9417 272.591 76.7417 272.791C76.9084 273.389 78.3417 277.911 79.2417 280.638C80.2417 283.73 80.2417 283.73 80.2417 283.796C80.2417 283.962 80.0751 284.129 79.8751 284.129C79.9084 284.129 79.9084 284.129 79.8751 284.129Z" fill="#472938"/>
<path d="M75.1749 283.663C75.0416 283.663 74.9083 283.563 74.8416 283.43C71.1749 269.698 71.3416 269.333 71.3749 269.2C71.6083 268.601 72.5416 268.169 73.7416 268.136H73.7749C75.0083 268.136 76.9083 271.095 77.4749 271.993C77.5749 272.159 77.5083 272.358 77.3749 272.458C77.2083 272.558 77.0083 272.491 76.9083 272.358C75.8749 270.663 74.3749 268.801 73.8083 268.801C72.8083 268.834 72.2083 269.2 72.0749 269.399C72.1416 270.264 74.1749 278.111 75.5416 283.231C75.5749 283.397 75.4749 283.597 75.3083 283.63C75.2083 283.63 75.1749 283.663 75.1749 283.663Z" fill="#472938"/>
<path d="M72.1083 269.233C72.075 269.233 72.0416 269.233 72.0083 269.233C71.8416 269.2 71.7083 269 71.775 268.834C72.1416 267.438 70.7083 265.842 70.675 265.808C70.5416 265.675 70.575 265.476 70.7083 265.343C70.8416 265.21 71.0416 265.243 71.175 265.376C71.2416 265.443 72.875 267.271 72.4083 269C72.375 269.133 72.2416 269.233 72.1083 269.233Z" fill="#472938"/>
<path d="M74.3083 280.438C74.2083 280.438 74.1083 280.405 74.0416 280.305L71.0083 276.082L71.6416 270.796C71.675 270.629 71.8416 270.496 72.0083 270.496C72.175 270.53 72.3083 270.696 72.3083 270.862L71.7083 275.883L74.6083 279.906C74.7083 280.039 74.675 280.272 74.5416 280.372C74.4416 280.438 74.375 280.438 74.3083 280.438Z" fill="#472938"/>
<path d="M207.708 156.152L229.175 161.97C229.175 161.97 226.575 196.583 231.008 203.732C235.442 210.88 232.975 227.139 227.608 235.219C227.608 235.219 219.008 262.816 221.342 269.299C223.675 275.783 231.508 290.114 231.508 290.114C231.508 290.114 196.542 307.802 145.942 292.075C145.942 292.075 155.975 270.995 154.408 262.916C152.842 254.836 142.008 232.326 142.142 221.686C142.275 211.047 145.675 182.652 140.708 164.697L162.175 157.548C162.175 157.548 162.542 199.708 186.975 199.708C211.408 199.708 207.708 156.152 207.708 156.152Z" fill="#AB8DA8"/>
<path d="M227.642 235.219C227.642 235.219 224.975 240.539 208.042 242.766C208.042 242.766 224.342 243.997 222.708 253.772L227.642 235.219Z" fill="#543753"/>
<path d="M144.475 233.723C144.475 233.723 148.475 241.204 166.575 242.899C166.575 242.899 146.742 239.907 150.442 250.746L144.475 233.723Z" fill="#543753"/>
<path d="M142.242 223.548C142.075 223.548 141.908 223.415 141.908 223.249C141.875 222.684 141.842 222.185 141.875 221.686C141.908 219.292 142.108 216.034 142.308 212.243C142.608 207.057 142.975 200.606 143.075 193.99C143.075 193.79 143.208 193.657 143.408 193.657C143.608 193.657 143.742 193.823 143.742 193.99C143.642 200.606 143.275 207.09 142.975 212.277C142.742 216.067 142.575 219.326 142.542 221.72C142.542 222.185 142.542 222.684 142.575 223.216C142.575 223.349 142.442 223.515 142.242 223.548Z" fill="#472938"/>
<path d="M231.008 204.064C230.908 204.064 230.775 203.998 230.708 203.898C229.242 201.537 228.375 196.118 228.142 187.805C228.142 187.606 228.275 187.473 228.475 187.473C228.642 187.473 228.808 187.606 228.808 187.805C229.042 196.018 229.875 201.338 231.275 203.565C231.375 203.732 231.308 203.931 231.175 204.031C231.142 204.031 231.075 204.064 231.008 204.064Z" fill="#472938"/>
<path d="M147.108 289.615C147.108 289.615 165.942 296.763 187.975 295.999C210.008 295.234 254.108 279.341 274.708 282.599C295.308 285.858 293.975 294.602 293.275 298.625C292.575 302.649 249.808 362.996 212.242 362.996H154.675C154.675 362.996 83.9417 318.542 81.6417 305.708C79.3417 292.873 81.0083 285.193 100.742 284.827C120.475 284.461 141.808 287.886 147.108 289.615Z" fill="#3B2645"/>
<path d="M187.242 309.199C187.242 309.199 215.375 297.528 238.875 293.505C238.875 293.505 254.008 316.913 249.575 336.696C249.542 336.696 195.742 324.926 187.242 309.199Z" fill="#FFEDE5"/>
<path d="M187.242 309.199C187.242 309.199 255.308 318.076 249.542 336.696C243.775 355.316 187.242 309.199 187.242 309.199Z" fill="#E0855C"/>
<path d="M217.842 342.88C217.842 342.88 148.075 348.865 132.775 351.991C117.475 355.116 101.975 353.72 92.5083 357.011C83.0416 360.303 77.8083 362.83 76.675 362.963C75.5416 363.096 72.9416 348.433 77.7083 343.246C77.7083 343.246 76.2416 337.96 82.9083 333.87C89.575 329.78 100.642 335.167 104.742 333.87C108.842 332.573 111.775 331.376 116.142 332.307C120.508 333.238 131.175 335.865 131.175 335.865C131.175 335.865 186.108 301.053 217.842 342.88Z" fill="#FFEDE5"/>
<path d="M131.208 335.865L172.642 347.103L217.842 342.88C217.842 342.88 197.242 321.734 168.808 323.696C140.375 325.657 131.208 335.865 131.208 335.865Z" fill="#E0855C"/>
<path d="M145.642 294.07C145.642 294.07 167.042 298.393 197.975 314.552C228.908 330.711 254.508 324.095 263.542 327.22C272.575 330.345 289.708 327.918 292.508 330.345C295.308 332.773 297.142 337.029 295.475 338.857C295.475 338.857 302.942 355.947 302.242 357.078C301.542 358.208 298.942 358.109 297.708 357.843C296.475 357.577 285.608 352.19 273.108 349.963C260.608 347.735 226.142 342.947 198.675 341.55C171.208 340.154 131.208 337.394 131.208 337.394C131.208 337.394 132.142 303.779 145.642 294.07Z" fill="#FFEDE5"/>
<path d="M293.208 339.556C292.142 339.556 290.708 339.356 288.875 338.724C288.708 338.658 288.608 338.458 288.675 338.292C288.742 338.126 288.942 338.026 289.108 338.092C293.242 339.556 295.242 338.558 295.275 338.558C295.442 338.458 295.642 338.525 295.708 338.691C295.808 338.857 295.742 339.057 295.575 339.123C295.542 339.123 294.775 339.556 293.208 339.556Z" fill="#472938"/>
<path d="M81.075 344.277C78.7416 344.277 77.6083 343.545 77.5416 343.512C77.375 343.412 77.3416 343.213 77.4416 343.047C77.5416 342.88 77.7416 342.847 77.9083 342.947C77.9083 342.947 79.1083 343.678 81.4416 343.579C83.875 343.512 86.5083 342.315 86.5416 342.315C86.7083 342.249 86.9083 342.315 86.975 342.481C87.0416 342.648 86.975 342.847 86.8083 342.914C86.7083 342.98 84.0083 344.144 81.475 344.244C81.3416 344.277 81.2083 344.277 81.075 344.277Z" fill="#472938"/>
</svg>
