<svg width="375" height="422" viewBox="0 0 375 422" fill="none" xmlns="http://www.w3.org/2000/svg">
<g clip-path="url(#clip0_1044_4647)">
<path d="M189.559 26.3131C188.477 21.101 182.884 16.8197 177.832 17.0058C167.909 17.3781 161.955 26.8716 154.017 31.8975C145.718 37.1096 137.959 41.9493 128.217 43.9969C119.918 45.8584 111.438 45.8584 103.139 43.6246C92.1331 40.6463 82.7514 33.9451 71.2046 33.3866C60.5599 33.0143 51.1782 45.1138 54.7866 55.7241C65.0704 86.4381 109.814 92.5809 136.516 85.135C149.506 81.4121 163.759 74.1525 173.141 64.1006C181.982 54.9795 192.265 39.9017 189.559 26.3131Z" fill="white"/>
<path d="M63.6515 406.278C108.475 454.797 195.617 465.227 243.318 451.582C298.246 436.176 354.401 384.491 332.742 323.22C320.693 288.534 273.717 278.817 249.714 291.938C234.057 300.455 229.465 317.049 219.242 329.765C209.412 341.838 196.304 353.234 179.834 359.052C166.334 364.036 150.593 367.653 134.683 368.521C117.232 368.89 98.548 363.217 80.5368 361.481C50.5649 358.175 43.313 384.166 63.6515 406.278Z" fill="white"/>
<path d="M56.5981 109.114C90.249 98.7315 125.217 116.28 159.014 109.114C202.906 99.7552 193.982 38.1893 235.972 30C326.829 32.486 344.386 160.151 334.584 228.298C332.097 245.115 326.976 258.715 312.93 269.537C269.477 302.586 211.977 282.844 163.549 299.662C141.896 307.266 129.313 323.059 124.339 344.995C118.779 369.417 118.633 398.518 96.8328 415.043C62.0115 441.365 23.9713 404.66 16.5096 369.709C1.29351 329.64 28.0679 296.444 45.186 262.81C73.4234 211.334 -23.4326 133.828 56.5981 109.114Z" fill="white"/>
<path d="M163.708 140.791C163.708 140.791 166.175 124 185.075 124C203.975 124 213.142 145.479 217.408 158.081C221.675 170.682 232.675 182.552 247.008 189.568C261.342 196.583 272.175 204.131 270.342 220.024C270.342 220.024 301.008 243.964 242.575 248.386C184.142 252.808 155.442 216.134 158.975 197.248C162.508 178.363 139.708 152.761 163.708 140.791Z" fill="#3B2645"/>
<path d="M199.075 181.089C199.075 181.089 196.408 206.891 207.742 209.152C207.742 209.152 212.442 255.468 186.008 255.468C159.575 255.468 162.275 210.548 162.275 210.548C162.275 210.548 173.542 207.589 172.642 182.685C171.742 157.781 199.442 163.766 199.075 181.089Z" fill="#FFEDE5"/>
<path d="M191.208 183.383C193.442 174.905 181.942 173.176 174.208 172.943C173.108 175.437 172.475 178.662 172.608 182.685C172.775 186.21 172.608 189.767 172.175 193.292C176.575 193.624 188.508 193.591 191.208 183.383Z" fill="#E0855C"/>
<path d="M169.425 175.471C171.81 174.653 172.502 170.386 170.969 165.941C169.437 161.495 166.262 158.554 163.877 159.372C161.491 160.19 160.8 164.457 162.332 168.902C163.864 173.348 167.04 176.289 169.425 175.471Z" fill="#E0855C"/>
<path d="M209.125 168.863C210.657 164.417 209.965 160.15 207.58 159.332C205.195 158.514 202.02 161.455 200.487 165.901C198.955 170.347 199.647 174.614 202.032 175.431C204.417 176.249 207.593 173.308 209.125 168.863Z" fill="#E0855C"/>
<path d="M165.142 144.947C165.142 144.947 163.308 189.468 184.442 189.568C200.875 189.634 205.575 169.651 205.842 147.142C206.108 124.632 165.408 127.657 165.142 144.947Z" fill="#FFEDE5"/>
<path d="M186.108 176.534C182.575 176.534 179.475 174.406 179.442 174.373C179.275 174.273 179.242 174.074 179.375 173.907C179.475 173.741 179.675 173.708 179.842 173.841C179.908 173.874 185.908 177.964 190.342 174.473C190.475 174.373 190.708 174.373 190.808 174.539C190.908 174.705 190.908 174.905 190.742 175.005C189.242 176.135 187.642 176.534 186.108 176.534Z" fill="#472938"/>
<path d="M172.375 158.114C172.375 158.114 175.142 159.876 179.808 158.446C179.808 158.413 175.842 162.47 172.375 158.114Z" fill="#472938"/>
<path d="M198.908 158.48C198.908 158.48 196.142 160.242 191.475 158.812C191.475 158.812 195.442 162.869 198.908 158.48Z" fill="#472938"/>
<path d="M170.775 152.694C170.775 152.694 174.275 148.837 179.375 150.034C181.975 150.633 180.975 147.441 176.275 147.64C171.575 147.84 170.775 152.694 170.775 152.694Z" fill="#472938"/>
<path d="M200.775 152.694C200.775 152.694 197.275 148.837 192.175 150.034C189.575 150.633 190.575 147.441 195.275 147.64C199.975 147.84 200.775 152.694 200.775 152.694Z" fill="#472938"/>
<path d="M185.308 169.086C184.308 169.086 182.175 168.355 181.442 167.623C181.175 167.357 181.075 167.091 181.108 166.825C181.175 166.426 181.475 165.163 181.908 163.567C182.475 161.273 183.208 158.446 183.442 157.05C183.675 155.72 183.442 154.323 182.808 153.126C182.708 152.96 182.775 152.761 182.942 152.661C183.108 152.561 183.308 152.628 183.408 152.794C184.108 154.124 184.375 155.653 184.108 157.15C183.875 158.579 183.142 161.439 182.575 163.733C182.175 165.263 181.842 166.593 181.808 166.925C181.808 166.958 181.842 167.025 181.942 167.158C182.642 167.856 184.842 168.521 185.475 168.421C186.308 168.288 188.042 167.49 188.642 166.792C188.775 166.659 188.975 166.659 189.108 166.759C189.242 166.892 189.242 167.091 189.142 167.224C188.408 168.022 186.542 168.92 185.575 169.053C185.442 169.086 185.375 169.086 185.308 169.086Z" fill="#472938"/>
<path d="M165.442 156.352C165.442 156.352 166.775 145.745 170.075 141.855C170.075 141.855 175.608 139.394 184.408 144.615C193.208 149.835 199.375 154.224 207.542 152.927C207.542 152.927 208.308 127.624 187.208 128.987C166.108 130.351 161.775 141.356 165.442 156.352Z" fill="#3B2645"/>
<path d="M304.875 312.69C304.542 312.158 303.542 313.056 303.542 313.056C303.542 313.056 302.508 311.892 299.708 312.724C296.908 313.555 288.608 320.67 288.608 320.67C284.875 320.604 278.775 324.261 278.775 324.261C278.775 324.261 274.175 322.366 270.008 316.115C265.842 309.864 261.308 306.805 261.308 306.805C261.308 306.805 251.542 267.637 244.942 243.199C238.242 246.025 229.542 257.164 223.342 266.141C223.475 270.364 223.608 273.057 223.608 273.057C223.608 273.057 245.342 330.579 248.142 332.308C250.942 334.037 282.908 337.893 283.242 337.661C283.575 337.428 286.508 338.193 287.708 337.661C288.908 337.129 290.375 337.993 291.842 336.996C293.308 335.998 295.842 337.528 296.875 336.563C297.908 335.599 299.708 335.998 300.908 335.433C302.108 334.868 308.808 325.425 308.942 323.729C309.075 322.033 305.208 313.222 304.875 312.69Z" fill="#FFEDE5"/>
<path d="M228.942 254.67C228.942 254.67 240.308 274.021 231.308 293.073L223.575 272.991L228.942 254.67Z" fill="#E0855C"/>
<path d="M244.908 243.133C242.542 234.355 240.575 227.472 239.608 224.978C235.942 215.403 229.175 214.97 229.175 214.97C222.508 215.07 222.842 250.713 223.308 266.075C229.508 257.097 238.208 245.992 244.908 243.133Z" fill="#AB8DA8"/>
<path d="M253.908 308.833C253.775 308.833 253.642 308.734 253.575 308.601C253.542 308.434 253.642 308.235 253.808 308.202L260.342 306.473C260.508 306.439 260.708 306.539 260.742 306.705C260.775 306.872 260.675 307.071 260.508 307.104L253.975 308.833C253.975 308.833 253.942 308.833 253.908 308.833Z" fill="#472938"/>
<path d="M286.242 331.476C286.075 331.476 285.908 331.343 285.908 331.144C285.742 327.087 280.942 326.921 280.742 326.921C280.542 326.921 280.408 326.755 280.408 326.589C280.408 326.389 280.575 326.256 280.742 326.256C280.808 326.256 286.342 326.456 286.542 331.111C286.608 331.31 286.442 331.476 286.242 331.476C286.275 331.476 286.275 331.476 286.242 331.476Z" fill="#472938"/>
<path d="M284.775 334.502C284.742 334.502 284.675 334.502 284.642 334.469C284.475 334.402 284.408 334.203 284.475 334.037C284.875 333.172 288.475 325.392 289.975 324.394C291.208 323.563 292.708 323.829 293.308 324.361C293.708 324.693 293.575 325.026 293.542 325.126C293.375 325.491 291.442 330.279 290.475 332.74C290.408 332.906 290.208 333.006 290.042 332.939C289.875 332.873 289.775 332.673 289.842 332.507C289.942 332.208 292.542 325.757 292.908 324.926C292.842 324.86 292.675 324.727 292.342 324.66C292.075 324.594 291.208 324.427 290.342 324.993C289.208 325.757 286.142 332.008 285.042 334.369C285.008 334.436 284.908 334.502 284.775 334.502Z" fill="#472938"/>
<path d="M295.308 332.008C295.108 332.008 294.975 331.875 294.975 331.676C294.975 331.609 294.975 331.609 295.908 328.318C296.675 325.624 297.908 321.236 298.042 320.537C297.842 320.338 296.908 319.939 296.275 320.138C295.775 320.305 294.242 322.565 293.108 324.56C293.008 324.727 292.808 324.76 292.642 324.693C292.475 324.594 292.442 324.394 292.508 324.228C293.108 323.197 295.108 319.806 296.042 319.473C296.842 319.207 297.875 319.573 298.342 319.906C298.575 320.072 298.708 320.271 298.708 320.438C298.708 320.637 298.242 322.333 296.542 328.451C296.108 330.013 295.675 331.51 295.642 331.676C295.642 331.875 295.475 332.008 295.308 332.008Z" fill="#472938"/>
<path d="M300.008 331.31C299.975 331.31 299.975 331.31 299.942 331.31C299.775 331.277 299.642 331.077 299.675 330.911C300.842 325.724 302.542 317.811 302.575 316.946C302.442 316.747 301.842 316.414 300.808 316.414C300.242 316.414 298.808 318.31 297.842 320.072C297.742 320.238 297.542 320.304 297.375 320.205C297.208 320.105 297.142 319.905 297.242 319.739C297.775 318.808 299.575 315.749 300.808 315.749C301.975 315.749 302.942 316.148 303.208 316.714C303.275 316.847 303.442 317.212 300.308 331.044C300.308 331.21 300.175 331.31 300.008 331.31Z" fill="#472938"/>
<path d="M302.508 316.747C302.375 316.747 302.242 316.647 302.175 316.514C301.642 314.818 303.208 312.923 303.275 312.857C303.408 312.724 303.608 312.69 303.742 312.823C303.875 312.956 303.908 313.156 303.775 313.289C303.775 313.322 302.375 314.985 302.808 316.348C302.875 316.514 302.775 316.714 302.575 316.78C302.575 316.747 302.542 316.747 302.508 316.747Z" fill="#472938"/>
<path d="M300.742 328.085C300.675 328.085 300.608 328.052 300.575 328.018C300.408 327.919 300.375 327.719 300.475 327.553L303.208 323.43L302.408 318.443C302.375 318.276 302.508 318.077 302.675 318.077C302.842 318.044 303.042 318.177 303.042 318.343L303.908 323.596L301.042 327.952C300.942 328.018 300.842 328.085 300.742 328.085Z" fill="#472938"/>
<path d="M69.575 318.243C69.875 317.711 70.9083 318.542 70.9083 318.542C70.9083 318.542 71.9083 317.345 74.7417 318.077C77.575 318.808 86.1417 325.558 86.1417 325.558C89.8417 325.358 96.1417 328.75 96.1417 328.75C96.1417 328.75 100.675 326.655 104.608 320.238C108.542 313.821 112.942 310.562 112.942 310.562C112.942 310.562 121.108 271.062 126.742 246.325C133.542 248.885 142.675 259.658 149.242 268.369C149.275 272.592 149.275 275.285 149.275 275.285C149.275 275.285 129.875 333.604 127.142 335.466C124.408 337.328 92.6083 342.415 92.3083 342.216C92.0083 342.016 89.075 342.881 87.8417 342.382C86.6083 341.883 85.2083 342.848 83.675 341.883C82.1417 340.919 79.7083 342.548 78.6083 341.651C77.5083 340.753 75.775 341.185 74.5083 340.686C73.2417 340.188 66.2083 331.011 66.0083 329.315C65.8083 327.619 69.275 318.775 69.575 318.243Z" fill="#FFEDE5"/>
<path d="M143.142 257.264C143.142 257.264 132.575 277.08 142.308 295.733L149.208 275.351L143.142 257.264Z" fill="#E0855C"/>
<path d="M126.708 246.358C128.708 237.513 130.408 230.564 131.275 228.004C134.542 218.295 141.308 217.564 141.308 217.564C147.975 217.398 149.042 253.041 149.208 268.402C142.642 259.724 133.508 248.951 126.708 246.358Z" fill="#AB8DA8"/>
<path d="M120.342 312.358C120.308 312.358 120.308 312.358 120.275 312.358L113.675 310.895C113.508 310.862 113.375 310.662 113.408 310.496C113.442 310.33 113.642 310.197 113.808 310.23L120.408 311.693C120.575 311.726 120.708 311.926 120.675 312.092C120.642 312.258 120.475 312.358 120.342 312.358Z" fill="#472938"/>
<path d="M88.9083 336.264C88.7083 336.264 88.575 336.098 88.575 335.932C88.6083 331.244 94.1084 330.845 94.175 330.845C94.3417 330.845 94.5083 330.978 94.5417 331.144C94.5417 331.343 94.4083 331.476 94.2417 331.51C94.0417 331.51 89.275 331.875 89.275 335.932C89.2417 336.131 89.1083 336.264 88.9083 336.264Z" fill="#472938"/>
<path d="M90.5417 339.223C90.4083 339.223 90.3083 339.157 90.2417 339.057C89.075 336.763 85.7417 330.612 84.575 329.88C83.675 329.348 82.8083 329.548 82.5417 329.614C82.2417 329.714 82.075 329.847 82.0084 329.914C82.4084 330.745 85.2417 337.095 85.375 337.395C85.4417 337.561 85.375 337.76 85.2083 337.827C85.0417 337.893 84.8417 337.827 84.775 337.661C83.675 335.233 81.575 330.512 81.4084 330.146C81.275 329.914 81.375 329.614 81.6084 329.382C82.175 328.85 83.675 328.517 84.9417 329.282C86.5083 330.213 90.4083 337.86 90.8417 338.725C90.9083 338.891 90.875 339.09 90.7083 339.157C90.6417 339.223 90.575 339.223 90.5417 339.223Z" fill="#472938"/>
<path d="M79.875 337.129C79.7084 337.129 79.575 337.029 79.5417 336.863C79.5084 336.696 79.075 335.367 78.575 333.804C76.575 327.653 76.0417 325.924 76.0417 325.724C76.0417 325.525 76.1417 325.358 76.375 325.192C76.8417 324.826 77.8417 324.427 78.675 324.66C79.6417 324.926 81.775 328.251 82.4083 329.249C82.5083 329.415 82.4417 329.614 82.3084 329.714C82.1417 329.814 81.9417 329.747 81.8417 329.614C80.6084 327.653 78.975 325.458 78.5084 325.325C77.8417 325.126 76.9417 325.591 76.7417 325.791C76.9084 326.389 78.3417 330.911 79.2417 333.638C80.2417 336.73 80.2417 336.73 80.2417 336.796C80.2417 336.962 80.075 337.129 79.875 337.129C79.9084 337.129 79.9084 337.129 79.875 337.129Z" fill="#472938"/>
<path d="M75.175 336.663C75.0417 336.663 74.9083 336.563 74.8417 336.43C71.175 322.698 71.3417 322.333 71.375 322.2C71.6083 321.601 72.5417 321.169 73.7417 321.136H73.775C75.0083 321.136 76.9083 324.095 77.475 324.993C77.575 325.159 77.5083 325.358 77.375 325.458C77.2083 325.558 77.0083 325.491 76.9083 325.358C75.875 323.663 74.375 321.801 73.8083 321.801C72.8083 321.834 72.2083 322.2 72.075 322.399C72.1417 323.264 74.175 331.111 75.5417 336.231C75.575 336.397 75.475 336.597 75.3083 336.63C75.2083 336.63 75.175 336.663 75.175 336.663Z" fill="#472938"/>
<path d="M72.1083 322.233C72.075 322.233 72.0416 322.233 72.0083 322.233C71.8416 322.2 71.7083 322 71.775 321.834C72.1416 320.438 70.7083 318.842 70.675 318.808C70.5416 318.675 70.575 318.476 70.7083 318.343C70.8416 318.21 71.0416 318.243 71.175 318.376C71.2416 318.443 72.875 320.271 72.4083 322C72.375 322.133 72.2416 322.233 72.1083 322.233Z" fill="#472938"/>
<path d="M74.3084 333.438C74.2084 333.438 74.1084 333.405 74.0417 333.305L71.0084 329.082L71.6417 323.796C71.675 323.629 71.8417 323.496 72.0084 323.496C72.175 323.53 72.3084 323.696 72.3084 323.862L71.7084 328.883L74.6084 332.906C74.7084 333.039 74.675 333.272 74.5417 333.372C74.4417 333.438 74.375 333.438 74.3084 333.438Z" fill="#472938"/>
<path d="M207.708 209.152L229.175 214.97C229.175 214.97 226.575 249.583 231.008 256.732C235.442 263.88 232.975 280.139 227.608 288.219C227.608 288.219 219.008 315.816 221.342 322.299C223.675 328.783 231.508 343.114 231.508 343.114C231.508 343.114 196.542 360.802 145.942 345.075C145.942 345.075 155.975 323.995 154.408 315.916C152.842 307.836 142.008 285.326 142.142 274.686C142.275 264.047 145.675 235.652 140.708 217.697L162.175 210.548C162.175 210.548 162.542 252.708 186.975 252.708C211.408 252.708 207.708 209.152 207.708 209.152Z" fill="#AB8DA8"/>
<path d="M227.642 288.219C227.642 288.219 224.975 293.539 208.042 295.766C208.042 295.766 224.342 296.997 222.708 306.772L227.642 288.219Z" fill="#543753"/>
<path d="M144.475 286.723C144.475 286.723 148.475 294.204 166.575 295.899C166.575 295.899 146.742 292.907 150.442 303.746L144.475 286.723Z" fill="#543753"/>
<path d="M142.242 276.548C142.075 276.548 141.908 276.415 141.908 276.249C141.875 275.684 141.842 275.185 141.875 274.686C141.908 272.292 142.108 269.034 142.308 265.243C142.608 260.057 142.975 253.606 143.075 246.99C143.075 246.79 143.208 246.657 143.408 246.657C143.608 246.657 143.742 246.823 143.742 246.99C143.642 253.606 143.275 260.09 142.975 265.277C142.742 269.067 142.575 272.326 142.542 274.72C142.542 275.185 142.542 275.684 142.575 276.216C142.575 276.349 142.442 276.515 142.242 276.548Z" fill="#472938"/>
<path d="M231.008 257.064C230.908 257.064 230.775 256.998 230.708 256.898C229.242 254.537 228.375 249.118 228.142 240.805C228.142 240.606 228.275 240.473 228.475 240.473C228.642 240.473 228.808 240.606 228.808 240.805C229.042 249.018 229.875 254.338 231.275 256.565C231.375 256.732 231.308 256.931 231.175 257.031C231.142 257.031 231.075 257.064 231.008 257.064Z" fill="#472938"/>
<path d="M147.108 342.615C147.108 342.615 165.942 349.763 187.975 348.999C210.008 348.234 254.108 332.341 274.708 335.599C295.308 338.858 293.975 347.602 293.275 351.625C292.575 355.649 249.808 415.996 212.242 415.996H154.675C154.675 415.996 83.9416 371.542 81.6416 358.708C79.3416 345.873 81.0083 338.193 100.742 337.827C120.475 337.461 141.808 340.886 147.108 342.615Z" fill="#3B2645"/>
<path d="M187.242 362.199C187.242 362.199 215.375 350.528 238.875 346.505C238.875 346.505 254.008 369.913 249.575 389.696C249.542 389.696 195.742 377.926 187.242 362.199Z" fill="#FFEDE5"/>
<path d="M187.242 362.199C187.242 362.199 255.308 371.076 249.542 389.696C243.775 408.316 187.242 362.199 187.242 362.199Z" fill="#E0855C"/>
<path d="M217.842 395.88C217.842 395.88 148.075 401.865 132.775 404.991C117.475 408.116 101.975 406.72 92.5083 410.011C83.0416 413.303 77.8083 415.83 76.675 415.963C75.5416 416.096 72.9416 401.433 77.7083 396.246C77.7083 396.246 76.2416 390.96 82.9083 386.87C89.575 382.78 100.642 388.167 104.742 386.87C108.842 385.573 111.775 384.376 116.142 385.307C120.508 386.238 131.175 388.865 131.175 388.865C131.175 388.865 186.108 354.053 217.842 395.88Z" fill="#FFEDE5"/>
<path d="M131.208 388.865L172.642 400.103L217.842 395.88C217.842 395.88 197.242 374.734 168.808 376.696C140.375 378.657 131.208 388.865 131.208 388.865Z" fill="#E0855C"/>
<path d="M145.642 347.07C145.642 347.07 167.042 351.393 197.975 367.552C228.908 383.711 254.508 377.095 263.542 380.22C272.575 383.345 289.708 380.918 292.508 383.345C295.308 385.773 297.142 390.029 295.475 391.857C295.475 391.857 302.942 408.947 302.242 410.078C301.542 411.208 298.942 411.109 297.708 410.843C296.475 410.577 285.608 405.19 273.108 402.963C260.608 400.735 226.142 395.947 198.675 394.55C171.208 393.154 131.208 390.394 131.208 390.394C131.208 390.394 132.142 356.779 145.642 347.07Z" fill="#FFEDE5"/>
<path d="M293.208 392.556C292.142 392.556 290.708 392.356 288.875 391.724C288.708 391.658 288.608 391.458 288.675 391.292C288.742 391.126 288.942 391.026 289.108 391.092C293.242 392.556 295.242 391.558 295.275 391.558C295.442 391.458 295.642 391.525 295.708 391.691C295.808 391.857 295.742 392.057 295.575 392.123C295.542 392.123 294.775 392.556 293.208 392.556Z" fill="#472938"/>
<path d="M81.075 397.277C78.7416 397.277 77.6083 396.545 77.5416 396.512C77.375 396.412 77.3416 396.213 77.4416 396.047C77.5416 395.88 77.7416 395.847 77.9083 395.947C77.9083 395.947 79.1083 396.678 81.4416 396.579C83.875 396.512 86.5083 395.315 86.5416 395.315C86.7083 395.249 86.9083 395.315 86.975 395.481C87.0416 395.648 86.975 395.847 86.8083 395.914C86.7083 395.98 84.0083 397.144 81.475 397.244C81.3416 397.277 81.2083 397.277 81.075 397.277Z" fill="#472938"/>
</g>
<defs>
<clipPath id="clip0_1044_4647">
<rect width="375" height="422" fill="white"/>
</clipPath>
</defs>
</svg>
