<svg width="375" height="406" viewBox="0 0 375 406" fill="none" xmlns="http://www.w3.org/2000/svg">
<path d="M363.923 203.558C359.056 194.409 352.45 185.983 344.338 178.76C318.148 155.648 283.382 146.5 250.47 139.759C238.649 137.351 227.061 128.564 232.044 114.721C235.752 104.73 240.735 96.3034 237.838 84.9881C227.061 43.4586 168.885 55.7369 144.897 73.432C134.003 81.4972 124.501 92.5717 111.637 97.2664C94.8335 103.406 75.2486 99.3127 57.7496 101.841C38.9759 104.609 21.7088 114.36 10.4678 130.249C-2.27981 148.426 0.269732 173.705 12.0902 191.52C30.9798 219.808 60.6468 242.8 86.0261 264.468C116.273 290.348 149.764 319.72 186.268 335.008C221.382 349.693 263.449 353.425 299.026 338.378C331.127 324.776 358.129 298.654 369.138 263.866C375.975 243.041 373.426 221.734 363.923 203.558Z" fill="white"/>
<path d="M149.903 119.434L129.951 125.813C129.951 125.813 123.88 149.242 125.775 153.418C127.67 157.593 138.342 160.763 143.407 158.25C148.472 155.737 165.64 139.306 165.64 139.306L149.903 119.434Z" fill="#FFEDE5"/>
<path d="M168.192 96.8175C168.192 96.8175 155.432 111.277 149.903 119.434L164.132 141.665L179.019 128.288C179.019 128.288 176.544 91.289 168.192 96.8175Z" fill="#543753"/>
<path d="M147.622 120.169V142.438L154.04 125.891L149.903 119.434L147.622 120.169Z" fill="#E0855C"/>
<path d="M146.655 107.256C148.395 107.681 148.936 106.483 150.367 108.764C151.798 111.045 154.814 119.976 154.002 121.329C153.19 122.682 144.18 131.381 143.523 131.381C142.866 131.381 141.203 128.945 141.551 128.095C141.551 128.095 139.424 129.37 138.032 129.138C138.032 129.138 134.939 130.762 133.702 130.453C132.464 130.144 125.234 119.473 126.935 116.651C128.636 113.829 129.719 115.298 130.724 114.176C131.73 113.055 133.431 111.2 135.48 111.393C137.53 111.586 138.458 108.416 141.435 108.88C144.412 109.344 142.788 106.29 146.655 107.256Z" fill="#FFEDE5"/>
<path d="M141.512 128.481C141.358 128.481 141.242 128.404 141.164 128.288C141.048 128.094 141.126 127.863 141.319 127.785C141.358 127.785 144.838 125.929 145.766 124.576L145.843 124.499C145.882 124.499 147.854 122.721 148.511 121.367L145.147 113.751C145.07 113.558 145.147 113.326 145.34 113.249C145.534 113.171 145.766 113.249 145.843 113.442L149.323 121.367L149.246 121.522C148.666 122.991 146.655 124.808 146.346 125.079C145.263 126.587 141.783 128.404 141.628 128.481C141.628 128.442 141.59 128.481 141.512 128.481Z" fill="#472938"/>
<path d="M137.994 129.525C137.839 129.525 137.723 129.448 137.646 129.293L133.354 120.556C133.276 120.362 133.354 120.13 133.547 120.053C133.74 119.976 133.972 120.053 134.05 120.246L138.342 128.984C138.419 129.177 138.342 129.409 138.148 129.486C138.11 129.525 138.071 129.525 137.994 129.525Z" fill="#472938"/>
<path d="M143.794 127.128C143.639 127.128 143.523 127.051 143.446 126.896L139.424 118.236C139.347 118.043 139.424 117.811 139.618 117.733C139.811 117.656 140.043 117.733 140.12 117.927L144.142 126.587C144.219 126.78 144.142 127.012 143.948 127.089C143.91 127.128 143.832 127.128 143.794 127.128Z" fill="#472938"/>
<path d="M143.484 131.767C142.866 131.767 142.17 130.801 141.899 130.414C141.706 130.144 141.28 129.448 141.126 128.752C140.391 129.1 139.115 129.641 138.071 129.564C137.452 129.873 134.823 131.149 133.586 130.839C132.89 130.685 131.614 128.984 130.918 127.979C130.802 127.785 130.84 127.553 130.995 127.437C131.15 127.321 131.42 127.36 131.536 127.515C132.735 129.254 133.547 129.989 133.74 130.066C134.552 130.26 136.64 129.37 137.8 128.79L137.916 128.752H138.032C139.308 128.945 141.28 127.747 141.319 127.747L142.324 127.167L141.899 128.249C141.86 128.365 141.86 128.752 142.247 129.486C142.711 130.337 143.252 130.878 143.484 130.994C144.451 130.453 150.754 124.499 152.996 122.102C150.908 122.605 148.898 121.715 148.82 121.677C148.627 121.599 148.55 121.367 148.627 121.174C148.704 120.981 148.936 120.904 149.13 120.981C149.168 120.981 151.682 122.102 153.808 120.981C154.079 120.826 154.272 120.903 154.35 121.019C154.466 121.097 154.543 121.29 154.466 121.483C154.195 122.179 144.412 131.767 143.484 131.767Z" fill="#472938"/>
<path d="M211.924 73.5821L231.296 85.7604V111.006C231.296 111.006 211.151 152.915 211.924 168.032L165.795 176.653C165.795 176.653 154.736 132.27 168.192 96.7789L188.763 82.3196L211.924 73.5821Z" fill="#AB8DA8"/>
<path d="M161.542 141.007C161.348 141.007 161.155 140.853 161.155 140.621C161 129.912 161.851 119.937 163.746 110.89C163.784 110.697 163.978 110.542 164.21 110.581C164.403 110.62 164.558 110.813 164.519 111.045C162.663 120.014 161.774 129.95 161.967 140.582C161.929 140.814 161.774 141.007 161.542 141.007Z" fill="#472938"/>
<path d="M231.296 111.045L216.178 108.764L224.646 125.891L231.296 111.045Z" fill="#543753"/>
<path d="M206.898 58.0789L211.924 73.5821C206.55 75.6698 201.716 78.9174 197.772 83.1315C191.16 90.1678 188.608 96.8176 184.626 96.8176C180.643 96.8176 188.802 82.3582 188.802 82.3582L187.758 68.8268L206.898 58.0789Z" fill="#FFEDE5"/>
<path d="M188.26 75.7085C188.26 75.7085 197.115 74.394 201.639 61.6744L187.719 68.8268L188.26 75.7085Z" fill="#E0855C"/>
<path d="M181.687 26.4153C181.687 26.4153 173.142 68.0922 177.588 70.9532C182.035 73.8141 199.59 71.3398 206.124 59.7414C212.659 48.143 204.462 26.4153 181.687 26.4153Z" fill="#FFEDE5"/>
<path d="M178.942 41.2226C178.942 41.2226 170.899 51.6225 171.711 52.6277C172.523 53.6329 176.931 55.0633 176.931 55.0633L178.942 41.2226Z" fill="#FFEDE5"/>
<path d="M203.07 53.4396C203.07 53.4396 199.048 51.4292 201.639 42.6531C201.639 42.6531 196.419 33.4131 193.016 31.9053C189.614 30.3975 180.952 29.9335 180.952 29.9335C180.952 29.9335 179.212 17.7552 182.112 16.4794C185.012 15.2036 211.847 15.9382 216.912 25.4102C218.614 28.6191 217.531 30.5521 217.531 30.5521C217.531 30.5521 220.392 34.3409 219.89 37.5885C219.387 40.836 211.499 52.8597 211.499 52.8597L203.07 53.4396Z" fill="#3B2645"/>
<path d="M211.095 56.6088C213.783 53.9214 214.542 50.323 212.79 48.5716C211.039 46.8202 207.44 47.5791 204.752 50.2665C202.064 52.954 201.305 56.5524 203.057 58.3037C204.809 60.0551 208.407 59.2963 211.095 56.6088Z" fill="#FFEDE5"/>
<path d="M180.991 61.7518C179.174 61.7518 177.55 61.2492 177.434 61.2105C177.24 61.1332 177.124 60.9399 177.202 60.7079C177.279 60.5146 177.472 60.3986 177.704 60.4759C177.743 60.4759 183.002 62.177 184.819 59.3934C184.935 59.2001 185.167 59.1614 185.36 59.2774C185.554 59.3934 185.592 59.6254 185.476 59.8187C184.432 61.3265 182.654 61.7518 180.991 61.7518Z" fill="#472938"/>
<path d="M205.119 55.218C205.003 55.218 204.848 55.1407 204.81 55.0247C204.694 54.8314 204.732 54.5994 204.926 54.4834L208.058 52.5117C208.251 52.3957 208.483 52.4344 208.599 52.6277C208.715 52.821 208.677 53.053 208.483 53.1689L205.351 55.1407C205.274 55.1794 205.196 55.218 205.119 55.218Z" fill="#472938"/>
<path d="M184.278 41.2613C185.09 41.4546 185.592 42.2665 185.399 43.0397L185.167 44.0835C184.974 44.8954 184.162 45.398 183.388 45.2047C182.576 45.0114 182.074 44.1995 182.267 43.4263L182.499 42.3825C182.692 41.5706 183.466 41.068 184.278 41.2613Z" fill="#3B2645"/>
<path d="M182.654 37.2018C182.654 37.2018 187.758 36.8539 189.072 41.0294C189.072 41.0294 188.918 36.6606 185.708 36.0033C182.499 35.3461 181.455 37.0085 182.654 37.2018Z" fill="#3B2645"/>
<path d="M218.807 77.9122C201.446 74.9739 212.968 111.586 212.968 111.586L238.952 119.434L248.58 89.8585C233.462 83.2088 218.807 77.9122 218.807 77.9122Z" fill="#AB8DA8"/>
<path d="M243.012 164.436C243.012 164.436 233.848 167.645 232.959 169.075C232.07 170.506 232.92 175.571 232.92 175.571C231.954 177.117 231.18 178.741 230.639 180.481C229.866 183.071 231.799 182.298 234.08 184.927C236.362 187.556 238.218 186.898 239.532 188.097C240.847 189.295 243.515 188.909 244.559 189.411C245.603 189.914 247.575 191.615 248.774 191.538C249.973 191.46 252.795 187.362 255.115 182.22C257.435 177.078 257.01 172.903 258.054 166.717C259.098 160.531 283.497 120.749 280.635 109.962C279.205 104.588 263.661 96.5469 248.542 89.8585L238.914 119.434L252.679 123.61L243.012 164.436Z" fill="#FFEDE5"/>
<path d="M256.816 125.079C256.778 125.079 256.739 125.079 256.7 125.079L252.563 123.958C252.37 123.919 252.215 123.687 252.292 123.494C252.331 123.301 252.563 123.185 252.756 123.223L256.894 124.344C257.087 124.383 257.242 124.615 257.164 124.808C257.164 124.963 257.01 125.079 256.816 125.079Z" fill="#472938"/>
<path d="M288.252 263.602L303.294 256.063C303.294 256.063 302.946 253.125 305.962 249.8C308.978 246.475 306.735 238.782 303.912 237.545C301.09 236.307 299.698 237.158 297.262 233.176L275.492 242.609L288.252 263.602Z" fill="#FFEDE5"/>
<path d="M303.874 237.545C306.696 238.782 308.9 246.475 305.923 249.8C302.946 253.125 303.255 256.063 303.255 256.063C316.131 257.803 328.234 276.67 330.515 278.796C332.796 280.923 342.038 279.415 342.308 277.83C342.579 276.245 322.511 223.317 320.655 222.157C318.799 220.998 297.223 233.176 297.223 233.176C299.659 237.158 301.051 236.307 303.874 237.545Z" fill="#AB8DA8"/>
<path d="M342.308 277.83C342.54 276.245 322.511 223.317 320.655 222.157C320.191 221.848 318.49 222.389 316.247 223.356C321.583 233.949 335.194 270.445 338.558 279.492C340.568 279.106 342.192 278.487 342.308 277.83Z" fill="#E5E5E5"/>
<path d="M172.291 207.698C172.291 207.698 206.782 298.165 221.32 299.364C235.859 300.562 294.864 260.935 294.864 260.935L283.883 238.936L234.042 255.367L221.63 198.574L172.291 207.698Z" fill="#3B2645"/>
<g opacity="0.5">
<path opacity="0.5" d="M221.63 198.613L172.291 207.698C172.291 207.698 181.146 230.895 191.74 253.937L225.728 217.557L221.63 198.613Z" fill="#3B2645"/>
</g>
<path d="M81.6565 338.18L75.0058 353.606C75.0058 353.606 77.1711 355.655 77.0165 360.101C76.8618 364.547 83.5125 369.032 86.4898 368.142C89.4671 367.253 89.9698 365.707 94.4165 367.215L105.011 345.951L81.6565 338.18Z" fill="#FFEDE5"/>
<path d="M79.3363 343.554C79.3363 343.554 88.4616 353.103 100.41 355.114L104.972 345.951L81.6563 338.141L79.3363 343.554Z" fill="#E0855C"/>
<path d="M211.924 168.07C211.924 168.07 232.108 191.46 221.591 210.018C211.074 228.575 148.395 262.674 144.142 273.152C139.888 283.629 137.491 295.73 128.791 310.266C120.091 324.803 106.21 350.436 106.21 350.436C106.21 350.436 85.2137 349.624 78.3697 340.538C78.3697 340.538 112.242 254.826 120.323 243.73C128.404 232.635 166.53 185.623 166.53 185.623L165.756 176.692L211.924 168.07Z" fill="#3B2645"/>
<path d="M96.659 347.381C96.6203 347.381 96.6203 347.381 96.5817 347.381C96.5043 347.343 96.427 347.227 96.5043 347.111C96.891 346.299 134.204 266.811 141.667 257.533C144.412 254.092 152.494 246.012 161.812 236.655C177.782 220.65 197.618 200.739 200.286 194.631C204.462 185.12 201.678 171.743 201.639 171.589C201.6 171.473 201.678 171.395 201.794 171.357C201.91 171.318 201.987 171.395 202.026 171.511C202.064 171.627 204.848 185.159 200.634 194.785C197.927 200.932 178.052 220.882 162.083 236.926C152.764 246.282 144.722 254.324 141.976 257.765C134.552 267.005 97.239 346.454 96.891 347.265C96.8137 347.343 96.7363 347.381 96.659 347.381Z" fill="white"/>
<path d="M91.3618 346.183C91.3231 346.183 91.3231 346.183 91.2845 346.183C91.2071 346.144 91.1298 346.028 91.2071 345.912C91.5938 345.1 130.299 263.216 134.784 256.334C137.066 252.816 150.676 238.434 163.823 224.554C176.815 210.83 190.271 196.602 192.862 192.814C198.043 185.236 196.96 172.942 196.96 172.826C196.96 172.71 197.038 172.632 197.154 172.632C197.27 172.632 197.347 172.71 197.347 172.826C197.347 172.942 198.468 185.391 193.171 193.084C190.542 196.912 177.086 211.139 164.094 224.902C150.947 238.782 137.375 253.164 135.094 256.643C130.647 263.525 91.9031 345.371 91.5165 346.183C91.5165 346.144 91.4391 346.183 91.3618 346.183Z" fill="white"/>
<path d="M86.4511 368.181C83.5124 369.032 76.8231 364.586 76.9777 360.14C77.1324 355.693 74.9671 353.644 74.9671 353.644C63.9857 360.604 42.6031 353.954 39.4711 353.799C36.3391 353.644 30.2297 360.758 31.0804 362.111C31.9311 363.464 81.3084 391.069 83.5124 390.798C85.7164 390.527 94.3391 367.292 94.3391 367.292C89.9311 365.745 89.4284 367.331 86.4511 368.181Z" fill="#AB8DA8"/>
<path d="M31.1191 362.111C31.9311 363.464 81.3471 391.069 83.5511 390.798C84.0924 390.721 85.0591 389.251 86.1417 387.048C75.2377 382.37 41.2884 363.194 32.9364 358.438C31.6217 359.985 30.7711 361.531 31.1191 362.111Z" fill="#E5E5E5"/>
<g opacity="0.5">
<path opacity="0.5" d="M166.53 185.623C166.53 185.623 189.459 182.762 189.227 182.839C188.995 182.916 166.22 181.834 166.22 181.834L166.53 185.623Z" fill="#3B2645"/>
</g>
</svg>
