<svg width="18" height="18" fill="none" xmlns="http://www.w3.org/2000/svg"><path clip-rule="evenodd" d="M13.393 15.313a2.545 2.545 0 0 0 2.545-2.543v-2.027a1.68 1.68 0 0 1-.001-3.358h0V5.36a2.544 2.544 0 0 0-2.54-2.547H4.608a2.545 2.545 0 0 0-2.545 2.544V7.45A1.622 1.622 0 0 1 3.74 9.014l.002.05a1.68 1.68 0 0 1-1.675 1.68h-.004v2.024a2.544 2.544 0 0 0 2.543 2.545h8.787Z" stroke="#7B6F72" stroke-width="1.5" stroke-linecap="round" stroke-linejoin="round"/><path clip-rule="evenodd" d="m9.279 6.797.462.936a.31.31 0 0 0 .233.17l1.033.15a.31.31 0 0 1 .172.53l-.747.728a.312.312 0 0 0-.09.276l.176 1.027a.31.31 0 0 1-.45.328l-.924-.485a.309.309 0 0 0-.29 0l-.922.485a.311.311 0 0 1-.451-.328l.176-1.027a.31.31 0 0 0-.09-.276l-.746-.727a.31.31 0 0 1 .172-.53l1.032-.151a.312.312 0 0 0 .234-.17l.462-.936a.311.311 0 0 1 .558 0Z" stroke="#7B6F72" stroke-width="1.5" stroke-linecap="round" stroke-linejoin="round"/></svg>