<svg width="18" height="10" viewBox="0 0 18 10" fill="none" xmlns="http://www.w3.org/2000/svg">
<g clip-path="url(#clip0_1309_2969)">
<path d="M17 0H1C0.447715 0 0 0.447715 0 1C0 1.55228 0.447715 2 1 2H17C17.5523 2 18 1.55228 18 1C18 0.447715 17.5523 0 17 0Z" fill="#8388cf"/>
<path d="M17 4H1C0.447715 4 0 4.44772 0 5C0 5.55228 0.447715 6 1 6H17C17.5523 6 18 5.55228 18 5C18 4.44772 17.5523 4 17 4Z" fill="#8388cf"/>
<path d="M17 8H1C0.447715 8 0 8.44772 0 9C0 9.55228 0.447715 10 1 10H17C17.5523 10 18 9.55228 18 9C18 8.44772 17.5523 8 17 8Z" fill="#8388cf"/>
</g>
<defs>
<clipPath id="clip0_1309_2969">
<rect width="18" height="10" fill="white"/>
</clipPath>
</defs>
</svg>
