<svg width="288" height="288" viewBox="0 0 288 288" fill="none" xmlns="http://www.w3.org/2000/svg">
<g clip-path="url(#clip0_1402_5702)">
<path d="M160.92 144L212.52 92.52C214.78 90.2604 216.049 87.1956 216.049 84C216.049 80.8044 214.78 77.7397 212.52 75.48C210.261 73.2204 207.196 71.9509 204 71.9509C200.805 71.9509 197.74 73.2204 195.48 75.48L144 127.08L92.5202 75.48C90.2606 73.2204 87.1959 71.9509 84.0002 71.9509C80.8046 71.9509 77.7399 73.2204 75.4802 75.48C73.2206 77.7397 71.9511 80.8044 71.9511 84C71.9511 87.1956 73.2206 90.2604 75.4802 92.52L127.08 144L75.4802 195.48C74.3555 196.596 73.4628 197.923 72.8535 199.385C72.2443 200.847 71.9307 202.416 71.9307 204C71.9307 205.584 72.2443 207.153 72.8535 208.615C73.4628 210.077 74.3555 211.404 75.4802 212.52C76.5958 213.645 77.923 214.538 79.3853 215.147C80.8476 215.756 82.4161 216.07 84.0002 216.07C85.5844 216.07 87.1529 215.756 88.6152 215.147C90.0775 214.538 91.4047 213.645 92.5202 212.52L144 160.92L195.48 212.52C196.596 213.645 197.923 214.538 199.385 215.147C200.848 215.756 202.416 216.07 204 216.07C205.584 216.07 207.153 215.756 208.615 215.147C210.077 214.538 211.405 213.645 212.52 212.52C213.645 211.404 214.538 210.077 215.147 208.615C215.756 207.153 216.07 205.584 216.07 204C216.07 202.416 215.756 200.847 215.147 199.385C214.538 197.923 213.645 196.596 212.52 195.48L160.92 144Z" fill="#767881"/>
</g>
<defs>
<clipPath id="clip0_1402_5702">
<rect width="288" height="288" fill="white"/>
</clipPath>
</defs>
</svg>
