<svg width="288" height="288" viewBox="0 0 288 288" fill="none" xmlns="http://www.w3.org/2000/svg">
<g clip-path="url(#clip0_1309_2953)">
<path d="M160.92 144L212.52 92.52C214.78 90.2604 216.049 87.1956 216.049 84C216.049 80.8044 214.78 77.7397 212.52 75.48C210.26 73.2204 207.196 71.9509 204 71.9509C200.804 71.9509 197.74 73.2204 195.48 75.48L144 127.08L92.52 75.48C90.2604 73.2204 87.1956 71.9509 84 71.9509C80.8044 71.9509 77.7396 73.2204 75.48 75.48C73.2204 77.7397 71.9509 80.8044 71.9509 84C71.9509 87.1956 73.2204 90.2604 75.48 92.52L127.08 144L75.48 195.48C74.3553 196.596 73.4625 197.923 72.8533 199.385C72.2441 200.847 71.9304 202.416 71.9304 204C71.9304 205.584 72.2441 207.153 72.8533 208.615C73.4625 210.077 74.3553 211.404 75.48 212.52C76.5956 213.645 77.9228 214.538 79.3851 215.147C80.8474 215.756 82.4159 216.07 84 216.07C85.5841 216.07 87.1526 215.756 88.6149 215.147C90.0772 214.538 91.4044 213.645 92.52 212.52L144 160.92L195.48 212.52C196.596 213.645 197.923 214.538 199.385 215.147C200.847 215.756 202.416 216.07 204 216.07C205.584 216.07 207.153 215.756 208.615 215.147C210.077 214.538 211.404 213.645 212.52 212.52C213.645 211.404 214.537 210.077 215.147 208.615C215.756 207.153 216.07 205.584 216.07 204C216.07 202.416 215.756 200.847 215.147 199.385C214.537 197.923 213.645 196.596 212.52 195.48L160.92 144Z" fill="white"/>
</g>
<defs>
<clipPath id="clip0_1309_2953">
<rect width="288" height="288" fill="white"/>
</clipPath>
</defs>
</svg>
